<svg xmlns="http://www.w3.org/2000/svg" viewBox="0 0 420 240" role="img"><rect width="100%" height="100%" fill="#070706"/><g stroke="#5e5a4f" stroke-width="1.6" stroke-linecap="round"><line x1="120.24" y1="111.26" x2="116.74" y2="110.09"/><line x1="190.18" y1="97.27" x2="166.87" y2="120.58"/><line x1="171.53" y1="55.3" x2="190.18" y2="55.3"/><line x1="246.14" y1="55.3" x2="246.14" y2="36.65"/><line x1="232.15" y1="101.93" x2="246.14" y2="115.92"/><line x1="180.86" y1="134.57" x2="204.17" y2="111.26"/><line x1="190.18" y1="64.63" x2="190.18" y2="83.28"/><line x1="264.79" y1="83.28" x2="246.14" y2="83.28"/><line x1="246.14" y1="115.92" x2="246.14" y2="153.22"/><line x1="213.5" y1="101.93" x2="232.15" y2="101.93"/><line x1="152.88" y1="120.58" x2="134.23" y2="120.58"/><line x1="227.49" y1="176.54" x2="199.51" y2="176.54"/><line x1="288.1" y1="115.92" x2="288.1" y2="129.91"/><line x1="302.09" y1="83.28" x2="283.44" y2="83.28"/><line x1="122.57" y1="145.06" x2="122.57" y2="152.06"/><line x1="128.11" y1="148.56" x2="131.31" y2="150.6"/><line x1="131.31" y1="147.69" x2="131.31" y2="146.52"/><line x1="246.14" y1="195.19" x2="246.14" y2="176.54"/><line x1="180.86" y1="176.54" x2="180.86" y2="195.19"/><line x1="134.52" y1="149.43" x2="134.52" y2="147.69"/><line x1="258.96" y1="182.37" x2="255.46" y2="181.2"/><line x1="260.13" y1="185.86" x2="258.96" y2="182.37"/><line x1="131.31" y1="150.6" x2="131.31" y2="149.43"/><line x1="258.96" y1="189.36" x2="260.13" y2="185.86"/><line x1="134.52" y1="147.69" x2="131.31" y2="147.69"/><line x1="115.58" y1="152.06" x2="115.58" y2="145.06"/><line x1="255.46" y1="190.53" x2="258.96" y2="189.36"/><line x1="115.58" y1="145.06" x2="122.57" y2="145.06"/><line x1="317.83" y1="145.65" x2="317.83" y2="144.48"/><line x1="316.66" y1="145.65" x2="317.83" y2="145.65"/><line x1="251.97" y1="189.36" x2="255.46" y2="190.53"/><line x1="143.55" y1="111.26" x2="143.55" y2="64.63"/><line x1="162.21" y1="111.26" x2="143.55" y2="111.26"/><line x1="180.86" y1="92.61" x2="162.21" y2="111.26"/><line x1="180.86" y1="64.63" x2="180.86" y2="92.61"/><line x1="143.55" y1="64.63" x2="180.86" y2="64.63"/><line x1="227.49" y1="157.89" x2="199.51" y2="157.89"/><line x1="236.81" y1="120.58" x2="236.81" y2="148.56"/><line x1="227.49" y1="111.26" x2="236.81" y2="120.58"/><line x1="190.18" y1="139.23" x2="218.16" y2="111.26"/><line x1="190.18" y1="148.56" x2="190.18" y2="139.23"/><line x1="199.51" y1="157.89" x2="190.18" y2="148.56"/><line x1="236.81" y1="148.56" x2="227.49" y2="157.89"/><line x1="218.16" y1="111.26" x2="227.49" y2="111.26"/><line x1="190.18" y1="195.19" x2="190.18" y2="185.86"/><line x1="236.81" y1="195.19" x2="190.18" y2="195.19"/><line x1="236.81" y1="185.86" x2="236.81" y2="195.19"/><line x1="190.18" y1="185.86" x2="236.81" y2="185.86"/><line x1="264.79" y1="73.95" x2="255.46" y2="64.63"/><line x1="292.77" y1="73.95" x2="264.79" y2="73.95"/><line x1="302.09" y1="64.63" x2="292.77" y2="73.95"/><line x1="302.09" y1="55.3" x2="302.09" y2="64.63"/><line x1="274.11" y1="27.33" x2="283.44" y2="36.65"/><line x1="264.79" y1="27.33" x2="274.11" y2="27.33"/><line x1="255.46" y1="36.65" x2="264.79" y2="27.33"/><line x1="255.46" y1="64.63" x2="255.46" y2="36.65"/><line x1="232.15" y1="204.51" x2="194.85" y2="204.51"/><line x1="250.8" y1="185.86" x2="251.97" y2="189.36"/><line x1="283.44" y1="115.92" x2="283.44" y2="129.91"/><line x1="283.44" y1="129.91" x2="260.13" y2="153.22"/><line x1="105.09" y1="107.76" x2="103.92" y2="113.59"/><line x1="256.63" y1="184.7" x2="255.46" y2="184.11"/><line x1="283.44" y1="153.22" x2="264.79" y2="153.22"/><line x1="187.85" y1="138.07" x2="187.85" y2="149.73"/><line x1="187.85" y1="149.73" x2="198.34" y2="160.22"/><line x1="198.34" y1="160.22" x2="228.65" y2="160.22"/><line x1="228.65" y1="160.22" x2="239.14" y2="149.73"/><line x1="239.14" y1="149.73" x2="239.14" y2="119.42"/><line x1="239.14" y1="119.42" x2="228.65" y2="108.93"/><line x1="228.65" y1="108.93" x2="216.99" y2="108.93"/><line x1="216.99" y1="108.93" x2="187.85" y2="138.07"/><line x1="102.75" y1="57.63" x2="105.09" y2="52.97"/><line x1="102.75" y1="63.46" x2="102.75" y2="57.63"/><line x1="94.59" y1="68.13" x2="102.75" y2="63.46"/><line x1="187.85" y1="183.53" x2="187.85" y2="197.52"/><line x1="187.85" y1="197.52" x2="239.14" y2="197.52"/><line x1="239.14" y1="197.52" x2="239.14" y2="183.53"/><line x1="239.14" y1="183.53" x2="187.85" y2="183.53"/><line x1="227.49" y1="167.21" x2="199.51" y2="167.21"/><line x1="278.78" y1="195.19" x2="255.46" y2="195.19"/><line x1="255.46" y1="197.52" x2="278.78" y2="197.52"/><line x1="283.44" y1="181.2" x2="283.44" y2="190.53"/><line x1="285.77" y1="190.53" x2="285.77" y2="181.2"/><line x1="109.75" y1="105.43" x2="105.09" y2="107.76"/><line x1="114.41" y1="106.59" x2="109.75" y2="105.43"/><line x1="116.74" y1="110.09" x2="114.41" y2="106.59"/><line x1="253.13" y1="65.79" x2="263.62" y2="76.29"/><line x1="263.62" y1="76.29" x2="293.93" y2="76.29"/><line x1="293.93" y1="76.29" x2="304.42" y2="65.79"/><line x1="304.42" y1="65.79" x2="304.42" y2="54.14"/><line x1="304.42" y1="54.14" x2="294.51" y2="44.23"/><line x1="275.28" y1="24.99" x2="263.62" y2="24.99"/><line x1="263.62" y1="24.99" x2="253.13" y2="35.49"/><line x1="253.13" y1="35.49" x2="253.13" y2="65.79"/><line x1="243.81" y1="90.27" x2="260.13" y2="106.59"/><line x1="262.46" y1="104.26" x2="246.14" y2="87.94"/><line x1="302.09" y1="87.94" x2="290.43" y2="99.6"/><line x1="292.77" y1="101.93" x2="304.42" y2="90.27"/><line x1="236.81" y1="55.3" x2="236.81" y2="36.65"/><line x1="233.31" y1="36.65" x2="233.31" y2="55.3"/><line x1="292.77" y1="27.33" x2="302.09" y2="36.65"/><line x1="285.19" y1="34.9" x2="275.28" y2="24.99"/><line x1="285.19" y1="34.9" x2="292.77" y2="27.33"/><line x1="294.51" y1="44.23" x2="285.19" y2="34.9"/><line x1="302.09" y1="36.65" x2="294.51" y2="44.23"/><line x1="283.44" y1="36.65" x2="292.77" y2="45.98"/><line x1="283.44" y1="36.65" x2="285.19" y2="34.9"/><line x1="292.77" y1="45.98" x2="302.09" y2="55.3"/><line x1="294.51" y1="44.23" x2="292.77" y2="45.98"/><line x1="293.93" y1="134.57" x2="303.26" y2="134.57"/><line x1="123.74" y1="143.9" x2="123.74" y2="153.22"/><line x1="134.23" y1="125.25" x2="152.88" y2="125.25"/><line x1="141.22" y1="62.3" x2="141.22" y2="113.59"/><line x1="141.22" y1="113.59" x2="163.37" y2="113.59"/><line x1="163.37" y1="113.59" x2="183.19" y2="93.77"/><line x1="183.19" y1="93.77" x2="183.19" y2="62.3"/><line x1="183.19" y1="62.3" x2="141.22" y2="62.3"/><line x1="317.83" y1="144.48" x2="316.66" y2="144.48"/><line x1="255.46" y1="184.11" x2="254.3" y2="184.7"/><line x1="255.46" y1="187.61" x2="256.63" y2="187.03"/><line x1="254.3" y1="187.03" x2="255.46" y2="187.61"/><line x1="124.9" y1="153.22" x2="124.9" y2="143.9"/><line x1="316.66" y1="144.48" x2="316.66" y2="145.65"/><line x1="131.31" y1="146.52" x2="128.11" y2="148.56"/><line x1="316.08" y1="139.23" x2="314.91" y2="138.65"/><line x1="122.57" y1="152.06" x2="115.58" y2="152.06"/><line x1="251.97" y1="182.37" x2="250.8" y2="185.86"/><line x1="255.46" y1="181.2" x2="251.97" y2="182.37"/><line x1="314.91" y1="141.57" x2="316.08" y2="139.23"/><line x1="275.28" y1="161.38" x2="274.11" y2="160.8"/><line x1="275.86" y1="162.55" x2="275.28" y2="161.38"/><line x1="275.28" y1="163.71" x2="275.86" y2="162.55"/><line x1="314.91" y1="147.39" x2="314.91" y2="141.57"/><line x1="274.11" y1="164.3" x2="275.28" y2="163.71"/><line x1="272.95" y1="163.71" x2="274.11" y2="164.3"/><line x1="272.37" y1="162.55" x2="272.95" y2="163.71"/><line x1="272.95" y1="161.38" x2="272.37" y2="162.55"/><line x1="316.08" y1="149.73" x2="314.91" y2="147.39"/><line x1="274.11" y1="160.8" x2="272.95" y2="161.38"/><line x1="277.61" y1="159.05" x2="274.11" y2="157.89"/><line x1="278.78" y1="162.55" x2="277.61" y2="159.05"/><line x1="277.61" y1="166.05" x2="278.78" y2="162.55"/><line x1="314.91" y1="150.31" x2="316.08" y2="149.73"/><line x1="274.11" y1="167.21" x2="277.61" y2="166.05"/><line x1="270.62" y1="166.05" x2="274.11" y2="167.21"/><line x1="269.45" y1="162.55" x2="270.62" y2="166.05"/><line x1="313.75" y1="147.98" x2="314.91" y2="150.31"/><line x1="270.62" y1="159.05" x2="269.45" y2="162.55"/><line x1="274.11" y1="157.89" x2="270.62" y2="159.05"/><line x1="257.21" y1="185.86" x2="256.63" y2="184.7"/><line x1="256.63" y1="187.03" x2="257.21" y2="185.86"/><line x1="131.31" y1="149.43" x2="134.52" y2="149.43"/><line x1="313.75" y1="140.98" x2="313.75" y2="147.98"/><line x1="314.91" y1="138.65" x2="313.75" y2="140.98"/><line x1="298.59" y1="154.39" x2="298.59" y2="155.55"/><line x1="303.26" y1="154.39" x2="298.59" y2="154.39"/><line x1="303.26" y1="155.55" x2="303.26" y2="154.39"/><line x1="298.59" y1="155.55" x2="303.26" y2="155.55"/><line x1="289.27" y1="150.89" x2="289.27" y2="136.9"/><line x1="286.94" y1="148.56" x2="286.94" y2="139.23"/><line x1="283.44" y1="139.23" x2="283.44" y2="148.56"/><line x1="285.77" y1="139.23" x2="285.77" y2="148.56"/><line x1="254.3" y1="184.7" x2="253.71" y2="185.86"/><line x1="253.71" y1="185.86" x2="254.3" y2="187.03"/><line x1="131.9" y1="80.95" x2="131.9" y2="62.3"/><line x1="122.57" y1="108.93" x2="122.57" y2="90.27"/><line x1="131.9" y1="113.59" x2="131.9" y2="94.94"/><line x1="122.57" y1="76.29" x2="122.57" y2="57.63"/><line x1="134.23" y1="118.25" x2="134.23" y2="57.63"/><line x1="131.9" y1="91.44" x2="131.9" y2="82.11"/><line x1="117.91" y1="83.28" x2="99.26" y2="83.28"/><line x1="99.26" y1="87.94" x2="117.91" y2="87.94"/></g><g stroke="#d3b15b" stroke-width="2.4" stroke-linecap="round"><line x1="190.18" y1="97.27" x2="204.17" y2="111.26"/><line x1="166.87" y1="120.58" x2="152.88" y2="120.58"/><line x1="180.86" y1="134.57" x2="166.87" y2="120.58"/><line x1="171.53" y1="55.3" x2="171.53" y2="36.65"/><line x1="171.53" y1="36.65" x2="233.31" y2="36.65"/><line x1="190.18" y1="55.3" x2="190.18" y2="64.63"/><line x1="246.14" y1="55.3" x2="236.81" y2="55.3"/><line x1="246.14" y1="36.65" x2="246.14" y2="27.33"/><line x1="241.47" y1="92.61" x2="243.81" y2="90.27"/><line x1="246.14" y1="27.33" x2="255.46" y2="18"/><line x1="311.42" y1="45.98" x2="311.42" y2="73.95"/><line x1="283.44" y1="83.28" x2="264.79" y2="83.28"/><line x1="246.14" y1="87.94" x2="246.14" y2="83.28"/><line x1="264.79" y1="83.28" x2="264.79" y2="101.93"/><line x1="213.5" y1="87.94" x2="208.83" y2="83.28"/><line x1="288.1" y1="115.92" x2="311.42" y2="115.92"/><line x1="232.15" y1="167.21" x2="227.49" y2="167.21"/><line x1="199.51" y1="167.21" x2="194.85" y2="167.21"/><line x1="194.85" y1="167.21" x2="180.86" y2="153.22"/><line x1="204.17" y1="111.26" x2="213.5" y2="101.93"/><line x1="190.18" y1="83.28" x2="190.18" y2="97.27"/><line x1="208.83" y1="83.28" x2="190.18" y2="83.28"/><line x1="190.18" y1="64.63" x2="218.16" y2="64.63"/><line x1="218.16" y1="64.63" x2="232.15" y2="78.62"/><line x1="232.15" y1="78.62" x2="232.15" y2="87.94"/><line x1="236.81" y1="92.61" x2="241.47" y2="92.61"/><line x1="246.14" y1="83.28" x2="246.14" y2="55.3"/><line x1="246.14" y1="153.22" x2="232.15" y2="167.21"/><line x1="213.5" y1="101.93" x2="213.5" y2="87.94"/><line x1="246.14" y1="111.26" x2="245.55" y2="112.42"/><line x1="246.14" y1="115.92" x2="283.44" y2="115.92"/><line x1="152.88" y1="120.58" x2="152.88" y2="125.25"/><line x1="148.22" y1="153.22" x2="171.53" y2="176.54"/><line x1="180.86" y1="176.54" x2="199.51" y2="176.54"/><line x1="199.51" y1="176.54" x2="199.51" y2="167.21"/><line x1="227.49" y1="176.54" x2="246.14" y2="176.54"/><line x1="264.79" y1="153.22" x2="260.13" y2="153.22"/><line x1="288.1" y1="129.91" x2="283.44" y2="129.91"/><line x1="283.44" y1="195.19" x2="278.78" y2="195.19"/><line x1="246.14" y1="195.19" x2="236.81" y2="204.51"/><line x1="236.81" y1="204.51" x2="232.15" y2="204.51"/><line x1="162.21" y1="195.19" x2="124.9" y2="157.89"/><line x1="124.9" y1="153.22" x2="123.74" y2="153.22"/><line x1="124.9" y1="157.89" x2="124.9" y2="153.22"/><line x1="190.18" y1="204.51" x2="180.86" y2="195.19"/><line x1="283.44" y1="153.22" x2="283.44" y2="181.2"/><line x1="227.49" y1="167.21" x2="227.49" y2="176.54"/><line x1="311.42" y1="73.95" x2="302.09" y2="83.28"/><line x1="302.09" y1="87.94" x2="304.42" y2="90.27"/><line x1="316.08" y1="129.91" x2="288.1" y2="129.91"/><line x1="283.44" y1="129.91" x2="283.44" y2="139.23"/><line x1="313.75" y1="113.59" x2="313.75" y2="108.93"/><line x1="283.44" y1="115.92" x2="288.1" y2="115.92"/><line x1="313.75" y1="108.93" x2="311.42" y2="106.59"/><line x1="311.42" y1="106.59" x2="297.43" y2="106.59"/><line x1="297.43" y1="106.59" x2="292.77" y2="101.93"/><line x1="114.41" y1="143.9" x2="123.74" y2="143.9"/><line x1="114.41" y1="153.22" x2="114.41" y2="143.9"/><line x1="134.23" y1="120.58" x2="134.23" y2="118.25"/><line x1="246.14" y1="176.54" x2="264.79" y2="176.54"/><line x1="180.86" y1="195.19" x2="162.21" y2="195.19"/><line x1="123.74" y1="153.22" x2="114.41" y2="153.22"/><line x1="293.93" y1="131.07" x2="303.26" y2="131.07"/><line x1="293.93" y1="134.57" x2="293.93" y2="131.07"/><line x1="180.86" y1="153.22" x2="180.86" y2="134.57"/><line x1="134.23" y1="129.91" x2="134.23" y2="125.25"/><line x1="124.9" y1="139.23" x2="134.23" y2="129.91"/><line x1="194.85" y1="204.51" x2="190.18" y2="204.51"/><line x1="232.15" y1="204.51" x2="232.15" y2="205.68"/><line x1="232.15" y1="205.68" x2="194.85" y2="205.68"/><line x1="194.85" y1="205.68" x2="194.85" y2="204.51"/><line x1="264.79" y1="176.54" x2="264.79" y2="153.22"/><line x1="260.13" y1="153.22" x2="246.14" y2="153.22"/><line x1="120.24" y1="111.26" x2="117.91" y2="113.59"/><line x1="99.26" y1="52.97" x2="105.09" y2="52.97"/><line x1="278.78" y1="195.19" x2="278.78" y2="197.52"/><line x1="255.46" y1="195.19" x2="246.14" y2="195.19"/><line x1="255.46" y1="197.52" x2="255.46" y2="195.19"/><line x1="250.8" y1="197.52" x2="255.46" y2="197.52"/><line x1="250.8" y1="216.17" x2="255.46" y2="209.18"/><line x1="278.78" y1="197.52" x2="285.77" y2="197.52"/><line x1="285.77" y1="197.52" x2="285.77" y2="190.53"/><line x1="285.77" y1="167.21" x2="295.1" y2="162.55"/><line x1="304.42" y1="167.21" x2="299.76" y2="181.2"/><line x1="304.42" y1="216.17" x2="295.1" y2="213.84"/><line x1="285.77" y1="181.2" x2="285.77" y2="167.21"/><line x1="283.44" y1="181.2" x2="285.77" y2="181.2"/><line x1="285.77" y1="190.53" x2="283.44" y2="190.53"/><line x1="283.44" y1="190.53" x2="283.44" y2="195.19"/><line x1="117.91" y1="113.59" x2="103.92" y2="113.59"/><line x1="295.1" y1="162.55" x2="304.42" y2="167.21"/><line x1="299.76" y1="181.2" x2="306.75" y2="192.86"/><line x1="306.75" y1="192.86" x2="305.59" y2="204.51"/><line x1="305.59" y1="204.51" x2="300.93" y2="205.68"/><line x1="305.01" y1="210.93" x2="304.42" y2="216.17"/><line x1="300.93" y1="205.68" x2="300.93" y2="208.01"/><line x1="300.93" y1="208.01" x2="305.01" y2="210.93"/><line x1="295.1" y1="213.84" x2="283.44" y2="222"/><line x1="283.44" y1="222" x2="275.28" y2="220.83"/><line x1="275.28" y1="220.83" x2="274.11" y2="210.34"/><line x1="264.79" y1="218.5" x2="250.8" y2="216.17"/><line x1="274.11" y1="210.34" x2="271.78" y2="208.01"/><line x1="268.29" y1="209.18" x2="264.79" y2="218.5"/><line x1="271.78" y1="208.01" x2="268.29" y2="209.18"/><line x1="255.46" y1="209.18" x2="250.8" y2="202.18"/><line x1="250.8" y1="202.18" x2="250.8" y2="197.52"/><line x1="255.46" y1="111.26" x2="246.14" y2="111.26"/><line x1="264.79" y1="101.93" x2="262.46" y2="104.26"/><line x1="232.15" y1="87.94" x2="236.81" y2="92.61"/><line x1="283.44" y1="18" x2="292.77" y2="27.33"/><line x1="255.46" y1="18" x2="283.44" y2="18"/><line x1="302.09" y1="83.28" x2="302.09" y2="87.94"/><line x1="306.75" y1="92.61" x2="316.08" y2="92.61"/><line x1="316.08" y1="92.61" x2="325.41" y2="101.93"/><line x1="325.41" y1="101.93" x2="325.41" y2="120.58"/><line x1="325.41" y1="120.58" x2="316.08" y2="129.91"/><line x1="283.44" y1="92.61" x2="283.44" y2="83.28"/><line x1="311.42" y1="115.92" x2="313.75" y2="113.59"/><line x1="236.81" y1="55.3" x2="233.31" y2="55.3"/><line x1="236.81" y1="36.65" x2="246.14" y2="36.65"/><line x1="243.81" y1="90.27" x2="246.14" y2="87.94"/><line x1="260.13" y1="106.59" x2="255.46" y2="111.26"/><line x1="262.46" y1="104.26" x2="260.13" y2="106.59"/><line x1="304.42" y1="90.27" x2="306.75" y2="92.61"/><line x1="290.43" y1="99.6" x2="283.44" y2="92.61"/><line x1="292.77" y1="101.93" x2="290.43" y2="99.6"/><line x1="233.31" y1="36.65" x2="236.81" y2="36.65"/><line x1="233.31" y1="55.3" x2="190.18" y2="55.3"/><line x1="295.1" y1="24.99" x2="304.42" y2="34.32"/><line x1="302.09" y1="36.65" x2="311.42" y2="45.98"/><line x1="304.42" y1="34.32" x2="302.09" y2="36.65"/><line x1="292.77" y1="27.33" x2="295.1" y2="24.99"/><line x1="245.55" y1="112.42" x2="245.55" y2="114.75"/><line x1="245.55" y1="114.75" x2="246.14" y2="115.92"/><line x1="303.26" y1="134.57" x2="316.08" y2="134.57"/><line x1="134.23" y1="55.3" x2="171.53" y2="55.3"/><line x1="303.26" y1="131.07" x2="303.26" y2="134.57"/><line x1="152.88" y1="139.23" x2="148.22" y2="143.9"/><line x1="148.22" y1="143.9" x2="148.22" y2="153.22"/><line x1="171.53" y1="176.54" x2="180.86" y2="176.54"/><line x1="134.23" y1="125.25" x2="134.23" y2="120.58"/><line x1="152.88" y1="125.25" x2="152.88" y2="139.23"/><line x1="285.77" y1="139.23" x2="286.94" y2="139.23"/><line x1="289.27" y1="159.05" x2="289.27" y2="150.89"/><line x1="292.77" y1="156.72" x2="289.27" y2="159.05"/><line x1="298.59" y1="157.89" x2="292.77" y2="156.72"/><line x1="312.58" y1="161.38" x2="298.59" y2="157.89"/><line x1="314.91" y1="153.22" x2="312.58" y2="161.38"/><line x1="320.74" y1="146.23" x2="314.91" y2="153.22"/><line x1="316.08" y1="134.57" x2="320.74" y2="146.23"/><line x1="289.27" y1="134.57" x2="293.93" y2="134.57"/><line x1="289.27" y1="150.89" x2="286.94" y2="148.56"/><line x1="283.44" y1="148.56" x2="283.44" y2="153.22"/><line x1="283.44" y1="139.23" x2="285.77" y2="139.23"/><line x1="285.77" y1="148.56" x2="283.44" y2="148.56"/><line x1="289.27" y1="136.9" x2="289.27" y2="134.57"/><line x1="286.94" y1="139.23" x2="289.27" y2="136.9"/><line x1="286.94" y1="148.56" x2="285.77" y2="148.56"/><line x1="94.59" y1="57.63" x2="99.26" y2="52.97"/><line x1="124.9" y1="143.9" x2="124.9" y2="139.23"/><line x1="123.74" y1="143.9" x2="124.9" y2="143.9"/><line x1="122.57" y1="57.63" x2="131.9" y2="62.3"/><line x1="131.9" y1="80.95" x2="122.57" y2="76.29"/><line x1="131.9" y1="62.3" x2="131.9" y2="59.97"/><line x1="122.57" y1="90.27" x2="131.9" y2="94.94"/><line x1="131.9" y1="113.59" x2="122.57" y2="108.93"/><line x1="122.57" y1="76.29" x2="122.57" y2="83.28"/><line x1="131.9" y1="94.94" x2="131.9" y2="91.44"/><line x1="122.57" y1="108.93" x2="120.24" y2="111.26"/><line x1="103.92" y1="113.59" x2="99.26" y2="113.59"/><line x1="99.26" y1="113.59" x2="94.59" y2="108.93"/><line x1="94.59" y1="108.93" x2="94.59" y2="87.94"/><line x1="105.09" y1="52.97" x2="117.91" y2="52.97"/><line x1="94.59" y1="68.13" x2="94.59" y2="57.63"/><line x1="117.91" y1="52.97" x2="122.57" y2="57.63"/><line x1="134.23" y1="118.25" x2="131.9" y2="115.92"/><line x1="134.23" y1="57.63" x2="134.23" y2="55.3"/><line x1="131.9" y1="59.97" x2="134.23" y2="57.63"/><line x1="131.9" y1="115.92" x2="131.9" y2="113.59"/><line x1="131.9" y1="91.44" x2="129.57" y2="90.27"/><line x1="129.57" y1="90.27" x2="127.23" y2="90.27"/><line x1="124.9" y1="86.78" x2="124.9" y2="84.45"/><line x1="124.9" y1="84.45" x2="126.07" y2="83.28"/><line x1="129.57" y1="83.28" x2="131.9" y2="82.11"/><line x1="131.9" y1="82.11" x2="131.9" y2="80.95"/><line x1="127.23" y1="90.27" x2="126.07" y2="89.11"/><line x1="126.07" y1="89.11" x2="124.9" y2="86.78"/><line x1="126.07" y1="83.28" x2="129.57" y2="83.28"/><line x1="99.26" y1="87.94" x2="99.26" y2="83.28"/><line x1="117.91" y1="87.94" x2="122.57" y2="87.94"/><line x1="94.59" y1="87.94" x2="99.26" y2="87.94"/><line x1="122.57" y1="83.28" x2="117.91" y2="83.28"/><line x1="122.57" y1="87.94" x2="122.57" y2="90.27"/><line x1="99.26" y1="83.28" x2="94.59" y2="83.28"/><line x1="94.59" y1="83.28" x2="94.59" y2="68.13"/><line x1="117.91" y1="83.28" x2="117.91" y2="87.94"/></g><g opacity="0.95"><circle cx="129.57" cy="86.78" r="2.2" fill="#d3b15b"/><circle cx="276.45" cy="52.97" r="2.2" fill="#d3b15b"/><circle cx="213.5" cy="201.02" r="2.2" fill="#d3b15b"/><circle cx="194.85" cy="202.18" r="2.2" fill="#d3b15b"/><circle cx="204.17" cy="202.18" r="2.2" fill="#d3b15b"/><circle cx="222.82" cy="202.18" r="2.2" fill="#d3b15b"/><circle cx="232.15" cy="202.18" r="2.2" fill="#d3b15b"/><circle cx="215.83" cy="66.96" r="2.2" fill="#d3b15b"/><circle cx="236.81" cy="157.89" r="2.2" fill="#d3b15b"/><circle cx="320.74" cy="111.26" r="2.2" fill="#d3b15b"/><circle cx="278.78" cy="190.53" r="2.2" fill="#d3b15b"/><circle cx="222.82" cy="190.53" r="3.2" fill="#b7493c"/><circle cx="184.35" cy="150.89" r="2.2" fill="#d3b15b"/><circle cx="159.87" cy="117.09" r="2.2" fill="#d3b15b"/><circle cx="264.79" cy="118.25" r="2.2" fill="#d3b15b"/><circle cx="299.76" cy="104.26" r="2.2" fill="#d3b15b"/><circle cx="249.63" cy="69.29" r="2.2" fill="#d3b15b"/><circle cx="193.68" cy="107.76" r="2.2" fill="#d3b15b"/><circle cx="177.36" cy="124.08" r="2.2" fill="#d3b15b"/><circle cx="222.82" cy="73.95" r="2.2" fill="#d3b15b"/><circle cx="186.69" cy="90.27" r="2.2" fill="#d3b15b"/><circle cx="307.92" cy="49.47" r="2.2" fill="#d3b15b"/><circle cx="98.09" cy="59.97" r="3.2" fill="#b7493c"/><circle cx="218.16" cy="134.57" r="2.2" fill="#d3b15b"/><circle cx="213.5" cy="139.23" r="2.2" fill="#d3b15b"/><circle cx="218.16" cy="143.9" r="2.2" fill="#d3b15b"/><circle cx="222.82" cy="139.23" r="2.2" fill="#d3b15b"/><circle cx="279.94" cy="191.69" r="3.2" fill="#b7493c"/><circle cx="165.7" cy="191.69" r="3.2" fill="#b7493c"/><circle cx="323.07" cy="111.26" r="3.2" fill="#b7493c"/><circle cx="274.11" cy="80.95" r="3.2" fill="#b7493c"/><circle cx="175.03" cy="40.15" r="3.2" fill="#b7493c"/><circle cx="159.87" cy="58.8" r="3.2" fill="#b7493c"/><circle cx="159.87" cy="118.25" r="3.2" fill="#b7493c"/><circle cx="183.19" cy="150.89" r="3.2" fill="#b7493c"/><circle cx="166.87" cy="190.53" r="2.2" fill="#d3b15b"/><circle cx="274.11" cy="79.78" r="2.2" fill="#d3b15b"/><circle cx="159.87" cy="57.63" r="2.2" fill="#d3b15b"/><circle cx="176.19" cy="41.31" r="2.2" fill="#d3b15b"/><circle cx="119.07" cy="148.56" r="2.2" fill="#d3b15b"/><circle cx="298.59" cy="133.41" r="2.2" fill="#d3b15b"/><circle cx="204.17" cy="190.53" r="3.2" fill="#b7493c"/><circle cx="232.15" cy="190.53" r="3.2" fill="#b7493c"/><circle cx="113.25" cy="107.76" r="2.2" fill="#d3b15b"/><circle cx="257.79" cy="104.26" r="2.2" fill="#d3b15b"/><circle cx="254.3" cy="107.76" r="2.2" fill="#d3b15b"/><circle cx="261.29" cy="100.77" r="2.2" fill="#d3b15b"/><circle cx="213.5" cy="190.53" r="3.2" fill="#b7493c"/><circle cx="271.78" cy="48.31" r="2.2" fill="#d3b15b"/><circle cx="281.11" cy="57.63" r="2.2" fill="#d3b15b"/><circle cx="307.92" cy="55.3" r="2.2" fill="#d3b15b"/><circle cx="269.45" cy="22.66" r="2.2" fill="#d3b15b"/><circle cx="269.45" cy="21.5" r="3.2" fill="#b7493c"/><circle cx="249.63" cy="62.3" r="2.2" fill="#d3b15b"/><circle cx="225.15" cy="76.29" r="2.2" fill="#d3b15b"/><circle cx="227.49" cy="78.62" r="2.2" fill="#d3b15b"/><circle cx="229.82" cy="80.95" r="2.2" fill="#d3b15b"/><circle cx="220.49" cy="71.62" r="2.2" fill="#d3b15b"/><circle cx="218.16" cy="69.29" r="2.2" fill="#d3b15b"/><circle cx="144.72" cy="146.23" r="2.2" fill="#d3b15b"/><circle cx="144.72" cy="150.89" r="2.2" fill="#d3b15b"/><circle cx="279.94" cy="134.57" r="2.2" fill="#d3b15b"/></g></svg>