<svg xmlns="http://www.w3.org/2000/svg" viewBox="0 0 420 240" role="img"><rect width="100%" height="100%" fill="#070706"/><g stroke="#5e5a4f" stroke-width="1.6" stroke-linecap="round"><line x1="190.88" y1="110.79" x2="190.88" y2="103.71"/><line x1="197.96" y1="124.25" x2="203.63" y2="124.25"/><line x1="278.71" y1="110.79" x2="285.08" y2="104.42"/><line x1="152.63" y1="83.17" x2="152.63" y2="80.33"/><line x1="216.38" y1="199.33" x2="216.38" y2="205"/><line x1="175.29" y1="199.33" x2="180.96" y2="199.33"/><line x1="251.79" y1="71.83" x2="251.79" y2="66.17"/><line x1="297.13" y1="156.83" x2="285.79" y2="156.83"/><line x1="171.04" y1="193.67" x2="171.04" y2="203.58"/><line x1="183.79" y1="202.17" x2="183.79" y2="193.67"/><line x1="135.63" y1="196.5" x2="118.63" y2="190.83"/><line x1="299.96" y1="97.33" x2="299.96" y2="103"/><line x1="219.21" y1="141.25" x2="219.21" y2="132.75"/><line x1="302.79" y1="94.5" x2="299.96" y2="94.5"/><line x1="271.63" y1="142.67" x2="288.63" y2="142.67"/><line x1="265.96" y1="125.67" x2="267.38" y2="125.67"/><line x1="190.88" y1="103.71" x2="196.54" y2="98.04"/><line x1="277.29" y1="148.33" x2="280.13" y2="151.17"/><line x1="195.13" y1="83.17" x2="195.13" y2="97.33"/><line x1="195.13" y1="97.33" x2="189.46" y2="103"/><line x1="189.46" y1="103" x2="189.46" y2="111.5"/><line x1="189.46" y1="111.5" x2="195.13" y2="117.17"/><line x1="195.13" y1="117.17" x2="195.13" y2="121.42"/><line x1="195.13" y1="121.42" x2="197.96" y2="124.25"/><line x1="219.92" y1="93.08" x2="222.75" y2="95.92"/><line x1="271.63" y1="98.75" x2="271.63" y2="97.33"/><line x1="178.13" y1="111.5" x2="178.13" y2="122.83"/><line x1="178.13" y1="122.83" x2="183.79" y2="128.5"/><line x1="135.63" y1="196.5" x2="118.63" y2="185.17"/><line x1="171.04" y1="102.29" x2="171.04" y2="83.88"/><line x1="179.54" y1="110.79" x2="171.04" y2="102.29"/><line x1="179.54" y1="122.13" x2="179.54" y2="110.79"/><line x1="184.5" y1="127.08" x2="179.54" y2="122.13"/><line x1="206.46" y1="127.08" x2="184.5" y2="127.08"/><line x1="202.21" y1="105.83" x2="207.88" y2="111.5"/><line x1="202.21" y1="101.58" x2="202.21" y2="105.83"/><line x1="212.13" y1="91.67" x2="202.21" y2="101.58"/><line x1="220.63" y1="91.67" x2="212.13" y2="91.67"/><line x1="223.46" y1="94.5" x2="220.63" y2="91.67"/><line x1="220.63" y1="57.67" x2="220.63" y2="69"/><line x1="172.46" y1="83.17" x2="195.13" y2="83.17"/><line x1="196.54" y1="98.04" x2="196.54" y2="83.17"/><line x1="203.63" y1="124.25" x2="206.46" y2="121.42"/><line x1="196.54" y1="116.46" x2="190.88" y2="110.79"/><line x1="196.54" y1="120.71" x2="196.54" y2="116.46"/><line x1="198.67" y1="122.83" x2="196.54" y2="120.71"/><line x1="202.92" y1="122.83" x2="198.67" y2="122.83"/><line x1="206.46" y1="119.29" x2="202.92" y2="122.83"/><line x1="212.83" y1="93.08" x2="219.92" y2="93.08"/><line x1="203.63" y1="102.29" x2="212.83" y2="93.08"/><line x1="203.63" y1="105.13" x2="203.63" y2="102.29"/><line x1="210" y1="111.5" x2="203.63" y2="105.13"/><line x1="217.79" y1="80.33" x2="206.46" y2="83.17"/><line x1="222.75" y1="95.92" x2="242.58" y2="95.92"/><line x1="257.46" y1="139.83" x2="265.96" y2="148.33"/><line x1="166.79" y1="182.33" x2="166.79" y2="155.42"/><line x1="206.46" y1="165.33" x2="192.29" y2="193.67"/><line x1="189.46" y1="163.92" x2="189.46" y2="185.17"/><line x1="236.21" y1="132.75" x2="236.21" y2="114.33"/><line x1="163.96" y1="193.67" x2="145.54" y2="156.83"/><line x1="163.96" y1="156.83" x2="163.96" y2="182.33"/><line x1="163.96" y1="193.67" x2="173.88" y2="213.5"/><line x1="230.9" y1="149.4" x2="231.96" y2="148.33"/><line x1="217.79" y1="142.67" x2="230.54" y2="142.67"/><line x1="214.96" y1="182.33" x2="240.46" y2="156.83"/><line x1="169.63" y1="103" x2="178.13" y2="111.5"/><line x1="244.71" y1="83.17" x2="244.71" y2="93.79"/><line x1="244.71" y1="93.79" x2="244.71" y2="111.5"/><line x1="267.38" y1="136.29" x2="272.33" y2="141.25"/><line x1="231.96" y1="148.33" x2="246.13" y2="134.17"/><line x1="263.13" y1="111.5" x2="248.96" y2="111.5"/><line x1="217.79" y1="162.5" x2="230.9" y2="149.4"/><line x1="183.79" y1="128.5" x2="206.46" y2="128.5"/><line x1="180.96" y1="216.33" x2="175.29" y2="216.33"/><line x1="180.96" y1="216.33" x2="182.38" y2="213.5"/><line x1="141.29" y1="182.33" x2="172.46" y2="213.5"/><line x1="192.29" y1="185.17" x2="192.29" y2="165.33"/><line x1="180.96" y1="216.33" x2="183.79" y2="213.5"/><line x1="174.58" y1="183.75" x2="180.25" y2="186.58"/><line x1="166.79" y1="183.75" x2="174.58" y2="183.75"/><line x1="180.25" y1="186.58" x2="189.46" y2="186.58"/><line x1="189.46" y1="185.17" x2="180.96" y2="185.17"/><line x1="180.96" y1="185.17" x2="175.29" y2="182.33"/><line x1="175.29" y1="182.33" x2="166.79" y2="182.33"/><line x1="163.96" y1="151.17" x2="163.96" y2="139.83"/><line x1="217.79" y1="80.33" x2="200.79" y2="80.33"/><line x1="299.96" y1="103" x2="302.79" y2="103"/><line x1="172.46" y1="202.17" x2="183.79" y2="202.17"/><line x1="172.46" y1="193.67" x2="172.46" y2="202.17"/><line x1="299.96" y1="66.17" x2="299.96" y2="88.83"/><line x1="206.46" y1="83.17" x2="217.79" y2="83.17"/><line x1="206.46" y1="83.17" x2="203.63" y2="83.17"/><line x1="248.96" y1="114.33" x2="263.13" y2="114.33"/><line x1="175.29" y1="193.67" x2="175.29" y2="199.33"/><line x1="180.96" y1="199.33" x2="180.96" y2="193.67"/><line x1="268.79" y1="159.67" x2="257.46" y2="159.67"/><line x1="263.13" y1="77.5" x2="248.96" y2="77.5"/><line x1="218.5" y1="205" x2="218.5" y2="199.33"/><line x1="141.29" y1="210.67" x2="141.29" y2="196.5"/><line x1="268.79" y1="156.83" x2="257.46" y2="156.83"/><line x1="242.58" y1="95.92" x2="244.71" y2="93.79"/><line x1="230.54" y1="142.67" x2="230.54" y2="149.04"/><line x1="285.08" y1="104.42" x2="302.79" y2="104.42"/><line x1="243.29" y1="83.17" x2="243.29" y2="93.08"/><line x1="135.63" y1="196.5" x2="118.63" y2="193.67"/><line x1="230.54" y1="141.25" x2="219.21" y2="141.25"/><line x1="209.29" y1="18" x2="209.29" y2="26.5"/><line x1="210.71" y1="18" x2="210.71" y2="25.08"/><line x1="141.29" y1="210.67" x2="118.63" y2="207.83"/><line x1="209.29" y1="26.5" x2="217.79" y2="26.5"/><line x1="299.96" y1="90.25" x2="302.79" y2="90.25"/><line x1="166.79" y1="151.17" x2="166.79" y2="142.67"/><line x1="271.63" y1="93.08" x2="265.96" y2="93.08"/><line x1="230.54" y1="132.75" x2="230.54" y2="141.25"/><line x1="271.63" y1="94.5" x2="271.63" y2="93.08"/><line x1="299.96" y1="97.33" x2="302.79" y2="97.33"/><line x1="199.38" y1="77.5" x2="189.46" y2="77.5"/><line x1="189.46" y1="77.5" x2="189.46" y2="71.83"/><line x1="183.79" y1="77.5" x2="173.88" y2="77.5"/><line x1="183.79" y1="71.83" x2="183.79" y2="77.5"/><line x1="169.63" y1="83.88" x2="169.63" y2="103"/><line x1="189.46" y1="71.83" x2="183.79" y2="71.83"/><line x1="231.96" y1="132.75" x2="231.96" y2="131.33"/><line x1="267.38" y1="125.67" x2="267.38" y2="136.29"/><line x1="248.96" y1="80.33" x2="263.13" y2="80.33"/><line x1="241.88" y1="94.5" x2="223.46" y2="94.5"/><line x1="161.83" y1="111.41" x2="156.17" y2="111.41"/><line x1="222.04" y1="57.67" x2="222.04" y2="69"/><line x1="243.29" y1="93.08" x2="241.88" y2="94.5"/><line x1="152.63" y1="80.33" x2="172.46" y2="80.33"/><line x1="152.63" y1="83.17" x2="169.63" y2="83.17"/><line x1="139.88" y1="83.17" x2="151.21" y2="83.17"/><line x1="217.79" y1="56.25" x2="192.29" y2="23.67"/><line x1="138.46" y1="83.17" x2="139.88" y2="83.17"/><line x1="161.13" y1="26.5" x2="166.79" y2="25.08"/><line x1="251.79" y1="74.67" x2="251.79" y2="71.83"/><line x1="217.08" y1="205" x2="217.08" y2="199.33"/><line x1="214.96" y1="199.33" x2="214.96" y2="205"/><line x1="185.21" y1="203.58" x2="185.21" y2="193.67"/><line x1="230.54" y1="142.67" x2="231.96" y2="142.67"/><line x1="210.71" y1="25.08" x2="217.79" y2="25.08"/><line x1="248.96" y1="71.83" x2="251.79" y2="71.83"/><line x1="278.71" y1="66.17" x2="280.13" y2="66.17"/><line x1="231.96" y1="142.67" x2="231.96" y2="132.75"/><line x1="265.96" y1="125.67" x2="265.96" y2="137"/><line x1="297.13" y1="159.67" x2="285.79" y2="159.67"/><line x1="299.96" y1="88.83" x2="299.96" y2="90.25"/><line x1="265.96" y1="137" x2="271.63" y2="142.67"/><line x1="219.21" y1="132.75" x2="230.54" y2="132.75"/><line x1="246.13" y1="165.33" x2="246.13" y2="185.17"/><line x1="299.96" y1="90.25" x2="299.96" y2="94.5"/><line x1="222.04" y1="70.42" x2="231.43" y2="70.42"/><line x1="120.04" y1="145.5" x2="141.29" y2="142.67"/><line x1="294.29" y1="137" x2="302.79" y2="137"/><line x1="251.79" y1="185.17" x2="251.79" y2="165.33"/><line x1="186.63" y1="23.67" x2="202.21" y2="41.38"/><line x1="270.92" y1="124.25" x2="278.71" y2="116.46"/><line x1="166.79" y1="142.67" x2="166.79" y2="139.83"/><line x1="285.79" y1="105.83" x2="302.79" y2="105.83"/><line x1="265.96" y1="98.75" x2="271.63" y2="98.75"/><line x1="171.04" y1="203.58" x2="185.21" y2="203.58"/><line x1="206.46" y1="142.67" x2="166.79" y2="142.67"/><line x1="299.96" y1="148.33" x2="302.79" y2="148.33"/><line x1="166.79" y1="139.83" x2="164.67" y2="141.96"/><line x1="206.46" y1="134.17" x2="166.79" y2="134.17"/><line x1="164.67" y1="141.96" x2="166.08" y2="142.67"/><line x1="141.29" y1="210.67" x2="118.63" y2="205"/><line x1="166.08" y1="142.67" x2="166.79" y2="142.67"/><line x1="156.88" y1="35" x2="158.29" y2="29.33"/><line x1="161.13" y1="139.83" x2="155.46" y2="151.17"/><line x1="251.79" y1="124.25" x2="270.92" y2="124.25"/><line x1="192.29" y1="44.92" x2="180.96" y2="44.92"/><line x1="192.29" y1="42.08" x2="180.96" y2="42.08"/><line x1="192.29" y1="47.75" x2="180.96" y2="47.75"/><line x1="180.96" y1="53.42" x2="192.29" y2="53.42"/><line x1="192.29" y1="50.58" x2="180.96" y2="50.58"/><line x1="299.25" y1="146.92" x2="302.79" y2="146.92"/><line x1="296.42" y1="149.75" x2="299.25" y2="146.92"/><line x1="280.83" y1="149.75" x2="296.42" y2="149.75"/><line x1="195.13" y1="83.17" x2="196.54" y2="83.17"/><line x1="196.54" y1="83.17" x2="200.79" y2="83.17"/><line x1="297.13" y1="151.17" x2="299.96" y2="148.33"/><line x1="278" y1="146.92" x2="280.83" y2="149.75"/><line x1="266.67" y1="146.92" x2="278" y2="146.92"/><line x1="258.17" y1="138.42" x2="266.67" y2="146.92"/><line x1="280.13" y1="151.17" x2="297.13" y2="151.17"/><line x1="251.79" y1="138.42" x2="258.17" y2="138.42"/><line x1="267.38" y1="125.67" x2="271.63" y2="125.67"/><line x1="293.58" y1="135.58" x2="302.79" y2="135.58"/><line x1="265.96" y1="148.33" x2="277.29" y2="148.33"/><line x1="287.92" y1="141.25" x2="293.58" y2="135.58"/><line x1="272.33" y1="141.25" x2="287.92" y2="141.25"/><line x1="278.71" y1="116.46" x2="278.71" y2="110.79"/><line x1="251.79" y1="125.67" x2="265.96" y2="125.67"/><line x1="230.9" y1="149.4" x2="236.92" y2="155.42"/><line x1="172.46" y1="213.5" x2="175.29" y2="216.33"/><line x1="214.96" y1="165.33" x2="214.96" y2="182.33"/><line x1="231.96" y1="111.5" x2="216.38" y2="111.5"/><line x1="217.79" y1="129.92" x2="233.38" y2="129.92"/><line x1="217.79" y1="114.33" x2="231.96" y2="114.33"/><line x1="217.79" y1="131.33" x2="230.54" y2="131.33"/><line x1="234.79" y1="131.33" x2="234.79" y2="114.33"/><line x1="233.38" y1="129.92" x2="233.38" y2="114.33"/><line x1="280.13" y1="111.5" x2="285.79" y2="105.83"/><line x1="173.88" y1="213.5" x2="175.29" y2="216.33"/><line x1="280.13" y1="117.17" x2="280.13" y2="111.5"/><line x1="214.96" y1="182.33" x2="214.96" y2="188"/><line x1="182.38" y1="213.5" x2="192.29" y2="193.67"/><line x1="251.79" y1="139.83" x2="257.46" y2="139.83"/><line x1="271.63" y1="125.67" x2="280.13" y2="117.17"/><line x1="230.54" y1="141.25" x2="230.54" y2="142.67"/><line x1="183.79" y1="213.5" x2="214.96" y2="182.33"/><line x1="288.63" y1="142.67" x2="294.29" y2="137"/><line x1="280.13" y1="77.5" x2="280.13" y2="66.17"/><line x1="285.79" y1="83.17" x2="280.13" y2="77.5"/><line x1="294.29" y1="83.17" x2="285.79" y2="83.17"/><line x1="299.96" y1="88.83" x2="294.29" y2="83.17"/><line x1="302.79" y1="88.83" x2="299.96" y2="88.83"/><line x1="278.71" y1="63.33" x2="278.71" y2="66.17"/><line x1="278.71" y1="78.21" x2="285.08" y2="84.58"/><line x1="285.08" y1="84.58" x2="293.58" y2="84.58"/><line x1="293.58" y1="84.58" x2="299.25" y2="90.25"/><line x1="299.25" y1="90.25" x2="299.96" y2="90.25"/><line x1="248.96" y1="74.67" x2="251.79" y2="74.67"/><line x1="251.79" y1="66.17" x2="278.71" y2="66.17"/><line x1="280.13" y1="66.17" x2="280.13" y2="63.33"/><line x1="278.71" y1="66.17" x2="278.71" y2="78.21"/><line x1="280.13" y1="66.17" x2="299.96" y2="66.17"/><line x1="302.79" y1="154" x2="251.79" y2="154"/><line x1="280.13" y1="190.83" x2="274.46" y2="190.83"/><line x1="285.79" y1="159.67" x2="282.96" y2="185.17"/><line x1="271.63" y1="185.17" x2="268.79" y2="159.67"/><line x1="230.54" y1="131.33" x2="230.54" y2="132.75"/><line x1="230.54" y1="149.04" x2="230.9" y2="149.4"/><line x1="236.92" y1="155.42" x2="240.46" y2="155.42"/><line x1="230.54" y1="131.33" x2="231.96" y2="131.33"/><line x1="231.96" y1="148.33" x2="231.96" y2="142.67"/><line x1="237.63" y1="154" x2="231.96" y2="148.33"/><line x1="240.46" y1="154" x2="237.63" y2="154"/><line x1="231.96" y1="131.33" x2="234.79" y2="131.33"/><line x1="217.79" y1="132.75" x2="219.21" y2="132.75"/><line x1="230.54" y1="132.75" x2="231.96" y2="132.75"/><line x1="231.96" y1="132.75" x2="236.21" y2="132.75"/><line x1="212.13" y1="213.5" x2="183.79" y2="213.5"/><line x1="183.79" y1="213.5" x2="182.38" y2="213.5"/><line x1="182.38" y1="213.5" x2="173.88" y2="213.5"/><line x1="173.88" y1="213.5" x2="172.46" y2="213.5"/><line x1="172.46" y1="213.5" x2="144.13" y2="213.5"/><line x1="139.88" y1="80.33" x2="138.46" y2="80.33"/><line x1="151.21" y1="83.17" x2="152.63" y2="83.17"/><line x1="152.63" y1="111.5" x2="152.63" y2="83.17"/><line x1="149.79" y1="114.33" x2="132.79" y2="114.33"/><line x1="132.79" y1="120" x2="149.79" y2="120"/><line x1="151.21" y1="59.08" x2="151.21" y2="57.67"/><line x1="151.21" y1="84.58" x2="151.21" y2="110.79"/><line x1="151.21" y1="110.79" x2="149.08" y2="112.92"/><line x1="149.08" y1="112.92" x2="134.21" y2="112.92"/><line x1="134.21" y1="112.92" x2="134.21" y2="109.38"/><line x1="134.21" y1="109.38" x2="139.88" y2="103.71"/><line x1="139.88" y1="103.71" x2="139.88" y2="84.58"/><line x1="129.96" y1="125.67" x2="152.63" y2="125.67"/><line x1="118.63" y1="159.67" x2="135.63" y2="159.67"/><line x1="118.63" y1="154" x2="135.63" y2="154"/><line x1="118.63" y1="148.33" x2="138.46" y2="148.33"/><line x1="135.63" y1="169.58" x2="118.63" y2="162.5"/><line x1="118.63" y1="173.83" x2="118.63" y2="168.17"/><line x1="135.63" y1="169.58" x2="118.63" y2="165.33"/><line x1="118.63" y1="179.5" x2="135.63" y2="172.42"/><line x1="118.63" y1="180.92" x2="135.63" y2="172.42"/><line x1="118.63" y1="176.67" x2="135.63" y2="172.42"/><line x1="135.63" y1="169.58" x2="118.63" y2="161.08"/><line x1="118.63" y1="205" x2="118.63" y2="199.33"/><line x1="138.46" y1="100.17" x2="138.46" y2="86"/><line x1="142" y1="141.25" x2="128.54" y2="128.5"/><line x1="121.46" y1="142.67" x2="128.54" y2="128.5"/><line x1="121.46" y1="142.67" x2="141.29" y2="142.67"/><line x1="142" y1="141.25" x2="141.29" y2="142.67"/><line x1="142" y1="141.25" x2="129.96" y2="125.67"/><line x1="179.54" y1="56.25" x2="193.71" y2="56.25"/><line x1="231.96" y1="69" x2="230.9" y2="69"/><line x1="220.63" y1="69" x2="220.63" y2="74.67"/><line x1="220.63" y1="74.67" x2="200.79" y2="74.67"/><line x1="200.79" y1="76.08" x2="222.04" y2="76.08"/><line x1="222.04" y1="76.08" x2="222.04" y2="70.42"/><line x1="231.96" y1="71.83" x2="231.43" y2="70.42"/><line x1="222.04" y1="69" x2="220.63" y2="69"/><line x1="229.13" y1="77.5" x2="217.79" y2="80.33"/><line x1="231.43" y1="70.42" x2="231.96" y2="70.42"/><line x1="230.9" y1="69" x2="227.71" y2="57.67"/><line x1="231.43" y1="70.42" x2="230.9" y2="69"/><line x1="158.29" y1="29.33" x2="161.13" y2="26.5"/><line x1="230.9" y1="69" x2="222.04" y2="69"/><line x1="263.13" y1="93.08" x2="263.13" y2="98.75"/><line x1="217.79" y1="185.17" x2="246.13" y2="165.33"/><line x1="192.29" y1="193.67" x2="199.38" y2="165.33"/><line x1="163.96" y1="193.67" x2="155.46" y2="156.83"/><line x1="206.46" y1="139.83" x2="166.79" y2="139.83"/><line x1="282.96" y1="185.17" x2="299.96" y2="162.5"/><line x1="254.63" y1="162.5" x2="271.63" y2="185.17"/><line x1="271.63" y1="94.5" x2="268.79" y2="94.5"/><line x1="152.63" y1="80.33" x2="151.21" y2="80.33"/><line x1="152.63" y1="80.33" x2="152.63" y2="73.25"/><line x1="271.63" y1="97.33" x2="271.63" y2="94.5"/><line x1="268.79" y1="97.33" x2="271.63" y2="97.33"/><line x1="271.63" y1="97.33" x2="299.96" y2="97.33"/><line x1="299.96" y1="94.5" x2="299.96" y2="97.33"/><line x1="299.96" y1="94.5" x2="271.63" y2="94.5"/><line x1="151.21" y1="80.33" x2="151.21" y2="83.17"/><line x1="151.21" y1="83.17" x2="151.21" y2="84.58"/><line x1="139.88" y1="84.58" x2="151.21" y2="84.58"/><line x1="139.88" y1="84.58" x2="139.88" y2="83.17"/><line x1="139.88" y1="83.17" x2="139.88" y2="80.33"/><line x1="139.88" y1="61.92" x2="142.71" y2="61.92"/><line x1="151.21" y1="80.33" x2="151.21" y2="59.08"/><line x1="139.88" y1="80.33" x2="139.88" y2="61.92"/><line x1="151.21" y1="80.33" x2="139.88" y2="80.33"/><line x1="142.71" y1="61.92" x2="142.71" y2="59.08"/><line x1="142.71" y1="59.08" x2="151.21" y2="59.08"/><line x1="172.46" y1="69" x2="163.96" y2="69"/><line x1="163.96" y1="69" x2="158.29" y2="71.83"/><line x1="158.29" y1="71.83" x2="152.63" y2="71.83"/><line x1="152.63" y1="71.83" x2="152.63" y2="57.67"/><line x1="152.63" y1="73.25" x2="159" y2="73.25"/><line x1="159" y1="73.25" x2="164.67" y2="70.42"/><line x1="164.67" y1="70.42" x2="172.46" y2="70.42"/><line x1="152.63" y1="73.25" x2="152.63" y2="71.83"/></g><g stroke="#d3b15b" stroke-width="2.4" stroke-linecap="round"><line x1="206.46" y1="134.17" x2="206.46" y2="139.83"/><line x1="219.21" y1="57.67" x2="220.63" y2="57.67"/><line x1="206.46" y1="128.5" x2="206.46" y2="134.17"/><line x1="179.54" y1="222" x2="176.71" y2="222"/><line x1="158.29" y1="137" x2="161.13" y2="139.83"/><line x1="166.79" y1="112.92" x2="165.38" y2="111.5"/><line x1="189.46" y1="158.25" x2="189.46" y2="163.92"/><line x1="251.79" y1="139.83" x2="251.79" y2="138.42"/><line x1="166.79" y1="183.75" x2="166.79" y2="182.33"/><line x1="121.46" y1="210.67" x2="118.63" y2="209.25"/><line x1="165.38" y1="156.83" x2="166.79" y2="155.42"/><line x1="175.29" y1="193.67" x2="180.96" y2="193.67"/><line x1="246.13" y1="165.33" x2="251.79" y2="165.33"/><line x1="229.83" y1="199.33" x2="229.83" y2="205"/><line x1="302.79" y1="94.5" x2="302.79" y2="97.33"/><line x1="285.79" y1="159.67" x2="285.79" y2="156.83"/><line x1="297.13" y1="185.17" x2="282.96" y2="185.17"/><line x1="118.63" y1="199.33" x2="118.63" y2="193.67"/><line x1="263.13" y1="111.5" x2="263.13" y2="114.33"/><line x1="171.04" y1="193.67" x2="172.46" y2="193.67"/><line x1="216.38" y1="205" x2="214.96" y2="205"/><line x1="120.04" y1="145.5" x2="121.46" y2="142.67"/><line x1="161.13" y1="139.83" x2="163.96" y2="139.83"/><line x1="206.46" y1="156.83" x2="190.88" y2="156.83"/><line x1="285.79" y1="156.83" x2="268.79" y2="156.83"/><line x1="193.71" y1="56.25" x2="196.54" y2="56.25"/><line x1="179.54" y1="53.42" x2="180.96" y2="53.42"/><line x1="207.88" y1="111.5" x2="206.46" y2="112.92"/><line x1="169.63" y1="81.04" x2="169.63" y2="83.17"/><line x1="169.63" y1="83.17" x2="169.63" y2="83.88"/><line x1="206.46" y1="127.08" x2="206.46" y2="128.5"/><line x1="196.54" y1="56.25" x2="199.38" y2="77.5"/><line x1="172.46" y1="83.17" x2="173.88" y2="81.4"/><line x1="206.46" y1="121.42" x2="206.46" y2="127.08"/><line x1="206.46" y1="119.29" x2="206.46" y2="121.42"/><line x1="206.46" y1="112.92" x2="206.46" y2="119.29"/><line x1="210" y1="111.5" x2="207.88" y2="111.5"/><line x1="248.96" y1="120" x2="248.96" y2="114.33"/><line x1="263.13" y1="80.33" x2="263.13" y2="93.08"/><line x1="163.96" y1="156.83" x2="165.38" y2="156.83"/><line x1="166.79" y1="182.33" x2="163.96" y2="182.33"/><line x1="192.29" y1="165.33" x2="199.38" y2="165.33"/><line x1="248.96" y1="66.17" x2="251.79" y2="66.17"/><line x1="192.29" y1="185.17" x2="189.46" y2="185.17"/><line x1="189.46" y1="163.92" x2="190.88" y2="165.33"/><line x1="166.79" y1="190.83" x2="166.79" y2="183.75"/><line x1="138.46" y1="60.5" x2="141.29" y2="60.5"/><line x1="214.96" y1="188" x2="214.96" y2="199.33"/><line x1="144.13" y1="213.5" x2="141.29" y2="213.5"/><line x1="163.96" y1="182.33" x2="163.96" y2="193.67"/><line x1="190.88" y1="165.33" x2="192.29" y2="165.33"/><line x1="163.96" y1="193.67" x2="171.04" y2="193.67"/><line x1="192.29" y1="193.67" x2="192.29" y2="185.17"/><line x1="163.96" y1="151.17" x2="155.46" y2="151.17"/><line x1="180.96" y1="216.33" x2="179.54" y2="222"/><line x1="175.29" y1="216.33" x2="144.13" y2="216.33"/><line x1="212.13" y1="213.5" x2="212.13" y2="216.33"/><line x1="236.21" y1="114.33" x2="243.29" y2="114.33"/><line x1="217.79" y1="132.75" x2="217.79" y2="131.33"/><line x1="216.38" y1="199.33" x2="217.08" y2="199.33"/><line x1="132.79" y1="210.67" x2="121.46" y2="210.67"/><line x1="246.13" y1="134.17" x2="246.13" y2="148.33"/><line x1="185.21" y1="193.67" x2="192.29" y2="193.67"/><line x1="118.63" y1="185.17" x2="118.63" y2="180.92"/><line x1="251.79" y1="124.25" x2="251.79" y2="122.83"/><line x1="214.96" y1="165.33" x2="217.79" y2="162.5"/><line x1="200.79" y1="83.17" x2="200.79" y2="83.88"/><line x1="202.21" y1="41.38" x2="199.38" y2="40.67"/><line x1="141.29" y1="182.33" x2="141.29" y2="156.83"/><line x1="141.29" y1="156.83" x2="145.54" y2="156.83"/><line x1="145.54" y1="156.83" x2="155.46" y2="156.83"/><line x1="206.46" y1="165.33" x2="214.96" y2="165.33"/><line x1="141.29" y1="210.67" x2="132.79" y2="210.67"/><line x1="189.46" y1="186.58" x2="189.46" y2="190.83"/><line x1="189.46" y1="185.17" x2="189.46" y2="186.58"/><line x1="217.79" y1="142.67" x2="217.79" y2="132.75"/><line x1="218.5" y1="205" x2="217.08" y2="205"/><line x1="265.96" y1="93.08" x2="265.96" y2="77.5"/><line x1="189.46" y1="190.83" x2="166.79" y2="190.83"/><line x1="229.13" y1="80.33" x2="217.79" y2="80.33"/><line x1="231.96" y1="57.67" x2="231.96" y2="69"/><line x1="183.79" y1="193.67" x2="185.21" y2="193.67"/><line x1="180.96" y1="193.67" x2="183.79" y2="193.67"/><line x1="302.79" y1="179.5" x2="297.13" y2="185.17"/><line x1="220.63" y1="57.67" x2="222.04" y2="57.67"/><line x1="217.08" y1="205" x2="216.38" y2="205"/><line x1="299.96" y1="66.17" x2="302.79" y2="66.17"/><line x1="192.29" y1="23.67" x2="203.63" y2="18"/><line x1="231.96" y1="70.42" x2="231.96" y2="71.83"/><line x1="217.79" y1="80.33" x2="217.79" y2="83.17"/><line x1="203.63" y1="83.17" x2="203.63" y2="81.04"/><line x1="217.79" y1="83.17" x2="243.29" y2="83.17"/><line x1="203.63" y1="81.04" x2="200.79" y2="81.04"/><line x1="176.71" y1="222" x2="175.29" y2="216.33"/><line x1="251.79" y1="165.33" x2="253.21" y2="163.92"/><line x1="214.96" y1="205" x2="214.96" y2="213.5"/><line x1="240.46" y1="156.83" x2="240.46" y2="159.67"/><line x1="257.46" y1="156.83" x2="251.79" y2="156.83"/><line x1="118.63" y1="209.25" x2="118.63" y2="207.83"/><line x1="118.63" y1="190.83" x2="118.63" y2="185.17"/><line x1="163.96" y1="139.83" x2="165.38" y2="139.83"/><line x1="248.96" y1="77.5" x2="248.96" y2="74.67"/><line x1="265.96" y1="114.33" x2="265.96" y2="98.75"/><line x1="302.79" y1="105.83" x2="302.79" y2="135.58"/><line x1="172.46" y1="193.67" x2="175.29" y2="193.67"/><line x1="244.71" y1="83.17" x2="246.13" y2="83.17"/><line x1="135.63" y1="174.54" x2="135.63" y2="196.5"/><line x1="135.63" y1="196.5" x2="141.29" y2="196.5"/><line x1="152.63" y1="57.67" x2="155.46" y2="54.83"/><line x1="219.92" y1="197.92" x2="228.42" y2="197.92"/><line x1="228.42" y1="197.92" x2="229.83" y2="199.33"/><line x1="118.63" y1="207.83" x2="118.63" y2="205"/><line x1="203.63" y1="18" x2="209.29" y2="18"/><line x1="217.79" y1="25.08" x2="217.79" y2="26.5"/><line x1="206.46" y1="142.67" x2="206.46" y2="156.83"/><line x1="219.92" y1="206.42" x2="218.5" y2="205"/><line x1="228.42" y1="206.42" x2="219.92" y2="206.42"/><line x1="203.63" y1="61.92" x2="203.63" y2="56.25"/><line x1="257.46" y1="159.67" x2="257.46" y2="156.83"/><line x1="152.63" y1="125.67" x2="158.29" y2="137"/><line x1="159.71" y1="23.67" x2="165.38" y2="22.25"/><line x1="173.88" y1="81.4" x2="173.88" y2="77.5"/><line x1="135.63" y1="154" x2="135.63" y2="159.67"/><line x1="200.79" y1="80.33" x2="200.79" y2="76.08"/><line x1="199.38" y1="81.4" x2="200.79" y2="83.17"/><line x1="217.08" y1="199.33" x2="218.5" y2="199.33"/><line x1="145.54" y1="139.83" x2="142.71" y2="139.83"/><line x1="199.38" y1="77.5" x2="199.38" y2="81.4"/><line x1="263.13" y1="77.5" x2="263.13" y2="80.33"/><line x1="173.88" y1="77.5" x2="176.71" y2="56.25"/><line x1="165.38" y1="111.5" x2="152.63" y2="111.5"/><line x1="243.29" y1="83.17" x2="244.71" y2="83.17"/><line x1="132.79" y1="120" x2="132.79" y2="114.33"/><line x1="248.96" y1="80.33" x2="248.96" y2="77.5"/><line x1="209.29" y1="18" x2="210.71" y2="18"/><line x1="251.79" y1="122.83" x2="248.96" y2="120"/><line x1="263.13" y1="114.33" x2="265.96" y2="114.33"/><line x1="216.38" y1="111.5" x2="210" y2="111.5"/><line x1="141.29" y1="196.5" x2="141.29" y2="182.33"/><line x1="132.79" y1="114.33" x2="132.79" y2="108.67"/><line x1="244.71" y1="111.5" x2="231.96" y2="111.5"/><line x1="172.46" y1="80.33" x2="172.46" y2="81.04"/><line x1="138.46" y1="80.33" x2="138.46" y2="60.5"/><line x1="151.21" y1="57.67" x2="152.63" y2="57.67"/><line x1="172.46" y1="44.92" x2="172.46" y2="69"/><line x1="229.83" y1="205" x2="228.42" y2="206.42"/><line x1="302.79" y1="103" x2="302.79" y2="104.42"/><line x1="265.96" y1="77.5" x2="263.13" y2="77.5"/><line x1="297.13" y1="156.83" x2="297.13" y2="159.67"/><line x1="248.96" y1="74.67" x2="248.96" y2="71.83"/><line x1="155.46" y1="151.17" x2="146.96" y2="142.67"/><line x1="268.79" y1="156.83" x2="268.79" y2="159.67"/><line x1="251.79" y1="125.67" x2="251.79" y2="124.25"/><line x1="217.79" y1="18" x2="217.79" y2="25.08"/><line x1="302.79" y1="97.33" x2="302.79" y2="103"/><line x1="265.96" y1="98.75" x2="265.96" y2="97.33"/><line x1="166.79" y1="151.17" x2="163.96" y2="151.17"/><line x1="118.63" y1="193.67" x2="118.63" y2="190.83"/><line x1="251.79" y1="156.83" x2="251.79" y2="154"/><line x1="246.13" y1="185.17" x2="244" y2="185.17"/><line x1="165.38" y1="139.83" x2="166.79" y2="139.83"/><line x1="274.46" y1="190.83" x2="271.63" y2="185.17"/><line x1="251.79" y1="185.17" x2="246.13" y2="185.17"/><line x1="302.79" y1="156.83" x2="297.13" y2="156.83"/><line x1="203.63" y1="44.92" x2="202.92" y2="42.08"/><line x1="302.79" y1="137" x2="302.79" y2="146.92"/><line x1="202.92" y1="42.08" x2="202.21" y2="41.38"/><line x1="203.63" y1="56.25" x2="203.63" y2="44.92"/><line x1="200.79" y1="74.67" x2="200.79" y2="64.75"/><line x1="248.96" y1="71.83" x2="248.96" y2="66.17"/><line x1="248.96" y1="111.5" x2="244.71" y2="111.5"/><line x1="172.46" y1="70.42" x2="172.46" y2="80.33"/><line x1="173.17" y1="42.08" x2="172.46" y2="44.92"/><line x1="172.46" y1="81.04" x2="169.63" y2="81.04"/><line x1="166.79" y1="134.17" x2="166.79" y2="112.92"/><line x1="210.71" y1="18" x2="217.79" y2="18"/><line x1="142.71" y1="139.83" x2="142" y2="141.25"/><line x1="302.79" y1="148.33" x2="302.79" y2="154"/><line x1="214.96" y1="199.33" x2="216.38" y2="199.33"/><line x1="248.96" y1="114.33" x2="248.96" y2="111.5"/><line x1="217.79" y1="26.5" x2="217.79" y2="56.25"/><line x1="218.5" y1="199.33" x2="219.92" y2="197.92"/><line x1="192.29" y1="42.08" x2="192.29" y2="44.92"/><line x1="180.96" y1="44.92" x2="180.96" y2="42.08"/><line x1="180.96" y1="42.08" x2="178.13" y2="40.67"/><line x1="180.96" y1="47.75" x2="180.96" y2="44.92"/><line x1="192.29" y1="44.92" x2="192.29" y2="47.75"/><line x1="180.96" y1="50.58" x2="180.96" y2="47.75"/><line x1="192.29" y1="53.42" x2="193.71" y2="53.42"/><line x1="192.29" y1="47.75" x2="192.29" y2="50.58"/><line x1="180.96" y1="53.42" x2="180.96" y2="50.58"/><line x1="192.29" y1="50.58" x2="192.29" y2="53.42"/><line x1="171.04" y1="83.88" x2="172.46" y2="83.88"/><line x1="200.79" y1="81.04" x2="200.79" y2="80.33"/><line x1="172.46" y1="83.88" x2="172.46" y2="83.17"/><line x1="200.79" y1="83.88" x2="203.63" y2="83.88"/><line x1="302.79" y1="146.92" x2="302.79" y2="148.33"/><line x1="246.13" y1="83.17" x2="248.96" y2="80.33"/><line x1="302.79" y1="104.42" x2="302.79" y2="105.83"/><line x1="251.79" y1="138.42" x2="251.79" y2="125.67"/><line x1="302.79" y1="135.58" x2="302.79" y2="137"/><line x1="217.79" y1="185.17" x2="214.96" y2="188"/><line x1="217.79" y1="129.92" x2="217.79" y2="114.33"/><line x1="299.96" y1="162.5" x2="302.79" y2="165.33"/><line x1="199.38" y1="40.67" x2="195.13" y2="40.67"/><line x1="231.96" y1="69" x2="231.96" y2="70.42"/><line x1="217.79" y1="162.5" x2="217.79" y2="142.67"/><line x1="217.79" y1="114.33" x2="217.79" y2="112.92"/><line x1="268.79" y1="97.33" x2="268.79" y2="94.5"/><line x1="231.96" y1="111.5" x2="231.96" y2="114.33"/><line x1="217.79" y1="112.92" x2="216.38" y2="111.5"/><line x1="234.79" y1="114.33" x2="236.21" y2="114.33"/><line x1="217.79" y1="131.33" x2="217.79" y2="129.92"/><line x1="231.96" y1="114.33" x2="233.38" y2="114.33"/><line x1="233.38" y1="114.33" x2="234.79" y2="114.33"/><line x1="302.79" y1="165.33" x2="302.79" y2="179.5"/><line x1="118.63" y1="148.33" x2="120.04" y2="145.5"/><line x1="246.13" y1="117.17" x2="246.13" y2="134.17"/><line x1="280.13" y1="63.33" x2="299.96" y2="63.33"/><line x1="302.79" y1="88.83" x2="302.79" y2="90.25"/><line x1="278.71" y1="63.33" x2="280.13" y2="63.33"/><line x1="302.79" y1="90.25" x2="302.79" y2="94.5"/><line x1="251.79" y1="63.33" x2="278.71" y2="63.33"/><line x1="251.79" y1="66.17" x2="251.79" y2="63.33"/><line x1="302.79" y1="66.17" x2="302.79" y2="88.83"/><line x1="299.96" y1="63.33" x2="299.96" y2="66.17"/><line x1="240.46" y1="159.67" x2="244.71" y2="163.92"/><line x1="240.46" y1="154" x2="240.46" y2="155.42"/><line x1="246.13" y1="148.33" x2="240.46" y2="154"/><line x1="253.21" y1="163.92" x2="254.63" y2="162.5"/><line x1="244.71" y1="163.92" x2="246.13" y2="165.33"/><line x1="244" y1="185.17" x2="217.79" y2="185.17"/><line x1="253.92" y1="185.17" x2="251.79" y2="185.17"/><line x1="251.79" y1="154" x2="251.79" y2="139.83"/><line x1="302.79" y1="154" x2="302.79" y2="156.83"/><line x1="271.63" y1="185.17" x2="253.92" y2="185.17"/><line x1="280.13" y1="196.5" x2="274.46" y2="196.5"/><line x1="274.46" y1="196.5" x2="274.46" y2="190.83"/><line x1="282.96" y1="185.17" x2="280.13" y2="190.83"/><line x1="280.13" y1="190.83" x2="280.13" y2="196.5"/><line x1="268.79" y1="159.67" x2="285.79" y2="159.67"/><line x1="243.29" y1="117.17" x2="246.13" y2="117.17"/><line x1="243.29" y1="114.33" x2="243.29" y2="117.17"/><line x1="240.46" y1="155.42" x2="240.46" y2="156.83"/><line x1="214.96" y1="213.5" x2="212.13" y2="213.5"/><line x1="212.13" y1="216.33" x2="180.96" y2="216.33"/><line x1="144.13" y1="216.33" x2="144.13" y2="213.5"/><line x1="141.29" y1="213.5" x2="141.29" y2="210.67"/><line x1="165.38" y1="22.25" x2="166.79" y2="25.08"/><line x1="152.63" y1="111.5" x2="149.79" y2="114.33"/><line x1="138.46" y1="103" x2="138.46" y2="100.17"/><line x1="132.79" y1="108.67" x2="138.46" y2="103"/><line x1="149.79" y1="114.33" x2="149.79" y2="120"/><line x1="146.96" y1="142.67" x2="145.54" y2="139.83"/><line x1="149.79" y1="120" x2="152.63" y2="125.67"/><line x1="129.96" y1="125.67" x2="132.79" y2="120"/><line x1="118.63" y1="159.67" x2="118.63" y2="154"/><line x1="135.63" y1="159.67" x2="135.63" y2="167.46"/><line x1="118.63" y1="154" x2="118.63" y2="148.33"/><line x1="138.46" y1="148.33" x2="135.63" y2="154"/><line x1="117.21" y1="173.83" x2="117.21" y2="168.17"/><line x1="117.21" y1="168.17" x2="118.63" y2="168.17"/><line x1="118.63" y1="173.83" x2="117.21" y2="173.83"/><line x1="118.63" y1="161.08" x2="118.63" y2="159.67"/><line x1="135.63" y1="169.58" x2="138.46" y2="169.58"/><line x1="138.46" y1="169.58" x2="138.46" y2="172.42"/><line x1="138.46" y1="172.42" x2="135.63" y2="172.42"/><line x1="135.63" y1="172.42" x2="135.63" y2="174.54"/><line x1="135.63" y1="167.46" x2="135.63" y2="169.58"/><line x1="118.63" y1="176.67" x2="118.63" y2="173.83"/><line x1="118.63" y1="168.17" x2="118.63" y2="165.33"/><line x1="118.63" y1="180.92" x2="118.63" y2="179.5"/><line x1="118.63" y1="179.5" x2="118.63" y2="176.67"/><line x1="118.63" y1="162.5" x2="118.63" y2="161.08"/><line x1="118.63" y1="165.33" x2="118.63" y2="162.5"/><line x1="117.21" y1="199.33" x2="118.63" y2="199.33"/><line x1="118.63" y1="205" x2="117.21" y2="205"/><line x1="117.21" y1="205" x2="117.21" y2="199.33"/><line x1="137.04" y1="100.17" x2="137.04" y2="86"/><line x1="137.04" y1="86" x2="138.46" y2="86"/><line x1="138.46" y1="100.17" x2="137.04" y2="100.17"/><line x1="138.46" y1="86" x2="138.46" y2="83.17"/><line x1="127.13" y1="127.79" x2="128.54" y2="128.5"/><line x1="121.46" y1="142.67" x2="120.04" y2="141.96"/><line x1="120.04" y1="141.96" x2="127.13" y2="127.79"/><line x1="128.54" y1="128.5" x2="129.96" y2="125.67"/><line x1="142" y1="141.25" x2="142.71" y2="141.6"/><line x1="142.71" y1="141.6" x2="142.35" y2="142.31"/><line x1="142" y1="143.02" x2="141.29" y2="142.67"/><line x1="141.29" y1="142.67" x2="138.46" y2="148.33"/><line x1="142.35" y1="142.31" x2="142" y2="143.02"/><line x1="178.13" y1="40.67" x2="176.71" y2="40.67"/><line x1="195.13" y1="40.67" x2="192.29" y2="42.08"/><line x1="176.71" y1="56.25" x2="179.54" y2="56.25"/><line x1="179.54" y1="56.25" x2="179.54" y2="53.42"/><line x1="203.63" y1="83.88" x2="203.63" y2="83.17"/><line x1="193.71" y1="53.42" x2="193.71" y2="56.25"/><line x1="200.79" y1="76.08" x2="200.79" y2="74.67"/><line x1="169.63" y1="83.88" x2="171.04" y2="83.88"/><line x1="222.04" y1="57.67" x2="227.71" y2="57.67"/><line x1="229.13" y1="77.5" x2="229.13" y2="80.33"/><line x1="234.79" y1="74.67" x2="234.79" y2="77.5"/><line x1="231.96" y1="71.83" x2="234.79" y2="74.67"/><line x1="234.79" y1="77.5" x2="229.13" y2="77.5"/><line x1="227.71" y1="57.67" x2="231.96" y2="57.67"/><line x1="200.79" y1="64.75" x2="203.63" y2="61.92"/><line x1="217.79" y1="56.25" x2="219.21" y2="57.67"/><line x1="186.63" y1="23.67" x2="192.29" y2="23.67"/><line x1="264.54" y1="93.08" x2="264.54" y2="98.75"/><line x1="264.54" y1="98.75" x2="263.13" y2="98.75"/><line x1="263.13" y1="93.08" x2="264.54" y2="93.08"/><line x1="263.13" y1="98.75" x2="263.13" y2="111.5"/><line x1="199.38" y1="165.33" x2="206.46" y2="165.33"/><line x1="155.46" y1="156.83" x2="163.96" y2="156.83"/><line x1="166.79" y1="139.83" x2="166.79" y2="134.17"/><line x1="206.46" y1="139.83" x2="206.46" y2="142.67"/><line x1="254.63" y1="162.5" x2="257.46" y2="159.67"/><line x1="297.13" y1="159.67" x2="299.96" y2="162.5"/><line x1="155.46" y1="54.83" x2="155.46" y2="40.67"/><line x1="268.79" y1="94.5" x2="265.96" y2="94.5"/><line x1="265.96" y1="94.5" x2="265.96" y2="93.08"/><line x1="265.96" y1="97.33" x2="268.79" y2="97.33"/><line x1="138.46" y1="83.17" x2="138.46" y2="80.33"/><line x1="141.29" y1="60.5" x2="141.29" y2="57.67"/><line x1="141.29" y1="57.67" x2="151.21" y2="57.67"/><line x1="190.88" y1="156.83" x2="189.46" y2="158.25"/><line x1="166.79" y1="155.42" x2="166.79" y2="151.17"/><line x1="172.46" y1="69" x2="172.46" y2="70.42"/><line x1="176.71" y1="40.67" x2="173.88" y2="41.38"/><line x1="173.88" y1="41.38" x2="173.17" y2="42.08"/><line x1="166.79" y1="25.08" x2="172.46" y2="23.67"/><line x1="172.46" y1="23.67" x2="186.63" y2="23.67"/><line x1="155.46" y1="40.67" x2="156.88" y2="35"/><line x1="156.88" y1="35" x2="154.04" y2="33.58"/><line x1="154.04" y1="33.58" x2="155.46" y2="27.92"/><line x1="155.46" y1="27.92" x2="159.71" y2="23.67"/></g><g opacity="0.95"><circle cx="158.65" cy="26.85" r="2.2" fill="#d3b15b"/><circle cx="137.04" cy="171" r="2.2" fill="#d3b15b"/><circle cx="180.96" cy="170.29" r="3.2" fill="#b7493c"/><circle cx="178.13" cy="196.5" r="2.2" fill="#d3b15b"/><circle cx="273.75" cy="95.92" r="2.2" fill="#d3b15b"/><circle cx="186.63" cy="74.67" r="2.2" fill="#d3b15b"/><circle cx="299.96" cy="172.42" r="2.2" fill="#d3b15b"/><circle cx="146.25" cy="59.79" r="2.2" fill="#d3b15b"/><circle cx="300.67" cy="68.29" r="3.2" fill="#b7493c"/><circle cx="277.29" cy="188.71" r="3.2" fill="#b7493c"/><circle cx="210" cy="214.21" r="3.2" fill="#b7493c"/><circle cx="160.42" cy="158.96" r="2.2" fill="#d3b15b"/><circle cx="261.71" cy="95.92" r="3.2" fill="#b7493c"/><circle cx="229.83" cy="59.79" r="3.2" fill="#b7493c"/><circle cx="168.92" cy="188.71" r="3.2" fill="#b7493c"/><circle cx="209.29" cy="213.5" r="2.2" fill="#d3b15b"/><circle cx="277.29" cy="188" r="2.2" fill="#d3b15b"/><circle cx="214.96" cy="20.83" r="2.2" fill="#d3b15b"/><circle cx="244" cy="119.29" r="2.2" fill="#d3b15b"/><circle cx="300.67" cy="177.38" r="2.2" fill="#d3b15b"/><circle cx="300.67" cy="167.46" r="2.2" fill="#d3b15b"/><circle cx="119.33" cy="202.17" r="2.2" fill="#d3b15b"/><circle cx="154.75" cy="81.75" r="2.2" fill="#d3b15b"/><circle cx="253.92" cy="65.46" r="2.2" fill="#d3b15b"/><circle cx="277.29" cy="161.79" r="2.2" fill="#d3b15b"/><circle cx="180.96" cy="175.96" r="3.2" fill="#b7493c"/><circle cx="175.29" cy="175.96" r="3.2" fill="#b7493c"/><circle cx="175.29" cy="170.29" r="3.2" fill="#b7493c"/><circle cx="222.04" cy="145.5" r="2.2" fill="#d3b15b"/><circle cx="227.71" cy="137" r="2.2" fill="#d3b15b"/><circle cx="187.33" cy="188.71" r="2.2" fill="#d3b15b"/><circle cx="163.25" cy="24.38" r="2.2" fill="#d3b15b"/><circle cx="222.04" cy="128.5" r="2.2" fill="#d3b15b"/><circle cx="227.71" cy="128.5" r="2.2" fill="#d3b15b"/><circle cx="140.58" cy="73.96" r="2.2" fill="#d3b15b"/><circle cx="140.58" cy="78.21" r="2.2" fill="#d3b15b"/><circle cx="224.17" cy="202.17" r="2.2" fill="#d3b15b"/><circle cx="227.71" cy="145.5" r="2.2" fill="#d3b15b"/><circle cx="222.04" cy="137" r="2.2" fill="#d3b15b"/><circle cx="253.92" cy="127.79" r="2.2" fill="#d3b15b"/><circle cx="156.17" cy="31.46" r="2.2" fill="#d3b15b"/><circle cx="300.67" cy="122.83" r="2.2" fill="#d3b15b"/><circle cx="143.42" cy="59.79" r="3.2" fill="#b7493c"/><circle cx="140.58" cy="64.04" r="2.2" fill="#d3b15b"/><circle cx="140.58" cy="69" r="2.2" fill="#d3b15b"/><circle cx="144.13" cy="137.71" r="2.2" fill="#d3b15b"/><circle cx="277.29" cy="154.71" r="3.2" fill="#b7493c"/><circle cx="239.75" cy="116.46" r="3.2" fill="#b7493c"/><circle cx="204.33" cy="154.71" r="3.2" fill="#b7493c"/><circle cx="186.63" cy="85.29" r="2.2" fill="#d3b15b"/><circle cx="168.92" cy="123.54" r="2.2" fill="#d3b15b"/><circle cx="238.33" cy="109.38" r="2.2" fill="#d3b15b"/><circle cx="143.42" cy="158.96" r="2.2" fill="#d3b15b"/><circle cx="147.67" cy="158.96" r="2.2" fill="#d3b15b"/><circle cx="151.92" cy="158.96" r="2.2" fill="#d3b15b"/><circle cx="156.17" cy="158.96" r="2.2" fill="#d3b15b"/><circle cx="146.25" cy="214.21" r="2.2" fill="#d3b15b"/><circle cx="149.79" cy="214.21" r="2.2" fill="#d3b15b"/><circle cx="204.33" cy="103.71" r="2.2" fill="#d3b15b"/><circle cx="267.73" cy="91.31" r="2.2" fill="#d3b15b"/><circle cx="267.73" cy="100.52" r="2.2" fill="#d3b15b"/><circle cx="159" cy="109.73" r="2.2" fill="#d3b15b"/><circle cx="206.46" cy="19.42" r="2.2" fill="#d3b15b"/><circle cx="200.79" cy="20.83" r="2.2" fill="#d3b15b"/><circle cx="195.13" cy="23.67" r="2.2" fill="#d3b15b"/><circle cx="164.67" cy="158.96" r="2.2" fill="#d3b15b"/><circle cx="202.92" cy="72.54" r="2.2" fill="#d3b15b"/><circle cx="214.96" cy="185.17" r="2.2" fill="#d3b15b"/></g></svg>