<svg xmlns="http://www.w3.org/2000/svg" viewBox="0 0 420 240" role="img"><rect width="100%" height="100%" fill="#070706"/><g stroke="#5e5a4f" stroke-width="1.6" stroke-linecap="round"><line x1="215.1" y1="130.2" x2="232.59" y2="130.2"/><line x1="205.17" y1="136.12" x2="215.1" y2="130.2"/><line x1="209.27" y1="138.94" x2="207.81" y2="137.49"/><line x1="282.13" y1="89.4" x2="279.21" y2="96.69"/><line x1="270.47" y1="74.83" x2="282.13" y2="77.74"/><line x1="220.93" y1="54.43" x2="220.93" y2="51.51"/><line x1="193.24" y1="69" x2="200.53" y2="70.46"/><line x1="200.53" y1="70.46" x2="206.36" y2="64.63"/><line x1="188.87" y1="76.29" x2="193.24" y2="69"/><line x1="174.3" y1="79.2" x2="188.87" y2="76.29"/><line x1="169.93" y1="86.49" x2="174.3" y2="79.2"/><line x1="183.04" y1="112.71" x2="164.1" y2="109.8"/><line x1="191.79" y1="111.26" x2="190.33" y2="110.98"/><line x1="199.8" y1="131.66" x2="194.7" y2="133.11"/><line x1="206.36" y1="112.71" x2="193.7" y2="121.46"/><line x1="241.33" y1="112.71" x2="206.36" y2="112.71"/><line x1="193.97" y1="122.91" x2="193.7" y2="121.46"/><line x1="232.59" y1="130.2" x2="243.7" y2="136.85"/><line x1="205.17" y1="136.12" x2="200.53" y2="138.94"/><line x1="199.8" y1="131.66" x2="212.19" y2="124.37"/><line x1="212.19" y1="124.37" x2="235.5" y2="124.37"/><line x1="252.99" y1="133.11" x2="248.61" y2="130.93"/><line x1="235.5" y1="124.37" x2="248.61" y2="130.93"/><line x1="232.59" y1="136.03" x2="215.1" y2="136.03"/><line x1="250.07" y1="128.74" x2="248.61" y2="130.93"/><line x1="247.16" y1="138.94" x2="243.7" y2="136.85"/><line x1="121.84" y1="188.49" x2="116.01" y2="188.49"/><line x1="273.39" y1="103.97" x2="261.73" y2="103.97"/><line x1="276.3" y1="118.54" x2="273.39" y2="118.54"/><line x1="261.73" y1="106.89" x2="261.73" y2="108.34"/><line x1="261.73" y1="108.34" x2="261.73" y2="109.8"/><line x1="273.39" y1="106.89" x2="261.73" y2="106.89"/><line x1="273.39" y1="109.8" x2="273.39" y2="112.71"/><line x1="261.73" y1="114.17" x2="261.73" y2="115.63"/><line x1="273.39" y1="108.34" x2="261.73" y2="108.34"/><line x1="273.39" y1="108.34" x2="273.39" y2="109.8"/><line x1="261.73" y1="103.97" x2="258.81" y2="103.97"/><line x1="273.39" y1="109.8" x2="261.73" y2="109.8"/><line x1="273.39" y1="106.89" x2="273.39" y2="108.34"/><line x1="276.3" y1="103.97" x2="273.39" y2="103.97"/><line x1="273.39" y1="103.97" x2="273.39" y2="106.89"/><line x1="261.73" y1="103.97" x2="261.73" y2="106.89"/><line x1="261.73" y1="112.71" x2="261.73" y2="114.17"/><line x1="273.39" y1="112.71" x2="261.73" y2="112.71"/><line x1="273.39" y1="112.71" x2="273.39" y2="114.17"/><line x1="261.73" y1="118.54" x2="261.73" y2="115.63"/><line x1="273.39" y1="114.17" x2="261.73" y2="114.17"/><line x1="273.39" y1="114.17" x2="273.39" y2="115.63"/><line x1="209.27" y1="118.54" x2="238.41" y2="118.54"/><line x1="273.39" y1="115.63" x2="261.73" y2="115.63"/><line x1="273.39" y1="115.63" x2="273.39" y2="118.54"/><line x1="258.81" y1="121.46" x2="274.84" y2="121.46"/><line x1="276.3" y1="121.46" x2="274.84" y2="121.46"/><line x1="258.09" y1="118.54" x2="258.09" y2="120"/><line x1="258.09" y1="137.49" x2="258.09" y2="138.94"/><line x1="252.99" y1="127.29" x2="250.07" y2="128.74"/><line x1="243.7" y1="136.85" x2="240.6" y2="136.76"/><line x1="245.7" y1="136.03" x2="243.7" y2="136.85"/><line x1="247.16" y1="133.11" x2="245.7" y2="136.03"/><line x1="248.61" y1="130.93" x2="247.16" y2="133.11"/><line x1="207.81" y1="137.49" x2="205.17" y2="136.12"/><line x1="205.17" y1="136.12" x2="203.44" y2="134.57"/><line x1="200.53" y1="133.84" x2="199.8" y2="131.66"/><line x1="199.8" y1="131.66" x2="197.61" y2="130.2"/><line x1="197.61" y1="130.2" x2="196.89" y2="128.01"/><line x1="196.89" y1="128.01" x2="194.7" y2="127.29"/><line x1="203.44" y1="134.57" x2="200.53" y2="133.84"/><line x1="232.59" y1="138.94" x2="232.59" y2="136.03"/><line x1="194.7" y1="127.29" x2="193.97" y2="122.91"/><line x1="193.24" y1="118.54" x2="193.24" y2="115.63"/><line x1="194.7" y1="98.14" x2="191.79" y2="96.69"/><line x1="184.5" y1="95.23" x2="180.13" y2="90.86"/><line x1="184.5" y1="117.09" x2="183.5" y2="114.17"/><line x1="187.41" y1="117.54" x2="184.5" y2="117.09"/><line x1="191.15" y1="114.17" x2="191.79" y2="111.26"/><line x1="190.33" y1="118" x2="187.41" y2="117.54"/><line x1="187.41" y1="117.54" x2="185.96" y2="114.17"/><line x1="185.96" y1="114.17" x2="183.5" y2="114.17"/><line x1="180.13" y1="90.86" x2="174.3" y2="93.77"/><line x1="183.5" y1="114.17" x2="183.04" y2="112.71"/><line x1="191.79" y1="96.69" x2="184.5" y2="95.23"/><line x1="181.59" y1="105.43" x2="172.84" y2="103.97"/><line x1="184.5" y1="109.8" x2="181.59" y2="105.43"/><line x1="190.33" y1="110.98" x2="184.5" y2="109.8"/><line x1="190.33" y1="110.98" x2="194.7" y2="98.14"/><line x1="190.33" y1="110.98" x2="185.96" y2="99.6"/><line x1="185.96" y1="99.6" x2="175.76" y2="98.14"/><line x1="175.76" y1="98.14" x2="172.84" y2="103.97"/><line x1="172.84" y1="103.97" x2="164.1" y2="102.51"/><line x1="167.01" y1="93.77" x2="164.1" y2="98.14"/><line x1="174.3" y1="93.77" x2="167.01" y2="93.77"/><line x1="215.1" y1="136.03" x2="215.1" y2="138.94"/><line x1="229.67" y1="138.94" x2="218.01" y2="138.94"/><line x1="193.24" y1="115.63" x2="191.15" y2="114.17"/><line x1="190.33" y1="118" x2="191.15" y2="114.17"/><line x1="193.24" y1="118.54" x2="190.33" y2="118"/><line x1="229.67" y1="146.23" x2="229.67" y2="149.14"/><line x1="247.16" y1="141.86" x2="247.16" y2="153.51"/><line x1="279.21" y1="144.77" x2="279.21" y2="150.6"/><line x1="197.61" y1="153.51" x2="197.61" y2="141.86"/><line x1="218.01" y1="153.51" x2="218.01" y2="152.06"/><line x1="218.01" y1="152.06" x2="218.01" y2="150.6"/><line x1="185.96" y1="127.29" x2="171.39" y2="127.29"/><line x1="153.9" y1="147.69" x2="153.9" y2="138.94"/><line x1="261.73" y1="175.74" x2="261.73" y2="173.91"/><line x1="219.47" y1="143.31" x2="218.01" y2="143.31"/><line x1="218.01" y1="149.14" x2="218.01" y2="146.23"/><line x1="218.01" y1="146.23" x2="219.47" y2="146.23"/><line x1="219.47" y1="146.23" x2="219.47" y2="143.31"/><line x1="219.47" y1="149.14" x2="218.01" y2="149.14"/><line x1="218.01" y1="152.06" x2="219.47" y2="152.06"/><line x1="219.47" y1="152.06" x2="219.47" y2="149.14"/><line x1="215.1" y1="141.86" x2="215.1" y2="153.51"/><line x1="229.67" y1="143.31" x2="228.21" y2="143.31"/><line x1="232.59" y1="153.51" x2="232.59" y2="141.86"/><line x1="228.21" y1="146.23" x2="229.67" y2="146.23"/><line x1="228.21" y1="143.31" x2="228.21" y2="146.23"/><line x1="229.67" y1="149.14" x2="228.21" y2="149.14"/><line x1="229.67" y1="152.06" x2="229.67" y2="153.51"/><line x1="228.21" y1="152.06" x2="229.67" y2="152.06"/><line x1="228.21" y1="149.14" x2="228.21" y2="152.06"/><line x1="229.67" y1="149.14" x2="229.67" y2="152.06"/><line x1="229.67" y1="156.43" x2="218.01" y2="156.43"/><line x1="207.09" y1="161.53" x2="212.19" y2="161.53"/><line x1="240.6" y1="136.76" x2="238.41" y2="138.94"/><line x1="220.93" y1="29.66" x2="218.74" y2="28.2"/><line x1="261.73" y1="109.8" x2="261.73" y2="112.71"/><line x1="173.21" y1="93.41" x2="175.39" y2="92.31"/><line x1="171.75" y1="92.31" x2="173.21" y2="93.41"/><line x1="173.57" y1="91.22" x2="171.75" y2="92.31"/><line x1="175.39" y1="92.31" x2="173.57" y2="91.22"/><line x1="228.94" y1="49.33" x2="230.4" y2="42.04"/><line x1="233.31" y1="51.51" x2="228.94" y2="49.33"/><line x1="165.56" y1="176.83" x2="171.39" y2="176.83"/><line x1="157.18" y1="187.03" x2="156.81" y2="187.03"/><line x1="150.99" y1="147.69" x2="150.99" y2="138.94"/><line x1="180.13" y1="173.91" x2="165.56" y2="173.91"/><line x1="150.99" y1="159.34" x2="153.9" y2="159.34"/><line x1="156.81" y1="171" x2="156.81" y2="165.17"/><line x1="171.39" y1="176.83" x2="177.21" y2="176.83"/><line x1="150.99" y1="165.17" x2="153.9" y2="165.17"/><line x1="159.73" y1="165.17" x2="165.56" y2="165.17"/><line x1="153.9" y1="153.51" x2="156.81" y2="153.51"/><line x1="150.99" y1="176.83" x2="150.99" y2="173.91"/><line x1="159.73" y1="171" x2="159.73" y2="173.91"/><line x1="165.56" y1="159.34" x2="165.56" y2="165.17"/><line x1="150.99" y1="173.91" x2="150.26" y2="173.91"/><line x1="153.9" y1="176.83" x2="165.56" y2="176.83"/><line x1="156.81" y1="187.03" x2="156.81" y2="185.57"/><line x1="153.9" y1="173.91" x2="153.9" y2="176.83"/><line x1="165.56" y1="147.69" x2="165.56" y2="153.51"/><line x1="157.18" y1="189.94" x2="157.18" y2="187.03"/><line x1="171.39" y1="191.4" x2="171.39" y2="176.83"/><line x1="215.1" y1="156.43" x2="215.1" y2="159.34"/><line x1="215.1" y1="159.34" x2="232.59" y2="159.34"/><line x1="232.59" y1="159.34" x2="232.59" y2="156.43"/><line x1="245.7" y1="184.84" x2="235.5" y2="182.66"/><line x1="234.77" y1="181.2" x2="226.76" y2="182.66"/><line x1="218.01" y1="168.09" x2="215.83" y2="170.27"/><line x1="212.19" y1="184.84" x2="200.53" y2="170.27"/><line x1="247.89" y1="175.37" x2="244.97" y2="176.83"/><line x1="244.97" y1="176.83" x2="244.97" y2="180.47"/><line x1="252.26" y1="179.01" x2="247.16" y2="182.66"/><line x1="255.9" y1="169.54" x2="255.9" y2="171.73"/><line x1="248.61" y1="172.46" x2="244.24" y2="171"/><line x1="244.24" y1="171" x2="238.41" y2="173.91"/><line x1="238.41" y1="173.91" x2="232.59" y2="173.91"/><line x1="232.59" y1="173.91" x2="226.76" y2="168.09"/><line x1="226.76" y1="168.09" x2="218.01" y2="168.09"/><line x1="200.53" y1="168.09" x2="203.44" y2="162.26"/><line x1="209.27" y1="165.17" x2="203.44" y2="162.26"/><line x1="215.1" y1="171" x2="209.27" y2="165.17"/><line x1="215.83" y1="170.27" x2="215.1" y2="171"/><line x1="223.84" y1="176.83" x2="215.83" y2="170.27"/><line x1="228.94" y1="176.1" x2="223.84" y2="176.83"/><line x1="238.41" y1="179.01" x2="228.94" y2="176.1"/><line x1="239.14" y1="177.56" x2="238.41" y2="179.01"/><line x1="248.61" y1="172.46" x2="239.14" y2="177.56"/><line x1="252.99" y1="169.54" x2="248.61" y2="172.46"/><line x1="251.53" y1="176.83" x2="247.89" y2="175.37"/><line x1="212.19" y1="161.53" x2="215.1" y2="156.43"/><line x1="209.27" y1="156.43" x2="207.09" y2="161.53"/><line x1="203.44" y1="162.26" x2="207.09" y2="161.53"/><line x1="203.44" y1="162.26" x2="203.44" y2="157.89"/><line x1="200.53" y1="168.09" x2="199.07" y2="162.26"/><line x1="251.53" y1="176.83" x2="252.26" y2="179.01"/><line x1="244.97" y1="180.47" x2="242.06" y2="181.2"/><line x1="235.5" y1="182.66" x2="212.19" y2="184.84"/><line x1="242.06" y1="181.2" x2="241.33" y2="182.57"/><line x1="252.99" y1="176.83" x2="253.71" y2="179.74"/><line x1="253.71" y1="179.74" x2="245.7" y2="184.84"/><line x1="223.84" y1="219.09" x2="223.84" y2="220.54"/><line x1="203.44" y1="194.31" x2="209.27" y2="201.6"/><line x1="191.79" y1="176.83" x2="191.79" y2="191.4"/><line x1="188.87" y1="176.83" x2="188.87" y2="191.4"/><line x1="177.21" y1="176.83" x2="177.21" y2="191.4"/><line x1="185.96" y1="176.83" x2="185.96" y2="191.4"/><line x1="183.04" y1="176.83" x2="183.04" y2="191.4"/><line x1="180.13" y1="176.83" x2="183.04" y2="176.83"/><line x1="258.81" y1="173.91" x2="258.81" y2="169.54"/><line x1="276.3" y1="154.97" x2="276.3" y2="162.99"/><line x1="266.1" y1="163.71" x2="269.01" y2="163.71"/><line x1="258.81" y1="173.91" x2="261.73" y2="173.91"/><line x1="255.9" y1="185.57" x2="258.81" y2="185.57"/><line x1="258.81" y1="179.74" x2="276.3" y2="179.74"/><line x1="264.64" y1="168.09" x2="264.64" y2="162.26"/><line x1="255.9" y1="171.73" x2="255.9" y2="185.57"/><line x1="258.81" y1="185.57" x2="276.3" y2="185.57"/><line x1="258.81" y1="200.14" x2="258.81" y2="185.57"/><line x1="304.71" y1="150.6" x2="303.99" y2="150.6"/><line x1="276.3" y1="122.91" x2="277.76" y2="122.91"/><line x1="274.84" y1="121.46" x2="274.84" y2="122.91"/><line x1="274.84" y1="153.51" x2="273.39" y2="153.51"/><line x1="279.21" y1="150.6" x2="279.21" y2="153.51"/><line x1="280.67" y1="150.6" x2="279.21" y2="150.6"/><line x1="279.21" y1="122.91" x2="279.21" y2="130.93"/><line x1="279.21" y1="144.77" x2="280.67" y2="144.77"/><line x1="276.3" y1="150.6" x2="276.3" y2="153.51"/><line x1="282.13" y1="144.77" x2="282.13" y2="150.6"/><line x1="289.78" y1="141.68" x2="291.51" y2="140.04"/><line x1="283.59" y1="150.6" x2="283.59" y2="144.77"/><line x1="299.61" y1="144.77" x2="303.99" y2="144.77"/><line x1="285.04" y1="150.6" x2="285.04" y2="144.77"/><line x1="291.51" y1="155.34" x2="289.78" y2="153.7"/><line x1="289.78" y1="153.7" x2="290.87" y2="150.6"/><line x1="299.61" y1="150.6" x2="300.71" y2="153.7"/><line x1="303.99" y1="144.77" x2="304.71" y2="144.77"/><line x1="286.5" y1="144.77" x2="290.87" y2="144.77"/><line x1="285.04" y1="144.77" x2="286.5" y2="144.77"/><line x1="286.5" y1="150.6" x2="285.04" y2="150.6"/><line x1="289.78" y1="141.68" x2="300.71" y2="141.68"/><line x1="298.98" y1="140.04" x2="300.71" y2="141.68"/><line x1="291.51" y1="140.04" x2="298.98" y2="140.04"/><line x1="300.71" y1="153.7" x2="289.78" y2="153.7"/><line x1="300.71" y1="153.7" x2="298.98" y2="155.34"/><line x1="298.98" y1="155.34" x2="291.51" y2="155.34"/><line x1="290.87" y1="144.77" x2="289.78" y2="141.68"/><line x1="286.5" y1="144.77" x2="289.78" y2="141.68"/><line x1="300.71" y1="141.68" x2="299.61" y2="144.77"/><line x1="300.71" y1="141.68" x2="303.99" y2="144.77"/><line x1="303.99" y1="150.6" x2="299.61" y2="150.6"/><line x1="303.99" y1="150.6" x2="300.71" y2="153.7"/><line x1="290.87" y1="150.6" x2="286.5" y2="150.6"/><line x1="289.78" y1="153.7" x2="286.5" y2="150.6"/><line x1="279.21" y1="144.77" x2="276.3" y2="144.77"/><line x1="276.3" y1="144.77" x2="276.3" y2="150.6"/><line x1="276.3" y1="150.6" x2="279.21" y2="150.6"/><line x1="274.84" y1="153.51" x2="274.84" y2="154.97"/><line x1="276.3" y1="153.51" x2="274.84" y2="153.51"/><line x1="279.21" y1="154.97" x2="279.21" y2="162.99"/><line x1="274.84" y1="154.97" x2="276.3" y2="154.97"/><line x1="274.84" y1="140.4" x2="274.84" y2="141.86"/><line x1="274.84" y1="141.86" x2="276.3" y2="141.86"/><line x1="279.21" y1="141.86" x2="279.21" y2="144.77"/><line x1="276.3" y1="140.4" x2="274.84" y2="140.4"/><line x1="276.3" y1="141.86" x2="276.3" y2="144.77"/><line x1="277.76" y1="140.4" x2="276.3" y2="140.4"/><line x1="276.3" y1="140.4" x2="276.3" y2="141.86"/><line x1="276.3" y1="141.86" x2="277.76" y2="141.86"/><line x1="276.3" y1="154.97" x2="277.76" y2="154.97"/><line x1="276.3" y1="153.51" x2="276.3" y2="154.97"/><line x1="277.76" y1="153.51" x2="276.3" y2="153.51"/><line x1="200.53" y1="178.29" x2="200.53" y2="176.83"/><line x1="225.3" y1="214.71" x2="225.3" y2="208.89"/><line x1="194.7" y1="127.29" x2="209.27" y2="118.54"/><line x1="258.81" y1="179.74" x2="258.81" y2="173.91"/><line x1="238.41" y1="118.54" x2="252.99" y2="127.29"/><line x1="258.81" y1="185.57" x2="258.81" y2="179.74"/><line x1="193.7" y1="121.46" x2="193.24" y2="118.54"/><line x1="276.3" y1="164.44" x2="276.3" y2="168.09"/><line x1="279.21" y1="164.44" x2="279.21" y2="168.09"/><line x1="276.3" y1="162.99" x2="274.84" y2="162.99"/><line x1="277.76" y1="162.99" x2="276.3" y2="162.99"/><line x1="276.3" y1="164.44" x2="277.76" y2="164.44"/><line x1="274.84" y1="162.99" x2="274.84" y2="164.44"/><line x1="274.84" y1="164.44" x2="276.3" y2="164.44"/><line x1="276.3" y1="162.99" x2="276.3" y2="164.44"/><line x1="276.3" y1="132.39" x2="276.3" y2="140.4"/><line x1="279.21" y1="132.39" x2="279.21" y2="140.4"/><line x1="274.84" y1="130.93" x2="274.84" y2="132.39"/><line x1="277.76" y1="130.93" x2="276.3" y2="130.93"/><line x1="276.3" y1="132.39" x2="277.76" y2="132.39"/><line x1="276.3" y1="130.93" x2="274.84" y2="130.93"/><line x1="276.3" y1="130.93" x2="276.3" y2="132.39"/><line x1="274.84" y1="132.39" x2="276.3" y2="132.39"/><line x1="276.3" y1="122.91" x2="276.3" y2="130.93"/><line x1="273.39" y1="118.54" x2="261.73" y2="118.54"/><line x1="276.3" y1="121.46" x2="276.3" y2="122.91"/><line x1="274.84" y1="122.91" x2="276.3" y2="122.91"/><line x1="200.53" y1="153.51" x2="200.53" y2="141.86"/><line x1="184.5" y1="141.86" x2="185.96" y2="141.86"/><line x1="255.9" y1="141.86" x2="255.9" y2="153.51"/><line x1="244.24" y1="141.86" x2="244.24" y2="153.51"/><line x1="218.01" y1="143.31" x2="218.01" y2="141.86"/><line x1="229.67" y1="141.86" x2="229.67" y2="143.31"/><line x1="229.67" y1="143.31" x2="229.67" y2="144.77"/><line x1="218.01" y1="146.23" x2="218.01" y2="143.31"/><line x1="252.99" y1="70.46" x2="255.9" y2="71.91"/><line x1="153.9" y1="159.34" x2="153.9" y2="153.51"/><line x1="156.81" y1="153.51" x2="156.81" y2="150.6"/><line x1="159.73" y1="153.51" x2="165.56" y2="153.51"/><line x1="150.99" y1="159.34" x2="150.99" y2="153.51"/><line x1="156.81" y1="165.17" x2="159.73" y2="165.17"/><line x1="165.56" y1="165.17" x2="165.56" y2="171"/><line x1="204.9" y1="179.74" x2="200.53" y2="178.29"/><line x1="153.9" y1="165.17" x2="153.9" y2="159.34"/><line x1="159.73" y1="173.91" x2="156.81" y2="173.91"/><line x1="159.73" y1="171" x2="165.56" y2="171"/><line x1="241.33" y1="182.57" x2="234.77" y2="181.2"/><line x1="159.73" y1="159.34" x2="159.73" y2="165.17"/><line x1="153.9" y1="171" x2="153.9" y2="165.17"/><line x1="150.99" y1="171" x2="150.99" y2="165.17"/><line x1="156.81" y1="171" x2="159.73" y2="171"/><line x1="247.16" y1="188.49" x2="232.59" y2="187.03"/><line x1="250.8" y1="168.81" x2="250.8" y2="158.61"/><line x1="258.09" y1="120" x2="258.81" y2="118.54"/><line x1="159.73" y1="150.6" x2="159.73" y2="153.51"/><line x1="156.81" y1="150.6" x2="159.73" y2="150.6"/><line x1="159.73" y1="159.34" x2="165.56" y2="159.34"/><line x1="254.44" y1="67.09" x2="255.9" y2="67.54"/><line x1="155.36" y1="185.57" x2="152.44" y2="185.57"/><line x1="150.99" y1="165.17" x2="150.99" y2="159.34"/><line x1="153.9" y1="165.17" x2="156.81" y2="165.17"/><line x1="247.16" y1="182.66" x2="244.97" y2="183.39"/><line x1="152.44" y1="185.21" x2="152.44" y2="185.57"/><line x1="150.99" y1="191.4" x2="150.99" y2="188.49"/><line x1="156.81" y1="189.94" x2="156.81" y2="187.03"/><line x1="218.01" y1="51.51" x2="218.01" y2="54.43"/><line x1="156.81" y1="173.91" x2="153.9" y2="173.91"/><line x1="155.36" y1="185.21" x2="152.44" y2="185.21"/><line x1="255.9" y1="67.54" x2="255.9" y2="71.91"/><line x1="258.81" y1="138.94" x2="258.09" y2="137.49"/><line x1="240.6" y1="168.81" x2="250.8" y2="168.81"/><line x1="159.73" y1="173.91" x2="165.56" y2="173.91"/><line x1="232.59" y1="220.54" x2="232.59" y2="219.09"/><line x1="226.76" y1="219.09" x2="223.84" y2="219.09"/><line x1="232.59" y1="219.09" x2="229.67" y2="219.09"/><line x1="226.76" y1="219.09" x2="226.76" y2="220.54"/><line x1="229.67" y1="219.09" x2="226.76" y2="219.09"/><line x1="229.67" y1="220.54" x2="229.67" y2="219.09"/><line x1="229.67" y1="220.54" x2="226.76" y2="220.54"/><line x1="247.16" y1="165.17" x2="247.16" y2="162.26"/><line x1="244.24" y1="165.17" x2="247.16" y2="165.17"/><line x1="244.24" y1="162.26" x2="244.24" y2="165.17"/><line x1="247.16" y1="162.26" x2="244.24" y2="162.26"/><line x1="242.79" y1="160.8" x2="242.79" y2="166.63"/><line x1="248.61" y1="160.8" x2="242.79" y2="160.8"/><line x1="248.61" y1="166.63" x2="248.61" y2="160.8"/><line x1="242.79" y1="166.63" x2="248.61" y2="166.63"/><line x1="156.81" y1="191.4" x2="156.81" y2="189.94"/><line x1="156.81" y1="191.4" x2="150.99" y2="191.4"/><line x1="183.04" y1="162.26" x2="183.04" y2="171"/><line x1="214.37" y1="180.47" x2="212.19" y2="179.74"/><line x1="212.19" y1="179.74" x2="212.19" y2="176.1"/><line x1="212.19" y1="176.1" x2="210.73" y2="173.91"/><line x1="210.73" y1="173.91" x2="215.83" y2="174.64"/><line x1="215.83" y1="174.64" x2="219.47" y2="177.56"/><line x1="219.47" y1="177.56" x2="218.01" y2="180.47"/><line x1="218.01" y1="180.47" x2="214.37" y2="180.47"/><line x1="229.67" y1="29.66" x2="232.86" y2="28.2"/><line x1="219.47" y1="60.26" x2="242.79" y2="60.26"/><line x1="255.17" y1="37.67" x2="248.61" y2="38.4"/><line x1="225.3" y1="208.89" x2="219.47" y2="208.89"/><line x1="236.96" y1="207.43" x2="234.04" y2="207.43"/><line x1="220.93" y1="51.51" x2="218.01" y2="51.51"/><line x1="203.44" y1="60.99" x2="206.36" y2="64.63"/><line x1="142.24" y1="173.91" x2="142.24" y2="138.94"/><line x1="156.81" y1="173.91" x2="156.81" y2="171"/><line x1="116.01" y1="127.29" x2="116.01" y2="121.46"/><line x1="150.99" y1="153.51" x2="153.9" y2="153.51"/><line x1="152.44" y1="185.57" x2="150.99" y2="185.57"/><line x1="240.6" y1="158.61" x2="240.6" y2="168.81"/><line x1="142.24" y1="176.83" x2="142.24" y2="173.91"/><line x1="150.99" y1="173.91" x2="150.99" y2="171"/><line x1="255.9" y1="169.54" x2="251.53" y2="176.83"/><line x1="150.99" y1="138.94" x2="150.99" y2="136.03"/><line x1="142.24" y1="138.94" x2="150.99" y2="138.94"/><line x1="150.26" y1="173.91" x2="150.26" y2="176.83"/><line x1="159.73" y1="153.51" x2="159.73" y2="159.34"/><line x1="180.13" y1="176.83" x2="180.13" y2="191.4"/><line x1="150.26" y1="173.91" x2="142.24" y2="173.91"/><line x1="177.21" y1="176.83" x2="180.13" y2="176.83"/><line x1="200.53" y1="191.4" x2="200.53" y2="178.29"/><line x1="150.99" y1="176.83" x2="153.9" y2="176.83"/><line x1="219.47" y1="200.14" x2="225.3" y2="207.43"/><line x1="250.8" y1="158.61" x2="240.6" y2="158.61"/><line x1="156.81" y1="165.17" x2="156.81" y2="159.34"/><line x1="255.9" y1="185.57" x2="247.16" y2="188.49"/><line x1="156.81" y1="159.34" x2="156.81" y2="153.51"/><line x1="209.27" y1="201.6" x2="219.47" y2="200.14"/><line x1="200.53" y1="191.4" x2="203.44" y2="194.31"/><line x1="255.9" y1="200.14" x2="255.9" y2="185.57"/><line x1="238.41" y1="201.6" x2="248.61" y2="198.69"/><line x1="225.3" y1="207.43" x2="219.47" y2="207.43"/><line x1="159.73" y1="165.17" x2="159.73" y2="171"/><line x1="155.36" y1="185.57" x2="155.36" y2="185.21"/><line x1="156.81" y1="153.51" x2="159.73" y2="153.51"/><line x1="248.61" y1="198.69" x2="255.9" y2="200.14"/><line x1="156.81" y1="189.94" x2="157.18" y2="189.94"/><line x1="156.81" y1="185.57" x2="155.36" y2="185.57"/><line x1="183.04" y1="150.6" x2="180.13" y2="150.6"/><line x1="180.13" y1="150.6" x2="180.13" y2="173.91"/><line x1="226.76" y1="182.66" x2="212.91" y2="183.39"/><line x1="244.97" y1="183.39" x2="241.33" y2="182.57"/><line x1="153.9" y1="147.69" x2="165.56" y2="147.69"/><line x1="165.56" y1="153.51" x2="165.56" y2="159.34"/><line x1="156.81" y1="159.34" x2="159.73" y2="159.34"/><line x1="150.99" y1="171" x2="153.9" y2="171"/><line x1="255.9" y1="171.73" x2="252.99" y2="176.83"/><line x1="212.91" y1="183.39" x2="200.53" y2="168.09"/><line x1="185.96" y1="141.86" x2="190.33" y2="141.86"/><line x1="153.9" y1="138.94" x2="174.3" y2="138.94"/><line x1="183.04" y1="130.2" x2="183.04" y2="150.6"/><line x1="153.9" y1="173.91" x2="153.9" y2="171"/><line x1="174.3" y1="138.94" x2="174.3" y2="130.2"/><line x1="174.3" y1="130.2" x2="183.04" y2="130.2"/><line x1="185.96" y1="137.49" x2="185.96" y2="141.86"/><line x1="165.56" y1="173.91" x2="165.56" y2="176.83"/><line x1="153.9" y1="171" x2="156.81" y2="171"/><line x1="237.69" y1="52.24" x2="233.31" y2="51.51"/><line x1="153.9" y1="159.34" x2="156.81" y2="159.34"/><line x1="150.99" y1="153.51" x2="150.99" y2="147.69"/><line x1="270.47" y1="200.14" x2="264.64" y2="200.14"/><line x1="270.47" y1="133.11" x2="270.47" y2="138.94"/><line x1="264.64" y1="138.94" x2="264.64" y2="133.11"/><line x1="270.47" y1="138.94" x2="264.64" y2="138.94"/><line x1="258.09" y1="137.49" x2="258.09" y2="120"/><line x1="269.01" y1="134.57" x2="269.01" y2="137.49"/><line x1="269.01" y1="137.49" x2="266.1" y2="137.49"/><line x1="266.1" y1="134.57" x2="269.01" y2="134.57"/><line x1="258.81" y1="138.94" x2="258.81" y2="121.46"/><line x1="275.57" y1="149.14" x2="275.57" y2="146.23"/><line x1="274.84" y1="149.14" x2="275.57" y2="149.14"/><line x1="274.84" y1="146.23" x2="274.84" y2="149.14"/><line x1="275.57" y1="146.23" x2="274.84" y2="146.23"/><line x1="254.44" y1="67.09" x2="252.99" y2="70.46"/><line x1="269.01" y1="166.63" x2="266.1" y2="166.63"/><line x1="266.1" y1="166.63" x2="266.1" y2="163.71"/><line x1="219.47" y1="214.71" x2="225.3" y2="214.71"/><line x1="269.01" y1="163.71" x2="269.01" y2="166.63"/><line x1="266.1" y1="137.49" x2="266.1" y2="134.57"/><line x1="258.81" y1="153.51" x2="258.81" y2="141.86"/><line x1="261.73" y1="118.54" x2="258.81" y2="118.54"/><line x1="258.81" y1="121.46" x2="258.81" y2="118.54"/><line x1="121.84" y1="194.31" x2="121.84" y2="188.49"/><line x1="133.5" y1="194.31" x2="127.67" y2="194.31"/><line x1="235.5" y1="36.94" x2="235.5" y2="38.4"/><line x1="235.5" y1="38.4" x2="241.33" y2="38.4"/><line x1="241.33" y1="38.4" x2="241.33" y2="36.94"/><line x1="241.33" y1="36.94" x2="235.5" y2="36.94"/><line x1="218.01" y1="54.43" x2="220.93" y2="54.43"/><line x1="304.71" y1="146.23" x2="304.71" y2="149.14"/><line x1="164.1" y1="87.94" x2="169.93" y2="86.49"/><line x1="150.26" y1="147.69" x2="150.26" y2="173.91"/><line x1="168.47" y1="80.66" x2="174.3" y2="79.2"/><line x1="142.24" y1="138.94" x2="142.24" y2="136.03"/><line x1="177.21" y1="71.91" x2="188.87" y2="76.29"/><line x1="165.56" y1="171" x2="165.56" y2="173.91"/><line x1="185.96" y1="69" x2="193.24" y2="69"/><line x1="282.13" y1="89.4" x2="285.04" y2="92.31"/><line x1="279.21" y1="96.69" x2="282.13" y2="103.97"/><line x1="279.21" y1="96.69" x2="282.13" y2="98.14"/><line x1="255.9" y1="73.37" x2="270.47" y2="74.83"/><line x1="270.47" y1="74.83" x2="282.13" y2="89.4"/><line x1="255.9" y1="71.91" x2="255.9" y2="73.37"/><line x1="245.7" y1="64.63" x2="254.44" y2="67.09"/><line x1="255.9" y1="67.54" x2="270.47" y2="68.54"/><line x1="258.81" y1="63.63" x2="261.73" y2="66.09"/><line x1="261.73" y1="66.09" x2="267.56" y2="65.9"/><line x1="252.99" y1="121.46" x2="241.33" y2="112.71"/><line x1="240.6" y1="114.17" x2="252.99" y2="122.91"/><line x1="207.09" y1="114.17" x2="222.39" y2="114.17"/><line x1="193.97" y1="122.91" x2="207.09" y2="114.17"/><line x1="222.39" y1="114.17" x2="222.39" y2="117.09"/><line x1="225.3" y1="114.17" x2="222.39" y2="114.17"/><line x1="225.3" y1="117.09" x2="225.3" y2="114.17"/><line x1="222.39" y1="117.09" x2="225.3" y2="117.09"/><line x1="225.3" y1="114.17" x2="240.6" y2="114.17"/><line x1="218.01" y1="150.6" x2="218.01" y2="149.14"/><line x1="229.67" y1="144.77" x2="229.67" y2="146.23"/><line x1="270.47" y1="168.09" x2="264.64" y2="168.09"/><line x1="273.39" y1="153.51" x2="273.39" y2="173.91"/><line x1="273.39" y1="129.11" x2="273.39" y2="153.51"/><line x1="261.73" y1="129.11" x2="273.39" y2="129.11"/><line x1="261.73" y1="153.51" x2="261.73" y2="129.11"/><line x1="261.73" y1="173.91" x2="261.73" y2="153.51"/><line x1="273.39" y1="153.51" x2="261.73" y2="153.51"/><line x1="261.73" y1="153.51" x2="258.81" y2="153.51"/><line x1="273.39" y1="173.91" x2="276.3" y2="173.91"/><line x1="184.5" y1="153.51" x2="184.5" y2="141.86"/><line x1="273.39" y1="175.74" x2="261.73" y2="175.74"/><line x1="261.73" y1="173.91" x2="273.39" y2="173.91"/><line x1="273.39" y1="173.91" x2="273.39" y2="175.74"/><line x1="270.47" y1="162.26" x2="270.47" y2="168.09"/><line x1="185.96" y1="153.51" x2="185.96" y2="141.86"/><line x1="264.64" y1="162.26" x2="270.47" y2="162.26"/><line x1="264.64" y1="133.11" x2="270.47" y2="133.11"/><line x1="139.33" y1="175.37" x2="133.5" y2="175.37"/><line x1="121.84" y1="147.69" x2="121.84" y2="176.83"/><line x1="241.33" y1="31.57" x2="248.61" y2="38.4"/><line x1="133.5" y1="175.37" x2="133.5" y2="115.63"/><line x1="127.67" y1="115.63" x2="133.5" y2="115.63"/><line x1="139.33" y1="181.2" x2="139.33" y2="175.37"/><line x1="116.01" y1="173.91" x2="118.93" y2="173.91"/><line x1="133.5" y1="181.2" x2="139.33" y2="181.2"/><line x1="118.93" y1="150.6" x2="120.39" y2="150.6"/><line x1="118.93" y1="173.91" x2="118.93" y2="150.6"/><line x1="120.39" y1="173.91" x2="118.93" y2="173.91"/><line x1="133.5" y1="175.37" x2="133.5" y2="181.2"/><line x1="116.01" y1="147.69" x2="121.84" y2="147.69"/><line x1="118.93" y1="150.6" x2="116.01" y2="150.6"/><line x1="120.39" y1="150.6" x2="120.39" y2="173.91"/><line x1="121.84" y1="176.83" x2="116.01" y2="176.83"/><line x1="242.79" y1="60.26" x2="245.7" y2="64.63"/><line x1="219.47" y1="60.26" x2="215.1" y2="53.15"/><line x1="150.99" y1="147.69" x2="150.26" y2="147.69"/><line x1="150.99" y1="147.69" x2="153.9" y2="147.69"/><line x1="153.9" y1="153.51" x2="153.9" y2="147.69"/><line x1="140.79" y1="136.03" x2="140.79" y2="176.83"/><line x1="212.19" y1="188.49" x2="204.9" y2="179.74"/><line x1="234.04" y1="207.43" x2="225.3" y2="207.43"/><line x1="234.04" y1="207.43" x2="238.41" y2="201.6"/><line x1="232.59" y1="187.03" x2="212.19" y2="188.49"/><line x1="127.67" y1="115.63" x2="127.67" y2="194.31"/><line x1="133.5" y1="194.31" x2="133.5" y2="181.2"/><line x1="121.84" y1="130.2" x2="116.01" y2="130.2"/><line x1="116.01" y1="136.03" x2="121.84" y2="136.03"/><line x1="121.84" y1="136.03" x2="121.84" y2="130.2"/><line x1="124.76" y1="194.31" x2="124.76" y2="115.63"/><line x1="130.59" y1="141.86" x2="130.59" y2="135.48"/><line x1="130.59" y1="159.34" x2="130.59" y2="152.97"/><line x1="130.59" y1="176.83" x2="130.59" y2="170.45"/><line x1="134.96" y1="133.11" x2="140.79" y2="133.11"/><line x1="140.79" y1="127.29" x2="134.96" y2="127.29"/><line x1="134.96" y1="127.29" x2="134.96" y2="133.11"/><line x1="215.1" y1="53.15" x2="215.1" y2="44.23"/><line x1="215.1" y1="44.23" x2="216.56" y2="39.86"/><line x1="215.1" y1="44.23" x2="211.37" y2="47.14"/><line x1="215.1" y1="38.4" x2="216.56" y2="34.03"/><line x1="215.1" y1="38.4" x2="210.18" y2="36.94"/><line x1="216.56" y1="34.03" x2="220.93" y2="29.66"/><line x1="216.56" y1="34.03" x2="212.55" y2="32.57"/><line x1="216.56" y1="39.86" x2="215.1" y2="38.4"/><line x1="247.16" y1="48.6" x2="246.7" y2="51.51"/><line x1="246.7" y1="51.51" x2="245.97" y2="55.89"/><line x1="245.97" y1="55.89" x2="242.79" y2="60.26"/><line x1="251.53" y1="48.33" x2="247.16" y2="48.6"/><line x1="245.7" y1="44.23" x2="247.16" y2="48.6"/><line x1="248.61" y1="38.4" x2="247.16" y2="43.77"/><line x1="247.16" y1="43.77" x2="245.7" y2="44.23"/><line x1="250.07" y1="42.77" x2="247.16" y2="43.77"/><line x1="254.44" y1="44.23" x2="250.07" y2="42.77"/><line x1="246.7" y1="51.51" x2="248.25" y2="52.97"/><line x1="241.33" y1="31.57" x2="241.33" y2="28.2"/><line x1="220.93" y1="29.66" x2="229.67" y2="29.66"/><line x1="240.96" y1="31.48" x2="241.33" y2="31.57"/><line x1="220.93" y1="43.5" x2="222.39" y2="43.5"/><line x1="222.39" y1="43.5" x2="222.39" y2="37.67"/><line x1="222.39" y1="37.67" x2="220.93" y2="37.67"/><line x1="220.93" y1="37.67" x2="220.93" y2="43.5"/><line x1="222.66" y1="41.04" x2="223.66" y2="42.13"/><line x1="223.66" y1="42.13" x2="227.76" y2="37.94"/><line x1="227.76" y1="37.94" x2="226.76" y2="36.94"/><line x1="226.76" y1="36.94" x2="222.66" y2="41.04"/><line x1="218.74" y1="28.2" x2="214.1" y2="29.66"/><line x1="220.93" y1="29.66" x2="214.1" y2="29.66"/><line x1="258.09" y1="38.4" x2="255.17" y2="37.67"/><line x1="256.63" y1="41.31" x2="258.09" y2="38.4"/><line x1="256.63" y1="41.31" x2="248.61" y2="38.4"/><line x1="241.33" y1="28.2" x2="232.86" y2="28.2"/><line x1="232.86" y1="28.2" x2="240.96" y2="31.48"/><line x1="231.13" y1="42.77" x2="235.5" y2="39.86"/><line x1="229.67" y1="48.6" x2="231.13" y2="42.77"/><line x1="232.59" y1="50.06" x2="229.67" y2="48.6"/><line x1="236.96" y1="51.51" x2="232.59" y2="50.06"/><line x1="238.41" y1="48.6" x2="236.96" y2="51.51"/><line x1="241.33" y1="45.69" x2="238.41" y2="48.6"/><line x1="239.87" y1="41.31" x2="241.33" y2="45.69"/><line x1="235.5" y1="39.86" x2="239.87" y2="41.31"/><line x1="234.77" y1="39.13" x2="240.6" y2="40.59"/><line x1="230.4" y1="42.04" x2="234.77" y2="39.13"/><line x1="240.6" y1="40.59" x2="242.79" y2="45.69"/><line x1="242.79" y1="45.69" x2="239.14" y2="48.6"/><line x1="239.14" y1="48.6" x2="237.69" y2="52.24"/></g><g stroke="#d3b15b" stroke-width="2.4" stroke-linecap="round"><line x1="183.04" y1="162.26" x2="185.96" y2="162.26"/><line x1="282.13" y1="103.97" x2="276.3" y2="103.97"/><line x1="282.13" y1="98.14" x2="282.13" y2="103.97"/><line x1="282.13" y1="77.74" x2="285.04" y2="92.31"/><line x1="276.3" y1="69" x2="282.13" y2="77.74"/><line x1="267.56" y1="65.9" x2="270.47" y2="68.54"/><line x1="245.97" y1="55.89" x2="248.61" y2="57.34"/><line x1="211.37" y1="47.14" x2="207.81" y2="42.04"/><line x1="216.56" y1="66.09" x2="219.47" y2="60.26"/><line x1="258.09" y1="118.54" x2="258.81" y2="118.54"/><line x1="252.99" y1="156.43" x2="252.99" y2="169.54"/><line x1="238.41" y1="138.94" x2="232.59" y2="138.94"/><line x1="276.3" y1="118.54" x2="276.3" y2="121.46"/><line x1="276.3" y1="103.97" x2="276.3" y2="118.54"/><line x1="258.81" y1="118.54" x2="258.81" y2="117.09"/><line x1="116.01" y1="121.46" x2="116.01" y2="115.63"/><line x1="257.36" y1="138.94" x2="257.36" y2="118.54"/><line x1="257.36" y1="118.54" x2="258.09" y2="118.54"/><line x1="252.99" y1="127.29" x2="252.99" y2="133.11"/><line x1="252.99" y1="133.11" x2="247.16" y2="138.94"/><line x1="247.16" y1="138.94" x2="238.41" y2="138.94"/><line x1="194.7" y1="133.11" x2="194.7" y2="127.29"/><line x1="200.53" y1="138.94" x2="194.7" y2="133.11"/><line x1="209.27" y1="138.94" x2="200.53" y2="138.94"/><line x1="218.01" y1="156.43" x2="218.01" y2="153.51"/><line x1="229.67" y1="138.94" x2="229.67" y2="141.86"/><line x1="164.1" y1="109.8" x2="164.1" y2="102.51"/><line x1="164.1" y1="127.29" x2="164.1" y2="109.8"/><line x1="194.7" y1="127.29" x2="185.96" y2="127.29"/><line x1="164.1" y1="98.14" x2="164.1" y2="87.94"/><line x1="164.1" y1="102.51" x2="164.1" y2="98.14"/><line x1="215.1" y1="138.94" x2="209.27" y2="138.94"/><line x1="232.59" y1="138.94" x2="229.67" y2="138.94"/><line x1="218.01" y1="138.94" x2="215.1" y2="138.94"/><line x1="232.59" y1="141.86" x2="244.24" y2="141.86"/><line x1="247.16" y1="141.86" x2="255.9" y2="141.86"/><line x1="229.67" y1="153.51" x2="229.67" y2="156.43"/><line x1="258.81" y1="141.86" x2="258.81" y2="138.94"/><line x1="171.39" y1="127.29" x2="164.1" y2="127.29"/><line x1="197.61" y1="153.51" x2="185.96" y2="153.51"/><line x1="218.01" y1="141.86" x2="218.01" y2="138.94"/><line x1="185.96" y1="127.29" x2="185.96" y2="137.49"/><line x1="215.1" y1="153.51" x2="200.53" y2="153.51"/><line x1="218.01" y1="153.51" x2="215.1" y2="153.51"/><line x1="232.59" y1="153.51" x2="229.67" y2="153.51"/><line x1="215.1" y1="156.43" x2="218.01" y2="156.43"/><line x1="229.67" y1="156.43" x2="232.59" y2="156.43"/><line x1="203.44" y1="157.89" x2="209.27" y2="156.43"/><line x1="252.99" y1="103.97" x2="252.99" y2="121.46"/><line x1="212.19" y1="58.8" x2="206.36" y2="64.63"/><line x1="114.56" y1="127.29" x2="114.56" y2="121.46"/><line x1="116.01" y1="127.29" x2="114.56" y2="127.29"/><line x1="150.99" y1="136.03" x2="152.44" y2="136.03"/><line x1="171.39" y1="136.03" x2="171.39" y2="127.29"/><line x1="152.44" y1="136.03" x2="171.39" y2="136.03"/><line x1="171.39" y1="191.4" x2="156.81" y2="191.4"/><line x1="140.79" y1="136.03" x2="142.24" y2="136.03"/><line x1="116.01" y1="194.31" x2="116.01" y2="188.49"/><line x1="188.87" y1="191.4" x2="185.96" y2="191.4"/><line x1="183.04" y1="191.4" x2="180.13" y2="191.4"/><line x1="258.81" y1="117.09" x2="258.81" y2="103.97"/><line x1="232.59" y1="156.43" x2="252.99" y2="156.43"/><line x1="252.99" y1="169.54" x2="255.9" y2="169.54"/><line x1="255.9" y1="203.06" x2="238.41" y2="207.43"/><line x1="200.53" y1="203.06" x2="200.53" y2="191.4"/><line x1="209.27" y1="156.43" x2="215.1" y2="156.43"/><line x1="200.53" y1="168.09" x2="196.89" y2="168.09"/><line x1="199.07" y1="162.26" x2="203.44" y2="157.89"/><line x1="196.89" y1="168.09" x2="199.07" y2="162.26"/><line x1="258.81" y1="169.54" x2="258.81" y2="156.43"/><line x1="219.47" y1="207.43" x2="218.01" y2="207.43"/><line x1="191.79" y1="176.83" x2="200.53" y2="176.83"/><line x1="200.53" y1="191.4" x2="191.79" y2="191.4"/><line x1="200.53" y1="176.83" x2="200.53" y2="170.27"/><line x1="177.21" y1="191.4" x2="171.39" y2="191.4"/><line x1="188.87" y1="176.83" x2="191.79" y2="176.83"/><line x1="191.79" y1="191.4" x2="188.87" y2="191.4"/><line x1="185.96" y1="176.83" x2="188.87" y2="176.83"/><line x1="183.04" y1="176.83" x2="184.5" y2="176.83"/><line x1="185.96" y1="191.4" x2="183.04" y2="191.4"/><line x1="276.3" y1="168.09" x2="276.3" y2="173.91"/><line x1="255.9" y1="200.14" x2="255.9" y2="203.06"/><line x1="276.3" y1="173.91" x2="276.3" y2="179.74"/><line x1="276.3" y1="185.57" x2="276.3" y2="200.14"/><line x1="276.3" y1="200.14" x2="270.47" y2="200.14"/><line x1="258.81" y1="200.14" x2="255.9" y2="200.14"/><line x1="255.9" y1="169.54" x2="256.63" y2="184.84"/><line x1="279.21" y1="168.09" x2="276.3" y2="168.09"/><line x1="282.13" y1="150.6" x2="280.67" y2="150.6"/><line x1="280.67" y1="168.09" x2="279.21" y2="168.09"/><line x1="280.67" y1="150.6" x2="280.67" y2="168.09"/><line x1="285.04" y1="150.6" x2="283.59" y2="150.6"/><line x1="279.21" y1="121.46" x2="280.67" y2="121.46"/><line x1="280.67" y1="121.46" x2="280.67" y2="144.77"/><line x1="280.67" y1="144.77" x2="282.13" y2="144.77"/><line x1="282.13" y1="144.77" x2="282.86" y2="144.77"/><line x1="283.59" y1="150.6" x2="282.86" y2="150.6"/><line x1="283.59" y1="144.77" x2="285.04" y2="144.77"/><line x1="305.44" y1="144.77" x2="304.71" y2="144.77"/><line x1="285.04" y1="144.77" x2="290.87" y2="138.94"/><line x1="290.87" y1="138.94" x2="299.61" y2="138.94"/><line x1="299.61" y1="138.94" x2="305.44" y2="144.77"/><line x1="290.87" y1="156.43" x2="285.04" y2="150.6"/><line x1="299.61" y1="156.43" x2="290.87" y2="156.43"/><line x1="305.44" y1="150.6" x2="299.61" y2="156.43"/><line x1="304.71" y1="150.6" x2="305.44" y2="150.6"/><line x1="279.21" y1="141.86" x2="279.21" y2="140.4"/><line x1="279.21" y1="140.4" x2="277.76" y2="140.4"/><line x1="279.21" y1="153.51" x2="277.76" y2="153.51"/><line x1="277.76" y1="140.4" x2="277.76" y2="141.86"/><line x1="277.76" y1="141.86" x2="279.21" y2="141.86"/><line x1="277.76" y1="154.97" x2="279.21" y2="154.97"/><line x1="279.21" y1="154.97" x2="279.21" y2="153.51"/><line x1="277.76" y1="153.51" x2="277.76" y2="154.97"/><line x1="304.71" y1="144.77" x2="304.71" y2="146.23"/><line x1="252.99" y1="122.91" x2="252.99" y2="127.29"/><line x1="279.21" y1="162.99" x2="277.76" y2="162.99"/><line x1="279.21" y1="164.44" x2="279.21" y2="162.99"/><line x1="277.76" y1="164.44" x2="279.21" y2="164.44"/><line x1="277.76" y1="162.99" x2="277.76" y2="164.44"/><line x1="279.21" y1="130.93" x2="277.76" y2="130.93"/><line x1="279.21" y1="132.39" x2="279.21" y2="130.93"/><line x1="277.76" y1="132.39" x2="279.21" y2="132.39"/><line x1="277.76" y1="130.93" x2="277.76" y2="132.39"/><line x1="277.76" y1="121.46" x2="277.76" y2="122.91"/><line x1="277.76" y1="122.91" x2="279.21" y2="122.91"/><line x1="279.21" y1="122.91" x2="279.21" y2="121.46"/><line x1="276.3" y1="121.46" x2="277.76" y2="121.46"/><line x1="200.53" y1="141.86" x2="215.1" y2="141.86"/><line x1="244.24" y1="153.51" x2="232.59" y2="153.51"/><line x1="255.9" y1="153.51" x2="247.16" y2="153.51"/><line x1="197.61" y1="141.86" x2="200.53" y2="141.86"/><line x1="244.24" y1="141.86" x2="247.16" y2="141.86"/><line x1="190.33" y1="141.86" x2="197.61" y2="141.86"/><line x1="247.16" y1="153.51" x2="244.24" y2="153.51"/><line x1="200.53" y1="153.51" x2="197.61" y2="153.51"/><line x1="229.67" y1="141.86" x2="232.59" y2="141.86"/><line x1="215.1" y1="141.86" x2="218.01" y2="141.86"/><line x1="257.36" y1="153.51" x2="255.9" y2="153.51"/><line x1="256.63" y1="184.84" x2="258.81" y2="169.54"/><line x1="200.53" y1="170.27" x2="200.53" y2="168.09"/><line x1="229.67" y1="222" x2="226.76" y2="222"/><line x1="223.84" y1="220.54" x2="219.47" y2="220.54"/><line x1="236.96" y1="207.43" x2="236.96" y2="220.54"/><line x1="226.76" y1="220.54" x2="223.84" y2="220.54"/><line x1="232.59" y1="220.54" x2="229.67" y2="220.54"/><line x1="226.76" y1="222" x2="226.76" y2="220.54"/><line x1="229.67" y1="220.54" x2="229.67" y2="222"/><line x1="148.07" y1="188.49" x2="150.99" y2="188.49"/><line x1="156.81" y1="191.4" x2="156.81" y2="194.31"/><line x1="156.81" y1="194.31" x2="148.07" y2="194.31"/><line x1="148.07" y1="194.31" x2="148.07" y2="188.49"/><line x1="185.96" y1="171" x2="183.04" y2="171"/><line x1="183.04" y1="153.51" x2="183.04" y2="162.26"/><line x1="185.96" y1="162.26" x2="185.96" y2="171"/><line x1="183.04" y1="171" x2="183.04" y2="176.83"/><line x1="219.47" y1="220.54" x2="219.47" y2="214.71"/><line x1="236.96" y1="220.54" x2="232.59" y2="220.54"/><line x1="197.61" y1="63.17" x2="200.53" y2="57.34"/><line x1="206.36" y1="64.63" x2="216.56" y2="66.09"/><line x1="185.96" y1="69" x2="197.61" y2="63.17"/><line x1="200.53" y1="57.34" x2="203.44" y2="60.99"/><line x1="219.47" y1="208.89" x2="219.47" y2="207.43"/><line x1="241.33" y1="31.57" x2="258.81" y2="38.4"/><line x1="114.56" y1="121.46" x2="116.01" y2="121.46"/><line x1="150.99" y1="188.49" x2="150.99" y2="185.57"/><line x1="219.47" y1="60.26" x2="212.19" y2="58.8"/><line x1="121.84" y1="194.31" x2="116.01" y2="194.31"/><line x1="190.33" y1="140.4" x2="190.33" y2="141.86"/><line x1="177.21" y1="71.91" x2="185.96" y2="69"/><line x1="168.47" y1="80.66" x2="177.21" y2="71.91"/><line x1="258.09" y1="138.94" x2="257.36" y2="138.94"/><line x1="258.81" y1="156.43" x2="258.81" y2="153.51"/><line x1="238.41" y1="207.43" x2="236.96" y2="207.43"/><line x1="218.01" y1="207.43" x2="200.53" y2="203.06"/><line x1="150.99" y1="178.29" x2="150.99" y2="176.83"/><line x1="184.5" y1="176.83" x2="185.96" y2="176.83"/><line x1="142.24" y1="136.03" x2="150.99" y2="136.03"/><line x1="150.26" y1="176.83" x2="142.24" y2="176.83"/><line x1="257.36" y1="141.86" x2="258.81" y2="141.86"/><line x1="180.13" y1="191.4" x2="177.21" y2="191.4"/><line x1="187.41" y1="137.49" x2="190.33" y2="137.49"/><line x1="190.33" y1="137.49" x2="190.33" y2="140.4"/><line x1="185.96" y1="137.49" x2="187.41" y2="137.49"/><line x1="258.81" y1="103.97" x2="252.99" y2="103.97"/><line x1="282.86" y1="150.6" x2="282.13" y2="150.6"/><line x1="282.86" y1="144.77" x2="283.59" y2="144.77"/><line x1="264.64" y1="200.14" x2="258.81" y2="200.14"/><line x1="264.64" y1="200.87" x2="264.64" y2="200.14"/><line x1="270.47" y1="200.14" x2="270.47" y2="200.87"/><line x1="270.47" y1="200.87" x2="264.64" y2="200.87"/><line x1="258.81" y1="138.94" x2="258.09" y2="138.94"/><line x1="219.47" y1="214.71" x2="219.47" y2="208.89"/><line x1="258.81" y1="153.51" x2="257.36" y2="153.51"/><line x1="255.9" y1="141.86" x2="257.36" y2="141.86"/><line x1="127.67" y1="197.23" x2="127.67" y2="194.31"/><line x1="150.99" y1="185.57" x2="150.99" y2="178.29"/><line x1="133.5" y1="194.31" x2="133.5" y2="197.23"/><line x1="304.71" y1="146.23" x2="305.44" y2="146.23"/><line x1="305.44" y1="149.14" x2="304.71" y2="149.14"/><line x1="305.44" y1="146.23" x2="305.44" y2="149.14"/><line x1="304.71" y1="149.14" x2="304.71" y2="150.6"/><line x1="164.1" y1="87.94" x2="168.47" y2="80.66"/><line x1="285.04" y1="92.31" x2="282.13" y2="98.14"/><line x1="270.47" y1="68.54" x2="276.3" y2="69"/><line x1="245.7" y1="64.63" x2="258.81" y2="63.63"/><line x1="258.81" y1="63.63" x2="264.64" y2="63.17"/><line x1="264.64" y1="63.17" x2="267.56" y2="65.9"/><line x1="252.99" y1="121.46" x2="252.99" y2="122.91"/><line x1="276.3" y1="179.74" x2="276.3" y2="185.57"/><line x1="184.5" y1="153.51" x2="183.04" y2="153.51"/><line x1="185.96" y1="153.51" x2="184.5" y2="153.51"/><line x1="214.1" y1="29.66" x2="220.93" y2="25.29"/><line x1="116.01" y1="147.69" x2="116.01" y2="136.03"/><line x1="116.01" y1="176.83" x2="116.01" y2="173.91"/><line x1="127.67" y1="115.63" x2="127.67" y2="112.71"/><line x1="133.5" y1="112.71" x2="133.5" y2="115.63"/><line x1="248.61" y1="57.34" x2="245.7" y2="64.63"/><line x1="116.01" y1="150.6" x2="116.01" y2="147.69"/><line x1="116.01" y1="173.91" x2="116.01" y2="150.6"/><line x1="256.63" y1="41.31" x2="254.44" y2="44.23"/><line x1="203.44" y1="60.99" x2="215.1" y2="53.15"/><line x1="140.79" y1="115.63" x2="140.79" y2="127.29"/><line x1="142.24" y1="176.83" x2="140.79" y2="176.83"/><line x1="150.99" y1="176.83" x2="150.26" y2="176.83"/><line x1="116.01" y1="115.63" x2="124.76" y2="115.63"/><line x1="116.01" y1="188.49" x2="116.01" y2="176.83"/><line x1="140.79" y1="194.31" x2="133.5" y2="194.31"/><line x1="140.79" y1="176.83" x2="140.79" y2="194.31"/><line x1="127.67" y1="194.31" x2="124.76" y2="194.31"/><line x1="133.5" y1="197.23" x2="127.67" y2="197.23"/><line x1="127.67" y1="112.71" x2="133.5" y2="112.71"/><line x1="133.5" y1="115.63" x2="140.79" y2="115.63"/><line x1="116.01" y1="136.03" x2="116.01" y2="130.2"/><line x1="116.01" y1="130.2" x2="116.01" y2="127.29"/><line x1="124.76" y1="115.63" x2="127.67" y2="115.63"/><line x1="124.76" y1="194.31" x2="121.84" y2="194.31"/><line x1="140.79" y1="127.29" x2="140.79" y2="133.11"/><line x1="140.79" y1="133.11" x2="140.79" y2="136.03"/><line x1="215.1" y1="53.15" x2="211.37" y2="47.14"/><line x1="220.93" y1="25.29" x2="232.86" y2="28.2"/><line x1="207.81" y1="42.04" x2="210.18" y2="36.94"/><line x1="210.18" y1="36.94" x2="212.55" y2="32.57"/><line x1="212.55" y1="32.57" x2="214.1" y2="29.66"/><line x1="251.53" y1="48.33" x2="248.25" y2="52.97"/><line x1="258.81" y1="38.4" x2="256.63" y2="41.31"/><line x1="254.44" y1="44.23" x2="251.53" y2="48.33"/><line x1="248.25" y1="52.97" x2="245.97" y2="55.89"/><line x1="232.86" y1="28.2" x2="248.61" y2="19.46"/><line x1="248.61" y1="26.74" x2="241.33" y2="31.57"/><line x1="260.27" y1="28.2" x2="248.61" y2="26.74"/><line x1="260.27" y1="18" x2="260.27" y2="28.2"/><line x1="248.61" y1="19.46" x2="260.27" y2="18"/></g><g opacity="0.95"><circle cx="235.5" cy="69" r="3.2" fill="#b7493c"/><circle cx="220.93" cy="62.44" r="2.2" fill="#d3b15b"/><circle cx="245.7" cy="163.71" r="2.2" fill="#d3b15b"/><circle cx="202.71" cy="174.64" r="3.2" fill="#b7493c"/><circle cx="220.93" cy="204.51" r="2.2" fill="#d3b15b"/><circle cx="293.79" cy="147.69" r="2.2" fill="#d3b15b"/><circle cx="223.84" cy="115.63" r="2.2" fill="#d3b15b"/><circle cx="279.21" cy="101.79" r="2.2" fill="#d3b15b"/><circle cx="184.5" cy="166.63" r="2.2" fill="#d3b15b"/><circle cx="188.87" cy="121.46" r="2.2" fill="#d3b15b"/><circle cx="180.13" cy="173.91" r="2.2" fill="#d3b15b"/><circle cx="267.56" cy="147.69" r="2.2" fill="#d3b15b"/><circle cx="177.21" cy="82.11" r="3.2" fill="#b7493c"/><circle cx="143.7" cy="137.49" r="3.2" fill="#b7493c"/><circle cx="279.21" cy="147.69" r="3.2" fill="#b7493c"/><circle cx="273.39" cy="197.23" r="3.2" fill="#b7493c"/><circle cx="277.76" cy="101.06" r="3.2" fill="#b7493c"/><circle cx="254.44" cy="175.37" r="2.2" fill="#d3b15b"/><circle cx="146.61" cy="173.91" r="2.2" fill="#d3b15b"/><circle cx="273.39" cy="156.43" r="2.2" fill="#d3b15b"/><circle cx="273.39" cy="162.26" r="2.2" fill="#d3b15b"/><circle cx="273.39" cy="168.09" r="2.2" fill="#d3b15b"/><circle cx="273.39" cy="138.94" r="2.2" fill="#d3b15b"/><circle cx="273.39" cy="133.11" r="2.2" fill="#d3b15b"/><circle cx="273.39" cy="127.29" r="2.2" fill="#d3b15b"/><circle cx="250.07" cy="203.06" r="2.2" fill="#d3b15b"/><circle cx="238.41" cy="205.97" r="2.2" fill="#d3b15b"/><circle cx="218.01" cy="205.97" r="2.2" fill="#d3b15b"/><circle cx="206.36" cy="203.06" r="2.2" fill="#d3b15b"/><circle cx="212.19" cy="204.51" r="2.2" fill="#d3b15b"/><circle cx="244.24" cy="204.51" r="2.2" fill="#d3b15b"/><circle cx="164.1" cy="173.91" r="2.2" fill="#d3b15b"/><circle cx="164.1" cy="168.09" r="2.2" fill="#d3b15b"/><circle cx="164.1" cy="162.26" r="2.2" fill="#d3b15b"/><circle cx="164.1" cy="156.43" r="2.2" fill="#d3b15b"/><circle cx="164.1" cy="150.6" r="2.2" fill="#d3b15b"/><circle cx="152.44" cy="150.6" r="2.2" fill="#d3b15b"/><circle cx="152.44" cy="156.43" r="2.2" fill="#d3b15b"/><circle cx="152.44" cy="162.26" r="2.2" fill="#d3b15b"/><circle cx="152.44" cy="168.09" r="2.2" fill="#d3b15b"/><circle cx="152.44" cy="173.91" r="2.2" fill="#d3b15b"/><circle cx="253.71" cy="73.37" r="2.2" fill="#d3b15b"/><circle cx="245.7" cy="66.09" r="2.2" fill="#d3b15b"/><circle cx="206.36" cy="66.09" r="2.2" fill="#d3b15b"/><circle cx="194.7" cy="71.91" r="2.2" fill="#d3b15b"/><circle cx="185.96" cy="77.74" r="2.2" fill="#d3b15b"/><circle cx="266.1" cy="77.74" r="2.2" fill="#d3b15b"/><circle cx="229.67" cy="69" r="3.2" fill="#b7493c"/><circle cx="223.84" cy="69" r="3.2" fill="#b7493c"/><circle cx="241.33" cy="69" r="3.2" fill="#b7493c"/><circle cx="290.87" cy="143.31" r="2.2" fill="#d3b15b"/><circle cx="299.61" cy="143.31" r="2.2" fill="#d3b15b"/><circle cx="299.61" cy="152.06" r="2.2" fill="#d3b15b"/><circle cx="290.87" cy="152.06" r="2.2" fill="#d3b15b"/><circle cx="301.07" cy="147.69" r="2.2" fill="#d3b15b"/><circle cx="144.43" cy="138.21" r="2.2" fill="#d3b15b"/><circle cx="145.89" cy="171" r="2.2" fill="#d3b15b"/><circle cx="277.76" cy="147.69" r="2.2" fill="#d3b15b"/><circle cx="203.44" cy="168.09" r="2.2" fill="#d3b15b"/><circle cx="250.07" cy="115.63" r="2.2" fill="#d3b15b"/><circle cx="196.16" cy="115.63" r="2.2" fill="#d3b15b"/><circle cx="244.24" cy="133.11" r="2.2" fill="#d3b15b"/><circle cx="203.44" cy="133.11" r="2.2" fill="#d3b15b"/><circle cx="260.27" cy="106.89" r="2.2" fill="#d3b15b"/><circle cx="279.94" cy="127.29" r="2.2" fill="#d3b15b"/><circle cx="254.44" cy="179.74" r="2.2" fill="#d3b15b"/><circle cx="178.67" cy="131.66" r="2.2" fill="#d3b15b"/><circle cx="204.9" cy="165.17" r="2.2" fill="#d3b15b"/></g></svg>