<svg xmlns="http://www.w3.org/2000/svg" viewBox="0 0 420 240" role="img"><rect width="100%" height="100%" fill="#070706"/><g stroke="#5e5a4f" stroke-width="1.6" stroke-linecap="round"><line x1="269.2" y1="198.8" x2="269.2" y2="218"/><line x1="138" y1="109.2" x2="144.4" y2="96.4"/><line x1="293.2" y1="216.4" x2="293.2" y2="206.8"/><line x1="266" y1="202" x2="266" y2="218"/><line x1="326.8" y1="179.6" x2="346" y2="189.2"/><line x1="256.4" y1="195.6" x2="250" y2="195.6"/><line x1="290" y1="115.6" x2="309.2" y2="115.6"/><line x1="301.2" y1="35.6" x2="336.4" y2="35.6"/><line x1="234" y1="138" x2="230.8" y2="138"/><line x1="254.8" y1="61.2" x2="254.8" y2="42"/><line x1="341.2" y1="30.8" x2="338" y2="37.2"/><line x1="208.4" y1="205.2" x2="182.8" y2="205.2"/><line x1="354" y1="53.2" x2="360.4" y2="50"/><line x1="355.6" y1="54.8" x2="362" y2="51.6"/><line x1="291.6" y1="195.6" x2="291.6" y2="192.4"/><line x1="338" y1="37.2" x2="354" y2="53.2"/><line x1="349.2" y1="90" x2="323.6" y2="90"/><line x1="346" y1="102.8" x2="326.8" y2="102.8"/><line x1="262.8" y1="109.2" x2="266" y2="106"/><line x1="250" y1="109.2" x2="262.8" y2="109.2"/><line x1="150.8" y1="112.4" x2="157.2" y2="109.2"/><line x1="224.4" y1="86.8" x2="224.4" y2="70.8"/><line x1="234" y1="106" x2="246.8" y2="106"/><line x1="339.6" y1="29.2" x2="336.4" y2="35.6"/><line x1="254" y1="167.6" x2="258" y2="158"/><line x1="214.8" y1="195.6" x2="214.8" y2="202"/><line x1="144.4" y1="125.2" x2="144.4" y2="157.2"/><line x1="234" y1="163.6" x2="230.8" y2="163.6"/><line x1="346" y1="163.6" x2="326.8" y2="163.6"/><line x1="330" y1="131.6" x2="326.8" y2="109.2"/><line x1="320.4" y1="182.8" x2="320.4" y2="205.2"/><line x1="358.8" y1="138" x2="355.6" y2="163.6"/><line x1="262.8" y1="202" x2="262.8" y2="218"/><line x1="150.8" y1="112.4" x2="144.4" y2="125.2"/><line x1="125.2" y1="58" x2="125.2" y2="77.2"/><line x1="234" y1="170" x2="234" y2="163.6"/><line x1="202" y1="29.2" x2="214.8" y2="26"/><line x1="283.6" y1="206.8" x2="283.6" y2="216.4"/><line x1="253.2" y1="42" x2="253.2" y2="61.2"/><line x1="282" y1="74" x2="282" y2="102.8"/><line x1="288.4" y1="102.8" x2="288.4" y2="74"/><line x1="349.2" y1="96.4" x2="323.6" y2="96.4"/><line x1="301.2" y1="157.2" x2="298" y2="160.4"/><line x1="214.8" y1="93.2" x2="202" y2="90"/><line x1="307.6" y1="207.6" x2="314" y2="207.6"/><line x1="304.4" y1="70.8" x2="288.4" y2="70.8"/><line x1="131.6" y1="112.4" x2="138" y2="109.2"/><line x1="240.4" y1="30.8" x2="245.2" y2="35.6"/><line x1="157.2" y1="77.2" x2="170" y2="70.8"/><line x1="314" y1="206.8" x2="307.6" y2="206.8"/><line x1="326.8" y1="109.2" x2="346" y2="109.2"/><line x1="290.8" y1="141.2" x2="292.4" y2="148.4"/><line x1="189.2" y1="90" x2="202" y2="90"/><line x1="354" y1="53.2" x2="355.6" y2="54.8"/><line x1="317.2" y1="182.8" x2="317.2" y2="186"/><line x1="221.2" y1="170" x2="221.2" y2="189.2"/><line x1="336.4" y1="35.6" x2="338" y2="37.2"/><line x1="294.8" y1="202" x2="278.8" y2="202"/><line x1="157.2" y1="42" x2="163.6" y2="42"/><line x1="310.8" y1="64.4" x2="288.4" y2="64.4"/><line x1="310.8" y1="80.4" x2="310.8" y2="64.4"/><line x1="355.6" y1="54.8" x2="355.6" y2="74"/><line x1="317.2" y1="90" x2="317.2" y2="83.6"/><line x1="157.2" y1="109.2" x2="170" y2="96.4"/><line x1="170" y1="96.4" x2="189.2" y2="90"/><line x1="131.6" y1="77.2" x2="131.6" y2="64.4"/><line x1="317.2" y1="186" x2="314" y2="192.4"/><line x1="307.6" y1="205.2" x2="314" y2="205.2"/><line x1="317.2" y1="157.2" x2="314" y2="157.2"/><line x1="250" y1="198" x2="256.4" y2="198"/><line x1="221.2" y1="144.4" x2="221.2" y2="163.6"/><line x1="221.2" y1="86.8" x2="221.2" y2="70.8"/><line x1="271.6" y1="175.6" x2="254" y2="167.6"/><line x1="323.6" y1="138" x2="323.6" y2="150.8"/><line x1="285.2" y1="54.8" x2="285.2" y2="35.6"/><line x1="285.2" y1="208.4" x2="285.2" y2="214.8"/><line x1="214.8" y1="195.6" x2="240.4" y2="195.6"/><line x1="326.8" y1="176.4" x2="349.2" y2="176.4"/><line x1="291.6" y1="214.8" x2="291.6" y2="208.4"/><line x1="317.2" y1="83.6" x2="310.8" y2="83.6"/><line x1="283.6" y1="109.2" x2="290" y2="115.6"/><line x1="355.6" y1="109.2" x2="358.8" y2="131.6"/><line x1="304.4" y1="80.4" x2="304.4" y2="70.8"/><line x1="144.4" y1="96.4" x2="150.8" y2="90"/><line x1="314" y1="157.2" x2="301.2" y2="157.2"/><line x1="258" y1="158" x2="256.4" y2="146.8"/><line x1="218" y1="144.4" x2="214.8" y2="144.4"/><line x1="214.8" y1="202" x2="179.6" y2="202"/><line x1="301.2" y1="109.2" x2="310.8" y2="109.2"/><line x1="307.6" y1="209.2" x2="314" y2="209.2"/><line x1="214.8" y1="26" x2="221.2" y2="22.8"/><line x1="283.6" y1="35.6" x2="283.6" y2="54.8"/><line x1="291.6" y1="208.4" x2="285.2" y2="208.4"/><line x1="214.8" y1="77.2" x2="218" y2="78.8"/><line x1="323.6" y1="182.8" x2="333.2" y2="202"/><line x1="150.8" y1="90" x2="157.2" y2="77.2"/><line x1="272.4" y1="192.4" x2="272.4" y2="195.6"/><line x1="163.6" y1="42" x2="176.4" y2="35.6"/><line x1="214.8" y1="144.4" x2="208.4" y2="144.4"/><line x1="307.6" y1="67.6" x2="288.4" y2="67.6"/><line x1="195.6" y1="77.2" x2="176.4" y2="70.8"/><line x1="307.6" y1="195.6" x2="298" y2="195.6"/><line x1="314" y1="192.4" x2="307.6" y2="195.6"/><line x1="285.2" y1="214.8" x2="291.6" y2="214.8"/><line x1="259.6" y1="202" x2="259.6" y2="218"/><line x1="291.6" y1="195.6" x2="272.4" y2="195.6"/><line x1="307.6" y1="80.4" x2="307.6" y2="67.6"/><line x1="293.2" y1="206.8" x2="283.6" y2="206.8"/><line x1="176.4" y1="35.6" x2="202" y2="29.2"/><line x1="294.8" y1="205.2" x2="282" y2="205.2"/><line x1="128.4" y1="122" x2="128.4" y2="134.8"/><line x1="291.6" y1="112.4" x2="310.8" y2="112.4"/><line x1="221.2" y1="70.8" x2="218" y2="74"/><line x1="214.8" y1="170" x2="214.8" y2="195.6"/><line x1="266" y1="106" x2="282" y2="106"/><line x1="240.4" y1="182.8" x2="227.6" y2="182.8"/><line x1="128.4" y1="64.4" x2="128.4" y2="77.2"/><line x1="278.8" y1="202" x2="278.8" y2="218"/><line x1="256.4" y1="197.2" x2="250" y2="197.2"/><line x1="195.6" y1="77.2" x2="214.8" y2="77.2"/><line x1="246.8" y1="106" x2="250" y2="109.2"/><line x1="221.2" y1="189.2" x2="240.4" y2="189.2"/><line x1="227.6" y1="182.8" x2="227.6" y2="170"/><line x1="234" y1="45.2" x2="243.6" y2="61.2"/><line x1="227.6" y1="163.6" x2="227.6" y2="144.4"/><line x1="230.8" y1="170" x2="234" y2="170"/><line x1="230.8" y1="144.4" x2="234" y2="144.4"/><line x1="282" y1="205.2" x2="282" y2="218"/><line x1="222.8" y1="144.4" x2="222.8" y2="163.6"/><line x1="226" y1="163.6" x2="226" y2="144.4"/><line x1="224.4" y1="138" x2="224.4" y2="134.8"/><line x1="314" y1="120.4" x2="314" y2="157.2"/><line x1="221.2" y1="115.6" x2="221.2" y2="118.8"/><line x1="298" y1="160.4" x2="298" y2="170"/><line x1="292.4" y1="148.4" x2="286.8" y2="166"/><line x1="234" y1="144.4" x2="234" y2="138"/><line x1="297.2" y1="134.8" x2="290.8" y2="141.2"/><line x1="286.8" y1="166" x2="271.6" y2="175.6"/><line x1="301.2" y1="74" x2="301.2" y2="109.2"/><line x1="170" y1="189.2" x2="163.6" y2="176.4"/><line x1="266" y1="86.8" x2="266" y2="70.8"/><line x1="170" y1="70.8" x2="176.4" y2="70.8"/><line x1="277.2" y1="54.8" x2="264.4" y2="42"/><line x1="288.4" y1="74" x2="301.2" y2="74"/><line x1="250" y1="198.8" x2="256.4" y2="198.8"/><line x1="288.4" y1="109.2" x2="291.6" y2="112.4"/><line x1="131.6" y1="134.8" x2="131.6" y2="122"/><line x1="157.2" y1="163.6" x2="150.8" y2="147.6"/><line x1="150.8" y1="147.6" x2="150.8" y2="131.6"/><line x1="150.8" y1="131.6" x2="154" y2="125.2"/><line x1="154" y1="125.2" x2="154" y2="115.6"/><line x1="154" y1="115.6" x2="150.8" y2="112.4"/><line x1="150.8" y1="112.4" x2="147.6" y2="106"/><line x1="147.6" y1="106" x2="144.4" y2="96.4"/><line x1="144.4" y1="96.4" x2="147.6" y2="80.4"/><line x1="147.6" y1="80.4" x2="154" y2="70.8"/><line x1="154" y1="70.8" x2="154" y2="58"/><line x1="154" y1="54.8" x2="150.8" y2="45.2"/><line x1="243.6" y1="61.2" x2="246.8" y2="67.6"/><line x1="131.6" y1="86.8" x2="138" y2="80.4"/><line x1="138" y1="80.4" x2="144.4" y2="67.6"/><line x1="144.4" y1="67.6" x2="154" y2="58"/><line x1="154" y1="58" x2="154" y2="54.8"/><line x1="154" y1="58" x2="170" y2="54.8"/><line x1="170" y1="54.8" x2="189.2" y2="45.2"/><line x1="189.2" y1="45.2" x2="214.8" y2="42"/><line x1="214.8" y1="42" x2="234" y2="45.2"/><line x1="77.2" y1="83.6" x2="80.4" y2="83.6"/><line x1="77.2" y1="77.2" x2="77.2" y2="83.6"/><line x1="102.8" y1="77.2" x2="96.4" y2="77.2"/><line x1="102.8" y1="83.6" x2="102.8" y2="77.2"/><line x1="102.8" y1="122" x2="125.2" y2="122"/><line x1="77.2" y1="115.6" x2="64.4" y2="115.6"/><line x1="58" y1="122" x2="64.4" y2="122"/><line x1="128.4" y1="106" x2="128.4" y2="93.2"/><line x1="122" y1="141.2" x2="64.4" y2="141.2"/><line x1="64.4" y1="58" x2="122" y2="58"/><line x1="64.4" y1="141.2" x2="64.4" y2="122"/><line x1="64.4" y1="122" x2="64.4" y2="115.6"/><line x1="64.4" y1="115.6" x2="64.4" y2="58"/><line x1="64.4" y1="115.6" x2="58" y2="115.6"/><line x1="64.4" y1="122" x2="77.2" y2="122"/><line x1="80.4" y1="80.4" x2="86.8" y2="80.4"/><line x1="86.8" y1="80.4" x2="86.8" y2="83.6"/><line x1="80.4" y1="83.6" x2="86.8" y2="83.6"/><line x1="80.4" y1="83.6" x2="80.4" y2="80.4"/><line x1="93.2" y1="80.4" x2="99.6" y2="80.4"/><line x1="99.6" y1="80.4" x2="99.6" y2="83.6"/><line x1="93.2" y1="83.6" x2="99.6" y2="83.6"/><line x1="93.2" y1="83.6" x2="93.2" y2="80.4"/><line x1="99.6" y1="83.6" x2="102.8" y2="83.6"/><line x1="86.8" y1="83.6" x2="93.2" y2="83.6"/><line x1="102.8" y1="115.6" x2="93.2" y2="83.6"/><line x1="86.8" y1="83.6" x2="77.2" y2="115.6"/><line x1="80.4" y1="122" x2="93.2" y2="122"/><line x1="96.4" y1="122" x2="99.6" y2="122"/><line x1="125.2" y1="77.2" x2="122" y2="80.4"/><line x1="122" y1="118.8" x2="125.2" y2="122"/><line x1="125.2" y1="122" x2="125.2" y2="141.2"/><line x1="208.4" y1="144.4" x2="208.4" y2="163.6"/><line x1="208.4" y1="163.6" x2="214.8" y2="163.6"/><line x1="214.8" y1="106" x2="214.8" y2="144.4"/><line x1="224.4" y1="118.8" x2="224.4" y2="115.6"/><line x1="221.2" y1="134.8" x2="221.2" y2="138"/><line x1="221.2" y1="118.8" x2="221.2" y2="134.8"/><line x1="283.6" y1="216.4" x2="293.2" y2="216.4"/><line x1="173.2" y1="192.4" x2="170" y2="189.2"/><line x1="245.2" y1="35.6" x2="253.2" y2="38"/><line x1="170" y1="189.2" x2="163.6" y2="189.2"/><line x1="238" y1="22.8" x2="240.4" y2="30.8"/><line x1="280.4" y1="203.6" x2="280.4" y2="218"/><line x1="256.4" y1="146.8" x2="246.8" y2="139.6"/><line x1="246.8" y1="139.6" x2="262" y2="127.6"/><line x1="262" y1="127.6" x2="281.2" y2="126"/><line x1="281.2" y1="126" x2="297.2" y2="134.8"/><line x1="234" y1="106" x2="234" y2="101.2"/><line x1="234" y1="101.2" x2="242" y2="93.2"/><line x1="242" y1="93.2" x2="259.6" y2="93.2"/><line x1="218" y1="74" x2="218" y2="78.8"/><line x1="294.8" y1="203.6" x2="280.4" y2="203.6"/><line x1="221.2" y1="32.4" x2="202" y2="29.2"/><line x1="227.6" y1="35.6" x2="221.2" y2="32.4"/><line x1="240.4" y1="38.8" x2="227.6" y2="35.6"/><line x1="253.2" y1="38.8" x2="240.4" y2="38.8"/><line x1="320.4" y1="134.8" x2="320.4" y2="154"/><line x1="317.2" y1="131.6" x2="317.2" y2="157.2"/><line x1="221.2" y1="118.8" x2="224.4" y2="118.8"/><line x1="224.4" y1="134.8" x2="224.4" y2="118.8"/><line x1="224.4" y1="134.8" x2="221.2" y2="134.8"/><line x1="176.4" y1="198.8" x2="173.2" y2="192.4"/><line x1="218" y1="78.8" x2="218" y2="86.8"/><line x1="90" y1="77.2" x2="77.2" y2="77.2"/><line x1="96.4" y1="77.2" x2="90" y2="77.2"/><line x1="202" y1="29.2" x2="195.6" y2="29.2"/><line x1="291.6" y1="192.4" x2="272.4" y2="192.4"/><line x1="309.2" y1="115.6" x2="314" y2="120.4"/><line x1="293.2" y1="109.2" x2="301.2" y2="109.2"/><line x1="288.4" y1="104.4" x2="293.2" y2="109.2"/></g><g stroke="#d3b15b" stroke-width="2.4" stroke-linecap="round"><line x1="128.4" y1="58" x2="128.4" y2="64.4"/><line x1="128.4" y1="64.4" x2="131.6" y2="64.4"/><line x1="131.6" y1="86.8" x2="131.6" y2="77.2"/><line x1="176.4" y1="35.6" x2="195.6" y2="29.2"/><line x1="272.4" y1="218" x2="269.2" y2="218"/><line x1="126.8" y1="102.8" x2="126.8" y2="96.4"/><line x1="122" y1="51.6" x2="122" y2="58"/><line x1="350.8" y1="40.4" x2="352.4" y2="42"/><line x1="266" y1="86.8" x2="246.8" y2="86.8"/><line x1="314" y1="170" x2="298" y2="170"/><line x1="349.2" y1="90" x2="349.2" y2="96.4"/><line x1="346" y1="189.2" x2="333.2" y2="202"/><line x1="352.4" y1="42" x2="360.4" y2="50"/><line x1="317.2" y1="131.6" x2="320.4" y2="134.8"/><line x1="330" y1="138" x2="330" y2="131.6"/><line x1="240.4" y1="90" x2="259.6" y2="90"/><line x1="326.8" y1="163.6" x2="326.8" y2="157.2"/><line x1="282" y1="102.8" x2="282" y2="106"/><line x1="323.6" y1="150.8" x2="320.4" y2="154"/><line x1="288.4" y1="104.4" x2="288.4" y2="102.8"/><line x1="310.8" y1="106" x2="310.8" y2="109.2"/><line x1="355.6" y1="90" x2="349.2" y2="90"/><line x1="230.8" y1="144.4" x2="230.8" y2="138"/><line x1="355.6" y1="74" x2="355.6" y2="90"/><line x1="310.8" y1="90" x2="310.8" y2="83.6"/><line x1="346" y1="163.6" x2="346" y2="170"/><line x1="269.2" y1="198.8" x2="272.4" y2="198.8"/><line x1="304.4" y1="80.4" x2="304.4" y2="106"/><line x1="254.8" y1="61.2" x2="253.2" y2="61.2"/><line x1="254.8" y1="42" x2="264.4" y2="42"/><line x1="283.6" y1="54.8" x2="277.2" y2="54.8"/><line x1="269.2" y1="218" x2="266" y2="218"/><line x1="349.2" y1="38.8" x2="350.8" y2="40.4"/><line x1="277.2" y1="54.8" x2="270.8" y2="61.2"/><line x1="341.2" y1="30.8" x2="349.2" y2="38.8"/><line x1="360.4" y1="50" x2="362" y2="51.6"/><line x1="270.8" y1="61.2" x2="254.8" y2="61.2"/><line x1="326.8" y1="176.4" x2="326.8" y2="163.6"/><line x1="349.2" y1="182.8" x2="346" y2="189.2"/><line x1="326.8" y1="131.6" x2="326.8" y2="128.4"/><line x1="147.6" y1="46.8" x2="150.8" y2="45.2"/><line x1="221.2" y1="170" x2="224.4" y2="170"/><line x1="224.4" y1="86.8" x2="221.2" y2="86.8"/><line x1="326.8" y1="102.8" x2="323.6" y2="102.8"/><line x1="362" y1="74" x2="355.6" y2="74"/><line x1="315.6" y1="220.4" x2="314" y2="222"/><line x1="128.4" y1="141.2" x2="125.2" y2="141.2"/><line x1="131.6" y1="77.2" x2="128.4" y2="77.2"/><line x1="362" y1="138" x2="358.8" y2="163.6"/><line x1="182.8" y1="206.8" x2="182.8" y2="205.2"/><line x1="330" y1="150.8" x2="323.6" y2="150.8"/><line x1="246.8" y1="83.6" x2="234" y2="83.6"/><line x1="323.6" y1="138" x2="330" y2="138"/><line x1="256.4" y1="70.8" x2="266" y2="70.8"/><line x1="310.8" y1="80.4" x2="307.6" y2="80.4"/><line x1="266" y1="218" x2="262.8" y2="218"/><line x1="214.8" y1="106" x2="221.2" y2="106"/><line x1="214.8" y1="93.2" x2="214.8" y2="106"/><line x1="326.8" y1="128.4" x2="326.8" y2="125.2"/><line x1="314" y1="205.2" x2="314" y2="206.8"/><line x1="320.4" y1="182.8" x2="323.6" y2="182.8"/><line x1="243.6" y1="74" x2="256.4" y2="74"/><line x1="243.6" y1="70.8" x2="243.6" y2="74"/><line x1="298" y1="179.6" x2="301.2" y2="182.8"/><line x1="304.4" y1="106" x2="310.8" y2="106"/><line x1="246.8" y1="182.8" x2="240.4" y2="182.8"/><line x1="298" y1="195.6" x2="291.6" y2="195.6"/><line x1="262.8" y1="218" x2="259.6" y2="218"/><line x1="349.2" y1="96.4" x2="349.2" y2="102.8"/><line x1="234" y1="86.8" x2="224.4" y2="86.8"/><line x1="256.4" y1="74" x2="256.4" y2="70.8"/><line x1="346" y1="170" x2="349.2" y2="170"/><line x1="288.4" y1="109.2" x2="288.4" y2="104.4"/><line x1="294.8" y1="205.2" x2="294.8" y2="218"/><line x1="358.8" y1="163.6" x2="355.6" y2="163.6"/><line x1="330" y1="157.2" x2="330" y2="150.8"/><line x1="358.8" y1="138" x2="362" y2="138"/><line x1="314" y1="207.6" x2="314" y2="209.2"/><line x1="282" y1="218" x2="280.4" y2="218"/><line x1="282" y1="74" x2="288.4" y2="74"/><line x1="288.4" y1="102.8" x2="282" y2="102.8"/><line x1="217.2" y1="18" x2="221.2" y2="19.6"/><line x1="326.8" y1="109.2" x2="326.8" y2="102.8"/><line x1="346" y1="109.2" x2="355.6" y2="109.2"/><line x1="150.8" y1="45.2" x2="157.2" y2="42"/><line x1="330" y1="131.6" x2="326.8" y2="131.6"/><line x1="323.6" y1="96.4" x2="323.6" y2="90"/><line x1="128.4" y1="109.2" x2="128.4" y2="106"/><line x1="157.2" y1="163.6" x2="144.4" y2="157.2"/><line x1="128.4" y1="90" x2="131.6" y2="86.8"/><line x1="202.8" y1="21.2" x2="210.8" y2="18"/><line x1="314" y1="209.2" x2="315.6" y2="210.8"/><line x1="131.6" y1="122" x2="131.6" y2="112.4"/><line x1="214.8" y1="205.2" x2="208.4" y2="205.2"/><line x1="195.6" y1="29.2" x2="202.8" y2="21.2"/><line x1="221.2" y1="106" x2="221.2" y2="115.6"/><line x1="58" y1="58" x2="64.4" y2="58"/><line x1="326.8" y1="157.2" x2="330" y2="157.2"/><line x1="131.6" y1="150.8" x2="131.6" y2="134.8"/><line x1="323.6" y1="182.8" x2="326.8" y2="179.6"/><line x1="240.4" y1="186" x2="240.4" y2="189.2"/><line x1="280.4" y1="218" x2="278.8" y2="218"/><line x1="282" y1="70.8" x2="282" y2="74"/><line x1="346" y1="102.8" x2="346" y2="109.2"/><line x1="285.2" y1="64.4" x2="285.2" y2="54.8"/><line x1="144.4" y1="157.2" x2="131.6" y2="150.8"/><line x1="288.4" y1="64.4" x2="285.2" y2="64.4"/><line x1="333.2" y1="202" x2="326.8" y2="205.2"/><line x1="122" y1="115.6" x2="122" y2="118.8"/><line x1="163.6" y1="189.2" x2="163.6" y2="176.4"/><line x1="131.6" y1="48.4" x2="139.6" y2="45.2"/><line x1="245.2" y1="30.8" x2="246.8" y2="32.4"/><line x1="208.4" y1="205.2" x2="208.4" y2="206.8"/><line x1="266" y1="202" x2="269.2" y2="198.8"/><line x1="230.8" y1="99.6" x2="240.4" y2="90"/><line x1="310.8" y1="83.6" x2="310.8" y2="80.4"/><line x1="250" y1="218" x2="246.8" y2="214.8"/><line x1="262.8" y1="202" x2="266" y2="202"/><line x1="272.4" y1="198.8" x2="272.4" y2="195.6"/><line x1="259.6" y1="202" x2="262.8" y2="202"/><line x1="317.2" y1="157.2" x2="317.2" y2="166.8"/><line x1="131.6" y1="134.8" x2="128.4" y2="134.8"/><line x1="246.8" y1="32.4" x2="253.2" y2="34"/><line x1="282" y1="106" x2="282" y2="109.2"/><line x1="250" y1="198" x2="250" y2="197.2"/><line x1="128.4" y1="134.8" x2="128.4" y2="141.2"/><line x1="234" y1="115.6" x2="234" y2="106"/><line x1="221.2" y1="22.8" x2="238" y2="22.8"/><line x1="288.4" y1="74" x2="288.4" y2="70.8"/><line x1="256.4" y1="197.2" x2="256.4" y2="198"/><line x1="282" y1="109.2" x2="283.6" y2="109.2"/><line x1="326.8" y1="125.2" x2="323.6" y2="125.2"/><line x1="355.6" y1="163.6" x2="346" y2="163.6"/><line x1="221.2" y1="115.6" x2="224.4" y2="115.6"/><line x1="176.4" y1="198.8" x2="176.4" y2="199.6"/><line x1="253.2" y1="38" x2="253.2" y2="38.8"/><line x1="349.2" y1="102.8" x2="346" y2="102.8"/><line x1="323.6" y1="109.2" x2="326.8" y2="109.2"/><line x1="307.6" y1="207.6" x2="307.6" y2="206.8"/><line x1="218" y1="138" x2="218" y2="144.4"/><line x1="218" y1="86.8" x2="214.8" y2="86.8"/><line x1="246.8" y1="202" x2="250" y2="198.8"/><line x1="272.4" y1="195.6" x2="256.4" y2="195.6"/><line x1="298" y1="202" x2="298" y2="195.6"/><line x1="323.6" y1="90" x2="317.2" y2="90"/><line x1="291.6" y1="195.6" x2="291.6" y2="198.8"/><line x1="224.4" y1="138" x2="221.2" y2="138"/><line x1="122" y1="147.6" x2="64.4" y2="147.6"/><line x1="64.4" y1="147.6" x2="64.4" y2="141.2"/><line x1="208.4" y1="206.8" x2="182.8" y2="206.8"/><line x1="306" y1="210.8" x2="307.6" y2="209.2"/><line x1="214.8" y1="163.6" x2="214.8" y2="170"/><line x1="240.4" y1="195.6" x2="240.4" y2="208.4"/><line x1="266" y1="93.2" x2="266" y2="86.8"/><line x1="307.6" y1="205.2" x2="304.4" y2="205.2"/><line x1="314" y1="206.8" x2="314" y2="207.6"/><line x1="221.2" y1="138" x2="218" y2="138"/><line x1="283.6" y1="35.6" x2="285.2" y2="35.6"/><line x1="362" y1="131.6" x2="358.8" y2="131.6"/><line x1="323.6" y1="125.2" x2="323.6" y2="109.2"/><line x1="326.8" y1="179.6" x2="326.8" y2="176.4"/><line x1="288.4" y1="70.8" x2="288.4" y2="67.6"/><line x1="234" y1="83.6" x2="234" y2="86.8"/><line x1="224.4" y1="70.8" x2="243.6" y2="70.8"/><line x1="246.8" y1="86.8" x2="246.8" y2="83.6"/><line x1="266" y1="70.8" x2="282" y2="70.8"/><line x1="307.6" y1="80.4" x2="304.4" y2="80.4"/><line x1="288.4" y1="67.6" x2="288.4" y2="64.4"/><line x1="256.4" y1="198" x2="256.4" y2="198.8"/><line x1="270.8" y1="35.6" x2="283.6" y2="35.6"/><line x1="126.8" y1="96.4" x2="126.8" y2="93.2"/><line x1="317.2" y1="90" x2="310.8" y2="90"/><line x1="163.6" y1="176.4" x2="157.2" y2="163.6"/><line x1="131.6" y1="64.4" x2="131.6" y2="48.4"/><line x1="362" y1="51.6" x2="362" y2="74"/><line x1="250" y1="195.6" x2="246.8" y2="195.6"/><line x1="339.6" y1="29.2" x2="341.2" y2="30.8"/><line x1="240.4" y1="208.4" x2="221.2" y2="208.4"/><line x1="221.2" y1="67.6" x2="221.2" y2="70.8"/><line x1="227.6" y1="170" x2="230.8" y2="170"/><line x1="307.6" y1="209.2" x2="307.6" y2="207.6"/><line x1="131.6" y1="112.4" x2="128.4" y2="109.2"/><line x1="86.8" y1="118.8" x2="93.2" y2="118.8"/><line x1="246.8" y1="214.8" x2="246.8" y2="202"/><line x1="256.4" y1="195.6" x2="256.4" y2="197.2"/><line x1="250" y1="197.2" x2="250" y2="195.6"/><line x1="301.2" y1="29.2" x2="339.6" y2="29.2"/><line x1="125.2" y1="122" x2="128.4" y2="122"/><line x1="128.4" y1="122" x2="131.6" y2="122"/><line x1="179.6" y1="205.2" x2="179.6" y2="202"/><line x1="240.4" y1="182.8" x2="240.4" y2="186"/><line x1="243.6" y1="29.2" x2="245.2" y2="30.8"/><line x1="240.4" y1="189.2" x2="240.4" y2="195.6"/><line x1="166.8" y1="195.6" x2="163.6" y2="189.2"/><line x1="139.6" y1="45.2" x2="147.6" y2="46.8"/><line x1="224.4" y1="115.6" x2="234" y2="115.6"/><line x1="230.8" y1="163.6" x2="227.6" y2="163.6"/><line x1="358.8" y1="131.6" x2="358.8" y2="138"/><line x1="221.2" y1="208.4" x2="214.8" y2="205.2"/><line x1="227.6" y1="144.4" x2="230.8" y2="144.4"/><line x1="227.6" y1="138" x2="224.4" y2="138"/><line x1="230.8" y1="138" x2="227.6" y2="138"/><line x1="304.4" y1="205.2" x2="304.4" y2="202"/><line x1="227.6" y1="163.6" x2="226" y2="163.6"/><line x1="214.8" y1="86.8" x2="214.8" y2="93.2"/><line x1="218" y1="144.4" x2="221.2" y2="144.4"/><line x1="221.2" y1="144.4" x2="222.8" y2="144.4"/><line x1="222.8" y1="144.4" x2="226" y2="144.4"/><line x1="222.8" y1="163.6" x2="221.2" y2="163.6"/><line x1="226" y1="163.6" x2="222.8" y2="163.6"/><line x1="226" y1="144.4" x2="227.6" y2="144.4"/><line x1="224.4" y1="170" x2="227.6" y2="170"/><line x1="214.8" y1="170" x2="221.2" y2="170"/><line x1="301.2" y1="182.8" x2="317.2" y2="182.8"/><line x1="301.2" y1="35.6" x2="301.2" y2="29.2"/><line x1="320.4" y1="205.2" x2="314" y2="205.2"/><line x1="310.8" y1="112.4" x2="317.2" y2="118.8"/><line x1="317.2" y1="182.8" x2="320.4" y2="182.8"/><line x1="304.4" y1="202" x2="298" y2="202"/><line x1="298" y1="170" x2="298" y2="179.6"/><line x1="182.8" y1="205.2" x2="179.6" y2="205.2"/><line x1="307.6" y1="206.8" x2="307.6" y2="205.2"/><line x1="306" y1="220.4" x2="306" y2="210.8"/><line x1="307.6" y1="222" x2="306" y2="220.4"/><line x1="179.6" y1="198.8" x2="176.4" y2="198.8"/><line x1="253.2" y1="34" x2="253.2" y2="38"/><line x1="315.6" y1="210.8" x2="315.6" y2="220.4"/><line x1="314" y1="222" x2="307.6" y2="222"/><line x1="310.8" y1="109.2" x2="310.8" y2="112.4"/><line x1="283.6" y1="109.2" x2="288.4" y2="109.2"/><line x1="259.6" y1="218" x2="250" y2="218"/><line x1="221.2" y1="86.8" x2="218" y2="86.8"/><line x1="294.8" y1="198.8" x2="294.8" y2="202"/><line x1="179.6" y1="202" x2="179.6" y2="198.8"/><line x1="221.2" y1="70.8" x2="224.4" y2="70.8"/><line x1="58" y1="141.2" x2="58" y2="122"/><line x1="319.6" y1="70" x2="326" y2="70"/><line x1="326" y1="70" x2="326" y2="63.6"/><line x1="326" y1="63.6" x2="319.6" y2="63.6"/><line x1="319.6" y1="63.6" x2="319.6" y2="70"/><line x1="246.8" y1="195.6" x2="246.8" y2="182.8"/><line x1="264.4" y1="42" x2="270.8" y2="35.6"/><line x1="253.2" y1="67.6" x2="246.8" y2="67.6"/><line x1="285.2" y1="35.6" x2="301.2" y2="35.6"/><line x1="285.2" y1="54.8" x2="283.6" y2="54.8"/><line x1="230.8" y1="170" x2="230.8" y2="163.6"/><line x1="317.2" y1="166.8" x2="314" y2="170"/><line x1="253.2" y1="42" x2="254.8" y2="42"/><line x1="323.6" y1="102.8" x2="323.6" y2="96.4"/><line x1="253.2" y1="61.2" x2="253.2" y2="67.6"/><line x1="210.8" y1="18" x2="217.2" y2="18"/><line x1="246.8" y1="67.6" x2="221.2" y2="67.6"/><line x1="122" y1="80.4" x2="122" y2="86.8"/><line x1="102.8" y1="115.6" x2="93.2" y2="115.6"/><line x1="77.2" y1="115.6" x2="77.2" y2="122"/><line x1="77.2" y1="122" x2="80.4" y2="122"/><line x1="102.8" y1="122" x2="102.8" y2="115.6"/><line x1="128.4" y1="77.2" x2="125.2" y2="77.2"/><line x1="122" y1="118.8" x2="125.2" y2="118.8"/><line x1="125.2" y1="118.8" x2="125.2" y2="122"/><line x1="125.2" y1="77.2" x2="125.2" y2="80.4"/><line x1="125.2" y1="80.4" x2="122" y2="80.4"/><line x1="58" y1="115.6" x2="58" y2="58"/><line x1="58" y1="122" x2="58" y2="115.6"/><line x1="126.8" y1="106" x2="126.8" y2="102.8"/><line x1="126.8" y1="93.2" x2="128.4" y2="93.2"/><line x1="128.4" y1="106" x2="126.8" y2="106"/><line x1="128.4" y1="93.2" x2="128.4" y2="90"/><line x1="122" y1="58" x2="125.2" y2="58"/><line x1="122" y1="141.2" x2="122" y2="147.6"/><line x1="64.4" y1="58" x2="64.4" y2="51.6"/><line x1="64.4" y1="141.2" x2="58" y2="141.2"/><line x1="93.2" y1="115.6" x2="86.8" y2="115.6"/><line x1="86.8" y1="115.6" x2="77.2" y2="115.6"/><line x1="80.4" y1="118.8" x2="86.8" y2="118.8"/><line x1="96.4" y1="118.8" x2="99.6" y2="118.8"/><line x1="80.4" y1="122" x2="80.4" y2="118.8"/><line x1="99.6" y1="122" x2="102.8" y2="122"/><line x1="93.2" y1="118.8" x2="93.2" y2="122"/><line x1="99.6" y1="118.8" x2="99.6" y2="122"/><line x1="93.2" y1="122" x2="96.4" y2="122"/><line x1="96.4" y1="122" x2="96.4" y2="118.8"/><line x1="125.2" y1="141.2" x2="122" y2="141.2"/><line x1="122" y1="86.8" x2="122" y2="93.2"/><line x1="122" y1="93.2" x2="122" y2="115.6"/><line x1="64.4" y1="51.6" x2="122" y2="51.6"/><line x1="221.2" y1="163.6" x2="214.8" y2="163.6"/><line x1="242" y1="22.8" x2="243.6" y2="29.2"/><line x1="349.2" y1="176.4" x2="349.2" y2="182.8"/><line x1="238" y1="22.8" x2="242" y2="22.8"/><line x1="173.2" y1="200.4" x2="166.8" y2="195.6"/><line x1="176.4" y1="199.6" x2="173.2" y2="200.4"/><line x1="294.8" y1="218" x2="282" y2="218"/><line x1="291.6" y1="198.8" x2="294.8" y2="198.8"/><line x1="256.4" y1="198.8" x2="259.6" y2="202"/><line x1="294.8" y1="202" x2="294.8" y2="203.6"/><line x1="259.6" y1="93.2" x2="266" y2="93.2"/><line x1="230.8" y1="106" x2="230.8" y2="99.6"/><line x1="278.8" y1="218" x2="272.4" y2="218"/><line x1="250" y1="198.8" x2="250" y2="198"/><line x1="294.8" y1="203.6" x2="294.8" y2="205.2"/><line x1="253.2" y1="38.8" x2="253.2" y2="42"/><line x1="320.4" y1="154" x2="317.2" y2="157.2"/><line x1="320.4" y1="134.8" x2="323.6" y2="138"/><line x1="317.2" y1="118.8" x2="317.2" y2="131.6"/><line x1="259.6" y1="90" x2="259.6" y2="93.2"/><line x1="234" y1="106" x2="230.8" y2="106"/><line x1="221.2" y1="19.6" x2="221.2" y2="22.8"/><line x1="157.2" y1="42" x2="158.8" y2="35.6"/><line x1="158.8" y1="35.6" x2="170" y2="30.8"/><line x1="170" y1="30.8" x2="176.4" y2="35.6"/><line x1="355.6" y1="109.2" x2="358.8" y2="109.2"/><line x1="125.2" y1="58" x2="128.4" y2="58"/><line x1="358.8" y1="109.2" x2="362" y2="131.6"/><line x1="326.8" y1="205.2" x2="320.4" y2="205.2"/><line x1="349.2" y1="170" x2="349.2" y2="176.4"/></g><g opacity="0.95"><circle cx="160.4" cy="38.8" r="2.2" fill="#d3b15b"/><circle cx="357.2" cy="111.6" r="2.2" fill="#d3b15b"/><circle cx="90" cy="74.8" r="2.2" fill="#d3b15b"/><circle cx="275.6" cy="144.4" r="3.2" fill="#b7493c"/><circle cx="269.2" cy="150.8" r="3.2" fill="#b7493c"/><circle cx="218.8" cy="109.2" r="3.2" fill="#b7493c"/><circle cx="269.2" cy="144.4" r="3.2" fill="#b7493c"/><circle cx="275.6" cy="150.8" r="3.2" fill="#b7493c"/><circle cx="351.6" cy="110.8" r="2.2" fill="#d3b15b"/><circle cx="168.4" cy="192.4" r="2.2" fill="#d3b15b"/><circle cx="219.6" cy="78.8" r="2.2" fill="#d3b15b"/><circle cx="119.6" cy="99.6" r="2.2" fill="#d3b15b"/><circle cx="238" cy="206" r="2.2" fill="#d3b15b"/><circle cx="326" cy="202.8" r="2.2" fill="#d3b15b"/><circle cx="118.8" cy="144.4" r="2.2" fill="#d3b15b"/><circle cx="237.2" cy="205.2" r="3.2" fill="#b7493c"/><circle cx="301.2" cy="160.4" r="2.2" fill="#d3b15b"/><circle cx="212.4" cy="166" r="2.2" fill="#d3b15b"/><circle cx="300.4" cy="199.6" r="2.2" fill="#d3b15b"/><circle cx="341.2" cy="35.6" r="2.2" fill="#d3b15b"/><circle cx="166" cy="186.8" r="2.2" fill="#d3b15b"/><circle cx="67.6" cy="144.4" r="3.2" fill="#b7493c"/><circle cx="83.6" cy="85.6" r="2.2" fill="#d3b15b"/><circle cx="288.4" cy="134.8" r="2.2" fill="#d3b15b"/><circle cx="211.6" cy="154" r="2.2" fill="#d3b15b"/><circle cx="67.6" cy="54.8" r="3.2" fill="#b7493c"/><circle cx="96.4" cy="85.6" r="2.2" fill="#d3b15b"/><circle cx="80.4" cy="113.6" r="2.2" fill="#d3b15b"/><circle cx="348.4" cy="42.8" r="3.2" fill="#b7493c"/><circle cx="61.2" cy="138" r="2.2" fill="#d3b15b"/><circle cx="170.8" cy="34.8" r="2.2" fill="#d3b15b"/><circle cx="124" cy="79.2" r="2.2" fill="#d3b15b"/><circle cx="282.8" cy="215.6" r="2.2" fill="#d3b15b"/><circle cx="242.8" cy="33.2" r="3.2" fill="#b7493c"/><circle cx="355.6" cy="50" r="2.2" fill="#d3b15b"/><circle cx="309.2" cy="107.6" r="2.2" fill="#d3b15b"/><circle cx="130.8" cy="99.6" r="2.2" fill="#d3b15b"/><circle cx="277.2" cy="168.4" r="2.2" fill="#d3b15b"/><circle cx="326" cy="120.4" r="2.2" fill="#d3b15b"/><circle cx="90" cy="99.6" r="2.2" fill="#d3b15b"/><circle cx="287.6" cy="62" r="2.2" fill="#d3b15b"/><circle cx="173.2" cy="197.2" r="2.2" fill="#d3b15b"/><circle cx="328.4" cy="66.8" r="2.2" fill="#d3b15b"/><circle cx="118.8" cy="54.8" r="2.2" fill="#d3b15b"/><circle cx="357.2" cy="161.2" r="2.2" fill="#d3b15b"/><circle cx="238" cy="97.2" r="2.2" fill="#d3b15b"/><circle cx="239.6" cy="25.2" r="2.2" fill="#d3b15b"/><circle cx="287.6" cy="57.2" r="2.2" fill="#d3b15b"/><circle cx="269.2" cy="192.4" r="3.2" fill="#b7493c"/><circle cx="346.8" cy="182" r="2.2" fill="#d3b15b"/><circle cx="282" cy="212.4" r="2.2" fill="#d3b15b"/><circle cx="80.4" cy="144.4" r="2.2" fill="#d3b15b"/><circle cx="256.4" cy="107.6" r="2.2" fill="#d3b15b"/><circle cx="285.2" cy="77.2" r="3.2" fill="#b7493c"/><circle cx="61.2" cy="61.2" r="2.2" fill="#d3b15b"/><circle cx="124" cy="120" r="2.2" fill="#d3b15b"/><circle cx="358" cy="150.8" r="3.2" fill="#b7493c"/><circle cx="210" cy="22.8" r="2.2" fill="#d3b15b"/><circle cx="310.8" cy="215.6" r="2.2" fill="#d3b15b"/><circle cx="165.2" cy="35.6" r="2.2" fill="#d3b15b"/><circle cx="80.4" cy="54.8" r="2.2" fill="#d3b15b"/><circle cx="256.4" cy="138" r="2.2" fill="#d3b15b"/><circle cx="99.6" cy="113.6" r="2.2" fill="#d3b15b"/><circle cx="358" cy="150.8" r="2.2" fill="#d3b15b"/><circle cx="134" cy="142.8" r="2.2" fill="#d3b15b"/><circle cx="359.6" cy="140.4" r="2.2" fill="#d3b15b"/><circle cx="292.4" cy="206" r="2.2" fill="#d3b15b"/><circle cx="289.2" cy="205.2" r="2.2" fill="#d3b15b"/><circle cx="222.8" cy="78.8" r="3.2" fill="#b7493c"/></g></svg>