<svg xmlns="http://www.w3.org/2000/svg" viewBox="0 0 420 240" role="img"><rect width="100%" height="100%" fill="#070706"/><g stroke="#5e5a4f" stroke-width="1.6" stroke-linecap="round"><line x1="285.53" y1="61.6" x2="287.86" y2="61.6"/><line x1="282.41" y1="59.27" x2="285.53" y2="61.6"/><line x1="277.74" y1="61.6" x2="280.85" y2="59.27"/><line x1="138.37" y1="111.44" x2="147.71" y2="111.44"/><line x1="275.4" y1="130.12" x2="281.63" y2="133.24"/><line x1="153.94" y1="102.09" x2="150.82" y2="105.21"/><line x1="276.96" y1="127.01" x2="272.29" y2="122.34"/><line x1="283.19" y1="130.12" x2="276.96" y2="127.01"/><line x1="306.55" y1="130.12" x2="283.19" y2="130.12"/><line x1="272.29" y1="122.34" x2="269.18" y2="116.11"/><line x1="157.05" y1="158.15" x2="175.74" y2="158.15"/><line x1="222.46" y1="105.21" x2="247.37" y2="105.21"/><line x1="225.57" y1="102.09" x2="244.26" y2="102.09"/><line x1="213.11" y1="112.99" x2="217.79" y2="108.32"/><line x1="136.81" y1="195.53" x2="136.81" y2="186.18"/><line x1="272.29" y1="195.53" x2="260.61" y2="195.53"/><line x1="253.6" y1="64.72" x2="259.83" y2="70.95"/><line x1="216.23" y1="119.22" x2="216.23" y2="114.55"/><line x1="219.34" y1="111.44" x2="248.93" y2="111.44"/><line x1="244.26" y1="98.98" x2="225.57" y2="98.98"/><line x1="267.62" y1="111.44" x2="267.62" y2="116.89"/><line x1="210" y1="125.45" x2="216.23" y2="119.22"/><line x1="157.05" y1="161.27" x2="175.74" y2="161.27"/><line x1="133.69" y1="195.53" x2="133.69" y2="186.18"/><line x1="309.66" y1="186.18" x2="309.66" y2="198.64"/><line x1="287.86" y1="92.75" x2="287.86" y2="108.32"/><line x1="277.74" y1="61.6" x2="281.63" y2="62.38"/><line x1="200.66" y1="204.87" x2="160.17" y2="204.87"/><line x1="267.62" y1="116.89" x2="270.73" y2="123.11"/><line x1="203.77" y1="161.27" x2="203.77" y2="204.87"/><line x1="276.18" y1="128.56" x2="282.41" y2="131.68"/><line x1="203.77" y1="204.87" x2="200.66" y2="204.87"/><line x1="280.85" y1="59.27" x2="282.41" y2="59.27"/><line x1="282.41" y1="131.68" x2="306.55" y2="131.68"/><line x1="200.66" y1="161.27" x2="200.66" y2="204.87"/><line x1="213.11" y1="117.66" x2="213.11" y2="112.99"/><line x1="152.38" y1="176.84" x2="152.38" y2="170.61"/><line x1="175.74" y1="148.81" x2="157.05" y2="148.81"/><line x1="157.05" y1="151.92" x2="175.74" y2="151.92"/><line x1="266.06" y1="111.44" x2="266.06" y2="117.66"/><line x1="259.83" y1="86.52" x2="256.72" y2="89.63"/><line x1="253.6" y1="49.15" x2="253.6" y2="61.6"/><line x1="202.21" y1="123.89" x2="202.21" y2="136.35"/><line x1="262.95" y1="70.95" x2="269.18" y2="70.95"/><line x1="269.18" y1="116.11" x2="269.18" y2="111.44"/><line x1="272.29" y1="67.83" x2="272.29" y2="64.72"/><line x1="272.29" y1="64.72" x2="275.4" y2="61.6"/><line x1="275.4" y1="61.6" x2="277.74" y2="61.6"/><line x1="287.86" y1="61.6" x2="290.98" y2="64.72"/><line x1="290.98" y1="64.72" x2="290.98" y2="89.63"/><line x1="269.18" y1="70.95" x2="272.29" y2="67.83"/><line x1="202.21" y1="111.44" x2="202.21" y2="123.89"/><line x1="290.98" y1="89.63" x2="287.86" y2="92.75"/><line x1="306.55" y1="114.55" x2="306.55" y2="130.12"/><line x1="287.86" y1="108.32" x2="290.98" y2="111.44"/><line x1="290.98" y1="111.44" x2="303.44" y2="111.44"/><line x1="210" y1="120.78" x2="213.11" y2="117.66"/><line x1="178.85" y1="176.84" x2="185.08" y2="170.61"/><line x1="309.66" y1="179.95" x2="287.86" y2="179.95"/><line x1="248.93" y1="111.44" x2="252.82" y2="107.54"/><line x1="138.37" y1="176.84" x2="152.38" y2="176.84"/><line x1="152.38" y1="176.84" x2="178.85" y2="176.84"/><line x1="136.81" y1="170.61" x2="136.81" y2="161.27"/><line x1="217.79" y1="108.32" x2="247.37" y2="108.32"/><line x1="138.37" y1="170.61" x2="138.37" y2="161.27"/><line x1="248.93" y1="111.44" x2="230.24" y2="130.12"/><line x1="241.15" y1="195.53" x2="228.69" y2="201.76"/><line x1="230.24" y1="130.12" x2="210" y2="130.12"/><line x1="247.37" y1="108.32" x2="250.49" y2="105.21"/><line x1="135.25" y1="170.61" x2="135.25" y2="161.27"/><line x1="216.23" y1="114.55" x2="219.34" y2="111.44"/><line x1="185.08" y1="170.61" x2="185.08" y2="161.27"/><line x1="133.69" y1="170.61" x2="133.69" y2="161.27"/><line x1="152.38" y1="83.4" x2="157.05" y2="88.08"/><line x1="138.37" y1="114.55" x2="138.37" y2="111.44"/><line x1="147.71" y1="108.32" x2="138.37" y2="108.32"/><line x1="269.18" y1="123.89" x2="275.4" y2="130.12"/><line x1="281.63" y1="133.24" x2="290.98" y2="133.24"/><line x1="266.06" y1="117.66" x2="269.18" y2="123.89"/><line x1="270.73" y1="123.11" x2="276.18" y2="128.56"/><line x1="303.44" y1="111.44" x2="306.55" y2="114.55"/><line x1="160.17" y1="98.98" x2="160.17" y2="97.42"/><line x1="287.86" y1="204.87" x2="294.09" y2="204.87"/><line x1="290.98" y1="133.24" x2="306.55" y2="133.24"/><line x1="315.89" y1="186.18" x2="309.66" y2="186.18"/><line x1="309.66" y1="179.95" x2="309.66" y2="186.18"/><line x1="315.89" y1="179.95" x2="309.66" y2="179.95"/><line x1="244.26" y1="161.27" x2="256.72" y2="164.38"/><line x1="132.14" y1="83.4" x2="132.14" y2="80.29"/><line x1="138.37" y1="98.98" x2="144.6" y2="98.98"/><line x1="150.82" y1="86.52" x2="153.94" y2="89.63"/><line x1="144.6" y1="98.98" x2="144.6" y2="92.75"/><line x1="150.82" y1="105.21" x2="132.14" y2="105.21"/><line x1="144.6" y1="92.75" x2="138.37" y2="92.75"/><line x1="132.14" y1="105.21" x2="129.02" y2="102.09"/><line x1="129.02" y1="102.09" x2="129.02" y2="89.63"/><line x1="153.94" y1="89.63" x2="153.94" y2="102.09"/><line x1="138.37" y1="92.75" x2="138.37" y2="98.98"/><line x1="129.02" y1="89.63" x2="132.14" y2="86.52"/><line x1="200.66" y1="111.44" x2="200.66" y2="136.35"/><line x1="132.14" y1="86.52" x2="150.82" y2="86.52"/><line x1="132.14" y1="83.4" x2="133.69" y2="83.4"/><line x1="276.96" y1="204.87" x2="275.4" y2="201.76"/><line x1="259.83" y1="70.95" x2="262.95" y2="70.95"/><line x1="234.92" y1="42.92" x2="247.37" y2="42.92"/><line x1="259.83" y1="70.95" x2="259.83" y2="86.52"/><line x1="290.98" y1="64.72" x2="294.09" y2="64.72"/><line x1="294.09" y1="64.72" x2="294.09" y2="89.63"/><line x1="294.09" y1="89.63" x2="290.98" y2="89.63"/><line x1="289.42" y1="64.72" x2="286.31" y2="63.94"/><line x1="286.31" y1="63.94" x2="284.75" y2="77.18"/><line x1="286.31" y1="90.41" x2="289.42" y2="89.63"/><line x1="289.42" y1="89.63" x2="289.42" y2="64.72"/><line x1="286.31" y1="63.94" x2="283.19" y2="63.16"/><line x1="283.19" y1="63.16" x2="280.08" y2="77.18"/><line x1="283.19" y1="91.19" x2="286.31" y2="90.41"/><line x1="283.19" y1="63.16" x2="280.08" y2="62.38"/><line x1="280.08" y1="62.38" x2="273.85" y2="77.18"/><line x1="280.08" y1="91.97" x2="283.19" y2="91.19"/><line x1="284.75" y1="77.18" x2="286.31" y2="90.41"/><line x1="280.08" y1="77.18" x2="283.19" y2="91.19"/><line x1="273.85" y1="77.18" x2="280.08" y2="91.97"/><line x1="256.72" y1="162.82" x2="264.5" y2="161.27"/><line x1="197.54" y1="21.11" x2="210" y2="21.11"/><line x1="264.5" y1="161.27" x2="256.72" y2="159.71"/><line x1="256.72" y1="163.6" x2="266.84" y2="161.27"/><line x1="256.72" y1="160.49" x2="252.05" y2="161.27"/><line x1="266.84" y1="161.27" x2="256.72" y2="158.93"/><line x1="256.72" y1="159.71" x2="248.93" y2="161.27"/><line x1="275.4" y1="201.76" x2="262.95" y2="201.76"/><line x1="172.63" y1="21.11" x2="185.08" y2="21.11"/><line x1="252.05" y1="161.27" x2="256.72" y2="162.05"/><line x1="256.72" y1="162.05" x2="261.39" y2="161.27"/><line x1="248.93" y1="161.27" x2="256.72" y2="162.82"/><line x1="261.39" y1="161.27" x2="256.72" y2="160.49"/><line x1="256.72" y1="158.93" x2="246.6" y2="161.27"/><line x1="200.66" y1="136.35" x2="157.05" y2="148.81"/><line x1="281.63" y1="62.38" x2="285.53" y2="61.6"/><line x1="136.81" y1="114.55" x2="138.37" y2="114.55"/><line x1="133.69" y1="123.89" x2="133.69" y2="114.55"/><line x1="294.09" y1="206.43" x2="287.86" y2="206.43"/><line x1="216.23" y1="217.33" x2="160.17" y2="217.33"/><line x1="250.49" y1="201.76" x2="238.03" y2="201.76"/><line x1="160.17" y1="98.98" x2="157.05" y2="98.98"/><line x1="133.69" y1="83.4" x2="133.69" y2="80.29"/><line x1="290.98" y1="142.58" x2="309.66" y2="179.95"/><line x1="160.17" y1="97.42" x2="157.05" y2="97.42"/><line x1="152.38" y1="170.61" x2="153.94" y2="170.61"/><line x1="231.8" y1="136.35" x2="256.72" y2="111.44"/><line x1="210" y1="136.35" x2="231.8" y2="136.35"/><line x1="287.86" y1="208.76" x2="294.09" y2="208.76"/><line x1="132.14" y1="80.29" x2="129.02" y2="80.29"/><line x1="210" y1="151.92" x2="210" y2="139.47"/><line x1="309.66" y1="204.87" x2="297.21" y2="204.87"/><line x1="228.69" y1="201.76" x2="228.69" y2="204.87"/><line x1="147.71" y1="200.2" x2="141.48" y2="200.2"/><line x1="238.03" y1="201.76" x2="236.47" y2="204.87"/><line x1="147.71" y1="198.64" x2="141.48" y2="198.64"/><line x1="278.52" y1="198.64" x2="272.29" y2="195.53"/><line x1="150.82" y1="161.27" x2="150.82" y2="170.61"/><line x1="138.37" y1="161.27" x2="147.71" y2="161.27"/><line x1="256.72" y1="164.38" x2="269.18" y2="161.27"/><line x1="256.72" y1="158.15" x2="244.26" y2="161.27"/><line x1="157.05" y1="98.98" x2="157.05" y2="102.09"/><line x1="284.75" y1="201.76" x2="284.75" y2="204.87"/><line x1="216.23" y1="204.87" x2="203.77" y2="204.87"/><line x1="147.71" y1="201.76" x2="141.48" y2="201.76"/><line x1="133.69" y1="80.29" x2="132.14" y2="80.29"/><line x1="153.94" y1="170.61" x2="153.94" y2="161.27"/><line x1="152.38" y1="189.3" x2="150.82" y2="189.3"/><line x1="153.94" y1="198.64" x2="153.94" y2="189.3"/><line x1="262.95" y1="201.76" x2="250.49" y2="201.76"/><line x1="309.66" y1="186.18" x2="290.98" y2="186.18"/><line x1="153.94" y1="189.3" x2="152.38" y2="189.3"/><line x1="278.52" y1="189.3" x2="278.52" y2="198.64"/><line x1="150.82" y1="170.61" x2="152.38" y2="170.61"/><line x1="152.38" y1="189.3" x2="152.38" y2="176.84"/><line x1="290.98" y1="133.24" x2="290.98" y2="142.58"/><line x1="150.82" y1="189.3" x2="150.82" y2="198.64"/><line x1="287.86" y1="179.95" x2="278.52" y2="189.3"/><line x1="290.98" y1="186.18" x2="284.75" y2="192.41"/><line x1="246.6" y1="161.27" x2="256.72" y2="163.6"/><line x1="284.75" y1="192.41" x2="284.75" y2="201.76"/><line x1="309.66" y1="217.33" x2="297.21" y2="217.33"/><line x1="284.75" y1="201.76" x2="278.52" y2="198.64"/><line x1="153.94" y1="170.61" x2="178.85" y2="161.27"/><line x1="147.71" y1="158.15" x2="138.37" y2="158.15"/><line x1="160.17" y1="105.21" x2="200.66" y2="105.21"/><line x1="133.69" y1="83.4" x2="152.38" y2="83.4"/><line x1="147.71" y1="151.92" x2="138.37" y2="151.92"/><line x1="200.66" y1="102.09" x2="160.17" y2="102.09"/><line x1="147.71" y1="155.04" x2="138.37" y2="155.04"/><line x1="160.17" y1="61.6" x2="157.05" y2="61.6"/><line x1="147.71" y1="203.31" x2="141.48" y2="203.31"/><line x1="138.37" y1="195.53" x2="138.37" y2="186.18"/><line x1="135.25" y1="195.53" x2="135.25" y2="186.18"/><line x1="157.05" y1="155.04" x2="175.74" y2="155.04"/><line x1="262.95" y1="89.63" x2="262.95" y2="70.95"/><line x1="247.37" y1="42.92" x2="253.6" y2="49.15"/><line x1="253.6" y1="61.6" x2="253.6" y2="64.72"/><line x1="234.92" y1="61.6" x2="231.8" y2="61.6"/><line x1="231.8" y1="42.92" x2="234.92" y2="42.92"/><line x1="228.69" y1="42.92" x2="231.8" y2="42.92"/><line x1="244.26" y1="52.26" x2="245.82" y2="53.82"/><line x1="225.57" y1="42.92" x2="228.69" y2="42.92"/><line x1="228.69" y1="61.6" x2="228.69" y2="42.92"/><line x1="213.11" y1="64.72" x2="216.23" y2="64.72"/><line x1="231.8" y1="61.6" x2="231.8" y2="42.92"/><line x1="216.23" y1="64.72" x2="234.92" y2="64.72"/><line x1="225.57" y1="61.6" x2="225.57" y2="42.92"/><line x1="210" y1="64.72" x2="213.11" y2="64.72"/><line x1="222.46" y1="42.92" x2="225.57" y2="42.92"/><line x1="222.46" y1="61.6" x2="222.46" y2="42.92"/><line x1="210" y1="61.6" x2="210" y2="24.23"/><line x1="225.57" y1="61.6" x2="222.46" y2="61.6"/><line x1="197.54" y1="61.6" x2="197.54" y2="24.23"/><line x1="185.08" y1="61.6" x2="185.08" y2="24.23"/><line x1="185.08" y1="64.72" x2="197.54" y2="64.72"/><line x1="172.63" y1="61.6" x2="172.63" y2="24.23"/><line x1="150.82" y1="42.92" x2="153.94" y2="42.92"/><line x1="157.05" y1="42.92" x2="160.17" y2="42.92"/><line x1="234.92" y1="42.92" x2="244.26" y2="52.26"/><line x1="157.05" y1="61.6" x2="153.94" y2="61.6"/><line x1="147.71" y1="42.92" x2="150.82" y2="42.92"/><line x1="129.02" y1="49.15" x2="135.25" y2="42.92"/><line x1="147.71" y1="61.6" x2="147.71" y2="64.72"/><line x1="129.02" y1="80.29" x2="129.02" y2="61.6"/><line x1="153.94" y1="42.92" x2="153.94" y2="61.6"/><line x1="166.4" y1="64.72" x2="169.51" y2="64.72"/><line x1="150.82" y1="42.92" x2="150.82" y2="61.6"/><line x1="147.71" y1="64.72" x2="166.4" y2="64.72"/><line x1="135.25" y1="42.92" x2="147.71" y2="42.92"/><line x1="157.05" y1="42.92" x2="157.05" y2="61.6"/><line x1="169.51" y1="64.72" x2="172.63" y2="64.72"/><line x1="129.02" y1="61.6" x2="129.02" y2="49.15"/><line x1="160.17" y1="42.92" x2="160.17" y2="61.6"/><line x1="169.51" y1="83.4" x2="169.51" y2="64.72"/><line x1="213.11" y1="83.4" x2="169.51" y2="83.4"/><line x1="213.11" y1="64.72" x2="213.11" y2="83.4"/><line x1="228.69" y1="61.6" x2="225.57" y2="61.6"/><line x1="166.4" y1="64.72" x2="166.4" y2="86.52"/><line x1="166.4" y1="86.52" x2="216.23" y2="86.52"/><line x1="216.23" y1="86.52" x2="216.23" y2="64.72"/><line x1="231.8" y1="61.6" x2="228.69" y2="61.6"/><line x1="153.94" y1="61.6" x2="150.82" y2="61.6"/><line x1="185.08" y1="61.6" x2="172.63" y2="61.6"/><line x1="172.63" y1="64.72" x2="185.08" y2="64.72"/><line x1="197.54" y1="64.72" x2="210" y2="64.72"/><line x1="210" y1="61.6" x2="197.54" y2="61.6"/><line x1="197.54" y1="63.16" x2="210" y2="63.16"/><line x1="172.63" y1="63.16" x2="185.08" y2="63.16"/><line x1="150.82" y1="61.6" x2="147.71" y2="61.6"/><line x1="138.37" y1="100.53" x2="144.6" y2="100.53"/><line x1="144.6" y1="100.53" x2="147.71" y2="98.98"/><line x1="135.25" y1="98.98" x2="138.37" y2="100.53"/><line x1="147.71" y1="98.98" x2="147.71" y2="92.75"/><line x1="144.6" y1="91.19" x2="138.37" y2="91.19"/><line x1="138.37" y1="91.19" x2="135.25" y2="92.75"/><line x1="147.71" y1="92.75" x2="144.6" y2="91.19"/><line x1="135.25" y1="92.75" x2="135.25" y2="98.98"/><line x1="129.02" y1="61.6" x2="136.81" y2="53.82"/><line x1="153.94" y1="42.92" x2="157.05" y2="42.92"/><line x1="136.81" y1="53.82" x2="147.71" y2="64.72"/><line x1="136.81" y1="53.82" x2="138.37" y2="52.26"/><line x1="138.37" y1="52.26" x2="147.71" y2="61.6"/><line x1="138.37" y1="52.26" x2="147.71" y2="42.92"/><line x1="234.92" y1="64.72" x2="234.92" y2="61.6"/><line x1="234.92" y1="64.72" x2="245.82" y2="53.82"/><line x1="245.82" y1="53.82" x2="253.6" y2="61.6"/><line x1="234.92" y1="61.6" x2="244.26" y2="52.26"/><line x1="147.71" y1="148.81" x2="138.37" y2="148.81"/><line x1="150.82" y1="139.47" x2="150.82" y2="127.01"/><line x1="129.02" y1="108.32" x2="125.91" y2="105.21"/><line x1="147.71" y1="127.01" x2="147.71" y2="139.47"/><line x1="160.17" y1="97.42" x2="160.17" y2="86.52"/><line x1="125.91" y1="105.21" x2="125.91" y2="86.52"/><line x1="125.91" y1="86.52" x2="129.02" y2="83.4"/><line x1="138.37" y1="108.32" x2="129.02" y2="108.32"/><line x1="153.94" y1="80.29" x2="133.69" y2="80.29"/><line x1="129.02" y1="83.4" x2="132.14" y2="83.4"/><line x1="287.86" y1="207.21" x2="294.09" y2="207.21"/><line x1="160.17" y1="86.52" x2="153.94" y2="80.29"/><line x1="157.05" y1="88.08" x2="157.05" y2="97.42"/><line x1="160.17" y1="102.09" x2="160.17" y2="98.98"/><line x1="138.37" y1="111.44" x2="138.37" y2="108.32"/><line x1="136.81" y1="123.89" x2="136.81" y2="114.55"/><line x1="157.05" y1="97.42" x2="157.05" y2="98.98"/><line x1="138.37" y1="114.55" x2="138.37" y2="123.89"/><line x1="135.25" y1="123.89" x2="135.25" y2="114.55"/><line x1="225.57" y1="102.09" x2="247.37" y2="105.21"/><line x1="269.18" y1="161.27" x2="256.72" y2="158.15"/><line x1="260.61" y1="195.53" x2="259.05" y2="192.41"/><line x1="259.05" y1="192.41" x2="254.38" y2="192.41"/><line x1="254.38" y1="192.41" x2="252.82" y2="195.53"/><line x1="252.82" y1="195.53" x2="241.15" y2="195.53"/><line x1="260.61" y1="195.53" x2="252.82" y2="195.53"/><line x1="292.53" y1="221.22" x2="289.42" y2="221.22"/><line x1="315.8" y1="155.04" x2="315.8" y2="173.73"/></g><g stroke="#d3b15b" stroke-width="2.4" stroke-linecap="round"><line x1="175.74" y1="161.27" x2="178.85" y2="161.27"/><line x1="200.66" y1="161.27" x2="203.77" y2="161.27"/><line x1="203.77" y1="161.27" x2="210" y2="155.04"/><line x1="210" y1="155.04" x2="210" y2="151.92"/><line x1="210" y1="120.78" x2="210" y2="111.44"/><line x1="210" y1="111.44" x2="216.23" y2="105.21"/><line x1="216.23" y1="105.21" x2="222.46" y2="105.21"/><line x1="252.82" y1="107.54" x2="256.72" y2="111.44"/><line x1="256.72" y1="111.44" x2="266.06" y2="111.44"/><line x1="306.55" y1="133.24" x2="312.78" y2="133.24"/><line x1="315.89" y1="186.18" x2="315.89" y2="198.64"/><line x1="247.37" y1="105.21" x2="250.49" y2="105.21"/><line x1="244.26" y1="102.09" x2="247.37" y2="105.21"/><line x1="222.46" y1="105.21" x2="225.57" y2="102.09"/><line x1="225.57" y1="102.09" x2="225.57" y2="98.98"/><line x1="247.37" y1="95.86" x2="244.26" y2="98.98"/><line x1="244.26" y1="98.98" x2="244.26" y2="102.09"/><line x1="294.09" y1="204.87" x2="294.09" y2="206.43"/><line x1="178.85" y1="161.27" x2="185.08" y2="161.27"/><line x1="275.4" y1="92.75" x2="272.29" y2="89.63"/><line x1="136.81" y1="170.61" x2="135.25" y2="170.61"/><line x1="141.48" y1="203.31" x2="141.48" y2="201.76"/><line x1="225.57" y1="98.98" x2="222.46" y2="95.86"/><line x1="222.46" y1="95.86" x2="206.89" y2="95.86"/><line x1="135.25" y1="186.18" x2="136.81" y2="186.18"/><line x1="287.86" y1="208.76" x2="287.86" y2="207.21"/><line x1="153.94" y1="161.27" x2="157.05" y2="161.27"/><line x1="175.74" y1="158.15" x2="175.74" y2="161.27"/><line x1="157.05" y1="161.27" x2="157.05" y2="158.15"/><line x1="157.05" y1="158.15" x2="157.05" y2="155.04"/><line x1="157.05" y1="148.81" x2="150.82" y2="142.58"/><line x1="157.05" y1="102.09" x2="157.05" y2="103.65"/><line x1="175.74" y1="151.92" x2="175.74" y2="155.04"/><line x1="157.05" y1="151.92" x2="157.05" y2="148.81"/><line x1="194.43" y1="148.81" x2="175.74" y2="148.81"/><line x1="175.74" y1="148.81" x2="175.74" y2="151.92"/><line x1="147.71" y1="108.32" x2="147.71" y2="111.44"/><line x1="160.17" y1="198.64" x2="153.94" y2="198.64"/><line x1="185.08" y1="161.27" x2="200.66" y2="161.27"/><line x1="272.29" y1="89.63" x2="262.95" y2="89.63"/><line x1="250.49" y1="105.21" x2="252.82" y2="107.54"/><line x1="284.75" y1="204.87" x2="276.96" y2="204.87"/><line x1="206.89" y1="95.86" x2="200.66" y2="102.09"/><line x1="306.55" y1="131.68" x2="306.55" y2="133.24"/><line x1="306.55" y1="130.12" x2="306.55" y2="131.68"/><line x1="138.37" y1="176.84" x2="138.37" y2="170.61"/><line x1="312.78" y1="36.69" x2="306.55" y2="130.12"/><line x1="256.72" y1="89.63" x2="250.49" y2="95.86"/><line x1="250.49" y1="95.86" x2="247.37" y2="95.86"/><line x1="202.21" y1="136.35" x2="200.66" y2="136.35"/><line x1="272.29" y1="111.44" x2="275.4" y2="108.32"/><line x1="269.18" y1="111.44" x2="272.29" y2="111.44"/><line x1="275.4" y1="108.32" x2="275.4" y2="92.75"/><line x1="266.06" y1="111.44" x2="267.62" y2="111.44"/><line x1="157.05" y1="155.04" x2="157.05" y2="151.92"/><line x1="200.66" y1="142.58" x2="194.43" y2="148.81"/><line x1="294.09" y1="206.43" x2="294.09" y2="207.21"/><line x1="210" y1="139.47" x2="210" y2="136.35"/><line x1="297.21" y1="204.87" x2="294.09" y2="204.87"/><line x1="104.11" y1="95.86" x2="122.79" y2="36.69"/><line x1="132.14" y1="161.27" x2="133.69" y2="161.27"/><line x1="135.25" y1="161.27" x2="136.81" y2="161.27"/><line x1="135.25" y1="170.61" x2="133.69" y2="170.61"/><line x1="136.81" y1="161.27" x2="138.37" y2="161.27"/><line x1="132.14" y1="170.61" x2="132.14" y2="161.27"/><line x1="138.37" y1="170.61" x2="136.81" y2="170.61"/><line x1="267.62" y1="111.44" x2="269.18" y2="111.44"/><line x1="133.69" y1="161.27" x2="135.25" y2="161.27"/><line x1="151.99" y1="113.38" x2="160.17" y2="105.21"/><line x1="286.31" y1="219.66" x2="286.31" y2="210.32"/><line x1="210" y1="151.92" x2="208.44" y2="151.92"/><line x1="208.44" y1="151.92" x2="208.44" y2="139.47"/><line x1="133.69" y1="170.61" x2="132.14" y2="170.61"/><line x1="132.14" y1="186.18" x2="133.69" y2="186.18"/><line x1="138.37" y1="158.15" x2="138.37" y2="155.04"/><line x1="312.78" y1="133.24" x2="315.89" y2="136.35"/><line x1="287.86" y1="221.22" x2="286.31" y2="219.66"/><line x1="287.86" y1="206.43" x2="287.86" y2="204.87"/><line x1="286.31" y1="210.32" x2="287.86" y2="208.76"/><line x1="315.89" y1="179.95" x2="315.89" y2="186.18"/><line x1="236.47" y1="204.87" x2="228.69" y2="204.87"/><line x1="276.96" y1="204.87" x2="236.47" y2="204.87"/><line x1="315.89" y1="136.35" x2="315.89" y2="179.95"/><line x1="200.66" y1="111.44" x2="202.21" y2="111.44"/><line x1="202.21" y1="111.44" x2="203.77" y2="111.44"/><line x1="294.09" y1="207.21" x2="294.09" y2="208.76"/><line x1="175.74" y1="155.04" x2="175.74" y2="158.15"/><line x1="309.66" y1="198.64" x2="309.66" y2="204.87"/><line x1="262.95" y1="89.63" x2="256.72" y2="89.63"/><line x1="147.71" y1="112.99" x2="147.71" y2="127.01"/><line x1="203.77" y1="111.44" x2="203.77" y2="136.35"/><line x1="172.63" y1="18" x2="185.08" y2="18"/><line x1="200.66" y1="136.35" x2="200.66" y2="142.58"/><line x1="203.77" y1="136.35" x2="202.21" y2="136.35"/><line x1="185.08" y1="18" x2="185.08" y2="21.11"/><line x1="210" y1="18" x2="210" y2="21.11"/><line x1="197.54" y1="18" x2="210" y2="18"/><line x1="216.23" y1="217.33" x2="188.2" y2="220.44"/><line x1="309.66" y1="217.33" x2="303.44" y2="220.44"/><line x1="210" y1="125.45" x2="210" y2="120.78"/><line x1="315.89" y1="198.64" x2="309.66" y2="198.64"/><line x1="125.91" y1="81.85" x2="129.02" y2="83.4"/><line x1="135.25" y1="195.53" x2="133.69" y2="195.53"/><line x1="160.17" y1="204.87" x2="160.17" y2="198.64"/><line x1="303.44" y1="220.44" x2="297.21" y2="217.33"/><line x1="210" y1="130.12" x2="210" y2="125.45"/><line x1="208.44" y1="139.47" x2="210" y2="139.47"/><line x1="294.09" y1="221.22" x2="292.53" y2="221.22"/><line x1="210" y1="136.35" x2="210" y2="130.12"/><line x1="147.71" y1="200.2" x2="147.71" y2="201.76"/><line x1="141.48" y1="204.87" x2="141.48" y2="203.31"/><line x1="141.48" y1="201.76" x2="141.48" y2="200.2"/><line x1="147.71" y1="201.76" x2="147.71" y2="203.31"/><line x1="309.66" y1="204.87" x2="309.66" y2="217.33"/><line x1="141.48" y1="200.2" x2="141.48" y2="198.64"/><line x1="153.94" y1="198.64" x2="150.82" y2="198.64"/><line x1="147.71" y1="204.87" x2="141.48" y2="204.87"/><line x1="147.71" y1="198.64" x2="147.71" y2="200.2"/><line x1="188.2" y1="220.44" x2="160.17" y2="217.33"/><line x1="138.37" y1="186.18" x2="138.37" y2="176.84"/><line x1="141.48" y1="198.64" x2="141.48" y2="195.53"/><line x1="297.21" y1="217.33" x2="297.21" y2="204.87"/><line x1="228.69" y1="204.87" x2="216.23" y2="204.87"/><line x1="160.17" y1="217.33" x2="160.17" y2="204.87"/><line x1="141.48" y1="195.53" x2="138.37" y2="195.53"/><line x1="150.82" y1="198.64" x2="147.71" y2="198.64"/><line x1="294.09" y1="208.76" x2="295.65" y2="210.32"/><line x1="216.23" y1="204.87" x2="216.23" y2="217.33"/><line x1="150.82" y1="161.27" x2="153.94" y2="161.27"/><line x1="295.65" y1="210.32" x2="295.65" y2="219.66"/><line x1="147.71" y1="158.15" x2="147.71" y2="161.27"/><line x1="147.71" y1="139.47" x2="147.71" y2="148.81"/><line x1="200.66" y1="102.09" x2="200.66" y2="105.21"/><line x1="147.71" y1="161.27" x2="150.82" y2="161.27"/><line x1="138.37" y1="155.04" x2="138.37" y2="151.92"/><line x1="150.82" y1="142.58" x2="150.82" y2="139.47"/><line x1="147.71" y1="155.04" x2="147.71" y2="158.15"/><line x1="138.37" y1="151.92" x2="138.37" y2="148.81"/><line x1="147.71" y1="148.81" x2="147.71" y2="151.92"/><line x1="147.71" y1="151.92" x2="147.71" y2="155.04"/><line x1="138.37" y1="161.27" x2="138.37" y2="158.15"/><line x1="295.65" y1="219.66" x2="294.09" y2="221.22"/><line x1="200.66" y1="105.21" x2="200.66" y2="111.44"/><line x1="160.17" y1="105.21" x2="160.17" y2="102.09"/><line x1="150.82" y1="114.55" x2="151.99" y2="113.38"/><line x1="147.71" y1="203.31" x2="147.71" y2="204.87"/><line x1="138.37" y1="195.53" x2="136.81" y2="195.53"/><line x1="132.14" y1="195.53" x2="132.14" y2="186.18"/><line x1="136.81" y1="195.53" x2="135.25" y2="195.53"/><line x1="133.69" y1="195.53" x2="132.14" y2="195.53"/><line x1="136.81" y1="186.18" x2="138.37" y2="186.18"/><line x1="133.69" y1="186.18" x2="135.25" y2="186.18"/><line x1="191.31" y1="63.16" x2="197.54" y2="64.72"/><line x1="222.46" y1="61.6" x2="210" y2="61.6"/><line x1="222.46" y1="42.92" x2="312.78" y2="36.69"/><line x1="197.54" y1="24.23" x2="197.54" y2="21.11"/><line x1="210" y1="24.23" x2="222.46" y2="24.23"/><line x1="222.46" y1="24.23" x2="222.46" y2="42.92"/><line x1="197.54" y1="21.11" x2="197.54" y2="18"/><line x1="210" y1="21.11" x2="210" y2="24.23"/><line x1="185.08" y1="24.23" x2="197.54" y2="24.23"/><line x1="197.54" y1="61.6" x2="185.08" y2="61.6"/><line x1="172.63" y1="24.23" x2="172.63" y2="21.11"/><line x1="172.63" y1="21.11" x2="172.63" y2="18"/><line x1="185.08" y1="21.11" x2="185.08" y2="24.23"/><line x1="160.17" y1="24.23" x2="172.63" y2="24.23"/><line x1="172.63" y1="61.6" x2="160.17" y2="61.6"/><line x1="160.17" y1="42.92" x2="160.17" y2="24.23"/><line x1="172.63" y1="64.72" x2="172.63" y2="63.16"/><line x1="160.17" y1="61.6" x2="172.63" y2="64.72"/><line x1="185.08" y1="61.6" x2="185.08" y2="63.16"/><line x1="210" y1="61.6" x2="210" y2="63.16"/><line x1="197.54" y1="64.72" x2="197.54" y2="63.16"/><line x1="197.54" y1="63.16" x2="197.54" y2="61.6"/><line x1="210" y1="63.16" x2="210" y2="64.72"/><line x1="172.63" y1="63.16" x2="172.63" y2="61.6"/><line x1="185.08" y1="63.16" x2="185.08" y2="64.72"/><line x1="210" y1="64.72" x2="222.46" y2="61.6"/><line x1="185.08" y1="64.72" x2="191.31" y2="63.16"/><line x1="147.71" y1="127.01" x2="150.82" y2="127.01"/><line x1="150.82" y1="139.47" x2="147.71" y2="139.47"/><line x1="150.82" y1="127.01" x2="150.82" y2="123.89"/><line x1="150.82" y1="123.89" x2="150.82" y2="117.66"/><line x1="147.71" y1="111.44" x2="147.71" y2="112.99"/><line x1="150.82" y1="117.66" x2="150.82" y2="114.55"/><line x1="287.86" y1="207.21" x2="287.86" y2="206.43"/><line x1="287.86" y1="204.87" x2="284.75" y2="204.87"/><line x1="157.05" y1="103.65" x2="152.38" y2="108.32"/><line x1="152.38" y1="108.32" x2="147.71" y2="108.32"/><line x1="138.37" y1="148.81" x2="138.37" y2="123.89"/><line x1="136.81" y1="114.55" x2="104.11" y2="95.86"/><line x1="129.02" y1="83.4" x2="129.02" y2="80.29"/><line x1="160.17" y1="102.09" x2="157.05" y2="102.09"/><line x1="129.02" y1="80.29" x2="125.91" y2="81.85"/><line x1="122.79" y1="36.69" x2="160.17" y2="42.92"/><line x1="136.81" y1="123.89" x2="135.25" y2="123.89"/><line x1="132.14" y1="114.55" x2="133.69" y2="114.55"/><line x1="135.25" y1="114.55" x2="136.81" y2="114.55"/><line x1="135.25" y1="123.89" x2="133.69" y2="123.89"/><line x1="132.14" y1="123.89" x2="132.14" y2="114.55"/><line x1="138.37" y1="123.89" x2="136.81" y2="123.89"/><line x1="133.69" y1="114.55" x2="135.25" y2="114.55"/><line x1="133.69" y1="123.89" x2="132.14" y2="123.89"/><line x1="289.42" y1="222" x2="289.42" y2="221.22"/><line x1="292.53" y1="221.22" x2="292.53" y2="222"/><line x1="292.53" y1="222" x2="289.42" y2="222"/><line x1="289.42" y1="221.22" x2="287.86" y2="221.22"/></g><g opacity="0.95"><circle cx="203.77" cy="25.01" r="2.2" fill="#d3b15b"/><circle cx="256.72" cy="161.27" r="2.2" fill="#d3b15b"/><circle cx="127.47" cy="92.75" r="2.2" fill="#d3b15b"/><circle cx="191.31" cy="67.83" r="2.2" fill="#d3b15b"/><circle cx="195.21" cy="59.27" r="2.2" fill="#d3b15b"/><circle cx="134.47" cy="48.37" r="3.2" fill="#b7493c"/><circle cx="178.85" cy="24.23" r="3.2" fill="#b7493c"/><circle cx="251.27" cy="90.41" r="3.2" fill="#b7493c"/><circle cx="195.21" cy="143.36" r="3.2" fill="#b7493c"/><circle cx="281.63" cy="63.94" r="3.2" fill="#b7493c"/><circle cx="307.33" cy="202.53" r="3.2" fill="#b7493c"/><circle cx="162.5" cy="202.53" r="3.2" fill="#b7493c"/><circle cx="149.27" cy="179.95" r="2.2" fill="#d3b15b"/><circle cx="252.05" cy="111.44" r="3.2" fill="#b7493c"/><circle cx="263.73" cy="113.77" r="3.2" fill="#b7493c"/><circle cx="281.63" cy="100.53" r="2.2" fill="#d3b15b"/><circle cx="312.78" cy="195.53" r="2.2" fill="#d3b15b"/><circle cx="290.98" cy="214.99" r="2.2" fill="#d3b15b"/><circle cx="191.31" cy="26.18" r="2.2" fill="#d3b15b"/><circle cx="203.77" cy="65.5" r="2.2" fill="#d3b15b"/><circle cx="187.42" cy="59.27" r="2.2" fill="#d3b15b"/><circle cx="152.38" cy="114.55" r="2.2" fill="#d3b15b"/><circle cx="155.5" cy="111.44" r="2.2" fill="#d3b15b"/><circle cx="158.61" cy="108.32" r="2.2" fill="#d3b15b"/><circle cx="178.85" cy="65.5" r="2.2" fill="#d3b15b"/><circle cx="248.93" cy="47.59" r="2.2" fill="#d3b15b"/><circle cx="255.94" cy="113.77" r="3.2" fill="#b7493c"/><circle cx="259.83" cy="113.77" r="3.2" fill="#b7493c"/><circle cx="141.48" cy="95.86" r="2.2" fill="#d3b15b"/><circle cx="312.78" cy="136.35" r="3.2" fill="#b7493c"/><circle cx="127.47" cy="98.98" r="2.2" fill="#d3b15b"/><circle cx="127.47" cy="95.86" r="2.2" fill="#d3b15b"/><circle cx="129.02" cy="86.52" r="2.2" fill="#d3b15b"/><circle cx="129.02" cy="105.21" r="2.2" fill="#d3b15b"/><circle cx="127.47" cy="102.09" r="2.2" fill="#d3b15b"/><circle cx="127.47" cy="89.63" r="2.2" fill="#d3b15b"/><circle cx="188.2" cy="26.18" r="2.2" fill="#d3b15b"/><circle cx="194.43" cy="26.18" r="2.2" fill="#d3b15b"/><circle cx="217.01" cy="112.21" r="3.2" fill="#b7493c"/><circle cx="226.35" cy="202.53" r="2.2" fill="#d3b15b"/><circle cx="302.66" cy="115.33" r="3.2" fill="#b7493c"/><circle cx="256.72" cy="193.58" r="2.2" fill="#d3b15b"/><circle cx="261.78" cy="194.75" r="2.2" fill="#d3b15b"/><circle cx="251.66" cy="194.75" r="2.2" fill="#d3b15b"/><circle cx="156.27" cy="196.31" r="2.2" fill="#d3b15b"/></g></svg>