<svg xmlns="http://www.w3.org/2000/svg" viewBox="0 0 420 240" role="img"><rect width="100%" height="100%" fill="#070706"/><g stroke="#5e5a4f" stroke-width="1.6" stroke-linecap="round"><line x1="283.32" y1="107.3" x2="213.63" y2="107.3"/><line x1="194.75" y1="117.46" x2="180.23" y2="117.46"/><line x1="281.87" y1="153.76" x2="283.32" y2="153.76"/><line x1="283.32" y1="118.91" x2="283.32" y2="133.43"/><line x1="239.77" y1="166.83" x2="212.18" y2="166.83"/><line x1="241.22" y1="31.07" x2="235.41" y2="31.07"/><line x1="239.77" y1="166.83" x2="239.77" y2="168.28"/><line x1="263" y1="153.76" x2="281.87" y2="153.76"/><line x1="263" y1="165.37" x2="263" y2="159.57"/><line x1="206.37" y1="105.84" x2="203.47" y2="105.84"/><line x1="281.87" y1="165.37" x2="281.87" y2="167.55"/><line x1="281.87" y1="167.55" x2="279.69" y2="169.73"/><line x1="263" y1="165.37" x2="281.87" y2="165.37"/><line x1="263" y1="171.18" x2="263" y2="169.73"/><line x1="206.37" y1="91.32" x2="206.37" y2="105.84"/><line x1="281.87" y1="165.37" x2="283.32" y2="165.37"/><line x1="309.46" y1="75.35" x2="309.46" y2="89.87"/><line x1="309.46" y1="95.68" x2="286.23" y2="95.68"/><line x1="263" y1="171.18" x2="280.42" y2="171.18"/><line x1="263" y1="152.31" x2="261.54" y2="150.85"/><line x1="263" y1="169.73" x2="263" y2="165.37"/><line x1="212.18" y1="91.32" x2="212.18" y2="105.84"/><line x1="207.82" y1="162.47" x2="199.11" y2="162.47"/><line x1="213.63" y1="120.36" x2="213.63" y2="118.91"/><line x1="180.23" y1="108.75" x2="194.75" y2="108.75"/><line x1="271.71" y1="46.31" x2="265.9" y2="46.31"/><line x1="268.8" y1="191.51" x2="263" y2="185.7"/><line x1="265.9" y1="52.12" x2="271.71" y2="52.12"/><line x1="158.46" y1="188.6" x2="154.1" y2="188.6"/><line x1="125.06" y1="154.48" x2="125.06" y2="141.42"/><line x1="280.42" y1="191.51" x2="268.8" y2="191.51"/><line x1="225.97" y1="56.48" x2="276.79" y2="56.48"/><line x1="207.82" y1="107.3" x2="207.82" y2="89.87"/><line x1="215.08" y1="108.75" x2="281.87" y2="108.75"/><line x1="213.63" y1="107.3" x2="213.63" y2="89.87"/><line x1="215.08" y1="117.46" x2="215.08" y2="108.75"/><line x1="196.21" y1="107.3" x2="196.21" y2="89.87"/><line x1="162.81" y1="200.22" x2="162.81" y2="188.6"/><line x1="196.21" y1="113.1" x2="178.78" y2="113.1"/><line x1="143.94" y1="86.97" x2="161.36" y2="86.97"/><line x1="158.46" y1="200.22" x2="158.46" y2="188.6"/><line x1="213.63" y1="168.28" x2="213.63" y2="188.6"/><line x1="225.25" y1="168.28" x2="213.63" y2="168.28"/><line x1="213.63" y1="145.05" x2="213.63" y2="120.36"/><line x1="213.63" y1="168.28" x2="212.18" y2="166.83"/><line x1="241.22" y1="29.62" x2="235.41" y2="29.62"/><line x1="180.23" y1="114.56" x2="194.75" y2="114.56"/><line x1="133.77" y1="188.6" x2="133.77" y2="176.26"/><line x1="201.29" y1="166.83" x2="193.3" y2="174.81"/><line x1="213.63" y1="168.28" x2="202.01" y2="168.28"/><line x1="271.71" y1="52.12" x2="271.71" y2="46.31"/><line x1="180.23" y1="146.5" x2="186.04" y2="146.5"/><line x1="300.75" y1="130.53" x2="294.94" y2="130.53"/><line x1="212.18" y1="166.83" x2="201.29" y2="166.83"/><line x1="212.18" y1="166.83" x2="207.82" y2="162.47"/><line x1="239.77" y1="168.28" x2="225.25" y2="168.28"/><line x1="207.82" y1="150.85" x2="213.63" y2="145.05"/><line x1="122.16" y1="155.21" x2="123.61" y2="153.76"/><line x1="255.74" y1="171.18" x2="244.12" y2="168.28"/><line x1="225.25" y1="188.6" x2="225.25" y2="168.28"/><line x1="300.75" y1="124.72" x2="300.75" y2="130.53"/><line x1="125.06" y1="141.42" x2="122.16" y2="138.51"/><line x1="235.41" y1="31.79" x2="241.22" y2="31.79"/><line x1="294.94" y1="130.53" x2="294.94" y2="124.72"/><line x1="283.32" y1="153.76" x2="283.32" y2="159.57"/><line x1="186.04" y1="146.5" x2="186.04" y2="140.69"/><line x1="209.27" y1="91.32" x2="212.18" y2="91.32"/><line x1="123.61" y1="142.14" x2="122.16" y2="140.69"/><line x1="171.52" y1="198.77" x2="167.17" y2="198.77"/><line x1="149.74" y1="208.93" x2="132.32" y2="208.93"/><line x1="167.17" y1="198.77" x2="166.44" y2="198.77"/><line x1="281.87" y1="68.09" x2="265.9" y2="68.09"/><line x1="152.65" y1="69.54" x2="146.84" y2="69.54"/><line x1="271.71" y1="89.87" x2="266.63" y2="89.87"/><line x1="254.28" y1="159.57" x2="254.28" y2="165.37"/><line x1="162.81" y1="200.22" x2="158.46" y2="200.22"/><line x1="163.54" y1="200.22" x2="149.02" y2="207.48"/><line x1="143.94" y1="95.68" x2="161.36" y2="95.68"/><line x1="294.94" y1="124.72" x2="300.75" y2="124.72"/><line x1="166.44" y1="198.77" x2="163.54" y2="200.22"/><line x1="309.46" y1="145.05" x2="309.46" y2="168.28"/><line x1="186.04" y1="140.69" x2="180.23" y2="140.69"/><line x1="175.88" y1="120.36" x2="213.63" y2="120.36"/><line x1="154.1" y1="200.22" x2="154.1" y2="188.6"/><line x1="202.01" y1="84.06" x2="202.01" y2="66.64"/><line x1="228.15" y1="34.7" x2="258.64" y2="34.7"/><line x1="164.26" y1="84.06" x2="164.26" y2="66.64"/><line x1="265.9" y1="70.27" x2="266.63" y2="69.54"/><line x1="193.3" y1="174.81" x2="191.85" y2="176.26"/><line x1="203.47" y1="91.32" x2="206.37" y2="91.32"/><line x1="281.87" y1="61.56" x2="281.87" y2="68.09"/><line x1="175.88" y1="147.95" x2="178.78" y2="150.85"/><line x1="122.16" y1="155.21" x2="122.16" y2="140.69"/><line x1="178.78" y1="150.85" x2="207.82" y2="150.85"/><line x1="202.01" y1="107.3" x2="202.01" y2="89.87"/><line x1="281.87" y1="117.46" x2="215.08" y2="117.46"/><line x1="281.87" y1="108.75" x2="281.87" y2="117.46"/><line x1="213.63" y1="84.06" x2="213.63" y2="66.64"/><line x1="186.77" y1="198.77" x2="171.52" y2="198.77"/><line x1="264.45" y1="89.87" x2="265.9" y2="91.32"/><line x1="264.45" y1="69.54" x2="264.45" y2="89.87"/><line x1="146.84" y1="69.54" x2="146.84" y2="75.35"/><line x1="265.9" y1="68.09" x2="264.45" y2="69.54"/><line x1="271.71" y1="89.87" x2="271.71" y2="69.54"/><line x1="281.87" y1="69.54" x2="281.87" y2="89.87"/><line x1="283.32" y1="68.09" x2="281.87" y2="68.09"/><line x1="265.9" y1="91.32" x2="281.87" y2="91.32"/><line x1="309.46" y1="139.24" x2="286.23" y2="139.24"/><line x1="286.23" y1="174.09" x2="286.23" y2="191.51"/><line x1="280.42" y1="174.09" x2="280.42" y2="191.51"/><line x1="277.52" y1="89.87" x2="277.52" y2="69.54"/><line x1="286.23" y1="89.87" x2="286.23" y2="69.54"/><line x1="277.52" y1="89.87" x2="271.71" y2="89.87"/><line x1="266.63" y1="69.54" x2="271.71" y2="69.54"/><line x1="271.71" y1="69.54" x2="277.52" y2="69.54"/><line x1="266.63" y1="89.87" x2="265.9" y2="89.15"/><line x1="277.52" y1="69.54" x2="281.87" y2="69.54"/><line x1="265.9" y1="89.15" x2="265.9" y2="70.27"/><line x1="122.16" y1="140.69" x2="122.16" y2="138.51"/><line x1="122.16" y1="157.39" x2="125.06" y2="154.48"/><line x1="283.32" y1="95.68" x2="283.32" y2="107.3"/><line x1="248.48" y1="159.57" x2="254.28" y2="159.57"/><line x1="207.82" y1="66.64" x2="207.82" y2="84.06"/><line x1="152.65" y1="75.35" x2="152.65" y2="69.54"/><line x1="212.18" y1="105.84" x2="209.27" y2="105.84"/><line x1="281.87" y1="159.57" x2="283.32" y2="159.57"/><line x1="261.54" y1="150.85" x2="241.22" y2="150.85"/><line x1="241.22" y1="150.85" x2="239.77" y2="152.31"/><line x1="281.87" y1="159.57" x2="281.87" y2="165.37"/><line x1="133.77" y1="176.26" x2="122.16" y2="164.65"/><line x1="133.77" y1="200.22" x2="133.77" y2="188.6"/><line x1="168.62" y1="217.64" x2="174.43" y2="217.64"/><line x1="114.9" y1="153.76" x2="114.9" y2="142.14"/><line x1="309.46" y1="118.91" x2="309.46" y2="139.24"/><line x1="149.74" y1="200.22" x2="133.77" y2="200.22"/><line x1="196.21" y1="107.3" x2="178.78" y2="107.3"/><line x1="180.23" y1="111.65" x2="180.23" y2="108.75"/><line x1="120.7" y1="156.66" x2="122.16" y2="155.21"/><line x1="283.32" y1="89.87" x2="283.32" y2="69.54"/><line x1="180.23" y1="105.84" x2="180.23" y2="96.41"/><line x1="133.77" y1="207.48" x2="132.32" y2="207.48"/><line x1="133.77" y1="200.22" x2="132.32" y2="200.22"/><line x1="162.81" y1="200.22" x2="163.54" y2="200.22"/><line x1="158.46" y1="200.22" x2="154.1" y2="200.22"/><line x1="194.75" y1="114.56" x2="194.75" y2="117.46"/><line x1="171.52" y1="188.6" x2="167.17" y2="188.6"/><line x1="303.65" y1="69.54" x2="309.46" y2="75.35"/><line x1="286.23" y1="69.54" x2="303.65" y2="69.54"/><line x1="309.46" y1="95.68" x2="309.46" y2="113.1"/><line x1="207.82" y1="49.22" x2="225.25" y2="55.02"/><line x1="286.23" y1="159.57" x2="286.23" y2="145.05"/><line x1="235.41" y1="33.25" x2="241.22" y2="33.25"/><line x1="216.53" y1="36.15" x2="226.7" y2="52.12"/><line x1="228.15" y1="52.12" x2="222.34" y2="34.7"/><line x1="209.27" y1="43.41" x2="225.25" y2="53.57"/><line x1="265.9" y1="46.31" x2="265.9" y2="52.12"/><line x1="212.18" y1="39.05" x2="225.97" y2="52.85"/><line x1="167.17" y1="200.22" x2="149.74" y2="208.93"/><line x1="263" y1="185.7" x2="263" y2="174.09"/><line x1="196.21" y1="118.91" x2="178.78" y2="118.91"/><line x1="309.46" y1="174.09" x2="309.46" y2="185.7"/><line x1="281.87" y1="105.84" x2="215.08" y2="105.84"/><line x1="178.78" y1="66.64" x2="178.78" y2="84.06"/><line x1="152.65" y1="150.85" x2="146.84" y2="150.85"/><line x1="276.79" y1="56.48" x2="281.87" y2="61.56"/><line x1="184.59" y1="84.06" x2="184.59" y2="66.64"/><line x1="133.05" y1="120.36" x2="175.88" y2="120.36"/><line x1="190.4" y1="66.64" x2="190.4" y2="84.06"/><line x1="281.87" y1="68.09" x2="281.87" y2="69.54"/><line x1="209.27" y1="105.84" x2="209.27" y2="91.32"/><line x1="202.01" y1="168.28" x2="193.3" y2="176.99"/><line x1="244.85" y1="166.83" x2="239.77" y2="166.83"/><line x1="244.12" y1="168.28" x2="239.77" y2="168.28"/><line x1="152.65" y1="156.66" x2="152.65" y2="150.85"/><line x1="197.66" y1="105.84" x2="197.66" y2="91.32"/><line x1="200.56" y1="105.84" x2="197.66" y2="105.84"/><line x1="200.56" y1="91.32" x2="200.56" y2="105.84"/><line x1="281.87" y1="89.87" x2="277.52" y2="89.87"/><line x1="281.87" y1="89.87" x2="281.87" y2="91.32"/><line x1="215.08" y1="67.37" x2="225.97" y2="56.48"/><line x1="281.87" y1="91.32" x2="281.87" y2="105.84"/><line x1="245.57" y1="78.26" x2="251.38" y2="78.26"/><line x1="141.03" y1="118.91" x2="164.26" y2="118.91"/><line x1="161.36" y1="101.49" x2="143.94" y2="101.49"/><line x1="283.32" y1="152.31" x2="283.32" y2="153.76"/><line x1="161.36" y1="113.1" x2="143.94" y2="113.1"/><line x1="245.57" y1="72.45" x2="245.57" y2="78.26"/><line x1="197.66" y1="91.32" x2="200.56" y2="91.32"/><line x1="215.08" y1="105.84" x2="215.08" y2="67.37"/><line x1="122.16" y1="131.25" x2="133.05" y2="120.36"/><line x1="120.7" y1="156.66" x2="120.7" y2="139.24"/><line x1="143.94" y1="107.3" x2="161.36" y2="107.3"/><line x1="171.52" y1="200.22" x2="167.17" y2="200.22"/><line x1="149.74" y1="200.22" x2="149.74" y2="188.6"/><line x1="261.54" y1="171.18" x2="255.74" y2="171.18"/><line x1="185.32" y1="91.32" x2="194.75" y2="91.32"/><line x1="256.46" y1="169.73" x2="244.85" y2="166.83"/><line x1="213.63" y1="66.64" x2="225.25" y2="55.02"/><line x1="167.17" y1="198.77" x2="167.17" y2="188.6"/><line x1="122.16" y1="164.65" x2="122.16" y2="157.39"/><line x1="281.87" y1="69.54" x2="283.32" y2="69.54"/><line x1="193.3" y1="174.81" x2="193.3" y2="176.99"/><line x1="167.17" y1="188.6" x2="162.81" y2="188.6"/><line x1="309.46" y1="174.09" x2="286.23" y2="174.09"/><line x1="175.88" y1="118.91" x2="175.88" y2="120.36"/><line x1="172.98" y1="84.06" x2="172.98" y2="66.64"/><line x1="281.87" y1="91.32" x2="283.32" y2="91.32"/><line x1="286.23" y1="89.87" x2="309.46" y2="89.87"/><line x1="281.87" y1="152.31" x2="281.87" y2="153.76"/><line x1="283.32" y1="89.87" x2="281.87" y2="89.87"/><line x1="171.52" y1="200.22" x2="171.52" y2="198.77"/><line x1="167.17" y1="200.22" x2="167.17" y2="198.77"/><line x1="180.23" y1="140.69" x2="180.23" y2="146.5"/><line x1="199.11" y1="162.47" x2="193.3" y2="168.28"/><line x1="263" y1="174.09" x2="280.42" y2="174.09"/><line x1="174.43" y1="217.64" x2="174.43" y2="211.84"/><line x1="154.1" y1="200.22" x2="149.74" y2="200.22"/><line x1="133.77" y1="188.6" x2="132.32" y2="188.6"/><line x1="143.94" y1="65.19" x2="162.81" y2="65.19"/><line x1="154.1" y1="188.6" x2="149.74" y2="188.6"/><line x1="174.43" y1="211.84" x2="168.62" y2="211.84"/><line x1="194.75" y1="105.84" x2="180.23" y2="105.84"/><line x1="175.88" y1="120.36" x2="175.88" y2="147.95"/><line x1="162.81" y1="188.6" x2="158.46" y2="188.6"/><line x1="133.77" y1="207.48" x2="133.77" y2="200.22"/><line x1="149.74" y1="188.6" x2="133.77" y2="188.6"/><line x1="309.46" y1="113.1" x2="286.23" y2="113.1"/><line x1="122.16" y1="140.69" x2="120.7" y2="139.24"/><line x1="171.52" y1="198.77" x2="171.52" y2="188.6"/><line x1="122.16" y1="138.51" x2="122.16" y2="131.25"/><line x1="281.87" y1="152.31" x2="263" y2="152.31"/><line x1="303.65" y1="191.51" x2="286.23" y2="191.51"/><line x1="281.87" y1="153.76" x2="281.87" y2="159.57"/><line x1="203.47" y1="105.84" x2="203.47" y2="91.32"/><line x1="263" y1="159.57" x2="281.87" y2="159.57"/><line x1="193.3" y1="168.28" x2="193.3" y2="174.81"/><line x1="191.85" y1="193.69" x2="186.77" y2="198.77"/><line x1="309.46" y1="185.7" x2="303.65" y2="191.51"/><line x1="180.23" y1="117.46" x2="180.23" y2="114.56"/><line x1="286.23" y1="107.3" x2="286.23" y2="95.68"/><line x1="286.23" y1="133.43" x2="286.23" y2="118.91"/><line x1="251.38" y1="72.45" x2="245.57" y2="72.45"/><line x1="251.38" y1="78.26" x2="251.38" y2="72.45"/><line x1="213.63" y1="118.91" x2="283.32" y2="118.91"/><line x1="142.48" y1="66.64" x2="143.94" y2="65.19"/><line x1="122.16" y1="157.39" x2="122.16" y2="155.21"/><line x1="213.63" y1="120.36" x2="281.87" y2="120.36"/><line x1="168.62" y1="211.84" x2="168.62" y2="217.64"/><line x1="281.87" y1="120.36" x2="281.87" y2="152.31"/><line x1="283.32" y1="145.05" x2="283.32" y2="152.31"/><line x1="283.32" y1="152.31" x2="281.87" y2="152.31"/><line x1="279.69" y1="169.73" x2="263" y2="169.73"/><line x1="146.84" y1="156.66" x2="152.65" y2="156.66"/><line x1="263" y1="153.76" x2="263" y2="152.31"/><line x1="263" y1="169.73" x2="256.46" y2="169.73"/><line x1="149.02" y1="207.48" x2="133.77" y2="207.48"/><line x1="194.75" y1="108.75" x2="194.75" y2="111.65"/><line x1="239.77" y1="152.31" x2="239.77" y2="166.83"/><line x1="263" y1="159.57" x2="263" y2="153.76"/><line x1="146.84" y1="150.85" x2="146.84" y2="156.66"/><line x1="194.75" y1="111.65" x2="180.23" y2="111.65"/><line x1="142.48" y1="85.52" x2="142.48" y2="66.64"/><line x1="180.23" y1="96.41" x2="185.32" y2="91.32"/><line x1="132.41" y1="185.7" x2="132.41" y2="179.89"/><line x1="194.75" y1="91.32" x2="194.75" y2="105.84"/><line x1="123.61" y1="153.76" x2="123.61" y2="142.14"/><line x1="167.17" y1="200.22" x2="163.54" y2="200.22"/><line x1="191.85" y1="176.26" x2="191.85" y2="193.69"/><line x1="193.3" y1="194.41" x2="187.49" y2="200.22"/><line x1="193.3" y1="176.99" x2="193.3" y2="194.41"/><line x1="146.84" y1="75.35" x2="152.65" y2="75.35"/><line x1="286.23" y1="168.28" x2="309.46" y2="168.28"/><line x1="286.23" y1="145.05" x2="309.46" y2="145.05"/><line x1="248.48" y1="165.37" x2="248.48" y2="159.57"/><line x1="254.28" y1="165.37" x2="248.48" y2="165.37"/><line x1="236.86" y1="55.02" x2="277.52" y2="55.02"/><line x1="187.49" y1="200.22" x2="171.52" y2="200.22"/><line x1="286.23" y1="118.91" x2="309.46" y2="118.91"/><line x1="254.28" y1="194.41" x2="242.67" y2="194.41"/></g><g stroke="#d3b15b" stroke-width="2.4" stroke-linecap="round"><line x1="263" y1="171.18" x2="261.54" y2="171.18"/><line x1="280.42" y1="171.18" x2="280.42" y2="174.09"/><line x1="280.42" y1="192.96" x2="268.08" y2="192.96"/><line x1="174.43" y1="85.52" x2="172.98" y2="84.06"/><line x1="287.68" y1="94.23" x2="287.68" y2="91.32"/><line x1="213.63" y1="118.91" x2="213.63" y2="107.3"/><line x1="283.32" y1="107.3" x2="283.32" y2="118.91"/><line x1="178.78" y1="107.3" x2="178.78" y2="95.68"/><line x1="263" y1="174.09" x2="263" y2="171.18"/><line x1="268.08" y1="192.96" x2="261.54" y2="186.43"/><line x1="235.41" y1="111.65" x2="233.96" y2="110.2"/><line x1="223.79" y1="114.56" x2="225.25" y2="116.01"/><line x1="310.91" y1="139.24" x2="309.46" y2="139.24"/><line x1="310.91" y1="89.87" x2="309.46" y2="89.87"/><line x1="261.54" y1="114.56" x2="263" y2="116.01"/><line x1="114.9" y1="153.76" x2="109.09" y2="153.76"/><line x1="273.16" y1="111.65" x2="271.71" y2="110.2"/><line x1="178.78" y1="113.1" x2="178.78" y2="107.3"/><line x1="196.21" y1="118.91" x2="213.63" y2="118.91"/><line x1="310.91" y1="168.28" x2="309.46" y2="168.28"/><line x1="196.21" y1="89.87" x2="202.01" y2="89.87"/><line x1="202.01" y1="107.3" x2="196.21" y2="107.3"/><line x1="178.78" y1="95.68" x2="184.59" y2="89.87"/><line x1="132.32" y1="208.93" x2="132.32" y2="207.48"/><line x1="143.94" y1="107.3" x2="143.94" y2="101.49"/><line x1="284.78" y1="190.06" x2="281.87" y2="190.06"/><line x1="235.41" y1="31.79" x2="235.41" y2="31.07"/><line x1="285.5" y1="119.64" x2="286.23" y2="118.91"/><line x1="257.19" y1="33.25" x2="258.64" y2="34.7"/><line x1="120.7" y1="165.37" x2="120.7" y2="156.66"/><line x1="233.96" y1="28.16" x2="233.96" y2="19.45"/><line x1="116.35" y1="155.21" x2="114.9" y2="153.76"/><line x1="308.01" y1="117.46" x2="309.46" y2="118.91"/><line x1="225.25" y1="188.6" x2="213.63" y2="188.6"/><line x1="210.73" y1="191.51" x2="210.73" y2="211.84"/><line x1="242.67" y1="19.45" x2="242.67" y2="28.16"/><line x1="308.01" y1="143.59" x2="309.46" y2="145.05"/><line x1="254.28" y1="200.22" x2="242.67" y2="200.22"/><line x1="260.09" y1="172.63" x2="260.09" y2="188.6"/><line x1="261.54" y1="171.18" x2="260.09" y2="172.63"/><line x1="241.22" y1="33.25" x2="257.19" y2="33.25"/><line x1="287.68" y1="172.63" x2="287.68" y2="169.73"/><line x1="285.5" y1="96.41" x2="286.23" y2="95.68"/><line x1="286.23" y1="192.96" x2="286.23" y2="191.51"/><line x1="164.26" y1="220.55" x2="141.03" y2="220.55"/><line x1="202.01" y1="220.55" x2="178.78" y2="220.55"/><line x1="132.32" y1="211.84" x2="132.32" y2="208.93"/><line x1="164.26" y1="118.91" x2="175.88" y2="118.91"/><line x1="225.25" y1="110.2" x2="223.79" y2="111.65"/><line x1="172.98" y1="66.64" x2="174.43" y2="65.19"/><line x1="165.72" y1="222" x2="164.26" y2="220.55"/><line x1="143.94" y1="116.01" x2="143.94" y2="113.1"/><line x1="310.91" y1="95.68" x2="310.91" y2="113.1"/><line x1="177.33" y1="222" x2="165.72" y2="222"/><line x1="242.67" y1="28.16" x2="241.22" y2="29.62"/><line x1="310.91" y1="174.09" x2="310.91" y2="186.43"/><line x1="236.86" y1="55.02" x2="237.59" y2="54.3"/><line x1="237.59" y1="54.3" x2="237.59" y2="52.85"/><line x1="207.82" y1="84.06" x2="202.01" y2="84.06"/><line x1="164.26" y1="66.64" x2="172.98" y2="66.64"/><line x1="132.32" y1="118.91" x2="141.03" y2="118.91"/><line x1="161.36" y1="86.97" x2="161.36" y2="95.68"/><line x1="202.01" y1="66.64" x2="207.82" y2="66.64"/><line x1="164.26" y1="84.06" x2="161.36" y2="86.97"/><line x1="142.48" y1="85.52" x2="141.03" y2="84.06"/><line x1="284.05" y1="119.64" x2="285.5" y2="119.64"/><line x1="141.03" y1="65.19" x2="142.48" y2="63.74"/><line x1="142.48" y1="63.74" x2="161.36" y2="63.74"/><line x1="143.94" y1="86.97" x2="142.48" y2="85.52"/><line x1="281.87" y1="190.06" x2="280.42" y2="191.51"/><line x1="241.22" y1="31.07" x2="241.22" y2="31.79"/><line x1="309.46" y1="139.24" x2="308.01" y2="140.69"/><line x1="242.67" y1="194.41" x2="241.22" y2="192.96"/><line x1="178.78" y1="118.91" x2="178.78" y2="113.1"/><line x1="308.01" y1="169.73" x2="308.01" y2="172.63"/><line x1="241.22" y1="31.79" x2="241.22" y2="33.25"/><line x1="286.23" y1="95.68" x2="287.68" y2="94.23"/><line x1="202.01" y1="89.87" x2="207.82" y2="89.87"/><line x1="207.82" y1="89.87" x2="213.63" y2="89.87"/><line x1="310.91" y1="145.05" x2="310.91" y2="168.28"/><line x1="213.63" y1="107.3" x2="207.82" y2="107.3"/><line x1="207.82" y1="107.3" x2="202.01" y2="107.3"/><line x1="280.42" y1="191.51" x2="280.42" y2="192.96"/><line x1="236.86" y1="52.12" x2="228.15" y2="52.12"/><line x1="277.52" y1="46.31" x2="277.52" y2="52.12"/><line x1="285.5" y1="132.7" x2="284.05" y2="132.7"/><line x1="216.53" y1="36.15" x2="222.34" y2="34.7"/><line x1="213.63" y1="89.87" x2="213.63" y2="84.06"/><line x1="283.32" y1="89.87" x2="283.32" y2="91.32"/><line x1="280.42" y1="174.09" x2="281.87" y2="175.54"/><line x1="286.23" y1="191.51" x2="284.78" y2="190.06"/><line x1="310.91" y1="186.43" x2="304.38" y2="192.96"/><line x1="310.91" y1="74.63" x2="310.91" y2="89.87"/><line x1="286.23" y1="68.09" x2="304.38" y2="68.09"/><line x1="286.23" y1="168.28" x2="286.23" y2="159.57"/><line x1="304.38" y1="192.96" x2="286.23" y2="192.96"/><line x1="304.38" y1="68.09" x2="310.91" y2="74.63"/><line x1="283.32" y1="69.54" x2="286.23" y2="69.54"/><line x1="286.23" y1="89.87" x2="283.32" y2="89.87"/><line x1="241.22" y1="18" x2="242.67" y2="19.45"/><line x1="283.32" y1="91.32" x2="283.32" y2="95.68"/><line x1="283.32" y1="68.09" x2="283.32" y2="69.54"/><line x1="286.23" y1="159.57" x2="285.5" y2="158.84"/><line x1="285.5" y1="158.84" x2="284.05" y2="158.84"/><line x1="283.32" y1="145.05" x2="284.05" y2="145.77"/><line x1="286.23" y1="145.05" x2="287.68" y2="143.59"/><line x1="309.46" y1="145.05" x2="310.91" y2="145.05"/><line x1="286.23" y1="133.43" x2="285.5" y2="132.7"/><line x1="235.41" y1="33.25" x2="235.41" y2="31.79"/><line x1="283.32" y1="118.91" x2="284.05" y2="119.64"/><line x1="283.32" y1="165.37" x2="283.32" y2="168.28"/><line x1="310.91" y1="118.91" x2="310.91" y2="139.24"/><line x1="283.32" y1="95.68" x2="284.05" y2="96.41"/><line x1="285.5" y1="106.57" x2="284.05" y2="106.57"/><line x1="286.23" y1="107.3" x2="285.5" y2="106.57"/><line x1="225.25" y1="55.02" x2="236.86" y2="55.02"/><line x1="141.03" y1="118.91" x2="143.94" y2="116.01"/><line x1="283.32" y1="60.83" x2="283.32" y2="68.09"/><line x1="265.9" y1="34.7" x2="277.52" y2="46.31"/><line x1="109.09" y1="153.76" x2="109.09" y2="142.14"/><line x1="235.41" y1="29.62" x2="233.96" y2="28.16"/><line x1="235.41" y1="114.56" x2="235.41" y2="111.65"/><line x1="207.82" y1="66.64" x2="207.82" y2="49.22"/><line x1="132.32" y1="176.99" x2="130.87" y2="175.54"/><line x1="114.9" y1="142.14" x2="116.35" y2="140.69"/><line x1="119.25" y1="140.69" x2="120.7" y2="139.24"/><line x1="120.7" y1="156.66" x2="119.25" y2="155.21"/><line x1="119.25" y1="155.21" x2="116.35" y2="155.21"/><line x1="109.09" y1="142.14" x2="114.9" y2="142.14"/><line x1="162.81" y1="108.75" x2="162.81" y2="111.65"/><line x1="141.03" y1="220.55" x2="132.32" y2="211.84"/><line x1="202.01" y1="84.06" x2="190.4" y2="84.06"/><line x1="223.79" y1="111.65" x2="223.79" y2="114.56"/><line x1="283.32" y1="159.57" x2="283.32" y2="165.37"/><line x1="162.81" y1="100.04" x2="161.36" y2="101.49"/><line x1="273.16" y1="114.56" x2="273.16" y2="111.65"/><line x1="161.36" y1="63.74" x2="162.81" y2="65.19"/><line x1="225.97" y1="52.85" x2="225.25" y2="53.57"/><line x1="162.81" y1="97.13" x2="162.81" y2="100.04"/><line x1="142.48" y1="111.65" x2="142.48" y2="108.75"/><line x1="142.48" y1="108.75" x2="143.94" y2="107.3"/><line x1="210.73" y1="211.84" x2="202.01" y2="220.55"/><line x1="190.4" y1="84.06" x2="188.95" y2="85.52"/><line x1="142.48" y1="100.04" x2="142.48" y2="97.13"/><line x1="188.95" y1="85.52" x2="186.04" y2="85.52"/><line x1="186.04" y1="85.52" x2="184.59" y2="84.06"/><line x1="237.59" y1="52.85" x2="236.86" y2="52.12"/><line x1="286.23" y1="139.24" x2="286.23" y2="133.43"/><line x1="287.68" y1="91.32" x2="286.23" y2="89.87"/><line x1="122.16" y1="166.83" x2="120.7" y2="165.37"/><line x1="309.46" y1="95.68" x2="310.91" y2="95.68"/><line x1="213.63" y1="84.06" x2="207.82" y2="84.06"/><line x1="225.25" y1="53.57" x2="225.25" y2="55.02"/><line x1="130.87" y1="175.54" x2="122.16" y2="166.83"/><line x1="233.96" y1="19.45" x2="235.41" y2="18"/><line x1="308.01" y1="140.69" x2="308.01" y2="143.59"/><line x1="212.18" y1="39.05" x2="216.53" y2="36.15"/><line x1="209.27" y1="43.41" x2="212.18" y2="39.05"/><line x1="207.82" y1="49.22" x2="209.27" y2="43.41"/><line x1="228.15" y1="52.12" x2="226.7" y2="52.12"/><line x1="308.01" y1="172.63" x2="309.46" y2="174.09"/><line x1="184.59" y1="89.87" x2="196.21" y2="89.87"/><line x1="196.21" y1="113.1" x2="196.21" y2="118.91"/><line x1="283.32" y1="133.43" x2="283.32" y2="145.05"/><line x1="196.21" y1="107.3" x2="196.21" y2="113.1"/><line x1="309.46" y1="174.09" x2="310.91" y2="174.09"/><line x1="172.98" y1="84.06" x2="164.26" y2="84.06"/><line x1="186.04" y1="65.19" x2="188.95" y2="65.19"/><line x1="184.59" y1="84.06" x2="178.78" y2="84.06"/><line x1="188.95" y1="65.19" x2="190.4" y2="66.64"/><line x1="287.68" y1="114.56" x2="286.23" y2="113.1"/><line x1="235.41" y1="18" x2="241.22" y2="18"/><line x1="287.68" y1="117.46" x2="287.68" y2="114.56"/><line x1="258.64" y1="34.7" x2="265.9" y2="34.7"/><line x1="286.23" y1="174.09" x2="287.68" y2="172.63"/><line x1="233.96" y1="110.2" x2="225.25" y2="110.2"/><line x1="161.36" y1="116.01" x2="164.26" y2="118.91"/><line x1="120.7" y1="130.53" x2="122.16" y2="129.07"/><line x1="120.7" y1="139.24" x2="120.7" y2="130.53"/><line x1="143.94" y1="113.1" x2="142.48" y2="111.65"/><line x1="161.36" y1="107.3" x2="162.81" y2="108.75"/><line x1="161.36" y1="101.49" x2="161.36" y2="107.3"/><line x1="143.94" y1="95.68" x2="143.94" y2="86.97"/><line x1="161.36" y1="113.1" x2="161.36" y2="116.01"/><line x1="309.46" y1="168.28" x2="308.01" y2="169.73"/><line x1="132.32" y1="200.22" x2="132.32" y2="188.6"/><line x1="261.54" y1="174.09" x2="263" y2="174.09"/><line x1="141.03" y1="84.06" x2="141.03" y2="65.19"/><line x1="143.94" y1="101.49" x2="142.48" y2="100.04"/><line x1="241.22" y1="29.62" x2="241.22" y2="31.07"/><line x1="178.78" y1="220.55" x2="177.33" y2="222"/><line x1="162.81" y1="65.19" x2="164.26" y2="66.64"/><line x1="178.78" y1="84.06" x2="177.33" y2="85.52"/><line x1="184.59" y1="66.64" x2="186.04" y2="65.19"/><line x1="178.78" y1="66.64" x2="184.59" y2="66.64"/><line x1="229.6" y1="33.25" x2="235.41" y2="33.25"/><line x1="174.43" y1="65.19" x2="177.33" y2="65.19"/><line x1="190.4" y1="66.64" x2="202.01" y2="66.64"/><line x1="161.36" y1="95.68" x2="162.81" y2="97.13"/><line x1="284.05" y1="145.77" x2="285.5" y2="145.77"/><line x1="226.7" y1="52.12" x2="225.97" y2="52.85"/><line x1="132.32" y1="188.6" x2="132.32" y2="176.99"/><line x1="286.23" y1="69.54" x2="286.23" y2="68.09"/><line x1="261.54" y1="111.65" x2="261.54" y2="114.56"/><line x1="222.34" y1="34.7" x2="228.15" y2="34.7"/><line x1="277.52" y1="55.02" x2="283.32" y2="60.83"/><line x1="308.01" y1="91.32" x2="308.01" y2="94.23"/><line x1="308.01" y1="94.23" x2="309.46" y2="95.68"/><line x1="122.16" y1="129.07" x2="130.87" y2="120.36"/><line x1="177.33" y1="85.52" x2="174.43" y2="85.52"/><line x1="287.68" y1="140.69" x2="286.23" y2="139.24"/><line x1="310.91" y1="113.1" x2="309.46" y2="113.1"/><line x1="283.32" y1="168.28" x2="280.42" y2="171.18"/><line x1="284.05" y1="158.84" x2="283.32" y2="159.57"/><line x1="261.54" y1="186.43" x2="261.54" y2="174.09"/><line x1="281.87" y1="175.54" x2="284.78" y2="175.54"/><line x1="284.78" y1="175.54" x2="286.23" y2="174.09"/><line x1="284.05" y1="96.41" x2="285.5" y2="96.41"/><line x1="284.05" y1="106.57" x2="283.32" y2="107.3"/><line x1="284.05" y1="132.7" x2="283.32" y2="133.43"/><line x1="175.88" y1="118.91" x2="178.78" y2="118.91"/><line x1="130.87" y1="120.36" x2="132.32" y2="118.91"/><line x1="228.15" y1="34.7" x2="229.6" y2="33.25"/><line x1="285.5" y1="145.77" x2="286.23" y2="145.05"/><line x1="132.32" y1="207.48" x2="132.32" y2="200.22"/><line x1="177.33" y1="65.19" x2="178.78" y2="66.64"/><line x1="263" y1="110.2" x2="261.54" y2="111.65"/><line x1="271.71" y1="110.2" x2="263" y2="110.2"/><line x1="263" y1="116.01" x2="271.71" y2="116.01"/><line x1="271.71" y1="116.01" x2="273.16" y2="114.56"/><line x1="225.25" y1="116.01" x2="233.96" y2="116.01"/><line x1="233.96" y1="116.01" x2="235.41" y2="114.56"/><line x1="309.46" y1="89.87" x2="308.01" y2="91.32"/><line x1="142.48" y1="97.13" x2="143.94" y2="95.68"/><line x1="309.46" y1="118.91" x2="310.91" y2="118.91"/><line x1="213.63" y1="188.6" x2="210.73" y2="191.51"/><line x1="116.35" y1="140.69" x2="119.25" y2="140.69"/><line x1="309.46" y1="113.1" x2="308.01" y2="114.56"/><line x1="235.41" y1="31.07" x2="235.41" y2="29.62"/><line x1="277.52" y1="52.12" x2="277.52" y2="55.02"/><line x1="286.23" y1="118.91" x2="287.68" y2="117.46"/><line x1="286.23" y1="113.1" x2="286.23" y2="107.3"/><line x1="287.68" y1="143.59" x2="287.68" y2="140.69"/><line x1="287.68" y1="169.73" x2="286.23" y2="168.28"/><line x1="162.81" y1="111.65" x2="161.36" y2="113.1"/><line x1="308.01" y1="114.56" x2="308.01" y2="117.46"/><line x1="260.09" y1="188.6" x2="255.74" y2="192.96"/><line x1="236.86" y1="188.6" x2="225.25" y2="188.6"/><line x1="242.67" y1="200.22" x2="242.67" y2="194.41"/><line x1="254.28" y1="194.41" x2="254.28" y2="200.22"/><line x1="241.22" y1="192.96" x2="236.86" y2="188.6"/><line x1="255.74" y1="192.96" x2="254.28" y2="194.41"/></g><g opacity="0.95"><circle cx="209.27" cy="121.09" r="2.2" fill="#d3b15b"/><circle cx="121.43" cy="147.95" r="2.2" fill="#d3b15b"/><circle cx="187.49" cy="67.37" r="2.2" fill="#d3b15b"/><circle cx="238.31" cy="23.81" r="2.2" fill="#d3b15b"/><circle cx="200.56" cy="121.09" r="2.2" fill="#d3b15b"/><circle cx="149.74" cy="72.45" r="2.2" fill="#d3b15b"/><circle cx="268.8" cy="49.22" r="2.2" fill="#d3b15b"/><circle cx="149.74" cy="153.76" r="2.2" fill="#d3b15b"/><circle cx="297.84" cy="127.62" r="2.2" fill="#d3b15b"/><circle cx="183.14" cy="143.59" r="2.2" fill="#d3b15b"/><circle cx="263" cy="36.88" r="3.2" fill="#b7493c"/><circle cx="171.52" cy="214.74" r="2.2" fill="#d3b15b"/><circle cx="128.69" cy="126.9" r="2.2" fill="#d3b15b"/><circle cx="144.66" cy="98.58" r="2.2" fill="#d3b15b"/><circle cx="219.44" cy="178.44" r="2.2" fill="#d3b15b"/><circle cx="248.48" cy="113.1" r="2.2" fill="#d3b15b"/><circle cx="135.22" cy="185.7" r="2.2" fill="#d3b15b"/><circle cx="281.15" cy="113.1" r="2.2" fill="#d3b15b"/><circle cx="268.08" cy="186.43" r="2.2" fill="#d3b15b"/><circle cx="251.38" cy="162.47" r="2.2" fill="#d3b15b"/><circle cx="297.84" cy="104.39" r="2.2" fill="#d3b15b"/><circle cx="297.84" cy="156.66" r="2.2" fill="#d3b15b"/><circle cx="248.48" cy="75.35" r="2.2" fill="#d3b15b"/><circle cx="251.38" cy="34.7" r="2.2" fill="#d3b15b"/><circle cx="122.88" cy="161.02" r="3.2" fill="#b7493c"/><circle cx="245.57" cy="52.12" r="3.2" fill="#b7493c"/><circle cx="249.93" cy="49.22" r="3.2" fill="#b7493c"/><circle cx="241.22" cy="49.22" r="3.2" fill="#b7493c"/><circle cx="245.57" cy="46.31" r="3.2" fill="#b7493c"/><circle cx="171.52" cy="215.47" r="3.2" fill="#b7493c"/><circle cx="188.95" cy="195.86" r="3.2" fill="#b7493c"/><circle cx="183.14" cy="94.23" r="3.2" fill="#b7493c"/><circle cx="149.02" cy="71.72" r="3.2" fill="#b7493c"/><circle cx="231.05" cy="57.2" r="3.2" fill="#b7493c"/><circle cx="304.38" cy="74.63" r="3.2" fill="#b7493c"/><circle cx="304.38" cy="186.43" r="3.2" fill="#b7493c"/><circle cx="251.38" cy="163.92" r="3.2" fill="#b7493c"/><circle cx="204.56" cy="214.38" r="2.2" fill="#d3b15b"/><circle cx="251.38" cy="148.68" r="2.2" fill="#d3b15b"/></g></svg>