<svg xmlns="http://www.w3.org/2000/svg" viewBox="0 0 420 240" role="img"><rect width="100%" height="100%" fill="#070706"/><g stroke="#5e5a4f" stroke-width="1.6" stroke-linecap="round"><line x1="205.68" y1="204.73" x2="190.57" y2="204.73"/><line x1="231.59" y1="101.11" x2="231.59" y2="40.67"/><line x1="352.48" y1="40.67" x2="352.48" y2="75.21"/><line x1="205.68" y1="170.19" x2="205.68" y2="204.73"/><line x1="352.48" y1="170.19" x2="335.21" y2="170.19"/><line x1="58.89" y1="187.46" x2="58.89" y2="152.92"/><line x1="58.89" y1="135.65" x2="58.89" y2="133.49"/><line x1="58.89" y1="109.75" x2="222.95" y2="109.75"/><line x1="231.59" y1="40.67" x2="352.48" y2="40.67"/><line x1="222.95" y1="109.75" x2="231.59" y2="101.11"/><line x1="58.89" y1="109.75" x2="58.89" y2="101.11"/><line x1="222.95" y1="40.67" x2="231.59" y2="40.67"/><line x1="67.52" y1="101.11" x2="205.68" y2="101.11"/><line x1="251.02" y1="163.71" x2="251.02" y2="159.4"/><line x1="102.06" y1="83.84" x2="67.52" y2="83.84"/><line x1="102.06" y1="49.3" x2="102.06" y2="83.84"/><line x1="119.33" y1="83.84" x2="119.33" y2="49.3"/><line x1="153.87" y1="83.84" x2="119.33" y2="83.84"/><line x1="153.87" y1="49.3" x2="153.87" y2="83.84"/><line x1="171.14" y1="83.84" x2="171.14" y2="49.3"/><line x1="205.68" y1="83.84" x2="171.14" y2="83.84"/><line x1="205.68" y1="49.3" x2="205.68" y2="83.84"/><line x1="231.59" y1="40.67" x2="231.59" y2="38.51"/><line x1="231.59" y1="27.71" x2="369.75" y2="27.71"/><line x1="369.75" y1="27.71" x2="369.75" y2="213.37"/><line x1="225.11" y1="163.71" x2="229.43" y2="163.71"/><line x1="50.25" y1="213.37" x2="50.25" y2="109.75"/><line x1="225.11" y1="159.4" x2="225.11" y2="163.71"/><line x1="369.75" y1="213.37" x2="50.25" y2="213.37"/><line x1="229.43" y1="163.71" x2="229.43" y2="159.4"/><line x1="229.43" y1="159.4" x2="225.11" y2="159.4"/><line x1="261.81" y1="159.4" x2="257.49" y2="159.4"/><line x1="354.63" y1="83.84" x2="352.48" y2="83.84"/><line x1="352.48" y1="83.84" x2="352.48" y2="118.38"/><line x1="352.48" y1="118.38" x2="354.63" y2="118.38"/><line x1="352.48" y1="118.38" x2="352.48" y2="120.54"/><line x1="207.84" y1="172.35" x2="207.84" y2="206.89"/><line x1="171.14" y1="206.89" x2="67.52" y2="206.89"/><line x1="56.73" y1="135.65" x2="56.73" y2="133.49"/><line x1="56.73" y1="109.75" x2="58.89" y2="109.75"/><line x1="335.21" y1="155.08" x2="328.73" y2="155.08"/><line x1="335.21" y1="157.24" x2="335.21" y2="155.08"/><line x1="317.94" y1="155.08" x2="311.46" y2="155.08"/><line x1="317.94" y1="157.24" x2="313.62" y2="157.24"/><line x1="300.67" y1="66.57" x2="292.03" y2="66.57"/><line x1="292.03" y1="66.57" x2="292.03" y2="57.94"/><line x1="292.03" y1="75.21" x2="292.03" y2="66.57"/><line x1="274.76" y1="70.89" x2="257.49" y2="70.89"/><line x1="274.76" y1="88.16" x2="274.76" y2="70.89"/><line x1="257.49" y1="88.16" x2="274.76" y2="88.16"/><line x1="352.48" y1="135.65" x2="352.48" y2="170.19"/><line x1="352.48" y1="135.65" x2="335.21" y2="135.65"/><line x1="335.21" y1="152.92" x2="335.21" y2="155.08"/><line x1="335.21" y1="170.19" x2="333.05" y2="170.19"/><line x1="335.21" y1="152.92" x2="317.94" y2="152.92"/><line x1="317.94" y1="152.92" x2="317.94" y2="155.08"/><line x1="317.94" y1="170.19" x2="315.78" y2="170.19"/><line x1="335.21" y1="159.4" x2="335.21" y2="170.19"/><line x1="335.21" y1="159.4" x2="333.05" y2="159.4"/><line x1="330.89" y1="157.24" x2="330.89" y2="170.19"/><line x1="330.89" y1="170.19" x2="328.73" y2="170.19"/><line x1="317.94" y1="159.4" x2="317.94" y2="161.56"/><line x1="317.94" y1="159.4" x2="315.78" y2="159.4"/><line x1="313.62" y1="170.19" x2="311.46" y2="170.19"/><line x1="313.62" y1="157.24" x2="313.62" y2="170.19"/><line x1="335.21" y1="135.65" x2="335.21" y2="152.92"/><line x1="192.73" y1="40.67" x2="201.37" y2="40.67"/><line x1="175.46" y1="40.67" x2="184.1" y2="40.67"/><line x1="317.94" y1="157.24" x2="317.94" y2="159.4"/><line x1="315.78" y1="159.4" x2="315.78" y2="161.56"/><line x1="315.78" y1="170.19" x2="313.62" y2="170.19"/><line x1="335.21" y1="157.24" x2="335.21" y2="159.4"/><line x1="333.05" y1="159.4" x2="333.05" y2="170.19"/><line x1="333.05" y1="170.19" x2="330.89" y2="170.19"/><line x1="317.94" y1="155.08" x2="317.94" y2="157.24"/><line x1="311.46" y1="155.08" x2="311.46" y2="170.19"/><line x1="311.46" y1="170.19" x2="292.03" y2="170.19"/><line x1="330.89" y1="157.24" x2="335.21" y2="157.24"/><line x1="328.73" y1="155.08" x2="328.73" y2="170.19"/><line x1="328.73" y1="170.19" x2="317.94" y2="170.19"/><line x1="158.19" y1="88.16" x2="163.59" y2="94.63"/><line x1="163.59" y1="94.63" x2="170.06" y2="89.24"/><line x1="170.06" y1="89.24" x2="164.67" y2="82.76"/><line x1="164.67" y1="82.76" x2="158.19" y2="88.16"/><line x1="257.49" y1="70.89" x2="257.49" y2="88.16"/><line x1="274.76" y1="49.3" x2="257.49" y2="49.3"/><line x1="274.76" y1="57.94" x2="274.76" y2="49.3"/><line x1="257.49" y1="57.94" x2="274.76" y2="57.94"/><line x1="257.49" y1="49.3" x2="257.49" y2="57.94"/><line x1="292.03" y1="75.21" x2="309.3" y2="75.21"/><line x1="292.03" y1="57.94" x2="283.4" y2="57.94"/><line x1="283.4" y1="75.21" x2="292.03" y2="75.21"/><line x1="283.4" y1="57.94" x2="283.4" y2="75.21"/><line x1="309.3" y1="57.94" x2="300.67" y2="57.94"/><line x1="309.3" y1="75.21" x2="309.3" y2="57.94"/><line x1="335.21" y1="57.94" x2="317.94" y2="57.94"/><line x1="335.21" y1="92.48" x2="335.21" y2="57.94"/><line x1="317.94" y1="92.48" x2="335.21" y2="92.48"/><line x1="317.94" y1="57.94" x2="317.94" y2="92.48"/><line x1="235.9" y1="159.4" x2="235.9" y2="163.71"/><line x1="58.89" y1="133.49" x2="56.73" y2="133.49"/><line x1="56.73" y1="133.49" x2="56.73" y2="109.75"/><line x1="247.78" y1="34.19" x2="240.22" y2="35.27"/><line x1="190.57" y1="133.49" x2="58.89" y2="133.49"/><line x1="58.89" y1="133.49" x2="58.89" y2="109.75"/><line x1="190.57" y1="204.73" x2="190.57" y2="133.49"/><line x1="58.89" y1="109.75" x2="57.81" y2="110.83"/><line x1="354.63" y1="172.35" x2="279.89" y2="172.35"/><line x1="57.81" y1="110.83" x2="56.73" y2="109.75"/><line x1="231.59" y1="38.51" x2="232.67" y2="39.59"/><line x1="354.63" y1="127.02" x2="354.63" y2="172.35"/><line x1="257.49" y1="163.71" x2="261.81" y2="163.71"/><line x1="261.81" y1="163.71" x2="261.81" y2="159.4"/><line x1="352.48" y1="127.02" x2="352.48" y2="135.65"/><line x1="235.9" y1="163.71" x2="240.22" y2="163.71"/><line x1="240.22" y1="159.4" x2="235.9" y2="159.4"/><line x1="352.48" y1="127.02" x2="354.63" y2="127.02"/><line x1="190.57" y1="204.73" x2="188.41" y2="204.73"/><line x1="246.7" y1="159.4" x2="246.7" y2="163.71"/><line x1="246.7" y1="163.71" x2="251.02" y2="163.71"/><line x1="363.27" y1="120.54" x2="363.27" y2="81.68"/><line x1="363.27" y1="81.68" x2="352.48" y2="81.68"/><line x1="352.48" y1="81.68" x2="352.48" y2="83.84"/><line x1="352.48" y1="81.68" x2="350.32" y2="81.68"/><line x1="352.48" y1="120.54" x2="363.27" y2="120.54"/><line x1="350.32" y1="120.54" x2="352.48" y2="120.54"/><line x1="240.22" y1="35.27" x2="240.22" y2="36.35"/><line x1="352.48" y1="120.54" x2="352.48" y2="127.02"/><line x1="336.29" y1="34.19" x2="328.73" y2="35.27"/><line x1="102.06" y1="187.46" x2="93.43" y2="187.46"/><line x1="296.35" y1="86" x2="287.71" y2="86"/><line x1="56.73" y1="187.46" x2="56.73" y2="152.92"/><line x1="207.84" y1="206.89" x2="190.57" y2="206.89"/><line x1="123.65" y1="79.52" x2="140.92" y2="79.52"/><line x1="140.92" y1="79.52" x2="140.92" y2="70.89"/><line x1="140.92" y1="70.89" x2="123.65" y2="70.89"/><line x1="123.65" y1="70.89" x2="123.65" y2="79.52"/><line x1="328.73" y1="35.27" x2="328.73" y2="36.35"/><line x1="222.95" y1="83.84" x2="222.95" y2="49.3"/><line x1="346" y1="35.27" x2="338.44" y2="34.19"/><line x1="328.73" y1="36.35" x2="346" y2="36.35"/><line x1="346" y1="36.35" x2="346" y2="35.27"/><line x1="300.67" y1="57.94" x2="300.67" y2="66.57"/><line x1="315.78" y1="161.56" x2="317.94" y2="161.56"/><line x1="317.94" y1="161.56" x2="317.94" y2="165.87"/><line x1="317.94" y1="165.87" x2="317.94" y2="170.19"/><line x1="317.94" y1="165.87" x2="315.78" y2="165.87"/><line x1="315.78" y1="165.87" x2="315.78" y2="170.19"/><line x1="341.68" y1="133.49" x2="350.32" y2="133.49"/><line x1="350.32" y1="133.49" x2="350.32" y2="124.86"/><line x1="350.32" y1="124.86" x2="341.68" y2="124.86"/><line x1="341.68" y1="124.86" x2="341.68" y2="133.49"/><line x1="354.63" y1="38.51" x2="354.63" y2="75.21"/><line x1="190.57" y1="206.89" x2="188.41" y2="206.89"/><line x1="231.59" y1="38.51" x2="354.63" y2="38.51"/><line x1="352.48" y1="75.21" x2="352.48" y2="81.68"/><line x1="354.63" y1="75.21" x2="352.48" y2="75.21"/><line x1="171.14" y1="204.73" x2="67.52" y2="204.73"/><line x1="171.14" y1="161.56" x2="171.14" y2="187.46"/><line x1="350.32" y1="81.68" x2="350.32" y2="120.54"/><line x1="232.67" y1="39.59" x2="231.59" y2="40.67"/><line x1="102.06" y1="196.1" x2="102.06" y2="187.46"/><line x1="251.02" y1="159.4" x2="246.7" y2="159.4"/><line x1="240.22" y1="163.71" x2="240.22" y2="159.4"/><line x1="257.49" y1="35.27" x2="249.94" y2="34.19"/><line x1="240.22" y1="36.35" x2="257.49" y2="36.35"/><line x1="257.49" y1="36.35" x2="257.49" y2="35.27"/><line x1="257.49" y1="159.4" x2="257.49" y2="163.71"/><line x1="56.73" y1="133.49" x2="54.57" y2="133.49"/><line x1="54.57" y1="133.49" x2="54.57" y2="209.05"/><line x1="54.57" y1="209.05" x2="190.57" y2="209.05"/><line x1="190.57" y1="209.05" x2="190.57" y2="206.89"/><line x1="190.57" y1="206.89" x2="190.57" y2="204.73"/><line x1="162.51" y1="135.65" x2="136.6" y2="135.65"/><line x1="76.16" y1="152.92" x2="102.06" y2="152.92"/><line x1="188.41" y1="187.46" x2="188.41" y2="161.56"/><line x1="102.06" y1="135.65" x2="76.16" y2="135.65"/><line x1="136.6" y1="152.92" x2="162.51" y2="152.92"/><line x1="110.7" y1="152.92" x2="110.7" y2="161.56"/><line x1="110.7" y1="178.83" x2="119.33" y2="178.83"/><line x1="119.33" y1="178.83" x2="119.33" y2="187.46"/><line x1="119.33" y1="187.46" x2="127.97" y2="187.46"/><line x1="127.97" y1="187.46" x2="127.97" y2="170.19"/><line x1="127.97" y1="170.19" x2="119.33" y2="170.19"/><line x1="119.33" y1="170.19" x2="119.33" y2="161.56"/><line x1="110.7" y1="178.83" x2="110.7" y2="187.46"/><line x1="110.7" y1="187.46" x2="119.33" y2="187.46"/><line x1="110.7" y1="170.19" x2="110.7" y2="178.83"/><line x1="110.7" y1="161.56" x2="102.06" y2="161.56"/><line x1="102.06" y1="161.56" x2="102.06" y2="170.19"/><line x1="102.06" y1="170.19" x2="110.7" y2="170.19"/><line x1="119.33" y1="161.56" x2="119.33" y2="152.92"/><line x1="145.24" y1="196.1" x2="162.51" y2="196.1"/><line x1="162.51" y1="196.1" x2="162.51" y2="187.46"/><line x1="162.51" y1="187.46" x2="145.24" y2="187.46"/><line x1="145.24" y1="187.46" x2="145.24" y2="196.1"/><line x1="76.16" y1="170.19" x2="76.16" y2="178.83"/><line x1="76.16" y1="178.83" x2="84.79" y2="178.83"/><line x1="84.79" y1="178.83" x2="84.79" y2="170.19"/><line x1="84.79" y1="170.19" x2="76.16" y2="170.19"/><line x1="93.43" y1="187.46" x2="93.43" y2="196.1"/><line x1="93.43" y1="196.1" x2="102.06" y2="196.1"/><line x1="89.11" y1="35.27" x2="80.48" y2="35.27"/><line x1="89.11" y1="37.43" x2="80.48" y2="37.43"/><line x1="80.48" y1="40.67" x2="89.11" y2="40.67"/><line x1="80.48" y1="38.51" x2="89.11" y2="38.51"/><line x1="292.03" y1="161.56" x2="285.56" y2="161.56"/><line x1="274.76" y1="161.56" x2="274.76" y2="170.19"/><line x1="292.03" y1="170.19" x2="286.77" y2="170.19"/><line x1="292.03" y1="170.19" x2="292.03" y2="161.56"/><line x1="274.76" y1="170.19" x2="205.68" y2="170.19"/><line x1="277.33" y1="164.12" x2="279.21" y2="170.19"/><line x1="279.21" y1="170.19" x2="274.76" y2="170.19"/><line x1="288.12" y1="169.79" x2="285.56" y2="161.56"/><line x1="285.56" y1="161.56" x2="277.33" y2="164.12"/><line x1="279.89" y1="172.35" x2="207.84" y2="172.35"/><line x1="285.56" y1="161.56" x2="274.76" y2="161.56"/><line x1="279.21" y1="170.19" x2="279.89" y2="172.35"/><line x1="296.35" y1="94.63" x2="296.35" y2="86"/><line x1="279.89" y1="172.35" x2="286.77" y2="170.19"/><line x1="286.77" y1="170.19" x2="288.12" y2="169.79"/><line x1="76.16" y1="57.94" x2="76.16" y2="62.25"/><line x1="76.16" y1="62.25" x2="80.48" y2="62.25"/><line x1="80.48" y1="62.25" x2="80.48" y2="57.94"/><line x1="80.48" y1="57.94" x2="76.16" y2="57.94"/><line x1="75.08" y1="56.86" x2="75.08" y2="63.33"/><line x1="75.08" y1="63.33" x2="81.56" y2="63.33"/><line x1="81.56" y1="63.33" x2="81.56" y2="56.86"/><line x1="81.56" y1="56.86" x2="75.08" y2="56.86"/><line x1="287.71" y1="86" x2="287.71" y2="94.63"/><line x1="287.71" y1="94.63" x2="296.35" y2="94.63"/></g><g stroke="#d3b15b" stroke-width="2.4" stroke-linecap="round"><line x1="67.52" y1="187.46" x2="58.89" y2="187.46"/><line x1="67.52" y1="204.73" x2="67.52" y2="196.1"/><line x1="58.89" y1="152.92" x2="76.16" y2="152.92"/><line x1="76.16" y1="135.65" x2="58.89" y2="135.65"/><line x1="76.16" y1="152.92" x2="76.16" y2="135.65"/><line x1="58.89" y1="101.11" x2="67.52" y2="101.11"/><line x1="222.95" y1="101.11" x2="222.95" y2="83.84"/><line x1="67.52" y1="49.3" x2="67.52" y2="40.67"/><line x1="67.52" y1="101.11" x2="67.52" y2="83.84"/><line x1="67.52" y1="83.84" x2="58.89" y2="83.84"/><line x1="58.89" y1="83.84" x2="58.89" y2="66.57"/><line x1="205.68" y1="40.67" x2="205.68" y2="49.3"/><line x1="205.68" y1="49.3" x2="222.95" y2="49.3"/><line x1="222.95" y1="49.3" x2="222.95" y2="40.67"/><line x1="153.87" y1="40.67" x2="153.87" y2="49.3"/><line x1="153.87" y1="49.3" x2="171.14" y2="49.3"/><line x1="171.14" y1="49.3" x2="171.14" y2="40.67"/><line x1="102.06" y1="40.67" x2="102.06" y2="49.3"/><line x1="102.06" y1="49.3" x2="119.33" y2="49.3"/><line x1="119.33" y1="49.3" x2="119.33" y2="40.67"/><line x1="119.33" y1="40.67" x2="153.87" y2="40.67"/><line x1="50.25" y1="109.75" x2="56.73" y2="109.75"/><line x1="231.59" y1="27.71" x2="378.38" y2="19.08"/><line x1="378.38" y1="19.08" x2="378.38" y2="222"/><line x1="378.38" y1="222" x2="41.62" y2="222"/><line x1="41.62" y1="222" x2="50.25" y2="109.75"/><line x1="354.63" y1="118.38" x2="361.11" y2="118.38"/><line x1="361.11" y1="83.84" x2="354.63" y2="83.84"/><line x1="361.11" y1="118.38" x2="361.11" y2="83.84"/><line x1="354.63" y1="83.84" x2="354.63" y2="118.38"/><line x1="67.52" y1="206.89" x2="67.52" y2="204.73"/><line x1="58.89" y1="135.65" x2="56.73" y2="135.65"/><line x1="192.73" y1="40.67" x2="192.73" y2="38.51"/><line x1="201.37" y1="38.51" x2="201.37" y2="40.67"/><line x1="201.37" y1="40.67" x2="205.68" y2="40.67"/><line x1="192.73" y1="38.51" x2="201.37" y2="38.51"/><line x1="175.46" y1="40.67" x2="175.46" y2="38.51"/><line x1="184.1" y1="38.51" x2="184.1" y2="40.67"/><line x1="184.1" y1="40.67" x2="192.73" y2="40.67"/><line x1="175.46" y1="38.51" x2="184.1" y2="38.51"/><line x1="67.52" y1="40.67" x2="80.48" y2="40.67"/><line x1="247.78" y1="32.03" x2="247.78" y2="34.19"/><line x1="249.94" y1="32.03" x2="247.78" y2="32.03"/><line x1="67.52" y1="196.1" x2="67.52" y2="187.46"/><line x1="171.14" y1="204.73" x2="171.14" y2="206.89"/><line x1="249.94" y1="34.19" x2="249.94" y2="32.03"/><line x1="247.78" y1="34.19" x2="249.94" y2="34.19"/><line x1="188.41" y1="206.89" x2="188.41" y2="204.73"/><line x1="58.89" y1="66.57" x2="58.89" y2="49.3"/><line x1="336.29" y1="32.03" x2="336.29" y2="34.19"/><line x1="58.89" y1="49.3" x2="67.52" y2="49.3"/><line x1="338.44" y1="32.03" x2="336.29" y2="32.03"/><line x1="338.44" y1="34.19" x2="338.44" y2="32.03"/><line x1="171.14" y1="40.67" x2="175.46" y2="40.67"/><line x1="336.29" y1="34.19" x2="338.44" y2="34.19"/><line x1="188.41" y1="204.73" x2="188.41" y2="187.46"/><line x1="58.89" y1="187.46" x2="56.73" y2="187.46"/><line x1="56.73" y1="109.75" x2="56.73" y2="101.11"/><line x1="56.73" y1="152.92" x2="58.89" y2="152.92"/><line x1="56.73" y1="101.11" x2="58.89" y2="101.11"/><line x1="205.68" y1="101.11" x2="222.95" y2="101.11"/><line x1="222.95" y1="83.84" x2="205.68" y2="83.84"/><line x1="205.68" y1="83.84" x2="205.68" y2="101.11"/><line x1="171.14" y1="187.46" x2="171.14" y2="204.73"/><line x1="231.59" y1="38.51" x2="231.59" y2="27.71"/><line x1="188.41" y1="187.46" x2="171.14" y2="187.46"/><line x1="222.95" y1="38.51" x2="231.59" y2="38.51"/><line x1="222.95" y1="40.67" x2="222.95" y2="38.51"/><line x1="162.51" y1="135.65" x2="162.51" y2="152.92"/><line x1="188.41" y1="135.65" x2="162.51" y2="135.65"/><line x1="188.41" y1="161.56" x2="188.41" y2="135.65"/><line x1="89.11" y1="40.67" x2="102.06" y2="40.67"/><line x1="56.73" y1="135.65" x2="56.73" y2="152.92"/><line x1="171.14" y1="206.89" x2="188.41" y2="206.89"/><line x1="56.73" y1="187.46" x2="56.73" y2="206.89"/><line x1="56.73" y1="206.89" x2="67.52" y2="206.89"/><line x1="171.14" y1="152.92" x2="171.14" y2="161.56"/><line x1="162.51" y1="152.92" x2="171.14" y2="152.92"/><line x1="171.14" y1="161.56" x2="188.41" y2="161.56"/><line x1="102.06" y1="152.92" x2="110.7" y2="152.92"/><line x1="102.06" y1="135.65" x2="102.06" y2="152.92"/><line x1="136.6" y1="135.65" x2="102.06" y2="135.65"/><line x1="136.6" y1="152.92" x2="136.6" y2="135.65"/><line x1="110.7" y1="152.92" x2="119.33" y2="152.92"/><line x1="119.33" y1="152.92" x2="136.6" y2="152.92"/><line x1="89.11" y1="37.43" x2="89.11" y2="38.51"/><line x1="89.11" y1="35.27" x2="89.11" y2="37.43"/><line x1="91.27" y1="33.11" x2="89.11" y2="35.27"/><line x1="91.27" y1="20.16" x2="91.27" y2="33.11"/><line x1="89.11" y1="18" x2="91.27" y2="20.16"/><line x1="89.11" y1="38.51" x2="89.11" y2="40.67"/><line x1="80.48" y1="40.67" x2="80.48" y2="38.51"/><line x1="80.48" y1="38.51" x2="80.48" y2="37.43"/><line x1="80.48" y1="35.27" x2="78.32" y2="33.11"/><line x1="78.32" y1="33.11" x2="78.32" y2="20.16"/><line x1="78.32" y1="20.16" x2="80.48" y2="18"/><line x1="80.48" y1="18" x2="89.11" y2="18"/><line x1="80.48" y1="37.43" x2="80.48" y2="35.27"/></g><g opacity="0.95"><circle cx="289.33" cy="164.25" r="2.2" fill="#d3b15b"/><circle cx="214.32" cy="104.35" r="3.2" fill="#b7493c"/><circle cx="71.84" cy="53.62" r="3.2" fill="#b7493c"/><circle cx="78.32" cy="60.1" r="2.2" fill="#d3b15b"/><circle cx="238.06" cy="161.56" r="3.2" fill="#b7493c"/><circle cx="106.38" cy="157.24" r="2.2" fill="#d3b15b"/><circle cx="266.13" cy="67.65" r="3.2" fill="#b7493c"/><circle cx="349.24" cy="43.9" r="3.2" fill="#b7493c"/><circle cx="202.44" cy="43.9" r="3.2" fill="#b7493c"/><circle cx="106.38" cy="165.87" r="2.2" fill="#d3b15b"/><circle cx="136.6" cy="44.98" r="2.2" fill="#d3b15b"/><circle cx="122.03" cy="43.37" r="2.2" fill="#d3b15b"/><circle cx="167.9" cy="201.49" r="3.2" fill="#b7493c"/><circle cx="70.76" cy="118.38" r="3.2" fill="#b7493c"/><circle cx="296.35" cy="63.33" r="2.2" fill="#d3b15b"/><circle cx="197.05" cy="201.49" r="2.2" fill="#d3b15b"/><circle cx="122.57" cy="166.95" r="2.2" fill="#d3b15b"/><circle cx="62.13" cy="118.38" r="2.2" fill="#d3b15b"/><circle cx="132.29" cy="68.73" r="2.2" fill="#d3b15b"/><circle cx="346" cy="129.17" r="2.2" fill="#d3b15b"/><circle cx="259.65" cy="161.56" r="3.2" fill="#b7493c"/><circle cx="62.13" cy="183.14" r="3.2" fill="#b7493c"/><circle cx="115.02" cy="183.14" r="2.2" fill="#d3b15b"/><circle cx="331.97" cy="149.68" r="3.2" fill="#b7493c"/><circle cx="232.67" cy="161.56" r="2.2" fill="#d3b15b"/><circle cx="254.25" cy="161.56" r="2.2" fill="#d3b15b"/><circle cx="243.46" cy="161.56" r="2.2" fill="#d3b15b"/><circle cx="351.94" cy="157.78" r="2.2" fill="#d3b15b"/><circle cx="351.94" cy="163.71" r="2.2" fill="#d3b15b"/><circle cx="351.94" cy="169.65" r="2.2" fill="#d3b15b"/><circle cx="292.03" cy="96.79" r="3.2" fill="#b7493c"/><circle cx="292.03" cy="97.87" r="2.2" fill="#d3b15b"/><circle cx="84.79" cy="26.63" r="2.2" fill="#d3b15b"/><circle cx="227.27" cy="161.56" r="3.2" fill="#b7493c"/><circle cx="248.86" cy="161.56" r="3.2" fill="#b7493c"/><circle cx="144.7" cy="44.44" r="2.2" fill="#d3b15b"/><circle cx="151.17" cy="43.37" r="2.2" fill="#d3b15b"/><circle cx="128.51" cy="44.44" r="2.2" fill="#d3b15b"/><circle cx="317.94" cy="43.9" r="2.2" fill="#d3b15b"/><circle cx="311.46" cy="43.9" r="2.2" fill="#d3b15b"/></g></svg>