<svg xmlns="http://www.w3.org/2000/svg" viewBox="0 0 420 240" role="img"><rect width="100%" height="100%" fill="#070706"/><g stroke="#5e5a4f" stroke-width="1.6" stroke-linecap="round"><line x1="199.92" y1="110.2" x2="199.92" y2="96.37"/><line x1="241.41" y1="20.88" x2="241.98" y2="19.73"/><line x1="205.68" y1="59.49" x2="209.14" y2="56.03"/><line x1="198.76" y1="126.34" x2="180.32" y2="126.34"/><line x1="201.07" y1="110.2" x2="201.07" y2="96.37"/><line x1="168.8" y1="114.81" x2="168.8" y2="96.37"/><line x1="226.42" y1="130.95" x2="235.64" y2="130.95"/><line x1="261" y1="96.37" x2="261" y2="110.2"/><line x1="263.31" y1="110.2" x2="263.31" y2="96.37"/><line x1="198.76" y1="163.22" x2="180.32" y2="163.22"/><line x1="154.97" y1="200.1" x2="156.12" y2="200.1"/><line x1="152.66" y1="140.17" x2="134.22" y2="140.17"/><line x1="199.92" y1="160.92" x2="179.17" y2="160.92"/><line x1="199.92" y1="158.61" x2="179.17" y2="158.61"/><line x1="198.76" y1="156.31" x2="180.32" y2="156.31"/><line x1="281.75" y1="124.03" x2="263.31" y2="124.03"/><line x1="282.9" y1="121.73" x2="262.15" y2="121.73"/><line x1="282.9" y1="119.42" x2="262.15" y2="119.42"/><line x1="281.75" y1="117.12" x2="263.31" y2="117.12"/><line x1="153.81" y1="137.86" x2="133.07" y2="137.86"/><line x1="153.81" y1="135.56" x2="133.07" y2="135.56"/><line x1="152.66" y1="133.25" x2="134.22" y2="133.25"/><line x1="161.88" y1="114.81" x2="161.88" y2="96.37"/><line x1="164.19" y1="115.97" x2="164.19" y2="95.22"/><line x1="166.49" y1="115.97" x2="166.49" y2="95.22"/><line x1="198.76" y1="96.37" x2="198.76" y2="110.2"/><line x1="152.66" y1="151.69" x2="152.66" y2="158.61"/><line x1="217.2" y1="167.83" x2="217.2" y2="170.14"/><line x1="217.2" y1="170.14" x2="221.81" y2="170.14"/><line x1="269.07" y1="193.76" x2="269.07" y2="194.92"/><line x1="221.81" y1="170.14" x2="224.12" y2="170.14"/><line x1="265.61" y1="175.9" x2="252.93" y2="188.58"/><line x1="174.56" y1="213.93" x2="173.41" y2="213.93"/><line x1="173.41" y1="209.32" x2="173.41" y2="213.93"/><line x1="154.97" y1="216.24" x2="154.97" y2="211.63"/><line x1="157.27" y1="218.54" x2="156.12" y2="219.12"/><line x1="157.27" y1="218.54" x2="154.97" y2="216.24"/><line x1="173.41" y1="213.93" x2="173.41" y2="215.66"/><line x1="271.95" y1="192.03" x2="270.8" y2="192.03"/><line x1="233.34" y1="73.32" x2="219.51" y2="73.32"/><line x1="219.51" y1="75.63" x2="233.34" y2="75.63"/><line x1="212.59" y1="61.8" x2="207.98" y2="61.8"/><line x1="212.59" y1="66.41" x2="212.59" y2="61.8"/><line x1="207.98" y1="66.41" x2="212.59" y2="66.41"/><line x1="207.98" y1="61.8" x2="207.98" y2="66.41"/><line x1="166.49" y1="213.93" x2="161.88" y2="213.93"/><line x1="166.49" y1="218.54" x2="166.49" y2="213.93"/><line x1="161.88" y1="218.54" x2="166.49" y2="218.54"/><line x1="161.88" y1="213.93" x2="161.88" y2="218.54"/><line x1="247.17" y1="41.05" x2="247.17" y2="43.36"/><line x1="247.17" y1="43.36" x2="249.47" y2="43.36"/><line x1="240.25" y1="43.36" x2="240.25" y2="41.05"/><line x1="237.95" y1="128.64" x2="237.95" y2="127.49"/><line x1="239.1" y1="124.61" x2="237.37" y2="122.88"/><line x1="222.97" y1="127.49" x2="205.1" y2="127.49"/><line x1="239.1" y1="127.49" x2="239.1" y2="124.61"/><line x1="235.64" y1="128.64" x2="226.42" y2="128.64"/><line x1="237.95" y1="149.39" x2="214.9" y2="149.39"/><line x1="214.9" y1="151.69" x2="214.9" y2="149.39"/><line x1="266.19" y1="197.8" x2="265.03" y2="197.8"/><line x1="214.9" y1="149.39" x2="205.68" y2="149.39"/><line x1="267.92" y1="144.78" x2="264.46" y2="143.63"/><line x1="263.31" y1="139.02" x2="265.61" y2="141.32"/><line x1="173.41" y1="215.66" x2="173.41" y2="216.24"/><line x1="173.41" y1="216.24" x2="168.8" y2="220.85"/><line x1="168.8" y1="220.85" x2="159.58" y2="220.85"/><line x1="264.46" y1="143.63" x2="263.31" y2="139.02"/><line x1="188.39" y1="196.64" x2="186.08" y2="195.49"/><line x1="186.08" y1="195.49" x2="181.47" y2="196.64"/><line x1="190.69" y1="196.64" x2="188.39" y2="196.64"/><line x1="195.31" y1="194.34" x2="190.69" y2="196.64"/><line x1="190.69" y1="198.95" x2="188.39" y2="197.8"/><line x1="156.12" y1="200.1" x2="157.27" y2="201.25"/><line x1="161.88" y1="198.95" x2="163.03" y2="198.95"/><line x1="163.03" y1="198.95" x2="164.19" y2="197.8"/><line x1="157.27" y1="201.25" x2="158.42" y2="201.25"/><line x1="164.19" y1="197.8" x2="165.34" y2="197.8"/><line x1="165.34" y1="197.8" x2="166.49" y2="198.95"/><line x1="167.64" y1="198.95" x2="168.8" y2="200.1"/><line x1="166.49" y1="198.95" x2="167.64" y2="198.95"/><line x1="168.8" y1="200.1" x2="169.95" y2="200.1"/><line x1="169.95" y1="200.1" x2="171.1" y2="198.95"/><line x1="171.1" y1="198.95" x2="172.25" y2="198.95"/><line x1="172.25" y1="198.95" x2="173.41" y2="197.8"/><line x1="201.07" y1="189.73" x2="182.63" y2="189.73"/><line x1="188.39" y1="197.8" x2="184.93" y2="198.95"/><line x1="184.93" y1="198.95" x2="182.63" y2="198.95"/><line x1="188.39" y1="197.8" x2="188.39" y2="196.64"/><line x1="199.92" y1="198.95" x2="196.46" y2="197.8"/><line x1="202.22" y1="197.8" x2="199.92" y2="198.95"/><line x1="202.22" y1="197.8" x2="199.92" y2="195.49"/><line x1="196.46" y1="197.8" x2="190.69" y2="196.64"/><line x1="199.92" y1="195.49" x2="195.31" y2="194.34"/><line x1="199.92" y1="195.49" x2="196.46" y2="197.8"/><line x1="217.2" y1="193.19" x2="214.25" y2="190.23"/><line x1="228.73" y1="193.19" x2="217.2" y2="193.19"/><line x1="231.68" y1="190.23" x2="228.73" y2="193.19"/><line x1="196.46" y1="197.8" x2="190.69" y2="198.95"/><line x1="210.29" y1="170.14" x2="217.2" y2="170.14"/><line x1="221.81" y1="167.83" x2="221.81" y2="170.14"/><line x1="274.83" y1="188" x2="274.83" y2="189.15"/><line x1="266.76" y1="139.02" x2="267.92" y2="137.86"/><line x1="217.2" y1="54.88" x2="226.42" y2="54.88"/><line x1="251.78" y1="52.58" x2="235.64" y2="52.58"/><line x1="235.64" y1="54.88" x2="237.95" y2="54.88"/><line x1="261" y1="54.88" x2="270.22" y2="54.88"/><line x1="240.25" y1="53.73" x2="239.1" y2="54.88"/><line x1="245.44" y1="22.03" x2="241.98" y2="22.03"/><line x1="246.02" y1="20.88" x2="245.44" y2="22.03"/><line x1="241.98" y1="19.73" x2="245.44" y2="19.73"/><line x1="245.44" y1="19.73" x2="246.02" y2="20.88"/><line x1="249.47" y1="30.68" x2="237.95" y2="30.68"/><line x1="237.95" y1="27.8" x2="241.41" y2="20.88"/><line x1="241.98" y1="22.03" x2="241.41" y2="20.88"/><line x1="237.95" y1="30.68" x2="237.95" y2="27.8"/><line x1="231.03" y1="50.27" x2="231.03" y2="36.44"/><line x1="231.03" y1="36.44" x2="256.39" y2="36.44"/><line x1="256.39" y1="36.44" x2="256.39" y2="50.27"/><line x1="256.39" y1="50.27" x2="231.03" y2="50.27"/><line x1="237.95" y1="54.88" x2="239.1" y2="54.88"/><line x1="258.69" y1="34.14" x2="258.69" y2="47.97"/><line x1="228.73" y1="34.14" x2="258.69" y2="34.14"/><line x1="228.73" y1="47.97" x2="228.73" y2="34.14"/><line x1="237.95" y1="54.88" x2="236.8" y2="53.73"/><line x1="236.8" y1="53.73" x2="235.64" y2="53.73"/><line x1="243.71" y1="54.88" x2="247.17" y2="54.88"/><line x1="249.47" y1="27.8" x2="249.47" y2="30.68"/><line x1="251.78" y1="54.88" x2="250.63" y2="53.73"/><line x1="250.63" y1="53.73" x2="249.47" y2="53.73"/><line x1="248.32" y1="54.88" x2="251.78" y2="54.88"/><line x1="249.47" y1="53.73" x2="248.32" y2="54.88"/><line x1="247.17" y1="54.88" x2="248.32" y2="54.88"/><line x1="247.17" y1="54.88" x2="246.02" y2="53.73"/><line x1="246.02" y1="53.73" x2="244.86" y2="53.73"/><line x1="239.1" y1="54.88" x2="242.56" y2="54.88"/><line x1="154.97" y1="211.63" x2="153.81" y2="211.63"/><line x1="281.75" y1="75.63" x2="281.75" y2="100.98"/><line x1="244.86" y1="53.73" x2="243.71" y2="54.88"/><line x1="242.56" y1="54.88" x2="243.71" y2="54.88"/><line x1="242.56" y1="54.88" x2="241.41" y2="53.73"/><line x1="241.41" y1="53.73" x2="240.25" y2="53.73"/><line x1="262.15" y1="96.37" x2="262.15" y2="110.2"/><line x1="209.14" y1="72.17" x2="205.68" y2="68.71"/><line x1="205.68" y1="68.71" x2="205.68" y2="59.49"/><line x1="191.85" y1="79.08" x2="187.24" y2="79.08"/><line x1="191.85" y1="77.93" x2="187.24" y2="77.93"/><line x1="187.24" y1="79.66" x2="191.85" y2="79.66"/><line x1="281.75" y1="126.34" x2="281.75" y2="130.95"/><line x1="281.75" y1="137.86" x2="281.75" y2="142.47"/><line x1="281.75" y1="133.25" x2="281.75" y2="135.56"/><line x1="194.15" y1="82.54" x2="184.93" y2="82.54"/><line x1="232.19" y1="84.85" x2="229.88" y2="84.85"/><line x1="229.88" y1="84.85" x2="228.73" y2="86"/><line x1="228.73" y1="86" x2="227.58" y2="89.46"/><line x1="227.58" y1="89.46" x2="227.58" y2="94.07"/><line x1="227.58" y1="94.07" x2="228.73" y2="97.53"/><line x1="228.73" y1="97.53" x2="229.88" y2="98.68"/><line x1="229.88" y1="98.68" x2="232.19" y2="98.68"/><line x1="232.19" y1="98.68" x2="233.34" y2="97.53"/><line x1="233.34" y1="97.53" x2="234.49" y2="94.07"/><line x1="234.49" y1="94.07" x2="234.49" y2="89.46"/><line x1="234.49" y1="89.46" x2="233.34" y2="86"/><line x1="233.34" y1="86" x2="232.19" y2="84.85"/><line x1="152.66" y1="144.78" x2="152.66" y2="149.39"/><line x1="233.34" y1="170.14" x2="233.34" y2="188.58"/><line x1="154.97" y1="149.39" x2="152.66" y2="149.39"/><line x1="184.93" y1="82.54" x2="181.47" y2="86"/><line x1="265.61" y1="141.32" x2="266.76" y2="139.02"/><line x1="154.97" y1="151.69" x2="152.66" y2="151.69"/><line x1="175.71" y1="170.14" x2="178.02" y2="188.58"/><line x1="256.97" y1="76.78" x2="259.85" y2="79.66"/><line x1="259.85" y1="79.66" x2="259.85" y2="124.61"/><line x1="259.85" y1="124.61" x2="256.97" y2="127.49"/><line x1="256.97" y1="127.49" x2="239.1" y2="127.49"/><line x1="237.95" y1="127.49" x2="224.12" y2="127.49"/><line x1="224.12" y1="127.49" x2="222.97" y2="127.49"/><line x1="205.1" y1="127.49" x2="202.22" y2="124.61"/><line x1="202.22" y1="124.61" x2="202.22" y2="79.66"/><line x1="202.22" y1="79.66" x2="205.1" y2="76.78"/><line x1="205.1" y1="76.78" x2="256.97" y2="76.78"/><line x1="239.1" y1="128.64" x2="239.1" y2="127.49"/><line x1="239.1" y1="127.49" x2="237.95" y2="127.49"/><line x1="237.37" y1="122.88" x2="224.69" y2="122.88"/><line x1="224.69" y1="122.88" x2="222.97" y2="124.61"/><line x1="222.97" y1="124.61" x2="222.97" y2="127.49"/><line x1="222.97" y1="127.49" x2="222.97" y2="128.64"/><line x1="224.12" y1="127.49" x2="224.12" y2="128.64"/><line x1="224.12" y1="125.19" x2="224.12" y2="127.49"/><line x1="225.27" y1="124.03" x2="224.12" y2="125.19"/><line x1="236.8" y1="124.03" x2="225.27" y2="124.03"/><line x1="237.95" y1="125.19" x2="236.8" y2="124.03"/><line x1="237.95" y1="127.49" x2="237.95" y2="125.19"/><line x1="154.97" y1="207.02" x2="153.81" y2="207.02"/><line x1="154.97" y1="211.63" x2="154.97" y2="207.02"/><line x1="237.95" y1="43.36" x2="240.25" y2="43.36"/><line x1="246.02" y1="20.88" x2="249.47" y2="27.8"/><line x1="154.97" y1="207.02" x2="154.97" y2="201.97"/><line x1="159.58" y1="220.85" x2="157.27" y2="218.54"/><line x1="174.56" y1="215.66" x2="173.41" y2="215.66"/><line x1="247.17" y1="41.05" x2="240.25" y2="41.05"/><line x1="240.25" y1="41.05" x2="237.95" y2="41.05"/><line x1="249.47" y1="41.05" x2="247.17" y2="41.05"/><line x1="158.42" y1="201.25" x2="159.58" y2="200.1"/><line x1="159.58" y1="200.1" x2="158.42" y2="198.95"/><line x1="158.42" y1="198.95" x2="159.58" y2="197.8"/><line x1="159.58" y1="197.8" x2="160.73" y2="197.8"/><line x1="160.73" y1="197.8" x2="161.88" y2="198.95"/><line x1="236.8" y1="31.83" x2="250.63" y2="31.83"/><line x1="152.66" y1="149.39" x2="152.66" y2="151.69"/><line x1="240.25" y1="43.36" x2="247.17" y2="43.36"/><line x1="201.07" y1="190.88" x2="182.63" y2="190.88"/><line x1="201.07" y1="188.58" x2="182.63" y2="188.58"/><line x1="197.61" y1="86" x2="194.15" y2="82.54"/><line x1="191.85" y1="80.81" x2="187.24" y2="80.81"/><line x1="267.92" y1="137.86" x2="266.76" y2="134.41"/><line x1="266.76" y1="134.41" x2="270.22" y2="132.1"/><line x1="270.22" y1="132.1" x2="269.07" y2="135.56"/><line x1="269.07" y1="135.56" x2="271.37" y2="136.71"/><line x1="271.37" y1="136.71" x2="275.98" y2="135.56"/><line x1="275.98" y1="135.56" x2="279.44" y2="139.02"/><line x1="279.44" y1="139.02" x2="275.98" y2="137.86"/><line x1="275.98" y1="137.86" x2="273.68" y2="137.86"/><line x1="273.68" y1="137.86" x2="274.83" y2="140.17"/><line x1="274.83" y1="140.17" x2="273.68" y2="143.63"/><line x1="273.68" y1="143.63" x2="274.83" y2="144.78"/><line x1="274.83" y1="144.78" x2="277.14" y2="145.93"/><line x1="277.14" y1="145.93" x2="273.68" y2="145.93"/><line x1="273.68" y1="145.93" x2="271.37" y2="143.63"/><line x1="271.37" y1="143.63" x2="272.53" y2="141.32"/><line x1="272.53" y1="141.32" x2="270.22" y2="142.47"/><line x1="270.22" y1="142.47" x2="267.92" y2="141.32"/><line x1="267.92" y1="141.32" x2="266.76" y2="143.63"/><line x1="266.76" y1="143.63" x2="267.92" y2="144.78"/><line x1="174.56" y1="209.32" x2="173.41" y2="209.32"/><line x1="173.41" y1="199.67" x2="173.41" y2="209.32"/><line x1="266.76" y1="158.61" x2="246.02" y2="158.61"/><line x1="265.61" y1="156.31" x2="247.17" y2="156.31"/><line x1="265.61" y1="163.22" x2="247.17" y2="163.22"/><line x1="266.76" y1="160.92" x2="246.02" y2="160.92"/><line x1="228.73" y1="140.17" x2="228.73" y2="144.78"/><line x1="228.73" y1="144.78" x2="233.34" y2="144.78"/><line x1="233.34" y1="144.78" x2="233.34" y2="140.17"/><line x1="233.34" y1="140.17" x2="228.73" y2="140.17"/><line x1="226.42" y1="137.86" x2="225.27" y2="142.47"/><line x1="226.42" y1="147.08" x2="231.03" y2="148.24"/><line x1="235.64" y1="147.08" x2="236.8" y2="142.47"/><line x1="235.64" y1="137.86" x2="231.03" y2="136.71"/><line x1="229.31" y1="140.75" x2="229.31" y2="144.2"/><line x1="229.31" y1="144.2" x2="232.76" y2="144.2"/><line x1="232.76" y1="144.2" x2="232.76" y2="140.75"/><line x1="232.76" y1="140.75" x2="229.31" y2="140.75"/><line x1="227.58" y1="139.02" x2="227" y2="142.47"/><line x1="227.58" y1="145.93" x2="231.03" y2="146.51"/><line x1="234.49" y1="145.93" x2="235.07" y2="142.47"/><line x1="234.49" y1="139.02" x2="231.03" y2="138.44"/><line x1="227" y1="142.47" x2="227.58" y2="145.93"/><line x1="235.07" y1="142.47" x2="234.49" y2="139.02"/><line x1="231.03" y1="146.51" x2="234.49" y2="145.93"/><line x1="231.03" y1="138.44" x2="227.58" y2="139.02"/><line x1="231.03" y1="136.71" x2="226.42" y2="137.86"/><line x1="236.8" y1="142.47" x2="235.64" y2="137.86"/><line x1="225.27" y1="142.47" x2="226.42" y2="147.08"/><line x1="231.03" y1="148.24" x2="235.64" y2="147.08"/><line x1="159.58" y1="200.1" x2="160.73" y2="200.1"/><line x1="160.73" y1="200.1" x2="161.88" y2="201.25"/><line x1="161.88" y1="201.25" x2="163.03" y2="201.25"/><line x1="163.03" y1="201.25" x2="164.19" y2="200.1"/><line x1="164.19" y1="200.1" x2="163.03" y2="198.95"/><line x1="166.49" y1="198.95" x2="165.34" y2="200.1"/><line x1="165.34" y1="200.1" x2="166.49" y2="201.25"/><line x1="166.49" y1="201.25" x2="167.64" y2="201.25"/><line x1="167.64" y1="201.25" x2="168.8" y2="200.1"/><line x1="168.8" y1="202.41" x2="167.64" y2="203.56"/><line x1="167.64" y1="203.56" x2="168.8" y2="204.71"/><line x1="168.8" y1="204.71" x2="169.95" y2="204.71"/><line x1="169.95" y1="204.71" x2="171.1" y2="203.56"/><line x1="171.1" y1="203.56" x2="169.95" y2="202.41"/><line x1="169.95" y1="202.41" x2="168.8" y2="202.41"/></g><g stroke="#d3b15b" stroke-width="2.4" stroke-linecap="round"><line x1="246.02" y1="162.07" x2="246.02" y2="160.92"/><line x1="138.83" y1="188.58" x2="137.68" y2="187.42"/><line x1="198.76" y1="165.53" x2="199.92" y2="166.68"/><line x1="134.22" y1="183.97" x2="134.22" y2="140.17"/><line x1="180.32" y1="126.34" x2="180.32" y2="119.42"/><line x1="258.69" y1="130.95" x2="259.85" y2="129.8"/><line x1="263.31" y1="126.34" x2="263.31" y2="124.03"/><line x1="281.75" y1="144.78" x2="280.59" y2="145.93"/><line x1="277.14" y1="149.39" x2="270.22" y2="149.39"/><line x1="203.37" y1="149.39" x2="202.22" y2="150.54"/><line x1="198.76" y1="154" x2="198.76" y2="156.31"/><line x1="210.29" y1="54.88" x2="217.2" y2="54.88"/><line x1="277.14" y1="54.88" x2="278.29" y2="56.03"/><line x1="203.37" y1="170.14" x2="210.29" y2="170.14"/><line x1="242.56" y1="170.14" x2="243.71" y2="168.98"/><line x1="247.17" y1="154" x2="246.02" y2="152.85"/><line x1="252.93" y1="188.58" x2="237.95" y2="188.58"/><line x1="270.22" y1="149.39" x2="269.07" y2="150.54"/><line x1="247.17" y1="165.53" x2="247.17" y2="163.22"/><line x1="242.56" y1="149.39" x2="237.95" y2="149.39"/><line x1="212.59" y1="188.58" x2="207.98" y2="188.58"/><line x1="233.34" y1="188.58" x2="231.68" y2="190.23"/><line x1="216.77" y1="193.62" x2="213.82" y2="190.67"/><line x1="214.25" y1="190.23" x2="212.59" y2="188.58"/><line x1="265.61" y1="154" x2="265.61" y2="156.31"/><line x1="180.32" y1="165.53" x2="180.32" y2="163.22"/><line x1="175.71" y1="170.14" x2="176.86" y2="168.98"/><line x1="157.27" y1="170.14" x2="164.19" y2="170.14"/><line x1="134.22" y1="100.98" x2="135.37" y2="99.83"/><line x1="152.66" y1="165.53" x2="153.81" y2="166.68"/><line x1="152.66" y1="119.42" x2="152.66" y2="133.25"/><line x1="203.37" y1="130.95" x2="226.42" y2="130.95"/><line x1="198.76" y1="126.34" x2="199.92" y2="127.49"/><line x1="262.15" y1="110.2" x2="261" y2="110.2"/><line x1="180.32" y1="96.37" x2="180.32" y2="87.15"/><line x1="198.76" y1="87.15" x2="198.76" y2="96.37"/><line x1="157.27" y1="114.81" x2="156.12" y2="115.97"/><line x1="163.03" y1="95.22" x2="164.19" y2="95.22"/><line x1="179.17" y1="118.27" x2="176.86" y2="115.97"/><line x1="258.69" y1="73.32" x2="233.34" y2="73.32"/><line x1="263.31" y1="77.93" x2="262.15" y2="76.78"/><line x1="210.29" y1="73.32" x2="209.14" y2="72.17"/><line x1="209.14" y1="56.03" x2="210.29" y2="54.88"/><line x1="168.8" y1="96.37" x2="180.32" y2="96.37"/><line x1="198.76" y1="96.37" x2="199.92" y2="96.37"/><line x1="201.07" y1="110.2" x2="199.92" y2="110.2"/><line x1="201.07" y1="96.37" x2="201.07" y2="79.08"/><line x1="153.81" y1="207.02" x2="153.81" y2="201.97"/><line x1="204.53" y1="75.63" x2="219.51" y2="75.63"/><line x1="257.54" y1="75.63" x2="261" y2="79.08"/><line x1="261" y1="79.08" x2="261" y2="96.37"/><line x1="261" y1="125.19" x2="257.54" y2="128.64"/><line x1="204.53" y1="128.64" x2="201.07" y2="125.19"/><line x1="201.07" y1="125.19" x2="201.07" y2="110.2"/><line x1="263.31" y1="96.37" x2="263.31" y2="77.93"/><line x1="261" y1="96.37" x2="262.15" y2="96.37"/><line x1="263.31" y1="110.2" x2="262.15" y2="110.2"/><line x1="261" y1="110.2" x2="261" y2="125.19"/><line x1="226.42" y1="128.64" x2="224.12" y2="128.64"/><line x1="237.95" y1="128.64" x2="235.64" y2="128.64"/><line x1="226.42" y1="130.95" x2="226.42" y2="128.64"/><line x1="235.64" y1="130.95" x2="258.69" y2="130.95"/><line x1="235.64" y1="128.64" x2="235.64" y2="130.95"/><line x1="257.54" y1="128.64" x2="239.1" y2="128.64"/><line x1="180.32" y1="163.22" x2="179.17" y2="162.07"/><line x1="198.76" y1="163.22" x2="198.76" y2="165.53"/><line x1="246.02" y1="157.46" x2="247.17" y2="156.31"/><line x1="152.66" y1="140.17" x2="152.66" y2="144.78"/><line x1="247.17" y1="156.31" x2="247.17" y2="154"/><line x1="134.22" y1="140.17" x2="133.07" y2="139.02"/><line x1="179.17" y1="160.92" x2="179.17" y2="158.61"/><line x1="199.92" y1="160.92" x2="199.92" y2="162.07"/><line x1="179.17" y1="158.61" x2="179.17" y2="157.46"/><line x1="199.92" y1="158.61" x2="199.92" y2="160.92"/><line x1="180.32" y1="156.31" x2="180.32" y2="126.34"/><line x1="198.76" y1="156.31" x2="199.92" y2="157.46"/><line x1="176.86" y1="115.97" x2="175.71" y2="114.81"/><line x1="263.31" y1="124.03" x2="262.15" y2="122.88"/><line x1="175.71" y1="114.81" x2="168.8" y2="114.81"/><line x1="281.75" y1="124.03" x2="281.75" y2="126.34"/><line x1="262.15" y1="121.73" x2="262.15" y2="119.42"/><line x1="282.9" y1="121.73" x2="282.9" y2="122.88"/><line x1="262.15" y1="119.42" x2="262.15" y2="118.27"/><line x1="282.9" y1="119.42" x2="282.9" y2="121.73"/><line x1="263.31" y1="117.12" x2="263.31" y2="110.2"/><line x1="281.75" y1="117.12" x2="282.9" y2="118.27"/><line x1="133.07" y1="137.86" x2="133.07" y2="135.56"/><line x1="153.81" y1="137.86" x2="153.81" y2="139.02"/><line x1="133.07" y1="135.56" x2="133.07" y2="134.41"/><line x1="153.81" y1="135.56" x2="153.81" y2="137.86"/><line x1="134.22" y1="133.25" x2="134.22" y2="100.98"/><line x1="152.66" y1="133.25" x2="153.81" y2="134.41"/><line x1="161.88" y1="96.37" x2="163.03" y2="95.22"/><line x1="153.81" y1="118.27" x2="152.66" y2="119.42"/><line x1="164.19" y1="95.22" x2="166.49" y2="95.22"/><line x1="164.19" y1="115.97" x2="163.03" y2="115.97"/><line x1="166.49" y1="95.22" x2="167.64" y2="95.22"/><line x1="166.49" y1="115.97" x2="164.19" y2="115.97"/><line x1="198.76" y1="110.2" x2="198.76" y2="126.34"/><line x1="168.8" y1="114.81" x2="167.64" y2="115.97"/><line x1="174.56" y1="215.66" x2="174.56" y2="216.81"/><line x1="174.56" y1="216.81" x2="169.37" y2="222"/><line x1="169.37" y1="222" x2="159" y2="222"/><line x1="269.64" y1="194.92" x2="269.07" y2="194.92"/><line x1="179.17" y1="166.68" x2="180.32" y2="165.53"/><line x1="275.98" y1="190.88" x2="273.68" y2="193.19"/><line x1="263.31" y1="198.95" x2="252.93" y2="188.58"/><line x1="265.03" y1="197.8" x2="263.31" y2="197.8"/><line x1="221.81" y1="167.83" x2="224.12" y2="167.83"/><line x1="233.34" y1="170.14" x2="237.95" y2="170.14"/><line x1="269.07" y1="194.92" x2="269.07" y2="196.64"/><line x1="269.07" y1="192.03" x2="269.07" y2="193.76"/><line x1="174.56" y1="209.32" x2="174.56" y2="213.93"/><line x1="152.66" y1="158.61" x2="152.66" y2="165.53"/><line x1="174.56" y1="213.93" x2="174.56" y2="215.66"/><line x1="269.07" y1="196.64" x2="270.22" y2="196.64"/><line x1="265.03" y1="198.37" x2="265.03" y2="197.8"/><line x1="270.8" y1="192.03" x2="269.07" y2="192.03"/><line x1="275.41" y1="188" x2="275.41" y2="189.15"/><line x1="237.95" y1="170.14" x2="242.56" y2="170.14"/><line x1="275.41" y1="189.15" x2="274.83" y2="189.15"/><line x1="270.8" y1="192.61" x2="270.8" y2="192.03"/><line x1="271.95" y1="192.03" x2="271.95" y2="192.61"/><line x1="265.61" y1="175.9" x2="275.98" y2="186.27"/><line x1="269.07" y1="193.76" x2="269.64" y2="193.76"/><line x1="224.12" y1="170.14" x2="233.34" y2="170.14"/><line x1="274.83" y1="189.15" x2="274.83" y2="190.88"/><line x1="219.51" y1="73.32" x2="210.29" y2="73.32"/><line x1="219.51" y1="75.63" x2="219.51" y2="73.32"/><line x1="153.81" y1="139.02" x2="152.66" y2="140.17"/><line x1="233.34" y1="73.32" x2="233.34" y2="75.63"/><line x1="150.36" y1="188.58" x2="138.83" y2="188.58"/><line x1="154.97" y1="193.19" x2="151.51" y2="189.73"/><line x1="173.41" y1="193.19" x2="173.41" y2="197.8"/><line x1="178.02" y1="188.58" x2="176.86" y2="189.73"/><line x1="199.92" y1="166.68" x2="202.22" y2="168.98"/><line x1="199.92" y1="157.46" x2="199.92" y2="158.61"/><line x1="199.92" y1="162.07" x2="198.76" y2="163.22"/><line x1="156.12" y1="168.98" x2="157.27" y2="170.14"/><line x1="153.81" y1="134.41" x2="153.81" y2="135.56"/><line x1="233.34" y1="75.63" x2="257.54" y2="75.63"/><line x1="263.31" y1="197.8" x2="263.31" y2="198.95"/><line x1="176.86" y1="168.98" x2="179.17" y2="166.68"/><line x1="273.68" y1="193.19" x2="273.68" y2="192.03"/><line x1="273.68" y1="192.03" x2="271.95" y2="192.03"/><line x1="161.88" y1="114.81" x2="157.27" y2="114.81"/><line x1="249.47" y1="41.05" x2="249.47" y2="43.36"/><line x1="270.22" y1="196.64" x2="267.92" y2="198.95"/><line x1="239.1" y1="128.64" x2="237.95" y2="128.64"/><line x1="173.41" y1="199.67" x2="174.56" y2="199.67"/><line x1="237.95" y1="149.39" x2="237.95" y2="151.69"/><line x1="205.68" y1="149.39" x2="203.37" y2="149.39"/><line x1="275.98" y1="186.27" x2="274.83" y2="186.27"/><line x1="266.19" y1="198.37" x2="265.03" y2="198.37"/><line x1="266.19" y1="197.8" x2="266.19" y2="198.37"/><line x1="152.66" y1="144.78" x2="154.97" y2="144.78"/><line x1="154.97" y1="149.39" x2="154.97" y2="151.69"/><line x1="237.95" y1="151.69" x2="214.9" y2="151.69"/><line x1="176.86" y1="189.73" x2="173.41" y2="193.19"/><line x1="179.17" y1="162.07" x2="179.17" y2="160.92"/><line x1="156.12" y1="219.12" x2="153.81" y2="216.81"/><line x1="135.37" y1="185.12" x2="134.22" y2="183.97"/><line x1="151.51" y1="189.73" x2="150.36" y2="188.58"/><line x1="204.53" y1="196.64" x2="202.22" y2="197.8"/><line x1="201.07" y1="190.88" x2="203.37" y2="193.19"/><line x1="159" y1="222" x2="156.12" y2="219.12"/><line x1="154.97" y1="200.1" x2="154.97" y2="193.19"/><line x1="173.41" y1="197.8" x2="173.41" y2="199.67"/><line x1="182.63" y1="190.88" x2="182.63" y2="189.73"/><line x1="201.07" y1="189.73" x2="201.07" y2="190.88"/><line x1="202.22" y1="197.8" x2="201.07" y2="200.1"/><line x1="201.07" y1="200.1" x2="182.63" y2="200.1"/><line x1="203.37" y1="193.19" x2="204.53" y2="196.64"/><line x1="182.63" y1="198.95" x2="181.47" y2="196.64"/><line x1="207.98" y1="188.58" x2="205.68" y2="188.58"/><line x1="205.68" y1="188.58" x2="201.07" y2="188.58"/><line x1="237.95" y1="188.58" x2="233.34" y2="188.58"/><line x1="182.63" y1="200.1" x2="182.63" y2="198.95"/><line x1="213.82" y1="190.67" x2="214.25" y2="190.23"/><line x1="231.68" y1="190.23" x2="232.11" y2="190.67"/><line x1="232.11" y1="190.67" x2="229.16" y2="193.62"/><line x1="229.16" y1="193.62" x2="216.77" y2="193.62"/><line x1="243.71" y1="168.98" x2="246.02" y2="166.68"/><line x1="246.02" y1="152.85" x2="243.71" y2="150.54"/><line x1="266.76" y1="152.85" x2="265.61" y2="154"/><line x1="269.07" y1="150.54" x2="266.76" y2="152.85"/><line x1="243.71" y1="150.54" x2="242.56" y2="149.39"/><line x1="202.22" y1="150.54" x2="199.92" y2="152.85"/><line x1="199.92" y1="152.85" x2="198.76" y2="154"/><line x1="210.29" y1="170.14" x2="210.29" y2="167.83"/><line x1="269.64" y1="193.76" x2="269.64" y2="194.92"/><line x1="271.95" y1="192.61" x2="270.8" y2="192.61"/><line x1="224.12" y1="167.83" x2="224.12" y2="170.14"/><line x1="210.29" y1="167.83" x2="217.2" y2="167.83"/><line x1="274.83" y1="188" x2="275.41" y2="188"/><line x1="246.02" y1="166.68" x2="247.17" y2="165.53"/><line x1="202.22" y1="168.98" x2="203.37" y2="170.14"/><line x1="217.2" y1="167.83" x2="221.81" y2="167.83"/><line x1="180.32" y1="119.42" x2="179.17" y2="118.27"/><line x1="179.17" y1="157.46" x2="180.32" y2="156.31"/><line x1="226.42" y1="54.88" x2="235.64" y2="54.88"/><line x1="217.2" y1="53.73" x2="226.42" y2="53.73"/><line x1="261" y1="54.88" x2="261" y2="53.73"/><line x1="270.22" y1="53.73" x2="270.22" y2="54.88"/><line x1="281.75" y1="71.02" x2="281.75" y2="73.32"/><line x1="286.36" y1="89.46" x2="286.36" y2="100.98"/><line x1="281.75" y1="68.71" x2="281.75" y2="71.02"/><line x1="281.75" y1="73.32" x2="281.75" y2="75.63"/><line x1="286.93" y1="80.24" x2="286.93" y2="82.54"/><line x1="251.78" y1="52.58" x2="251.78" y2="54.88"/><line x1="235.64" y1="54.88" x2="235.64" y2="53.73"/><line x1="286.36" y1="82.54" x2="286.36" y2="84.85"/><line x1="286.93" y1="84.85" x2="286.93" y2="89.46"/><line x1="286.93" y1="89.46" x2="286.36" y2="89.46"/><line x1="286.36" y1="84.85" x2="286.93" y2="84.85"/><line x1="286.93" y1="82.54" x2="286.36" y2="82.54"/><line x1="251.78" y1="54.88" x2="261" y2="54.88"/><line x1="261" y1="53.73" x2="270.22" y2="53.73"/><line x1="226.42" y1="53.73" x2="226.42" y2="54.88"/><line x1="217.2" y1="54.88" x2="217.2" y2="53.73"/><line x1="270.22" y1="54.88" x2="277.14" y2="54.88"/><line x1="235.64" y1="52.58" x2="231.03" y2="52.58"/><line x1="228.73" y1="52.58" x2="228.73" y2="47.97"/><line x1="258.69" y1="47.97" x2="258.69" y2="52.58"/><line x1="258.69" y1="52.58" x2="251.78" y2="52.58"/><line x1="286.36" y1="80.24" x2="286.93" y2="80.24"/><line x1="153.81" y1="216.81" x2="153.81" y2="211.63"/><line x1="286.36" y1="75.63" x2="286.36" y2="80.24"/><line x1="286.36" y1="100.98" x2="281.75" y2="100.98"/><line x1="235.64" y1="53.73" x2="235.64" y2="52.58"/><line x1="281.75" y1="75.63" x2="286.36" y2="75.63"/><line x1="231.03" y1="52.58" x2="228.73" y2="52.58"/><line x1="133.07" y1="139.02" x2="133.07" y2="137.86"/><line x1="133.07" y1="134.41" x2="134.22" y2="133.25"/><line x1="261" y1="31.83" x2="261" y2="47.97"/><line x1="135.37" y1="99.83" x2="137.68" y2="97.53"/><line x1="137.68" y1="97.53" x2="138.83" y2="96.37"/><line x1="197.61" y1="86" x2="198.76" y2="87.15"/><line x1="262.15" y1="96.37" x2="263.31" y2="96.37"/><line x1="180.32" y1="87.15" x2="181.47" y2="86"/><line x1="282.9" y1="118.27" x2="282.9" y2="119.42"/><line x1="282.9" y1="122.88" x2="281.75" y2="124.03"/><line x1="278.29" y1="56.03" x2="280.59" y2="58.34"/><line x1="280.59" y1="58.34" x2="281.75" y2="59.49"/><line x1="207.98" y1="54.88" x2="209.14" y2="56.03"/><line x1="203.95" y1="58.92" x2="207.98" y2="54.88"/><line x1="203.95" y1="69.29" x2="203.95" y2="58.92"/><line x1="207.98" y1="73.32" x2="203.95" y2="69.29"/><line x1="209.14" y1="72.17" x2="207.98" y2="73.32"/><line x1="259.85" y1="74.47" x2="258.69" y2="73.32"/><line x1="262.15" y1="76.78" x2="259.85" y2="74.47"/><line x1="262.15" y1="118.27" x2="263.31" y2="117.12"/><line x1="262.15" y1="122.88" x2="262.15" y2="121.73"/><line x1="163.03" y1="115.97" x2="161.88" y2="114.81"/><line x1="191.85" y1="80.81" x2="194.73" y2="80.81"/><line x1="187.24" y1="79.66" x2="187.24" y2="79.08"/><line x1="187.24" y1="79.08" x2="187.24" y2="77.93"/><line x1="191.85" y1="79.08" x2="191.85" y2="79.66"/><line x1="193" y1="76.78" x2="191.85" y2="77.93"/><line x1="278.29" y1="148.24" x2="277.14" y2="149.39"/><line x1="280.59" y1="145.93" x2="278.29" y2="148.24"/><line x1="284.05" y1="126.34" x2="284.05" y2="130.95"/><line x1="284.05" y1="130.95" x2="281.75" y2="130.95"/><line x1="281.75" y1="126.34" x2="284.05" y2="126.34"/><line x1="281.75" y1="130.95" x2="281.75" y2="133.25"/><line x1="284.05" y1="137.86" x2="284.05" y2="142.47"/><line x1="284.05" y1="142.47" x2="281.75" y2="142.47"/><line x1="281.75" y1="137.86" x2="284.05" y2="137.86"/><line x1="281.75" y1="142.47" x2="281.75" y2="144.78"/><line x1="282.9" y1="133.25" x2="282.9" y2="135.56"/><line x1="282.9" y1="135.56" x2="281.75" y2="135.56"/><line x1="281.75" y1="133.25" x2="282.9" y2="133.25"/><line x1="281.75" y1="135.56" x2="281.75" y2="137.86"/><line x1="259.85" y1="129.8" x2="262.15" y2="127.49"/><line x1="262.15" y1="127.49" x2="263.31" y2="126.34"/><line x1="199.92" y1="127.49" x2="202.22" y2="129.8"/><line x1="202.22" y1="129.8" x2="203.37" y2="130.95"/><line x1="153.81" y1="166.68" x2="156.12" y2="168.98"/><line x1="164.19" y1="170.14" x2="168.8" y2="170.14"/><line x1="168.8" y1="170.14" x2="175.71" y2="170.14"/><line x1="267.92" y1="197.8" x2="266.19" y2="197.8"/><line x1="181.47" y1="86" x2="180.32" y2="84.85"/><line x1="274.83" y1="186.27" x2="274.83" y2="188"/><line x1="214.9" y1="151.69" x2="205.68" y2="151.69"/><line x1="274.83" y1="190.88" x2="275.98" y2="190.88"/><line x1="224.12" y1="128.64" x2="222.97" y2="128.64"/><line x1="154.97" y1="201.97" x2="154.97" y2="200.1"/><line x1="201.07" y1="79.08" x2="204.53" y2="75.63"/><line x1="153.81" y1="211.63" x2="153.81" y2="207.02"/><line x1="228.73" y1="47.97" x2="226.42" y2="47.97"/><line x1="226.42" y1="47.97" x2="226.42" y2="31.83"/><line x1="199.92" y1="96.37" x2="201.07" y2="96.37"/><line x1="199.92" y1="110.2" x2="198.76" y2="110.2"/><line x1="233.34" y1="43.36" x2="237.95" y2="43.36"/><line x1="237.95" y1="41.05" x2="233.34" y2="41.05"/><line x1="281.75" y1="59.49" x2="281.75" y2="68.71"/><line x1="153.81" y1="201.97" x2="154.97" y2="201.97"/><line x1="222.97" y1="128.64" x2="204.53" y2="128.64"/><line x1="249.47" y1="43.36" x2="254.08" y2="43.36"/><line x1="237.95" y1="43.36" x2="237.95" y2="41.05"/><line x1="254.08" y1="43.36" x2="254.08" y2="41.05"/><line x1="254.08" y1="41.05" x2="249.47" y2="41.05"/><line x1="233.34" y1="41.05" x2="233.34" y2="43.36"/><line x1="281.75" y1="100.98" x2="281.75" y2="117.12"/><line x1="180.32" y1="193.19" x2="182.63" y2="190.88"/><line x1="181.47" y1="196.64" x2="180.32" y2="193.19"/><line x1="236.8" y1="27.22" x2="241.41" y2="18"/><line x1="241.41" y1="18" x2="246.02" y2="18"/><line x1="261" y1="47.97" x2="258.69" y2="47.97"/><line x1="246.02" y1="18" x2="250.63" y2="27.22"/><line x1="138.83" y1="96.37" x2="161.88" y2="96.37"/><line x1="250.63" y1="27.22" x2="250.63" y2="31.83"/><line x1="236.8" y1="31.83" x2="236.8" y2="27.22"/><line x1="250.63" y1="31.83" x2="261" y2="31.83"/><line x1="226.42" y1="31.83" x2="236.8" y2="31.83"/><line x1="154.97" y1="151.69" x2="154.97" y2="158.61"/><line x1="154.97" y1="158.61" x2="152.66" y2="158.61"/><line x1="154.97" y1="144.78" x2="154.97" y2="149.39"/><line x1="137.68" y1="187.42" x2="135.37" y2="185.12"/><line x1="182.63" y1="188.58" x2="178.02" y2="188.58"/><line x1="201.07" y1="188.58" x2="201.07" y2="189.73"/><line x1="182.63" y1="189.73" x2="182.63" y2="188.58"/><line x1="198.76" y1="84.85" x2="197.61" y2="86"/><line x1="194.73" y1="80.81" x2="198.76" y2="84.85"/><line x1="184.36" y1="80.81" x2="187.24" y2="80.81"/><line x1="180.32" y1="84.85" x2="184.36" y2="80.81"/><line x1="205.68" y1="151.69" x2="205.68" y2="149.39"/><line x1="267.92" y1="198.95" x2="267.92" y2="197.8"/><line x1="167.64" y1="95.22" x2="168.8" y2="96.37"/><line x1="167.64" y1="115.97" x2="166.49" y2="115.97"/><line x1="187.24" y1="77.93" x2="186.08" y2="76.78"/><line x1="187.24" y1="80.81" x2="187.24" y2="79.66"/><line x1="186.08" y1="69.86" x2="187.24" y2="68.71"/><line x1="186.08" y1="76.78" x2="186.08" y2="69.86"/><line x1="187.24" y1="68.71" x2="191.85" y2="68.71"/><line x1="193" y1="69.86" x2="193" y2="76.78"/><line x1="191.85" y1="68.71" x2="193" y2="69.86"/><line x1="191.85" y1="77.93" x2="191.85" y2="79.08"/><line x1="191.85" y1="79.66" x2="191.85" y2="80.81"/><line x1="174.56" y1="199.67" x2="174.56" y2="209.32"/><line x1="266.76" y1="162.07" x2="265.61" y2="163.22"/><line x1="265.61" y1="156.31" x2="266.76" y2="157.46"/><line x1="266.76" y1="157.46" x2="266.76" y2="158.61"/><line x1="265.61" y1="163.22" x2="265.61" y2="175.9"/><line x1="247.17" y1="163.22" x2="246.02" y2="162.07"/><line x1="246.02" y1="160.92" x2="246.02" y2="158.61"/><line x1="266.76" y1="160.92" x2="266.76" y2="162.07"/><line x1="246.02" y1="158.61" x2="246.02" y2="157.46"/><line x1="266.76" y1="158.61" x2="266.76" y2="160.92"/><line x1="156.12" y1="115.97" x2="153.81" y2="118.27"/></g><g opacity="0.95"><circle cx="187.24" cy="174.75" r="3.2" fill="#b7493c"/><circle cx="218.36" cy="190.88" r="2.2" fill="#d3b15b"/><circle cx="285.2" cy="79.66" r="2.2" fill="#d3b15b"/><circle cx="267.34" cy="196.07" r="2.2" fill="#d3b15b"/><circle cx="231.03" cy="121.73" r="2.2" fill="#d3b15b"/><circle cx="138.25" cy="100.41" r="2.2" fill="#d3b15b"/><circle cx="191.85" cy="174.75" r="3.2" fill="#b7493c"/><circle cx="181.47" cy="140.17" r="3.2" fill="#b7493c"/><circle cx="153.81" cy="150.54" r="2.2" fill="#d3b15b"/><circle cx="273.1" cy="190.31" r="2.2" fill="#d3b15b"/><circle cx="160.15" cy="220.27" r="2.2" fill="#d3b15b"/><circle cx="258.12" cy="78.51" r="2.2" fill="#d3b15b"/><circle cx="182.63" cy="174.75" r="3.2" fill="#b7493c"/><circle cx="154.97" cy="213.93" r="2.2" fill="#d3b15b"/><circle cx="136.53" cy="127.49" r="2.2" fill="#d3b15b"/><circle cx="153.81" cy="148.24" r="2.2" fill="#d3b15b"/><circle cx="278.29" cy="145.93" r="3.2" fill="#b7493c"/><circle cx="231.03" cy="91.76" r="2.2" fill="#d3b15b"/><circle cx="271.37" cy="188.58" r="3.2" fill="#b7493c"/><circle cx="231.03" cy="126.34" r="2.2" fill="#d3b15b"/><circle cx="231.03" cy="142.47" r="2.2" fill="#d3b15b"/><circle cx="196.46" cy="174.75" r="3.2" fill="#b7493c"/><circle cx="231.03" cy="97.53" r="2.2" fill="#d3b15b"/><circle cx="278.29" cy="58.34" r="3.2" fill="#b7493c"/><circle cx="154.97" cy="211.05" r="2.2" fill="#d3b15b"/><circle cx="233.34" cy="89.46" r="2.2" fill="#d3b15b"/><circle cx="229.88" cy="95.22" r="2.2" fill="#d3b15b"/><circle cx="153.81" cy="145.93" r="2.2" fill="#d3b15b"/><circle cx="184.93" cy="124.61" r="2.2" fill="#d3b15b"/><circle cx="284.63" cy="95.22" r="2.2" fill="#d3b15b"/><circle cx="221.81" cy="126.92" r="2.2" fill="#d3b15b"/><circle cx="232.19" cy="95.22" r="2.2" fill="#d3b15b"/><circle cx="211.44" cy="56.03" r="2.2" fill="#d3b15b"/><circle cx="197.61" cy="125.19" r="3.2" fill="#b7493c"/><circle cx="157.85" cy="218.54" r="2.2" fill="#d3b15b"/><circle cx="227.58" cy="190.88" r="2.2" fill="#d3b15b"/><circle cx="137.68" cy="185.12" r="3.2" fill="#b7493c"/><circle cx="219.51" cy="168.98" r="2.2" fill="#d3b15b"/><circle cx="235.64" cy="126.34" r="2.2" fill="#d3b15b"/><circle cx="226.42" cy="126.34" r="2.2" fill="#d3b15b"/><circle cx="155.54" cy="216.81" r="2.2" fill="#d3b15b"/><circle cx="203.95" cy="78.51" r="3.2" fill="#b7493c"/><circle cx="227.58" cy="144.2" r="2.2" fill="#d3b15b"/><circle cx="284.63" cy="76.78" r="2.2" fill="#d3b15b"/><circle cx="243.71" cy="20.88" r="2.2" fill="#d3b15b"/><circle cx="228.15" cy="46.24" r="2.2" fill="#d3b15b"/><circle cx="259.27" cy="46.24" r="2.2" fill="#d3b15b"/><circle cx="146.32" cy="98.1" r="2.2" fill="#d3b15b"/><circle cx="142.29" cy="98.1" r="2.2" fill="#d3b15b"/><circle cx="137.68" cy="99.83" r="3.2" fill="#b7493c"/><circle cx="258.12" cy="125.76" r="3.2" fill="#b7493c"/><circle cx="197.03" cy="124.61" r="2.2" fill="#d3b15b"/><circle cx="284.63" cy="99.25" r="3.2" fill="#b7493c"/><circle cx="284.05" cy="98.68" r="2.2" fill="#d3b15b"/><circle cx="228.73" cy="89.46" r="2.2" fill="#d3b15b"/><circle cx="229.88" cy="86.58" r="2.2" fill="#d3b15b"/><circle cx="232.19" cy="86.58" r="2.2" fill="#d3b15b"/><circle cx="231.03" cy="145.93" r="2.2" fill="#d3b15b"/><circle cx="234.49" cy="144.2" r="2.2" fill="#d3b15b"/></g></svg>