<svg xmlns="http://www.w3.org/2000/svg" viewBox="0 0 420 240" role="img"><rect width="100%" height="100%" fill="#070706"/><g stroke="#5e5a4f" stroke-width="1.6" stroke-linecap="round"><line x1="195.43" y1="68.51" x2="195.43" y2="52.97"/><line x1="191.54" y1="68.51" x2="191.54" y2="52.97"/><line x1="121.6" y1="76.29" x2="141.03" y2="76.29"/><line x1="141.03" y1="107.37" x2="121.6" y2="107.37"/><line x1="121.6" y1="107.37" x2="113.83" y2="99.6"/><line x1="113.83" y1="99.6" x2="113.83" y2="84.06"/><line x1="113.83" y1="84.06" x2="121.6" y2="76.29"/><line x1="133.26" y1="86" x2="129.37" y2="86"/><line x1="129.37" y1="86" x2="125.49" y2="89.89"/><line x1="125.49" y1="89.89" x2="125.49" y2="93.77"/><line x1="125.49" y1="93.77" x2="129.37" y2="97.66"/><line x1="129.37" y1="97.66" x2="133.26" y2="97.66"/><line x1="133.26" y1="97.66" x2="137.14" y2="93.77"/><line x1="137.14" y1="93.77" x2="137.14" y2="89.89"/><line x1="137.14" y1="89.89" x2="133.26" y2="86"/><line x1="123.54" y1="94.74" x2="123.54" y2="88.91"/><line x1="123.54" y1="88.91" x2="128.4" y2="84.06"/><line x1="128.4" y1="84.06" x2="134.23" y2="84.06"/><line x1="134.23" y1="84.06" x2="139.09" y2="88.91"/><line x1="139.09" y1="88.91" x2="139.09" y2="94.74"/><line x1="139.09" y1="94.74" x2="134.23" y2="99.6"/><line x1="134.23" y1="99.6" x2="128.4" y2="99.6"/><line x1="128.4" y1="99.6" x2="123.54" y2="94.74"/><line x1="218.74" y1="80.17" x2="203.2" y2="80.17"/><line x1="218.74" y1="76.29" x2="203.2" y2="76.29"/><line x1="222.63" y1="80.17" x2="226.51" y2="84.06"/><line x1="226.51" y1="84.06" x2="226.51" y2="99.6"/><line x1="226.51" y1="99.6" x2="232.83" y2="105.91"/><line x1="234.29" y1="107.37" x2="234.29" y2="135.54"/><line x1="234.29" y1="138.46" x2="242.06" y2="146.23"/><line x1="242.06" y1="146.23" x2="265.37" y2="146.23"/><line x1="152.69" y1="185.09" x2="150.74" y2="183.14"/><line x1="144.91" y1="177.31" x2="144.91" y2="157.89"/><line x1="144.91" y1="157.89" x2="150.74" y2="152.06"/><line x1="249.83" y1="80.17" x2="249.83" y2="87.94"/><line x1="249.83" y1="87.94" x2="255.66" y2="93.77"/><line x1="257.6" y1="95.71" x2="257.6" y2="111.26"/><line x1="234.29" y1="84.06" x2="242.06" y2="84.06"/><line x1="242.06" y1="84.06" x2="242.06" y2="76.29"/><line x1="242.06" y1="76.29" x2="234.29" y2="76.29"/><line x1="234.29" y1="76.29" x2="234.29" y2="84.06"/><line x1="141.03" y1="179.26" x2="146.86" y2="185.09"/><line x1="141.03" y1="155.94" x2="141.03" y2="179.26"/><line x1="195.43" y1="111.26" x2="199.31" y2="111.26"/><line x1="222.63" y1="115.14" x2="226.51" y2="111.26"/><line x1="226.51" y1="111.26" x2="230.4" y2="111.26"/><line x1="230.4" y1="111.26" x2="234.29" y2="107.37"/><line x1="195.43" y1="144.29" x2="203.2" y2="144.29"/><line x1="203.2" y1="144.29" x2="207.09" y2="140.4"/><line x1="207.09" y1="140.4" x2="214.86" y2="140.4"/><line x1="214.86" y1="140.4" x2="216.8" y2="142.34"/><line x1="216.8" y1="142.34" x2="230.4" y2="142.34"/><line x1="230.4" y1="142.34" x2="232.83" y2="139.91"/><line x1="203.2" y1="115.14" x2="222.63" y2="115.14"/><line x1="199.31" y1="111.26" x2="203.2" y2="115.14"/><line x1="245.94" y1="150.11" x2="242.06" y2="146.23"/><line x1="249.83" y1="185.09" x2="249.83" y2="169.54"/><line x1="249.83" y1="169.54" x2="245.94" y2="165.66"/><line x1="245.94" y1="165.66" x2="245.94" y2="150.11"/><line x1="277.03" y1="157.89" x2="277.03" y2="173.43"/><line x1="273.14" y1="157.89" x2="273.14" y2="173.43"/><line x1="269.26" y1="138.46" x2="269.26" y2="130.69"/><line x1="253.71" y1="68.51" x2="253.71" y2="52.97"/><line x1="226.51" y1="52.97" x2="226.51" y2="68.51"/><line x1="257.6" y1="49.09" x2="304.23" y2="49.09"/><line x1="304.23" y1="115.14" x2="280.91" y2="115.14"/><line x1="280.91" y1="119.03" x2="304.23" y2="119.03"/><line x1="304.23" y1="49.09" x2="310.54" y2="55.4"/><line x1="312" y1="56.86" x2="312" y2="97.66"/><line x1="257.6" y1="72.4" x2="296.46" y2="72.4"/><line x1="296.46" y1="72.4" x2="312" y2="56.86"/><line x1="257.6" y1="95.71" x2="269.26" y2="95.71"/><line x1="269.26" y1="95.71" x2="273.14" y2="91.83"/><line x1="273.14" y1="91.83" x2="296.46" y2="91.83"/><line x1="296.46" y1="91.83" x2="304.23" y2="99.6"/><line x1="312" y1="99.6" x2="312" y2="107.37"/><line x1="304.23" y1="99.6" x2="312" y2="99.6"/><line x1="282.86" y1="103.49" x2="286.74" y2="107.37"/><line x1="277.03" y1="103.49" x2="282.86" y2="103.49"/><line x1="273.14" y1="107.37" x2="277.03" y2="103.49"/><line x1="273.14" y1="111.26" x2="273.14" y2="107.37"/><line x1="304.23" y1="107.37" x2="308.11" y2="111.26"/><line x1="286.74" y1="107.37" x2="304.23" y2="107.37"/><line x1="160.46" y1="150.11" x2="183.77" y2="150.11"/><line x1="183.77" y1="146.23" x2="160.46" y2="146.23"/><line x1="148.8" y1="165.66" x2="148.8" y2="169.54"/><line x1="148.8" y1="169.54" x2="156.57" y2="169.54"/><line x1="156.57" y1="169.54" x2="156.57" y2="165.66"/><line x1="156.57" y1="165.66" x2="148.8" y2="165.66"/><line x1="191.54" y1="84.06" x2="191.54" y2="115.14"/><line x1="117.71" y1="218.11" x2="94.4" y2="218.11"/><line x1="146.86" y1="150.11" x2="141.03" y2="155.94"/><line x1="191.54" y1="138.46" x2="187.66" y2="134.57"/><line x1="187.66" y1="134.57" x2="156.57" y2="134.57"/><line x1="156.57" y1="134.57" x2="152.69" y2="138.46"/><line x1="191.54" y1="134.57" x2="188.63" y2="131.66"/><line x1="188.63" y1="131.66" x2="155.6" y2="131.66"/><line x1="155.6" y1="131.66" x2="152.69" y2="134.57"/><line x1="234.29" y1="135.54" x2="234.29" y2="138.46"/><line x1="202.23" y1="142.34" x2="195.43" y2="142.34"/><line x1="234.29" y1="135.54" x2="229.43" y2="140.4"/><line x1="229.43" y1="140.4" x2="217.77" y2="140.4"/><line x1="217.77" y1="140.4" x2="215.83" y2="138.46"/><line x1="215.83" y1="138.46" x2="206.11" y2="138.46"/><line x1="206.11" y1="138.46" x2="202.23" y2="142.34"/><line x1="232.83" y1="105.91" x2="234.29" y2="107.37"/><line x1="200.29" y1="109.31" x2="195.43" y2="109.31"/><line x1="232.83" y1="105.91" x2="229.43" y2="109.31"/><line x1="229.43" y1="109.31" x2="225.54" y2="109.31"/><line x1="225.54" y1="109.31" x2="221.66" y2="113.2"/><line x1="221.66" y1="113.2" x2="204.17" y2="113.2"/><line x1="204.17" y1="113.2" x2="200.29" y2="109.31"/><line x1="244" y1="151.09" x2="244" y2="166.63"/><line x1="244" y1="166.63" x2="247.89" y2="170.51"/><line x1="247.89" y1="170.51" x2="247.89" y2="185.09"/><line x1="232.83" y1="139.91" x2="234.29" y2="138.46"/><line x1="232.83" y1="139.91" x2="244" y2="151.09"/><line x1="203.2" y1="78.23" x2="218.74" y2="78.23"/><line x1="218.74" y1="77.26" x2="203.2" y2="77.26"/><line x1="152.69" y1="107.37" x2="152.69" y2="76.29"/><line x1="129.86" y1="86.97" x2="126.46" y2="90.37"/><line x1="126.46" y1="90.37" x2="126.46" y2="93.29"/><line x1="126.46" y1="93.29" x2="129.86" y2="96.69"/><line x1="129.86" y1="96.69" x2="132.77" y2="96.69"/><line x1="132.77" y1="96.69" x2="136.17" y2="93.29"/><line x1="136.17" y1="93.29" x2="136.17" y2="90.37"/><line x1="136.17" y1="90.37" x2="132.77" y2="86.97"/><line x1="132.77" y1="86.97" x2="129.86" y2="86.97"/><line x1="305.2" y1="105.43" x2="287.71" y2="105.43"/><line x1="287.71" y1="105.43" x2="283.83" y2="101.54"/><line x1="283.83" y1="101.54" x2="276.06" y2="101.54"/><line x1="276.06" y1="101.54" x2="271.2" y2="106.4"/><line x1="271.2" y1="106.4" x2="271.2" y2="111.26"/><line x1="309.57" y1="109.8" x2="305.2" y2="105.43"/><line x1="312" y1="97.66" x2="312" y2="99.6"/><line x1="312" y1="97.66" x2="305.2" y2="97.66"/><line x1="305.2" y1="97.66" x2="297.43" y2="89.89"/><line x1="297.43" y1="89.89" x2="272.17" y2="89.89"/><line x1="272.17" y1="89.89" x2="268.29" y2="93.77"/><line x1="255.66" y1="93.77" x2="257.6" y2="95.71"/><line x1="268.29" y1="93.77" x2="255.66" y2="93.77"/><line x1="310.54" y1="55.4" x2="312" y2="56.86"/><line x1="295.49" y1="70.46" x2="255.66" y2="70.46"/><line x1="310.54" y1="55.4" x2="295.49" y2="70.46"/><line x1="265.37" y1="138.46" x2="265.37" y2="130.69"/><line x1="288.69" y1="169.54" x2="288.69" y2="177.31"/><line x1="288.69" y1="177.31" x2="296.46" y2="177.31"/><line x1="296.46" y1="177.31" x2="296.46" y2="169.54"/><line x1="296.46" y1="169.54" x2="288.69" y2="169.54"/><line x1="288.69" y1="130.69" x2="288.69" y2="138.46"/><line x1="288.69" y1="138.46" x2="296.46" y2="138.46"/><line x1="296.46" y1="138.46" x2="296.46" y2="130.69"/><line x1="296.46" y1="130.69" x2="288.69" y2="130.69"/><line x1="257.6" y1="138.46" x2="257.6" y2="130.69"/><line x1="265.37" y1="138.46" x2="257.6" y2="138.46"/><line x1="257.6" y1="130.69" x2="265.37" y2="130.69"/><line x1="179.89" y1="185.09" x2="172.11" y2="185.09"/><line x1="210.97" y1="185.09" x2="203.2" y2="185.09"/><line x1="242.06" y1="185.09" x2="234.29" y2="185.09"/><line x1="310.06" y1="154" x2="310.06" y2="161.77"/><line x1="308.11" y1="154" x2="308.11" y2="161.77"/><line x1="311.03" y1="161.77" x2="311.03" y2="154"/><line x1="306.17" y1="155.94" x2="306.17" y2="159.83"/><line x1="306.17" y1="159.83" x2="307.14" y2="159.83"/><line x1="307.14" y1="159.83" x2="307.14" y2="155.94"/><line x1="307.14" y1="155.94" x2="306.17" y2="155.94"/><line x1="94.4" y1="117.09" x2="117.71" y2="117.09"/><line x1="191.54" y1="150.11" x2="195.43" y2="146.23"/><line x1="195.43" y1="146.23" x2="195.43" y2="144.29"/><line x1="117.71" y1="185.09" x2="117.71" y2="150.11"/><line x1="189.6" y1="150.11" x2="191.54" y2="150.11"/><line x1="266.34" y1="133.6" x2="268.29" y2="133.6"/><line x1="268.29" y1="133.6" x2="268.29" y2="135.54"/><line x1="268.29" y1="135.54" x2="266.34" y2="135.54"/><line x1="266.34" y1="135.54" x2="266.34" y2="133.6"/><line x1="98.29" y1="216.17" x2="98.29" y2="119.03"/><line x1="98.29" y1="119.03" x2="113.83" y2="119.03"/><line x1="113.83" y1="119.03" x2="113.83" y2="216.17"/><line x1="113.83" y1="216.17" x2="98.29" y2="216.17"/><line x1="94.4" y1="218.11" x2="92.46" y2="218.11"/><line x1="94.4" y1="218.11" x2="94.4" y2="117.09"/><line x1="92.46" y1="117.09" x2="94.4" y2="117.09"/><line x1="234.29" y1="72.4" x2="238.17" y2="72.4"/><line x1="189.6" y1="150.11" x2="191.54" y2="152.06"/><line x1="191.54" y1="152.06" x2="195.43" y2="152.06"/><line x1="195.43" y1="152.06" x2="197.37" y2="150.11"/><line x1="197.37" y1="150.11" x2="197.37" y2="146.23"/><line x1="197.37" y1="146.23" x2="195.43" y2="144.29"/><line x1="203.2" y1="45.2" x2="210.97" y2="45.2"/><line x1="214.86" y1="28.69" x2="214.86" y2="32.57"/><line x1="214.86" y1="32.57" x2="218.74" y2="36.46"/><line x1="210.97" y1="44.23" x2="203.2" y2="44.23"/><line x1="203.2" y1="21.89" x2="203.2" y2="29.66"/><line x1="203.2" y1="29.66" x2="210.97" y2="29.66"/><line x1="210.97" y1="29.66" x2="210.97" y2="21.89"/><line x1="210.97" y1="21.89" x2="203.2" y2="21.89"/><line x1="210.97" y1="37.43" x2="210.97" y2="41.31"/><line x1="210.97" y1="41.31" x2="214.86" y2="41.31"/><line x1="214.86" y1="41.31" x2="214.86" y2="37.43"/><line x1="214.86" y1="37.43" x2="210.97" y2="37.43"/><line x1="199.31" y1="37.43" x2="199.31" y2="41.31"/><line x1="199.31" y1="41.31" x2="203.2" y2="41.31"/><line x1="203.2" y1="41.31" x2="203.2" y2="37.43"/><line x1="203.2" y1="37.43" x2="199.31" y2="37.43"/><line x1="198.34" y1="36.46" x2="198.34" y2="42.29"/><line x1="198.34" y1="42.29" x2="204.17" y2="42.29"/><line x1="204.17" y1="42.29" x2="204.17" y2="36.46"/><line x1="204.17" y1="36.46" x2="198.34" y2="36.46"/><line x1="210" y1="36.46" x2="210" y2="42.29"/><line x1="210" y1="42.29" x2="215.83" y2="42.29"/><line x1="215.83" y1="42.29" x2="215.83" y2="36.46"/><line x1="215.83" y1="36.46" x2="210" y2="36.46"/><line x1="203.2" y1="19.94" x2="210.97" y2="19.94"/><line x1="218.74" y1="36.46" x2="218.74" y2="38.4"/><line x1="199.31" y1="32.57" x2="199.31" y2="28.69"/><line x1="195.43" y1="36.46" x2="199.31" y2="32.57"/><line x1="195.43" y1="38.4" x2="195.43" y2="36.46"/><line x1="203.2" y1="45.2" x2="207.09" y2="46.17"/><line x1="207.09" y1="46.17" x2="210.97" y2="45.2"/><line x1="150.74" y1="152.06" x2="152.69" y2="150.11"/><line x1="150.74" y1="183.14" x2="144.91" y2="177.31"/></g><g stroke="#d3b15b" stroke-width="2.4" stroke-linecap="round"><line x1="195.43" y1="49.09" x2="199.31" y2="45.2"/><line x1="199.31" y1="45.2" x2="203.2" y2="45.2"/><line x1="222.63" y1="45.2" x2="226.51" y2="49.09"/><line x1="226.51" y1="49.09" x2="226.51" y2="52.97"/><line x1="226.51" y1="72.4" x2="222.63" y2="76.29"/><line x1="222.63" y1="76.29" x2="218.74" y2="76.29"/><line x1="199.31" y1="76.29" x2="195.43" y2="72.4"/><line x1="195.43" y1="72.4" x2="195.43" y2="68.51"/><line x1="195.43" y1="52.97" x2="195.43" y2="49.09"/><line x1="191.54" y1="52.97" x2="195.43" y2="52.97"/><line x1="195.43" y1="68.51" x2="191.54" y2="68.51"/><line x1="187.66" y1="45.2" x2="191.54" y2="49.09"/><line x1="191.54" y1="49.09" x2="191.54" y2="52.97"/><line x1="156.57" y1="45.2" x2="187.66" y2="45.2"/><line x1="191.54" y1="68.51" x2="191.54" y2="84.06"/><line x1="191.54" y1="142.34" x2="187.66" y2="146.23"/><line x1="187.66" y1="146.23" x2="183.77" y2="146.23"/><line x1="156.57" y1="146.23" x2="152.69" y2="142.34"/><line x1="152.69" y1="142.34" x2="152.69" y2="139.43"/><line x1="152.69" y1="49.09" x2="156.57" y2="45.2"/><line x1="152.69" y1="76.29" x2="152.69" y2="49.09"/><line x1="152.69" y1="107.37" x2="148.8" y2="103.49"/><line x1="148.8" y1="80.17" x2="152.69" y2="76.29"/><line x1="144.91" y1="80.17" x2="148.8" y2="80.17"/><line x1="141.03" y1="76.29" x2="144.91" y2="80.17"/><line x1="148.8" y1="103.49" x2="144.91" y2="103.49"/><line x1="144.91" y1="103.49" x2="141.03" y2="107.37"/><line x1="218.74" y1="76.29" x2="218.74" y2="77.26"/><line x1="203.2" y1="76.29" x2="199.31" y2="76.29"/><line x1="203.2" y1="80.17" x2="203.2" y2="78.23"/><line x1="199.31" y1="80.17" x2="203.2" y2="80.17"/><line x1="195.43" y1="84.06" x2="199.31" y2="80.17"/><line x1="218.74" y1="80.17" x2="222.63" y2="80.17"/><line x1="265.37" y1="146.23" x2="273.14" y2="154"/><line x1="273.14" y1="154" x2="273.14" y2="157.89"/><line x1="273.14" y1="177.31" x2="265.37" y2="185.09"/><line x1="265.37" y1="185.09" x2="249.83" y2="185.09"/><line x1="152.69" y1="150.11" x2="160.46" y2="150.11"/><line x1="191.54" y1="144.29" x2="195.43" y2="144.29"/><line x1="195.43" y1="144.29" x2="195.43" y2="142.34"/><line x1="222.63" y1="80.17" x2="224.57" y2="80.17"/><line x1="224.57" y1="80.17" x2="230.4" y2="74.34"/><line x1="230.4" y1="74.34" x2="230.4" y2="72.4"/><line x1="230.4" y1="72.4" x2="234.29" y2="72.4"/><line x1="242.06" y1="72.4" x2="249.83" y2="80.17"/><line x1="257.6" y1="119.03" x2="265.37" y2="126.8"/><line x1="265.37" y1="126.8" x2="265.37" y2="130.69"/><line x1="146.86" y1="150.11" x2="152.69" y2="150.11"/><line x1="146.86" y1="185.09" x2="117.71" y2="185.09"/><line x1="152.69" y1="185.09" x2="146.86" y2="185.09"/><line x1="195.43" y1="111.26" x2="195.43" y2="109.31"/><line x1="249.83" y1="185.09" x2="247.89" y2="185.09"/><line x1="273.14" y1="173.43" x2="273.14" y2="177.31"/><line x1="277.03" y1="173.43" x2="276.06" y2="173.43"/><line x1="273.14" y1="157.89" x2="274.11" y2="157.89"/><line x1="277.03" y1="157.89" x2="277.03" y2="146.23"/><line x1="277.03" y1="146.23" x2="269.26" y2="138.46"/><line x1="269.26" y1="126.8" x2="277.03" y2="119.03"/><line x1="277.03" y1="119.03" x2="280.91" y2="119.03"/><line x1="308.11" y1="119.03" x2="315.89" y2="126.8"/><line x1="315.89" y1="126.8" x2="315.89" y2="138.46"/><line x1="315.89" y1="138.46" x2="308.11" y2="146.23"/><line x1="308.11" y1="146.23" x2="308.11" y2="154"/><line x1="308.11" y1="177.31" x2="304.23" y2="181.2"/><line x1="304.23" y1="181.2" x2="280.91" y2="181.2"/><line x1="280.91" y1="181.2" x2="277.03" y2="177.31"/><line x1="277.03" y1="177.31" x2="277.03" y2="173.43"/><line x1="226.51" y1="68.51" x2="226.51" y2="72.4"/><line x1="253.71" y1="68.51" x2="229.43" y2="68.51"/><line x1="304.23" y1="119.03" x2="308.11" y2="119.03"/><line x1="304.23" y1="115.14" x2="304.23" y2="116.11"/><line x1="280.91" y1="119.03" x2="280.91" y2="118.06"/><line x1="280.91" y1="115.14" x2="277.03" y2="115.14"/><line x1="277.03" y1="115.14" x2="273.14" y2="111.26"/><line x1="273.14" y1="111.26" x2="271.2" y2="111.26"/><line x1="265.37" y1="111.26" x2="263.43" y2="109.31"/><line x1="263.43" y1="109.31" x2="259.54" y2="109.31"/><line x1="257.6" y1="111.26" x2="257.6" y2="119.03"/><line x1="259.54" y1="109.31" x2="257.6" y2="111.26"/><line x1="312" y1="107.37" x2="309.57" y2="109.8"/><line x1="249.83" y1="80.17" x2="253.71" y2="80.17"/><line x1="253.71" y1="80.17" x2="257.6" y2="76.29"/><line x1="257.6" y1="76.29" x2="257.6" y2="72.4"/><line x1="257.6" y1="72.4" x2="255.66" y2="70.46"/><line x1="226.51" y1="52.97" x2="229.43" y2="52.97"/><line x1="253.71" y1="52.97" x2="257.6" y2="49.09"/><line x1="308.11" y1="111.26" x2="304.23" y2="115.14"/><line x1="160.46" y1="146.23" x2="156.57" y2="146.23"/><line x1="160.46" y1="150.11" x2="160.46" y2="146.23"/><line x1="183.77" y1="150.11" x2="189.6" y2="150.11"/><line x1="183.77" y1="146.23" x2="183.77" y2="150.11"/><line x1="257.6" y1="49.09" x2="257.6" y2="37.43"/><line x1="261.49" y1="33.54" x2="312" y2="33.54"/><line x1="312" y1="33.54" x2="313.94" y2="35.49"/><line x1="327.54" y1="103.49" x2="323.66" y2="107.37"/><line x1="323.66" y1="107.37" x2="312" y2="107.37"/><line x1="257.6" y1="37.43" x2="261.49" y2="33.54"/><line x1="92.46" y1="218.11" x2="92.46" y2="117.09"/><line x1="191.54" y1="138.46" x2="191.54" y2="142.34"/><line x1="152.69" y1="138.46" x2="152.69" y2="134.57"/><line x1="191.54" y1="134.57" x2="191.54" y2="138.46"/><line x1="152.69" y1="134.57" x2="152.69" y2="107.37"/><line x1="195.43" y1="142.34" x2="195.43" y2="111.26"/><line x1="195.43" y1="109.31" x2="195.43" y2="84.06"/><line x1="247.89" y1="185.09" x2="242.06" y2="185.09"/><line x1="203.2" y1="78.23" x2="203.2" y2="77.26"/><line x1="218.74" y1="78.23" x2="218.74" y2="80.17"/><line x1="218.74" y1="77.26" x2="218.74" y2="78.23"/><line x1="203.2" y1="77.26" x2="203.2" y2="76.29"/><line x1="139.09" y1="74.34" x2="141.03" y2="76.29"/><line x1="139.09" y1="109.31" x2="120.63" y2="109.31"/><line x1="120.63" y1="109.31" x2="111.89" y2="100.57"/><line x1="111.89" y1="100.57" x2="111.89" y2="83.09"/><line x1="111.89" y1="83.09" x2="120.63" y2="74.34"/><line x1="120.63" y1="74.34" x2="139.09" y2="74.34"/><line x1="141.03" y1="107.37" x2="139.09" y2="109.31"/><line x1="98.29" y1="222" x2="94.4" y2="218.11"/><line x1="113.83" y1="222" x2="98.29" y2="222"/><line x1="117.71" y1="218.11" x2="113.83" y2="222"/><line x1="271.2" y1="111.26" x2="265.37" y2="111.26"/><line x1="309.57" y1="109.8" x2="308.11" y2="111.26"/><line x1="255.66" y1="70.46" x2="253.71" y2="68.51"/><line x1="313.94" y1="35.49" x2="325.6" y2="47.14"/><line x1="325.6" y1="47.14" x2="327.54" y2="49.09"/><line x1="280.91" y1="116.11" x2="280.91" y2="115.14"/><line x1="280.91" y1="118.06" x2="280.91" y2="116.11"/><line x1="304.23" y1="116.11" x2="304.23" y2="118.06"/><line x1="304.23" y1="118.06" x2="304.23" y2="119.03"/><line x1="274.11" y1="173.43" x2="273.14" y2="173.43"/><line x1="276.06" y1="173.43" x2="274.11" y2="173.43"/><line x1="276.06" y1="157.89" x2="277.03" y2="157.89"/><line x1="274.11" y1="157.89" x2="276.06" y2="157.89"/><line x1="269.26" y1="130.69" x2="269.26" y2="126.8"/><line x1="265.37" y1="130.69" x2="269.26" y2="130.69"/><line x1="269.26" y1="138.46" x2="265.37" y2="138.46"/><line x1="265.37" y1="138.46" x2="265.37" y2="146.23"/><line x1="229.43" y1="52.97" x2="253.71" y2="52.97"/><line x1="229.43" y1="68.51" x2="226.51" y2="68.51"/><line x1="179.89" y1="188.97" x2="172.11" y2="188.97"/><line x1="179.89" y1="185.09" x2="179.89" y2="188.97"/><line x1="172.11" y1="185.09" x2="152.69" y2="185.09"/><line x1="172.11" y1="188.97" x2="172.11" y2="185.09"/><line x1="210.97" y1="188.97" x2="203.2" y2="188.97"/><line x1="210.97" y1="185.09" x2="210.97" y2="188.97"/><line x1="203.2" y1="185.09" x2="179.89" y2="185.09"/><line x1="203.2" y1="188.97" x2="203.2" y2="185.09"/><line x1="242.06" y1="188.97" x2="234.29" y2="188.97"/><line x1="242.06" y1="185.09" x2="242.06" y2="188.97"/><line x1="234.29" y1="185.09" x2="210.97" y2="185.09"/><line x1="234.29" y1="188.97" x2="234.29" y2="185.09"/><line x1="308.11" y1="161.77" x2="308.11" y2="177.31"/><line x1="310.06" y1="161.77" x2="308.11" y2="161.77"/><line x1="308.11" y1="154" x2="310.06" y2="154"/><line x1="311.03" y1="161.77" x2="310.06" y2="161.77"/><line x1="310.06" y1="154" x2="311.03" y2="154"/><line x1="311.03" y1="154" x2="318.8" y2="154"/><line x1="318.8" y1="154" x2="318.8" y2="161.77"/><line x1="318.8" y1="161.77" x2="311.03" y2="161.77"/><line x1="193.49" y1="84.06" x2="193.49" y2="115.14"/><line x1="94.4" y1="117.09" x2="98.29" y2="113.2"/><line x1="98.29" y1="113.2" x2="113.83" y2="113.2"/><line x1="193.49" y1="115.14" x2="191.54" y2="115.14"/><line x1="327.54" y1="49.09" x2="327.54" y2="103.49"/><line x1="191.54" y1="84.06" x2="193.49" y2="84.06"/><line x1="117.71" y1="185.09" x2="117.71" y2="218.11"/><line x1="113.83" y1="113.2" x2="117.71" y2="117.09"/><line x1="191.54" y1="115.14" x2="191.54" y2="134.57"/><line x1="117.71" y1="117.09" x2="117.71" y2="150.11"/><line x1="152.69" y1="139.43" x2="152.69" y2="138.46"/><line x1="117.71" y1="150.11" x2="146.86" y2="150.11"/><line x1="94.4" y1="218.11" x2="93.43" y2="220.06"/><line x1="93.43" y1="115.14" x2="94.4" y2="117.09"/><line x1="92.46" y1="117.09" x2="93.43" y2="115.14"/><line x1="93.43" y1="220.06" x2="92.46" y2="218.11"/><line x1="234.29" y1="71.43" x2="238.17" y2="71.43"/><line x1="238.17" y1="71.43" x2="238.17" y2="72.4"/><line x1="234.29" y1="72.4" x2="234.29" y2="71.43"/><line x1="238.17" y1="72.4" x2="242.06" y2="72.4"/><line x1="189.6" y1="146.23" x2="191.54" y2="144.29"/><line x1="189.6" y1="150.11" x2="189.6" y2="146.23"/><line x1="199.31" y1="23.83" x2="203.2" y2="19.94"/><line x1="210.97" y1="44.23" x2="210.97" y2="45.2"/><line x1="203.2" y1="45.2" x2="203.2" y2="44.23"/><line x1="210.97" y1="45.2" x2="222.63" y2="45.2"/><line x1="203.2" y1="19.94" x2="203.2" y2="18"/><line x1="210.97" y1="19.94" x2="214.86" y2="23.83"/><line x1="214.86" y1="23.83" x2="214.86" y2="28.69"/><line x1="218.74" y1="40.34" x2="214.86" y2="44.23"/><line x1="214.86" y1="44.23" x2="210.97" y2="44.23"/><line x1="203.2" y1="44.23" x2="199.31" y2="44.23"/><line x1="199.31" y1="44.23" x2="195.43" y2="40.34"/><line x1="195.43" y1="40.34" x2="195.43" y2="38.4"/><line x1="198.34" y1="32.09" x2="198.34" y2="28.69"/><line x1="199.31" y1="28.69" x2="199.31" y2="23.83"/><line x1="203.2" y1="18" x2="210.97" y2="18"/><line x1="210.97" y1="18" x2="210.97" y2="19.94"/><line x1="214.86" y1="28.69" x2="215.83" y2="28.69"/><line x1="215.83" y1="28.69" x2="215.83" y2="32.09"/><line x1="215.83" y1="32.09" x2="219.71" y2="35.97"/><line x1="219.71" y1="35.97" x2="219.71" y2="38.4"/><line x1="219.71" y1="38.4" x2="218.74" y2="38.4"/><line x1="218.74" y1="38.4" x2="218.74" y2="40.34"/><line x1="198.34" y1="28.69" x2="199.31" y2="28.69"/><line x1="195.43" y1="38.4" x2="194.46" y2="38.4"/><line x1="194.46" y1="38.4" x2="194.46" y2="35.97"/><line x1="194.46" y1="35.97" x2="198.34" y2="32.09"/></g><g opacity="0.95"><circle cx="199.31" cy="122.91" r="3.2" fill="#b7493c"/><circle cx="207.09" cy="122.91" r="3.2" fill="#b7493c"/><circle cx="214.86" cy="122.91" r="3.2" fill="#b7493c"/><circle cx="222.63" cy="122.91" r="3.2" fill="#b7493c"/><circle cx="131.31" cy="91.83" r="2.2" fill="#d3b15b"/><circle cx="238.17" cy="80.17" r="2.2" fill="#d3b15b"/><circle cx="152.69" cy="167.6" r="2.2" fill="#d3b15b"/><circle cx="313.94" cy="47.14" r="2.2" fill="#d3b15b"/><circle cx="265.37" cy="39.37" r="3.2" fill="#b7493c"/><circle cx="321.71" cy="101.54" r="3.2" fill="#b7493c"/><circle cx="199.31" cy="95.71" r="3.2" fill="#b7493c"/><circle cx="312" cy="132.63" r="3.2" fill="#b7493c"/><circle cx="254.69" cy="84.06" r="2.2" fill="#d3b15b"/><circle cx="253.71" cy="84.06" r="3.2" fill="#b7493c"/><circle cx="292.57" cy="134.57" r="2.2" fill="#d3b15b"/><circle cx="299.37" cy="130.69" r="2.2" fill="#d3b15b"/><circle cx="285.77" cy="130.69" r="2.2" fill="#d3b15b"/><circle cx="285.77" cy="138.46" r="2.2" fill="#d3b15b"/><circle cx="299.37" cy="138.46" r="2.2" fill="#d3b15b"/><circle cx="280.91" cy="175.37" r="2.2" fill="#d3b15b"/><circle cx="282.86" cy="177.31" r="2.2" fill="#d3b15b"/><circle cx="304.23" cy="175.37" r="2.2" fill="#d3b15b"/><circle cx="302.29" cy="177.31" r="2.2" fill="#d3b15b"/><circle cx="207.09" cy="187.03" r="3.2" fill="#b7493c"/><circle cx="267.31" cy="179.26" r="3.2" fill="#b7493c"/><circle cx="188.63" cy="91.83" r="3.2" fill="#b7493c"/><circle cx="210.97" cy="48.11" r="3.2" fill="#b7493c"/><circle cx="172.11" cy="142.34" r="2.2" fill="#d3b15b"/><circle cx="179.89" cy="142.34" r="2.2" fill="#d3b15b"/><circle cx="164.34" cy="142.34" r="2.2" fill="#d3b15b"/><circle cx="156.57" cy="154" r="2.2" fill="#d3b15b"/><circle cx="156.57" cy="181.2" r="2.2" fill="#d3b15b"/><circle cx="214.86" cy="165.66" r="2.2" fill="#d3b15b"/><circle cx="210" cy="160.8" r="2.2" fill="#d3b15b"/><circle cx="214.86" cy="159.83" r="2.2" fill="#d3b15b"/><circle cx="219.71" cy="160.8" r="2.2" fill="#d3b15b"/><circle cx="220.69" cy="165.66" r="2.2" fill="#d3b15b"/><circle cx="219.71" cy="170.51" r="2.2" fill="#d3b15b"/><circle cx="214.86" cy="171.49" r="2.2" fill="#d3b15b"/><circle cx="210" cy="170.51" r="2.2" fill="#d3b15b"/><circle cx="209.03" cy="165.66" r="2.2" fill="#d3b15b"/><circle cx="142.97" cy="86" r="2.2" fill="#d3b15b"/><circle cx="142.97" cy="91.83" r="2.2" fill="#d3b15b"/><circle cx="131.31" cy="80.17" r="2.2" fill="#d3b15b"/><circle cx="137.14" cy="80.17" r="2.2" fill="#d3b15b"/><circle cx="125.49" cy="80.17" r="2.2" fill="#d3b15b"/><circle cx="131.31" cy="103.49" r="2.2" fill="#d3b15b"/><circle cx="137.14" cy="103.49" r="2.2" fill="#d3b15b"/><circle cx="125.49" cy="103.49" r="2.2" fill="#d3b15b"/><circle cx="119.66" cy="91.83" r="2.2" fill="#d3b15b"/><circle cx="119.66" cy="86" r="2.2" fill="#d3b15b"/><circle cx="119.66" cy="97.66" r="2.2" fill="#d3b15b"/><circle cx="142.97" cy="97.66" r="2.2" fill="#d3b15b"/><circle cx="232.34" cy="60.74" r="2.2" fill="#d3b15b"/><circle cx="247.89" cy="60.74" r="2.2" fill="#d3b15b"/><circle cx="240.11" cy="60.74" r="2.2" fill="#d3b15b"/><circle cx="296.46" cy="52.97" r="2.2" fill="#d3b15b"/><circle cx="288.69" cy="52.97" r="2.2" fill="#d3b15b"/><circle cx="280.91" cy="52.97" r="2.2" fill="#d3b15b"/><circle cx="198.34" cy="115.14" r="2.2" fill="#d3b15b"/><circle cx="198.34" cy="139.43" r="2.2" fill="#d3b15b"/><circle cx="254.69" cy="115.14" r="2.2" fill="#d3b15b"/><circle cx="260.51" cy="106.4" r="2.2" fill="#d3b15b"/><circle cx="260.51" cy="101.54" r="2.2" fill="#d3b15b"/><circle cx="222.63" cy="182.17" r="2.2" fill="#d3b15b"/><circle cx="191.54" cy="182.17" r="2.2" fill="#d3b15b"/><circle cx="221.66" cy="49.09" r="2.2" fill="#d3b15b"/><circle cx="200.29" cy="49.09" r="2.2" fill="#d3b15b"/><circle cx="223.6" cy="91.83" r="2.2" fill="#d3b15b"/><circle cx="156.57" cy="68.51" r="2.2" fill="#d3b15b"/><circle cx="156.57" cy="115.14" r="2.2" fill="#d3b15b"/><circle cx="268.29" cy="134.57" r="2.2" fill="#d3b15b"/><circle cx="229.43" cy="122.91" r="2.2" fill="#d3b15b"/><circle cx="230.4" cy="122.91" r="3.2" fill="#b7493c"/><circle cx="308.11" cy="41.31" r="2.2" fill="#d3b15b"/><circle cx="319.77" cy="52.97" r="2.2" fill="#d3b15b"/><circle cx="309.09" cy="76.29" r="2.2" fill="#d3b15b"/><circle cx="309.09" cy="84.06" r="2.2" fill="#d3b15b"/><circle cx="232.34" cy="142.34" r="2.2" fill="#d3b15b"/><circle cx="235.26" cy="145.26" r="2.2" fill="#d3b15b"/></g></svg>