<svg xmlns="http://www.w3.org/2000/svg" viewBox="0 0 420 240" role="img"><rect width="100%" height="100%" fill="#070706"/><g stroke="#5e5a4f" stroke-width="1.6" stroke-linecap="round"><line x1="131.97" y1="151.49" x2="133.85" y2="149.61"/><line x1="130.09" y1="172.18" x2="130.09" y2="157.13"/><line x1="115.05" y1="164.65" x2="124.45" y2="155.25"/><line x1="116.93" y1="166.53" x2="126.33" y2="157.13"/><line x1="201.54" y1="115.77" x2="197.78" y2="119.53"/><line x1="124.45" y1="128.93" x2="115.05" y2="119.53"/><line x1="130.09" y1="127.05" x2="130.09" y2="112.01"/><line x1="126.33" y1="127.05" x2="116.93" y2="117.65"/><line x1="159.24" y1="144.91" x2="159.24" y2="139.27"/><line x1="164.88" y1="144.91" x2="159.24" y2="144.91"/><line x1="164.88" y1="139.27" x2="164.88" y2="144.91"/><line x1="159.24" y1="139.27" x2="164.88" y2="139.27"/><line x1="150.77" y1="179.7" x2="165.82" y2="179.7"/><line x1="177.1" y1="151.49" x2="177.1" y2="155.25"/><line x1="131.97" y1="151.49" x2="131.97" y2="132.69"/><line x1="180.86" y1="115.77" x2="180.86" y2="130.81"/><line x1="133.85" y1="149.61" x2="165.82" y2="149.61"/><line x1="167.7" y1="175.94" x2="148.89" y2="175.94"/><line x1="182.74" y1="168.41" x2="182.74" y2="153.37"/><line x1="180.86" y1="153.37" x2="180.86" y2="168.41"/><line x1="169.58" y1="183.46" x2="169.58" y2="198.5"/><line x1="167.7" y1="183.46" x2="167.7" y2="198.5"/><line x1="171.46" y1="183.46" x2="171.46" y2="198.5"/><line x1="173.34" y1="183.46" x2="173.34" y2="198.5"/><line x1="175.22" y1="183.46" x2="175.22" y2="198.5"/><line x1="177.1" y1="183.46" x2="177.1" y2="198.5"/><line x1="178.98" y1="183.46" x2="178.98" y2="198.5"/><line x1="184.62" y1="143.5" x2="184.62" y2="140.68"/><line x1="205.3" y1="198.5" x2="205.3" y2="183.46"/><line x1="182.74" y1="130.81" x2="182.74" y2="115.77"/><line x1="199.66" y1="100.73" x2="184.62" y2="100.73"/><line x1="210.94" y1="29.28" x2="210.94" y2="45.26"/><line x1="219.4" y1="32.1" x2="221.28" y2="33.98"/><line x1="150.77" y1="183.46" x2="167.7" y2="183.46"/><line x1="220.34" y1="183.46" x2="239.14" y2="183.46"/><line x1="239.14" y1="175.94" x2="220.34" y2="175.94"/><line x1="241.02" y1="183.46" x2="241.02" y2="202.26"/><line x1="214.7" y1="198.5" x2="214.7" y2="183.46"/><line x1="216.58" y1="198.5" x2="216.58" y2="183.46"/><line x1="212.82" y1="198.5" x2="212.82" y2="183.46"/><line x1="210.94" y1="198.5" x2="210.94" y2="183.46"/><line x1="209.06" y1="198.5" x2="209.06" y2="183.46"/><line x1="207.18" y1="198.5" x2="207.18" y2="183.46"/><line x1="201.54" y1="102.61" x2="182.74" y2="102.61"/><line x1="130.21" y1="100.73" x2="130.21" y2="93.21"/><line x1="233.5" y1="136.45" x2="227.86" y2="136.45"/><line x1="201.54" y1="181.58" x2="182.74" y2="181.58"/><line x1="197.78" y1="119.53" x2="197.78" y2="127.05"/><line x1="274.87" y1="74.41" x2="289.91" y2="66.88"/><line x1="272.05" y1="83.81" x2="286.15" y2="93.21"/><line x1="274.87" y1="78.17" x2="289.91" y2="85.69"/><line x1="210.94" y1="45.26" x2="211.88" y2="46.2"/><line x1="261.71" y1="89.45" x2="261.71" y2="104.49"/><line x1="263.59" y1="89.45" x2="271.11" y2="104.49"/><line x1="271.11" y1="66.88" x2="286.15" y2="59.36"/><line x1="199.66" y1="89.45" x2="184.62" y2="89.45"/><line x1="233.5" y1="136.45" x2="237.26" y2="136.45"/><line x1="233.5" y1="117.65" x2="227.86" y2="112.01"/><line x1="210.94" y1="142.09" x2="227.86" y2="142.09"/><line x1="211.88" y1="46.2" x2="224.1" y2="46.2"/><line x1="147.01" y1="175.94" x2="133.85" y2="175.94"/><line x1="128.21" y1="172.18" x2="128.21" y2="157.13"/><line x1="210.94" y1="138.33" x2="225.98" y2="138.33"/><line x1="145.13" y1="177.82" x2="135.73" y2="177.82"/><line x1="227.86" y1="142.09" x2="233.5" y2="136.45"/><line x1="197.78" y1="127.05" x2="201.54" y2="130.81"/><line x1="252.3" y1="117.65" x2="252.3" y2="175.94"/><line x1="227.86" y1="136.45" x2="225.98" y2="138.33"/><line x1="241.02" y1="140.21" x2="241.02" y2="175.94"/><line x1="225.98" y1="115.77" x2="210.94" y2="115.77"/><line x1="227.86" y1="117.65" x2="233.5" y2="117.65"/><line x1="250.42" y1="117.65" x2="233.5" y2="117.65"/><line x1="250.42" y1="117.65" x2="250.42" y2="175.94"/><line x1="289.91" y1="123.29" x2="289.91" y2="130.81"/><line x1="289.91" y1="130.81" x2="297.43" y2="130.81"/><line x1="297.43" y1="130.81" x2="297.43" y2="123.29"/><line x1="297.43" y1="123.29" x2="289.91" y2="123.29"/><line x1="227.86" y1="112.01" x2="210.94" y2="112.01"/><line x1="225.98" y1="115.77" x2="227.86" y2="117.65"/><line x1="199.66" y1="91.33" x2="184.62" y2="91.33"/><line x1="199.66" y1="87.57" x2="184.62" y2="87.57"/><line x1="199.66" y1="93.21" x2="184.62" y2="93.21"/><line x1="199.66" y1="95.09" x2="184.62" y2="95.09"/><line x1="199.66" y1="96.97" x2="184.62" y2="96.97"/><line x1="199.66" y1="98.85" x2="184.62" y2="98.85"/><line x1="199.66" y1="85.69" x2="184.62" y2="85.69"/><line x1="209.06" y1="46.2" x2="210.94" y2="48.08"/><line x1="252.3" y1="48.08" x2="259.82" y2="55.6"/><line x1="259.82" y1="55.6" x2="259.82" y2="63.12"/><line x1="152.65" y1="36.8" x2="156.41" y2="29.28"/><line x1="177.1" y1="96.97" x2="177.1" y2="128.93"/><line x1="165.82" y1="134.57" x2="133.85" y2="134.57"/><line x1="175.22" y1="29.28" x2="178.98" y2="29.28"/><line x1="133.85" y1="134.57" x2="131.97" y2="132.69"/><line x1="242.9" y1="183.46" x2="242.9" y2="202.26"/><line x1="209.06" y1="145.85" x2="209.06" y2="172.18"/><line x1="165.82" y1="177.82" x2="150.77" y2="177.82"/><line x1="130.09" y1="149.61" x2="130.09" y2="134.57"/><line x1="158.29" y1="145.85" x2="158.29" y2="138.33"/><line x1="165.82" y1="145.85" x2="158.29" y2="145.85"/><line x1="165.82" y1="138.33" x2="165.82" y2="145.85"/><line x1="158.29" y1="138.33" x2="165.82" y2="138.33"/><line x1="130.09" y1="63.12" x2="130.09" y2="59.36"/><line x1="155.47" y1="198.5" x2="155.47" y2="195.68"/><line x1="180.86" y1="138.8" x2="178.98" y2="140.68"/><line x1="220.34" y1="105.43" x2="220.34" y2="90.39"/><line x1="178.98" y1="140.68" x2="178.98" y2="143.5"/><line x1="209.06" y1="29.28" x2="209.06" y2="46.2"/><line x1="259.82" y1="104.49" x2="259.82" y2="89.45"/><line x1="253.24" y1="46.2" x2="261.71" y2="54.66"/><line x1="237.26" y1="46.2" x2="253.24" y2="46.2"/><line x1="261.71" y1="54.66" x2="261.71" y2="63.12"/><line x1="250.42" y1="108.25" x2="225.98" y2="108.25"/><line x1="225.98" y1="108.25" x2="222.22" y2="104.49"/><line x1="225.04" y1="110.13" x2="220.34" y2="105.43"/><line x1="220.34" y1="90.39" x2="217.52" y2="87.57"/><line x1="250.42" y1="110.13" x2="225.04" y2="110.13"/><line x1="278.63" y1="100.73" x2="269.23" y2="86.63"/><line x1="218.46" y1="85.69" x2="203.42" y2="85.69"/><line x1="257.94" y1="117.65" x2="282.39" y2="117.65"/><line x1="147.01" y1="176.88" x2="145.13" y2="177.82"/><line x1="221.28" y1="33.98" x2="224.1" y2="33.98"/><line x1="135.73" y1="178.76" x2="145.13" y2="178.76"/><line x1="222.22" y1="89.45" x2="218.46" y2="85.69"/><line x1="135.73" y1="177.82" x2="133.85" y2="176.88"/><line x1="222.22" y1="104.49" x2="222.22" y2="89.45"/><line x1="237.26" y1="48.08" x2="252.3" y2="48.08"/><line x1="145.13" y1="178.76" x2="147.01" y2="179.7"/><line x1="217.52" y1="87.57" x2="205.3" y2="87.57"/><line x1="130.09" y1="59.36" x2="130.09" y2="55.6"/><line x1="263.59" y1="63.12" x2="282.39" y2="51.84"/><line x1="130.09" y1="55.6" x2="137.61" y2="51.84"/><line x1="137.61" y1="44.32" x2="145.13" y2="36.8"/><line x1="145.13" y1="36.8" x2="152.65" y2="36.8"/><line x1="137.61" y1="51.84" x2="137.61" y2="44.32"/><line x1="137.61" y1="55.6" x2="137.61" y2="51.84"/><line x1="130.09" y1="59.36" x2="137.61" y2="55.6"/><line x1="137.61" y1="59.36" x2="137.61" y2="55.6"/><line x1="130.09" y1="63.12" x2="137.61" y2="59.36"/><line x1="137.61" y1="63.12" x2="137.61" y2="59.36"/><line x1="130.09" y1="66.88" x2="137.61" y2="63.12"/><line x1="130.09" y1="81.93" x2="130.09" y2="78.17"/><line x1="137.61" y1="66.88" x2="137.61" y2="63.12"/><line x1="130.09" y1="70.65" x2="137.61" y2="66.88"/><line x1="130.09" y1="78.17" x2="130.09" y2="74.41"/><line x1="137.61" y1="70.65" x2="137.61" y2="66.88"/><line x1="130.09" y1="74.41" x2="137.61" y2="70.65"/><line x1="130.09" y1="74.41" x2="130.09" y2="70.65"/><line x1="137.61" y1="74.41" x2="137.61" y2="70.65"/><line x1="130.09" y1="78.17" x2="137.61" y2="74.41"/><line x1="130.09" y1="70.65" x2="130.09" y2="66.88"/><line x1="137.61" y1="78.17" x2="137.61" y2="74.41"/><line x1="130.09" y1="81.93" x2="137.61" y2="78.17"/><line x1="130.09" y1="66.88" x2="130.09" y2="63.12"/><line x1="171.46" y1="29.28" x2="175.22" y2="29.28"/><line x1="156.41" y1="36.8" x2="160.18" y2="29.28"/><line x1="152.65" y1="36.8" x2="156.41" y2="36.8"/><line x1="167.7" y1="29.28" x2="171.46" y2="29.28"/><line x1="160.18" y1="36.8" x2="163.94" y2="29.28"/><line x1="156.41" y1="36.8" x2="160.18" y2="36.8"/><line x1="163.94" y1="29.28" x2="167.7" y2="29.28"/><line x1="163.94" y1="36.8" x2="167.7" y2="29.28"/><line x1="160.18" y1="36.8" x2="163.94" y2="36.8"/><line x1="160.18" y1="29.28" x2="163.94" y2="29.28"/><line x1="167.7" y1="36.8" x2="171.46" y2="29.28"/><line x1="163.94" y1="36.8" x2="167.7" y2="36.8"/><line x1="156.41" y1="29.28" x2="160.18" y2="29.28"/><line x1="171.46" y1="36.8" x2="175.22" y2="29.28"/><line x1="167.7" y1="36.8" x2="171.46" y2="36.8"/><line x1="182.74" y1="29.28" x2="209.06" y2="29.28"/><line x1="175.22" y1="36.8" x2="178.98" y2="29.28"/><line x1="171.46" y1="36.8" x2="175.22" y2="36.8"/><line x1="178.98" y1="29.28" x2="182.74" y2="29.28"/><line x1="178.98" y1="36.8" x2="182.74" y2="29.28"/><line x1="175.22" y1="36.8" x2="178.98" y2="36.8"/><line x1="153.59" y1="193.8" x2="150.77" y2="193.8"/><line x1="155.47" y1="195.68" x2="153.59" y2="193.8"/><line x1="155.47" y1="27.4" x2="209.06" y2="27.4"/><line x1="151.71" y1="34.92" x2="155.47" y2="27.4"/><line x1="144.19" y1="34.92" x2="151.71" y2="34.92"/><line x1="135.73" y1="43.38" x2="144.19" y2="34.92"/><line x1="135.73" y1="50.9" x2="135.73" y2="43.38"/><line x1="128.21" y1="54.66" x2="135.73" y2="50.9"/><line x1="128.21" y1="81.93" x2="128.21" y2="54.66"/><line x1="210.94" y1="48.08" x2="224.1" y2="48.08"/><line x1="175.22" y1="149.61" x2="177.1" y2="151.49"/><line x1="237.26" y1="136.45" x2="241.02" y2="140.21"/><line x1="178.98" y1="143.5" x2="180.86" y2="145.38"/><line x1="237.26" y1="179.7" x2="222.22" y2="179.7"/><line x1="177.1" y1="128.93" x2="167.7" y2="128.93"/><line x1="250.42" y1="175.94" x2="242.9" y2="175.94"/><line x1="182.74" y1="145.38" x2="184.62" y2="143.5"/><line x1="210.94" y1="172.18" x2="210.94" y2="145.85"/><line x1="133.85" y1="179.7" x2="135.73" y2="178.76"/><line x1="219.4" y1="29.28" x2="219.4" y2="32.1"/><line x1="190.26" y1="21.76" x2="205.3" y2="21.76"/><line x1="209.06" y1="120" x2="207.18" y2="121.88"/><line x1="184.62" y1="140.68" x2="182.74" y2="138.8"/><line x1="200.6" y1="214.48" x2="198.72" y2="216.36"/><line x1="147.01" y1="200.38" x2="133.85" y2="200.38"/><line x1="160.18" y1="219.18" x2="160.18" y2="206.02"/><line x1="175.22" y1="219.18" x2="175.22" y2="206.02"/><line x1="167.7" y1="219.18" x2="167.7" y2="206.02"/><line x1="133.85" y1="183.46" x2="147.01" y2="183.46"/><line x1="167.7" y1="128.93" x2="165.82" y2="130.81"/><line x1="165.82" y1="130.81" x2="165.82" y2="134.57"/><line x1="175.22" y1="134.57" x2="165.82" y2="134.57"/><line x1="177.1" y1="132.69" x2="175.22" y2="134.57"/><line x1="177.1" y1="128.93" x2="177.1" y2="132.69"/><line x1="165.82" y1="149.61" x2="165.82" y2="153.37"/><line x1="165.82" y1="153.37" x2="167.7" y2="155.25"/><line x1="167.7" y1="155.25" x2="177.1" y2="155.25"/><line x1="177.1" y1="155.25" x2="177.1" y2="175.94"/><line x1="165.82" y1="149.61" x2="175.22" y2="149.61"/><line x1="290.85" y1="129.87" x2="290.85" y2="124.23"/><line x1="296.49" y1="129.87" x2="290.85" y2="129.87"/><line x1="296.49" y1="124.23" x2="296.49" y2="129.87"/><line x1="290.85" y1="124.23" x2="296.49" y2="124.23"/><line x1="282.39" y1="136.45" x2="282.39" y2="117.65"/><line x1="304.95" y1="125.17" x2="301.19" y2="128.93"/><line x1="256.06" y1="72.53" x2="256.06" y2="80.05"/><line x1="198.72" y1="216.36" x2="198.72" y2="219.18"/><line x1="203.42" y1="214.48" x2="200.6" y2="214.48"/><line x1="277.69" y1="33.04" x2="277.69" y2="35.86"/><line x1="277.69" y1="35.86" x2="279.57" y2="37.74"/><line x1="279.57" y1="37.74" x2="282.39" y2="37.74"/><line x1="252.3" y1="204.14" x2="244.78" y2="204.14"/><line x1="244.78" y1="206.96" x2="252.3" y2="206.96"/><line x1="244.78" y1="202.26" x2="252.3" y2="202.26"/><line x1="244.78" y1="205.08" x2="252.3" y2="205.08"/><line x1="239.14" y1="183.46" x2="239.14" y2="202.26"/><line x1="128.21" y1="127.05" x2="128.21" y2="112.01"/><line x1="271.11" y1="197.56" x2="268.29" y2="197.56"/><line x1="268.29" y1="197.56" x2="266.41" y2="199.44"/><line x1="266.41" y1="199.44" x2="266.41" y2="202.26"/><line x1="207.18" y1="121.88" x2="207.18" y2="124.7"/><line x1="207.18" y1="124.7" x2="209.06" y2="126.58"/></g><g stroke="#d3b15b" stroke-width="2.4" stroke-linecap="round"><line x1="192.14" y1="18" x2="203.42" y2="18"/><line x1="130.09" y1="134.57" x2="131.97" y2="132.69"/><line x1="120.69" y1="170.29" x2="116.93" y2="166.53"/><line x1="126.33" y1="157.13" x2="128.21" y2="157.13"/><line x1="122.57" y1="172.18" x2="120.69" y2="170.29"/><line x1="126.33" y1="149.61" x2="124.45" y2="151.49"/><line x1="124.45" y1="155.25" x2="126.33" y2="157.13"/><line x1="130.09" y1="172.18" x2="128.21" y2="172.18"/><line x1="116.93" y1="166.53" x2="115.05" y2="164.65"/><line x1="124.45" y1="128.93" x2="124.45" y2="132.69"/><line x1="124.45" y1="132.69" x2="126.33" y2="134.57"/><line x1="126.33" y1="134.57" x2="128.21" y2="134.57"/><line x1="124.45" y1="151.49" x2="124.45" y2="155.25"/><line x1="130.09" y1="149.61" x2="128.21" y2="149.61"/><line x1="130.09" y1="127.05" x2="128.21" y2="127.05"/><line x1="116.93" y1="117.65" x2="120.69" y2="113.89"/><line x1="126.33" y1="127.05" x2="124.45" y2="128.93"/><line x1="115.05" y1="119.53" x2="116.93" y2="117.65"/><line x1="122.57" y1="112.01" x2="126.33" y2="112.01"/><line x1="150.77" y1="179.7" x2="150.77" y2="177.82"/><line x1="148.89" y1="175.94" x2="147.01" y2="175.94"/><line x1="167.7" y1="175.94" x2="165.82" y2="177.82"/><line x1="177.1" y1="175.94" x2="167.7" y2="175.94"/><line x1="131.97" y1="151.49" x2="130.09" y2="149.61"/><line x1="133.85" y1="175.94" x2="130.09" y2="172.18"/><line x1="130.09" y1="157.13" x2="131.97" y2="155.25"/><line x1="120.69" y1="113.89" x2="122.57" y2="112.01"/><line x1="131.97" y1="155.25" x2="131.97" y2="151.49"/><line x1="180.86" y1="168.41" x2="180.86" y2="172.18"/><line x1="182.74" y1="168.41" x2="180.86" y2="168.41"/><line x1="180.86" y1="153.37" x2="182.74" y2="153.37"/><line x1="220.34" y1="183.46" x2="222.22" y2="181.58"/><line x1="150.77" y1="177.82" x2="148.89" y2="175.94"/><line x1="167.7" y1="198.5" x2="155.47" y2="198.5"/><line x1="169.58" y1="198.5" x2="167.7" y2="198.5"/><line x1="165.82" y1="177.82" x2="165.82" y2="179.7"/><line x1="165.82" y1="179.7" x2="165.82" y2="181.58"/><line x1="155.47" y1="198.5" x2="152.65" y2="198.5"/><line x1="165.82" y1="181.58" x2="167.7" y2="183.46"/><line x1="171.46" y1="198.5" x2="169.58" y2="198.5"/><line x1="173.34" y1="198.5" x2="171.46" y2="198.5"/><line x1="167.7" y1="183.46" x2="169.58" y2="183.46"/><line x1="175.22" y1="183.46" x2="177.1" y2="183.46"/><line x1="169.58" y1="183.46" x2="171.46" y2="183.46"/><line x1="175.22" y1="198.5" x2="173.34" y2="198.5"/><line x1="173.34" y1="183.46" x2="175.22" y2="183.46"/><line x1="171.46" y1="183.46" x2="173.34" y2="183.46"/><line x1="178.98" y1="198.5" x2="177.1" y2="198.5"/><line x1="177.1" y1="198.5" x2="175.22" y2="198.5"/><line x1="177.1" y1="183.46" x2="178.98" y2="183.46"/><line x1="178.98" y1="183.46" x2="180.86" y2="183.46"/><line x1="182.74" y1="181.58" x2="182.74" y2="168.41"/><line x1="209.06" y1="145.85" x2="210.94" y2="145.85"/><line x1="182.74" y1="102.61" x2="184.62" y2="100.73"/><line x1="201.54" y1="102.61" x2="201.54" y2="115.77"/><line x1="203.42" y1="183.46" x2="205.3" y2="183.46"/><line x1="180.86" y1="100.73" x2="180.86" y2="115.77"/><line x1="182.74" y1="130.81" x2="180.86" y2="130.81"/><line x1="182.74" y1="115.77" x2="182.74" y2="108.25"/><line x1="180.86" y1="115.77" x2="182.74" y2="115.77"/><line x1="199.66" y1="100.73" x2="201.54" y2="102.61"/><line x1="182.74" y1="108.25" x2="182.74" y2="102.61"/><line x1="299.31" y1="124.23" x2="299.31" y2="129.87"/><line x1="150.77" y1="183.46" x2="150.77" y2="179.7"/><line x1="242.9" y1="183.46" x2="254.18" y2="183.46"/><line x1="239.14" y1="175.94" x2="237.26" y2="177.82"/><line x1="222.22" y1="177.82" x2="220.34" y2="175.94"/><line x1="237.26" y1="177.82" x2="237.26" y2="179.7"/><line x1="233.5" y1="202.26" x2="229.74" y2="198.5"/><line x1="216.58" y1="198.5" x2="214.7" y2="198.5"/><line x1="254.18" y1="104.49" x2="250.42" y2="108.25"/><line x1="222.22" y1="181.58" x2="222.22" y2="179.7"/><line x1="241.02" y1="202.26" x2="239.14" y2="202.26"/><line x1="216.58" y1="183.46" x2="220.34" y2="183.46"/><line x1="214.7" y1="198.5" x2="212.82" y2="198.5"/><line x1="212.82" y1="198.5" x2="210.94" y2="198.5"/><line x1="214.7" y1="183.46" x2="216.58" y2="183.46"/><line x1="207.18" y1="183.46" x2="209.06" y2="183.46"/><line x1="212.82" y1="183.46" x2="214.7" y2="183.46"/><line x1="210.94" y1="198.5" x2="209.06" y2="198.5"/><line x1="209.06" y1="183.46" x2="210.94" y2="183.46"/><line x1="210.94" y1="183.46" x2="212.82" y2="183.46"/><line x1="207.18" y1="198.5" x2="205.3" y2="198.5"/><line x1="209.06" y1="198.5" x2="207.18" y2="198.5"/><line x1="205.3" y1="183.46" x2="207.18" y2="183.46"/><line x1="267.35" y1="157.13" x2="271.11" y2="160.89"/><line x1="237.26" y1="181.58" x2="239.14" y2="183.46"/><line x1="289.91" y1="136.45" x2="282.39" y2="136.45"/><line x1="256.06" y1="177.82" x2="254.18" y2="175.94"/><line x1="241.02" y1="183.46" x2="242.9" y2="183.46"/><line x1="229.74" y1="198.5" x2="216.58" y2="198.5"/><line x1="239.14" y1="183.46" x2="241.02" y2="183.46"/><line x1="271.11" y1="200.38" x2="269.23" y2="202.26"/><line x1="269.23" y1="202.26" x2="266.41" y2="202.26"/><line x1="254.18" y1="183.46" x2="256.06" y2="181.58"/><line x1="271.11" y1="160.89" x2="271.11" y2="197.56"/><line x1="248.54" y1="179.7" x2="244.78" y2="179.7"/><line x1="277.69" y1="33.04" x2="280.51" y2="33.04"/><line x1="256.06" y1="181.58" x2="256.06" y2="177.82"/><line x1="201.54" y1="181.58" x2="203.42" y2="183.46"/><line x1="252.3" y1="117.65" x2="257.94" y2="117.65"/><line x1="242.9" y1="177.82" x2="242.9" y2="175.94"/><line x1="205.3" y1="198.5" x2="203.42" y2="200.38"/><line x1="252.3" y1="175.94" x2="250.42" y2="175.94"/><line x1="278.63" y1="100.73" x2="271.11" y2="104.49"/><line x1="280.51" y1="33.04" x2="282.39" y2="34.92"/><line x1="190.26" y1="19.88" x2="192.14" y2="18"/><line x1="184.62" y1="89.45" x2="184.62" y2="87.57"/><line x1="282.39" y1="117.65" x2="289.91" y2="117.65"/><line x1="267.35" y1="140.21" x2="267.35" y2="157.13"/><line x1="271.11" y1="85.69" x2="272.05" y2="83.81"/><line x1="282.39" y1="34.92" x2="282.39" y2="37.74"/><line x1="256.06" y1="66.88" x2="256.06" y2="72.53"/><line x1="220.34" y1="175.94" x2="214.7" y2="175.94"/><line x1="214.7" y1="175.94" x2="210.94" y2="172.18"/><line x1="210.94" y1="145.85" x2="210.94" y2="142.09"/><line x1="256.06" y1="85.69" x2="259.82" y2="89.45"/><line x1="271.11" y1="136.45" x2="267.35" y2="140.21"/><line x1="210.94" y1="142.09" x2="210.94" y2="138.33"/><line x1="147.01" y1="176.88" x2="147.01" y2="179.7"/><line x1="242.9" y1="175.94" x2="241.02" y2="175.94"/><line x1="201.54" y1="115.77" x2="209.06" y2="120"/><line x1="199.66" y1="89.45" x2="199.66" y2="91.33"/><line x1="210.94" y1="138.33" x2="210.94" y2="134.57"/><line x1="210.94" y1="134.57" x2="212.82" y2="132.69"/><line x1="214.7" y1="130.81" x2="214.7" y2="123.29"/><line x1="214.7" y1="123.29" x2="212.82" y2="121.41"/><line x1="210.94" y1="119.53" x2="210.94" y2="115.77"/><line x1="250.42" y1="117.65" x2="252.3" y2="117.65"/><line x1="289.91" y1="117.65" x2="289.91" y2="120.47"/><line x1="297.43" y1="122.35" x2="299.31" y2="124.23"/><line x1="297.43" y1="131.75" x2="291.79" y2="131.75"/><line x1="291.79" y1="131.75" x2="289.91" y2="133.63"/><line x1="261.71" y1="89.45" x2="263.59" y2="89.45"/><line x1="210.94" y1="115.77" x2="210.94" y2="112.01"/><line x1="184.62" y1="91.33" x2="184.62" y2="89.45"/><line x1="184.62" y1="93.21" x2="184.62" y2="91.33"/><line x1="184.62" y1="95.09" x2="184.62" y2="93.21"/><line x1="199.66" y1="87.57" x2="199.66" y2="89.45"/><line x1="199.66" y1="96.97" x2="199.66" y2="98.85"/><line x1="199.66" y1="91.33" x2="199.66" y2="93.21"/><line x1="184.62" y1="96.97" x2="184.62" y2="95.09"/><line x1="199.66" y1="95.09" x2="199.66" y2="96.97"/><line x1="199.66" y1="93.21" x2="199.66" y2="95.09"/><line x1="184.62" y1="100.73" x2="184.62" y2="98.85"/><line x1="184.62" y1="98.85" x2="184.62" y2="96.97"/><line x1="199.66" y1="98.85" x2="199.66" y2="100.73"/><line x1="199.66" y1="85.69" x2="199.66" y2="87.57"/><line x1="184.62" y1="87.57" x2="184.62" y2="85.69"/><line x1="210.94" y1="93.21" x2="205.3" y2="87.57"/><line x1="224.1" y1="48.08" x2="237.26" y2="48.08"/><line x1="209.06" y1="29.28" x2="210.94" y2="29.28"/><line x1="210.94" y1="112.01" x2="210.94" y2="93.21"/><line x1="205.3" y1="87.57" x2="203.42" y2="85.69"/><line x1="203.42" y1="85.69" x2="199.66" y2="85.69"/><line x1="184.62" y1="85.69" x2="180.86" y2="85.69"/><line x1="180.86" y1="85.69" x2="177.1" y2="89.45"/><line x1="177.1" y1="89.45" x2="177.1" y2="96.97"/><line x1="177.1" y1="96.97" x2="180.86" y2="100.73"/><line x1="130.09" y1="112.01" x2="130.09" y2="81.93"/><line x1="131.97" y1="132.69" x2="131.97" y2="128.93"/><line x1="131.97" y1="128.93" x2="130.09" y2="127.05"/><line x1="242.9" y1="202.26" x2="241.02" y2="202.26"/><line x1="210.94" y1="172.18" x2="209.06" y2="172.18"/><line x1="152.65" y1="198.5" x2="150.77" y2="196.62"/><line x1="150.77" y1="196.62" x2="150.77" y2="193.8"/><line x1="244.78" y1="179.7" x2="242.9" y2="177.82"/><line x1="250.42" y1="108.25" x2="250.42" y2="110.13"/><line x1="180.86" y1="172.18" x2="177.1" y2="175.94"/><line x1="126.33" y1="172.18" x2="122.57" y2="172.18"/><line x1="126.33" y1="112.01" x2="128.21" y2="112.01"/><line x1="128.21" y1="112.01" x2="130.09" y2="112.01"/><line x1="180.86" y1="183.46" x2="182.74" y2="181.58"/><line x1="259.82" y1="63.12" x2="256.06" y2="66.88"/><line x1="128.21" y1="172.18" x2="126.33" y2="172.18"/><line x1="219.4" y1="29.28" x2="222.22" y2="29.28"/><line x1="205.3" y1="172.18" x2="201.54" y2="175.94"/><line x1="261.71" y1="104.49" x2="259.82" y2="104.49"/><line x1="224.1" y1="33.98" x2="224.1" y2="46.2"/><line x1="259.82" y1="104.49" x2="254.18" y2="104.49"/><line x1="259.82" y1="89.45" x2="261.71" y2="89.45"/><line x1="263.59" y1="89.45" x2="269.23" y2="86.63"/><line x1="271.11" y1="104.49" x2="261.71" y2="104.49"/><line x1="150.77" y1="193.8" x2="150.77" y2="183.46"/><line x1="239.14" y1="33.04" x2="277.69" y2="33.04"/><line x1="147.01" y1="175.94" x2="147.01" y2="176.88"/><line x1="175.22" y1="206.02" x2="178.98" y2="206.02"/><line x1="274.87" y1="74.41" x2="271.11" y2="66.88"/><line x1="289.91" y1="85.69" x2="286.15" y2="93.21"/><line x1="224.1" y1="46.2" x2="224.1" y2="48.08"/><line x1="137.61" y1="21.76" x2="190.26" y2="21.76"/><line x1="175.22" y1="219.18" x2="167.7" y2="219.18"/><line x1="133.85" y1="176.88" x2="133.85" y2="175.94"/><line x1="289.91" y1="66.88" x2="289.91" y2="85.69"/><line x1="274.87" y1="78.17" x2="274.87" y2="74.41"/><line x1="286.15" y1="93.21" x2="278.63" y2="100.73"/><line x1="254.18" y1="175.94" x2="252.3" y2="175.94"/><line x1="263.59" y1="63.12" x2="261.71" y2="63.12"/><line x1="261.71" y1="63.12" x2="259.82" y2="63.12"/><line x1="237.26" y1="46.2" x2="237.26" y2="34.92"/><line x1="282.39" y1="51.84" x2="286.15" y2="59.36"/><line x1="237.26" y1="48.08" x2="237.26" y2="46.2"/><line x1="250.42" y1="110.13" x2="250.42" y2="117.65"/><line x1="224.1" y1="31.16" x2="224.1" y2="33.98"/><line x1="122.57" y1="36.8" x2="137.61" y2="21.76"/><line x1="128.21" y1="134.57" x2="130.09" y2="134.57"/><line x1="237.26" y1="34.92" x2="239.14" y2="33.04"/><line x1="289.91" y1="120.47" x2="291.79" y2="122.35"/><line x1="271.11" y1="66.88" x2="263.59" y2="63.12"/><line x1="289.91" y1="133.63" x2="289.91" y2="136.45"/><line x1="133.85" y1="200.38" x2="133.85" y2="183.46"/><line x1="122.57" y1="81.93" x2="122.57" y2="36.8"/><line x1="133.85" y1="179.7" x2="133.85" y2="176.88"/><line x1="209.06" y1="21.76" x2="209.06" y2="27.4"/><line x1="130.09" y1="81.93" x2="128.21" y2="81.93"/><line x1="190.26" y1="21.76" x2="190.26" y2="19.88"/><line x1="291.79" y1="122.35" x2="297.43" y2="122.35"/><line x1="241.02" y1="175.94" x2="239.14" y2="175.94"/><line x1="128.21" y1="157.13" x2="130.09" y2="157.13"/><line x1="128.21" y1="149.61" x2="126.33" y2="149.61"/><line x1="269.23" y1="86.63" x2="271.11" y2="85.69"/><line x1="299.31" y1="129.87" x2="297.43" y2="131.75"/><line x1="209.06" y1="27.4" x2="209.06" y2="29.28"/><line x1="128.21" y1="81.93" x2="122.57" y2="81.93"/><line x1="180.86" y1="138.8" x2="182.74" y2="138.8"/><line x1="250.42" y1="175.94" x2="250.42" y2="177.82"/><line x1="203.42" y1="18" x2="205.3" y2="19.88"/><line x1="250.42" y1="177.82" x2="248.54" y2="179.7"/><line x1="180.86" y1="130.81" x2="180.86" y2="138.8"/><line x1="272.05" y1="83.81" x2="274.87" y2="78.17"/><line x1="201.54" y1="175.94" x2="201.54" y2="181.58"/><line x1="115.05" y1="164.65" x2="115.05" y2="119.53"/><line x1="222.22" y1="179.7" x2="222.22" y2="177.82"/><line x1="182.74" y1="145.38" x2="180.86" y2="145.38"/><line x1="209.06" y1="172.18" x2="205.3" y2="172.18"/><line x1="182.74" y1="153.37" x2="182.74" y2="145.38"/><line x1="201.54" y1="142.09" x2="205.3" y2="145.85"/><line x1="280.51" y1="115.77" x2="282.39" y2="117.65"/><line x1="222.22" y1="29.28" x2="224.1" y2="31.16"/><line x1="210.94" y1="29.28" x2="219.4" y2="29.28"/><line x1="259.82" y1="115.77" x2="280.51" y2="115.77"/><line x1="205.3" y1="21.76" x2="209.06" y2="21.76"/><line x1="257.94" y1="117.65" x2="259.82" y2="115.77"/><line x1="212.82" y1="132.69" x2="214.7" y2="130.81"/><line x1="205.3" y1="19.88" x2="205.3" y2="21.76"/><line x1="209.06" y1="126.58" x2="201.54" y2="130.81"/><line x1="167.7" y1="206.02" x2="175.22" y2="206.02"/><line x1="180.86" y1="145.38" x2="180.86" y2="153.37"/><line x1="286.15" y1="59.36" x2="289.91" y2="66.88"/><line x1="182.74" y1="138.8" x2="182.74" y2="130.81"/><line x1="201.54" y1="130.81" x2="201.54" y2="142.09"/><line x1="205.3" y1="145.85" x2="209.06" y2="145.85"/><line x1="212.82" y1="121.41" x2="210.94" y2="119.53"/><line x1="147.01" y1="179.7" x2="147.01" y2="183.46"/><line x1="237.26" y1="179.7" x2="237.26" y2="181.58"/><line x1="203.42" y1="200.38" x2="203.42" y2="214.48"/><line x1="180.86" y1="200.38" x2="178.98" y2="198.5"/><line x1="180.86" y1="204.14" x2="180.86" y2="200.38"/><line x1="178.98" y1="206.02" x2="180.86" y2="204.14"/><line x1="198.72" y1="219.18" x2="175.22" y2="219.18"/><line x1="141.37" y1="219.18" x2="133.85" y2="211.66"/><line x1="133.85" y1="211.66" x2="133.85" y2="200.38"/><line x1="160.18" y1="206.02" x2="167.7" y2="206.02"/><line x1="147.01" y1="202.26" x2="150.77" y2="206.02"/><line x1="150.77" y1="206.02" x2="160.18" y2="206.02"/><line x1="147.01" y1="200.38" x2="147.01" y2="202.26"/><line x1="160.18" y1="219.18" x2="141.37" y2="219.18"/><line x1="167.7" y1="219.18" x2="160.18" y2="219.18"/><line x1="133.85" y1="183.46" x2="133.85" y2="179.7"/><line x1="147.01" y1="183.46" x2="147.01" y2="200.38"/><line x1="282.39" y1="136.45" x2="271.11" y2="136.45"/><line x1="301.19" y1="128.93" x2="301.19" y2="125.17"/><line x1="301.19" y1="125.17" x2="304.95" y2="125.17"/><line x1="304.95" y1="128.93" x2="301.19" y2="128.93"/><line x1="304.95" y1="125.17" x2="304.95" y2="128.93"/><line x1="256.06" y1="72.53" x2="257.94" y2="72.53"/><line x1="257.94" y1="72.53" x2="259.82" y2="74.41"/><line x1="259.82" y1="74.41" x2="259.82" y2="78.17"/><line x1="259.82" y1="78.17" x2="257.94" y2="80.05"/><line x1="257.94" y1="80.05" x2="256.06" y2="80.05"/><line x1="256.06" y1="80.05" x2="256.06" y2="85.69"/><line x1="201.54" y1="219.18" x2="198.72" y2="219.18"/><line x1="203.42" y1="217.3" x2="201.54" y2="219.18"/><line x1="203.42" y1="214.48" x2="203.42" y2="217.3"/><line x1="282.39" y1="37.74" x2="282.39" y2="51.84"/><line x1="252.3" y1="222" x2="244.78" y2="222"/><line x1="242.9" y1="208.84" x2="244.78" y2="206.96"/><line x1="244.78" y1="206.96" x2="244.78" y2="205.08"/><line x1="252.3" y1="206.96" x2="254.18" y2="208.84"/><line x1="254.18" y1="220.12" x2="252.3" y2="222"/><line x1="254.18" y1="208.84" x2="254.18" y2="220.12"/><line x1="244.78" y1="204.14" x2="244.78" y2="202.26"/><line x1="252.3" y1="204.14" x2="252.3" y2="205.08"/><line x1="252.3" y1="202.26" x2="252.3" y2="204.14"/><line x1="242.9" y1="220.12" x2="242.9" y2="208.84"/><line x1="244.78" y1="205.08" x2="244.78" y2="204.14"/><line x1="244.78" y1="222" x2="242.9" y2="220.12"/><line x1="252.3" y1="205.08" x2="252.3" y2="206.96"/><line x1="244.78" y1="202.26" x2="242.9" y2="202.26"/><line x1="239.14" y1="202.26" x2="233.5" y2="202.26"/><line x1="128.21" y1="127.05" x2="126.33" y2="127.05"/><line x1="266.41" y1="202.26" x2="252.3" y2="202.26"/><line x1="271.11" y1="197.56" x2="271.11" y2="200.38"/><line x1="209.06" y1="120" x2="210.94" y2="121.88"/><line x1="210.94" y1="121.88" x2="210.94" y2="124.7"/><line x1="210.94" y1="124.7" x2="209.06" y2="126.58"/></g><g opacity="0.95"><circle cx="293.67" cy="127.05" r="2.2" fill="#d3b15b"/><circle cx="140.43" cy="182.52" r="2.2" fill="#d3b15b"/><circle cx="162.06" cy="142.09" r="2.2" fill="#d3b15b"/><circle cx="134.79" cy="131.75" r="2.2" fill="#d3b15b"/><circle cx="134.79" cy="152.43" r="2.2" fill="#d3b15b"/><circle cx="181.8" cy="142.09" r="2.2" fill="#d3b15b"/><circle cx="276.75" cy="116.71" r="2.2" fill="#d3b15b"/><circle cx="270.17" cy="116.71" r="2.2" fill="#d3b15b"/><circle cx="259.82" cy="34.92" r="2.2" fill="#d3b15b"/><circle cx="222.22" cy="35.86" r="3.2" fill="#b7493c"/><circle cx="254.18" cy="76.29" r="3.2" fill="#b7493c"/><circle cx="125.39" cy="79.11" r="3.2" fill="#b7493c"/><circle cx="132.91" cy="32.1" r="2.2" fill="#d3b15b"/><circle cx="139.49" cy="25.52" r="2.2" fill="#d3b15b"/><circle cx="126.33" cy="38.68" r="2.2" fill="#d3b15b"/><circle cx="259.82" cy="200.38" r="2.2" fill="#d3b15b"/><circle cx="157.35" cy="196.62" r="3.2" fill="#b7493c"/><circle cx="248.54" cy="34.92" r="2.2" fill="#d3b15b"/><circle cx="197.78" cy="20.82" r="2.2" fill="#d3b15b"/><circle cx="263.59" cy="116.71" r="2.2" fill="#d3b15b"/><circle cx="178.98" cy="108.25" r="2.2" fill="#d3b15b"/><circle cx="178.98" cy="102.61" r="2.2" fill="#d3b15b"/><circle cx="246.66" cy="174.06" r="3.2" fill="#b7493c"/><circle cx="271.11" cy="34.92" r="2.2" fill="#d3b15b"/><circle cx="254.18" cy="53.72" r="2.2" fill="#d3b15b"/><circle cx="204.83" cy="123.29" r="3.2" fill="#b7493c"/><circle cx="117.87" cy="156.19" r="2.2" fill="#d3b15b"/><circle cx="117.87" cy="150.55" r="2.2" fill="#d3b15b"/><circle cx="117.87" cy="144.91" r="2.2" fill="#d3b15b"/><circle cx="117.87" cy="139.27" r="2.2" fill="#d3b15b"/><circle cx="117.87" cy="133.63" r="2.2" fill="#d3b15b"/><circle cx="117.87" cy="127.99" r="2.2" fill="#d3b15b"/><circle cx="197.78" cy="213.54" r="3.2" fill="#b7493c"/><circle cx="276.75" cy="38.68" r="3.2" fill="#b7493c"/><circle cx="209.06" cy="147.73" r="2.2" fill="#d3b15b"/><circle cx="209.06" cy="170.29" r="2.2" fill="#d3b15b"/><circle cx="177.1" cy="85.69" r="2.2" fill="#d3b15b"/><circle cx="178.98" cy="171.24" r="2.2" fill="#d3b15b"/><circle cx="264.53" cy="148.67" r="2.2" fill="#d3b15b"/><circle cx="288.03" cy="69.71" r="2.2" fill="#d3b15b"/><circle cx="286.15" cy="64.06" r="2.2" fill="#d3b15b"/><circle cx="288.03" cy="76.29" r="2.2" fill="#d3b15b"/><circle cx="288.03" cy="82.87" r="2.2" fill="#d3b15b"/><circle cx="286.15" cy="88.51" r="2.2" fill="#d3b15b"/><circle cx="213.76" cy="159.01" r="3.2" fill="#b7493c"/><circle cx="213.76" cy="164.65" r="3.2" fill="#b7493c"/><circle cx="213.76" cy="153.37" r="3.2" fill="#b7493c"/><circle cx="213.76" cy="147.73" r="3.2" fill="#b7493c"/><circle cx="143.25" cy="42.44" r="2.2" fill="#d3b15b"/><circle cx="247.6" cy="114.83" r="2.2" fill="#d3b15b"/><circle cx="268.29" cy="199.44" r="2.2" fill="#d3b15b"/></g></svg>