<svg xmlns="http://www.w3.org/2000/svg" viewBox="0 0 420 240" role="img"><rect width="100%" height="100%" fill="#070706"/><g stroke="#5e5a4f" stroke-width="1.6" stroke-linecap="round"><line x1="258.24" y1="175.14" x2="258.24" y2="153.08"/><line x1="252.73" y1="75.89" x2="230.68" y2="75.89"/><line x1="307.86" y1="75.89" x2="307.86" y2="53.84"/><line x1="136.95" y1="175.14" x2="136.95" y2="142.05"/><line x1="236.19" y1="175.14" x2="236.19" y2="153.08"/><line x1="241.7" y1="175.14" x2="241.7" y2="153.08"/><line x1="302.35" y1="75.89" x2="302.35" y2="53.84"/><line x1="247.22" y1="175.14" x2="247.22" y2="153.08"/><line x1="252.73" y1="175.14" x2="252.73" y2="153.08"/><line x1="208.62" y1="59.35" x2="214.14" y2="59.35"/><line x1="230.68" y1="81.41" x2="252.73" y2="81.41"/><line x1="225.16" y1="147.57" x2="203.11" y2="147.57"/><line x1="143.84" y1="42.81" x2="142.46" y2="42.81"/><line x1="136.95" y1="80.03" x2="136.95" y2="81.41"/><line x1="159" y1="125.51" x2="159" y2="142.05"/><line x1="214.14" y1="59.35" x2="214.14" y2="75.89"/><line x1="164.51" y1="142.05" x2="164.51" y2="125.51"/><line x1="208.62" y1="59.35" x2="208.62" y2="75.89"/><line x1="274.78" y1="131.03" x2="274.78" y2="147.57"/><line x1="280.3" y1="147.57" x2="280.3" y2="131.03"/><line x1="302.35" y1="125.51" x2="318.89" y2="125.51"/><line x1="186.57" y1="81.41" x2="197.59" y2="81.41"/><line x1="324.41" y1="120" x2="324.41" y2="103.46"/><line x1="313.38" y1="75.89" x2="313.38" y2="53.84"/><line x1="197.59" y1="75.89" x2="186.57" y2="75.89"/><line x1="296.84" y1="86.92" x2="313.38" y2="86.92"/><line x1="208.62" y1="42.81" x2="208.62" y2="59.35"/><line x1="291.32" y1="120" x2="291.32" y2="97.95"/><line x1="285.81" y1="120" x2="285.81" y2="97.95"/><line x1="274.78" y1="120" x2="274.78" y2="97.95"/><line x1="280.3" y1="120" x2="280.3" y2="97.95"/><line x1="324.41" y1="75.89" x2="324.41" y2="53.84"/><line x1="203.11" y1="153.08" x2="225.16" y2="153.08"/><line x1="318.89" y1="75.89" x2="318.89" y2="53.84"/><line x1="329.92" y1="180.65" x2="269.27" y2="180.65"/><line x1="329.92" y1="153.08" x2="329.92" y2="180.65"/><line x1="351.97" y1="153.08" x2="329.92" y2="153.08"/><line x1="331.3" y1="182.03" x2="270.65" y2="182.03"/><line x1="351.97" y1="64.86" x2="351.97" y2="153.08"/><line x1="270.65" y1="182.03" x2="270.65" y2="190.3"/><line x1="270.65" y1="190.3" x2="339.57" y2="190.3"/><line x1="339.57" y1="190.3" x2="339.57" y2="162.73"/><line x1="339.57" y1="162.73" x2="361.62" y2="162.73"/><line x1="361.62" y1="162.73" x2="361.62" y2="66.24"/><line x1="361.62" y1="66.24" x2="353.35" y2="66.24"/><line x1="353.35" y1="66.24" x2="353.35" y2="154.46"/><line x1="353.35" y1="154.46" x2="331.3" y2="154.46"/><line x1="331.3" y1="154.46" x2="331.3" y2="182.03"/><line x1="346.46" y1="64.86" x2="346.46" y2="147.57"/><line x1="346.46" y1="147.57" x2="324.41" y2="147.57"/><line x1="324.41" y1="147.57" x2="324.41" y2="175.14"/><line x1="324.41" y1="175.14" x2="318.89" y2="175.14"/><line x1="318.89" y1="97.95" x2="296.84" y2="97.95"/><line x1="302.35" y1="114.49" x2="313.38" y2="114.49"/><line x1="313.38" y1="114.49" x2="313.38" y2="103.46"/><line x1="313.38" y1="103.46" x2="302.35" y2="103.46"/><line x1="302.35" y1="103.46" x2="302.35" y2="114.49"/><line x1="170.03" y1="70.38" x2="170.03" y2="37.3"/><line x1="170.03" y1="37.3" x2="203.11" y2="37.3"/><line x1="175.54" y1="42.81" x2="197.59" y2="42.81"/><line x1="175.54" y1="70.38" x2="175.54" y2="64.86"/><line x1="214.14" y1="59.35" x2="214.14" y2="42.81"/><line x1="160.38" y1="27.65" x2="201.73" y2="27.65"/><line x1="201.73" y1="27.65" x2="201.73" y2="35.92"/><line x1="201.73" y1="35.92" x2="168.65" y2="35.92"/><line x1="168.65" y1="35.92" x2="168.65" y2="69"/><line x1="168.65" y1="69" x2="160.38" y2="69"/><line x1="160.38" y1="69" x2="160.38" y2="27.65"/><line x1="363" y1="70.38" x2="363" y2="158.59"/><line x1="225.16" y1="20.76" x2="302.35" y2="20.76"/><line x1="302.35" y1="26.27" x2="302.35" y2="48.32"/><line x1="346.46" y1="26.27" x2="346.46" y2="42.81"/><line x1="302.35" y1="26.27" x2="307.86" y2="26.27"/><line x1="302.35" y1="20.76" x2="302.35" y2="26.27"/><line x1="340.95" y1="53.84" x2="340.95" y2="142.05"/><line x1="340.95" y1="142.05" x2="318.89" y2="142.05"/><line x1="318.89" y1="142.05" x2="318.89" y2="175.14"/><line x1="318.89" y1="175.14" x2="269.27" y2="175.14"/><line x1="340.95" y1="175.14" x2="340.95" y2="186.16"/><line x1="357.49" y1="164.11" x2="346.46" y2="164.11"/><line x1="324.41" y1="23.51" x2="324.41" y2="26.27"/><line x1="324.41" y1="26.27" x2="324.41" y2="48.32"/><line x1="324.41" y1="26.27" x2="346.46" y2="26.27"/><line x1="296.84" y1="97.95" x2="296.84" y2="120"/><line x1="318.89" y1="120" x2="302.35" y2="120"/><line x1="318.89" y1="103.46" x2="318.89" y2="120"/><line x1="299.59" y1="100.7" x2="299.59" y2="117.24"/><line x1="299.59" y1="117.24" x2="316.14" y2="117.24"/><line x1="316.14" y1="117.24" x2="316.14" y2="100.7"/><line x1="316.14" y1="100.7" x2="299.59" y2="100.7"/><line x1="164.51" y1="26.27" x2="192.08" y2="26.27"/><line x1="159" y1="59.35" x2="159" y2="48.32"/><line x1="136.95" y1="142.05" x2="136.95" y2="108.97"/><line x1="153.49" y1="59.35" x2="153.49" y2="57.97"/><line x1="142.46" y1="97.95" x2="153.49" y2="97.95"/><line x1="159" y1="108.97" x2="136.95" y2="108.97"/><line x1="123.16" y1="144.81" x2="123.16" y2="97.95"/><line x1="120.41" y1="97.95" x2="120.41" y2="147.57"/><line x1="120.41" y1="147.57" x2="131.43" y2="147.57"/><line x1="125.92" y1="142.05" x2="125.92" y2="97.95"/><line x1="136.95" y1="142.05" x2="125.92" y2="142.05"/><line x1="131.43" y1="169.62" x2="103.86" y2="169.62"/><line x1="131.43" y1="147.57" x2="131.43" y2="169.62"/><line x1="134.19" y1="175.14" x2="134.19" y2="144.81"/><line x1="127.3" y1="140.68" x2="135.57" y2="140.68"/><line x1="135.57" y1="140.68" x2="135.57" y2="107.59"/><line x1="135.57" y1="107.59" x2="157.62" y2="107.59"/><line x1="157.62" y1="107.59" x2="157.62" y2="99.32"/><line x1="157.62" y1="99.32" x2="127.3" y2="99.32"/><line x1="127.3" y1="99.32" x2="127.3" y2="140.68"/><line x1="134.19" y1="144.81" x2="123.16" y2="144.81"/><line x1="70.78" y1="97.95" x2="114.89" y2="97.95"/><line x1="70.78" y1="86.92" x2="114.89" y2="86.92"/><line x1="92.84" y1="164.11" x2="70.78" y2="164.11"/><line x1="70.78" y1="164.11" x2="70.78" y2="108.97"/><line x1="61.14" y1="110.35" x2="69.41" y2="110.35"/><line x1="69.41" y1="110.35" x2="69.41" y2="165.49"/><line x1="69.41" y1="165.49" x2="91.46" y2="165.49"/><line x1="91.46" y1="165.49" x2="91.46" y2="173.76"/><line x1="91.46" y1="173.76" x2="61.14" y2="173.76"/><line x1="61.14" y1="173.76" x2="61.14" y2="110.35"/><line x1="59.76" y1="136.54" x2="59.76" y2="114.49"/><line x1="68.03" y1="175.14" x2="65.27" y2="175.14"/><line x1="87.32" y1="175.14" x2="84.57" y2="175.14"/><line x1="143.84" y1="96.57" x2="143.84" y2="80.03"/><line x1="143.84" y1="80.03" x2="136.95" y2="80.03"/><line x1="136.95" y1="80.03" x2="127.3" y2="80.03"/><line x1="127.3" y1="80.03" x2="127.3" y2="71.76"/><line x1="127.3" y1="71.76" x2="136.95" y2="71.76"/><line x1="136.95" y1="71.76" x2="143.84" y2="71.76"/><line x1="143.84" y1="71.76" x2="143.84" y2="42.81"/><line x1="143.84" y1="42.81" x2="143.84" y2="33.16"/><line x1="143.84" y1="33.16" x2="152.11" y2="33.16"/><line x1="152.11" y1="33.16" x2="152.11" y2="42.81"/><line x1="152.11" y1="42.81" x2="152.11" y2="49.7"/><line x1="152.11" y1="49.7" x2="153.49" y2="49.7"/><line x1="153.49" y1="49.7" x2="157.62" y2="49.7"/><line x1="157.62" y1="49.7" x2="157.62" y2="57.97"/><line x1="157.62" y1="57.97" x2="153.49" y2="57.97"/><line x1="153.49" y1="57.97" x2="152.11" y2="57.97"/><line x1="152.11" y1="57.97" x2="152.11" y2="96.57"/><line x1="152.11" y1="96.57" x2="143.84" y2="96.57"/><line x1="136.95" y1="71.76" x2="136.95" y2="80.03"/><line x1="136.95" y1="70.38" x2="136.95" y2="71.76"/><line x1="152.11" y1="42.81" x2="143.84" y2="42.81"/><line x1="153.49" y1="57.97" x2="153.49" y2="49.7"/><line x1="153.49" y1="42.81" x2="152.11" y2="42.81"/><line x1="153.49" y1="49.7" x2="153.49" y2="48.32"/><line x1="181.05" y1="97.95" x2="219.65" y2="97.95"/><line x1="258.24" y1="95.19" x2="225.16" y2="95.19"/><line x1="261" y1="131.03" x2="261" y2="95.19"/><line x1="175.54" y1="136.54" x2="203.11" y2="136.54"/><line x1="178.3" y1="133.78" x2="203.11" y2="133.78"/><line x1="261" y1="133.78" x2="261" y2="131.03"/><line x1="261" y1="95.19" x2="258.24" y2="95.19"/><line x1="178.3" y1="95.19" x2="178.3" y2="108.97"/><line x1="186.57" y1="125.51" x2="192.08" y2="125.51"/><line x1="192.08" y1="125.51" x2="192.08" y2="120"/><line x1="192.08" y1="120" x2="186.57" y2="120"/><line x1="186.57" y1="120" x2="186.57" y2="125.51"/><line x1="236.19" y1="114.49" x2="247.22" y2="114.49"/><line x1="247.22" y1="114.49" x2="247.22" y2="103.46"/><line x1="247.22" y1="103.46" x2="236.19" y2="103.46"/><line x1="236.19" y1="103.46" x2="236.19" y2="114.49"/><line x1="183.81" y1="128.27" x2="194.84" y2="128.27"/><line x1="194.84" y1="128.27" x2="194.84" y2="117.24"/><line x1="194.84" y1="117.24" x2="183.81" y2="117.24"/><line x1="183.81" y1="117.24" x2="183.81" y2="128.27"/><line x1="197.59" y1="131.03" x2="197.59" y2="114.49"/><line x1="197.59" y1="114.49" x2="181.05" y2="114.49"/><line x1="178.3" y1="108.97" x2="178.3" y2="133.78"/><line x1="175.54" y1="108.97" x2="175.54" y2="136.54"/><line x1="203.11" y1="131.03" x2="203.11" y2="108.97"/><line x1="203.11" y1="108.97" x2="181.05" y2="108.97"/><line x1="181.05" y1="108.97" x2="181.05" y2="97.95"/><line x1="203.11" y1="133.78" x2="261" y2="133.78"/><line x1="203.11" y1="136.54" x2="203.11" y2="133.78"/><line x1="203.11" y1="133.78" x2="203.11" y2="131.03"/><line x1="203.11" y1="131.03" x2="197.59" y2="131.03"/><line x1="197.59" y1="131.03" x2="181.05" y2="131.03"/><line x1="181.05" y1="131.03" x2="181.05" y2="114.49"/><line x1="181.05" y1="114.49" x2="181.05" y2="108.97"/><line x1="181.05" y1="108.97" x2="178.3" y2="108.97"/><line x1="178.3" y1="108.97" x2="175.54" y2="108.97"/><line x1="233.43" y1="117.24" x2="249.97" y2="117.24"/><line x1="249.97" y1="117.24" x2="249.97" y2="100.7"/><line x1="249.97" y1="100.7" x2="233.43" y2="100.7"/><line x1="233.43" y1="100.7" x2="233.43" y2="117.24"/><line x1="230.68" y1="120" x2="252.73" y2="120"/><line x1="252.73" y1="120" x2="252.73" y2="97.95"/><line x1="230.68" y1="97.95" x2="252.73" y2="97.95"/><line x1="230.68" y1="97.95" x2="230.68" y2="120"/><line x1="252.73" y1="97.95" x2="258.24" y2="97.95"/><line x1="225.16" y1="125.51" x2="258.24" y2="125.51"/><line x1="258.24" y1="97.95" x2="258.24" y2="125.51"/><line x1="258.24" y1="97.95" x2="258.24" y2="95.19"/><line x1="258.24" y1="95.19" x2="258.24" y2="92.43"/><line x1="258.24" y1="92.43" x2="225.16" y2="92.43"/><line x1="225.16" y1="92.43" x2="225.16" y2="95.19"/><line x1="225.16" y1="95.19" x2="225.16" y2="97.95"/><line x1="225.16" y1="97.95" x2="225.16" y2="125.51"/><line x1="225.16" y1="97.95" x2="230.68" y2="97.95"/><line x1="225.16" y1="95.19" x2="219.65" y2="95.19"/><line x1="258.24" y1="125.51" x2="258.24" y2="131.03"/><line x1="219.65" y1="86.92" x2="219.65" y2="95.19"/><line x1="219.65" y1="95.19" x2="219.65" y2="97.95"/><line x1="219.65" y1="97.95" x2="219.65" y2="131.03"/><line x1="258.24" y1="131.03" x2="219.65" y2="131.03"/><line x1="258.24" y1="131.03" x2="261" y2="131.03"/><line x1="261" y1="131.03" x2="263.76" y2="131.03"/><line x1="263.76" y1="131.03" x2="263.76" y2="86.92"/><line x1="263.76" y1="86.92" x2="219.65" y2="86.92"/><line x1="219.65" y1="131.03" x2="203.11" y2="131.03"/><line x1="219.65" y1="97.95" x2="225.16" y2="97.95"/><line x1="219.65" y1="95.19" x2="178.3" y2="95.19"/><line x1="175.54" y1="197.19" x2="153.49" y2="197.19"/><line x1="225.16" y1="175.14" x2="147.97" y2="175.14"/><line x1="181.05" y1="186.16" x2="147.97" y2="186.16"/><line x1="214.14" y1="186.16" x2="203.11" y2="186.16"/><line x1="203.11" y1="186.16" x2="203.11" y2="188.92"/><line x1="197.59" y1="186.16" x2="186.57" y2="186.16"/><line x1="203.11" y1="186.16" x2="197.59" y2="186.16"/><line x1="197.59" y1="188.92" x2="197.59" y2="186.16"/><line x1="181.05" y1="48.32" x2="181.05" y2="59.35"/><line x1="181.05" y1="59.35" x2="192.08" y2="59.35"/><line x1="192.08" y1="59.35" x2="192.08" y2="48.32"/><line x1="192.08" y1="48.32" x2="181.05" y2="48.32"/><line x1="175.54" y1="64.86" x2="197.59" y2="64.86"/><line x1="197.59" y1="64.86" x2="197.59" y2="42.81"/><line x1="175.54" y1="64.86" x2="175.54" y2="42.81"/><line x1="197.59" y1="42.81" x2="203.11" y2="42.81"/><line x1="175.54" y1="70.38" x2="203.11" y2="70.38"/><line x1="203.11" y1="70.38" x2="203.11" y2="42.81"/><line x1="307.86" y1="26.27" x2="307.86" y2="48.32"/><line x1="307.86" y1="26.27" x2="324.41" y2="26.27"/><line x1="280.3" y1="198.57" x2="291.32" y2="198.57"/><line x1="291.32" y1="191.68" x2="280.3" y2="191.68"/><line x1="291.32" y1="194.43" x2="280.3" y2="194.43"/><line x1="280.3" y1="195.81" x2="291.32" y2="195.81"/><line x1="288.57" y1="220.62" x2="283.05" y2="220.62"/><line x1="324.41" y1="191.68" x2="302.35" y2="191.68"/></g><g stroke="#d3b15b" stroke-width="2.4" stroke-linecap="round"><line x1="159" y1="108.97" x2="159" y2="125.51"/><line x1="186.57" y1="81.41" x2="186.57" y2="75.89"/><line x1="159" y1="153.08" x2="203.11" y2="153.08"/><line x1="208.62" y1="75.89" x2="197.59" y2="75.89"/><line x1="225.16" y1="153.08" x2="236.19" y2="153.08"/><line x1="258.24" y1="153.08" x2="280.3" y2="153.08"/><line x1="340.95" y1="164.11" x2="340.95" y2="175.14"/><line x1="269.27" y1="180.65" x2="269.27" y2="175.14"/><line x1="197.59" y1="81.41" x2="230.68" y2="81.41"/><line x1="175.54" y1="75.89" x2="175.54" y2="70.38"/><line x1="302.35" y1="75.89" x2="252.73" y2="75.89"/><line x1="186.57" y1="75.89" x2="175.54" y2="75.89"/><line x1="324.41" y1="120" x2="318.89" y2="120"/><line x1="313.38" y1="75.89" x2="307.86" y2="75.89"/><line x1="153.49" y1="31.78" x2="153.49" y2="42.81"/><line x1="236.19" y1="175.14" x2="225.16" y2="175.14"/><line x1="236.19" y1="153.08" x2="241.7" y2="153.08"/><line x1="280.3" y1="153.08" x2="280.3" y2="147.57"/><line x1="318.89" y1="103.46" x2="324.41" y2="103.46"/><line x1="340.95" y1="191.68" x2="324.41" y2="191.68"/><line x1="214.14" y1="75.89" x2="208.62" y2="75.89"/><line x1="324.41" y1="125.51" x2="324.41" y2="120"/><line x1="241.7" y1="153.08" x2="247.22" y2="153.08"/><line x1="346.46" y1="53.84" x2="346.46" y2="64.86"/><line x1="307.86" y1="75.89" x2="302.35" y2="75.89"/><line x1="247.22" y1="153.08" x2="252.73" y2="153.08"/><line x1="280.3" y1="125.51" x2="302.35" y2="125.51"/><line x1="252.73" y1="153.08" x2="258.24" y2="153.08"/><line x1="324.41" y1="53.84" x2="340.95" y2="53.84"/><line x1="274.78" y1="81.41" x2="274.78" y2="97.95"/><line x1="241.7" y1="175.14" x2="236.19" y2="175.14"/><line x1="302.35" y1="53.84" x2="307.86" y2="53.84"/><line x1="247.22" y1="175.14" x2="241.7" y2="175.14"/><line x1="252.73" y1="175.14" x2="247.22" y2="175.14"/><line x1="225.16" y1="20.76" x2="225.16" y2="18"/><line x1="258.24" y1="175.14" x2="252.73" y2="175.14"/><line x1="252.73" y1="75.89" x2="252.73" y2="81.41"/><line x1="225.16" y1="147.57" x2="225.16" y2="153.08"/><line x1="313.38" y1="53.84" x2="318.89" y2="53.84"/><line x1="164.51" y1="81.41" x2="186.57" y2="81.41"/><line x1="136.95" y1="175.14" x2="134.19" y2="175.14"/><line x1="125.92" y1="70.38" x2="136.95" y2="70.38"/><line x1="159" y1="125.51" x2="164.51" y2="125.51"/><line x1="164.51" y1="142.05" x2="159" y2="142.05"/><line x1="203.11" y1="42.81" x2="208.62" y2="42.81"/><line x1="159" y1="142.05" x2="159" y2="153.08"/><line x1="136.95" y1="81.41" x2="125.92" y2="81.41"/><line x1="164.51" y1="125.51" x2="164.51" y2="81.41"/><line x1="164.51" y1="147.57" x2="164.51" y2="142.05"/><line x1="203.11" y1="147.57" x2="164.51" y2="147.57"/><line x1="318.89" y1="53.84" x2="324.41" y2="53.84"/><line x1="203.11" y1="153.08" x2="203.11" y2="147.57"/><line x1="214.14" y1="20.76" x2="225.16" y2="20.76"/><line x1="230.68" y1="75.89" x2="214.14" y2="75.89"/><line x1="274.78" y1="147.57" x2="225.16" y2="147.57"/><line x1="285.81" y1="120" x2="280.3" y2="120"/><line x1="291.32" y1="120" x2="285.81" y2="120"/><line x1="252.73" y1="81.41" x2="274.78" y2="81.41"/><line x1="280.3" y1="147.57" x2="274.78" y2="147.57"/><line x1="274.78" y1="131.03" x2="280.3" y2="131.03"/><line x1="280.3" y1="131.03" x2="280.3" y2="125.51"/><line x1="302.35" y1="125.51" x2="302.35" y2="120"/><line x1="318.89" y1="120" x2="318.89" y2="125.51"/><line x1="318.89" y1="125.51" x2="324.41" y2="125.51"/><line x1="291.32" y1="97.95" x2="291.32" y2="86.92"/><line x1="214.14" y1="42.81" x2="214.14" y2="20.76"/><line x1="324.41" y1="103.46" x2="324.41" y2="75.89"/><line x1="318.89" y1="97.95" x2="318.89" y2="103.46"/><line x1="197.59" y1="75.89" x2="197.59" y2="81.41"/><line x1="313.38" y1="86.92" x2="318.89" y2="86.92"/><line x1="318.89" y1="86.92" x2="318.89" y2="97.95"/><line x1="291.32" y1="86.92" x2="296.84" y2="86.92"/><line x1="296.84" y1="86.92" x2="296.84" y2="81.41"/><line x1="313.38" y1="81.41" x2="313.38" y2="86.92"/><line x1="296.84" y1="81.41" x2="313.38" y2="81.41"/><line x1="280.3" y1="97.95" x2="285.81" y2="97.95"/><line x1="285.81" y1="97.95" x2="291.32" y2="97.95"/><line x1="274.78" y1="97.95" x2="280.3" y2="97.95"/><line x1="280.3" y1="120" x2="274.78" y2="120"/><line x1="274.78" y1="120" x2="274.78" y2="131.03"/><line x1="142.46" y1="31.78" x2="143.84" y2="31.78"/><line x1="307.86" y1="53.84" x2="313.38" y2="53.84"/><line x1="324.41" y1="75.89" x2="318.89" y2="75.89"/><line x1="230.68" y1="81.41" x2="230.68" y2="75.89"/><line x1="318.89" y1="75.89" x2="313.38" y2="75.89"/><line x1="307.86" y1="194.43" x2="302.35" y2="194.43"/><line x1="269.27" y1="191.68" x2="269.27" y2="180.65"/><line x1="351.97" y1="64.86" x2="363" y2="64.86"/><line x1="363" y1="64.86" x2="363" y2="70.38"/><line x1="363" y1="164.11" x2="357.49" y2="164.11"/><line x1="269.27" y1="175.14" x2="258.24" y2="175.14"/><line x1="346.46" y1="64.86" x2="351.97" y2="64.86"/><line x1="296.84" y1="120" x2="291.32" y2="120"/><line x1="203.11" y1="26.27" x2="203.11" y2="37.3"/><line x1="170.03" y1="70.38" x2="159" y2="70.38"/><line x1="175.54" y1="70.38" x2="170.03" y2="70.38"/><line x1="159" y1="70.38" x2="159" y2="59.35"/><line x1="159" y1="26.27" x2="164.51" y2="26.27"/><line x1="203.11" y1="37.3" x2="203.11" y2="42.81"/><line x1="208.62" y1="42.81" x2="214.14" y2="42.81"/><line x1="365.76" y1="70.38" x2="365.76" y2="136.54"/><line x1="365.76" y1="158.59" x2="363" y2="158.59"/><line x1="363" y1="70.38" x2="365.76" y2="70.38"/><line x1="363" y1="158.59" x2="363" y2="164.11"/><line x1="365.76" y1="147.57" x2="365.76" y2="158.59"/><line x1="365.76" y1="136.54" x2="365.76" y2="147.57"/><line x1="346.46" y1="42.81" x2="346.46" y2="48.32"/><line x1="346.46" y1="48.32" x2="324.41" y2="48.32"/><line x1="302.35" y1="48.32" x2="302.35" y2="53.84"/><line x1="225.16" y1="18" x2="305.11" y2="18"/><line x1="305.11" y1="18" x2="305.11" y2="23.51"/><line x1="305.11" y1="23.51" x2="324.41" y2="23.51"/><line x1="349.22" y1="23.51" x2="349.22" y2="42.81"/><line x1="349.22" y1="42.81" x2="346.46" y2="42.81"/><line x1="340.95" y1="53.84" x2="346.46" y2="53.84"/><line x1="343.7" y1="175.14" x2="343.7" y2="186.16"/><line x1="343.7" y1="186.16" x2="340.95" y2="186.16"/><line x1="340.95" y1="175.14" x2="343.7" y2="175.14"/><line x1="340.95" y1="186.16" x2="340.95" y2="191.68"/><line x1="357.49" y1="164.11" x2="357.49" y2="166.86"/><line x1="357.49" y1="166.86" x2="346.46" y2="166.86"/><line x1="346.46" y1="166.86" x2="346.46" y2="164.11"/><line x1="346.46" y1="164.11" x2="340.95" y2="164.11"/><line x1="324.41" y1="48.32" x2="307.86" y2="48.32"/><line x1="324.41" y1="23.51" x2="349.22" y2="23.51"/><line x1="302.35" y1="120" x2="296.84" y2="120"/><line x1="164.51" y1="23.51" x2="181.05" y2="23.51"/><line x1="192.08" y1="23.51" x2="192.08" y2="26.27"/><line x1="164.51" y1="26.27" x2="164.51" y2="23.51"/><line x1="192.08" y1="26.27" x2="203.11" y2="26.27"/><line x1="181.05" y1="23.51" x2="186.57" y2="23.51"/><line x1="186.57" y1="23.51" x2="192.08" y2="23.51"/><line x1="153.49" y1="48.32" x2="157.62" y2="48.32"/><line x1="159" y1="59.35" x2="157.62" y2="59.35"/><line x1="159" y1="48.32" x2="159" y2="26.27"/><line x1="142.46" y1="42.81" x2="142.46" y2="31.78"/><line x1="153.49" y1="42.81" x2="153.49" y2="48.32"/><line x1="153.49" y1="59.35" x2="153.49" y2="96.57"/><line x1="134.19" y1="175.14" x2="103.86" y2="175.14"/><line x1="142.46" y1="97.95" x2="142.46" y2="96.57"/><line x1="142.46" y1="81.41" x2="136.95" y2="81.41"/><line x1="125.92" y1="81.41" x2="125.92" y2="80.03"/><line x1="136.95" y1="70.38" x2="142.46" y2="70.38"/><line x1="142.46" y1="70.38" x2="142.46" y2="42.81"/><line x1="103.86" y1="175.14" x2="103.86" y2="169.62"/><line x1="125.92" y1="97.95" x2="142.46" y2="97.95"/><line x1="114.89" y1="97.95" x2="120.41" y2="97.95"/><line x1="153.49" y1="97.95" x2="159" y2="97.95"/><line x1="159" y1="97.95" x2="159" y2="108.97"/><line x1="103.86" y1="164.11" x2="92.84" y2="164.11"/><line x1="120.41" y1="97.95" x2="123.16" y2="97.95"/><line x1="103.86" y1="169.62" x2="103.86" y2="164.11"/><line x1="92.84" y1="164.11" x2="92.84" y2="175.14"/><line x1="92.84" y1="175.14" x2="87.32" y2="175.14"/><line x1="59.76" y1="175.14" x2="59.76" y2="136.54"/><line x1="59.76" y1="108.97" x2="70.78" y2="108.97"/><line x1="123.16" y1="97.95" x2="125.92" y2="97.95"/><line x1="70.78" y1="108.97" x2="70.78" y2="97.95"/><line x1="114.89" y1="86.92" x2="114.89" y2="97.95"/><line x1="70.78" y1="97.95" x2="70.78" y2="86.92"/><line x1="70.78" y1="75.89" x2="114.89" y2="75.89"/><line x1="114.89" y1="75.89" x2="114.89" y2="86.92"/><line x1="70.78" y1="86.92" x2="70.78" y2="75.89"/><line x1="54.24" y1="114.49" x2="57" y2="114.49"/><line x1="59.76" y1="136.54" x2="57" y2="136.54"/><line x1="54.24" y1="136.54" x2="54.24" y2="114.49"/><line x1="59.76" y1="114.49" x2="59.76" y2="108.97"/><line x1="57" y1="114.49" x2="59.76" y2="114.49"/><line x1="57" y1="136.54" x2="54.24" y2="136.54"/><line x1="68.03" y1="176.51" x2="65.27" y2="176.51"/><line x1="68.03" y1="175.14" x2="68.03" y2="176.51"/><line x1="65.27" y1="176.51" x2="65.27" y2="175.14"/><line x1="65.27" y1="175.14" x2="59.76" y2="175.14"/><line x1="87.32" y1="175.14" x2="87.32" y2="176.51"/><line x1="84.57" y1="176.51" x2="84.57" y2="175.14"/><line x1="87.32" y1="176.51" x2="84.57" y2="176.51"/><line x1="84.57" y1="175.14" x2="68.03" y2="175.14"/><line x1="142.46" y1="96.57" x2="142.46" y2="81.41"/><line x1="153.49" y1="96.57" x2="153.49" y2="97.95"/><line x1="157.62" y1="48.32" x2="159" y2="48.32"/><line x1="157.62" y1="59.35" x2="153.49" y2="59.35"/><line x1="143.84" y1="31.78" x2="152.11" y2="31.78"/><line x1="152.11" y1="31.78" x2="153.49" y2="31.78"/><line x1="125.92" y1="71.76" x2="125.92" y2="70.38"/><line x1="125.92" y1="80.03" x2="125.92" y2="71.76"/><line x1="147.97" y1="175.14" x2="136.95" y2="175.14"/><line x1="225.16" y1="175.14" x2="225.16" y2="186.16"/><line x1="225.16" y1="186.16" x2="214.14" y2="186.16"/><line x1="147.97" y1="197.19" x2="147.97" y2="186.16"/><line x1="181.05" y1="186.16" x2="181.05" y2="197.19"/><line x1="181.05" y1="197.19" x2="175.54" y2="197.19"/><line x1="175.54" y1="202.7" x2="153.49" y2="202.7"/><line x1="175.54" y1="197.19" x2="175.54" y2="199.95"/><line x1="153.49" y1="202.7" x2="153.49" y2="199.95"/><line x1="153.49" y1="197.19" x2="147.97" y2="197.19"/><line x1="147.97" y1="186.16" x2="147.97" y2="175.14"/><line x1="153.49" y1="199.95" x2="153.49" y2="197.19"/><line x1="175.54" y1="199.95" x2="175.54" y2="202.7"/><line x1="197.59" y1="188.92" x2="186.57" y2="188.92"/><line x1="214.14" y1="186.16" x2="214.14" y2="188.92"/><line x1="214.14" y1="188.92" x2="203.11" y2="188.92"/><line x1="186.57" y1="186.16" x2="181.05" y2="186.16"/><line x1="203.11" y1="188.92" x2="197.59" y2="188.92"/><line x1="186.57" y1="188.92" x2="186.57" y2="186.16"/><line x1="307.86" y1="48.32" x2="302.35" y2="48.32"/><line x1="291.32" y1="195.81" x2="291.32" y2="198.57"/><line x1="294.08" y1="217.86" x2="291.32" y2="220.62"/><line x1="291.32" y1="194.43" x2="291.32" y2="195.81"/><line x1="291.32" y1="198.57" x2="294.08" y2="201.32"/><line x1="280.3" y1="195.81" x2="280.3" y2="194.43"/><line x1="291.32" y1="220.62" x2="288.57" y2="220.62"/><line x1="294.08" y1="201.32" x2="294.08" y2="217.86"/><line x1="277.54" y1="201.32" x2="280.3" y2="198.57"/><line x1="277.54" y1="217.86" x2="277.54" y2="201.32"/><line x1="280.3" y1="220.62" x2="277.54" y2="217.86"/><line x1="280.3" y1="194.43" x2="280.3" y2="191.68"/><line x1="280.3" y1="198.57" x2="280.3" y2="195.81"/><line x1="291.32" y1="191.68" x2="291.32" y2="194.43"/><line x1="280.3" y1="191.68" x2="269.27" y2="191.68"/><line x1="283.05" y1="222" x2="283.05" y2="220.62"/><line x1="288.57" y1="220.62" x2="288.57" y2="222"/><line x1="288.57" y1="222" x2="283.05" y2="222"/><line x1="283.05" y1="220.62" x2="280.3" y2="220.62"/><line x1="302.35" y1="194.43" x2="302.35" y2="191.68"/><line x1="324.41" y1="191.68" x2="324.41" y2="194.43"/><line x1="324.41" y1="194.43" x2="313.38" y2="194.43"/><line x1="302.35" y1="191.68" x2="291.32" y2="191.68"/><line x1="313.38" y1="194.43" x2="307.86" y2="194.43"/></g><g opacity="0.95"><circle cx="336.81" cy="115.86" r="3.2" fill="#b7493c"/><circle cx="164.51" cy="31.78" r="2.2" fill="#d3b15b"/><circle cx="358.86" cy="69" r="3.2" fill="#b7493c"/><circle cx="305.11" cy="37.3" r="2.2" fill="#d3b15b"/><circle cx="218.27" cy="24.89" r="3.2" fill="#b7493c"/><circle cx="328.54" cy="107.59" r="3.2" fill="#b7493c"/><circle cx="336.81" cy="187.54" r="3.2" fill="#b7493c"/><circle cx="211.38" cy="46.95" r="2.2" fill="#d3b15b"/><circle cx="285.81" cy="209.59" r="2.2" fill="#d3b15b"/><circle cx="241.7" cy="108.97" r="2.2" fill="#d3b15b"/><circle cx="336.81" cy="107.59" r="3.2" fill="#b7493c"/><circle cx="328.54" cy="115.86" r="3.2" fill="#b7493c"/><circle cx="170.03" cy="86.92" r="2.2" fill="#d3b15b"/><circle cx="335.43" cy="186.16" r="2.2" fill="#d3b15b"/><circle cx="357.49" cy="70.38" r="2.2" fill="#d3b15b"/><circle cx="219.65" cy="26.27" r="2.2" fill="#d3b15b"/><circle cx="164.51" cy="64.86" r="2.2" fill="#d3b15b"/><circle cx="153.49" cy="191.68" r="2.2" fill="#d3b15b"/><circle cx="152.11" cy="193.05" r="3.2" fill="#b7493c"/><circle cx="130.05" cy="102.08" r="3.2" fill="#b7493c"/><circle cx="168.65" cy="85.54" r="3.2" fill="#b7493c"/><circle cx="305.11" cy="89.68" r="3.2" fill="#b7493c"/><circle cx="163.14" cy="66.24" r="3.2" fill="#b7493c"/><circle cx="197.59" cy="31.78" r="2.2" fill="#d3b15b"/><circle cx="131.43" cy="75.89" r="2.2" fill="#d3b15b"/><circle cx="219.65" cy="180.65" r="2.2" fill="#d3b15b"/><circle cx="357.49" cy="158.59" r="2.2" fill="#d3b15b"/><circle cx="298.22" cy="24.89" r="2.2" fill="#d3b15b"/><circle cx="289.95" cy="24.89" r="2.2" fill="#d3b15b"/><circle cx="281.68" cy="24.89" r="2.2" fill="#d3b15b"/><circle cx="273.41" cy="187.54" r="2.2" fill="#d3b15b"/><circle cx="277.54" cy="184.78" r="2.2" fill="#d3b15b"/><circle cx="141.08" cy="171" r="2.2" fill="#d3b15b"/><circle cx="270.65" cy="85.54" r="2.2" fill="#d3b15b"/><circle cx="262.38" cy="85.54" r="2.2" fill="#d3b15b"/><circle cx="168.65" cy="143.43" r="2.2" fill="#d3b15b"/><circle cx="284.43" cy="129.65" r="2.2" fill="#d3b15b"/><circle cx="284.43" cy="137.92" r="2.2" fill="#d3b15b"/></g></svg>