<svg xmlns="http://www.w3.org/2000/svg" viewBox="0 0 420 240" role="img"><rect width="100%" height="100%" fill="#070706"/><g stroke="#5e5a4f" stroke-width="1.6" stroke-linecap="round"><line x1="260.02" y1="94.5" x2="260.02" y2="78.81"/><line x1="142.33" y1="149.42" x2="126.63" y2="149.42"/><line x1="165.87" y1="149.42" x2="150.17" y2="149.42"/><line x1="228.63" y1="172.96" x2="228.63" y2="188.65"/><line x1="220.79" y1="118.04" x2="205.1" y2="118.04"/><line x1="181.56" y1="114.12" x2="177.63" y2="118.04"/><line x1="161.94" y1="172.96" x2="161.94" y2="188.65"/><line x1="126.63" y1="153.35" x2="142.33" y2="153.35"/><line x1="197.25" y1="94.5" x2="194.31" y2="97.44"/><line x1="232.56" y1="188.65" x2="232.56" y2="172.96"/><line x1="252.17" y1="133.73" x2="228.63" y2="133.73"/><line x1="193.33" y1="90.58" x2="193.33" y2="98.42"/><line x1="193.33" y1="114.12" x2="181.56" y2="114.12"/><line x1="165.87" y1="145.5" x2="150.17" y2="145.5"/><line x1="252.17" y1="118.04" x2="228.63" y2="118.04"/><line x1="252.17" y1="125.88" x2="228.63" y2="125.88"/><line x1="252.17" y1="141.58" x2="228.63" y2="141.58"/><line x1="252.17" y1="149.42" x2="228.63" y2="149.42"/><line x1="165.87" y1="188.65" x2="165.87" y2="172.96"/><line x1="201.17" y1="102.35" x2="197.25" y2="102.35"/><line x1="212.94" y1="153.35" x2="181.56" y2="153.35"/><line x1="256.1" y1="78.81" x2="256.1" y2="94.5"/><line x1="263.94" y1="70.96" x2="279.63" y2="70.96"/><line x1="279.63" y1="51.35" x2="279.63" y2="67.04"/><line x1="263.94" y1="67.04" x2="263.94" y2="51.35"/><line x1="134.48" y1="70.96" x2="236.48" y2="70.96"/><line x1="193.33" y1="98.42" x2="193.33" y2="106.27"/><line x1="299.25" y1="82.73" x2="283.56" y2="82.73"/><line x1="263.94" y1="67.04" x2="279.63" y2="67.04"/><line x1="134.48" y1="208.27" x2="126.63" y2="204.35"/><line x1="134.48" y1="106.27" x2="134.48" y2="82.73"/><line x1="126.63" y1="106.27" x2="126.63" y2="82.73"/><line x1="165.87" y1="204.35" x2="158.02" y2="208.27"/><line x1="299.25" y1="67.04" x2="283.56" y2="67.04"/><line x1="299.25" y1="74.88" x2="283.56" y2="74.88"/><line x1="248.25" y1="172.96" x2="248.25" y2="188.65"/><line x1="252.17" y1="188.65" x2="252.17" y2="172.96"/><line x1="299.25" y1="161.19" x2="299.25" y2="176.88"/><line x1="283.56" y1="153.35" x2="299.25" y2="161.19"/><line x1="201.17" y1="94.5" x2="197.25" y2="94.5"/><line x1="205.1" y1="98.42" x2="205.1" y2="90.58"/><line x1="150.17" y1="153.35" x2="165.87" y2="153.35"/><line x1="110.94" y1="67.04" x2="126.63" y2="67.04"/><line x1="205.1" y1="106.27" x2="205.1" y2="98.42"/><line x1="205.1" y1="90.58" x2="201.17" y2="86.65"/><line x1="205.1" y1="106.27" x2="204.12" y2="105.29"/><line x1="205.1" y1="98.42" x2="204.12" y2="97.44"/><line x1="158.02" y1="208.27" x2="134.48" y2="208.27"/><line x1="191.37" y1="23.88" x2="191.37" y2="19.96"/><line x1="256.1" y1="98.42" x2="256.1" y2="114.12"/><line x1="260.02" y1="114.12" x2="260.02" y2="98.42"/><line x1="197.25" y1="86.65" x2="193.33" y2="90.58"/><line x1="236.48" y1="67.04" x2="193.33" y2="67.04"/><line x1="201.17" y1="86.65" x2="197.25" y2="86.65"/><line x1="142.33" y1="145.5" x2="126.63" y2="145.5"/><line x1="193.33" y1="106.27" x2="150.17" y2="106.27"/><line x1="110.94" y1="74.88" x2="126.63" y2="74.88"/><line x1="126.63" y1="114.12" x2="110.94" y2="114.12"/><line x1="126.63" y1="121.96" x2="110.94" y2="121.96"/><line x1="194.31" y1="105.29" x2="193.33" y2="106.27"/><line x1="194.31" y1="97.44" x2="193.33" y2="98.42"/><line x1="204.12" y1="97.44" x2="201.17" y2="94.5"/><line x1="197.25" y1="102.35" x2="194.31" y2="105.29"/><line x1="200.68" y1="87.63" x2="197.74" y2="87.63"/><line x1="197.74" y1="87.63" x2="194.31" y2="91.07"/><line x1="194.31" y1="91.07" x2="194.31" y2="97.44"/><line x1="194.31" y1="97.44" x2="194.31" y2="105.29"/><line x1="194.31" y1="105.29" x2="194.31" y2="106.27"/><line x1="204.12" y1="106.27" x2="204.12" y2="105.29"/><line x1="204.12" y1="105.29" x2="204.12" y2="97.44"/><line x1="204.12" y1="97.44" x2="204.12" y2="91.07"/><line x1="204.12" y1="91.07" x2="200.68" y2="87.63"/><line x1="204.12" y1="105.29" x2="201.17" y2="102.35"/><line x1="228.63" y1="35.65" x2="193.33" y2="35.65"/><line x1="193.33" y1="67.04" x2="177.63" y2="67.04"/><line x1="193.33" y1="67.04" x2="193.33" y2="63.12"/><line x1="193.33" y1="35.65" x2="193.33" y2="19.96"/><line x1="177.63" y1="19.96" x2="177.63" y2="35.65"/><line x1="177.63" y1="35.65" x2="177.63" y2="39.58"/><line x1="177.63" y1="67.04" x2="134.48" y2="67.04"/><line x1="193.33" y1="35.65" x2="177.63" y2="35.65"/><line x1="228.63" y1="19.96" x2="228.63" y2="35.65"/><line x1="177.63" y1="35.65" x2="142.33" y2="35.65"/><line x1="142.33" y1="35.65" x2="142.33" y2="19.96"/><line x1="190.38" y1="25.85" x2="191.37" y2="23.88"/><line x1="179.6" y1="19.96" x2="179.6" y2="23.88"/><line x1="187.44" y1="27.81" x2="189.4" y2="26.83"/><line x1="181.56" y1="26.83" x2="183.52" y2="27.81"/><line x1="189.4" y1="26.83" x2="190.38" y2="25.85"/><line x1="180.58" y1="25.85" x2="181.56" y2="26.83"/><line x1="183.52" y1="27.81" x2="187.44" y2="27.81"/><line x1="179.6" y1="23.88" x2="180.58" y2="25.85"/><line x1="122.71" y1="216.12" x2="122.71" y2="212.19"/><line x1="130.56" y1="220.04" x2="122.71" y2="216.12"/><line x1="161.94" y1="220.04" x2="130.56" y2="220.04"/><line x1="169.79" y1="216.12" x2="161.94" y2="220.04"/><line x1="169.79" y1="212.19" x2="169.79" y2="216.12"/><line x1="195.29" y1="137.65" x2="203.13" y2="137.65"/><line x1="195.29" y1="135.69" x2="203.13" y2="135.69"/><line x1="181.56" y1="184.73" x2="173.71" y2="188.65"/><line x1="212.94" y1="184.73" x2="181.56" y2="184.73"/><line x1="220.79" y1="188.65" x2="212.94" y2="184.73"/><line x1="224.71" y1="188.65" x2="220.79" y2="188.65"/><line x1="169.79" y1="188.65" x2="173.71" y2="188.65"/><line x1="307.1" y1="169.04" x2="307.1" y2="172.96"/><line x1="287.48" y1="188.65" x2="271.79" y2="188.65"/><line x1="299.25" y1="176.88" x2="287.48" y2="188.65"/><line x1="283.56" y1="196.5" x2="279.63" y2="196.5"/><line x1="283.56" y1="198.46" x2="283.56" y2="196.5"/><line x1="287.48" y1="196.5" x2="283.56" y2="196.5"/><line x1="307.1" y1="172.96" x2="307.1" y2="176.88"/><line x1="307.1" y1="172.96" x2="309.06" y2="172.96"/><line x1="287.48" y1="198.46" x2="287.48" y2="196.5"/><line x1="291.4" y1="196.5" x2="287.48" y2="196.5"/><line x1="307.1" y1="180.81" x2="291.4" y2="196.5"/><line x1="307.1" y1="176.88" x2="307.1" y2="180.81"/><line x1="307.1" y1="176.88" x2="309.06" y2="176.88"/><line x1="252.17" y1="157.27" x2="250.21" y2="157.27"/><line x1="250.21" y1="157.27" x2="250.21" y2="165.12"/><line x1="230.6" y1="165.12" x2="230.6" y2="157.27"/><line x1="230.6" y1="157.27" x2="228.63" y2="157.27"/><line x1="242.37" y1="70.96" x2="250.21" y2="70.96"/><line x1="134.48" y1="78.81" x2="134.48" y2="70.96"/><line x1="150.17" y1="106.27" x2="142.33" y2="110.19"/><line x1="142.33" y1="110.19" x2="134.48" y2="110.19"/><line x1="142.33" y1="118.04" x2="142.33" y2="110.19"/><line x1="181.56" y1="43.5" x2="189.4" y2="43.5"/><line x1="189.4" y1="43.5" x2="189.4" y2="59.19"/><line x1="189.4" y1="59.19" x2="181.56" y2="59.19"/><line x1="181.56" y1="59.19" x2="181.56" y2="43.5"/><line x1="303.17" y1="163.15" x2="303.17" y2="178.85"/><line x1="303.17" y1="178.85" x2="289.44" y2="192.58"/><line x1="289.44" y1="192.58" x2="273.75" y2="192.58"/><line x1="271.79" y1="188.65" x2="263.94" y2="172.96"/><line x1="283.56" y1="165.12" x2="283.56" y2="161.19"/><line x1="193.33" y1="118.04" x2="183.52" y2="118.04"/><line x1="183.52" y1="118.04" x2="177.63" y2="123.92"/><line x1="220.79" y1="121.96" x2="205.1" y2="121.96"/><line x1="179.6" y1="41.54" x2="179.6" y2="61.15"/><line x1="179.6" y1="61.15" x2="191.37" y2="61.15"/><line x1="191.37" y1="61.15" x2="191.37" y2="41.54"/><line x1="191.37" y1="41.54" x2="179.6" y2="41.54"/><line x1="177.63" y1="39.58" x2="177.63" y2="63.12"/><line x1="177.63" y1="63.12" x2="193.33" y2="63.12"/><line x1="193.33" y1="63.12" x2="193.33" y2="39.58"/><line x1="193.33" y1="39.58" x2="177.63" y2="39.58"/><line x1="177.63" y1="63.12" x2="177.63" y2="67.04"/><line x1="193.33" y1="39.58" x2="193.33" y2="35.65"/><line x1="295.33" y1="114.12" x2="283.56" y2="114.12"/><line x1="299.25" y1="110.19" x2="295.33" y2="114.12"/><line x1="299.25" y1="98.42" x2="299.25" y2="110.19"/><line x1="299.25" y1="121.96" x2="287.48" y2="121.96"/><line x1="307.1" y1="114.12" x2="299.25" y2="121.96"/><line x1="307.1" y1="102.35" x2="307.1" y2="114.12"/><line x1="271.79" y1="172.96" x2="275.71" y2="172.96"/><line x1="275.71" y1="172.96" x2="283.56" y2="165.12"/><line x1="197.25" y1="19.96" x2="220.79" y2="19.96"/><line x1="146.25" y1="19.96" x2="148.21" y2="19.96"/><line x1="148.21" y1="19.96" x2="148.21" y2="18"/><line x1="148.21" y1="19.96" x2="150.17" y2="19.96"/><line x1="150.17" y1="19.96" x2="150.17" y2="18"/><line x1="150.17" y1="19.96" x2="154.1" y2="19.96"/><line x1="171.75" y1="18" x2="171.75" y2="19.96"/><line x1="171.75" y1="19.96" x2="173.71" y2="19.96"/><line x1="169.79" y1="18" x2="169.79" y2="19.96"/><line x1="169.79" y1="19.96" x2="171.75" y2="19.96"/><line x1="167.83" y1="18" x2="167.83" y2="19.96"/><line x1="167.83" y1="19.96" x2="169.79" y2="19.96"/><line x1="154.1" y1="19.96" x2="154.1" y2="18"/><line x1="154.1" y1="19.96" x2="167.83" y2="19.96"/><line x1="264.92" y1="45.46" x2="264.92" y2="37.62"/><line x1="260.02" y1="37.62" x2="260.02" y2="45.46"/><line x1="261.98" y1="37.62" x2="261.98" y2="45.46"/><line x1="262.96" y1="45.46" x2="262.96" y2="37.62"/><line x1="252.17" y1="119.02" x2="228.63" y2="119.02"/><line x1="263.94" y1="74.88" x2="279.63" y2="74.88"/><line x1="130.56" y1="106.27" x2="130.56" y2="82.73"/><line x1="165.87" y1="117.92" x2="158.02" y2="117.92"/></g><g stroke="#d3b15b" stroke-width="2.4" stroke-linecap="round"><line x1="150.17" y1="149.42" x2="150.17" y2="145.5"/><line x1="142.33" y1="149.42" x2="142.33" y2="153.35"/><line x1="260.02" y1="78.81" x2="263.94" y2="74.88"/><line x1="126.63" y1="149.42" x2="126.63" y2="145.5"/><line x1="212.94" y1="153.35" x2="212.94" y2="169.04"/><line x1="182.54" y1="24.87" x2="184.5" y2="25.85"/><line x1="150.17" y1="153.35" x2="150.17" y2="149.42"/><line x1="165.87" y1="149.42" x2="165.87" y2="153.35"/><line x1="181.56" y1="169.04" x2="181.56" y2="153.35"/><line x1="184.5" y1="25.85" x2="186.46" y2="25.85"/><line x1="193.33" y1="137.65" x2="195.29" y2="137.65"/><line x1="205.1" y1="137.65" x2="205.1" y2="121.96"/><line x1="181.56" y1="153.35" x2="177.63" y2="149.42"/><line x1="177.63" y1="149.42" x2="177.63" y2="123.92"/><line x1="193.33" y1="114.12" x2="193.33" y2="118.04"/><line x1="220.79" y1="145.5" x2="212.94" y2="153.35"/><line x1="220.79" y1="137.65" x2="220.79" y2="145.5"/><line x1="220.79" y1="118.04" x2="220.79" y2="121.96"/><line x1="161.94" y1="169.04" x2="161.94" y2="172.96"/><line x1="232.56" y1="188.65" x2="228.63" y2="188.65"/><line x1="228.63" y1="172.96" x2="232.56" y2="172.96"/><line x1="212.94" y1="169.04" x2="220.79" y2="169.04"/><line x1="165.87" y1="153.35" x2="165.87" y2="161.19"/><line x1="165.87" y1="200.42" x2="165.87" y2="204.35"/><line x1="161.94" y1="188.65" x2="161.94" y2="192.58"/><line x1="252.17" y1="133.73" x2="252.17" y2="141.58"/><line x1="142.33" y1="145.5" x2="142.33" y2="149.42"/><line x1="248.25" y1="169.04" x2="248.25" y2="172.96"/><line x1="256.1" y1="118.04" x2="252.17" y2="118.04"/><line x1="256.1" y1="70.96" x2="256.1" y2="78.81"/><line x1="244.33" y1="35.65" x2="260.02" y2="35.65"/><line x1="134.48" y1="118.04" x2="134.48" y2="110.19"/><line x1="177.63" y1="118.04" x2="142.33" y2="118.04"/><line x1="126.63" y1="153.35" x2="126.63" y2="149.42"/><line x1="110.94" y1="121.96" x2="110.94" y2="114.12"/><line x1="228.63" y1="133.73" x2="228.63" y2="125.88"/><line x1="252.17" y1="118.04" x2="252.17" y2="119.02"/><line x1="228.63" y1="125.88" x2="228.63" y2="119.02"/><line x1="252.17" y1="125.88" x2="252.17" y2="133.73"/><line x1="228.63" y1="141.58" x2="228.63" y2="133.73"/><line x1="252.17" y1="141.58" x2="252.17" y2="149.42"/><line x1="228.63" y1="149.42" x2="228.63" y2="141.58"/><line x1="252.17" y1="149.42" x2="252.17" y2="157.27"/><line x1="228.63" y1="157.27" x2="228.63" y2="149.42"/><line x1="252.17" y1="157.27" x2="252.17" y2="161.19"/><line x1="287.48" y1="198.46" x2="283.56" y2="198.46"/><line x1="228.63" y1="188.65" x2="224.71" y2="188.65"/><line x1="205.1" y1="118.04" x2="205.1" y2="106.27"/><line x1="228.63" y1="118.04" x2="220.79" y2="118.04"/><line x1="256.1" y1="94.5" x2="256.1" y2="98.42"/><line x1="256.1" y1="78.81" x2="260.02" y2="78.81"/><line x1="263.94" y1="74.88" x2="263.94" y2="70.96"/><line x1="263.94" y1="51.35" x2="279.63" y2="51.35"/><line x1="267.87" y1="94.5" x2="260.02" y2="94.5"/><line x1="260.02" y1="94.5" x2="256.1" y2="94.5"/><line x1="260.02" y1="35.65" x2="260.02" y2="37.62"/><line x1="110.94" y1="35.65" x2="126.63" y2="35.65"/><line x1="232.56" y1="172.96" x2="232.56" y2="169.04"/><line x1="201.17" y1="110.19" x2="197.25" y2="110.19"/><line x1="236.48" y1="67.04" x2="236.48" y2="70.96"/><line x1="134.48" y1="67.04" x2="126.63" y2="67.04"/><line x1="236.48" y1="70.96" x2="242.37" y2="70.96"/><line x1="134.48" y1="70.96" x2="134.48" y2="67.04"/><line x1="279.63" y1="67.04" x2="279.63" y2="70.96"/><line x1="263.94" y1="70.96" x2="263.94" y2="67.04"/><line x1="279.63" y1="70.96" x2="279.63" y2="74.88"/><line x1="279.63" y1="82.73" x2="267.87" y2="94.5"/><line x1="110.94" y1="67.04" x2="110.94" y2="35.65"/><line x1="142.33" y1="153.35" x2="150.17" y2="153.35"/><line x1="165.87" y1="161.19" x2="161.94" y2="169.04"/><line x1="161.94" y1="172.96" x2="165.87" y2="172.96"/><line x1="161.94" y1="192.58" x2="165.87" y2="200.42"/><line x1="219.81" y1="190.62" x2="211.96" y2="186.69"/><line x1="173.71" y1="169.04" x2="181.56" y2="169.04"/><line x1="182.54" y1="186.69" x2="174.69" y2="190.62"/><line x1="169.79" y1="188.65" x2="165.87" y2="188.65"/><line x1="220.79" y1="169.04" x2="228.63" y2="172.96"/><line x1="186.46" y1="25.85" x2="188.42" y2="24.87"/><line x1="126.63" y1="161.19" x2="126.63" y2="153.35"/><line x1="232.56" y1="169.04" x2="230.6" y2="165.12"/><line x1="134.48" y1="82.73" x2="134.48" y2="78.81"/><line x1="130.56" y1="169.04" x2="126.63" y2="161.19"/><line x1="130.56" y1="192.58" x2="130.56" y2="169.04"/><line x1="126.63" y1="200.42" x2="130.56" y2="192.58"/><line x1="126.63" y1="82.73" x2="130.56" y2="82.73"/><line x1="134.48" y1="106.27" x2="130.56" y2="106.27"/><line x1="279.63" y1="51.35" x2="295.33" y2="51.35"/><line x1="295.33" y1="51.35" x2="299.25" y2="55.27"/><line x1="299.25" y1="55.27" x2="299.25" y2="67.04"/><line x1="228.63" y1="161.19" x2="228.63" y2="157.27"/><line x1="283.56" y1="67.04" x2="279.63" y2="67.04"/><line x1="283.56" y1="74.88" x2="283.56" y2="67.04"/><line x1="299.25" y1="67.04" x2="299.25" y2="74.88"/><line x1="248.25" y1="172.96" x2="252.17" y2="172.96"/><line x1="250.21" y1="165.12" x2="248.25" y2="169.04"/><line x1="252.17" y1="188.65" x2="248.25" y2="188.65"/><line x1="252.17" y1="172.96" x2="263.94" y2="172.96"/><line x1="299.25" y1="133.73" x2="299.25" y2="161.19"/><line x1="283.56" y1="153.35" x2="283.56" y2="149.42"/><line x1="279.63" y1="145.5" x2="267.87" y2="145.5"/><line x1="299.25" y1="74.88" x2="299.25" y2="82.73"/><line x1="165.87" y1="188.65" x2="161.94" y2="188.65"/><line x1="126.63" y1="204.35" x2="126.63" y2="200.42"/><line x1="205.1" y1="106.27" x2="204.12" y2="106.27"/><line x1="165.87" y1="172.96" x2="173.71" y2="169.04"/><line x1="248.25" y1="188.65" x2="232.56" y2="188.65"/><line x1="211.96" y1="186.69" x2="182.54" y2="186.69"/><line x1="299.25" y1="82.73" x2="299.25" y2="98.42"/><line x1="126.63" y1="67.04" x2="126.63" y2="74.88"/><line x1="283.56" y1="82.73" x2="283.56" y2="74.88"/><line x1="110.94" y1="106.27" x2="110.94" y2="74.88"/><line x1="189.4" y1="19.96" x2="191.37" y2="19.96"/><line x1="188.42" y1="24.87" x2="189.4" y2="22.9"/><line x1="189.4" y1="22.9" x2="189.4" y2="19.96"/><line x1="263.94" y1="118.04" x2="260.02" y2="114.12"/><line x1="256.1" y1="114.12" x2="256.1" y2="118.04"/><line x1="256.1" y1="98.42" x2="260.02" y2="98.42"/><line x1="260.02" y1="114.12" x2="256.1" y2="114.12"/><line x1="260.02" y1="98.42" x2="279.63" y2="98.42"/><line x1="279.63" y1="98.42" x2="283.56" y2="94.5"/><line x1="283.56" y1="94.5" x2="283.56" y2="82.73"/><line x1="275.71" y1="118.04" x2="275.71" y2="125.88"/><line x1="263.94" y1="141.58" x2="263.94" y2="118.04"/><line x1="295.33" y1="129.81" x2="299.25" y2="133.73"/><line x1="267.87" y1="145.5" x2="263.94" y2="141.58"/><line x1="279.63" y1="114.12" x2="275.71" y2="118.04"/><line x1="283.56" y1="149.42" x2="279.63" y2="145.5"/><line x1="287.48" y1="121.96" x2="283.56" y2="118.04"/><line x1="275.71" y1="125.88" x2="279.63" y2="129.81"/><line x1="283.56" y1="114.12" x2="279.63" y2="114.12"/><line x1="197.25" y1="110.19" x2="195.29" y2="112.15"/><line x1="263.94" y1="67.04" x2="236.48" y2="67.04"/><line x1="260.02" y1="47.42" x2="263.94" y2="51.35"/><line x1="165.87" y1="145.5" x2="165.87" y2="149.42"/><line x1="126.63" y1="121.96" x2="165.87" y2="121.96"/><line x1="110.94" y1="74.88" x2="110.94" y2="67.04"/><line x1="126.63" y1="106.27" x2="126.63" y2="114.12"/><line x1="279.63" y1="129.81" x2="295.33" y2="129.81"/><line x1="110.94" y1="145.5" x2="110.94" y2="121.96"/><line x1="193.33" y1="106.27" x2="193.33" y2="114.12"/><line x1="126.63" y1="145.5" x2="110.94" y2="145.5"/><line x1="150.17" y1="145.5" x2="142.33" y2="145.5"/><line x1="271.79" y1="188.65" x2="252.17" y2="188.65"/><line x1="126.63" y1="114.12" x2="126.63" y2="121.96"/><line x1="110.94" y1="114.12" x2="110.94" y2="106.27"/><line x1="126.63" y1="74.88" x2="126.63" y2="82.73"/><line x1="165.87" y1="121.96" x2="165.87" y2="145.5"/><line x1="194.31" y1="106.27" x2="193.33" y2="106.27"/><line x1="195.29" y1="106.27" x2="194.31" y2="106.27"/><line x1="195.29" y1="112.15" x2="195.29" y2="106.27"/><line x1="203.13" y1="112.15" x2="201.17" y2="110.19"/><line x1="203.13" y1="106.27" x2="203.13" y2="112.15"/><line x1="204.12" y1="106.27" x2="203.13" y2="106.27"/><line x1="244.33" y1="19.96" x2="244.33" y2="35.65"/><line x1="126.63" y1="35.65" x2="126.63" y2="19.96"/><line x1="126.63" y1="19.96" x2="142.33" y2="19.96"/><line x1="228.63" y1="19.96" x2="244.33" y2="19.96"/><line x1="142.33" y1="19.96" x2="146.25" y2="19.96"/><line x1="177.63" y1="19.96" x2="179.6" y2="19.96"/><line x1="193.33" y1="19.96" x2="197.25" y2="19.96"/><line x1="191.37" y1="19.96" x2="193.33" y2="19.96"/><line x1="179.6" y1="19.96" x2="181.56" y2="19.96"/><line x1="181.56" y1="19.96" x2="181.56" y2="22.9"/><line x1="181.56" y1="22.9" x2="182.54" y2="24.87"/><line x1="165.87" y1="204.35" x2="169.79" y2="212.19"/><line x1="122.71" y1="212.19" x2="126.63" y2="204.35"/><line x1="169.79" y1="212.19" x2="171.75" y2="212.19"/><line x1="171.75" y1="212.19" x2="171.75" y2="217.1"/><line x1="171.75" y1="217.1" x2="162.92" y2="222"/><line x1="162.92" y1="222" x2="129.58" y2="222"/><line x1="129.58" y1="222" x2="120.75" y2="217.1"/><line x1="120.75" y1="217.1" x2="120.75" y2="212.19"/><line x1="120.75" y1="212.19" x2="122.71" y2="212.19"/><line x1="195.29" y1="135.69" x2="195.29" y2="120"/><line x1="203.13" y1="135.69" x2="203.13" y2="137.65"/><line x1="195.29" y1="137.65" x2="195.29" y2="135.69"/><line x1="203.13" y1="137.65" x2="205.1" y2="137.65"/><line x1="195.29" y1="120" x2="203.13" y2="120"/><line x1="203.13" y1="120" x2="203.13" y2="135.69"/><line x1="174.69" y1="190.62" x2="170.77" y2="190.62"/><line x1="224.71" y1="188.65" x2="223.73" y2="190.62"/><line x1="223.73" y1="190.62" x2="219.81" y2="190.62"/><line x1="170.77" y1="190.62" x2="169.79" y2="188.65"/><line x1="299.25" y1="161.19" x2="303.17" y2="163.15"/><line x1="307.1" y1="165.12" x2="307.1" y2="169.04"/><line x1="279.63" y1="196.5" x2="275.71" y2="196.5"/><line x1="275.71" y1="196.5" x2="273.75" y2="192.58"/><line x1="307.1" y1="169.04" x2="309.06" y2="169.04"/><line x1="309.06" y1="169.04" x2="309.06" y2="172.96"/><line x1="309.06" y1="181.79" x2="292.38" y2="198.46"/><line x1="292.38" y1="198.46" x2="287.48" y2="198.46"/><line x1="279.63" y1="198.46" x2="279.63" y2="196.5"/><line x1="309.06" y1="172.96" x2="309.06" y2="176.88"/><line x1="309.06" y1="176.88" x2="309.06" y2="181.79"/><line x1="283.56" y1="198.46" x2="279.63" y2="198.46"/><line x1="252.17" y1="161.19" x2="250.21" y2="165.12"/><line x1="230.6" y1="165.12" x2="228.63" y2="161.19"/><line x1="242.37" y1="69" x2="250.21" y2="69"/><line x1="250.21" y1="69" x2="250.21" y2="70.96"/><line x1="242.37" y1="70.96" x2="242.37" y2="69"/><line x1="250.21" y1="70.96" x2="256.1" y2="70.96"/><line x1="132.52" y1="70.96" x2="134.48" y2="70.96"/><line x1="134.48" y1="78.81" x2="132.52" y2="78.81"/><line x1="132.52" y1="78.81" x2="132.52" y2="70.96"/><line x1="134.48" y1="110.19" x2="134.48" y2="106.27"/><line x1="142.33" y1="118.04" x2="134.48" y2="118.04"/><line x1="273.75" y1="192.58" x2="271.79" y2="188.65"/><line x1="303.17" y1="163.15" x2="307.1" y2="165.12"/><line x1="263.94" y1="172.96" x2="271.79" y2="172.96"/><line x1="283.56" y1="161.19" x2="283.56" y2="153.35"/><line x1="177.63" y1="123.92" x2="177.63" y2="118.04"/><line x1="193.33" y1="118.04" x2="193.33" y2="137.65"/><line x1="205.1" y1="121.96" x2="205.1" y2="118.04"/><line x1="220.79" y1="121.96" x2="220.79" y2="137.65"/><line x1="283.56" y1="118.04" x2="283.56" y2="114.12"/><line x1="299.25" y1="98.42" x2="303.17" y2="98.42"/><line x1="303.17" y1="98.42" x2="307.1" y2="102.35"/><line x1="307.1" y1="102.35" x2="309.06" y2="102.35"/><line x1="309.06" y1="102.35" x2="309.06" y2="115.1"/><line x1="309.06" y1="115.1" x2="300.23" y2="123.92"/><line x1="300.23" y1="123.92" x2="287.48" y2="123.92"/><line x1="287.48" y1="123.92" x2="287.48" y2="121.96"/><line x1="271.79" y1="172.96" x2="271.79" y2="165.12"/><line x1="271.79" y1="165.12" x2="275.71" y2="161.19"/><line x1="275.71" y1="161.19" x2="283.56" y2="161.19"/><line x1="197.25" y1="18" x2="220.79" y2="18"/><line x1="220.79" y1="18" x2="220.79" y2="19.96"/><line x1="197.25" y1="19.96" x2="197.25" y2="18"/><line x1="220.79" y1="19.96" x2="228.63" y2="19.96"/><line x1="146.25" y1="18" x2="148.21" y2="18"/><line x1="173.71" y1="18" x2="173.71" y2="19.96"/><line x1="146.25" y1="19.96" x2="146.25" y2="18"/><line x1="173.71" y1="19.96" x2="177.63" y2="19.96"/><line x1="148.21" y1="18" x2="150.17" y2="18"/><line x1="150.17" y1="18" x2="154.1" y2="18"/><line x1="171.75" y1="18" x2="173.71" y2="18"/><line x1="169.79" y1="18" x2="171.75" y2="18"/><line x1="167.83" y1="18" x2="169.79" y2="18"/><line x1="154.1" y1="18" x2="167.83" y2="18"/><line x1="264.92" y1="45.46" x2="262.96" y2="45.46"/><line x1="280.62" y1="45.46" x2="278.65" y2="47.42"/><line x1="262.96" y1="45.46" x2="261.98" y2="45.46"/><line x1="266.88" y1="47.42" x2="264.92" y2="45.46"/><line x1="261.98" y1="37.62" x2="262.96" y2="37.62"/><line x1="280.62" y1="37.62" x2="280.62" y2="45.46"/><line x1="278.65" y1="47.42" x2="266.88" y2="47.42"/><line x1="264.92" y1="37.62" x2="266.88" y2="35.65"/><line x1="266.88" y1="35.65" x2="278.65" y2="35.65"/><line x1="278.65" y1="35.65" x2="280.62" y2="37.62"/><line x1="260.02" y1="37.62" x2="261.98" y2="37.62"/><line x1="262.96" y1="37.62" x2="264.92" y2="37.62"/><line x1="261.98" y1="45.46" x2="260.02" y2="45.46"/><line x1="260.02" y1="45.46" x2="260.02" y2="47.42"/><line x1="228.63" y1="119.02" x2="228.63" y2="118.04"/><line x1="252.17" y1="119.02" x2="252.17" y2="125.88"/><line x1="279.63" y1="74.88" x2="279.63" y2="82.73"/><line x1="130.56" y1="106.27" x2="126.63" y2="106.27"/><line x1="130.56" y1="82.73" x2="134.48" y2="82.73"/></g><g opacity="0.95"><circle cx="146.25" cy="114.12" r="2.2" fill="#d3b15b"/><circle cx="185.48" cy="51.35" r="2.2" fill="#d3b15b"/><circle cx="296.31" cy="185.71" r="2.2" fill="#d3b15b"/><circle cx="146.25" cy="216.12" r="2.2" fill="#d3b15b"/><circle cx="300.23" cy="115.1" r="2.2" fill="#d3b15b"/><circle cx="129.58" cy="22.9" r="3.2" fill="#b7493c"/><circle cx="241.38" cy="22.9" r="3.2" fill="#b7493c"/><circle cx="162.92" cy="124.9" r="3.2" fill="#b7493c"/><circle cx="208.04" cy="115.1" r="3.2" fill="#b7493c"/><circle cx="199.21" cy="139.62" r="3.2" fill="#b7493c"/><circle cx="146.25" cy="218.08" r="3.2" fill="#b7493c"/><circle cx="302.19" cy="117.06" r="3.2" fill="#b7493c"/><circle cx="275.71" cy="165.12" r="3.2" fill="#b7493c"/><circle cx="212.94" cy="120" r="2.2" fill="#d3b15b"/><circle cx="272.77" cy="41.54" r="2.2" fill="#d3b15b"/><circle cx="220.79" cy="187.67" r="2.2" fill="#d3b15b"/><circle cx="113.88" cy="38.6" r="2.2" fill="#d3b15b"/><circle cx="185.48" cy="28.79" r="2.2" fill="#d3b15b"/><circle cx="113.88" cy="142.56" r="2.2" fill="#d3b15b"/><circle cx="123.69" cy="215.13" r="2.2" fill="#d3b15b"/><circle cx="168.81" cy="215.13" r="2.2" fill="#d3b15b"/><circle cx="306.12" cy="105.29" r="2.2" fill="#d3b15b"/><circle cx="303.17" cy="178.85" r="2.2" fill="#d3b15b"/><circle cx="289.44" cy="192.58" r="2.2" fill="#d3b15b"/><circle cx="160.96" cy="22.9" r="2.2" fill="#d3b15b"/><circle cx="233.54" cy="69.98" r="2.2" fill="#d3b15b"/><circle cx="227.65" cy="69.98" r="2.2" fill="#d3b15b"/><circle cx="221.77" cy="69.98" r="2.2" fill="#d3b15b"/><circle cx="154.1" cy="39.58" r="3.2" fill="#b7493c"/><circle cx="154.1" cy="47.42" r="3.2" fill="#b7493c"/><circle cx="146.25" cy="43.5" r="3.2" fill="#b7493c"/><circle cx="146.25" cy="51.35" r="3.2" fill="#b7493c"/></g></svg>