<svg xmlns="http://www.w3.org/2000/svg" viewBox="0 0 420 240" role="img"><rect width="100%" height="100%" fill="#070706"/><g stroke="#5e5a4f" stroke-width="1.6" stroke-linecap="round"><line x1="173.23" y1="186.42" x2="187.47" y2="186.42"/><line x1="232.53" y1="122.37" x2="237.28" y2="127.12"/><line x1="227.79" y1="193.53" x2="211.19" y2="193.53"/><line x1="303.7" y1="93.91" x2="279.98" y2="93.91"/><line x1="279.98" y1="93.91" x2="279.98" y2="103.4"/><line x1="279.98" y1="103.4" x2="275.23" y2="108.14"/><line x1="275.23" y1="108.14" x2="265.74" y2="108.14"/><line x1="237.28" y1="108.14" x2="232.53" y2="112.88"/><line x1="252.7" y1="192.35" x2="256.26" y2="193.53"/><line x1="256.26" y1="193.53" x2="259.81" y2="192.35"/><line x1="265.74" y1="108.14" x2="261" y2="112.88"/><line x1="310.81" y1="146.09" x2="308.44" y2="136.6"/><line x1="264.56" y1="192.94" x2="264.56" y2="186.42"/><line x1="242.02" y1="28.67" x2="251.51" y2="28.67"/><line x1="259.81" y1="185.23" x2="256.26" y2="184.05"/><line x1="251.51" y1="32.23" x2="251.51" y2="46.47"/><line x1="218.3" y1="112.88" x2="213.56" y2="108.14"/><line x1="213.56" y1="108.14" x2="204.07" y2="108.14"/><line x1="204.07" y1="108.14" x2="199.33" y2="112.88"/><line x1="199.33" y1="112.88" x2="199.33" y2="122.37"/><line x1="199.33" y1="122.37" x2="204.07" y2="127.12"/><line x1="204.07" y1="127.12" x2="213.56" y2="127.12"/><line x1="213.56" y1="127.12" x2="218.3" y2="122.37"/><line x1="243.21" y1="26.3" x2="250.33" y2="26.3"/><line x1="243.21" y1="19.19" x2="243.21" y2="26.3"/><line x1="242.02" y1="31.05" x2="251.51" y2="31.05"/><line x1="242.02" y1="29.86" x2="251.51" y2="29.86"/><line x1="185.09" y1="122.37" x2="185.09" y2="112.88"/><line x1="185.09" y1="112.88" x2="180.35" y2="108.14"/><line x1="180.35" y1="108.14" x2="170.86" y2="108.14"/><line x1="170.86" y1="108.14" x2="166.12" y2="112.88"/><line x1="166.12" y1="112.88" x2="166.12" y2="122.37"/><line x1="166.12" y1="122.37" x2="170.86" y2="127.12"/><line x1="170.86" y1="127.12" x2="180.35" y2="127.12"/><line x1="180.35" y1="127.12" x2="185.09" y2="122.37"/><line x1="268.12" y1="63.07" x2="270.49" y2="65.44"/><line x1="237.28" y1="155.58" x2="237.28" y2="127.12"/><line x1="151.88" y1="122.37" x2="151.88" y2="112.88"/><line x1="151.88" y1="112.88" x2="147.14" y2="108.14"/><line x1="147.14" y1="108.14" x2="123.42" y2="108.14"/><line x1="123.42" y1="108.14" x2="118.67" y2="103.4"/><line x1="118.67" y1="103.4" x2="118.67" y2="65.44"/><line x1="118.67" y1="65.44" x2="123.42" y2="60.7"/><line x1="123.42" y1="60.7" x2="142.4" y2="60.7"/><line x1="142.4" y1="60.7" x2="147.14" y2="55.95"/><line x1="147.14" y1="55.95" x2="147.14" y2="46.47"/><line x1="147.14" y1="46.47" x2="142.4" y2="41.72"/><line x1="137.65" y1="79.67" x2="137.65" y2="70.19"/><line x1="137.65" y1="70.19" x2="128.16" y2="70.19"/><line x1="173.23" y1="172.19" x2="173.23" y2="186.42"/><line x1="123.42" y1="169.81" x2="118.67" y2="165.07"/><line x1="118.67" y1="165.07" x2="94.95" y2="165.07"/><line x1="118.67" y1="165.07" x2="118.67" y2="131.86"/><line x1="118.67" y1="131.86" x2="123.42" y2="127.12"/><line x1="123.42" y1="127.12" x2="147.14" y2="127.12"/><line x1="147.14" y1="127.12" x2="151.88" y2="122.37"/><line x1="289.47" y1="136.6" x2="294.21" y2="146.09"/><line x1="123.42" y1="169.81" x2="123.42" y2="188.79"/><line x1="211.19" y1="212.51" x2="215.93" y2="207.77"/><line x1="215.93" y1="207.77" x2="215.93" y2="198.28"/><line x1="215.93" y1="198.28" x2="211.19" y2="193.53"/><line x1="211.19" y1="193.53" x2="170.86" y2="193.53"/><line x1="170.86" y1="193.53" x2="166.12" y2="188.79"/><line x1="166.12" y1="188.79" x2="166.12" y2="174.56"/><line x1="166.12" y1="174.56" x2="161.37" y2="169.81"/><line x1="161.37" y1="169.81" x2="123.42" y2="169.81"/><line x1="250.33" y1="19.19" x2="243.21" y2="19.19"/><line x1="257.44" y1="181.67" x2="255.07" y2="181.67"/><line x1="250.33" y1="26.3" x2="250.33" y2="19.19"/><line x1="240.84" y1="102.8" x2="240.84" y2="96.87"/><line x1="193.4" y1="63.07" x2="214.74" y2="63.07"/><line x1="227.79" y1="79.67" x2="232.53" y2="79.67"/><line x1="237.28" y1="127.12" x2="261" y2="127.12"/><line x1="166.12" y1="98.65" x2="161.37" y2="103.4"/><line x1="261" y1="182.86" x2="257.44" y2="181.67"/><line x1="294.21" y1="146.09" x2="289.47" y2="155.58"/><line x1="322.67" y1="141.35" x2="322.67" y2="150.84"/><line x1="257.44" y1="195.91" x2="261" y2="194.72"/><line x1="175.6" y1="184.05" x2="185.09" y2="184.05"/><line x1="242.02" y1="27.49" x2="251.51" y2="27.49"/><line x1="142.4" y1="60.7" x2="151.88" y2="60.7"/><line x1="151.88" y1="60.7" x2="156.63" y2="55.95"/><line x1="156.63" y1="55.95" x2="156.63" y2="46.47"/><line x1="156.63" y1="46.47" x2="151.88" y2="41.72"/><line x1="151.88" y1="60.7" x2="156.63" y2="65.44"/><line x1="156.63" y1="65.44" x2="166.12" y2="65.44"/><line x1="166.12" y1="65.44" x2="170.86" y2="60.7"/><line x1="151.88" y1="60.7" x2="151.88" y2="70.19"/><line x1="151.88" y1="70.19" x2="156.63" y2="74.93"/><line x1="156.63" y1="74.93" x2="166.12" y2="74.93"/><line x1="166.12" y1="74.93" x2="170.86" y2="70.19"/><line x1="170.86" y1="70.19" x2="170.86" y2="60.7"/><line x1="147.14" y1="205.4" x2="147.14" y2="195.91"/><line x1="232.53" y1="188.79" x2="232.53" y2="212.51"/><line x1="239.65" y1="165.07" x2="237.28" y2="165.07"/><line x1="265.74" y1="108.14" x2="240.84" y2="108.14"/><line x1="279.98" y1="136.6" x2="279.98" y2="155.58"/><line x1="232.53" y1="101.02" x2="232.53" y2="112.88"/><line x1="313.19" y1="146.09" x2="308.44" y2="136.6"/><line x1="140.02" y1="67.81" x2="125.79" y2="67.81"/><line x1="259.81" y1="192.35" x2="261" y2="188.79"/><line x1="261" y1="188.79" x2="259.81" y2="185.23"/><line x1="256.26" y1="186.42" x2="253.88" y2="188.79"/><line x1="187.47" y1="172.19" x2="173.23" y2="172.19"/><line x1="261" y1="174.56" x2="251.51" y2="179.3"/><line x1="253.88" y1="198.28" x2="261" y2="198.28"/><line x1="128.16" y1="70.19" x2="128.16" y2="79.67"/><line x1="261" y1="160.33" x2="256.26" y2="165.07"/><line x1="317.93" y1="155.58" x2="313.19" y2="146.09"/><line x1="232.53" y1="79.67" x2="232.53" y2="65.44"/><line x1="240.84" y1="96.87" x2="236.69" y2="92.72"/><line x1="237.28" y1="108.14" x2="237.28" y2="98.65"/><line x1="237.28" y1="98.65" x2="232.53" y2="93.91"/><line x1="232.53" y1="93.91" x2="232.53" y2="92.13"/><line x1="232.53" y1="88.57" x2="232.53" y2="79.67"/><line x1="279.98" y1="84.42" x2="279.98" y2="93.91"/><line x1="161.37" y1="103.4" x2="161.37" y2="136.6"/><line x1="298.95" y1="84.42" x2="279.98" y2="84.42"/><line x1="279.98" y1="74.93" x2="279.98" y2="84.42"/><line x1="97.33" y1="122.37" x2="97.33" y2="112.88"/><line x1="298.95" y1="74.93" x2="279.98" y2="74.93"/><line x1="261" y1="127.12" x2="261" y2="160.33"/><line x1="161.37" y1="136.6" x2="166.12" y2="141.35"/><line x1="298.95" y1="65.44" x2="279.98" y2="65.44"/><line x1="279.98" y1="55.95" x2="279.98" y2="65.44"/><line x1="298.95" y1="55.95" x2="279.98" y2="55.95"/><line x1="275.23" y1="51.21" x2="279.98" y2="55.95"/><line x1="239.65" y1="52.4" x2="239.65" y2="31.05"/><line x1="251.51" y1="46.47" x2="256.26" y2="51.21"/><line x1="275.23" y1="79.67" x2="279.98" y2="84.42"/><line x1="283.53" y1="136.6" x2="283.53" y2="155.58"/><line x1="255.07" y1="181.67" x2="251.51" y2="182.86"/><line x1="253.88" y1="188.79" x2="256.26" y2="191.16"/><line x1="261" y1="112.88" x2="261" y2="127.12"/><line x1="232.53" y1="157.95" x2="239.65" y2="165.07"/><line x1="227.79" y1="65.44" x2="227.79" y2="79.67"/><line x1="175.6" y1="174.56" x2="175.6" y2="184.05"/><line x1="227.79" y1="79.67" x2="227.79" y2="96.28"/><line x1="251.51" y1="182.86" x2="250.33" y2="184.05"/><line x1="256.26" y1="51.21" x2="265.74" y2="51.21"/><line x1="144.77" y1="205.4" x2="144.77" y2="195.91"/><line x1="140.02" y1="82.05" x2="140.02" y2="67.81"/><line x1="298.95" y1="136.6" x2="308.44" y2="136.6"/><line x1="261" y1="198.28" x2="265.74" y2="193.53"/><line x1="261" y1="160.33" x2="242.02" y2="160.33"/><line x1="261" y1="127.12" x2="284.72" y2="127.12"/><line x1="253.88" y1="197.09" x2="260.41" y2="197.09"/><line x1="239.65" y1="102.8" x2="239.65" y2="97.47"/><line x1="232.53" y1="188.79" x2="227.79" y2="193.53"/><line x1="294.21" y1="146.09" x2="298.95" y2="155.58"/><line x1="185.09" y1="174.56" x2="175.6" y2="174.56"/><line x1="232.53" y1="79.67" x2="275.23" y2="79.67"/><line x1="185.09" y1="184.05" x2="185.09" y2="174.56"/><line x1="308.44" y1="103.4" x2="279.98" y2="103.4"/><line x1="238.47" y1="102.8" x2="238.47" y2="98.06"/><line x1="313.19" y1="146.09" x2="317.93" y2="136.6"/><line x1="242.02" y1="160.33" x2="237.28" y2="155.58"/><line x1="232.53" y1="112.88" x2="232.53" y2="122.37"/><line x1="298.95" y1="136.6" x2="294.21" y2="146.09"/><line x1="198.44" y1="37.87" x2="204.96" y2="31.34"/><line x1="227.79" y1="96.28" x2="232.53" y2="101.02"/><line x1="242.02" y1="32.23" x2="251.51" y2="32.23"/><line x1="199.33" y1="98.65" x2="166.12" y2="98.65"/><line x1="204.07" y1="93.91" x2="199.33" y2="98.65"/><line x1="218.3" y1="93.91" x2="204.07" y2="93.91"/><line x1="265.74" y1="51.21" x2="275.23" y2="51.21"/><line x1="213.56" y1="146.09" x2="223.05" y2="136.6"/><line x1="166.12" y1="141.35" x2="180.35" y2="141.35"/><line x1="180.35" y1="141.35" x2="185.09" y2="146.09"/><line x1="265.74" y1="51.21" x2="265.74" y2="60.7"/><line x1="223.05" y1="98.65" x2="218.3" y2="93.91"/><line x1="279.98" y1="65.44" x2="279.98" y2="74.93"/><line x1="270.49" y1="65.44" x2="279.98" y2="65.44"/><line x1="185.09" y1="146.09" x2="213.56" y2="146.09"/><line x1="223.05" y1="136.6" x2="223.05" y2="98.65"/><line x1="151.88" y1="74.93" x2="156.63" y2="79.67"/><line x1="125.79" y1="82.05" x2="140.02" y2="82.05"/><line x1="265.74" y1="60.7" x2="268.12" y2="63.07"/><line x1="141.21" y1="195.91" x2="141.21" y2="205.4"/><line x1="118.67" y1="131.86" x2="118.67" y2="103.4"/><line x1="251.51" y1="194.72" x2="255.07" y2="195.91"/><line x1="125.79" y1="67.81" x2="125.79" y2="82.05"/><line x1="308.44" y1="155.58" x2="310.81" y2="146.09"/><line x1="143.58" y1="195.91" x2="143.58" y2="205.4"/><line x1="128.16" y1="79.67" x2="137.65" y2="79.67"/><line x1="151.88" y1="70.19" x2="151.88" y2="74.93"/><line x1="308.44" y1="155.58" x2="298.95" y2="155.58"/><line x1="238.47" y1="108.14" x2="237.28" y2="108.14"/><line x1="238.47" y1="108.14" x2="238.47" y2="102.8"/><line x1="232.53" y1="92.13" x2="232.53" y2="90.35"/><line x1="238.47" y1="98.06" x2="235.5" y2="95.09"/><line x1="239.65" y1="108.14" x2="238.47" y2="108.14"/><line x1="239.65" y1="108.14" x2="239.65" y2="102.8"/><line x1="232.53" y1="90.35" x2="232.53" y2="88.57"/><line x1="239.65" y1="97.47" x2="236.09" y2="93.91"/><line x1="240.84" y1="108.14" x2="239.65" y2="108.14"/><line x1="240.84" y1="108.14" x2="240.84" y2="102.8"/><line x1="156.63" y1="79.67" x2="227.79" y2="79.67"/><line x1="235.5" y1="95.09" x2="232.53" y2="92.13"/><line x1="236.09" y1="93.91" x2="232.53" y2="90.35"/><line x1="308.44" y1="155.58" x2="313.19" y2="146.09"/><line x1="236.69" y1="92.72" x2="232.53" y2="88.57"/><line x1="279.98" y1="160.33" x2="261" y2="160.33"/><line x1="194.58" y1="65.44" x2="213.56" y2="65.44"/><line x1="218.3" y1="122.37" x2="218.3" y2="112.88"/><line x1="296.58" y1="146.09" x2="298.95" y2="155.58"/><line x1="232.53" y1="122.37" x2="232.53" y2="157.95"/><line x1="242.02" y1="51.21" x2="242.02" y2="32.23"/><line x1="122.23" y1="203.02" x2="122.23" y2="198.28"/><line x1="298.95" y1="136.6" x2="296.58" y2="146.09"/><line x1="187.47" y1="186.42" x2="187.47" y2="172.19"/><line x1="256.26" y1="184.05" x2="252.7" y2="185.23"/><line x1="256.26" y1="191.16" x2="258.63" y2="188.79"/><line x1="252.7" y1="185.23" x2="251.51" y2="188.79"/><line x1="250.33" y1="184.05" x2="249.14" y2="187.6"/><line x1="251.51" y1="188.79" x2="252.7" y2="192.35"/><line x1="249.14" y1="187.6" x2="249.14" y2="189.98"/><line x1="249.14" y1="189.98" x2="250.33" y2="193.53"/><line x1="250.33" y1="193.53" x2="251.51" y2="194.72"/><line x1="258.63" y1="188.79" x2="256.26" y2="186.42"/><line x1="260.41" y1="197.09" x2="264.56" y2="192.94"/><line x1="261" y1="194.72" x2="262.19" y2="193.53"/><line x1="256.26" y1="165.07" x2="239.65" y2="165.07"/><line x1="142.4" y1="60.7" x2="151.88" y2="70.19"/><line x1="255.07" y1="195.91" x2="257.44" y2="195.91"/><line x1="262.19" y1="184.05" x2="261" y2="182.86"/><line x1="262.19" y1="193.53" x2="263.37" y2="189.98"/><line x1="265.74" y1="188.79" x2="265.74" y2="186.42"/><line x1="279.98" y1="179.3" x2="261" y2="179.3"/><line x1="237.28" y1="165.07" x2="232.53" y2="169.81"/><line x1="232.53" y1="169.81" x2="232.53" y2="188.79"/><line x1="279.98" y1="165.07" x2="256.26" y2="165.07"/><line x1="263.37" y1="187.6" x2="262.19" y2="184.05"/><line x1="263.37" y1="189.98" x2="263.37" y2="187.6"/><line x1="279.98" y1="174.56" x2="261" y2="174.56"/><line x1="279.98" y1="184.05" x2="265.74" y2="184.05"/><line x1="279.98" y1="188.79" x2="265.74" y2="188.79"/><line x1="265.74" y1="193.53" x2="265.74" y2="188.79"/><line x1="251.51" y1="198.28" x2="251.51" y2="212.51"/><line x1="194.58" y1="214.88" x2="185.09" y2="214.88"/><line x1="251.51" y1="212.51" x2="237.28" y2="212.51"/><line x1="279.83" y1="141.35" x2="279.83" y2="150.84"/></g><g stroke="#d3b15b" stroke-width="2.4" stroke-linecap="round"><line x1="294.21" y1="127.12" x2="284.72" y2="127.12"/><line x1="308.44" y1="112.88" x2="294.21" y2="127.12"/><line x1="298.95" y1="84.42" x2="303.7" y2="93.91"/><line x1="99.7" y1="188.79" x2="94.95" y2="184.05"/><line x1="97.33" y1="122.37" x2="93.77" y2="122.37"/><line x1="247.95" y1="192.94" x2="247.95" y2="184.64"/><line x1="294.21" y1="27.49" x2="298.95" y2="32.23"/><line x1="252.1" y1="197.09" x2="247.95" y2="192.94"/><line x1="253.88" y1="197.09" x2="252.1" y2="197.09"/><line x1="251.51" y1="31.05" x2="251.51" y2="32.23"/><line x1="242.02" y1="31.05" x2="242.02" y2="29.86"/><line x1="251.51" y1="29.86" x2="251.51" y2="31.05"/><line x1="242.02" y1="29.86" x2="242.02" y2="28.67"/><line x1="282.35" y1="135.42" x2="283.53" y2="136.6"/><line x1="283.53" y1="136.6" x2="289.47" y2="136.6"/><line x1="281.16" y1="136.6" x2="282.35" y2="135.42"/><line x1="97.33" y1="112.88" x2="99.7" y2="110.51"/><line x1="214.74" y1="63.07" x2="213.56" y2="64.26"/><line x1="104.44" y1="36.98" x2="123.42" y2="36.98"/><line x1="132.91" y1="41.72" x2="142.4" y2="41.72"/><line x1="138.84" y1="207.77" x2="124.6" y2="207.77"/><line x1="141.21" y1="205.4" x2="138.84" y2="207.77"/><line x1="123.42" y1="188.79" x2="99.7" y2="188.79"/><line x1="194.58" y1="61.88" x2="194.58" y2="41.72"/><line x1="282.35" y1="156.77" x2="281.16" y2="155.58"/><line x1="322.67" y1="141.35" x2="326.23" y2="141.35"/><line x1="142.4" y1="188.79" x2="123.42" y2="188.79"/><line x1="147.14" y1="193.53" x2="142.4" y2="188.79"/><line x1="147.14" y1="207.77" x2="147.14" y2="205.4"/><line x1="151.88" y1="212.51" x2="147.14" y2="207.77"/><line x1="211.19" y1="212.51" x2="196.95" y2="212.51"/><line x1="194.58" y1="64.26" x2="193.4" y2="63.07"/><line x1="308.44" y1="127.12" x2="308.44" y2="136.6"/><line x1="142.4" y1="41.72" x2="151.88" y2="41.72"/><line x1="122.23" y1="205.4" x2="122.23" y2="203.02"/><line x1="166.12" y1="41.72" x2="170.86" y2="46.47"/><line x1="151.88" y1="41.72" x2="166.12" y2="41.72"/><line x1="170.86" y1="60.7" x2="175.6" y2="65.44"/><line x1="251.51" y1="28.67" x2="251.51" y2="29.86"/><line x1="242.02" y1="55.95" x2="242.02" y2="51.21"/><line x1="242.02" y1="32.23" x2="242.02" y2="31.05"/><line x1="298.95" y1="32.23" x2="298.95" y2="55.95"/><line x1="261" y1="32.23" x2="270.49" y2="27.49"/><line x1="284.72" y1="127.12" x2="279.98" y2="131.86"/><line x1="279.98" y1="131.86" x2="279.98" y2="136.6"/><line x1="279.98" y1="136.6" x2="281.16" y2="136.6"/><line x1="253.88" y1="198.28" x2="253.88" y2="197.09"/><line x1="143.58" y1="205.4" x2="141.21" y2="205.4"/><line x1="270.49" y1="27.49" x2="294.21" y2="27.49"/><line x1="147.14" y1="205.4" x2="144.77" y2="205.4"/><line x1="94.95" y1="165.07" x2="99.7" y2="155.58"/><line x1="281.16" y1="155.58" x2="279.98" y2="155.58"/><line x1="283.53" y1="155.58" x2="282.35" y2="156.77"/><line x1="196.06" y1="35.49" x2="202.59" y2="28.97"/><line x1="298.95" y1="165.07" x2="298.95" y2="155.58"/><line x1="242.02" y1="27.49" x2="242.02" y2="18"/><line x1="99.7" y1="124.74" x2="97.33" y2="122.37"/><line x1="298.95" y1="74.93" x2="298.95" y2="84.42"/><line x1="298.95" y1="155.58" x2="289.47" y2="155.58"/><line x1="238.47" y1="32.23" x2="239.65" y2="31.05"/><line x1="298.95" y1="65.44" x2="298.95" y2="74.93"/><line x1="298.95" y1="136.6" x2="298.95" y2="127.12"/><line x1="240.84" y1="51.21" x2="239.65" y2="52.4"/><line x1="298.95" y1="55.95" x2="298.95" y2="65.44"/><line x1="93.77" y1="122.37" x2="93.77" y2="112.88"/><line x1="251.51" y1="32.23" x2="261" y2="32.23"/><line x1="289.47" y1="136.6" x2="298.95" y2="136.6"/><line x1="242.02" y1="28.67" x2="242.02" y2="27.49"/><line x1="308.44" y1="103.4" x2="308.44" y2="112.88"/><line x1="227.79" y1="65.44" x2="232.53" y2="65.44"/><line x1="279.98" y1="179.3" x2="279.98" y2="184.05"/><line x1="308.44" y1="155.58" x2="308.44" y2="165.07"/><line x1="232.53" y1="212.51" x2="211.19" y2="212.51"/><line x1="232.53" y1="65.44" x2="242.02" y2="55.95"/><line x1="204.96" y1="31.34" x2="213.56" y2="22.74"/><line x1="242.02" y1="51.21" x2="240.84" y2="51.21"/><line x1="239.65" y1="52.4" x2="238.47" y2="51.21"/><line x1="213.56" y1="55.95" x2="213.56" y2="61.88"/><line x1="246.77" y1="222" x2="237.28" y2="212.51"/><line x1="279.98" y1="155.58" x2="279.98" y2="160.33"/><line x1="194.58" y1="65.44" x2="194.58" y2="64.26"/><line x1="124.6" y1="193.53" x2="138.84" y2="193.53"/><line x1="213.56" y1="65.44" x2="227.79" y2="65.44"/><line x1="124.6" y1="207.77" x2="122.23" y2="205.4"/><line x1="143.58" y1="195.91" x2="144.77" y2="195.91"/><line x1="193.4" y1="63.07" x2="194.58" y2="61.88"/><line x1="202.59" y1="28.97" x2="204.96" y2="31.34"/><line x1="218.3" y1="51.21" x2="213.56" y2="55.95"/><line x1="308.44" y1="136.6" x2="317.93" y2="136.6"/><line x1="317.93" y1="155.58" x2="308.44" y2="155.58"/><line x1="122.23" y1="195.91" x2="124.6" y2="193.53"/><line x1="251.51" y1="198.28" x2="253.88" y2="198.28"/><line x1="298.95" y1="127.12" x2="308.44" y2="127.12"/><line x1="198.44" y1="37.87" x2="196.06" y2="35.49"/><line x1="213.56" y1="22.74" x2="223.05" y2="22.74"/><line x1="303.7" y1="93.91" x2="308.44" y2="103.4"/><line x1="141.21" y1="195.91" x2="143.58" y2="195.91"/><line x1="94.95" y1="184.05" x2="94.95" y2="165.07"/><line x1="175.6" y1="65.44" x2="194.58" y2="65.44"/><line x1="93.77" y1="112.88" x2="97.33" y2="112.88"/><line x1="170.86" y1="46.47" x2="170.86" y2="60.7"/><line x1="147.14" y1="195.91" x2="147.14" y2="193.53"/><line x1="99.7" y1="110.51" x2="99.7" y2="41.72"/><line x1="251.51" y1="27.49" x2="251.51" y2="28.67"/><line x1="213.56" y1="61.88" x2="214.74" y2="63.07"/><line x1="317.93" y1="136.6" x2="322.67" y2="141.35"/><line x1="122.23" y1="198.28" x2="122.23" y2="195.91"/><line x1="238.47" y1="51.21" x2="218.3" y2="51.21"/><line x1="308.44" y1="165.07" x2="298.95" y2="165.07"/><line x1="237.28" y1="212.51" x2="232.53" y2="212.51"/><line x1="121.05" y1="203.02" x2="121.05" y2="198.28"/><line x1="138.84" y1="193.53" x2="141.21" y2="195.91"/><line x1="144.77" y1="205.4" x2="143.58" y2="205.4"/><line x1="123.42" y1="36.98" x2="132.91" y2="41.72"/><line x1="242.02" y1="18" x2="251.51" y2="18"/><line x1="251.51" y1="18" x2="251.51" y2="27.49"/><line x1="322.67" y1="150.84" x2="317.93" y2="155.58"/><line x1="239.65" y1="31.05" x2="240.84" y2="32.23"/><line x1="326.23" y1="141.35" x2="326.23" y2="150.84"/><line x1="194.58" y1="41.72" x2="198.44" y2="37.87"/><line x1="251.51" y1="222" x2="246.77" y2="222"/><line x1="121.05" y1="198.28" x2="122.23" y2="198.28"/><line x1="99.7" y1="41.72" x2="104.44" y2="36.98"/><line x1="122.23" y1="203.02" x2="121.05" y2="203.02"/><line x1="144.77" y1="195.91" x2="147.14" y2="195.91"/><line x1="240.84" y1="32.23" x2="242.02" y2="32.23"/><line x1="279.98" y1="160.33" x2="279.98" y2="165.07"/><line x1="213.56" y1="64.26" x2="213.56" y2="65.44"/><line x1="326.23" y1="150.84" x2="322.67" y2="150.84"/><line x1="99.7" y1="155.58" x2="99.7" y2="124.74"/><line x1="289.47" y1="155.58" x2="283.53" y2="155.58"/><line x1="279.98" y1="207.77" x2="275.23" y2="212.51"/><line x1="265.74" y1="186.42" x2="265.74" y2="184.05"/><line x1="275.23" y1="212.51" x2="251.51" y2="212.51"/><line x1="251.51" y1="179.3" x2="246.77" y2="184.05"/><line x1="265.74" y1="184.05" x2="261" y2="179.3"/><line x1="246.77" y1="193.53" x2="251.51" y2="198.28"/><line x1="261" y1="179.3" x2="251.51" y2="179.3"/><line x1="246.77" y1="184.05" x2="246.77" y2="193.53"/><line x1="279.98" y1="165.07" x2="279.98" y2="174.56"/><line x1="251.51" y1="212.51" x2="251.51" y2="222"/><line x1="279.98" y1="174.56" x2="279.98" y2="179.3"/><line x1="279.98" y1="184.05" x2="279.98" y2="188.79"/><line x1="279.98" y1="188.79" x2="279.98" y2="207.77"/><line x1="264.56" y1="186.42" x2="265.74" y2="186.42"/><line x1="264.56" y1="184.64" x2="264.56" y2="186.42"/><line x1="260.41" y1="180.49" x2="264.56" y2="184.64"/><line x1="252.1" y1="180.49" x2="260.41" y2="180.49"/><line x1="247.95" y1="184.64" x2="252.1" y2="180.49"/><line x1="185.09" y1="214.88" x2="182.72" y2="212.51"/><line x1="182.72" y1="212.51" x2="151.88" y2="212.51"/><line x1="196.95" y1="212.51" x2="194.58" y2="214.88"/><line x1="185.09" y1="218.44" x2="185.09" y2="214.88"/><line x1="194.58" y1="218.44" x2="185.09" y2="218.44"/><line x1="194.58" y1="214.88" x2="194.58" y2="218.44"/><line x1="232.53" y1="32.23" x2="238.47" y2="32.23"/><line x1="223.05" y1="22.74" x2="232.53" y2="32.23"/></g><g opacity="0.95"><circle cx="273.45" cy="30.45" r="2.2" fill="#d3b15b"/><circle cx="256.26" cy="188.79" r="2.2" fill="#d3b15b"/><circle cx="246.77" cy="22.74" r="2.2" fill="#d3b15b"/><circle cx="175.6" cy="117.63" r="2.2" fill="#d3b15b"/><circle cx="303.7" cy="108.14" r="2.2" fill="#d3b15b"/><circle cx="189.84" cy="216.66" r="2.2" fill="#d3b15b"/><circle cx="199.33" cy="34.6" r="2.2" fill="#d3b15b"/><circle cx="246.77" cy="214.88" r="3.2" fill="#b7493c"/><circle cx="201.7" cy="32.23" r="2.2" fill="#d3b15b"/><circle cx="100.88" cy="184.05" r="3.2" fill="#b7493c"/><circle cx="271.67" cy="104.58" r="2.2" fill="#d3b15b"/><circle cx="276.42" cy="96.28" r="2.2" fill="#d3b15b"/><circle cx="324.45" cy="146.09" r="2.2" fill="#d3b15b"/><circle cx="272.86" cy="58.33" r="2.2" fill="#d3b15b"/><circle cx="137.65" cy="117.63" r="2.2" fill="#d3b15b"/><circle cx="95.55" cy="117.63" r="2.2" fill="#d3b15b"/><circle cx="232.53" cy="163.88" r="2.2" fill="#d3b15b"/><circle cx="240.84" cy="133.05" r="2.2" fill="#d3b15b"/><circle cx="240.84" cy="142.53" r="2.2" fill="#d3b15b"/><circle cx="240.84" cy="152.02" r="2.2" fill="#d3b15b"/><circle cx="218.3" cy="204.8" r="2.2" fill="#d3b15b"/><circle cx="218.3" cy="210.14" r="2.2" fill="#d3b15b"/><circle cx="303.7" cy="146.09" r="2.2" fill="#d3b15b"/><circle cx="246.77" cy="32.23" r="2.2" fill="#d3b15b"/><circle cx="246.77" cy="39.35" r="2.2" fill="#d3b15b"/><circle cx="246.77" cy="46.47" r="2.2" fill="#d3b15b"/><circle cx="246.77" cy="53.58" r="2.2" fill="#d3b15b"/><circle cx="123.42" cy="131.86" r="2.2" fill="#d3b15b"/><circle cx="123.42" cy="165.07" r="2.2" fill="#d3b15b"/><circle cx="189.84" cy="197.09" r="3.2" fill="#b7493c"/><circle cx="207.63" cy="197.09" r="3.2" fill="#b7493c"/><circle cx="201.7" cy="197.09" r="3.2" fill="#b7493c"/><circle cx="195.77" cy="197.09" r="3.2" fill="#b7493c"/><circle cx="123.42" cy="103.4" r="2.2" fill="#d3b15b"/><circle cx="196.95" cy="210.14" r="2.2" fill="#d3b15b"/><circle cx="182.72" cy="210.14" r="2.2" fill="#d3b15b"/><circle cx="276.42" cy="102.21" r="2.2" fill="#d3b15b"/><circle cx="291.84" cy="34.6" r="3.2" fill="#b7493c"/><circle cx="302.51" cy="108.14" r="3.2" fill="#b7493c"/><circle cx="104.44" cy="44.09" r="3.2" fill="#b7493c"/><circle cx="247.95" cy="217.26" r="2.2" fill="#d3b15b"/><circle cx="189.84" cy="212.51" r="3.2" fill="#b7493c"/><circle cx="320.3" cy="146.09" r="3.2" fill="#b7493c"/><circle cx="218.3" cy="27.49" r="3.2" fill="#b7493c"/><circle cx="131.72" cy="200.65" r="2.2" fill="#d3b15b"/></g></svg>