<svg xmlns="http://www.w3.org/2000/svg" viewBox="0 0 420 240" role="img"><rect width="100%" height="100%" fill="#070706"/><g stroke="#5e5a4f" stroke-width="1.6" stroke-linecap="round"><line x1="216.87" y1="141.58" x2="218.83" y2="141.58"/><line x1="216.87" y1="98.42" x2="216.87" y2="96.46"/><line x1="207.06" y1="141.58" x2="207.06" y2="146.48"/><line x1="152.63" y1="136.18" x2="153.12" y2="139.62"/><line x1="228.63" y1="91.56" x2="228.63" y2="90.58"/><line x1="205.1" y1="141.58" x2="207.06" y2="141.58"/><line x1="163.9" y1="153.35" x2="167.34" y2="156.78"/><line x1="156.55" y1="147.95" x2="161.45" y2="150.89"/><line x1="161.45" y1="150.89" x2="163.9" y2="153.35"/><line x1="153.12" y1="141.58" x2="155.08" y2="145.99"/><line x1="170.77" y1="158.25" x2="177.14" y2="158.74"/><line x1="159.98" y1="93.52" x2="157.53" y2="96.46"/><line x1="177.14" y1="158.74" x2="180.58" y2="157.76"/><line x1="162.92" y1="88.13" x2="159.98" y2="93.52"/><line x1="209.02" y1="141.58" x2="209.02" y2="146.48"/><line x1="154.1" y1="130.79" x2="152.63" y2="136.18"/><line x1="189.4" y1="146.48" x2="189.4" y2="142.56"/><line x1="207.06" y1="141.58" x2="209.02" y2="141.58"/><line x1="209.02" y1="141.58" x2="210.98" y2="141.58"/><line x1="230.6" y1="109.7" x2="241.38" y2="109.7"/><line x1="247.27" y1="84.69" x2="247.27" y2="94.5"/><line x1="210.98" y1="141.58" x2="212.94" y2="141.58"/><line x1="224.71" y1="150.4" x2="218.83" y2="150.4"/><line x1="189.4" y1="147.46" x2="189.4" y2="146.48"/><line x1="155.57" y1="125.88" x2="154.1" y2="130.79"/><line x1="210.98" y1="141.58" x2="210.98" y2="146.48"/><line x1="155.08" y1="145.99" x2="156.55" y2="147.95"/><line x1="212.94" y1="141.58" x2="214.9" y2="141.58"/><line x1="214.9" y1="141.58" x2="216.87" y2="141.58"/><line x1="196.27" y1="139.13" x2="198.23" y2="139.13"/><line x1="205.1" y1="141.58" x2="205.1" y2="146.48"/><line x1="214.9" y1="141.58" x2="214.9" y2="146.48"/><line x1="225.69" y1="101.37" x2="225.69" y2="103.33"/><line x1="189.4" y1="142.56" x2="189.4" y2="141.58"/><line x1="211.72" y1="114.61" x2="211.72" y2="117.55"/><line x1="175.18" y1="141.33" x2="175.18" y2="128.09"/><line x1="216.87" y1="146.48" x2="214.9" y2="146.48"/><line x1="197.25" y1="148.44" x2="191.37" y2="148.44"/><line x1="214.9" y1="146.48" x2="212.94" y2="146.48"/><line x1="212.94" y1="146.48" x2="210.98" y2="146.48"/><line x1="212.7" y1="117.55" x2="212.7" y2="114.61"/><line x1="203.13" y1="141.58" x2="203.13" y2="146.48"/><line x1="167.34" y1="156.78" x2="170.77" y2="158.25"/><line x1="210.98" y1="146.48" x2="209.02" y2="146.48"/><line x1="237.46" y1="135.69" x2="232.56" y2="135.69"/><line x1="192.35" y1="139.13" x2="194.31" y2="139.13"/><line x1="201.17" y1="141.58" x2="201.17" y2="146.48"/><line x1="209.02" y1="146.48" x2="207.06" y2="146.48"/><line x1="237.95" y1="132.75" x2="232.07" y2="132.75"/><line x1="218.83" y1="135.69" x2="219.81" y2="135.69"/><line x1="224.71" y1="135.69" x2="224.71" y2="150.4"/><line x1="215.39" y1="110.44" x2="213.43" y2="110.44"/><line x1="215.39" y1="114.12" x2="215.39" y2="110.68"/><line x1="205.59" y1="108.23" x2="205.59" y2="109.21"/><line x1="153.12" y1="139.62" x2="153.12" y2="141.58"/><line x1="191.09" y1="81.26" x2="192.07" y2="81.26"/><line x1="198.23" y1="152.37" x2="201.17" y2="153.35"/><line x1="217.36" y1="75.38" x2="206.57" y2="75.38"/><line x1="230.6" y1="84.69" x2="230.6" y2="80.77"/><line x1="240.4" y1="130.3" x2="229.62" y2="130.3"/><line x1="218.83" y1="148.44" x2="218.83" y2="146.48"/><line x1="233.54" y1="80.77" x2="233.54" y2="83.71"/><line x1="245.31" y1="159.23" x2="249.23" y2="159.72"/><line x1="234.52" y1="80.77" x2="234.52" y2="82.73"/><line x1="234.52" y1="82.73" x2="241.38" y2="82.73"/><line x1="212.94" y1="141.58" x2="212.94" y2="146.48"/><line x1="218.83" y1="141.58" x2="218.83" y2="146.48"/><line x1="207.06" y1="146.48" x2="205.1" y2="146.48"/><line x1="205.1" y1="146.48" x2="203.13" y2="146.48"/><line x1="233.54" y1="83.71" x2="241.38" y2="83.71"/><line x1="211.96" y1="87.63" x2="211.96" y2="91.56"/><line x1="244.33" y1="112.15" x2="244.33" y2="127.85"/><line x1="239.42" y1="159.72" x2="245.31" y2="159.23"/><line x1="223.24" y1="126.87" x2="222.75" y2="126.38"/><line x1="215.88" y1="87.63" x2="215.88" y2="91.56"/><line x1="177.63" y1="69" x2="174.69" y2="69"/><line x1="183.03" y1="69.98" x2="179.6" y2="69.98"/><line x1="166.85" y1="83.22" x2="162.92" y2="88.13"/><line x1="214.9" y1="87.63" x2="213.92" y2="87.63"/><line x1="206.57" y1="75.38" x2="205.1" y2="74.88"/><line x1="229.62" y1="86.65" x2="229.62" y2="94.5"/><line x1="170.77" y1="72.92" x2="166.85" y2="83.22"/><line x1="258.06" y1="157.76" x2="262.47" y2="156.78"/><line x1="262.47" y1="156.78" x2="264.92" y2="155.8"/><line x1="264.92" y1="155.8" x2="266.88" y2="153.84"/><line x1="266.88" y1="153.84" x2="268.36" y2="151.38"/><line x1="268.36" y1="151.38" x2="268.85" y2="148.93"/><line x1="268.85" y1="148.93" x2="267.87" y2="136.18"/><line x1="327.69" y1="33.69" x2="327.69" y2="206.31"/><line x1="267.87" y1="136.18" x2="267.87" y2="134.22"/><line x1="267.87" y1="134.22" x2="268.85" y2="126.38"/><line x1="268.85" y1="126.38" x2="267.87" y2="117.55"/><line x1="267.87" y1="117.55" x2="267.87" y2="105.78"/><line x1="179.6" y1="69.98" x2="177.63" y2="69"/><line x1="215.88" y1="114.12" x2="215.64" y2="114.12"/><line x1="268.85" y1="98.91" x2="265.9" y2="92.05"/><line x1="265.9" y1="92.05" x2="261" y2="88.13"/><line x1="267.87" y1="105.78" x2="268.85" y2="98.91"/><line x1="261" y1="88.13" x2="258.06" y2="82.24"/><line x1="214.9" y1="87.63" x2="214.9" y2="91.56"/><line x1="176.16" y1="98.42" x2="176.65" y2="98.91"/><line x1="213.92" y1="87.63" x2="212.94" y2="87.63"/><line x1="92.31" y1="33.69" x2="327.69" y2="33.69"/><line x1="210.98" y1="87.63" x2="210.98" y2="91.56"/><line x1="230.6" y1="106.27" x2="241.38" y2="106.27"/><line x1="212.94" y1="118.04" x2="212.94" y2="114.12"/><line x1="241.38" y1="104.31" x2="230.6" y2="104.31"/><line x1="205.1" y1="113.63" x2="210.98" y2="113.63"/><line x1="241.38" y1="102.35" x2="230.6" y2="102.35"/><line x1="213.43" y1="110.68" x2="215.39" y2="110.68"/><line x1="205.59" y1="113.38" x2="210.49" y2="113.38"/><line x1="241.38" y1="100.38" x2="230.6" y2="100.38"/><line x1="206.81" y1="100.88" x2="206.81" y2="100.63"/><line x1="217.85" y1="114.61" x2="223.73" y2="114.61"/><line x1="154.59" y1="102.84" x2="152.63" y2="106.76"/><line x1="157.04" y1="100.38" x2="154.59" y2="102.84"/><line x1="203.13" y1="141.58" x2="205.1" y2="141.58"/><line x1="216.87" y1="108.23" x2="216.87" y2="106.27"/><line x1="182.05" y1="79.79" x2="181.56" y2="79.3"/><line x1="189.4" y1="141.09" x2="189.4" y2="139.13"/><line x1="216.87" y1="141.58" x2="216.87" y2="146.48"/><line x1="189.4" y1="139.13" x2="191.37" y2="139.13"/><line x1="154.59" y1="119.02" x2="155.57" y2="122.94"/><line x1="211.96" y1="91.56" x2="212.94" y2="91.56"/><line x1="152.63" y1="106.76" x2="152.63" y2="114.61"/><line x1="155.57" y1="122.94" x2="155.57" y2="125.88"/><line x1="152.63" y1="114.61" x2="154.59" y2="119.02"/><line x1="214.9" y1="91.56" x2="215.88" y2="91.56"/><line x1="222.75" y1="127.36" x2="223.24" y2="126.87"/><line x1="211.47" y1="70.47" x2="208.04" y2="70.47"/><line x1="327.69" y1="206.31" x2="92.31" y2="206.31"/><line x1="92.31" y1="206.31" x2="92.31" y2="33.69"/><line x1="226.18" y1="159.72" x2="233.54" y2="159.23"/><line x1="184.99" y1="157.27" x2="189.89" y2="157.76"/><line x1="188.42" y1="68.51" x2="183.03" y2="69.98"/><line x1="189.89" y1="157.76" x2="192.35" y2="157.76"/><line x1="192.35" y1="157.76" x2="195.78" y2="158.74"/><line x1="200.19" y1="158.74" x2="205.1" y2="159.72"/><line x1="195.78" y1="158.74" x2="200.19" y2="158.74"/><line x1="205.1" y1="159.72" x2="210.49" y2="161.19"/><line x1="210.49" y1="161.19" x2="214.9" y2="161.68"/><line x1="221.28" y1="161.19" x2="226.18" y2="159.72"/><line x1="214.9" y1="161.68" x2="221.28" y2="161.19"/><line x1="222.26" y1="126.87" x2="222.75" y2="127.36"/><line x1="176.16" y1="84.69" x2="174.69" y2="86.16"/><line x1="249.23" y1="69.49" x2="243.84" y2="68.51"/><line x1="253.64" y1="73.9" x2="250.21" y2="70.47"/><line x1="256.1" y1="77.34" x2="253.64" y2="73.9"/><line x1="258.06" y1="82.24" x2="256.1" y2="77.34"/><line x1="157.53" y1="96.46" x2="157.04" y2="100.38"/><line x1="233.54" y1="159.23" x2="239.42" y2="159.72"/><line x1="228.63" y1="89.6" x2="228.63" y2="88.62"/><line x1="249.23" y1="159.72" x2="254.13" y2="159.23"/><line x1="254.13" y1="159.23" x2="258.06" y2="157.76"/><line x1="204.36" y1="95.02" x2="204.18" y2="94.84"/><line x1="174.69" y1="69" x2="170.77" y2="72.92"/><line x1="180.58" y1="157.76" x2="184.99" y2="157.27"/><line x1="228.63" y1="90.58" x2="228.63" y2="89.6"/><line x1="201.17" y1="147.46" x2="189.4" y2="147.46"/><line x1="191.37" y1="152.37" x2="197.25" y2="152.37"/><line x1="212.94" y1="120.98" x2="212.94" y2="129.32"/><line x1="178.62" y1="104.31" x2="178.62" y2="120"/><line x1="180.58" y1="105.29" x2="180.58" y2="119.02"/><line x1="182.54" y1="105.29" x2="182.54" y2="119.02"/><line x1="192.35" y1="105.29" x2="192.35" y2="111.66"/><line x1="192.35" y1="113.63" x2="192.35" y2="119.02"/><line x1="202.15" y1="114.12" x2="202.15" y2="118.04"/><line x1="192.35" y1="111.66" x2="190.38" y2="111.66"/><line x1="201.66" y1="119.02" x2="193.33" y2="119.02"/><line x1="184.5" y1="104.31" x2="190.38" y2="104.31"/><line x1="198.72" y1="104.31" x2="201.17" y2="103.33"/><line x1="195.78" y1="104.31" x2="198.72" y2="104.31"/><line x1="217.85" y1="109.7" x2="224.71" y2="109.7"/><line x1="218.34" y1="94.99" x2="217.85" y2="94.99"/><line x1="216.87" y1="84.69" x2="216.87" y2="80.77"/><line x1="156.55" y1="134.22" x2="155.57" y2="135.2"/><line x1="161.45" y1="116.57" x2="160.47" y2="121.47"/><line x1="210.98" y1="92.54" x2="210.98" y2="91.56"/><line x1="218.34" y1="94.99" x2="218.34" y2="92.05"/><line x1="190.38" y1="113.63" x2="192.35" y2="113.63"/><line x1="162.43" y1="106.76" x2="163.41" y2="110.68"/><line x1="193.33" y1="97.44" x2="195.78" y2="98.42"/><line x1="195.78" y1="98.42" x2="198.72" y2="98.42"/><line x1="198.72" y1="98.42" x2="201.17" y2="97.44"/><line x1="162.43" y1="114.12" x2="161.45" y2="116.57"/><line x1="193.33" y1="98.42" x2="195.78" y2="99.4"/><line x1="195.78" y1="99.4" x2="198.72" y2="99.4"/><line x1="198.72" y1="99.4" x2="201.17" y2="98.42"/><line x1="193.33" y1="99.4" x2="195.78" y2="100.38"/><line x1="195.78" y1="100.38" x2="198.72" y2="100.38"/><line x1="198.72" y1="100.38" x2="201.17" y2="99.4"/><line x1="193.33" y1="100.38" x2="195.78" y2="101.37"/><line x1="195.78" y1="101.37" x2="198.72" y2="101.37"/><line x1="198.72" y1="101.37" x2="201.17" y2="100.38"/><line x1="193.33" y1="101.37" x2="195.78" y2="102.35"/><line x1="195.78" y1="102.35" x2="198.72" y2="102.35"/><line x1="198.72" y1="102.35" x2="201.17" y2="101.37"/><line x1="193.33" y1="102.35" x2="195.78" y2="103.33"/><line x1="195.78" y1="103.33" x2="198.72" y2="103.33"/><line x1="198.72" y1="103.33" x2="201.17" y2="102.35"/><line x1="193.33" y1="103.33" x2="195.78" y2="104.31"/><line x1="147.72" y1="113.13" x2="147.23" y2="118.04"/><line x1="244.33" y1="84.69" x2="244.33" y2="94.5"/><line x1="177.63" y1="85.67" x2="181.56" y2="85.67"/><line x1="192.84" y1="80.77" x2="192.35" y2="80.77"/><line x1="159.98" y1="93.52" x2="159.49" y2="97.93"/><line x1="193.33" y1="105.29" x2="201.17" y2="105.29"/><line x1="186.46" y1="80.77" x2="186.46" y2="76.85"/><line x1="187.44" y1="80.77" x2="186.46" y2="80.77"/><line x1="187.44" y1="80.77" x2="187.44" y2="76.85"/><line x1="188.42" y1="80.77" x2="187.44" y2="80.77"/><line x1="188.42" y1="80.77" x2="188.42" y2="76.85"/><line x1="186.46" y1="80.77" x2="181.56" y2="85.67"/><line x1="159.98" y1="100.88" x2="160.96" y2="102.84"/><line x1="192.84" y1="81.26" x2="192.84" y2="80.77"/><line x1="159.49" y1="97.93" x2="159.98" y2="100.88"/><line x1="219.81" y1="134.71" x2="223.73" y2="134.71"/><line x1="181.56" y1="85.67" x2="181.56" y2="86.65"/><line x1="177.63" y1="86.65" x2="181.56" y2="86.65"/><line x1="181.56" y1="86.65" x2="181.56" y2="87.63"/><line x1="177.63" y1="87.63" x2="181.56" y2="87.63"/><line x1="181.56" y1="87.63" x2="181.56" y2="88.62"/><line x1="255.12" y1="71.45" x2="250.21" y2="70.47"/><line x1="177.63" y1="88.62" x2="181.56" y2="88.62"/><line x1="181.56" y1="88.62" x2="181.56" y2="89.6"/><line x1="250.21" y1="70.47" x2="249.23" y2="69.49"/><line x1="177.63" y1="89.6" x2="181.56" y2="89.6"/><line x1="189.4" y1="80.77" x2="188.42" y2="80.77"/><line x1="189.4" y1="80.77" x2="189.4" y2="76.85"/><line x1="190.38" y1="80.77" x2="189.4" y2="80.77"/><line x1="190.38" y1="80.77" x2="190.38" y2="76.85"/><line x1="262.96" y1="74.39" x2="255.12" y2="71.45"/><line x1="265.9" y1="76.36" x2="262.96" y2="74.39"/><line x1="181.56" y1="89.6" x2="183.52" y2="89.6"/><line x1="183.52" y1="89.6" x2="183.52" y2="91.56"/><line x1="183.52" y1="95.48" x2="183.52" y2="91.56"/><line x1="183.52" y1="91.56" x2="184.5" y2="91.56"/><line x1="266.88" y1="83.22" x2="265.9" y2="76.36"/><line x1="184.5" y1="95.48" x2="184.5" y2="91.56"/><line x1="184.5" y1="91.56" x2="185.48" y2="91.56"/><line x1="270.81" y1="87.14" x2="266.88" y2="83.22"/><line x1="185.48" y1="95.48" x2="185.48" y2="91.56"/><line x1="185.48" y1="91.56" x2="186.46" y2="91.56"/><line x1="273.75" y1="90.09" x2="270.81" y2="87.14"/><line x1="186.46" y1="95.48" x2="186.46" y2="91.56"/><line x1="159" y1="132.26" x2="156.55" y2="134.22"/><line x1="160.47" y1="125.88" x2="159" y2="132.26"/><line x1="160.47" y1="121.47" x2="160.47" y2="125.88"/><line x1="191.37" y1="80.77" x2="190.38" y2="80.77"/><line x1="191.37" y1="80.77" x2="191.37" y2="76.85"/><line x1="192.35" y1="80.77" x2="191.37" y2="80.77"/><line x1="174.69" y1="96.95" x2="176.16" y2="98.42"/><line x1="192.35" y1="80.77" x2="192.35" y2="76.85"/><line x1="247.27" y1="141.58" x2="247.27" y2="140.84"/><line x1="247.27" y1="145.5" x2="247.27" y2="141.58"/><line x1="202.15" y1="120.98" x2="202.15" y2="129.32"/><line x1="247.27" y1="140.84" x2="247.27" y2="140.6"/><line x1="203.13" y1="120.98" x2="203.13" y2="129.32"/><line x1="204.12" y1="120.98" x2="204.12" y2="129.32"/><line x1="246.29" y1="140.84" x2="246.29" y2="145.25"/><line x1="205.1" y1="120.98" x2="205.1" y2="129.32"/><line x1="216.87" y1="123.43" x2="216.87" y2="115.59"/><line x1="237.46" y1="134.71" x2="232.56" y2="134.71"/><line x1="215.64" y1="114.12" x2="215.39" y2="114.12"/><line x1="223.73" y1="114.61" x2="224.71" y2="113.63"/><line x1="224.71" y1="113.63" x2="224.71" y2="110.68"/><line x1="246.78" y1="140.84" x2="246.78" y2="145.25"/><line x1="206.08" y1="120.98" x2="206.08" y2="129.32"/><line x1="245.31" y1="140.6" x2="245.31" y2="145.5"/><line x1="207.06" y1="120.98" x2="207.06" y2="129.32"/><line x1="208.04" y1="120.98" x2="208.04" y2="129.32"/><line x1="209.02" y1="120.98" x2="209.02" y2="129.32"/><line x1="241.38" y1="135.69" x2="241.38" y2="150.4"/><line x1="243.35" y1="137.65" x2="243.35" y2="148.44"/><line x1="210" y1="120.98" x2="210" y2="129.32"/><line x1="249.23" y1="139.62" x2="249.23" y2="131.77"/><line x1="249.23" y1="131.77" x2="247.27" y2="129.81"/><line x1="210.98" y1="120.98" x2="210.98" y2="129.32"/><line x1="247.27" y1="141.58" x2="249.23" y2="139.62"/><line x1="211.96" y1="120.98" x2="211.96" y2="129.32"/><line x1="176.65" y1="102.35" x2="176.65" y2="121.96"/><line x1="204.12" y1="114.12" x2="204.12" y2="118.04"/><line x1="224.71" y1="84.69" x2="224.71" y2="80.77"/><line x1="204.61" y1="108.23" x2="204.61" y2="109.21"/><line x1="204.61" y1="109.21" x2="205.59" y2="109.21"/><line x1="205.59" y1="108.23" x2="204.61" y2="108.23"/><line x1="228.63" y1="84.69" x2="228.63" y2="80.77"/><line x1="226.67" y1="84.69" x2="226.67" y2="80.77"/><line x1="228.63" y1="92.54" x2="228.63" y2="91.56"/><line x1="212.94" y1="87.63" x2="211.96" y2="87.63"/><line x1="216.87" y1="87.63" x2="216.87" y2="91.56"/><line x1="243.84" y1="68.51" x2="237.95" y2="69.49"/><line x1="216.87" y1="87.63" x2="223.98" y2="87.63"/><line x1="213.92" y1="87.63" x2="213.92" y2="91.56"/><line x1="215.88" y1="87.63" x2="214.9" y2="87.63"/><line x1="217.85" y1="91.56" x2="216.87" y2="91.56"/><line x1="216.87" y1="87.63" x2="215.88" y2="87.63"/><line x1="216.87" y1="87.14" x2="216.87" y2="87.63"/><line x1="215.88" y1="91.56" x2="216.87" y2="91.56"/><line x1="216.87" y1="91.56" x2="216.87" y2="92.05"/><line x1="218.34" y1="92.05" x2="217.85" y2="91.56"/><line x1="224.22" y1="94.99" x2="218.34" y2="94.99"/><line x1="223.98" y1="87.63" x2="224.22" y2="87.88"/><line x1="224.71" y1="94.99" x2="224.22" y2="94.99"/><line x1="224.22" y1="87.88" x2="224.22" y2="94.99"/><line x1="218.83" y1="140.6" x2="218.83" y2="139.62"/><line x1="174.69" y1="86.16" x2="174.69" y2="96.95"/><line x1="176.65" y1="84.2" x2="176.16" y2="84.69"/><line x1="219.81" y1="135.69" x2="223.73" y2="135.69"/><line x1="219.81" y1="135.69" x2="219.81" y2="134.71"/><line x1="218.83" y1="141.58" x2="218.83" y2="140.6"/><line x1="223.73" y1="135.69" x2="224.71" y2="135.69"/><line x1="223.73" y1="134.71" x2="223.73" y2="135.69"/><line x1="217.85" y1="109.7" x2="217.85" y2="96.46"/><line x1="204.12" y1="110.68" x2="203.13" y2="110.19"/><line x1="202.89" y1="109.7" x2="202.89" y2="107.74"/><line x1="203.13" y1="110.19" x2="202.89" y2="109.7"/><line x1="212.94" y1="87.63" x2="212.94" y2="91.56"/><line x1="220.79" y1="84.69" x2="220.79" y2="80.77"/><line x1="216.87" y1="104.31" x2="216.87" y2="100.38"/><line x1="152.63" y1="106.76" x2="150.66" y2="108.72"/><line x1="150.66" y1="108.72" x2="147.23" y2="110.68"/><line x1="222.75" y1="84.69" x2="222.75" y2="80.77"/><line x1="144.78" y1="116.57" x2="143.31" y2="120.98"/><line x1="225.69" y1="104.31" x2="225.69" y2="108.23"/><line x1="225.69" y1="96.46" x2="225.69" y2="100.38"/><line x1="210.98" y1="91.56" x2="211.96" y2="91.56"/><line x1="143.31" y1="120.98" x2="145.27" y2="128.34"/><line x1="145.76" y1="112.15" x2="144.78" y2="116.57"/><line x1="211.96" y1="87.63" x2="210.98" y2="87.63"/><line x1="147.23" y1="110.68" x2="145.76" y2="112.15"/><line x1="148.7" y1="110.68" x2="147.72" y2="113.13"/><line x1="150.66" y1="108.72" x2="148.7" y2="110.68"/><line x1="217.85" y1="124.41" x2="216.87" y2="123.43"/><line x1="223.73" y1="124.41" x2="217.85" y2="124.41"/><line x1="224.71" y1="125.39" x2="223.73" y2="124.41"/><line x1="224.71" y1="129.32" x2="224.71" y2="125.39"/><line x1="217.85" y1="129.81" x2="213.92" y2="129.81"/><line x1="213.92" y1="130.3" x2="217.85" y2="130.3"/><line x1="210.98" y1="150.4" x2="209.02" y2="150.4"/><line x1="210.98" y1="148.44" x2="209.02" y2="148.44"/><line x1="212.94" y1="91.56" x2="213.92" y2="91.56"/><line x1="213.92" y1="91.56" x2="214.9" y2="91.56"/><line x1="214.9" y1="84.69" x2="214.9" y2="80.77"/><line x1="212.94" y1="84.69" x2="212.94" y2="80.77"/><line x1="202.89" y1="107.74" x2="203.13" y2="107.25"/><line x1="217.85" y1="96.46" x2="218.34" y2="95.97"/><line x1="242.37" y1="112.64" x2="241.88" y2="113.13"/><line x1="241.38" y1="113.63" x2="241.38" y2="126.38"/><line x1="241.38" y1="126.38" x2="241.88" y2="126.87"/><line x1="242.37" y1="127.36" x2="242.86" y2="127.85"/><line x1="204.12" y1="69.98" x2="200.19" y2="69"/><line x1="192.35" y1="67.53" x2="188.42" y2="68.51"/><line x1="200.19" y1="69" x2="196.27" y2="67.53"/><line x1="196.27" y1="67.53" x2="192.35" y2="67.53"/><line x1="208.04" y1="70.47" x2="204.12" y2="69.98"/><line x1="242.86" y1="127.85" x2="242.86" y2="130.3"/><line x1="242.37" y1="127.36" x2="242.37" y2="130.3"/><line x1="241.88" y1="126.87" x2="242.37" y2="127.36"/><line x1="241.88" y1="126.87" x2="241.88" y2="130.3"/><line x1="241.38" y1="126.38" x2="241.38" y2="130.3"/><line x1="218.83" y1="74.88" x2="205.1" y2="74.88"/><line x1="242.86" y1="112.15" x2="242.37" y2="112.64"/><line x1="242.86" y1="109.7" x2="242.86" y2="112.15"/><line x1="242.37" y1="109.7" x2="242.37" y2="112.64"/><line x1="241.88" y1="113.13" x2="241.38" y2="113.63"/><line x1="241.38" y1="109.7" x2="241.38" y2="113.63"/><line x1="176.16" y1="143.05" x2="176.65" y2="143.54"/><line x1="237.95" y1="133.73" x2="232.07" y2="133.73"/><line x1="155.57" y1="135.2" x2="153.12" y2="139.62"/><line x1="151.64" y1="133.73" x2="152.63" y2="136.18"/><line x1="148.7" y1="127.36" x2="151.15" y2="131.77"/><line x1="147.23" y1="120.98" x2="148.7" y2="127.36"/><line x1="147.23" y1="118.04" x2="147.23" y2="120.98"/><line x1="241.88" y1="109.7" x2="241.88" y2="113.13"/><line x1="206.57" y1="75.38" x2="204.85" y2="75.38"/><line x1="217.36" y1="75.38" x2="215.88" y2="75.87"/><line x1="183.52" y1="152.37" x2="186.46" y2="153.35"/><line x1="187.44" y1="153.35" x2="190.38" y2="152.37"/><line x1="186.46" y1="153.35" x2="187.44" y2="153.35"/><line x1="202.15" y1="153.35" x2="205.1" y2="152.37"/><line x1="181.56" y1="79.3" x2="181.07" y2="79.79"/><line x1="201.17" y1="153.35" x2="202.15" y2="153.35"/><line x1="218.83" y1="146.48" x2="216.87" y2="146.48"/><line x1="211.47" y1="114.12" x2="211.47" y2="118.04"/><line x1="190.38" y1="120" x2="184.5" y2="120"/><line x1="247.27" y1="110.19" x2="249.23" y2="108.23"/><line x1="249.23" y1="108.23" x2="249.23" y2="100.38"/><line x1="219.07" y1="75.38" x2="217.36" y2="75.38"/><line x1="249.23" y1="100.38" x2="247.27" y2="98.42"/><line x1="192.07" y1="81.26" x2="192.84" y2="81.26"/><line x1="203.38" y1="96.71" x2="205.34" y2="94.75"/><line x1="208.04" y1="75.87" x2="206.57" y2="75.38"/><line x1="219.81" y1="74.88" x2="218.83" y2="74.88"/><line x1="195.29" y1="74.88" x2="192.35" y2="75.87"/><line x1="222.75" y1="75.87" x2="219.81" y2="74.88"/><line x1="196.27" y1="74.88" x2="195.29" y2="74.88"/><line x1="199.21" y1="75.87" x2="196.27" y2="74.88"/><line x1="181.56" y1="80.28" x2="182.05" y2="79.79"/><line x1="186.46" y1="74.88" x2="183.52" y2="75.87"/><line x1="204.12" y1="74.88" x2="201.17" y2="75.87"/><line x1="187.44" y1="74.88" x2="186.46" y2="74.88"/><line x1="205.1" y1="74.88" x2="204.12" y2="74.88"/><line x1="190.38" y1="75.87" x2="187.44" y2="74.88"/><line x1="218.83" y1="74.88" x2="217.36" y2="75.38"/><line x1="236.48" y1="74.88" x2="233.54" y2="75.87"/><line x1="237.46" y1="74.88" x2="236.48" y2="74.88"/><line x1="240.4" y1="75.87" x2="237.46" y2="74.88"/><line x1="227.65" y1="74.88" x2="224.71" y2="75.87"/><line x1="228.63" y1="74.88" x2="227.65" y2="74.88"/><line x1="231.58" y1="75.87" x2="228.63" y2="74.88"/><line x1="237.46" y1="153.35" x2="240.4" y2="152.37"/><line x1="236.48" y1="153.35" x2="237.46" y2="153.35"/><line x1="233.54" y1="152.37" x2="236.48" y2="153.35"/><line x1="228.63" y1="153.35" x2="231.58" y2="152.37"/><line x1="227.65" y1="153.35" x2="228.63" y2="153.35"/><line x1="224.71" y1="152.37" x2="227.65" y2="153.35"/><line x1="219.81" y1="153.35" x2="222.75" y2="152.37"/><line x1="218.83" y1="153.35" x2="219.81" y2="153.35"/><line x1="215.88" y1="152.37" x2="218.83" y2="153.35"/><line x1="210.98" y1="153.35" x2="213.92" y2="152.37"/><line x1="210" y1="153.35" x2="210.98" y2="153.35"/><line x1="207.06" y1="152.37" x2="210" y2="153.35"/><line x1="181.07" y1="79.79" x2="181.56" y2="80.28"/><line x1="237.95" y1="69.49" x2="229.13" y2="69.98"/><line x1="224.22" y1="69.49" x2="216.38" y2="69.98"/><line x1="229.13" y1="69.98" x2="224.22" y2="69.49"/><line x1="216.38" y1="69.98" x2="211.47" y2="70.47"/><line x1="209.02" y1="152.37" x2="210.98" y2="152.37"/><line x1="176.65" y1="127.85" x2="176.65" y2="141.58"/><line x1="177.14" y1="128.34" x2="177.14" y2="141.09"/><line x1="246.29" y1="84.69" x2="246.29" y2="94.5"/><line x1="242.37" y1="84.69" x2="242.37" y2="94.5"/><line x1="204.61" y1="94.01" x2="202.64" y2="95.97"/><line x1="203.47" y1="95.54" x2="203.66" y2="95.73"/><line x1="205.1" y1="94.5" x2="203.13" y2="96.46"/><line x1="207.79" y1="96.22" x2="207.79" y2="100.14"/><line x1="243.35" y1="84.69" x2="243.35" y2="94.5"/><line x1="186.46" y1="141.58" x2="186.46" y2="142.56"/><line x1="182.54" y1="141.58" x2="182.54" y2="140.6"/><line x1="174.69" y1="141.58" x2="176.16" y2="143.05"/><line x1="182.54" y1="139.62" x2="186.46" y2="139.62"/><line x1="186.46" y1="140.6" x2="186.46" y2="141.58"/><line x1="187.44" y1="146.48" x2="187.44" y2="142.56"/><line x1="188.42" y1="146.48" x2="188.42" y2="142.56"/><line x1="182.54" y1="142.56" x2="186.46" y2="142.56"/><line x1="188.42" y1="142.56" x2="189.4" y2="142.56"/><line x1="186.46" y1="139.62" x2="186.46" y2="140.6"/><line x1="186.46" y1="146.48" x2="186.46" y2="142.56"/><line x1="203.87" y1="97.2" x2="205.83" y2="95.24"/><line x1="206.81" y1="100.63" x2="204.85" y2="100.63"/><line x1="204.85" y1="100.63" x2="204.85" y2="100.88"/><line x1="176.65" y1="142.8" x2="175.18" y2="141.33"/><line x1="182.54" y1="142.56" x2="182.54" y2="141.58"/><line x1="182.54" y1="141.58" x2="186.46" y2="141.58"/><line x1="186.46" y1="142.56" x2="187.44" y2="142.56"/><line x1="182.54" y1="140.6" x2="186.46" y2="140.6"/><line x1="187.44" y1="142.56" x2="188.42" y2="142.56"/><line x1="203.66" y1="95.73" x2="204.36" y2="95.02"/><line x1="204.18" y1="94.84" x2="203.47" y2="95.54"/><line x1="245.31" y1="84.69" x2="245.31" y2="94.5"/><line x1="205.34" y1="107.74" x2="205.59" y2="108.23"/><line x1="202.64" y1="106.27" x2="202.64" y2="111.17"/><line x1="218.83" y1="84.69" x2="218.83" y2="80.77"/><line x1="210.98" y1="84.69" x2="210.98" y2="80.77"/><line x1="210.98" y1="87.63" x2="210.98" y2="86.65"/><line x1="279.63" y1="123.43" x2="279.63" y2="119.51"/><line x1="163.41" y1="110.68" x2="162.43" y2="114.12"/><line x1="160.96" y1="102.84" x2="162.43" y2="106.76"/><line x1="247.27" y1="128.34" x2="247.27" y2="111.66"/><line x1="240.4" y1="150.4" x2="230.6" y2="150.4"/><line x1="276.69" y1="113.63" x2="276.69" y2="110.68"/><line x1="276.69" y1="110.68" x2="277.67" y2="106.76"/><line x1="278.65" y1="116.57" x2="276.69" y2="113.63"/><line x1="279.63" y1="119.51" x2="278.65" y2="116.57"/><line x1="204.85" y1="100.88" x2="206.81" y2="100.88"/><line x1="225.45" y1="150.4" x2="225.45" y2="135.69"/><line x1="241.38" y1="84.69" x2="241.38" y2="94.5"/><line x1="216.62" y1="114.12" x2="216.38" y2="114.12"/><line x1="216.38" y1="114.12" x2="216.13" y2="114.12"/><line x1="216.13" y1="114.12" x2="216.13" y2="111.17"/><line x1="216.87" y1="115.59" x2="216.87" y2="114.12"/><line x1="216.13" y1="114.12" x2="215.88" y2="114.12"/><line x1="215.64" y1="114.12" x2="215.64" y2="110.93"/><line x1="216.87" y1="114.12" x2="216.87" y2="110.68"/><line x1="216.38" y1="114.12" x2="216.38" y2="111.17"/><line x1="203.13" y1="107.25" x2="204.12" y2="106.76"/><line x1="215.88" y1="114.12" x2="215.88" y2="111.17"/><line x1="224.71" y1="96.46" x2="224.71" y2="109.7"/><line x1="216.62" y1="114.12" x2="216.62" y2="110.93"/><line x1="216.87" y1="115.59" x2="217.85" y2="114.61"/><line x1="224.22" y1="95.97" x2="224.71" y2="96.46"/><line x1="216.87" y1="114.12" x2="216.62" y2="114.12"/><line x1="217.85" y1="110.68" x2="224.71" y2="110.68"/><line x1="218.34" y1="95.97" x2="224.22" y2="95.97"/><line x1="205.59" y1="109.21" x2="205.34" y2="109.7"/><line x1="277.67" y1="131.28" x2="276.69" y2="127.36"/><line x1="277.67" y1="137.16" x2="277.67" y2="131.28"/><line x1="276.69" y1="140.11" x2="277.67" y2="137.16"/><line x1="274.73" y1="142.07" x2="276.69" y2="140.11"/><line x1="145.27" y1="128.34" x2="147.23" y2="130.79"/><line x1="147.23" y1="130.79" x2="148.7" y2="131.28"/><line x1="151.15" y1="131.77" x2="151.64" y2="133.73"/><line x1="148.7" y1="131.28" x2="151.64" y2="133.73"/><line x1="273.26" y1="143.05" x2="273.75" y2="142.07"/><line x1="273.26" y1="143.05" x2="274.73" y2="142.07"/><line x1="277.67" y1="131.28" x2="278.65" y2="126.38"/><line x1="278.65" y1="126.38" x2="279.63" y2="123.43"/><line x1="275.22" y1="118.53" x2="275.71" y2="114.61"/><line x1="276.69" y1="121.47" x2="275.22" y2="118.53"/><line x1="277.18" y1="123.92" x2="276.69" y2="121.47"/><line x1="276.69" y1="127.36" x2="277.18" y2="123.92"/><line x1="192.35" y1="133.73" x2="198.23" y2="133.73"/><line x1="198.23" y1="133.73" x2="198.23" y2="135.69"/><line x1="198.23" y1="135.69" x2="192.35" y2="135.69"/><line x1="192.35" y1="135.69" x2="192.35" y2="133.73"/><line x1="268.85" y1="148.93" x2="271.79" y2="145.99"/><line x1="271.79" y1="145.99" x2="273.26" y2="143.05"/><line x1="273.75" y1="142.07" x2="274.73" y2="132.26"/><line x1="274.73" y1="132.26" x2="273.75" y2="125.39"/><line x1="273.75" y1="125.39" x2="274.73" y2="121.47"/><line x1="274.73" y1="121.47" x2="275.22" y2="118.53"/><line x1="275.71" y1="114.61" x2="276.69" y2="110.68"/><line x1="277.67" y1="106.76" x2="277.67" y2="100.88"/><line x1="277.67" y1="100.88" x2="276.2" y2="94.99"/><line x1="276.2" y1="94.99" x2="273.75" y2="90.09"/><line x1="191.09" y1="81.26" x2="185.76" y2="91.07"/><line x1="186.74" y1="91.07" x2="192.07" y2="81.26"/><line x1="186.46" y1="91.56" x2="186.95" y2="91.56"/><line x1="186.95" y1="91.56" x2="186.95" y2="91.07"/><line x1="186.95" y1="91.07" x2="186.74" y2="91.07"/><line x1="186.74" y1="91.07" x2="185.76" y2="91.07"/><line x1="185.76" y1="91.07" x2="184.01" y2="91.07"/><line x1="184.01" y1="91.07" x2="184.01" y2="89.11"/><line x1="184.01" y1="89.11" x2="182.05" y2="89.11"/><line x1="182.05" y1="89.11" x2="182.05" y2="85.92"/><line x1="182.05" y1="85.92" x2="186.71" y2="81.26"/><line x1="186.71" y1="81.26" x2="191.09" y2="81.26"/><line x1="199.21" y1="129.81" x2="198.72" y2="129.81"/><line x1="195.78" y1="130.79" x2="195.29" y2="130.79"/><line x1="199.21" y1="130.79" x2="198.72" y2="130.79"/><line x1="199.21" y1="131.77" x2="195.29" y2="131.77"/><line x1="199.21" y1="132.75" x2="195.29" y2="132.75"/><line x1="181.07" y1="138.14" x2="180.58" y2="138.63"/><line x1="174.69" y1="127.85" x2="174.69" y2="141.58"/><line x1="175.18" y1="128.09" x2="176.65" y2="126.62"/><line x1="180.58" y1="138.63" x2="180.58" y2="139.62"/><line x1="176.16" y1="126.38" x2="174.69" y2="127.85"/><line x1="176.65" y1="125.88" x2="176.16" y2="126.38"/><line x1="187.44" y1="137.65" x2="181.56" y2="137.65"/><line x1="181.56" y1="137.65" x2="181.07" y2="138.14"/><line x1="191.37" y1="132.75" x2="191.37" y2="136.67"/><line x1="196.27" y1="130.79" x2="195.78" y2="130.79"/><line x1="195.78" y1="129.81" x2="195.29" y2="129.81"/><line x1="196.76" y1="130.79" x2="196.27" y2="130.79"/><line x1="196.27" y1="129.81" x2="195.78" y2="129.81"/><line x1="195.78" y1="130.79" x2="195.78" y2="129.81"/><line x1="196.76" y1="130.79" x2="196.76" y2="129.81"/><line x1="196.76" y1="129.81" x2="196.27" y2="129.81"/><line x1="196.27" y1="130.79" x2="196.27" y2="129.81"/><line x1="198.72" y1="129.81" x2="198.72" y2="130.79"/><line x1="198.72" y1="129.81" x2="198.23" y2="129.81"/><line x1="198.72" y1="130.79" x2="198.23" y2="130.79"/><line x1="198.23" y1="129.81" x2="198.23" y2="130.79"/><line x1="198.23" y1="129.81" x2="197.74" y2="129.81"/><line x1="198.23" y1="130.79" x2="197.74" y2="130.79"/><line x1="197.74" y1="129.81" x2="197.74" y2="130.79"/><line x1="197.74" y1="129.81" x2="196.76" y2="129.81"/><line x1="197.74" y1="130.79" x2="196.76" y2="130.79"/><line x1="182.54" y1="140.6" x2="182.54" y2="139.62"/><line x1="182.54" y1="146.48" x2="182.54" y2="145.5"/><line x1="183.52" y1="146.48" x2="182.54" y2="146.48"/><line x1="238.44" y1="132.26" x2="231.58" y2="132.26"/><line x1="215.88" y1="127.36" x2="213.43" y2="129.32"/><line x1="218.34" y1="129.32" x2="215.88" y2="127.36"/><line x1="213.43" y1="130.79" x2="215.88" y2="132.75"/><line x1="215.88" y1="132.75" x2="218.34" y2="130.79"/><line x1="190.38" y1="111.66" x2="190.38" y2="113.63"/><line x1="182.54" y1="95.48" x2="178.62" y2="95.48"/><line x1="206.57" y1="79.79" x2="210.49" y2="79.79"/><line x1="206.08" y1="79.79" x2="206.08" y2="80.77"/><line x1="206.08" y1="80.77" x2="210.98" y2="80.77"/><line x1="222.75" y1="126.38" x2="222.26" y2="126.87"/><line x1="222.01" y1="127.6" x2="222.01" y2="126.13"/><line x1="223.49" y1="127.6" x2="222.01" y2="127.6"/><line x1="223.49" y1="126.13" x2="223.49" y2="127.6"/><line x1="222.01" y1="126.13" x2="223.49" y2="126.13"/><line x1="221.77" y1="127.85" x2="221.77" y2="125.88"/><line x1="223.73" y1="127.85" x2="221.77" y2="127.85"/><line x1="208.77" y1="97.69" x2="208.77" y2="98.67"/><line x1="221.77" y1="125.88" x2="223.73" y2="125.88"/><line x1="223.73" y1="125.88" x2="223.73" y2="127.85"/><line x1="188.42" y1="81.75" x2="187.93" y2="82.24"/><line x1="187.93" y1="82.24" x2="188.42" y2="82.73"/><line x1="188.42" y1="82.73" x2="188.91" y2="82.24"/><line x1="188.91" y1="82.24" x2="188.42" y2="81.75"/><line x1="184.5" y1="88.13" x2="184.01" y2="88.62"/><line x1="184.01" y1="88.62" x2="184.5" y2="89.11"/><line x1="184.5" y1="89.11" x2="184.99" y2="88.62"/><line x1="184.99" y1="88.62" x2="184.5" y2="88.13"/><line x1="184.5" y1="84.2" x2="184.01" y2="84.69"/><line x1="184.01" y1="84.69" x2="184.5" y2="85.18"/><line x1="184.5" y1="85.18" x2="184.99" y2="84.69"/><line x1="184.99" y1="84.69" x2="184.5" y2="84.2"/><line x1="194.31" y1="70.96" x2="194.31" y2="72.92"/><line x1="194.31" y1="72.92" x2="196.27" y2="72.92"/><line x1="196.27" y1="72.92" x2="196.27" y2="70.96"/><line x1="196.27" y1="70.96" x2="194.31" y2="70.96"/><line x1="223.73" y1="70.96" x2="223.73" y2="72.92"/><line x1="223.73" y1="72.92" x2="225.69" y2="72.92"/><line x1="225.69" y1="72.92" x2="225.69" y2="70.96"/><line x1="225.69" y1="70.96" x2="223.73" y2="70.96"/><line x1="255.12" y1="116.08" x2="254.41" y2="117.33"/><line x1="255.12" y1="120" x2="256.37" y2="120.7"/><line x1="259.04" y1="120" x2="259.74" y2="118.74"/><line x1="259.04" y1="116.08" x2="257.78" y2="115.37"/><line x1="261" y1="122.45" x2="260.3" y2="123.71"/><line x1="261" y1="126.38" x2="262.26" y2="127.08"/><line x1="264.92" y1="126.38" x2="265.63" y2="125.12"/><line x1="264.92" y1="122.45" x2="263.67" y2="121.75"/><line x1="256.1" y1="128.83" x2="255.39" y2="130.08"/><line x1="256.1" y1="132.75" x2="257.35" y2="133.45"/><line x1="260.02" y1="132.75" x2="260.72" y2="131.49"/><line x1="260.02" y1="128.83" x2="258.76" y2="128.12"/><line x1="257.63" y1="116.02" x2="258.55" y2="116.57"/><line x1="259.1" y1="118.59" x2="258.55" y2="119.51"/><line x1="256.53" y1="120.06" x2="255.61" y2="119.51"/><line x1="255.05" y1="117.49" x2="255.61" y2="116.57"/><line x1="263.51" y1="122.39" x2="264.43" y2="122.94"/><line x1="264.98" y1="124.97" x2="264.43" y2="125.88"/><line x1="262.41" y1="126.44" x2="261.49" y2="125.88"/><line x1="260.94" y1="123.86" x2="261.49" y2="122.94"/><line x1="258.61" y1="128.77" x2="259.53" y2="129.32"/><line x1="260.08" y1="131.34" x2="259.53" y2="132.26"/><line x1="257.51" y1="132.81" x2="256.59" y2="132.26"/><line x1="256.03" y1="130.24" x2="256.59" y2="129.32"/><line x1="256.53" y1="116.02" x2="257.63" y2="116.02"/><line x1="255.61" y1="116.57" x2="256.53" y2="116.02"/><line x1="259.1" y1="117.49" x2="259.1" y2="118.59"/><line x1="258.55" y1="116.57" x2="259.1" y2="117.49"/><line x1="257.63" y1="120.06" x2="256.53" y2="120.06"/><line x1="258.55" y1="119.51" x2="257.63" y2="120.06"/><line x1="255.05" y1="118.59" x2="255.05" y2="117.49"/><line x1="255.61" y1="119.51" x2="255.05" y2="118.59"/><line x1="262.41" y1="122.39" x2="263.51" y2="122.39"/><line x1="261.49" y1="122.94" x2="262.41" y2="122.39"/><line x1="264.98" y1="123.86" x2="264.98" y2="124.97"/><line x1="264.43" y1="122.94" x2="264.98" y2="123.86"/><line x1="263.51" y1="126.44" x2="262.41" y2="126.44"/><line x1="264.43" y1="125.88" x2="263.51" y2="126.44"/><line x1="260.94" y1="124.97" x2="260.94" y2="123.86"/><line x1="261.49" y1="125.88" x2="260.94" y2="124.97"/><line x1="257.51" y1="128.77" x2="258.61" y2="128.77"/><line x1="256.59" y1="129.32" x2="257.51" y2="128.77"/><line x1="260.08" y1="130.24" x2="260.08" y2="131.34"/><line x1="259.53" y1="129.32" x2="260.08" y2="130.24"/><line x1="258.61" y1="132.81" x2="257.51" y2="132.81"/><line x1="259.53" y1="132.26" x2="258.61" y2="132.81"/><line x1="256.03" y1="131.34" x2="256.03" y2="130.24"/><line x1="256.59" y1="132.26" x2="256.03" y2="131.34"/><line x1="254.41" y1="117.33" x2="254.41" y2="118.74"/><line x1="254.41" y1="118.74" x2="255.12" y2="120"/><line x1="256.37" y1="120.7" x2="257.78" y2="120.7"/><line x1="257.78" y1="120.7" x2="259.04" y2="120"/><line x1="259.74" y1="118.74" x2="259.74" y2="117.33"/><line x1="259.74" y1="117.33" x2="259.04" y2="116.08"/><line x1="257.78" y1="115.37" x2="256.37" y2="115.37"/><line x1="256.37" y1="115.37" x2="255.12" y2="116.08"/><line x1="260.3" y1="123.71" x2="260.3" y2="125.12"/><line x1="260.3" y1="125.12" x2="261" y2="126.38"/><line x1="262.26" y1="127.08" x2="263.67" y2="127.08"/><line x1="263.67" y1="127.08" x2="264.92" y2="126.38"/><line x1="265.63" y1="125.12" x2="265.63" y2="123.71"/><line x1="265.63" y1="123.71" x2="264.92" y2="122.45"/><line x1="263.67" y1="121.75" x2="262.26" y2="121.75"/><line x1="262.26" y1="121.75" x2="261" y2="122.45"/><line x1="255.39" y1="130.08" x2="255.39" y2="131.49"/><line x1="255.39" y1="131.49" x2="256.1" y2="132.75"/><line x1="257.35" y1="133.45" x2="258.76" y2="133.45"/><line x1="258.76" y1="133.45" x2="260.02" y2="132.75"/><line x1="260.72" y1="131.49" x2="260.72" y2="130.08"/><line x1="260.72" y1="130.08" x2="260.02" y2="128.83"/><line x1="258.76" y1="128.12" x2="257.35" y2="128.12"/><line x1="257.35" y1="128.12" x2="256.1" y2="128.83"/></g><g stroke="#d3b15b" stroke-width="2.4" stroke-linecap="round"><line x1="188.91" y1="140.6" x2="188.91" y2="138.63"/><line x1="205.59" y1="113.38" x2="206.08" y2="112.89"/><line x1="240.4" y1="75.87" x2="233.54" y2="75.87"/><line x1="181.07" y1="76.36" x2="177.14" y2="80.28"/><line x1="213.43" y1="110.68" x2="213.43" y2="110.44"/><line x1="247.27" y1="80.77" x2="246.78" y2="80.28"/><line x1="228.63" y1="94.5" x2="228.63" y2="92.54"/><line x1="230.6" y1="100.38" x2="230.6" y2="94.5"/><line x1="212.94" y1="114.12" x2="212.94" y2="113.63"/><line x1="228.63" y1="86.65" x2="229.62" y2="86.65"/><line x1="189.4" y1="141.09" x2="188.91" y2="140.6"/><line x1="191.37" y1="139.13" x2="192.35" y2="139.13"/><line x1="212.7" y1="114.12" x2="212.94" y2="114.12"/><line x1="247.27" y1="98.42" x2="247.27" y2="94.5"/><line x1="241.38" y1="84.69" x2="242.12" y2="84.69"/><line x1="230.6" y1="102.35" x2="230.6" y2="100.38"/><line x1="203.13" y1="141.58" x2="203.13" y2="139.62"/><line x1="247.27" y1="84.69" x2="247.27" y2="80.77"/><line x1="192.35" y1="139.13" x2="192.35" y2="137.65"/><line x1="230.6" y1="104.31" x2="230.6" y2="102.35"/><line x1="212.94" y1="118.04" x2="212.7" y2="118.04"/><line x1="196.27" y1="137.65" x2="198.23" y2="137.65"/><line x1="198.23" y1="139.13" x2="201.17" y2="139.13"/><line x1="188.91" y1="146.97" x2="189.4" y2="146.48"/><line x1="232.07" y1="132.75" x2="231.58" y2="132.26"/><line x1="216.38" y1="98.42" x2="216.38" y2="96.46"/><line x1="211.96" y1="114.85" x2="212.45" y2="114.85"/><line x1="211.72" y1="114.61" x2="211.96" y2="114.85"/><line x1="176.65" y1="80.77" x2="176.65" y2="84.2"/><line x1="216.87" y1="106.27" x2="216.87" y2="104.31"/><line x1="224.22" y1="87.14" x2="224.71" y2="87.63"/><line x1="222.75" y1="75.87" x2="221.03" y2="75.87"/><line x1="181.07" y1="151.88" x2="181.56" y2="152.37"/><line x1="242.86" y1="151.88" x2="246.78" y2="147.95"/><line x1="201.17" y1="141.58" x2="203.13" y2="141.58"/><line x1="241.38" y1="150.4" x2="241.14" y2="150.4"/><line x1="207.79" y1="101.12" x2="203.87" y2="101.12"/><line x1="237.95" y1="132.75" x2="237.95" y2="133.73"/><line x1="245.31" y1="146.48" x2="243.35" y2="148.44"/><line x1="225.45" y1="135.69" x2="231.82" y2="135.69"/><line x1="232.56" y1="135.69" x2="232.56" y2="134.71"/><line x1="247.27" y1="147.46" x2="247.27" y2="145.5"/><line x1="230.6" y1="150.4" x2="225.45" y2="150.4"/><line x1="240.4" y1="130.3" x2="240.4" y2="132.26"/><line x1="224.71" y1="135.69" x2="225.45" y2="135.69"/><line x1="218.83" y1="150.4" x2="218.83" y2="148.44"/><line x1="218.83" y1="139.62" x2="218.83" y2="135.69"/><line x1="215.39" y1="110.68" x2="215.64" y2="110.93"/><line x1="224.71" y1="129.32" x2="218.34" y2="129.32"/><line x1="225.69" y1="129.32" x2="224.71" y2="129.32"/><line x1="225.69" y1="110.68" x2="226.67" y2="109.7"/><line x1="244.33" y1="110.19" x2="244.33" y2="112.15"/><line x1="244.33" y1="129.81" x2="243.84" y2="130.3"/><line x1="183.52" y1="152.37" x2="190.38" y2="152.37"/><line x1="226.67" y1="130.3" x2="225.69" y2="129.32"/><line x1="208.53" y1="112.4" x2="209.51" y2="112.64"/><line x1="241.88" y1="109.7" x2="242.37" y2="109.7"/><line x1="241.38" y1="81.75" x2="241.38" y2="82.73"/><line x1="229.62" y1="130.3" x2="227.41" y2="130.3"/><line x1="241.38" y1="135.69" x2="243.35" y2="137.65"/><line x1="197.25" y1="152.37" x2="198.23" y2="152.37"/><line x1="205.34" y1="94.75" x2="205.83" y2="95.24"/><line x1="212.7" y1="118.04" x2="212.7" y2="117.55"/><line x1="230.6" y1="86.65" x2="230.6" y2="84.69"/><line x1="241.38" y1="94.5" x2="241.38" y2="100.38"/><line x1="209.02" y1="152.37" x2="209.02" y2="150.4"/><line x1="233.54" y1="80.77" x2="234.52" y2="80.77"/><line x1="201.66" y1="96.95" x2="201.17" y2="97.44"/><line x1="216.87" y1="108.23" x2="216.38" y2="108.23"/><line x1="212.94" y1="113.63" x2="212.94" y2="113.38"/><line x1="234.52" y1="80.77" x2="235.5" y2="80.77"/><line x1="226.18" y1="103.33" x2="225.69" y2="103.33"/><line x1="230.6" y1="106.27" x2="230.6" y2="104.31"/><line x1="216.38" y1="106.27" x2="216.87" y2="106.27"/><line x1="216.38" y1="96.46" x2="216.87" y2="96.46"/><line x1="215.39" y1="110.44" x2="215.39" y2="110.68"/><line x1="181.56" y1="75.87" x2="181.07" y2="76.36"/><line x1="196.27" y1="139.13" x2="196.27" y2="137.65"/><line x1="190.38" y1="152.37" x2="191.37" y2="152.37"/><line x1="246.78" y1="127.85" x2="244.33" y2="127.85"/><line x1="244.33" y1="127.85" x2="244.33" y2="129.81"/><line x1="247.27" y1="109.46" x2="247.27" y2="98.42"/><line x1="206.32" y1="75.87" x2="204.85" y2="75.38"/><line x1="231.82" y1="135.69" x2="232.56" y2="135.69"/><line x1="246.78" y1="112.15" x2="247.27" y2="111.66"/><line x1="210.98" y1="79.79" x2="210.98" y2="80.52"/><line x1="177.14" y1="147.95" x2="181.07" y2="151.88"/><line x1="206.57" y1="112.64" x2="207.55" y2="112.4"/><line x1="209.51" y1="112.64" x2="210" y2="112.89"/><line x1="241.38" y1="106.27" x2="240.89" y2="106.76"/><line x1="205.1" y1="113.63" x2="205.59" y2="113.38"/><line x1="207.55" y1="112.4" x2="208.53" y2="112.4"/><line x1="212.94" y1="118.53" x2="212.94" y2="118.04"/><line x1="241.38" y1="104.31" x2="241.38" y2="106.27"/><line x1="210.98" y1="113.63" x2="211.47" y2="113.63"/><line x1="212.94" y1="118.77" x2="212.94" y2="118.53"/><line x1="241.38" y1="102.35" x2="241.38" y2="104.31"/><line x1="210.49" y1="113.38" x2="210.98" y2="113.63"/><line x1="241.38" y1="100.38" x2="241.38" y2="102.35"/><line x1="229.62" y1="132.26" x2="229.62" y2="130.3"/><line x1="231.58" y1="132.26" x2="229.62" y2="132.26"/><line x1="238.44" y1="132.26" x2="237.95" y2="132.75"/><line x1="240.4" y1="132.26" x2="238.44" y2="132.26"/><line x1="237.46" y1="135.69" x2="238.2" y2="135.69"/><line x1="210.98" y1="84.69" x2="210.98" y2="84.94"/><line x1="207.79" y1="95.24" x2="207.79" y2="96.22"/><line x1="241.14" y1="150.4" x2="240.4" y2="150.4"/><line x1="226.67" y1="84.69" x2="224.71" y2="84.69"/><line x1="198.23" y1="137.65" x2="198.23" y2="139.13"/><line x1="188.91" y1="138.63" x2="190.88" y2="138.63"/><line x1="203.13" y1="146.48" x2="201.17" y2="146.48"/><line x1="212.94" y1="113.38" x2="212.94" y2="111.17"/><line x1="203.13" y1="148.44" x2="203.13" y2="146.48"/><line x1="229.62" y1="86.65" x2="230.6" y2="86.65"/><line x1="190.88" y1="138.63" x2="191.37" y2="139.13"/><line x1="218.83" y1="148.44" x2="210.98" y2="148.44"/><line x1="192.35" y1="137.65" x2="194.31" y2="137.65"/><line x1="206.08" y1="112.89" x2="206.57" y2="112.64"/><line x1="177.14" y1="80.28" x2="176.65" y2="80.77"/><line x1="181.56" y1="152.37" x2="183.52" y2="152.37"/><line x1="242.37" y1="152.37" x2="242.86" y2="151.88"/><line x1="176.65" y1="147.46" x2="177.14" y2="147.95"/><line x1="197.25" y1="148.44" x2="197.25" y2="150.16"/><line x1="191.37" y1="152.37" x2="191.37" y2="150.65"/><line x1="205.1" y1="152.37" x2="207.06" y2="152.37"/><line x1="201.17" y1="147.46" x2="201.17" y2="148.44"/><line x1="193.33" y1="120" x2="193.33" y2="119.02"/><line x1="212.94" y1="129.32" x2="211.96" y2="129.32"/><line x1="193.82" y1="129.81" x2="193.33" y2="129.32"/><line x1="178.62" y1="104.31" x2="180.58" y2="105.29"/><line x1="180.58" y1="119.02" x2="178.62" y2="120"/><line x1="182.54" y1="119.02" x2="180.58" y2="119.02"/><line x1="180.58" y1="105.29" x2="182.54" y2="105.29"/><line x1="182.54" y1="105.29" x2="183.52" y2="104.31"/><line x1="183.52" y1="104.31" x2="184.5" y2="104.31"/><line x1="191.37" y1="104.31" x2="191.86" y2="104.8"/><line x1="192.35" y1="119.02" x2="191.86" y2="119.51"/><line x1="191.37" y1="120" x2="190.38" y2="120"/><line x1="183.52" y1="120" x2="182.54" y2="119.02"/><line x1="192.35" y1="113.63" x2="201.66" y2="113.63"/><line x1="202.15" y1="118.04" x2="201.66" y2="118.53"/><line x1="201.66" y1="113.63" x2="202.15" y2="114.12"/><line x1="192.35" y1="105.29" x2="193.33" y2="105.29"/><line x1="202.15" y1="111.66" x2="192.35" y2="111.66"/><line x1="202.15" y1="105.29" x2="202.64" y2="106.27"/><line x1="222.75" y1="84.69" x2="220.79" y2="84.69"/><line x1="203.13" y1="110.68" x2="202.64" y2="111.17"/><line x1="184.5" y1="104.31" x2="185.48" y2="103.33"/><line x1="185.48" y1="103.33" x2="185.48" y2="99.89"/><line x1="185.48" y1="99.89" x2="186.46" y2="98.91"/><line x1="186.46" y1="98.91" x2="188.42" y2="98.91"/><line x1="188.42" y1="98.91" x2="189.4" y2="99.89"/><line x1="189.4" y1="99.89" x2="189.4" y2="103.33"/><line x1="190.38" y1="104.31" x2="191.37" y2="104.31"/><line x1="189.4" y1="103.33" x2="190.38" y2="104.31"/><line x1="201.17" y1="103.33" x2="201.17" y2="104.31"/><line x1="177.63" y1="81.75" x2="182.54" y2="76.85"/><line x1="177.63" y1="95.48" x2="177.63" y2="89.6"/><line x1="191.37" y1="95.48" x2="187.93" y2="95.48"/><line x1="182.54" y1="76.85" x2="186.46" y2="76.85"/><line x1="193.33" y1="104.31" x2="193.33" y2="103.33"/><line x1="193.33" y1="105.29" x2="193.33" y2="104.31"/><line x1="201.17" y1="104.31" x2="201.17" y2="105.29"/><line x1="224.71" y1="110.68" x2="225.69" y2="110.68"/><line x1="224.71" y1="109.7" x2="224.71" y2="110.68"/><line x1="215.88" y1="111.17" x2="216.13" y2="111.17"/><line x1="225.69" y1="103.33" x2="225.69" y2="104.31"/><line x1="225.69" y1="108.72" x2="224.71" y2="109.7"/><line x1="225.69" y1="95.97" x2="225.69" y2="96.46"/><line x1="224.71" y1="94.99" x2="225.2" y2="95.48"/><line x1="216.87" y1="95.97" x2="217.36" y2="95.48"/><line x1="216.87" y1="96.46" x2="216.87" y2="95.97"/><line x1="217.85" y1="109.7" x2="216.87" y2="108.72"/><line x1="217.85" y1="94.99" x2="217.85" y2="94.01"/><line x1="216.87" y1="87.14" x2="217.85" y2="87.14"/><line x1="224.71" y1="87.63" x2="224.71" y2="94.01"/><line x1="191.86" y1="119.51" x2="191.37" y2="120"/><line x1="191.86" y1="104.8" x2="192.35" y2="105.29"/><line x1="191.37" y1="148.44" x2="189.4" y2="148.44"/><line x1="224.71" y1="80.77" x2="226.67" y2="80.77"/><line x1="201.17" y1="105.29" x2="202.15" y2="105.29"/><line x1="210.98" y1="84.94" x2="210.98" y2="85.67"/><line x1="210.98" y1="86.65" x2="216.38" y2="86.65"/><line x1="217.85" y1="92.29" x2="217.6" y2="92.05"/><line x1="210.98" y1="92.54" x2="206.08" y2="92.54"/><line x1="193.33" y1="97.44" x2="192.84" y2="96.95"/><line x1="201.17" y1="97.44" x2="201.17" y2="98.42"/><line x1="193.33" y1="98.42" x2="193.33" y2="97.44"/><line x1="201.17" y1="98.42" x2="201.17" y2="99.4"/><line x1="193.33" y1="99.4" x2="193.33" y2="98.42"/><line x1="201.17" y1="99.4" x2="201.17" y2="100.38"/><line x1="193.33" y1="100.38" x2="193.33" y2="99.4"/><line x1="201.17" y1="100.38" x2="201.17" y2="101.37"/><line x1="193.33" y1="101.37" x2="193.33" y2="100.38"/><line x1="201.17" y1="101.37" x2="201.17" y2="102.35"/><line x1="193.33" y1="102.35" x2="193.33" y2="101.37"/><line x1="201.17" y1="102.35" x2="201.17" y2="103.33"/><line x1="193.33" y1="103.33" x2="193.33" y2="102.35"/><line x1="203.87" y1="97.2" x2="203.38" y2="96.71"/><line x1="193.33" y1="119.02" x2="192.35" y2="119.02"/><line x1="201.66" y1="119.02" x2="201.66" y2="120.49"/><line x1="202.15" y1="120.98" x2="203.13" y2="120.98"/><line x1="202.15" y1="129.32" x2="201.66" y2="129.81"/><line x1="201.66" y1="120.49" x2="202.15" y2="120.98"/><line x1="212.94" y1="120.98" x2="212.94" y2="118.77"/><line x1="214.9" y1="80.77" x2="216.87" y2="80.77"/><line x1="177.63" y1="85.67" x2="177.63" y2="81.75"/><line x1="176.65" y1="98.91" x2="176.65" y2="102.35"/><line x1="186.46" y1="76.85" x2="187.44" y2="76.85"/><line x1="192.84" y1="96.95" x2="191.37" y2="95.48"/><line x1="187.44" y1="76.85" x2="188.42" y2="76.85"/><line x1="246.78" y1="80.28" x2="242.86" y2="76.36"/><line x1="188.42" y1="76.85" x2="189.4" y2="76.85"/><line x1="224.71" y1="131.28" x2="224.71" y2="135.69"/><line x1="218.34" y1="130.79" x2="224.22" y2="130.79"/><line x1="177.63" y1="86.65" x2="177.63" y2="85.67"/><line x1="189.4" y1="148.44" x2="189.4" y2="147.46"/><line x1="177.63" y1="87.63" x2="177.63" y2="86.65"/><line x1="177.63" y1="88.62" x2="177.63" y2="87.63"/><line x1="177.63" y1="89.6" x2="177.63" y2="88.62"/><line x1="242.86" y1="76.36" x2="242.37" y2="75.87"/><line x1="189.4" y1="76.85" x2="190.38" y2="76.85"/><line x1="76.62" y1="222" x2="76.62" y2="18"/><line x1="190.38" y1="76.85" x2="191.37" y2="76.85"/><line x1="183.52" y1="95.48" x2="182.54" y2="95.48"/><line x1="184.5" y1="95.48" x2="183.52" y2="95.48"/><line x1="185.48" y1="95.48" x2="184.5" y2="95.48"/><line x1="186.46" y1="95.48" x2="185.48" y2="95.48"/><line x1="187.93" y1="95.48" x2="186.46" y2="95.48"/><line x1="224.22" y1="130.79" x2="224.71" y2="131.28"/><line x1="191.37" y1="76.85" x2="192.35" y2="76.85"/><line x1="192.35" y1="76.85" x2="202.89" y2="76.85"/><line x1="243.35" y1="84.69" x2="244.33" y2="84.69"/><line x1="203.13" y1="120.98" x2="204.12" y2="120.98"/><line x1="246.78" y1="140.6" x2="247.27" y2="140.6"/><line x1="203.13" y1="129.32" x2="202.15" y2="129.32"/><line x1="204.12" y1="120.98" x2="205.1" y2="120.98"/><line x1="246.29" y1="140.84" x2="246.78" y2="140.84"/><line x1="246.29" y1="145.25" x2="246.29" y2="145.5"/><line x1="204.12" y1="129.32" x2="203.13" y2="129.32"/><line x1="205.1" y1="120.98" x2="206.08" y2="120.98"/><line x1="246.78" y1="145.25" x2="246.29" y2="145.25"/><line x1="205.1" y1="129.32" x2="204.12" y2="129.32"/><line x1="206.08" y1="120.98" x2="207.06" y2="120.98"/><line x1="245.31" y1="145.5" x2="245.31" y2="146.48"/><line x1="206.08" y1="129.32" x2="205.1" y2="129.32"/><line x1="207.06" y1="120.98" x2="208.04" y2="120.98"/><line x1="245.31" y1="140.6" x2="246.29" y2="140.6"/><line x1="207.06" y1="129.32" x2="206.08" y2="129.32"/><line x1="208.04" y1="129.32" x2="207.06" y2="129.32"/><line x1="246.29" y1="140.6" x2="246.29" y2="140.84"/><line x1="246.29" y1="145.5" x2="245.31" y2="145.5"/><line x1="208.04" y1="120.98" x2="209.02" y2="120.98"/><line x1="209.02" y1="129.32" x2="208.04" y2="129.32"/><line x1="243.35" y1="148.44" x2="241.38" y2="150.4"/><line x1="243.35" y1="137.65" x2="245.31" y2="139.62"/><line x1="209.02" y1="120.98" x2="210" y2="120.98"/><line x1="210" y1="120.98" x2="210.98" y2="120.98"/><line x1="210" y1="129.32" x2="209.02" y2="129.32"/><line x1="210.98" y1="120.98" x2="211.96" y2="120.98"/><line x1="210.98" y1="129.32" x2="210" y2="129.32"/><line x1="211.96" y1="120.98" x2="212.94" y2="120.98"/><line x1="211.96" y1="129.32" x2="210.98" y2="129.32"/><line x1="246.78" y1="140.84" x2="246.78" y2="140.6"/><line x1="176.65" y1="121.96" x2="176.65" y2="125.88"/><line x1="178.62" y1="120" x2="176.65" y2="121.96"/><line x1="176.65" y1="102.35" x2="178.62" y2="104.31"/><line x1="202.15" y1="114.12" x2="204.12" y2="114.12"/><line x1="204.12" y1="114.12" x2="204.61" y2="113.63"/><line x1="204.61" y1="113.63" x2="205.1" y2="113.63"/><line x1="211.47" y1="113.63" x2="211.47" y2="114.12"/><line x1="211.72" y1="114.12" x2="211.72" y2="114.61"/><line x1="211.72" y1="118.04" x2="211.47" y2="118.04"/><line x1="211.47" y1="118.53" x2="204.61" y2="118.53"/><line x1="204.61" y1="118.53" x2="204.12" y2="118.04"/><line x1="204.12" y1="118.04" x2="202.15" y2="118.04"/><line x1="228.63" y1="84.69" x2="226.67" y2="84.69"/><line x1="226.67" y1="80.77" x2="228.63" y2="80.77"/><line x1="228.63" y1="80.77" x2="230.6" y2="80.77"/><line x1="228.63" y1="92.54" x2="227.65" y2="92.54"/><line x1="227.65" y1="92.54" x2="227.65" y2="88.62"/><line x1="227.65" y1="88.62" x2="228.63" y2="88.62"/><line x1="228.63" y1="88.62" x2="228.63" y2="86.65"/><line x1="216.87" y1="92.05" x2="216.38" y2="92.54"/><line x1="216.38" y1="92.54" x2="210.98" y2="92.54"/><line x1="216.38" y1="86.65" x2="216.87" y2="87.14"/><line x1="205.59" y1="93.03" x2="204.61" y2="94.01"/><line x1="210.98" y1="85.67" x2="210.98" y2="86.65"/><line x1="343.38" y1="222" x2="76.62" y2="222"/><line x1="212.94" y1="135.2" x2="212.45" y2="134.71"/><line x1="214.9" y1="84.69" x2="212.94" y2="84.69"/><line x1="218.83" y1="135.69" x2="218.83" y2="135.2"/><line x1="176.65" y1="84.2" x2="176.65" y2="98.91"/><line x1="224.71" y1="150.4" x2="223.73" y2="151.88"/><line x1="223.73" y1="151.88" x2="219.81" y2="151.88"/><line x1="219.81" y1="151.88" x2="218.83" y2="150.4"/><line x1="210.98" y1="152.37" x2="213.92" y2="152.37"/><line x1="212.94" y1="111.17" x2="213.43" y2="110.68"/><line x1="201.66" y1="118.53" x2="201.66" y2="119.02"/><line x1="247.27" y1="94.5" x2="246.53" y2="94.5"/><line x1="201.17" y1="139.13" x2="201.17" y2="141.58"/><line x1="216.87" y1="98.42" x2="216.38" y2="98.42"/><line x1="247.27" y1="145.5" x2="246.78" y2="145.5"/><line x1="216.87" y1="100.38" x2="216.87" y2="98.42"/><line x1="218.83" y1="80.77" x2="220.79" y2="80.77"/><line x1="226.18" y1="104.31" x2="226.18" y2="108.23"/><line x1="224.71" y1="94.01" x2="224.71" y2="94.99"/><line x1="216.87" y1="108.72" x2="216.87" y2="108.23"/><line x1="220.79" y1="84.69" x2="218.83" y2="84.69"/><line x1="220.79" y1="80.77" x2="222.75" y2="80.77"/><line x1="218.83" y1="84.69" x2="216.87" y2="84.69"/><line x1="225.69" y1="108.23" x2="225.69" y2="108.72"/><line x1="217.36" y1="95.48" x2="217.85" y2="94.99"/><line x1="226.18" y1="96.46" x2="226.18" y2="100.38"/><line x1="225.69" y1="96.46" x2="226.18" y2="96.46"/><line x1="225.69" y1="100.38" x2="225.69" y2="101.37"/><line x1="226.18" y1="100.38" x2="225.69" y2="100.38"/><line x1="225.2" y1="95.48" x2="225.69" y2="95.97"/><line x1="217.85" y1="94.01" x2="217.85" y2="92.29"/><line x1="225.69" y1="104.31" x2="226.18" y2="104.31"/><line x1="226.18" y1="108.23" x2="225.69" y2="108.23"/><line x1="216.38" y1="104.31" x2="216.38" y2="100.38"/><line x1="217.85" y1="87.14" x2="224.22" y2="87.14"/><line x1="217.6" y1="92.05" x2="216.87" y2="92.05"/><line x1="216.38" y1="100.38" x2="216.87" y2="100.38"/><line x1="216.87" y1="104.31" x2="216.38" y2="104.31"/><line x1="246.78" y1="145.5" x2="246.78" y2="145.25"/><line x1="213.43" y1="129.32" x2="212.94" y2="129.32"/><line x1="218.34" y1="129.32" x2="217.85" y2="129.81"/><line x1="213.92" y1="129.81" x2="213.43" y2="129.32"/><line x1="217.85" y1="129.81" x2="217.85" y2="130.3"/><line x1="213.92" y1="130.3" x2="213.92" y2="129.81"/><line x1="217.85" y1="130.3" x2="218.34" y2="130.79"/><line x1="203.13" y1="139.62" x2="218.83" y2="139.62"/><line x1="213.43" y1="130.79" x2="213.92" y2="130.3"/><line x1="209.02" y1="150.4" x2="209.02" y2="148.44"/><line x1="212.45" y1="134.71" x2="212.45" y2="131.28"/><line x1="217.85" y1="135.2" x2="212.94" y2="135.2"/><line x1="218.83" y1="135.2" x2="217.85" y2="135.2"/><line x1="212.45" y1="131.28" x2="212.94" y2="130.79"/><line x1="76.62" y1="18" x2="343.38" y2="18"/><line x1="206.08" y1="79.79" x2="206.57" y2="79.79"/><line x1="210.98" y1="148.44" x2="210.98" y2="150.4"/><line x1="212.94" y1="84.69" x2="210.98" y2="84.69"/><line x1="210.98" y1="80.77" x2="212.94" y2="80.77"/><line x1="194.31" y1="139.13" x2="196.27" y2="139.13"/><line x1="201.17" y1="148.44" x2="197.25" y2="148.44"/><line x1="194.31" y1="137.65" x2="194.31" y2="139.13"/><line x1="210.98" y1="80.52" x2="210.98" y2="80.77"/><line x1="189.4" y1="142.56" x2="188.91" y2="142.07"/><line x1="188.91" y1="142.07" x2="189.4" y2="141.58"/><line x1="225.69" y1="101.37" x2="226.18" y2="101.37"/><line x1="219.07" y1="75.38" x2="217.6" y2="75.87"/><line x1="243.84" y1="130.3" x2="242.86" y2="130.3"/><line x1="242.86" y1="130.3" x2="242.37" y2="130.3"/><line x1="242.37" y1="130.3" x2="241.88" y2="130.3"/><line x1="241.88" y1="130.3" x2="241.38" y2="130.3"/><line x1="217.6" y1="75.87" x2="215.88" y2="75.87"/><line x1="243.84" y1="109.7" x2="244.33" y2="110.19"/><line x1="221.03" y1="75.87" x2="219.56" y2="75.38"/><line x1="219.56" y1="75.38" x2="219.07" y2="75.38"/><line x1="242.86" y1="109.7" x2="243.84" y2="109.7"/><line x1="242.37" y1="109.7" x2="242.86" y2="109.7"/><line x1="226.67" y1="109.7" x2="227.41" y2="109.7"/><line x1="241.38" y1="130.3" x2="240.4" y2="130.3"/><line x1="241.38" y1="109.7" x2="241.88" y2="109.7"/><line x1="232.07" y1="133.73" x2="232.07" y2="132.75"/><line x1="237.95" y1="133.73" x2="237.46" y2="134.71"/><line x1="232.56" y1="134.71" x2="232.07" y2="133.73"/><line x1="237.46" y1="134.71" x2="237.46" y2="135.69"/><line x1="198.23" y1="152.37" x2="205.1" y2="152.37"/><line x1="210.98" y1="150.4" x2="210.98" y2="152.37"/><line x1="209.02" y1="148.44" x2="203.13" y2="148.44"/><line x1="244.33" y1="112.15" x2="246.78" y2="112.15"/><line x1="230.6" y1="80.77" x2="233.54" y2="80.77"/><line x1="229.62" y1="94.5" x2="228.63" y2="94.5"/><line x1="230.6" y1="84.69" x2="228.63" y2="84.69"/><line x1="210" y1="112.89" x2="210.49" y2="113.38"/><line x1="230.6" y1="94.5" x2="229.62" y2="94.5"/><line x1="230.6" y1="109.7" x2="231.09" y2="109.21"/><line x1="211.72" y1="117.55" x2="211.72" y2="118.04"/><line x1="212.45" y1="114.85" x2="212.7" y2="114.61"/><line x1="211.96" y1="117.3" x2="211.72" y2="117.55"/><line x1="212.7" y1="114.61" x2="212.7" y2="114.12"/><line x1="212.45" y1="117.3" x2="211.96" y2="117.3"/><line x1="212.7" y1="117.55" x2="212.45" y2="117.3"/><line x1="211.47" y1="114.12" x2="211.72" y2="114.12"/><line x1="211.47" y1="118.04" x2="211.47" y2="118.53"/><line x1="184.5" y1="120" x2="183.52" y2="120"/><line x1="185.48" y1="120.98" x2="184.5" y2="120"/><line x1="185.48" y1="124.9" x2="185.48" y2="120.98"/><line x1="186.46" y1="125.88" x2="185.48" y2="124.9"/><line x1="188.42" y1="125.88" x2="186.46" y2="125.88"/><line x1="189.4" y1="124.9" x2="188.42" y2="125.88"/><line x1="189.4" y1="120.98" x2="189.4" y2="124.9"/><line x1="190.38" y1="120" x2="189.4" y2="120.98"/><line x1="247.27" y1="110.19" x2="247.27" y2="109.46"/><line x1="204.61" y1="94.01" x2="205.1" y2="94.5"/><line x1="203.38" y1="96.71" x2="203.13" y2="96.46"/><line x1="205.1" y1="94.5" x2="205.34" y2="94.75"/><line x1="208.04" y1="75.87" x2="206.32" y2="75.87"/><line x1="201.17" y1="75.87" x2="199.21" y2="75.87"/><line x1="199.21" y1="75.87" x2="192.35" y2="75.87"/><line x1="215.88" y1="75.87" x2="208.04" y2="75.87"/><line x1="192.35" y1="75.87" x2="190.38" y2="75.87"/><line x1="190.38" y1="75.87" x2="183.52" y2="75.87"/><line x1="183.52" y1="75.87" x2="181.56" y2="75.87"/><line x1="233.54" y1="75.87" x2="231.58" y2="75.87"/><line x1="231.58" y1="75.87" x2="224.71" y2="75.87"/><line x1="224.71" y1="75.87" x2="222.75" y2="75.87"/><line x1="240.4" y1="152.37" x2="242.37" y2="152.37"/><line x1="233.54" y1="152.37" x2="240.4" y2="152.37"/><line x1="231.58" y1="152.37" x2="233.54" y2="152.37"/><line x1="224.71" y1="152.37" x2="231.58" y2="152.37"/><line x1="222.75" y1="152.37" x2="224.71" y2="152.37"/><line x1="215.88" y1="152.37" x2="222.75" y2="152.37"/><line x1="213.92" y1="152.37" x2="215.88" y2="152.37"/><line x1="207.06" y1="152.37" x2="209.02" y2="152.37"/><line x1="202.89" y1="75.87" x2="201.17" y2="75.87"/><line x1="204.36" y1="75.38" x2="202.89" y2="75.87"/><line x1="204.85" y1="75.38" x2="204.36" y2="75.38"/><line x1="247.27" y1="128.34" x2="246.78" y2="127.85"/><line x1="247.27" y1="111.66" x2="247.27" y2="110.19"/><line x1="242.37" y1="75.87" x2="240.4" y2="75.87"/><line x1="246.78" y1="147.95" x2="247.27" y2="147.46"/><line x1="176.65" y1="127.85" x2="177.14" y2="128.34"/><line x1="195.29" y1="130.05" x2="195.29" y2="129.81"/><line x1="176.65" y1="141.58" x2="176.65" y2="142.8"/><line x1="178.62" y1="129.81" x2="179.6" y2="129.81"/><line x1="199.21" y1="130.05" x2="199.21" y2="130.79"/><line x1="182.54" y1="139.62" x2="180.58" y2="139.62"/><line x1="189.4" y1="146.48" x2="188.42" y2="146.48"/><line x1="197.25" y1="150.16" x2="197.5" y2="150.4"/><line x1="182.54" y1="145.5" x2="182.54" y2="142.56"/><line x1="242.37" y1="94.5" x2="242.12" y2="94.5"/><line x1="191.37" y1="131.77" x2="191.37" y2="132.75"/><line x1="244.33" y1="94.5" x2="243.35" y2="94.5"/><line x1="247.27" y1="130.54" x2="247.27" y2="129.81"/><line x1="207.79" y1="100.14" x2="207.79" y2="101.12"/><line x1="247.27" y1="140.6" x2="247.27" y2="130.54"/><line x1="246.53" y1="94.5" x2="246.29" y2="94.5"/><line x1="242.12" y1="94.5" x2="241.38" y2="94.5"/><line x1="235.5" y1="81.75" x2="241.38" y2="81.75"/><line x1="235.5" y1="80.77" x2="235.5" y2="81.75"/><line x1="242.37" y1="84.69" x2="243.35" y2="84.69"/><line x1="191.37" y1="129.81" x2="191.37" y2="131.77"/><line x1="243.35" y1="94.5" x2="242.37" y2="94.5"/><line x1="189.4" y1="141.58" x2="189.4" y2="141.09"/><line x1="186.46" y1="146.48" x2="183.52" y2="146.48"/><line x1="186.46" y1="138.63" x2="186.46" y2="139.62"/><line x1="191.37" y1="137.65" x2="187.44" y2="137.65"/><line x1="176.65" y1="142.8" x2="176.65" y2="143.54"/><line x1="176.65" y1="126.62" x2="176.65" y2="127.85"/><line x1="187.44" y1="146.48" x2="186.46" y2="146.48"/><line x1="187.44" y1="137.65" x2="186.95" y2="138.14"/><line x1="188.42" y1="146.48" x2="187.44" y2="146.48"/><line x1="197.5" y1="150.4" x2="197.25" y2="150.65"/><line x1="247.27" y1="129.81" x2="247.27" y2="128.34"/><line x1="246.29" y1="94.5" x2="245.31" y2="94.5"/><line x1="246.29" y1="84.69" x2="246.53" y2="84.69"/><line x1="242.12" y1="84.69" x2="242.37" y2="84.69"/><line x1="246.53" y1="84.69" x2="247.27" y2="84.69"/><line x1="208.77" y1="100.14" x2="207.79" y2="100.14"/><line x1="208.77" y1="96.22" x2="208.77" y2="97.69"/><line x1="205.83" y1="95.24" x2="207.79" y2="95.24"/><line x1="207.79" y1="96.22" x2="208.77" y2="96.22"/><line x1="245.31" y1="139.62" x2="245.31" y2="140.6"/><line x1="182.54" y1="142.56" x2="181.56" y2="141.09"/><line x1="176.65" y1="143.54" x2="176.65" y2="147.46"/><line x1="203.13" y1="96.46" x2="202.64" y2="95.97"/><line x1="203.87" y1="101.12" x2="203.87" y2="97.2"/><line x1="244.33" y1="84.69" x2="245.31" y2="84.69"/><line x1="245.31" y1="94.5" x2="244.33" y2="94.5"/><line x1="202.64" y1="95.97" x2="201.66" y2="96.95"/><line x1="245.31" y1="84.69" x2="246.29" y2="84.69"/><line x1="203.13" y1="106.76" x2="203.63" y2="106.76"/><line x1="204.12" y1="106.76" x2="205.1" y2="107.25"/><line x1="205.1" y1="107.25" x2="205.34" y2="107.74"/><line x1="205.34" y1="109.7" x2="205.1" y2="110.19"/><line x1="205.1" y1="110.19" x2="204.12" y2="110.68"/><line x1="204.12" y1="110.68" x2="203.63" y2="110.68"/><line x1="202.64" y1="106.27" x2="203.13" y2="106.76"/><line x1="202.64" y1="111.17" x2="202.15" y2="111.66"/><line x1="224.71" y1="84.69" x2="222.75" y2="84.69"/><line x1="203.63" y1="106.76" x2="204.12" y2="106.76"/><line x1="203.63" y1="110.68" x2="203.13" y2="110.68"/><line x1="222.75" y1="80.77" x2="224.71" y2="80.77"/><line x1="212.94" y1="130.79" x2="213.43" y2="130.79"/><line x1="217.85" y1="110.68" x2="217.85" y2="109.7"/><line x1="205.34" y1="107.74" x2="215.39" y2="107.74"/><line x1="216.87" y1="80.77" x2="218.83" y2="80.77"/><line x1="186.95" y1="142.07" x2="189.4" y2="142.56"/><line x1="216.87" y1="84.69" x2="214.9" y2="84.69"/><line x1="343.38" y1="18" x2="343.38" y2="49.38"/><line x1="212.94" y1="80.77" x2="214.9" y2="80.77"/><line x1="343.38" y1="49.38" x2="343.38" y2="222"/><line x1="202.89" y1="76.85" x2="205.83" y2="79.79"/><line x1="238.2" y1="135.69" x2="241.38" y2="135.69"/><line x1="241.38" y1="82.73" x2="241.38" y2="83.71"/><line x1="241.38" y1="83.71" x2="241.38" y2="84.69"/><line x1="192.35" y1="111.66" x2="192.35" y2="113.63"/><line x1="206.08" y1="92.54" x2="205.59" y2="93.03"/><line x1="231.58" y1="151.88" x2="230.6" y2="150.4"/><line x1="239.42" y1="151.88" x2="231.58" y2="151.88"/><line x1="240.4" y1="150.4" x2="239.42" y2="151.88"/><line x1="226.18" y1="101.37" x2="226.18" y2="103.33"/><line x1="216.38" y1="108.23" x2="216.38" y2="106.27"/><line x1="225.45" y1="150.4" x2="224.71" y2="150.4"/><line x1="178.13" y1="140.11" x2="177.63" y2="140.6"/><line x1="191.12" y1="150.4" x2="191.37" y2="150.16"/><line x1="177.14" y1="128.34" x2="177.63" y2="128.83"/><line x1="215.64" y1="110.93" x2="215.88" y2="111.17"/><line x1="216.38" y1="111.17" x2="216.62" y2="110.93"/><line x1="178.13" y1="129.32" x2="178.62" y2="129.81"/><line x1="177.63" y1="140.6" x2="177.14" y2="141.09"/><line x1="177.14" y1="141.09" x2="176.65" y2="141.58"/><line x1="213.43" y1="109.7" x2="205.34" y2="109.7"/><line x1="216.62" y1="110.93" x2="216.87" y2="110.68"/><line x1="178.62" y1="139.62" x2="178.13" y2="140.11"/><line x1="177.63" y1="128.83" x2="178.13" y2="129.32"/><line x1="216.87" y1="110.68" x2="217.85" y2="110.68"/><line x1="216.13" y1="111.17" x2="216.38" y2="111.17"/><line x1="215.39" y1="107.74" x2="215.39" y2="110.44"/><line x1="213.43" y1="110.44" x2="213.43" y2="109.7"/><line x1="191.37" y1="150.16" x2="191.37" y2="148.44"/><line x1="191.37" y1="150.65" x2="191.12" y2="150.4"/><line x1="179.6" y1="129.81" x2="191.37" y2="129.81"/><line x1="197.25" y1="150.65" x2="197.25" y2="152.37"/><line x1="192.35" y1="132.75" x2="195.29" y2="132.75"/><line x1="192.35" y1="136.67" x2="191.37" y2="136.67"/><line x1="227.41" y1="109.7" x2="230.6" y2="109.7"/><line x1="227.41" y1="130.3" x2="226.67" y2="130.3"/><line x1="231.09" y1="109.21" x2="231.09" y2="106.76"/><line x1="231.09" y1="106.76" x2="230.6" y2="106.27"/><line x1="240.89" y1="106.76" x2="240.89" y2="109.21"/><line x1="240.89" y1="109.21" x2="241.38" y2="109.7"/><line x1="201.66" y1="129.81" x2="199.21" y2="129.81"/><line x1="193.33" y1="129.32" x2="193.33" y2="120"/><line x1="195.29" y1="132.75" x2="195.29" y2="131.77"/><line x1="199.21" y1="129.81" x2="199.21" y2="130.05"/><line x1="195.29" y1="129.81" x2="193.82" y2="129.81"/><line x1="195.29" y1="131.77" x2="195.29" y2="130.79"/><line x1="199.21" y1="130.79" x2="199.21" y2="131.77"/><line x1="199.21" y1="136.67" x2="192.35" y2="136.67"/><line x1="199.21" y1="131.77" x2="199.21" y2="132.75"/><line x1="191.37" y1="136.67" x2="191.37" y2="137.65"/><line x1="199.21" y1="132.75" x2="199.21" y2="136.67"/><line x1="186.95" y1="138.14" x2="186.46" y2="138.63"/><line x1="191.37" y1="132.75" x2="192.35" y2="132.75"/><line x1="176.65" y1="125.88" x2="176.65" y2="126.62"/><line x1="180.58" y1="139.62" x2="178.62" y2="139.62"/><line x1="195.29" y1="130.79" x2="195.29" y2="130.05"/><line x1="189.4" y1="147.46" x2="188.91" y2="146.97"/><line x1="181.56" y1="141.09" x2="182.54" y2="139.62"/><line x1="181.56" y1="147.46" x2="182.54" y2="145.5"/><line x1="183.52" y1="146.48" x2="181.56" y2="147.46"/><line x1="186.46" y1="139.62" x2="186.95" y2="142.07"/><line x1="201.17" y1="146.48" x2="201.17" y2="147.46"/><line x1="178.62" y1="95.48" x2="177.63" y2="95.48"/><line x1="178.62" y1="99.4" x2="178.62" y2="97.44"/><line x1="182.54" y1="99.4" x2="178.62" y2="99.4"/><line x1="182.54" y1="95.48" x2="182.54" y2="97.44"/><line x1="178.62" y1="97.44" x2="178.62" y2="95.48"/><line x1="182.54" y1="97.44" x2="182.54" y2="99.4"/><line x1="206.57" y1="79.79" x2="206.57" y2="77.83"/><line x1="210.49" y1="79.79" x2="210.98" y2="79.79"/><line x1="206.57" y1="77.83" x2="210.49" y2="77.83"/><line x1="210.49" y1="77.83" x2="210.49" y2="79.79"/><line x1="205.83" y1="79.79" x2="206.08" y2="79.79"/><line x1="208.9" y1="97.69" x2="208.9" y2="98.67"/><line x1="208.9" y1="98.67" x2="208.77" y2="98.67"/><line x1="208.77" y1="97.69" x2="208.9" y2="97.69"/><line x1="208.77" y1="98.67" x2="208.77" y2="100.14"/></g><g opacity="0.95"><circle cx="173.71" cy="109.21" r="3.2" fill="#b7493c"/><circle cx="208.04" cy="112.89" r="2.2" fill="#d3b15b"/><circle cx="182.54" cy="78.81" r="2.2" fill="#d3b15b"/><circle cx="173.71" cy="111.17" r="3.2" fill="#b7493c"/><circle cx="173.71" cy="113.13" r="3.2" fill="#b7493c"/><circle cx="173.71" cy="115.1" r="3.2" fill="#b7493c"/><circle cx="205.1" cy="108.72" r="2.2" fill="#d3b15b"/><circle cx="181.56" cy="79.79" r="2.2" fill="#d3b15b"/><circle cx="183.52" cy="77.83" r="2.2" fill="#d3b15b"/><circle cx="179.6" cy="81.75" r="2.2" fill="#d3b15b"/><circle cx="178.62" cy="82.73" r="2.2" fill="#d3b15b"/><circle cx="180.58" cy="80.77" r="2.2" fill="#d3b15b"/><circle cx="187.44" cy="124.9" r="3.2" fill="#b7493c"/><circle cx="187.44" cy="124.41" r="2.2" fill="#d3b15b"/><circle cx="187.44" cy="100.38" r="2.2" fill="#d3b15b"/><circle cx="188.79" cy="100.51" r="2.2" fill="#d3b15b"/><circle cx="188.79" cy="101.86" r="2.2" fill="#d3b15b"/><circle cx="186.09" cy="124.29" r="2.2" fill="#d3b15b"/><circle cx="186.09" cy="123.06" r="2.2" fill="#d3b15b"/><circle cx="186.09" cy="121.84" r="2.2" fill="#d3b15b"/><circle cx="185.97" cy="120.61" r="2.2" fill="#d3b15b"/><circle cx="210" cy="117.92" r="2.2" fill="#d3b15b"/><circle cx="208.04" cy="117.92" r="2.2" fill="#d3b15b"/><circle cx="206.08" cy="117.92" r="2.2" fill="#d3b15b"/><circle cx="191" cy="146.85" r="2.2" fill="#d3b15b"/><circle cx="190.14" cy="147.09" r="2.2" fill="#d3b15b"/><circle cx="190.75" cy="147.71" r="2.2" fill="#d3b15b"/><circle cx="180.58" cy="98.79" r="2.2" fill="#d3b15b"/><circle cx="181.56" cy="98.06" r="2.2" fill="#d3b15b"/><circle cx="181.93" cy="96.83" r="2.2" fill="#d3b15b"/><circle cx="181.07" cy="96.09" r="2.2" fill="#d3b15b"/><circle cx="180.09" cy="96.09" r="2.2" fill="#d3b15b"/><circle cx="179.23" cy="96.83" r="2.2" fill="#d3b15b"/><circle cx="179.6" cy="98.06" r="2.2" fill="#d3b15b"/><circle cx="180.58" cy="97.32" r="2.2" fill="#d3b15b"/><circle cx="208.53" cy="79.42" r="2.2" fill="#d3b15b"/><circle cx="209.75" cy="79.18" r="2.2" fill="#d3b15b"/><circle cx="207.3" cy="79.3" r="2.2" fill="#d3b15b"/><circle cx="207.06" cy="78.32" r="2.2" fill="#d3b15b"/><circle cx="210" cy="78.32" r="2.2" fill="#d3b15b"/><circle cx="208.53" cy="78.19" r="2.2" fill="#d3b15b"/><circle cx="208.28" cy="98.18" r="2.2" fill="#d3b15b"/><circle cx="208.28" cy="96.71" r="2.2" fill="#d3b15b"/><circle cx="208.28" cy="99.65" r="2.2" fill="#d3b15b"/><circle cx="210" cy="85.67" r="2.2" fill="#d3b15b"/><circle cx="210.49" cy="85.67" r="3.2" fill="#b7493c"/><circle cx="223.24" cy="88.62" r="2.2" fill="#d3b15b"/><circle cx="218.34" cy="102.35" r="2.2" fill="#d3b15b"/><circle cx="218.09" cy="100.88" r="2.2" fill="#d3b15b"/><circle cx="217.85" cy="99.4" r="2.2" fill="#d3b15b"/><circle cx="217.6" cy="97.93" r="2.2" fill="#d3b15b"/><circle cx="218.09" cy="103.82" r="2.2" fill="#d3b15b"/><circle cx="217.85" cy="105.29" r="2.2" fill="#d3b15b"/><circle cx="217.6" cy="106.76" r="2.2" fill="#d3b15b"/><circle cx="217.6" cy="102.35" r="3.2" fill="#b7493c"/><circle cx="213.68" cy="133" r="2.2" fill="#d3b15b"/><circle cx="221.03" cy="131.52" r="2.2" fill="#d3b15b"/><circle cx="222.5" cy="131.52" r="2.2" fill="#d3b15b"/><circle cx="212.94" cy="133" r="3.2" fill="#b7493c"/><circle cx="192.84" cy="134.22" r="2.2" fill="#d3b15b"/><circle cx="241.88" cy="148.44" r="2.2" fill="#d3b15b"/><circle cx="193.82" cy="135.2" r="2.2" fill="#d3b15b"/><circle cx="241.88" cy="137.65" r="2.2" fill="#d3b15b"/><circle cx="194.8" cy="134.22" r="2.2" fill="#d3b15b"/><circle cx="195.78" cy="135.2" r="2.2" fill="#d3b15b"/><circle cx="196.76" cy="134.22" r="2.2" fill="#d3b15b"/><circle cx="221.77" cy="150.89" r="2.2" fill="#d3b15b"/><circle cx="197.74" cy="135.2" r="2.2" fill="#d3b15b"/><circle cx="221.77" cy="151.38" r="3.2" fill="#b7493c"/><circle cx="175.92" cy="134.71" r="2.2" fill="#d3b15b"/><circle cx="242.86" cy="120" r="2.2" fill="#d3b15b"/><circle cx="243.59" cy="110.44" r="2.2" fill="#d3b15b"/><circle cx="243.59" cy="129.56" r="2.2" fill="#d3b15b"/><circle cx="244.82" cy="112.64" r="2.2" fill="#d3b15b"/><circle cx="244.82" cy="127.36" r="2.2" fill="#d3b15b"/><circle cx="217.85" cy="119.51" r="2.2" fill="#d3b15b"/><circle cx="210" cy="151.38" r="2.2" fill="#d3b15b"/><circle cx="217.85" cy="115.59" r="2.2" fill="#d3b15b"/><circle cx="217.85" cy="123.43" r="2.2" fill="#d3b15b"/><circle cx="217.36" cy="119.51" r="3.2" fill="#b7493c"/></g></svg>