<svg xmlns="http://www.w3.org/2000/svg" viewBox="0 0 420 240" role="img"><rect width="100%" height="100%" fill="#070706"/><g stroke="#5e5a4f" stroke-width="1.6" stroke-linecap="round"><line x1="208.79" y1="112.71" x2="233.07" y2="117.57"/><line x1="203.93" y1="59.29" x2="218.5" y2="59.29"/><line x1="199.07" y1="173.43" x2="200.29" y2="171"/><line x1="174.79" y1="89.64" x2="174.79" y2="61.71"/><line x1="148.07" y1="158.86" x2="148.07" y2="173.43"/><line x1="200.29" y1="171" x2="189.36" y2="171"/><line x1="301.38" y1="209.25" x2="294.39" y2="197.41"/><line x1="169.93" y1="158.86" x2="184.5" y2="158.86"/><line x1="143.21" y1="158.86" x2="143.21" y2="173.43"/><line x1="131.07" y1="71.43" x2="165.07" y2="71.43"/><line x1="128.64" y1="173.43" x2="128.64" y2="73.86"/><line x1="184.5" y1="103" x2="174.79" y2="98.14"/><line x1="184.5" y1="90.86" x2="179.64" y2="86"/><line x1="189.36" y1="93.29" x2="184.5" y2="90.86"/><line x1="256.14" y1="178.29" x2="259.79" y2="174.64"/><line x1="259.79" y1="174.64" x2="259.79" y2="130.93"/><line x1="261" y1="129.71" x2="259.79" y2="130.93"/><line x1="261" y1="129.71" x2="275.57" y2="129.71"/><line x1="275.57" y1="129.71" x2="279.21" y2="126.07"/><line x1="279.21" y1="126.07" x2="279.21" y2="60.5"/><line x1="279.21" y1="60.5" x2="275.57" y2="56.86"/><line x1="275.57" y1="56.86" x2="262.21" y2="56.86"/><line x1="240.36" y1="178.29" x2="256.14" y2="178.29"/><line x1="262.21" y1="59.29" x2="274.36" y2="59.29"/><line x1="274.36" y1="59.29" x2="276.79" y2="61.71"/><line x1="203.93" y1="158.86" x2="218.5" y2="158.86"/><line x1="276.79" y1="124.86" x2="274.36" y2="127.29"/><line x1="274.36" y1="127.29" x2="259.79" y2="127.29"/><line x1="259.79" y1="127.29" x2="257.36" y2="129.71"/><line x1="257.36" y1="129.71" x2="257.36" y2="173.43"/><line x1="257.36" y1="173.43" x2="254.93" y2="175.86"/><line x1="254.93" y1="175.86" x2="240.36" y2="175.86"/><line x1="231.86" y1="95.71" x2="207.57" y2="100.57"/><line x1="294.39" y1="197.41" x2="289.23" y2="194.68"/><line x1="184.5" y1="156.43" x2="169.93" y2="156.43"/><line x1="302.29" y1="90.86" x2="302.29" y2="83.57"/><line x1="252.5" y1="191.64" x2="264.64" y2="191.64"/><line x1="213.64" y1="49.57" x2="213.64" y2="44.71"/><line x1="208.79" y1="49.57" x2="213.64" y2="49.57"/><line x1="276.79" y1="61.71" x2="276.79" y2="124.86"/><line x1="218.5" y1="156.43" x2="203.93" y2="156.43"/><line x1="208.79" y1="44.71" x2="208.79" y2="49.57"/><line x1="240.36" y1="154" x2="240.36" y2="141.86"/><line x1="223.36" y1="141.86" x2="223.36" y2="154"/><line x1="148.07" y1="107.86" x2="148.07" y2="117.57"/><line x1="289.23" y1="194.68" x2="281.34" y2="194.68"/><line x1="165.07" y1="73.86" x2="165.07" y2="83.57"/><line x1="200.29" y1="171" x2="201.5" y2="168.57"/><line x1="152.93" y1="117.57" x2="152.93" y2="107.86"/><line x1="189.36" y1="171" x2="189.36" y2="180.71"/><line x1="230.64" y1="93.29" x2="206.36" y2="98.14"/><line x1="281.34" y1="194.68" x2="266.77" y2="199.54"/><line x1="207.57" y1="115.14" x2="231.86" y2="120"/><line x1="165.07" y1="137" x2="165.07" y2="124.86"/><line x1="266.77" y1="199.54" x2="261.91" y2="204.39"/><line x1="128.64" y1="190.43" x2="118.93" y2="185.57"/><line x1="261.91" y1="204.39" x2="252.2" y2="209.25"/><line x1="206.36" y1="117.57" x2="230.64" y2="122.43"/><line x1="106.79" y1="66.57" x2="111.64" y2="61.71"/><line x1="179.64" y1="94.5" x2="174.79" y2="89.64"/><line x1="143.21" y1="197.71" x2="133.5" y2="195.29"/><line x1="252.2" y1="209.25" x2="247.95" y2="209.25"/><line x1="165.07" y1="124.86" x2="172.36" y2="117.57"/><line x1="247.95" y1="209.25" x2="236.11" y2="202.27"/><line x1="186.93" y1="168.57" x2="186.93" y2="179.5"/><line x1="169.93" y1="83.57" x2="169.93" y2="73.86"/><line x1="186.93" y1="98.14" x2="179.64" y2="94.5"/><line x1="174.79" y1="98.14" x2="169.93" y2="93.29"/><line x1="143.21" y1="141.86" x2="143.21" y2="154"/><line x1="233.07" y1="98.14" x2="208.79" y2="103"/><line x1="128.64" y1="73.86" x2="131.07" y2="71.43"/><line x1="143.21" y1="175.86" x2="131.07" y2="175.86"/><line x1="172.36" y1="117.57" x2="186.93" y2="117.57"/><line x1="201.5" y1="168.57" x2="186.93" y2="168.57"/><line x1="129.86" y1="69" x2="126.21" y2="72.64"/><line x1="165.07" y1="69" x2="129.86" y2="69"/><line x1="179.64" y1="86" x2="179.64" y2="59.29"/><line x1="126.21" y1="72.64" x2="126.21" y2="174.64"/><line x1="129.86" y1="178.29" x2="143.21" y2="178.29"/><line x1="155.36" y1="54.43" x2="165.07" y2="54.43"/><line x1="131.07" y1="175.86" x2="128.64" y2="173.43"/><line x1="236.11" y1="202.27" x2="236.11" y2="197.11"/><line x1="126.21" y1="174.64" x2="129.86" y2="178.29"/><line x1="235.5" y1="52" x2="236.71" y2="52"/><line x1="223.36" y1="59.29" x2="223.36" y2="73.86"/><line x1="225.79" y1="73.86" x2="225.79" y2="59.29"/><line x1="262.21" y1="71.43" x2="262.21" y2="61.71"/><line x1="257.36" y1="61.71" x2="257.36" y2="71.43"/><line x1="240.36" y1="171" x2="240.36" y2="161.29"/><line x1="235.5" y1="171" x2="235.5" y2="161.29"/><line x1="230.64" y1="171" x2="230.64" y2="161.29"/><line x1="225.79" y1="173.43" x2="225.79" y2="158.86"/><line x1="165.07" y1="154" x2="165.07" y2="141.86"/><line x1="148.07" y1="154" x2="148.07" y2="141.86"/><line x1="152.93" y1="154" x2="152.93" y2="141.86"/><line x1="157.79" y1="154" x2="157.79" y2="141.86"/><line x1="162.64" y1="154" x2="162.64" y2="141.86"/><line x1="191.79" y1="88.43" x2="189.36" y2="87.21"/><line x1="189.36" y1="87.21" x2="184.5" y2="82.36"/><line x1="184.5" y1="82.36" x2="184.5" y2="59.29"/><line x1="237.93" y1="49.57" x2="237.93" y2="44.71"/><line x1="199.07" y1="175.86" x2="194.21" y2="175.86"/><line x1="194.21" y1="175.86" x2="194.21" y2="180.71"/><line x1="206.36" y1="45.93" x2="206.36" y2="52"/><line x1="206.36" y1="52" x2="216.07" y2="52"/><line x1="216.07" y1="52" x2="216.07" y2="45.93"/><line x1="203.93" y1="54.43" x2="218.5" y2="54.43"/><line x1="203.93" y1="56.86" x2="218.5" y2="56.86"/><line x1="191.79" y1="173.43" x2="191.79" y2="180.71"/><line x1="199.07" y1="173.43" x2="191.79" y2="173.43"/><line x1="187.54" y1="110.29" x2="187.54" y2="105.43"/><line x1="186.32" y1="110.29" x2="186.32" y2="105.43"/><line x1="184.5" y1="105.43" x2="184.5" y2="110.29"/><line x1="185.71" y1="105.43" x2="185.71" y2="110.29"/><line x1="232.46" y1="105.43" x2="232.46" y2="110.29"/><line x1="232.46" y1="110.29" x2="233.07" y2="110.29"/><line x1="233.07" y1="105.43" x2="232.46" y2="105.43"/><line x1="209.39" y1="110.29" x2="209.39" y2="105.43"/><line x1="209.39" y1="105.43" x2="208.79" y2="105.43"/><line x1="208.79" y1="110.29" x2="209.39" y2="110.29"/><line x1="237.93" y1="49.57" x2="242.79" y2="49.57"/><line x1="242.79" y1="49.57" x2="244" y2="52"/><line x1="242.79" y1="44.71" x2="242.79" y2="49.57"/><line x1="236.71" y1="52" x2="237.93" y2="49.57"/><line x1="237.93" y1="44.71" x2="242.79" y2="44.71"/><line x1="244" y1="52" x2="245.21" y2="52"/><line x1="236.71" y1="52" x2="244" y2="52"/><line x1="262.21" y1="44.71" x2="301.07" y2="44.71"/><line x1="301.07" y1="44.71" x2="301.07" y2="83.57"/><line x1="264.64" y1="191.64" x2="264.64" y2="190.43"/><line x1="301.07" y1="90.86" x2="302.29" y2="90.86"/><line x1="301.07" y1="83.57" x2="302.29" y2="83.57"/><line x1="301.07" y1="83.57" x2="301.07" y2="90.86"/><line x1="252.5" y1="190.43" x2="240.36" y2="190.43"/><line x1="252.5" y1="191.64" x2="252.5" y2="190.43"/><line x1="240.36" y1="191.64" x2="252.5" y2="191.64"/><line x1="264.64" y1="190.43" x2="252.5" y2="190.43"/><line x1="262.21" y1="35" x2="281.64" y2="30.14"/><line x1="308.36" y1="25.29" x2="318.07" y2="25.29"/><line x1="293.79" y1="30.14" x2="308.36" y2="25.29"/><line x1="281.64" y1="30.14" x2="293.79" y2="30.14"/><line x1="318.07" y1="25.29" x2="327.79" y2="35"/><line x1="327.79" y1="35" x2="327.79" y2="39.86"/><line x1="322.93" y1="49.57" x2="322.93" y2="69"/><line x1="327.79" y1="73.86" x2="327.79" y2="88.43"/><line x1="315.64" y1="105.43" x2="310.79" y2="115.14"/><line x1="310.79" y1="124.86" x2="315.64" y2="134.57"/><line x1="315.64" y1="134.57" x2="315.64" y2="149.14"/><line x1="315.64" y1="149.14" x2="320.5" y2="158.86"/><line x1="320.5" y1="158.86" x2="320.5" y2="168.57"/><line x1="320.5" y1="188" x2="325.36" y2="202.57"/><line x1="325.36" y1="209.86" x2="320.5" y2="214.71"/><line x1="313.21" y1="214.71" x2="301.07" y2="209.86"/><line x1="301.07" y1="209.86" x2="293.79" y2="197.71"/><line x1="293.79" y1="197.71" x2="288.93" y2="195.29"/><line x1="281.64" y1="195.29" x2="267.07" y2="200.14"/><line x1="267.07" y1="200.14" x2="262.21" y2="205"/><line x1="252.5" y1="209.86" x2="247.64" y2="209.86"/><line x1="235.5" y1="202.57" x2="235.5" y2="197.71"/><line x1="302.29" y1="83.57" x2="302.29" y2="43.5"/><line x1="302.29" y1="43.5" x2="262.21" y2="43.5"/><line x1="327.79" y1="39.86" x2="322.93" y2="49.57"/><line x1="322.93" y1="69" x2="327.79" y2="73.86"/><line x1="327.79" y1="88.43" x2="315.64" y2="100.57"/><line x1="315.64" y1="100.57" x2="315.64" y2="105.43"/><line x1="310.79" y1="115.14" x2="310.79" y2="124.86"/><line x1="320.5" y1="168.57" x2="315.64" y2="178.29"/><line x1="315.64" y1="178.29" x2="315.64" y2="185.57"/><line x1="315.64" y1="185.57" x2="320.5" y2="188"/><line x1="325.36" y1="202.57" x2="325.36" y2="209.86"/><line x1="320.5" y1="214.71" x2="313.21" y2="214.71"/><line x1="288.93" y1="195.29" x2="281.64" y2="195.29"/><line x1="262.21" y1="205" x2="252.5" y2="209.86"/><line x1="247.64" y1="209.86" x2="235.5" y2="202.57"/><line x1="230.64" y1="205" x2="230.64" y2="200.14"/><line x1="245.21" y1="214.71" x2="230.64" y2="205"/><line x1="254.93" y1="214.71" x2="245.21" y2="214.71"/><line x1="264.64" y1="209.86" x2="254.93" y2="214.71"/><line x1="269.5" y1="205" x2="264.64" y2="209.86"/><line x1="284.07" y1="200.14" x2="269.5" y2="205"/><line x1="286.5" y1="200.14" x2="284.07" y2="200.14"/><line x1="291.36" y1="202.57" x2="286.5" y2="200.14"/><line x1="298.64" y1="214.71" x2="291.36" y2="202.57"/><line x1="310.79" y1="219.57" x2="298.64" y2="214.71"/><line x1="322.93" y1="219.57" x2="310.79" y2="219.57"/><line x1="330.21" y1="212.29" x2="322.93" y2="219.57"/><line x1="330.21" y1="200.14" x2="330.21" y2="212.29"/><line x1="325.36" y1="185.57" x2="330.21" y2="200.14"/><line x1="320.5" y1="183.14" x2="325.36" y2="185.57"/><line x1="320.5" y1="180.71" x2="320.5" y2="183.14"/><line x1="325.36" y1="171" x2="320.5" y2="180.71"/><line x1="325.36" y1="156.43" x2="325.36" y2="171"/><line x1="320.5" y1="146.71" x2="325.36" y2="156.43"/><line x1="320.5" y1="132.14" x2="320.5" y2="146.71"/><line x1="315.64" y1="122.43" x2="320.5" y2="132.14"/><line x1="315.64" y1="117.57" x2="315.64" y2="122.43"/><line x1="320.5" y1="107.86" x2="315.64" y2="117.57"/><line x1="320.5" y1="103" x2="320.5" y2="107.86"/><line x1="332.64" y1="90.86" x2="320.5" y2="103"/><line x1="332.64" y1="71.43" x2="332.64" y2="90.86"/><line x1="327.79" y1="66.57" x2="332.64" y2="71.43"/><line x1="327.79" y1="52" x2="327.79" y2="66.57"/><line x1="332.64" y1="42.29" x2="327.79" y2="52"/><line x1="332.64" y1="32.57" x2="332.64" y2="42.29"/><line x1="320.5" y1="20.43" x2="332.64" y2="32.57"/><line x1="305.93" y1="20.43" x2="320.5" y2="20.43"/><line x1="291.36" y1="25.29" x2="305.93" y2="20.43"/><line x1="279.21" y1="25.29" x2="291.36" y2="25.29"/><line x1="259.79" y1="30.14" x2="279.21" y2="25.29"/><line x1="262.21" y1="35.61" x2="281.95" y2="30.75"/><line x1="281.95" y1="30.75" x2="294.09" y2="30.75"/><line x1="294.09" y1="30.75" x2="308.66" y2="25.89"/><line x1="308.66" y1="25.89" x2="317.77" y2="25.89"/><line x1="317.77" y1="25.89" x2="327.18" y2="35.3"/><line x1="327.18" y1="35.3" x2="327.18" y2="39.55"/><line x1="327.18" y1="39.55" x2="322.32" y2="49.27"/><line x1="322.32" y1="49.27" x2="322.32" y2="69.3"/><line x1="322.32" y1="69.3" x2="327.18" y2="74.16"/><line x1="327.18" y1="74.16" x2="327.18" y2="88.13"/><line x1="327.18" y1="88.13" x2="315.04" y2="100.27"/><line x1="315.04" y1="100.27" x2="315.04" y2="105.13"/><line x1="315.04" y1="105.13" x2="310.18" y2="114.84"/><line x1="310.18" y1="114.84" x2="310.18" y2="125.16"/><line x1="310.18" y1="125.16" x2="315.04" y2="134.57"/><line x1="315.04" y1="134.57" x2="315.04" y2="149.45"/><line x1="315.04" y1="149.45" x2="319.89" y2="159.16"/><line x1="319.89" y1="159.16" x2="319.89" y2="168.27"/><line x1="319.89" y1="168.27" x2="315.04" y2="177.98"/><line x1="315.04" y1="177.98" x2="315.04" y2="185.88"/><line x1="315.04" y1="185.88" x2="319.89" y2="188.3"/><line x1="319.89" y1="188.3" x2="324.75" y2="202.88"/><line x1="324.75" y1="202.88" x2="324.75" y2="209.55"/><line x1="324.75" y1="209.55" x2="320.2" y2="214.11"/><line x1="320.2" y1="214.11" x2="313.52" y2="214.11"/><line x1="313.52" y1="214.11" x2="301.38" y2="209.25"/><line x1="135.93" y1="49.57" x2="155.36" y2="54.43"/><line x1="126.21" y1="49.57" x2="135.93" y2="49.57"/><line x1="116.5" y1="59.29" x2="126.21" y2="49.57"/><line x1="111.64" y1="61.71" x2="116.5" y2="59.29"/><line x1="97.07" y1="71.43" x2="106.79" y2="66.57"/><line x1="92.21" y1="76.29" x2="97.07" y2="71.43"/><line x1="92.21" y1="86" x2="92.21" y2="76.29"/><line x1="97.07" y1="90.86" x2="92.21" y2="86"/><line x1="101.93" y1="100.57" x2="97.07" y2="90.86"/><line x1="101.93" y1="115.14" x2="101.93" y2="100.57"/><line x1="109.21" y1="129.71" x2="101.93" y2="115.14"/><line x1="109.21" y1="137" x2="109.21" y2="129.71"/><line x1="106.79" y1="141.86" x2="109.21" y2="137"/><line x1="104.36" y1="151.57" x2="106.79" y2="141.86"/><line x1="104.36" y1="161.29" x2="104.36" y2="151.57"/><line x1="111.64" y1="175.86" x2="104.36" y2="161.29"/><line x1="116.5" y1="180.71" x2="111.64" y2="175.86"/><line x1="118.93" y1="185.57" x2="116.5" y2="180.71"/><line x1="133.5" y1="195.29" x2="128.64" y2="190.43"/><line x1="148.07" y1="197.71" x2="143.21" y2="197.71"/><line x1="157.79" y1="49.57" x2="167.5" y2="49.57"/><line x1="138.36" y1="44.71" x2="157.79" y2="49.57"/><line x1="123.79" y1="44.71" x2="138.36" y2="44.71"/><line x1="114.07" y1="54.43" x2="123.79" y2="44.71"/><line x1="109.21" y1="56.86" x2="114.07" y2="54.43"/><line x1="104.36" y1="61.71" x2="109.21" y2="56.86"/><line x1="94.64" y1="66.57" x2="104.36" y2="61.71"/><line x1="87.36" y1="73.86" x2="94.64" y2="66.57"/><line x1="87.36" y1="88.43" x2="87.36" y2="73.86"/><line x1="92.21" y1="93.29" x2="87.36" y2="88.43"/><line x1="97.07" y1="103" x2="92.21" y2="93.29"/><line x1="97.07" y1="117.57" x2="97.07" y2="103"/><line x1="104.36" y1="132.14" x2="97.07" y2="117.57"/><line x1="104.36" y1="134.57" x2="104.36" y2="132.14"/><line x1="101.93" y1="139.43" x2="104.36" y2="134.57"/><line x1="99.5" y1="149.14" x2="101.93" y2="139.43"/><line x1="99.5" y1="161.29" x2="99.5" y2="149.14"/><line x1="106.79" y1="178.29" x2="99.5" y2="161.29"/><line x1="114.07" y1="185.57" x2="106.79" y2="178.29"/><line x1="116.5" y1="190.43" x2="114.07" y2="185.57"/><line x1="126.21" y1="195.29" x2="116.5" y2="190.43"/><line x1="131.07" y1="200.14" x2="126.21" y2="195.29"/><line x1="157.79" y1="202.57" x2="140.79" y2="202.57"/><line x1="140.79" y1="202.57" x2="131.07" y2="200.14"/><line x1="147.46" y1="197.11" x2="143.52" y2="197.11"/><line x1="143.52" y1="197.11" x2="133.8" y2="194.68"/><line x1="133.8" y1="194.68" x2="128.95" y2="189.82"/><line x1="128.95" y1="189.82" x2="119.23" y2="184.96"/><line x1="119.23" y1="184.96" x2="116.8" y2="180.11"/><line x1="116.8" y1="180.11" x2="112.25" y2="175.55"/><line x1="112.25" y1="175.55" x2="104.96" y2="160.98"/><line x1="104.96" y1="160.98" x2="104.96" y2="151.88"/><line x1="104.96" y1="151.88" x2="107.39" y2="142.16"/><line x1="107.39" y1="142.16" x2="109.82" y2="137.3"/><line x1="109.82" y1="137.3" x2="109.82" y2="129.41"/><line x1="109.82" y1="129.41" x2="102.54" y2="114.84"/><line x1="102.54" y1="114.84" x2="102.54" y2="100.27"/><line x1="102.54" y1="100.27" x2="97.68" y2="90.55"/><line x1="97.68" y1="90.55" x2="92.82" y2="85.7"/><line x1="92.82" y1="85.7" x2="92.82" y2="76.59"/><line x1="92.82" y1="76.59" x2="97.38" y2="72.04"/><line x1="97.38" y1="72.04" x2="107.09" y2="67.18"/><line x1="107.09" y1="67.18" x2="111.95" y2="62.32"/><line x1="111.95" y1="62.32" x2="116.8" y2="59.89"/><line x1="116.8" y1="59.89" x2="126.52" y2="50.18"/><line x1="126.52" y1="50.18" x2="135.63" y2="50.18"/><line x1="135.63" y1="50.18" x2="155.05" y2="55.04"/><line x1="155.05" y1="55.04" x2="165.07" y2="55.04"/><line x1="305.93" y1="188" x2="302.29" y2="194.3"/><line x1="302.29" y1="194.3" x2="308.58" y2="197.94"/><line x1="308.58" y1="197.94" x2="312.23" y2="191.64"/><line x1="312.23" y1="191.64" x2="305.93" y2="188"/><line x1="305.7" y1="187.17" x2="301.45" y2="194.53"/><line x1="301.45" y1="194.53" x2="308.81" y2="198.78"/><line x1="308.81" y1="198.78" x2="313.06" y2="191.42"/><line x1="313.06" y1="191.42" x2="305.7" y2="187.17"/><line x1="305.17" y1="188.99" x2="302.74" y2="193.16"/><line x1="168.71" y1="83.57" x2="168.71" y2="73.86"/><line x1="146.86" y1="154" x2="146.86" y2="141.86"/></g><g stroke="#d3b15b" stroke-width="2.4" stroke-linecap="round"><line x1="199.07" y1="83.57" x2="197.86" y2="82.36"/><line x1="196.04" y1="104.21" x2="197.25" y2="105.43"/><line x1="189.36" y1="180.71" x2="186.93" y2="179.5"/><line x1="189.36" y1="93.29" x2="186.93" y2="98.14"/><line x1="233.07" y1="98.14" x2="233.07" y2="105.43"/><line x1="206.36" y1="117.57" x2="207.57" y2="115.14"/><line x1="223.36" y1="137" x2="223.36" y2="141.86"/><line x1="188.75" y1="104.21" x2="196.04" y2="104.21"/><line x1="184.5" y1="105.43" x2="185.71" y2="105.43"/><line x1="184.5" y1="59.29" x2="203.93" y2="59.29"/><line x1="206.36" y1="98.14" x2="199.07" y2="83.57"/><line x1="205.14" y1="47.14" x2="206.36" y2="45.93"/><line x1="206.36" y1="45.93" x2="208.79" y2="44.71"/><line x1="217.29" y1="47.14" x2="218.5" y2="49.57"/><line x1="218.5" y1="49.57" x2="218.5" y2="54.43"/><line x1="203.93" y1="59.29" x2="203.93" y2="58.68"/><line x1="218.5" y1="59.29" x2="221.54" y2="59.29"/><line x1="197.86" y1="133.36" x2="199.07" y2="132.14"/><line x1="165.07" y1="141.86" x2="165.07" y2="137"/><line x1="228.21" y1="161.29" x2="230.64" y2="161.29"/><line x1="223.36" y1="73.86" x2="223.36" y2="78.71"/><line x1="143.21" y1="173.43" x2="143.21" y2="175.86"/><line x1="169.93" y1="73.86" x2="169.93" y2="69"/><line x1="143.21" y1="158.86" x2="144.73" y2="158.86"/><line x1="179.64" y1="59.29" x2="184.5" y2="59.29"/><line x1="184.5" y1="156.43" x2="184.5" y2="158.86"/><line x1="257.36" y1="112.71" x2="262.21" y2="107.86"/><line x1="235.5" y1="47.14" x2="230.64" y2="47.14"/><line x1="148.07" y1="122.43" x2="143.21" y2="127.29"/><line x1="174.79" y1="61.71" x2="179.64" y2="59.29"/><line x1="262.21" y1="107.86" x2="262.21" y2="71.43"/><line x1="208.79" y1="103" x2="207.57" y2="100.57"/><line x1="207.57" y1="100.57" x2="206.36" y2="98.14"/><line x1="149.59" y1="107.55" x2="151.41" y2="107.55"/><line x1="187.54" y1="105.43" x2="188.75" y2="104.21"/><line x1="194.21" y1="132.14" x2="195.43" y2="133.36"/><line x1="172.36" y1="64.14" x2="174.79" y2="61.71"/><line x1="203.93" y1="56.86" x2="203.93" y2="54.43"/><line x1="160.21" y1="137" x2="155.36" y2="137"/><line x1="240.36" y1="175.86" x2="240.36" y2="171"/><line x1="240.36" y1="178.29" x2="240.36" y2="175.86"/><line x1="240.36" y1="120" x2="247.64" y2="112.71"/><line x1="231.86" y1="120" x2="230.64" y2="122.43"/><line x1="262.21" y1="59.29" x2="262.21" y2="56.86"/><line x1="247.64" y1="112.71" x2="257.36" y2="112.71"/><line x1="235.5" y1="171" x2="230.64" y2="171"/><line x1="218.5" y1="156.43" x2="218.5" y2="158.86"/><line x1="148.07" y1="158.86" x2="169.93" y2="158.86"/><line x1="169.93" y1="158.86" x2="169.93" y2="156.43"/><line x1="169.93" y1="156.43" x2="167.5" y2="156.43"/><line x1="240.36" y1="190.43" x2="240.36" y2="178.29"/><line x1="262.21" y1="35.61" x2="262.21" y2="35"/><line x1="262.21" y1="56.86" x2="262.21" y2="44.71"/><line x1="160.21" y1="95.71" x2="165.07" y2="93.29"/><line x1="151.41" y1="107.55" x2="151.41" y2="107.86"/><line x1="149.59" y1="117.57" x2="148.07" y2="117.57"/><line x1="216.07" y1="45.93" x2="217.29" y2="47.14"/><line x1="151.41" y1="117.57" x2="151.41" y2="117.88"/><line x1="197.25" y1="105.43" x2="197.25" y2="110.29"/><line x1="148.07" y1="173.43" x2="143.21" y2="173.43"/><line x1="203.93" y1="156.43" x2="184.5" y2="156.43"/><line x1="184.5" y1="158.86" x2="203.93" y2="158.86"/><line x1="218.5" y1="158.86" x2="225.79" y2="158.86"/><line x1="155.36" y1="100.57" x2="160.21" y2="95.71"/><line x1="151.41" y1="117.88" x2="149.59" y2="117.88"/><line x1="213.64" y1="44.71" x2="216.07" y2="45.93"/><line x1="149.59" y1="117.88" x2="149.59" y2="117.57"/><line x1="185.71" y1="105.43" x2="186.32" y2="105.43"/><line x1="152.93" y1="105.43" x2="155.36" y2="100.57"/><line x1="169.93" y1="69" x2="172.36" y2="64.14"/><line x1="203.93" y1="158.86" x2="203.93" y2="156.43"/><line x1="208.79" y1="44.71" x2="213.64" y2="44.71"/><line x1="168.41" y1="83.88" x2="166.59" y2="83.88"/><line x1="168.41" y1="83.57" x2="168.41" y2="83.88"/><line x1="166.59" y1="83.88" x2="166.59" y2="83.57"/><line x1="151.41" y1="107.86" x2="152.93" y2="107.86"/><line x1="223.36" y1="141.86" x2="235.5" y2="141.86"/><line x1="240.36" y1="154" x2="237.32" y2="154"/><line x1="223.36" y1="154" x2="223.36" y2="156.43"/><line x1="240.36" y1="141.86" x2="240.36" y2="120"/><line x1="148.07" y1="90.86" x2="148.07" y2="107.86"/><line x1="148.07" y1="117.57" x2="148.07" y2="122.43"/><line x1="169.93" y1="83.57" x2="168.71" y2="83.57"/><line x1="165.07" y1="73.86" x2="166.59" y2="73.86"/><line x1="165.07" y1="83.57" x2="162.64" y2="86"/><line x1="162.64" y1="86" x2="152.93" y2="86"/><line x1="152.93" y1="117.57" x2="151.41" y2="117.57"/><line x1="148.07" y1="107.86" x2="149.59" y2="107.86"/><line x1="165.07" y1="71.43" x2="165.07" y2="73.86"/><line x1="186.93" y1="98.14" x2="184.5" y2="103"/><line x1="197.86" y1="82.36" x2="195.43" y2="82.36"/><line x1="165.07" y1="137" x2="160.21" y2="137"/><line x1="203.93" y1="58.68" x2="203.93" y2="56.86"/><line x1="152.93" y1="107.86" x2="152.93" y2="105.43"/><line x1="230.64" y1="93.29" x2="231.86" y2="95.71"/><line x1="165.07" y1="93.29" x2="169.93" y2="93.29"/><line x1="184.5" y1="103" x2="184.5" y2="105.43"/><line x1="184.5" y1="112.71" x2="186.93" y2="117.57"/><line x1="207.57" y1="115.14" x2="208.79" y2="112.71"/><line x1="155.36" y1="137" x2="152.93" y2="134.57"/><line x1="152.93" y1="134.57" x2="152.93" y2="117.57"/><line x1="195.43" y1="133.36" x2="197.86" y2="133.36"/><line x1="169.93" y1="93.29" x2="169.93" y2="83.57"/><line x1="231.86" y1="95.71" x2="233.07" y2="98.14"/><line x1="233.07" y1="117.57" x2="231.86" y2="120"/><line x1="184.5" y1="110.29" x2="184.5" y2="112.71"/><line x1="195.43" y1="82.36" x2="194.21" y2="83.57"/><line x1="223.36" y1="156.43" x2="218.5" y2="156.43"/><line x1="191.79" y1="180.71" x2="189.36" y2="180.71"/><line x1="199.07" y1="132.14" x2="206.36" y2="117.57"/><line x1="194.21" y1="83.57" x2="191.79" y2="88.43"/><line x1="167.5" y1="156.43" x2="165.07" y2="154"/><line x1="221.54" y1="59.29" x2="223.36" y2="59.29"/><line x1="208.79" y1="112.71" x2="208.79" y2="110.29"/><line x1="230.64" y1="122.43" x2="223.36" y2="137"/><line x1="218.5" y1="56.86" x2="218.5" y2="58.68"/><line x1="223.36" y1="78.71" x2="230.64" y2="93.29"/><line x1="218.5" y1="58.68" x2="218.5" y2="59.29"/><line x1="245.21" y1="52" x2="247.64" y2="52"/><line x1="186.32" y1="105.43" x2="187.54" y2="105.43"/><line x1="186.93" y1="117.57" x2="194.21" y2="132.14"/><line x1="149.59" y1="107.86" x2="149.59" y2="107.55"/><line x1="165.07" y1="54.43" x2="165.07" y2="55.04"/><line x1="143.21" y1="175.86" x2="143.21" y2="178.29"/><line x1="143.21" y1="127.29" x2="143.21" y2="141.86"/><line x1="165.07" y1="69" x2="165.07" y2="71.43"/><line x1="152.93" y1="86" x2="148.07" y2="90.86"/><line x1="250.07" y1="42.29" x2="250.07" y2="47.14"/><line x1="235.5" y1="52" x2="235.5" y2="47.14"/><line x1="245.21" y1="47.14" x2="245.21" y2="52"/><line x1="225.79" y1="73.86" x2="223.36" y2="73.86"/><line x1="223.36" y1="59.29" x2="225.79" y2="59.29"/><line x1="225.79" y1="59.29" x2="227" y2="58.07"/><line x1="233.07" y1="52" x2="235.5" y2="52"/><line x1="247.64" y1="52" x2="256.14" y2="60.5"/><line x1="262.21" y1="61.71" x2="262.21" y2="59.29"/><line x1="257.36" y1="71.43" x2="256.14" y2="72.64"/><line x1="247.64" y1="81.14" x2="233.07" y2="81.14"/><line x1="233.07" y1="81.14" x2="227" y2="75.07"/><line x1="257.36" y1="61.71" x2="262.21" y2="61.71"/><line x1="262.21" y1="71.43" x2="257.36" y2="71.43"/><line x1="235.5" y1="161.29" x2="240.36" y2="161.29"/><line x1="240.36" y1="171" x2="235.5" y2="171"/><line x1="228.21" y1="171" x2="225.79" y2="173.43"/><line x1="240.36" y1="161.29" x2="240.36" y2="154"/><line x1="225.79" y1="158.86" x2="228.21" y2="161.29"/><line x1="225.79" y1="173.43" x2="199.07" y2="173.43"/><line x1="230.64" y1="171" x2="228.21" y2="171"/><line x1="230.64" y1="161.29" x2="235.5" y2="161.29"/><line x1="143.21" y1="154" x2="143.21" y2="158.86"/><line x1="143.21" y1="141.86" x2="144.73" y2="141.86"/><line x1="165.07" y1="154" x2="162.64" y2="154"/><line x1="148.07" y1="154" x2="146.86" y2="154"/><line x1="148.07" y1="141.86" x2="152.93" y2="141.86"/><line x1="152.93" y1="154" x2="148.07" y2="154"/><line x1="152.93" y1="141.86" x2="157.79" y2="141.86"/><line x1="157.79" y1="154" x2="152.93" y2="154"/><line x1="157.79" y1="141.86" x2="162.64" y2="141.86"/><line x1="144.73" y1="141.86" x2="144.73" y2="141.25"/><line x1="146.55" y1="141.86" x2="146.86" y2="141.86"/><line x1="144.73" y1="141.25" x2="146.55" y2="141.25"/><line x1="146.55" y1="141.25" x2="146.55" y2="141.86"/><line x1="144.73" y1="154" x2="143.21" y2="154"/><line x1="144.73" y1="154.61" x2="144.73" y2="154"/><line x1="146.55" y1="154.61" x2="144.73" y2="154.61"/><line x1="146.55" y1="154" x2="146.55" y2="154.61"/><line x1="162.64" y1="154" x2="157.79" y2="154"/><line x1="162.64" y1="141.86" x2="165.07" y2="141.86"/><line x1="191.79" y1="88.43" x2="189.36" y2="93.29"/><line x1="144.73" y1="158.86" x2="144.73" y2="158.25"/><line x1="144.73" y1="158.25" x2="146.55" y2="158.25"/><line x1="146.55" y1="158.86" x2="148.07" y2="158.86"/><line x1="146.55" y1="158.25" x2="146.55" y2="158.86"/><line x1="227" y1="75.07" x2="225.79" y2="73.86"/><line x1="227" y1="58.07" x2="233.07" y2="52"/><line x1="256.14" y1="60.5" x2="257.36" y2="61.71"/><line x1="256.14" y1="72.64" x2="247.64" y2="81.14"/><line x1="235.5" y1="141.86" x2="235.5" y2="141.25"/><line x1="235.5" y1="141.25" x2="237.32" y2="141.25"/><line x1="237.32" y1="141.25" x2="237.32" y2="141.86"/><line x1="237.32" y1="141.86" x2="240.36" y2="141.86"/><line x1="235.5" y1="154" x2="223.36" y2="154"/><line x1="235.5" y1="154.61" x2="235.5" y2="154"/><line x1="237.32" y1="154.61" x2="235.5" y2="154.61"/><line x1="237.32" y1="154" x2="237.32" y2="154.61"/><line x1="166.59" y1="73.86" x2="166.59" y2="73.55"/><line x1="168.41" y1="73.86" x2="168.71" y2="73.86"/><line x1="168.41" y1="73.55" x2="168.41" y2="73.86"/><line x1="166.59" y1="73.55" x2="168.41" y2="73.55"/><line x1="166.59" y1="83.57" x2="165.07" y2="83.57"/><line x1="203.93" y1="49.57" x2="205.14" y2="47.14"/><line x1="199.07" y1="173.43" x2="199.07" y2="175.86"/><line x1="174.79" y1="173.43" x2="148.07" y2="173.43"/><line x1="199.07" y1="175.86" x2="199.07" y2="180.71"/><line x1="194.21" y1="180.71" x2="191.79" y2="180.71"/><line x1="186.93" y1="179.5" x2="174.79" y2="173.43"/><line x1="199.07" y1="180.71" x2="194.21" y2="180.71"/><line x1="203.93" y1="54.43" x2="203.93" y2="49.57"/><line x1="218.5" y1="54.43" x2="218.5" y2="56.86"/><line x1="186.32" y1="110.29" x2="185.71" y2="110.29"/><line x1="187.54" y1="110.29" x2="186.32" y2="110.29"/><line x1="188.75" y1="111.5" x2="187.54" y2="110.29"/><line x1="196.04" y1="111.5" x2="188.75" y2="111.5"/><line x1="197.25" y1="110.29" x2="196.04" y2="111.5"/><line x1="185.71" y1="110.29" x2="184.5" y2="110.29"/><line x1="233.07" y1="105.43" x2="233.07" y2="110.29"/><line x1="233.07" y1="110.29" x2="233.07" y2="117.57"/><line x1="208.79" y1="110.29" x2="208.79" y2="105.43"/><line x1="208.79" y1="105.43" x2="208.79" y2="103"/><line x1="250.07" y1="47.14" x2="245.21" y2="47.14"/><line x1="230.64" y1="47.14" x2="230.64" y2="42.29"/><line x1="230.64" y1="42.29" x2="250.07" y2="42.29"/><line x1="262.21" y1="44.71" x2="262.21" y2="43.5"/><line x1="236.11" y1="197.11" x2="237.93" y2="195.29"/><line x1="240.36" y1="191.64" x2="240.36" y2="190.43"/><line x1="237.93" y1="195.29" x2="240.36" y2="192.86"/><line x1="240.36" y1="192.86" x2="240.36" y2="191.64"/><line x1="235.5" y1="197.71" x2="236.11" y2="197.11"/><line x1="262.21" y1="43.5" x2="262.21" y2="35.61"/><line x1="262.21" y1="35" x2="259.79" y2="30.14"/><line x1="230.64" y1="200.14" x2="235.5" y2="197.71"/><line x1="259.79" y1="30.14" x2="258.57" y2="27.71"/><line x1="258.57" y1="27.71" x2="278" y2="22.86"/><line x1="278" y1="22.86" x2="290.14" y2="22.86"/><line x1="290.14" y1="22.86" x2="304.71" y2="18"/><line x1="304.71" y1="18" x2="321.71" y2="18"/><line x1="321.71" y1="18" x2="335.07" y2="31.36"/><line x1="335.07" y1="31.36" x2="335.07" y2="43.5"/><line x1="335.07" y1="43.5" x2="330.21" y2="53.21"/><line x1="330.21" y1="53.21" x2="330.21" y2="65.36"/><line x1="330.21" y1="65.36" x2="335.07" y2="70.21"/><line x1="335.07" y1="70.21" x2="335.07" y2="92.07"/><line x1="335.07" y1="92.07" x2="322.93" y2="104.21"/><line x1="322.93" y1="104.21" x2="322.93" y2="109.07"/><line x1="322.93" y1="109.07" x2="318.07" y2="118.79"/><line x1="318.07" y1="118.79" x2="318.07" y2="121.21"/><line x1="318.07" y1="121.21" x2="322.93" y2="130.93"/><line x1="322.93" y1="130.93" x2="322.93" y2="145.5"/><line x1="322.93" y1="145.5" x2="327.79" y2="155.21"/><line x1="327.79" y1="155.21" x2="327.79" y2="172.21"/><line x1="327.79" y1="172.21" x2="322.93" y2="181.93"/><line x1="322.93" y1="181.93" x2="327.79" y2="184.36"/><line x1="327.79" y1="184.36" x2="332.64" y2="198.93"/><line x1="332.64" y1="198.93" x2="332.64" y2="213.5"/><line x1="332.64" y1="213.5" x2="324.14" y2="222"/><line x1="324.14" y1="222" x2="309.57" y2="222"/><line x1="309.57" y1="222" x2="297.43" y2="217.14"/><line x1="297.43" y1="217.14" x2="290.14" y2="205"/><line x1="290.14" y1="205" x2="285.29" y2="202.57"/><line x1="285.29" y1="202.57" x2="270.71" y2="207.43"/><line x1="270.71" y1="207.43" x2="265.86" y2="212.29"/><line x1="265.86" y1="212.29" x2="256.14" y2="217.14"/><line x1="256.14" y1="217.14" x2="244" y2="217.14"/><line x1="244" y1="217.14" x2="228.21" y2="206.21"/><line x1="228.21" y1="206.21" x2="228.21" y2="200.14"/><line x1="228.21" y1="200.14" x2="230.64" y2="200.14"/><line x1="143.21" y1="192.86" x2="147.46" y2="197.11"/><line x1="165.07" y1="52" x2="165.07" y2="54.43"/><line x1="143.21" y1="178.29" x2="143.21" y2="192.86"/><line x1="148.07" y1="197.71" x2="157.79" y2="202.57"/><line x1="167.5" y1="49.57" x2="165.07" y2="52"/><line x1="157.79" y1="202.57" x2="160.21" y2="205"/><line x1="160.21" y1="205" x2="139.57" y2="205"/><line x1="139.57" y1="205" x2="129.86" y2="202.57"/><line x1="129.86" y1="202.57" x2="125" y2="197.71"/><line x1="125" y1="197.71" x2="115.29" y2="192.86"/><line x1="115.29" y1="192.86" x2="112.86" y2="188"/><line x1="112.86" y1="188" x2="104.36" y2="179.5"/><line x1="104.36" y1="179.5" x2="97.07" y2="162.5"/><line x1="97.07" y1="162.5" x2="97.07" y2="147.93"/><line x1="97.07" y1="147.93" x2="99.5" y2="138.21"/><line x1="99.5" y1="138.21" x2="101.93" y2="133.36"/><line x1="101.93" y1="133.36" x2="94.64" y2="118.79"/><line x1="94.64" y1="118.79" x2="94.64" y2="104.21"/><line x1="94.64" y1="104.21" x2="89.79" y2="94.5"/><line x1="89.79" y1="94.5" x2="84.93" y2="89.64"/><line x1="84.93" y1="89.64" x2="84.93" y2="72.64"/><line x1="84.93" y1="72.64" x2="93.43" y2="64.14"/><line x1="93.43" y1="64.14" x2="103.14" y2="59.29"/><line x1="103.14" y1="59.29" x2="108" y2="54.43"/><line x1="108" y1="54.43" x2="112.86" y2="52"/><line x1="112.86" y1="52" x2="122.57" y2="42.29"/><line x1="122.57" y1="42.29" x2="139.57" y2="42.29"/><line x1="139.57" y1="42.29" x2="159" y2="47.14"/><line x1="159" y1="47.14" x2="169.93" y2="47.14"/><line x1="169.93" y1="47.14" x2="167.5" y2="49.57"/><line x1="147.46" y1="197.11" x2="148.07" y2="197.71"/><line x1="165.07" y1="55.04" x2="165.07" y2="69"/><line x1="168.71" y1="83.57" x2="168.41" y2="83.57"/><line x1="168.71" y1="73.86" x2="169.93" y2="73.86"/><line x1="146.86" y1="154" x2="146.55" y2="154"/><line x1="146.86" y1="141.86" x2="148.07" y2="141.86"/></g><g opacity="0.95"><circle cx="162.64" cy="105.43" r="3.2" fill="#b7493c"/><circle cx="162.64" cy="110.29" r="3.2" fill="#b7493c"/><circle cx="167.5" cy="105.43" r="3.2" fill="#b7493c"/><circle cx="167.5" cy="110.29" r="3.2" fill="#b7493c"/><circle cx="230.64" cy="107.86" r="2.2" fill="#d3b15b"/><circle cx="240.36" cy="50.79" r="2.2" fill="#d3b15b"/><circle cx="131.07" cy="73.86" r="3.2" fill="#b7493c"/><circle cx="131.07" cy="173.43" r="3.2" fill="#b7493c"/><circle cx="254.93" cy="173.43" r="3.2" fill="#b7493c"/><circle cx="274.36" cy="61.71" r="3.2" fill="#b7493c"/><circle cx="169.93" cy="122.43" r="3.2" fill="#b7493c"/><circle cx="159" cy="99.36" r="3.2" fill="#b7493c"/><circle cx="228.21" cy="123.64" r="3.2" fill="#b7493c"/><circle cx="228.21" cy="92.07" r="3.2" fill="#b7493c"/><circle cx="182.07" cy="60.5" r="3.2" fill="#b7493c"/><circle cx="211.21" cy="172.21" r="3.2" fill="#b7493c"/><circle cx="194.21" cy="160.68" r="2.2" fill="#d3b15b"/><circle cx="200.29" cy="160.68" r="2.2" fill="#d3b15b"/><circle cx="188.14" cy="160.68" r="2.2" fill="#d3b15b"/><circle cx="155.36" cy="134.57" r="2.2" fill="#d3b15b"/><circle cx="154.14" cy="132.14" r="2.2" fill="#d3b15b"/><circle cx="154.14" cy="129.71" r="2.2" fill="#d3b15b"/><circle cx="154.14" cy="127.29" r="2.2" fill="#d3b15b"/><circle cx="154.14" cy="124.86" r="2.2" fill="#d3b15b"/><circle cx="248.86" cy="113.93" r="2.2" fill="#d3b15b"/><circle cx="241.57" cy="121.21" r="2.2" fill="#d3b15b"/><circle cx="245.21" cy="117.57" r="2.2" fill="#d3b15b"/><circle cx="210.61" cy="107.86" r="2.2" fill="#d3b15b"/><circle cx="234.29" cy="79.32" r="2.2" fill="#d3b15b"/><circle cx="246.43" cy="79.93" r="2.2" fill="#d3b15b"/><circle cx="248.86" cy="78.11" r="2.2" fill="#d3b15b"/><circle cx="146.25" cy="121.82" r="2.2" fill="#d3b15b"/><circle cx="146.86" cy="119.39" r="2.2" fill="#d3b15b"/><circle cx="159" cy="160.07" r="2.2" fill="#d3b15b"/><circle cx="168.11" cy="155.21" r="2.2" fill="#d3b15b"/><circle cx="199.68" cy="82.36" r="2.2" fill="#d3b15b"/><circle cx="197.25" cy="81.14" r="2.2" fill="#d3b15b"/><circle cx="184.5" cy="119.39" r="2.2" fill="#d3b15b"/><circle cx="177.21" cy="119.39" r="2.2" fill="#d3b15b"/><circle cx="274.36" cy="124.86" r="2.2" fill="#d3b15b"/><circle cx="130.46" cy="123.64" r="2.2" fill="#d3b15b"/><circle cx="196.64" cy="135.18" r="2.2" fill="#d3b15b"/><circle cx="201.5" cy="61.11" r="2.2" fill="#d3b15b"/><circle cx="196.64" cy="61.11" r="2.2" fill="#d3b15b"/><circle cx="236.41" cy="142.16" r="2.2" fill="#d3b15b"/><circle cx="236.41" cy="153.7" r="2.2" fill="#d3b15b"/><circle cx="145.64" cy="142.16" r="2.2" fill="#d3b15b"/><circle cx="145.64" cy="153.7" r="2.2" fill="#d3b15b"/></g></svg>