<svg xmlns="http://www.w3.org/2000/svg" viewBox="0 0 420 240" role="img"><rect width="100%" height="100%" fill="#070706"/><g stroke="#5e5a4f" stroke-width="1.6" stroke-linecap="round"><line x1="154.36" y1="150.67" x2="154.36" y2="167.79"/><line x1="131.54" y1="144.97" x2="148.66" y2="144.97"/><line x1="170.06" y1="99.31" x2="162.92" y2="92.18"/><line x1="154.36" y1="122.14" x2="154.36" y2="105.02"/><line x1="228.55" y1="30.84" x2="239.96" y2="33.69"/><line x1="158.64" y1="53.66" x2="171.48" y2="36.55"/><line x1="175.76" y1="99.31" x2="162.92" y2="86.48"/><line x1="200.01" y1="187.05" x2="205.72" y2="188.48"/><line x1="148.66" y1="87.9" x2="148.66" y2="82.2"/><line x1="238.53" y1="107.87" x2="239.96" y2="107.87"/><line x1="239.96" y1="154.95" x2="239.96" y2="167.79"/><line x1="257.08" y1="75.06" x2="245.66" y2="75.06"/><line x1="197.16" y1="199.17" x2="197.16" y2="193.47"/><line x1="188.6" y1="106.45" x2="188.6" y2="96.46"/><line x1="246.38" y1="81.48" x2="240.67" y2="82.2"/><line x1="162.92" y1="89.33" x2="152.94" y2="99.31"/><line x1="292.74" y1="154.95" x2="288.46" y2="167.79"/><line x1="177.19" y1="127.85" x2="177.19" y2="116.43"/><line x1="219.99" y1="143.54" x2="222.84" y2="143.54"/><line x1="222.84" y1="129.27" x2="222.84" y2="143.54"/><line x1="158.64" y1="67.93" x2="158.64" y2="53.66"/><line x1="171.48" y1="36.55" x2="205.72" y2="27.99"/><line x1="182.9" y1="93.61" x2="185.75" y2="90.76"/><line x1="148.66" y1="82.2" x2="148.66" y2="79.34"/><line x1="148.66" y1="82.2" x2="137.24" y2="76.49"/><line x1="216.42" y1="147.82" x2="211.43" y2="147.82"/><line x1="228.55" y1="143.54" x2="231.4" y2="143.54"/><line x1="222.84" y1="143.54" x2="225.69" y2="143.54"/><line x1="148.66" y1="167.79" x2="148.66" y2="150.67"/><line x1="191.45" y1="110.73" x2="191.45" y2="99.31"/><line x1="171.48" y1="99.31" x2="170.06" y2="99.31"/><line x1="197.16" y1="93.61" x2="233.54" y2="93.61"/><line x1="188.6" y1="79.34" x2="234.25" y2="79.34"/><line x1="131.54" y1="133.55" x2="148.66" y2="133.55"/><line x1="225.69" y1="143.54" x2="228.55" y2="143.54"/><line x1="165.78" y1="149.24" x2="162.92" y2="149.24"/><line x1="192.88" y1="124.99" x2="192.88" y2="119.29"/><line x1="131.54" y1="139.26" x2="148.66" y2="139.26"/><line x1="182.9" y1="173.5" x2="182.9" y2="153.52"/><line x1="131.54" y1="150.67" x2="148.66" y2="150.67"/><line x1="225.69" y1="129.27" x2="225.69" y2="143.54"/><line x1="221.41" y1="124.99" x2="222.84" y2="127.85"/><line x1="177.19" y1="99.31" x2="177.19" y2="90.76"/><line x1="255.65" y1="85.05" x2="249.23" y2="84.34"/><line x1="257.08" y1="87.9" x2="252.08" y2="89.33"/><line x1="239.96" y1="127.85" x2="239.96" y2="116.43"/><line x1="237.1" y1="116.43" x2="237.1" y2="127.85"/><line x1="177.19" y1="90.76" x2="188.6" y2="79.34"/><line x1="194.31" y1="90.76" x2="234.25" y2="90.76"/><line x1="239.96" y1="186.34" x2="239.96" y2="179.2"/><line x1="174.34" y1="127.85" x2="174.34" y2="116.43"/><line x1="155.79" y1="99.31" x2="154.36" y2="99.31"/><line x1="170.06" y1="99.31" x2="155.79" y2="99.31"/><line x1="192.17" y1="97.17" x2="190.74" y2="94.32"/><line x1="222.84" y1="143.54" x2="222.84" y2="149.24"/><line x1="185.75" y1="147.82" x2="182.9" y2="149.24"/><line x1="148.66" y1="122.14" x2="131.54" y2="122.14"/><line x1="131.54" y1="127.85" x2="148.66" y2="127.85"/><line x1="160.07" y1="134.98" x2="160.07" y2="133.55"/><line x1="154.36" y1="134.98" x2="160.07" y2="134.98"/><line x1="222.84" y1="179.2" x2="217.13" y2="180.63"/><line x1="217.13" y1="180.63" x2="211.43" y2="179.2"/><line x1="239.96" y1="154.95" x2="257.08" y2="154.95"/><line x1="234.25" y1="154.95" x2="234.25" y2="167.79"/><line x1="205.72" y1="119.29" x2="202.87" y2="120.71"/><line x1="252.8" y1="199.17" x2="248.52" y2="203.45"/><line x1="257.08" y1="125.71" x2="257.08" y2="143.54"/><line x1="272.77" y1="127.85" x2="272.77" y2="129.27"/><line x1="274.91" y1="143.54" x2="274.91" y2="129.27"/><line x1="257.08" y1="154.95" x2="257.08" y2="167.79"/><line x1="112.99" y1="144.97" x2="114.78" y2="139.26"/><line x1="134.39" y1="159.23" x2="131.54" y2="158.16"/><line x1="162.92" y1="149.24" x2="160.07" y2="149.24"/><line x1="228.55" y1="214.87" x2="222.84" y2="214.87"/><line x1="222.84" y1="214.87" x2="218.56" y2="216.29"/><line x1="218.56" y1="216.29" x2="217.13" y2="219.15"/><line x1="235.68" y1="213.44" x2="229.97" y2="209.87"/><line x1="114.42" y1="174.21" x2="114.42" y2="162.08"/><line x1="142.95" y1="156.38" x2="134.39" y2="159.23"/><line x1="140.1" y1="164.94" x2="142.95" y2="156.38"/><line x1="125.83" y1="173.5" x2="134.39" y2="170.64"/><line x1="125.83" y1="156.38" x2="128.69" y2="164.94"/><line x1="222.84" y1="129.27" x2="219.99" y2="129.27"/><line x1="239.96" y1="129.27" x2="239.96" y2="143.54"/><line x1="228.55" y1="129.27" x2="228.55" y2="143.54"/><line x1="231.4" y1="143.54" x2="234.25" y2="143.54"/><line x1="231.4" y1="129.27" x2="231.4" y2="143.54"/><line x1="234.25" y1="129.27" x2="234.25" y2="143.54"/><line x1="237.1" y1="129.27" x2="237.1" y2="143.54"/><line x1="160.07" y1="133.55" x2="160.07" y2="129.27"/><line x1="217.13" y1="180.63" x2="217.13" y2="168.86"/><line x1="254.22" y1="193.47" x2="252.8" y2="199.17"/><line x1="200.01" y1="184.91" x2="217.13" y2="184.91"/><line x1="194.31" y1="173.5" x2="194.31" y2="150.67"/><line x1="142.95" y1="184.91" x2="142.95" y2="186.34"/><line x1="172.91" y1="99.31" x2="162.92" y2="89.33"/><line x1="292.74" y1="154.95" x2="289.89" y2="167.79"/><line x1="165.78" y1="184.91" x2="160.07" y2="184.91"/><line x1="165.78" y1="186.34" x2="165.78" y2="184.91"/><line x1="142.95" y1="184.91" x2="125.83" y2="184.91"/><line x1="114.42" y1="162.08" x2="114.42" y2="150.67"/><line x1="124.05" y1="139.26" x2="125.83" y2="144.97"/><line x1="154.36" y1="184.91" x2="142.95" y2="184.91"/><line x1="114.42" y1="179.92" x2="114.42" y2="177.06"/><line x1="112.99" y1="162.08" x2="114.42" y2="162.08"/><line x1="225.69" y1="59.55" x2="231.4" y2="59.55"/><line x1="180.04" y1="59.55" x2="185.75" y2="59.55"/><line x1="288.46" y1="129.27" x2="292.74" y2="143.54"/><line x1="114.42" y1="177.06" x2="112.99" y2="177.06"/><line x1="115.85" y1="177.06" x2="114.42" y2="177.06"/><line x1="118.7" y1="177.78" x2="115.85" y2="177.06"/><line x1="289.89" y1="129.27" x2="292.74" y2="143.54"/><line x1="120.13" y1="174.92" x2="117.27" y2="174.21"/><line x1="125.12" y1="179.92" x2="124.41" y2="178.49"/><line x1="122.27" y1="186.34" x2="122.27" y2="184.91"/><line x1="125.83" y1="186.34" x2="125.83" y2="184.91"/><line x1="125.83" y1="184.91" x2="122.27" y2="184.91"/><line x1="121.55" y1="175.64" x2="120.13" y2="174.92"/><line x1="114.42" y1="174.21" x2="112.99" y2="174.21"/><line x1="125.83" y1="182.77" x2="125.12" y2="179.92"/><line x1="122.27" y1="184.91" x2="119.41" y2="184.91"/><line x1="125.83" y1="184.91" x2="125.83" y2="182.77"/><line x1="274.91" y1="154.95" x2="274.91" y2="167.79"/><line x1="162.92" y1="92.18" x2="155.79" y2="99.31"/><line x1="162.92" y1="86.48" x2="150.08" y2="99.31"/><line x1="224.27" y1="167.79" x2="234.25" y2="167.79"/><line x1="222.84" y1="150.67" x2="217.13" y2="150.67"/><line x1="200.01" y1="172.43" x2="194.31" y2="173.5"/><line x1="222.84" y1="150.67" x2="222.84" y2="167.79"/><line x1="222.84" y1="150.67" x2="234.25" y2="150.67"/><line x1="200.01" y1="172.43" x2="200.01" y2="180.63"/><line x1="217.13" y1="184.91" x2="217.13" y2="180.63"/><line x1="200.01" y1="149.24" x2="200.01" y2="150.67"/><line x1="200.01" y1="150.67" x2="200.01" y2="172.43"/><line x1="194.31" y1="149.24" x2="193.59" y2="147.82"/><line x1="205.72" y1="147.82" x2="200.73" y2="147.82"/><line x1="200.01" y1="150.67" x2="194.31" y2="150.67"/><line x1="217.13" y1="149.24" x2="216.42" y2="147.82"/><line x1="200.01" y1="180.63" x2="200.01" y2="184.91"/><line x1="200.01" y1="180.63" x2="194.31" y2="179.2"/><line x1="248.52" y1="110.73" x2="245.66" y2="110.73"/><line x1="274.91" y1="129.27" x2="277.76" y2="129.27"/><line x1="191.45" y1="97.89" x2="192.17" y2="98.6"/><line x1="192.88" y1="97.89" x2="192.17" y2="97.17"/><line x1="190.03" y1="95.03" x2="191.45" y2="97.89"/><line x1="257.79" y1="92.18" x2="252.8" y2="94.32"/><line x1="192.17" y1="98.6" x2="192.88" y2="97.89"/><line x1="245.66" y1="110.73" x2="245.66" y2="105.02"/><line x1="190.74" y1="94.32" x2="194.31" y2="90.76"/><line x1="187.17" y1="92.9" x2="186.46" y2="90.04"/><line x1="190.03" y1="93.61" x2="187.17" y2="92.9"/><line x1="190.74" y1="94.32" x2="190.03" y2="93.61"/><line x1="192.88" y1="97.89" x2="197.16" y2="93.61"/><line x1="189.31" y1="94.32" x2="190.03" y2="95.03"/><line x1="186.46" y1="93.61" x2="189.31" y2="94.32"/><line x1="185.75" y1="90.76" x2="186.46" y2="93.61"/><line x1="190.03" y1="95.03" x2="190.74" y2="94.32"/><line x1="186.46" y1="90.04" x2="185.75" y2="89.33"/><line x1="185.75" y1="90.76" x2="186.46" y2="90.04"/><line x1="185.03" y1="90.04" x2="185.75" y2="90.76"/><line x1="181.47" y1="87.19" x2="180.76" y2="88.62"/><line x1="183.61" y1="86.48" x2="181.47" y2="87.19"/><line x1="165.78" y1="173.5" x2="171.48" y2="173.5"/><line x1="160.07" y1="173.5" x2="160.07" y2="184.91"/><line x1="165.78" y1="173.5" x2="165.78" y2="184.91"/><line x1="232.83" y1="172.07" x2="225.69" y2="172.07"/><line x1="205.72" y1="188.48" x2="211.43" y2="188.48"/><line x1="211.43" y1="188.48" x2="217.13" y2="187.05"/><line x1="232.83" y1="174.92" x2="225.69" y2="177.78"/><line x1="200.01" y1="190.62" x2="217.13" y2="190.62"/><line x1="234.25" y1="177.78" x2="228.55" y2="183.48"/><line x1="208.57" y1="119.29" x2="205.72" y2="119.29"/><line x1="205.72" y1="179.2" x2="200.01" y2="180.63"/><line x1="237.1" y1="179.2" x2="234.25" y2="186.34"/><line x1="208.57" y1="124.99" x2="211.43" y2="123.57"/><line x1="117.27" y1="152.1" x2="114.42" y2="150.67"/><line x1="171.48" y1="173.5" x2="171.48" y2="184.91"/><line x1="171.48" y1="173.5" x2="182.9" y2="173.5"/><line x1="211.43" y1="179.2" x2="205.72" y2="179.2"/><line x1="217.13" y1="168.86" x2="200.01" y2="172.43"/><line x1="222.84" y1="167.79" x2="217.13" y2="168.86"/><line x1="217.13" y1="168.86" x2="217.13" y2="150.67"/><line x1="211.43" y1="147.82" x2="205.72" y2="147.82"/><line x1="229.26" y1="147.82" x2="223.55" y2="147.82"/><line x1="193.59" y1="147.82" x2="187.89" y2="147.82"/><line x1="234.25" y1="147.82" x2="229.26" y2="147.82"/><line x1="223.55" y1="147.82" x2="222.84" y2="149.24"/><line x1="222.84" y1="149.24" x2="222.84" y2="150.67"/><line x1="217.13" y1="150.67" x2="217.13" y2="149.24"/><line x1="200.73" y1="147.82" x2="200.01" y2="149.24"/><line x1="194.31" y1="150.67" x2="194.31" y2="149.24"/><line x1="187.89" y1="147.82" x2="185.75" y2="147.82"/><line x1="219.99" y1="129.27" x2="219.99" y2="143.54"/><line x1="193.59" y1="193.47" x2="193.59" y2="199.17"/><line x1="195.73" y1="199.17" x2="195.73" y2="193.47"/><line x1="195.02" y1="193.47" x2="195.02" y2="199.17"/><line x1="178.62" y1="149.24" x2="165.78" y2="149.24"/><line x1="259.93" y1="127.4" x2="262.78" y2="129.27"/><line x1="191.45" y1="85.05" x2="235.68" y2="85.05"/><line x1="182.9" y1="102.17" x2="182.9" y2="93.61"/><line x1="171.48" y1="36.55" x2="168.63" y2="25.13"/><line x1="148.66" y1="79.34" x2="158.64" y2="67.93"/><line x1="208.57" y1="18" x2="205.72" y2="27.99"/><line x1="205.72" y1="27.99" x2="228.55" y2="30.84"/><line x1="228.55" y1="30.84" x2="231.4" y2="20.85"/><line x1="257.08" y1="119.29" x2="254.22" y2="119.29"/><line x1="128.69" y1="164.94" x2="125.83" y2="173.5"/><line x1="134.39" y1="170.64" x2="142.95" y2="173.5"/><line x1="141.17" y1="167.79" x2="140.1" y2="164.94"/><line x1="162.92" y1="173.5" x2="165.78" y2="173.5"/><line x1="160.07" y1="149.24" x2="154.36" y2="149.24"/><line x1="165.78" y1="149.24" x2="154.36" y2="137.83"/><line x1="288.46" y1="144.25" x2="277.05" y2="144.25"/><line x1="162.92" y1="149.24" x2="154.36" y2="140.69"/><line x1="114.42" y1="177.06" x2="114.42" y2="174.21"/><line x1="160.07" y1="149.24" x2="154.36" y2="143.54"/><line x1="242.81" y1="105.02" x2="242.81" y2="107.87"/><line x1="242.81" y1="107.87" x2="239.96" y2="107.87"/><line x1="245.66" y1="105.02" x2="242.81" y2="105.02"/><line x1="124.41" y1="178.49" x2="121.55" y2="175.64"/><line x1="117.27" y1="174.21" x2="114.42" y2="174.21"/><line x1="171.48" y1="105.02" x2="154.36" y2="105.02"/><line x1="262.78" y1="129.27" x2="262.78" y2="127.85"/><line x1="188.6" y1="96.46" x2="190.03" y2="95.03"/><line x1="277.05" y1="143.54" x2="288.46" y2="143.54"/><line x1="277.05" y1="154.95" x2="288.46" y2="154.95"/><line x1="191.45" y1="99.31" x2="192.17" y2="98.6"/><line x1="288.46" y1="153.52" x2="277.05" y2="153.52"/><line x1="277.05" y1="154.24" x2="288.46" y2="154.24"/><line x1="277.05" y1="144.97" x2="288.46" y2="144.97"/><line x1="154.36" y1="122.14" x2="148.66" y2="105.02"/><line x1="114.78" y1="139.26" x2="124.05" y2="139.26"/><line x1="229.97" y1="209.87" x2="221.41" y2="209.87"/><line x1="221.41" y1="209.87" x2="215.71" y2="213.44"/><line x1="127.26" y1="157.8" x2="130.11" y2="164.94"/><line x1="130.11" y1="164.94" x2="127.26" y2="172.07"/><line x1="127.26" y1="172.07" x2="134.39" y2="169.22"/><line x1="134.39" y1="169.22" x2="141.52" y2="172.07"/><line x1="141.52" y1="172.07" x2="138.67" y2="164.94"/><line x1="138.67" y1="164.94" x2="141.52" y2="157.8"/><line x1="141.52" y1="157.8" x2="134.39" y2="160.66"/><line x1="134.39" y1="160.66" x2="127.26" y2="157.8"/><line x1="114.42" y1="144.97" x2="115.85" y2="140.69"/><line x1="115.85" y1="140.69" x2="122.98" y2="140.69"/><line x1="122.98" y1="140.69" x2="124.41" y2="144.97"/><line x1="124.41" y1="150.67" x2="121.55" y2="152.1"/><line x1="121.55" y1="152.1" x2="117.27" y2="152.1"/><line x1="228.55" y1="192.04" x2="228.55" y2="197.75"/><line x1="228.55" y1="197.75" x2="231.4" y2="204.88"/><line x1="219.99" y1="204.88" x2="222.84" y2="197.75"/><line x1="222.84" y1="197.75" x2="222.84" y2="192.04"/><line x1="222.84" y1="192.04" x2="228.55" y2="192.04"/><line x1="219.99" y1="204.88" x2="212.85" y2="204.88"/><line x1="231.4" y1="204.88" x2="219.99" y2="204.88"/><line x1="238.53" y1="204.88" x2="231.4" y2="204.88"/><line x1="248.52" y1="203.45" x2="242.81" y2="204.88"/><line x1="239.96" y1="173.5" x2="254.22" y2="173.5"/><line x1="234.25" y1="219.15" x2="232.83" y2="216.29"/><line x1="232.83" y1="216.29" x2="228.55" y2="214.87"/><line x1="191.45" y1="133.55" x2="191.45" y2="129.27"/><line x1="171.48" y1="129.27" x2="171.48" y2="133.55"/><line x1="177.19" y1="133.55" x2="191.45" y2="133.55"/><line x1="171.48" y1="133.55" x2="177.19" y2="133.55"/><line x1="177.19" y1="129.27" x2="177.19" y2="133.55"/><line x1="165.78" y1="129.27" x2="165.78" y2="133.55"/><line x1="165.78" y1="133.55" x2="171.48" y2="133.55"/><line x1="154.36" y1="133.55" x2="160.07" y2="133.55"/><line x1="160.07" y1="133.55" x2="165.78" y2="133.55"/><line x1="272.77" y1="143.54" x2="261.36" y2="143.54"/><line x1="261.36" y1="154.95" x2="272.77" y2="154.95"/><line x1="272.77" y1="144.25" x2="261.36" y2="144.25"/><line x1="261.36" y1="154.24" x2="272.77" y2="154.24"/><line x1="272.77" y1="153.52" x2="261.36" y2="153.52"/><line x1="261.36" y1="144.97" x2="272.77" y2="144.97"/><line x1="257.08" y1="149.24" x2="239.96" y2="149.24"/><line x1="259.93" y1="167.79" x2="259.93" y2="154.95"/><line x1="259.93" y1="143.54" x2="259.93" y2="127.4"/><line x1="180.76" y1="88.62" x2="181.47" y2="90.04"/><line x1="181.47" y1="90.04" x2="182.9" y2="90.76"/><line x1="182.9" y1="90.76" x2="185.03" y2="90.04"/><line x1="186.46" y1="90.04" x2="191.45" y2="85.05"/><line x1="185.75" y1="89.33" x2="185.03" y2="87.9"/><line x1="185.03" y1="87.9" x2="183.61" y2="86.48"/><line x1="239.96" y1="105.73" x2="238.53" y2="105.73"/><line x1="239.96" y1="112.15" x2="239.96" y2="111.44"/><line x1="239.96" y1="107.87" x2="239.96" y2="105.73"/><line x1="255.65" y1="79.34" x2="251.37" y2="77.92"/><line x1="232.83" y1="96.46" x2="229.97" y2="102.17"/><line x1="229.97" y1="102.17" x2="230.69" y2="107.87"/><line x1="257.08" y1="110.73" x2="254.22" y2="110.73"/><line x1="254.22" y1="110.73" x2="254.22" y2="105.02"/><line x1="254.22" y1="105.02" x2="251.37" y2="105.02"/><line x1="251.37" y1="105.02" x2="251.37" y2="107.87"/><line x1="251.37" y1="107.87" x2="248.52" y2="107.87"/><line x1="248.52" y1="107.87" x2="248.52" y2="110.73"/><line x1="257.08" y1="101.45" x2="249.94" y2="98.6"/><line x1="249.94" y1="98.6" x2="237.82" y2="100.03"/><line x1="256.36" y1="113.58" x2="253.51" y2="111.44"/><line x1="253.51" y1="111.44" x2="250.66" y2="112.87"/><line x1="250.66" y1="112.87" x2="249.94" y2="110.01"/><line x1="249.94" y1="110.01" x2="248.52" y2="111.44"/><line x1="248.52" y1="111.44" x2="244.95" y2="112.15"/><line x1="244.95" y1="112.15" x2="242.81" y2="110.73"/><line x1="242.81" y1="110.73" x2="239.96" y2="111.44"/><line x1="239.96" y1="111.44" x2="239.96" y2="107.87"/><line x1="245.66" y1="75.06" x2="238.53" y2="76.49"/><line x1="251.37" y1="77.92" x2="239.24" y2="79.34"/><line x1="254.94" y1="82.2" x2="246.38" y2="81.48"/><line x1="249.23" y1="84.34" x2="239.96" y2="85.05"/><line x1="243.52" y1="87.9" x2="237.82" y2="90.76"/><line x1="252.08" y1="89.33" x2="243.52" y2="87.9"/><line x1="243.52" y1="94.32" x2="239.24" y2="96.46"/><line x1="252.8" y1="94.32" x2="243.52" y2="94.32"/><line x1="257.08" y1="116.43" x2="257.08" y2="119.29"/><line x1="262.78" y1="62.22" x2="258.5" y2="73.64"/><line x1="262.78" y1="129.27" x2="268.49" y2="129.27"/><line x1="268.49" y1="127.85" x2="268.49" y2="129.27"/><line x1="272.77" y1="129.27" x2="274.91" y2="129.27"/><line x1="268.49" y1="129.27" x2="272.77" y2="129.27"/><line x1="257.08" y1="125.71" x2="258.5" y2="127.13"/><line x1="257.08" y1="122.14" x2="257.08" y2="125.71"/><line x1="254.22" y1="122.14" x2="257.08" y2="122.14"/><line x1="254.22" y1="119.29" x2="254.22" y2="122.14"/><line x1="268.49" y1="64.36" x2="265.64" y2="73.64"/><line x1="265.64" y1="73.64" x2="260.64" y2="77.92"/><line x1="272.77" y1="80.06" x2="266.35" y2="82.91"/><line x1="266.35" y1="82.91" x2="262.07" y2="84.34"/><line x1="277.76" y1="107.16" x2="271.34" y2="110.73"/><line x1="271.34" y1="110.73" x2="264.92" y2="107.87"/><line x1="262.78" y1="90.04" x2="268.49" y2="93.61"/><line x1="268.49" y1="93.61" x2="274.91" y2="91.47"/><line x1="261.36" y1="124.99" x2="261.36" y2="120.71"/><line x1="261.36" y1="120.71" x2="259.22" y2="120.71"/><line x1="259.22" y1="120.71" x2="259.22" y2="116.43"/><line x1="118.7" y1="182.06" x2="117.27" y2="180.63"/><line x1="117.27" y1="180.63" x2="114.42" y2="179.92"/><line x1="114.42" y1="184.91" x2="114.42" y2="179.92"/><line x1="119.41" y1="184.91" x2="114.42" y2="184.91"/><line x1="119.41" y1="184.91" x2="118.7" y2="182.06"/><line x1="114.42" y1="179.92" x2="112.99" y2="179.92"/><line x1="119.41" y1="186.34" x2="119.41" y2="184.91"/><line x1="122.27" y1="184.91" x2="122.27" y2="183.48"/><line x1="122.27" y1="183.48" x2="121.55" y2="180.63"/><line x1="121.55" y1="180.63" x2="118.7" y2="177.78"/><line x1="211.43" y1="123.57" x2="211.43" y2="120.71"/><line x1="211.43" y1="120.71" x2="208.57" y2="119.29"/><line x1="202.87" y1="120.71" x2="202.87" y2="123.57"/><line x1="205.72" y1="124.99" x2="208.57" y2="124.99"/><line x1="191.45" y1="127.85" x2="192.88" y2="124.99"/><line x1="192.88" y1="119.29" x2="191.45" y2="116.43"/><line x1="222.84" y1="116.43" x2="222.84" y2="127.85"/><line x1="191.45" y1="127.85" x2="191.45" y2="116.43"/><line x1="222.84" y1="116.43" x2="221.41" y2="119.29"/><line x1="221.41" y1="119.29" x2="221.41" y2="124.99"/><line x1="202.87" y1="123.57" x2="205.72" y2="124.99"/><line x1="191.45" y1="173.5" x2="185.75" y2="173.5"/></g><g stroke="#d3b15b" stroke-width="2.4" stroke-linecap="round"><line x1="288.46" y1="143.54" x2="288.46" y2="144.25"/><line x1="191.45" y1="116.43" x2="191.45" y2="110.73"/><line x1="154.36" y1="122.14" x2="148.66" y2="122.14"/><line x1="289.89" y1="129.27" x2="297.02" y2="129.27"/><line x1="262.07" y1="95.03" x2="262.78" y2="90.04"/><line x1="147.23" y1="50.81" x2="168.63" y2="25.13"/><line x1="131.54" y1="139.26" x2="131.54" y2="133.55"/><line x1="239.96" y1="85.05" x2="240.67" y2="82.2"/><line x1="131.54" y1="122.14" x2="131.54" y2="113.58"/><line x1="148.66" y1="144.97" x2="148.66" y2="150.67"/><line x1="171.48" y1="99.31" x2="171.48" y2="105.02"/><line x1="182.9" y1="153.52" x2="182.9" y2="149.24"/><line x1="148.66" y1="150.67" x2="154.36" y2="150.67"/><line x1="174.34" y1="127.85" x2="154.36" y2="127.85"/><line x1="257.08" y1="87.9" x2="257.79" y2="92.18"/><line x1="147.23" y1="65.08" x2="147.23" y2="50.81"/><line x1="277.05" y1="144.25" x2="277.05" y2="143.54"/><line x1="234.25" y1="150.67" x2="234.25" y2="154.95"/><line x1="154.36" y1="105.02" x2="154.36" y2="99.31"/><line x1="254.94" y1="82.2" x2="255.65" y2="85.05"/><line x1="160.07" y1="129.27" x2="165.78" y2="129.27"/><line x1="234.25" y1="107.87" x2="230.69" y2="107.87"/><line x1="234.25" y1="90.76" x2="233.54" y2="93.61"/><line x1="162.92" y1="167.79" x2="154.36" y2="167.79"/><line x1="255.65" y1="85.05" x2="257.08" y2="87.9"/><line x1="238.53" y1="76.49" x2="237.1" y2="75.78"/><line x1="134.39" y1="107.87" x2="140.1" y2="105.02"/><line x1="148.66" y1="87.9" x2="142.95" y2="86.48"/><line x1="168.63" y1="25.13" x2="208.57" y2="18"/><line x1="137.24" y1="83.62" x2="137.24" y2="76.49"/><line x1="138.67" y1="86.48" x2="137.24" y2="83.62"/><line x1="152.94" y1="99.31" x2="150.08" y2="99.31"/><line x1="257.08" y1="75.06" x2="255.65" y2="79.34"/><line x1="131.54" y1="150.67" x2="131.54" y2="144.97"/><line x1="154.36" y1="186.34" x2="142.95" y2="186.34"/><line x1="239.24" y1="79.34" x2="238.53" y2="76.49"/><line x1="235.68" y1="85.05" x2="234.25" y2="90.76"/><line x1="162.92" y1="173.5" x2="162.92" y2="167.79"/><line x1="241.38" y1="25.13" x2="239.96" y2="27.99"/><line x1="231.4" y1="20.85" x2="241.38" y2="25.13"/><line x1="225.69" y1="169.22" x2="224.27" y2="167.79"/><line x1="239.96" y1="33.69" x2="259.93" y2="47.96"/><line x1="260.64" y1="115.72" x2="264.92" y2="107.87"/><line x1="277.05" y1="144.97" x2="277.05" y2="144.25"/><line x1="237.1" y1="143.54" x2="234.25" y2="143.54"/><line x1="148.66" y1="99.31" x2="148.66" y2="87.9"/><line x1="237.1" y1="127.85" x2="222.84" y2="127.85"/><line x1="222.84" y1="184.91" x2="217.13" y2="184.91"/><line x1="239.96" y1="127.85" x2="237.1" y2="127.85"/><line x1="191.45" y1="127.85" x2="177.19" y2="127.85"/><line x1="255.65" y1="79.34" x2="254.94" y2="82.2"/><line x1="233.54" y1="93.61" x2="232.83" y2="96.46"/><line x1="148.66" y1="167.79" x2="141.17" y2="167.79"/><line x1="177.19" y1="116.43" x2="191.45" y2="116.43"/><line x1="222.84" y1="129.27" x2="225.69" y2="129.27"/><line x1="222.84" y1="127.85" x2="222.84" y2="129.27"/><line x1="222.84" y1="110.73" x2="222.84" y2="116.43"/><line x1="177.19" y1="99.31" x2="175.76" y2="99.31"/><line x1="182.9" y1="102.17" x2="177.19" y2="99.31"/><line x1="237.82" y1="100.03" x2="239.24" y2="96.46"/><line x1="239.96" y1="143.54" x2="237.1" y2="143.54"/><line x1="239.96" y1="129.27" x2="239.96" y2="127.85"/><line x1="191.45" y1="129.27" x2="191.45" y2="127.85"/><line x1="154.36" y1="127.85" x2="154.36" y2="122.14"/><line x1="148.66" y1="127.85" x2="148.66" y2="133.55"/><line x1="175.76" y1="99.31" x2="172.91" y2="99.31"/><line x1="154.36" y1="99.31" x2="152.94" y2="99.31"/><line x1="154.36" y1="167.79" x2="148.66" y2="167.79"/><line x1="239.96" y1="154.95" x2="239.96" y2="149.24"/><line x1="237.1" y1="116.43" x2="239.96" y2="116.43"/><line x1="140.1" y1="105.02" x2="148.66" y2="105.02"/><line x1="234.25" y1="79.34" x2="235.68" y2="85.05"/><line x1="148.66" y1="139.26" x2="148.66" y2="144.97"/><line x1="137.24" y1="76.49" x2="147.23" y2="65.08"/><line x1="172.91" y1="99.31" x2="171.48" y2="99.31"/><line x1="188.6" y1="106.45" x2="182.9" y2="102.17"/><line x1="131.54" y1="144.97" x2="131.54" y2="139.26"/><line x1="174.34" y1="116.43" x2="177.19" y2="116.43"/><line x1="177.19" y1="127.85" x2="174.34" y2="127.85"/><line x1="222.84" y1="116.43" x2="237.1" y2="116.43"/><line x1="237.82" y1="90.76" x2="239.96" y2="85.05"/><line x1="112.99" y1="179.92" x2="112.99" y2="177.06"/><line x1="131.54" y1="127.85" x2="131.54" y2="122.14"/><line x1="148.66" y1="122.14" x2="148.66" y2="127.85"/><line x1="148.66" y1="133.55" x2="148.66" y2="139.26"/><line x1="131.54" y1="133.55" x2="131.54" y2="127.85"/><line x1="258.5" y1="127.13" x2="259.93" y2="127.4"/><line x1="182.9" y1="149.24" x2="178.62" y2="149.24"/><line x1="154.36" y1="129.27" x2="160.07" y2="129.27"/><line x1="154.36" y1="134.98" x2="154.36" y2="133.55"/><line x1="154.36" y1="133.55" x2="154.36" y2="129.27"/><line x1="200.01" y1="184.91" x2="194.31" y2="184.91"/><line x1="217.13" y1="184.91" x2="217.13" y2="187.05"/><line x1="194.31" y1="173.5" x2="191.45" y2="173.5"/><line x1="239.96" y1="167.79" x2="234.25" y2="167.79"/><line x1="234.25" y1="154.95" x2="239.96" y2="154.95"/><line x1="257.08" y1="143.54" x2="257.08" y2="149.24"/><line x1="254.22" y1="173.5" x2="254.22" y2="193.47"/><line x1="242.81" y1="204.88" x2="238.53" y2="204.88"/><line x1="228.55" y1="192.04" x2="232.83" y2="190.62"/><line x1="289.89" y1="167.79" x2="288.46" y2="167.79"/><line x1="257.08" y1="154.95" x2="259.93" y2="154.95"/><line x1="305.58" y1="164.94" x2="297.02" y2="167.79"/><line x1="274.91" y1="143.54" x2="272.77" y2="143.54"/><line x1="277.05" y1="143.54" x2="274.91" y2="143.54"/><line x1="277.76" y1="129.27" x2="288.46" y2="129.27"/><line x1="274.91" y1="154.95" x2="277.05" y2="154.95"/><line x1="274.91" y1="167.79" x2="259.93" y2="167.79"/><line x1="112.99" y1="174.21" x2="112.99" y2="162.08"/><line x1="112.99" y1="150.67" x2="114.42" y2="150.67"/><line x1="125.83" y1="156.38" x2="131.54" y2="158.16"/><line x1="141.17" y1="167.79" x2="142.95" y2="173.5"/><line x1="225.69" y1="129.27" x2="228.55" y2="129.27"/><line x1="234.25" y1="143.54" x2="234.25" y2="147.82"/><line x1="228.55" y1="129.27" x2="231.4" y2="129.27"/><line x1="231.4" y1="129.27" x2="234.25" y2="129.27"/><line x1="234.25" y1="129.27" x2="237.1" y2="129.27"/><line x1="228.55" y1="107.87" x2="222.84" y2="110.73"/><line x1="234.25" y1="147.82" x2="234.25" y2="150.67"/><line x1="237.1" y1="129.27" x2="239.96" y2="129.27"/><line x1="193.59" y1="199.17" x2="192.17" y2="200.6"/><line x1="217.13" y1="190.62" x2="218.56" y2="190.62"/><line x1="237.1" y1="190.62" x2="238.53" y2="189.9"/><line x1="198.59" y1="202.03" x2="197.16" y2="199.17"/><line x1="224.27" y1="167.79" x2="222.84" y2="167.79"/><line x1="308.43" y1="159.23" x2="305.58" y2="164.94"/><line x1="292.74" y1="143.54" x2="288.46" y2="143.54"/><line x1="305.58" y1="133.55" x2="308.43" y2="139.26"/><line x1="288.46" y1="154.95" x2="292.74" y2="154.95"/><line x1="142.95" y1="186.34" x2="125.83" y2="186.34"/><line x1="308.43" y1="139.26" x2="308.43" y2="159.23"/><line x1="182.9" y1="184.91" x2="171.48" y2="184.91"/><line x1="171.48" y1="184.91" x2="165.78" y2="186.34"/><line x1="160.07" y1="186.34" x2="160.07" y2="184.91"/><line x1="160.07" y1="184.91" x2="154.36" y2="184.91"/><line x1="154.36" y1="184.91" x2="154.36" y2="186.34"/><line x1="112.99" y1="162.08" x2="112.99" y2="150.67"/><line x1="165.78" y1="186.34" x2="160.07" y2="186.34"/><line x1="114.42" y1="144.97" x2="112.99" y2="144.97"/><line x1="114.42" y1="150.67" x2="114.42" y2="144.97"/><line x1="288.46" y1="129.27" x2="289.89" y2="129.27"/><line x1="112.99" y1="177.06" x2="112.99" y2="174.21"/><line x1="122.27" y1="186.34" x2="119.41" y2="186.34"/><line x1="222.84" y1="182.06" x2="222.84" y2="184.91"/><line x1="297.02" y1="129.27" x2="305.58" y2="133.55"/><line x1="288.46" y1="167.79" x2="274.91" y2="167.79"/><line x1="125.83" y1="186.34" x2="122.27" y2="186.34"/><line x1="150.08" y1="99.31" x2="148.66" y2="99.31"/><line x1="234.25" y1="167.79" x2="232.83" y2="169.22"/><line x1="239.96" y1="179.2" x2="239.96" y2="173.5"/><line x1="222.84" y1="167.79" x2="222.84" y2="179.2"/><line x1="194.31" y1="179.2" x2="194.31" y2="173.5"/><line x1="222.84" y1="179.2" x2="222.84" y2="182.06"/><line x1="194.31" y1="184.91" x2="194.31" y2="182.06"/><line x1="239.96" y1="116.43" x2="239.96" y2="112.15"/><line x1="257.79" y1="92.18" x2="256.36" y2="95.75"/><line x1="239.24" y1="96.46" x2="237.82" y2="90.76"/><line x1="160.07" y1="173.5" x2="162.92" y2="173.5"/><line x1="239.96" y1="187.76" x2="239.96" y2="186.34"/><line x1="232.83" y1="172.07" x2="232.83" y2="174.92"/><line x1="200.01" y1="187.05" x2="200.01" y2="184.91"/><line x1="232.83" y1="174.92" x2="234.25" y2="177.78"/><line x1="234.25" y1="186.34" x2="228.55" y2="183.48"/><line x1="234.25" y1="177.78" x2="237.1" y2="179.2"/><line x1="239.96" y1="186.34" x2="234.25" y2="186.34"/><line x1="228.55" y1="183.48" x2="225.69" y2="177.78"/><line x1="225.69" y1="177.78" x2="225.69" y2="172.07"/><line x1="217.13" y1="187.05" x2="217.13" y2="190.62"/><line x1="225.69" y1="172.07" x2="225.69" y2="169.22"/><line x1="237.1" y1="179.2" x2="239.96" y2="179.2"/><line x1="232.83" y1="169.22" x2="232.83" y2="172.07"/><line x1="232.83" y1="190.62" x2="237.1" y2="190.62"/><line x1="218.56" y1="190.62" x2="222.84" y2="192.04"/><line x1="185.75" y1="173.5" x2="182.9" y2="173.5"/><line x1="195.02" y1="199.17" x2="193.59" y2="199.17"/><line x1="154.36" y1="150.67" x2="154.36" y2="149.24"/><line x1="192.17" y1="192.04" x2="193.59" y2="193.47"/><line x1="182.18" y1="193.47" x2="183.61" y2="192.04"/><line x1="197.16" y1="193.47" x2="198.59" y2="190.62"/><line x1="182.18" y1="199.17" x2="182.18" y2="193.47"/><line x1="192.17" y1="200.6" x2="183.61" y2="200.6"/><line x1="183.61" y1="200.6" x2="182.18" y2="199.17"/><line x1="178.62" y1="149.24" x2="178.62" y2="153.52"/><line x1="197.16" y1="199.17" x2="195.73" y2="199.17"/><line x1="193.59" y1="193.47" x2="195.02" y2="193.47"/><line x1="178.62" y1="153.52" x2="182.9" y2="153.52"/><line x1="195.73" y1="199.17" x2="195.02" y2="199.17"/><line x1="277.76" y1="127.85" x2="277.76" y2="129.27"/><line x1="195.73" y1="193.47" x2="197.16" y2="193.47"/><line x1="195.02" y1="193.47" x2="195.73" y2="193.47"/><line x1="183.61" y1="192.04" x2="192.17" y2="192.04"/><line x1="208.57" y1="18" x2="231.4" y2="20.85"/><line x1="259.93" y1="127.4" x2="262.78" y2="127.85"/><line x1="292.74" y1="154.95" x2="292.74" y2="143.54"/><line x1="297.02" y1="167.79" x2="289.89" y2="167.79"/><line x1="217.13" y1="219.15" x2="215.71" y2="213.44"/><line x1="198.59" y1="190.62" x2="200.01" y2="190.62"/><line x1="204.29" y1="204.88" x2="198.59" y2="202.03"/><line x1="200.01" y1="190.62" x2="200.01" y2="187.05"/><line x1="239.24" y1="189.19" x2="239.96" y2="187.76"/><line x1="131.54" y1="158.16" x2="131.54" y2="150.67"/><line x1="131.54" y1="113.58" x2="134.39" y2="107.87"/><line x1="288.46" y1="153.52" x2="288.46" y2="154.24"/><line x1="142.95" y1="173.5" x2="160.07" y2="173.5"/><line x1="154.36" y1="137.83" x2="154.36" y2="134.98"/><line x1="125.12" y1="137.83" x2="127.26" y2="144.25"/><line x1="272.77" y1="127.85" x2="277.76" y2="127.85"/><line x1="112.99" y1="144.97" x2="111.57" y2="144.25"/><line x1="127.26" y1="144.25" x2="125.83" y2="144.97"/><line x1="154.36" y1="143.54" x2="154.36" y2="140.69"/><line x1="111.57" y1="144.25" x2="113.71" y2="137.83"/><line x1="182.9" y1="173.5" x2="182.9" y2="184.91"/><line x1="258.5" y1="73.64" x2="257.08" y2="75.06"/><line x1="113.71" y1="137.83" x2="125.12" y2="137.83"/><line x1="260.64" y1="77.92" x2="258.5" y2="73.64"/><line x1="154.36" y1="140.69" x2="154.36" y2="137.83"/><line x1="154.36" y1="149.24" x2="154.36" y2="143.54"/><line x1="188.6" y1="47.96" x2="177.19" y2="47.96"/><line x1="188.6" y1="59.37" x2="188.6" y2="47.96"/><line x1="177.19" y1="59.37" x2="188.6" y2="59.37"/><line x1="177.19" y1="47.96" x2="177.19" y2="59.37"/><line x1="234.25" y1="47.96" x2="222.84" y2="47.96"/><line x1="234.25" y1="59.37" x2="234.25" y2="47.96"/><line x1="222.84" y1="59.37" x2="234.25" y2="59.37"/><line x1="222.84" y1="47.96" x2="222.84" y2="59.37"/><line x1="257.08" y1="110.73" x2="256.36" y2="113.58"/><line x1="194.31" y1="182.06" x2="194.31" y2="179.2"/><line x1="171.48" y1="105.02" x2="171.48" y2="113.58"/><line x1="191.45" y1="110.73" x2="188.6" y2="106.45"/><line x1="277.05" y1="154.95" x2="277.05" y2="154.24"/><line x1="288.46" y1="154.24" x2="288.46" y2="154.95"/><line x1="288.46" y1="144.25" x2="288.46" y2="144.97"/><line x1="277.05" y1="153.52" x2="277.05" y2="144.97"/><line x1="277.05" y1="154.24" x2="277.05" y2="153.52"/><line x1="288.46" y1="144.97" x2="288.46" y2="153.52"/><line x1="148.66" y1="105.02" x2="154.36" y2="105.02"/><line x1="215.71" y1="213.44" x2="214.28" y2="207.73"/><line x1="235.68" y1="213.44" x2="234.25" y2="219.15"/><line x1="124.41" y1="150.67" x2="125.83" y2="150.67"/><line x1="125.83" y1="150.67" x2="125.83" y2="156.38"/><line x1="124.41" y1="144.97" x2="124.41" y2="150.67"/><line x1="125.83" y1="144.97" x2="124.41" y2="144.97"/><line x1="222.84" y1="192.04" x2="224.27" y2="189.19"/><line x1="212.85" y1="204.88" x2="204.29" y2="204.88"/><line x1="224.27" y1="189.19" x2="227.12" y2="189.19"/><line x1="227.12" y1="189.19" x2="228.55" y2="192.04"/><line x1="214.28" y1="207.73" x2="212.85" y2="204.88"/><line x1="238.53" y1="204.88" x2="237.1" y2="207.73"/><line x1="237.1" y1="207.73" x2="235.68" y2="213.44"/><line x1="234.25" y1="219.15" x2="231.4" y2="222"/><line x1="231.4" y1="222" x2="219.99" y2="222"/><line x1="219.99" y1="222" x2="217.13" y2="219.15"/><line x1="238.53" y1="189.9" x2="239.24" y2="189.19"/><line x1="257.08" y1="167.79" x2="254.22" y2="173.5"/><line x1="254.22" y1="193.47" x2="255.65" y2="196.32"/><line x1="255.65" y1="196.32" x2="257.08" y2="202.03"/><line x1="257.08" y1="202.03" x2="257.08" y2="203.45"/><line x1="257.08" y1="203.45" x2="255.65" y2="206.31"/><line x1="255.65" y1="206.31" x2="252.8" y2="207.73"/><line x1="252.8" y1="207.73" x2="251.37" y2="207.73"/><line x1="251.37" y1="207.73" x2="245.66" y2="206.31"/><line x1="245.66" y1="206.31" x2="242.81" y2="204.88"/><line x1="239.96" y1="173.5" x2="239.96" y2="167.79"/><line x1="177.19" y1="129.27" x2="191.45" y2="129.27"/><line x1="171.48" y1="129.27" x2="177.19" y2="129.27"/><line x1="165.78" y1="129.27" x2="171.48" y2="129.27"/><line x1="171.48" y1="113.58" x2="174.34" y2="116.43"/><line x1="261.36" y1="144.25" x2="261.36" y2="143.54"/><line x1="272.77" y1="143.54" x2="272.77" y2="144.25"/><line x1="272.77" y1="144.25" x2="272.77" y2="144.97"/><line x1="272.77" y1="154.24" x2="272.77" y2="154.95"/><line x1="261.36" y1="154.95" x2="261.36" y2="154.24"/><line x1="272.77" y1="154.95" x2="274.91" y2="154.95"/><line x1="261.36" y1="143.54" x2="259.93" y2="143.54"/><line x1="261.36" y1="154.24" x2="261.36" y2="153.52"/><line x1="261.36" y1="153.52" x2="261.36" y2="144.97"/><line x1="272.77" y1="144.97" x2="272.77" y2="153.52"/><line x1="272.77" y1="153.52" x2="272.77" y2="154.24"/><line x1="261.36" y1="144.97" x2="261.36" y2="144.25"/><line x1="239.96" y1="149.24" x2="239.96" y2="143.54"/><line x1="257.08" y1="149.24" x2="257.08" y2="154.95"/><line x1="259.93" y1="167.79" x2="257.08" y2="167.79"/><line x1="259.93" y1="154.95" x2="261.36" y2="154.95"/><line x1="259.93" y1="143.54" x2="257.08" y2="143.54"/><line x1="235.68" y1="76.49" x2="234.25" y2="79.34"/><line x1="239.96" y1="112.15" x2="238.53" y2="112.15"/><line x1="238.53" y1="112.15" x2="238.53" y2="107.87"/><line x1="238.53" y1="105.73" x2="237.82" y2="100.03"/><line x1="238.53" y1="107.87" x2="238.53" y2="105.73"/><line x1="240.67" y1="82.2" x2="239.24" y2="79.34"/><line x1="235.68" y1="101.45" x2="234.25" y2="107.87"/><line x1="232.83" y1="96.46" x2="235.68" y2="101.45"/><line x1="237.1" y1="75.78" x2="235.68" y2="76.49"/><line x1="230.69" y1="107.87" x2="228.55" y2="107.87"/><line x1="257.08" y1="101.45" x2="257.79" y2="107.87"/><line x1="256.36" y1="113.58" x2="257.08" y2="116.43"/><line x1="256.36" y1="95.75" x2="257.08" y2="101.45"/><line x1="257.08" y1="116.43" x2="259.22" y2="116.43"/><line x1="264.92" y1="107.87" x2="262.07" y2="95.03"/><line x1="262.78" y1="127.85" x2="268.49" y2="127.85"/><line x1="268.49" y1="127.85" x2="272.77" y2="127.85"/><line x1="262.78" y1="62.22" x2="268.49" y2="64.36"/><line x1="273.48" y1="72.21" x2="272.77" y2="80.06"/><line x1="274.91" y1="97.89" x2="277.76" y2="107.16"/><line x1="277.76" y1="107.16" x2="274.55" y2="119.02"/><line x1="274.55" y1="119.02" x2="270.63" y2="122.85"/><line x1="270.63" y1="122.85" x2="261.36" y2="124.99"/><line x1="258.5" y1="125.71" x2="258.5" y2="127.13"/><line x1="259.93" y1="47.96" x2="263.5" y2="58.66"/><line x1="263.5" y1="58.66" x2="262.78" y2="62.22"/><line x1="268.49" y1="64.36" x2="273.48" y2="72.21"/><line x1="272.77" y1="80.06" x2="274.91" y2="91.47"/><line x1="262.07" y1="84.34" x2="260.64" y2="77.92"/><line x1="262.78" y1="90.04" x2="262.07" y2="84.34"/><line x1="274.91" y1="91.47" x2="274.91" y2="97.89"/><line x1="259.22" y1="116.43" x2="260.64" y2="115.72"/><line x1="261.36" y1="124.99" x2="258.5" y2="125.71"/><line x1="257.79" y1="107.87" x2="257.08" y2="110.73"/><line x1="239.96" y1="27.99" x2="239.96" y2="33.69"/><line x1="142.95" y1="86.48" x2="138.67" y2="86.48"/><line x1="112.99" y1="186.34" x2="112.99" y2="179.92"/><line x1="119.41" y1="186.34" x2="112.99" y2="186.34"/><line x1="187.17" y1="177.78" x2="185.75" y2="173.5"/><line x1="191.45" y1="173.5" x2="190.03" y2="177.78"/><line x1="190.03" y1="177.78" x2="187.17" y2="177.78"/></g><g opacity="0.95"><circle cx="210.71" cy="189.9" r="3.2" fill="#b7493c"/><circle cx="202.15" cy="189.9" r="3.2" fill="#b7493c"/><circle cx="214.99" cy="189.9" r="3.2" fill="#b7493c"/><circle cx="206.43" cy="189.9" r="3.2" fill="#b7493c"/><circle cx="205.72" cy="50.81" r="3.2" fill="#b7493c"/><circle cx="267.06" cy="115.01" r="2.2" fill="#d3b15b"/><circle cx="228.55" cy="45.1" r="2.2" fill="#d3b15b"/><circle cx="182.9" cy="45.1" r="2.2" fill="#d3b15b"/><circle cx="254.22" cy="152.1" r="2.2" fill="#d3b15b"/><circle cx="226.41" cy="149.96" r="2.2" fill="#d3b15b"/><circle cx="134.39" cy="164.94" r="2.2" fill="#d3b15b"/><circle cx="157.22" cy="132.13" r="3.2" fill="#b7493c"/><circle cx="142.95" cy="84.34" r="2.2" fill="#d3b15b"/><circle cx="113.71" cy="142.83" r="2.2" fill="#d3b15b"/><circle cx="229.26" cy="169.93" r="2.2" fill="#d3b15b"/><circle cx="133.68" cy="124.99" r="2.2" fill="#d3b15b"/><circle cx="133.68" cy="130.7" r="2.2" fill="#d3b15b"/><circle cx="133.68" cy="136.41" r="2.2" fill="#d3b15b"/><circle cx="133.68" cy="142.11" r="2.2" fill="#d3b15b"/><circle cx="133.68" cy="147.82" r="2.2" fill="#d3b15b"/><circle cx="262.78" cy="69.36" r="2.2" fill="#d3b15b"/><circle cx="125.12" cy="142.83" r="2.2" fill="#d3b15b"/><circle cx="248.52" cy="152.1" r="2.2" fill="#d3b15b"/><circle cx="232.11" cy="145.68" r="2.2" fill="#d3b15b"/><circle cx="151.51" cy="159.23" r="2.2" fill="#d3b15b"/><circle cx="180.04" cy="122.14" r="2.2" fill="#d3b15b"/><circle cx="234.25" cy="122.14" r="2.2" fill="#d3b15b"/><circle cx="232.83" cy="82.2" r="2.2" fill="#d3b15b"/><circle cx="187.89" cy="196.32" r="2.2" fill="#d3b15b"/><circle cx="180.76" cy="182.06" r="3.2" fill="#b7493c"/><circle cx="119.41" cy="143.54" r="3.2" fill="#b7493c"/><circle cx="306.65" cy="158.16" r="3.2" fill="#b7493c"/><circle cx="214.28" cy="197.75" r="2.2" fill="#d3b15b"/><circle cx="151.51" cy="93.61" r="3.2" fill="#b7493c"/><circle cx="225.69" cy="219.86" r="2.2" fill="#d3b15b"/><circle cx="225.69" cy="219.15" r="3.2" fill="#b7493c"/><circle cx="248.52" cy="116.43" r="3.2" fill="#b7493c"/><circle cx="136.53" cy="110.01" r="3.2" fill="#b7493c"/><circle cx="197.16" cy="148.53" r="2.2" fill="#d3b15b"/><circle cx="208.57" cy="149.96" r="2.2" fill="#d3b15b"/><circle cx="264.21" cy="70.78" r="3.2" fill="#b7493c"/><circle cx="242.81" cy="152.1" r="2.2" fill="#d3b15b"/><circle cx="261.36" cy="120.71" r="2.2" fill="#d3b15b"/><circle cx="282.76" cy="156.73" r="2.2" fill="#d3b15b"/><circle cx="267.06" cy="156.73" r="2.2" fill="#d3b15b"/><circle cx="301.3" cy="149.24" r="2.2" fill="#d3b15b"/><circle cx="225.69" cy="194.9" r="2.2" fill="#d3b15b"/><circle cx="267.06" cy="141.76" r="2.2" fill="#d3b15b"/><circle cx="190.74" cy="149.96" r="2.2" fill="#d3b15b"/><circle cx="282.76" cy="141.76" r="2.2" fill="#d3b15b"/><circle cx="219.99" cy="148.53" r="2.2" fill="#d3b15b"/><circle cx="115.13" cy="139.26" r="2.2" fill="#d3b15b"/><circle cx="119.41" cy="141.4" r="2.2" fill="#d3b15b"/><circle cx="123.69" cy="139.26" r="2.2" fill="#d3b15b"/><circle cx="269.92" cy="105.02" r="2.2" fill="#d3b15b"/><circle cx="268.49" cy="96.46" r="2.2" fill="#d3b15b"/><circle cx="268.49" cy="86.48" r="2.2" fill="#d3b15b"/><circle cx="267.06" cy="76.49" r="2.2" fill="#d3b15b"/><circle cx="207.15" cy="122.14" r="2.2" fill="#d3b15b"/></g></svg>