<svg xmlns="http://www.w3.org/2000/svg" viewBox="0 0 420 240" role="img"><rect width="100%" height="100%" fill="#070706"/><g stroke="#5e5a4f" stroke-width="1.6" stroke-linecap="round"><line x1="250.95" y1="35.87" x2="250.95" y2="28.42"/><line x1="242.01" y1="35.87" x2="250.95" y2="35.87"/><line x1="242.01" y1="28.42" x2="242.01" y2="35.87"/><line x1="136.29" y1="105.85" x2="136.29" y2="99.9"/><line x1="175.01" y1="153.5" x2="183.94" y2="153.5"/><line x1="183.94" y1="126.7" x2="175.01" y2="126.7"/><line x1="175.01" y1="150.53" x2="183.94" y2="150.53"/><line x1="169.05" y1="126.7" x2="169.05" y2="150.53"/><line x1="172.03" y1="126.7" x2="172.03" y2="150.53"/><line x1="183.94" y1="123.72" x2="175.01" y2="123.72"/><line x1="108" y1="113.3" x2="103.53" y2="113.3"/><line x1="118.42" y1="90.96" x2="118.42" y2="82.03"/><line x1="145.23" y1="40.34" x2="145.23" y2="76.07"/><line x1="198.83" y1="46.29" x2="198.83" y2="43.31"/><line x1="195.85" y1="46.29" x2="198.83" y2="46.29"/><line x1="195.85" y1="58.2" x2="192.88" y2="58.2"/><line x1="195.85" y1="46.29" x2="195.85" y2="58.2"/><line x1="231.59" y1="153.5" x2="231.59" y2="135.64"/><line x1="207.77" y1="46.29" x2="216.7" y2="46.29"/><line x1="207.77" y1="153.5" x2="231.59" y2="153.5"/><line x1="207.77" y1="58.2" x2="204.79" y2="58.2"/><line x1="207.77" y1="58.2" x2="207.77" y2="46.29"/><line x1="210.74" y1="67.14" x2="210.74" y2="64.16"/><line x1="154.16" y1="153.5" x2="169.05" y2="153.5"/><line x1="169.05" y1="150.53" x2="154.16" y2="150.53"/><line x1="151.18" y1="144.57" x2="151.18" y2="132.66"/><line x1="148.2" y1="132.66" x2="148.2" y2="144.57"/><line x1="154.16" y1="126.7" x2="169.05" y2="126.7"/><line x1="169.05" y1="123.72" x2="154.16" y2="123.72"/><line x1="109.49" y1="90.96" x2="118.42" y2="90.96"/><line x1="231.59" y1="129.68" x2="231.59" y2="105.85"/><line x1="108" y1="122.23" x2="108" y2="113.3"/><line x1="228.61" y1="129.68" x2="228.61" y2="105.85"/><line x1="207.77" y1="141.59" x2="213.72" y2="141.59"/><line x1="207.77" y1="142.34" x2="214.47" y2="142.34"/><line x1="214.47" y1="142.34" x2="214.47" y2="135.64"/><line x1="213.72" y1="141.59" x2="213.72" y2="135.64"/><line x1="207.77" y1="102.88" x2="186.92" y2="102.88"/><line x1="195.85" y1="111.81" x2="195.85" y2="123.72"/><line x1="207.77" y1="111.81" x2="195.85" y2="111.81"/><line x1="192.88" y1="108.83" x2="192.88" y2="123.72"/><line x1="207.77" y1="108.83" x2="192.88" y2="108.83"/><line x1="186.92" y1="102.88" x2="186.92" y2="123.72"/><line x1="189.9" y1="105.85" x2="189.9" y2="123.72"/><line x1="207.77" y1="105.85" x2="189.9" y2="105.85"/><line x1="107.26" y1="157.97" x2="103.53" y2="157.97"/><line x1="110.98" y1="165.42" x2="110.98" y2="161.69"/><line x1="110.98" y1="161.69" x2="107.26" y2="157.97"/><line x1="112.47" y1="132.66" x2="124.38" y2="132.66"/><line x1="112.47" y1="135.64" x2="124.38" y2="135.64"/><line x1="197.34" y1="195.2" x2="195.85" y2="195.2"/><line x1="154.16" y1="93.94" x2="154.16" y2="82.03"/><line x1="151.18" y1="93.94" x2="151.18" y2="82.03"/><line x1="130.34" y1="129.68" x2="130.34" y2="108.83"/><line x1="127.36" y1="108.83" x2="127.36" y2="129.68"/><line x1="130.34" y1="107.34" x2="137.78" y2="107.34"/><line x1="137.78" y1="107.34" x2="137.78" y2="99.9"/><line x1="252.44" y1="37.36" x2="252.44" y2="28.42"/><line x1="240.53" y1="28.42" x2="240.53" y2="37.36"/><line x1="240.53" y1="37.36" x2="252.44" y2="37.36"/><line x1="116.93" y1="89.47" x2="116.93" y2="82.03"/><line x1="109.49" y1="89.47" x2="116.93" y2="89.47"/><line x1="130.34" y1="105.85" x2="136.29" y2="105.85"/><line x1="216.7" y1="144.57" x2="216.7" y2="135.64"/><line x1="207.77" y1="144.57" x2="216.7" y2="144.57"/><line x1="228.61" y1="67.14" x2="228.61" y2="40.34"/><line x1="210.74" y1="67.14" x2="228.61" y2="67.14"/><line x1="192.88" y1="67.14" x2="192.88" y2="76.07"/><line x1="267.33" y1="76.07" x2="267.33" y2="82.03"/><line x1="265.84" y1="83.52" x2="273.28" y2="83.52"/><line x1="267.33" y1="82.03" x2="273.28" y2="82.03"/><line x1="265.84" y1="76.07" x2="265.84" y2="83.52"/><line x1="267.33" y1="210.09" x2="267.33" y2="219.02"/><line x1="198.83" y1="43.31" x2="189.9" y2="43.31"/><line x1="188.41" y1="195.2" x2="172.03" y2="195.2"/><line x1="115.45" y1="87.99" x2="115.45" y2="82.03"/><line x1="270.31" y1="213.07" x2="270.31" y2="219.02"/><line x1="228.61" y1="207.11" x2="240.53" y2="207.11"/><line x1="279.24" y1="177.33" x2="279.24" y2="189.24"/><line x1="103.53" y1="153.5" x2="103.53" y2="147.55"/><line x1="270.31" y1="168.39" x2="258.39" y2="168.39"/><line x1="109.49" y1="87.99" x2="115.45" y2="87.99"/><line x1="240.53" y1="204.13" x2="228.61" y2="204.13"/><line x1="249.46" y1="174.35" x2="249.46" y2="192.22"/><line x1="102.04" y1="153.5" x2="102.04" y2="147.55"/><line x1="252.44" y1="174.35" x2="252.44" y2="192.22"/><line x1="270.31" y1="165.42" x2="258.39" y2="165.42"/><line x1="237.55" y1="40.34" x2="255.42" y2="40.34"/><line x1="243.5" y1="28.42" x2="243.5" y2="34.38"/><line x1="249.46" y1="34.38" x2="249.46" y2="28.42"/><line x1="243.5" y1="34.38" x2="249.46" y2="34.38"/><line x1="148.2" y1="76.07" x2="148.2" y2="53.74"/><line x1="267.33" y1="46.29" x2="267.33" y2="64.16"/><line x1="264.35" y1="46.29" x2="264.35" y2="64.16"/><line x1="276.26" y1="90.96" x2="276.26" y2="102.88"/><line x1="273.28" y1="90.96" x2="273.28" y2="102.88"/><line x1="103.53" y1="122.23" x2="108" y2="122.23"/><line x1="229.36" y1="40.43" x2="235.31" y2="40.43"/><line x1="276.26" y1="85.01" x2="306.04" y2="85.01"/><line x1="306.04" y1="76.07" x2="276.26" y2="76.07"/><line x1="276.26" y1="82.03" x2="286.69" y2="82.03"/><line x1="306.04" y1="79.05" x2="295.62" y2="79.05"/><line x1="306.04" y1="58.2" x2="306.04" y2="70.12"/><line x1="306.04" y1="87.99" x2="306.04" y2="99.9"/><line x1="204.79" y1="43.31" x2="204.79" y2="46.29"/><line x1="281.47" y1="116.28" x2="285.2" y2="116.28"/><line x1="277.75" y1="112.55" x2="281.47" y2="116.28"/><line x1="198.83" y1="46.29" x2="198.83" y2="58.2"/><line x1="277.75" y1="108.83" x2="277.75" y2="112.55"/><line x1="204.79" y1="58.2" x2="204.79" y2="46.29"/><line x1="154.16" y1="192.22" x2="136.29" y2="192.22"/><line x1="133.31" y1="171.37" x2="133.31" y2="189.24"/><line x1="136.29" y1="189.24" x2="136.29" y2="171.37"/><line x1="154.16" y1="198.18" x2="136.29" y2="198.18"/><line x1="154.16" y1="195.2" x2="136.29" y2="195.2"/><line x1="148.2" y1="210.09" x2="148.2" y2="204.13"/><line x1="243.5" y1="198.18" x2="242.01" y2="198.18"/><line x1="243.5" y1="159.46" x2="243.5" y2="196.69"/><line x1="99.81" y1="147.55" x2="99.81" y2="153.5"/><line x1="101.3" y1="147.55" x2="101.3" y2="153.5"/><line x1="87.9" y1="152.01" x2="87.9" y2="149.04"/><line x1="172.03" y1="198.18" x2="213.72" y2="198.18"/><line x1="213.72" y1="195.2" x2="197.34" y2="195.2"/><line x1="177.99" y1="40.34" x2="186.92" y2="40.34"/><line x1="216.7" y1="40.34" x2="225.64" y2="40.34"/><line x1="216.7" y1="46.29" x2="216.7" y2="40.34"/><line x1="186.92" y1="46.29" x2="195.85" y2="46.29"/><line x1="186.92" y1="40.34" x2="186.92" y2="46.29"/><line x1="195.85" y1="19.49" x2="207.77" y2="19.49"/><line x1="195.85" y1="22.47" x2="207.77" y2="22.47"/><line x1="225.64" y1="37.36" x2="213.72" y2="37.36"/><line x1="213.72" y1="37.36" x2="213.72" y2="43.31"/><line x1="213.72" y1="43.31" x2="204.79" y2="43.31"/><line x1="189.9" y1="43.31" x2="189.9" y2="37.36"/><line x1="189.9" y1="37.36" x2="177.99" y2="37.36"/><line x1="192.88" y1="58.2" x2="192.88" y2="64.16"/><line x1="192.88" y1="76.07" x2="197.34" y2="76.07"/><line x1="210.74" y1="76.07" x2="210.74" y2="67.14"/><line x1="210.74" y1="58.2" x2="207.77" y2="58.2"/><line x1="195.85" y1="73.09" x2="195.85" y2="61.18"/><line x1="207.77" y1="73.09" x2="195.85" y2="73.09"/><line x1="207.77" y1="61.18" x2="207.77" y2="73.09"/><line x1="204.79" y1="58.2" x2="198.83" y2="58.2"/><line x1="195.85" y1="61.18" x2="207.77" y2="61.18"/><line x1="198.83" y1="58.2" x2="195.85" y2="58.2"/><line x1="204.79" y1="46.29" x2="207.77" y2="46.29"/><line x1="225.64" y1="64.16" x2="210.74" y2="64.16"/><line x1="225.64" y1="40.34" x2="225.64" y2="64.16"/><line x1="210.74" y1="64.16" x2="210.74" y2="58.2"/><line x1="177.99" y1="64.16" x2="177.99" y2="40.34"/><line x1="192.88" y1="64.16" x2="177.99" y2="64.16"/><line x1="192.88" y1="64.16" x2="192.88" y2="67.14"/><line x1="175.01" y1="40.34" x2="175.01" y2="67.14"/><line x1="175.01" y1="67.14" x2="192.88" y2="67.14"/><line x1="326.89" y1="76.07" x2="326.89" y2="82.03"/><line x1="326.89" y1="82.03" x2="332.85" y2="82.03"/><line x1="332.85" y1="76.07" x2="326.89" y2="76.07"/><line x1="332.85" y1="74.58" x2="325.4" y2="74.58"/><line x1="325.4" y1="74.58" x2="325.4" y2="83.52"/><line x1="325.4" y1="83.52" x2="332.85" y2="83.52"/><line x1="288.18" y1="82.03" x2="288.18" y2="79.05"/><line x1="294.13" y1="79.05" x2="288.18" y2="79.05"/><line x1="294.13" y1="79.05" x2="294.13" y2="82.03"/><line x1="288.18" y1="82.03" x2="294.13" y2="82.03"/><line x1="294.13" y1="82.03" x2="295.62" y2="82.03"/><line x1="288.18" y1="79.05" x2="286.69" y2="79.05"/><line x1="286.69" y1="77.56" x2="286.69" y2="79.05"/><line x1="286.69" y1="79.05" x2="286.69" y2="82.03"/><line x1="286.69" y1="82.03" x2="286.69" y2="83.52"/><line x1="286.69" y1="83.52" x2="295.62" y2="83.52"/><line x1="295.62" y1="83.52" x2="295.62" y2="82.03"/><line x1="295.62" y1="82.03" x2="295.62" y2="79.05"/><line x1="295.62" y1="79.05" x2="295.62" y2="77.56"/><line x1="295.62" y1="77.56" x2="286.69" y2="77.56"/><line x1="286.69" y1="82.03" x2="288.18" y2="82.03"/><line x1="286.69" y1="79.05" x2="276.26" y2="79.05"/><line x1="295.62" y1="79.05" x2="294.13" y2="79.05"/><line x1="295.62" y1="82.03" x2="306.04" y2="82.03"/><line x1="103.53" y1="143.08" x2="107.26" y2="143.08"/><line x1="110.98" y1="139.36" x2="110.98" y2="135.64"/><line x1="107.26" y1="143.08" x2="110.98" y2="139.36"/><line x1="198.83" y1="114.79" x2="198.83" y2="123.72"/><line x1="207.77" y1="114.79" x2="198.83" y2="114.79"/><line x1="201.81" y1="117.77" x2="201.81" y2="123.72"/><line x1="207.77" y1="117.77" x2="201.81" y2="117.77"/><line x1="198.83" y1="76.07" x2="198.83" y2="82.03"/><line x1="198.83" y1="82.03" x2="204.79" y2="82.03"/><line x1="204.79" y1="82.03" x2="204.79" y2="76.07"/><line x1="198.83" y1="76.07" x2="204.79" y2="76.07"/><line x1="204.79" y1="76.07" x2="206.28" y2="76.07"/><line x1="197.34" y1="76.07" x2="197.34" y2="83.52"/><line x1="197.34" y1="83.52" x2="206.28" y2="83.52"/><line x1="206.28" y1="83.52" x2="206.28" y2="76.07"/><line x1="197.34" y1="76.07" x2="198.83" y2="76.07"/><line x1="206.28" y1="76.07" x2="210.74" y2="76.07"/><line x1="243.5" y1="198.18" x2="243.5" y2="204.13"/><line x1="249.46" y1="198.18" x2="243.5" y2="198.18"/><line x1="249.46" y1="196.69" x2="243.5" y2="196.69"/><line x1="243.5" y1="196.69" x2="242.01" y2="196.69"/><line x1="242.01" y1="196.69" x2="242.01" y2="198.18"/><line x1="242.01" y1="198.18" x2="219.68" y2="198.18"/><line x1="242.01" y1="198.18" x2="242.01" y2="204.13"/><line x1="243.5" y1="196.69" x2="243.5" y2="198.18"/><line x1="276.26" y1="213.07" x2="270.31" y2="213.07"/><line x1="276.26" y1="211.58" x2="268.82" y2="211.58"/><line x1="268.82" y1="211.58" x2="268.82" y2="219.02"/><line x1="276.26" y1="210.09" x2="267.33" y2="210.09"/><line x1="279.99" y1="159.46" x2="243.5" y2="159.46"/><line x1="285.2" y1="157.97" x2="281.47" y2="157.97"/><line x1="281.47" y1="157.97" x2="279.99" y2="159.46"/><line x1="279.99" y1="159.46" x2="277.75" y2="161.69"/><line x1="277.75" y1="161.69" x2="277.75" y2="165.42"/><line x1="282.22" y1="180.31" x2="282.22" y2="186.26"/><line x1="282.22" y1="186.26" x2="285.2" y2="186.26"/><line x1="285.2" y1="180.31" x2="282.22" y2="180.31"/><line x1="285.2" y1="178.82" x2="280.73" y2="178.82"/><line x1="280.73" y1="178.82" x2="280.73" y2="187.75"/><line x1="280.73" y1="187.75" x2="285.2" y2="187.75"/><line x1="195.85" y1="195.2" x2="195.85" y2="189.24"/><line x1="195.85" y1="189.24" x2="189.9" y2="189.24"/><line x1="189.9" y1="189.24" x2="189.9" y2="195.2"/><line x1="189.9" y1="195.2" x2="188.41" y2="195.2"/><line x1="195.85" y1="195.2" x2="189.9" y2="195.2"/><line x1="197.34" y1="195.2" x2="197.34" y2="187.75"/><line x1="197.34" y1="187.75" x2="188.41" y2="187.75"/><line x1="188.41" y1="187.75" x2="188.41" y2="195.2"/><line x1="148.2" y1="204.13" x2="142.25" y2="204.13"/><line x1="142.25" y1="204.13" x2="142.25" y2="210.09"/><line x1="149.69" y1="210.09" x2="149.69" y2="202.64"/><line x1="149.69" y1="202.64" x2="140.76" y2="202.64"/><line x1="140.76" y1="202.64" x2="140.76" y2="210.09"/><line x1="148.2" y1="52.25" x2="154.16" y2="52.25"/><line x1="154.16" y1="52.25" x2="154.16" y2="46.29"/><line x1="148.2" y1="52.25" x2="148.2" y2="46.29"/><line x1="148.2" y1="46.29" x2="154.16" y2="46.29"/><line x1="148.2" y1="53.74" x2="155.65" y2="53.74"/><line x1="155.65" y1="53.74" x2="155.65" y2="44.8"/><line x1="148.2" y1="53.74" x2="148.2" y2="52.25"/><line x1="155.65" y1="44.8" x2="148.2" y2="44.8"/><line x1="148.2" y1="44.8" x2="148.2" y2="40.34"/><line x1="148.2" y1="46.29" x2="148.2" y2="44.8"/><line x1="109.49" y1="123.72" x2="109.49" y2="111.81"/><line x1="106.51" y1="120.74" x2="106.51" y2="114.79"/><line x1="106.51" y1="114.79" x2="103.53" y2="114.79"/><line x1="103.53" y1="120.74" x2="106.51" y2="120.74"/><line x1="289.66" y1="143.08" x2="297.11" y2="143.08"/><line x1="289.66" y1="134.15" x2="289.66" y2="143.08"/><line x1="297.11" y1="134.15" x2="289.66" y2="134.15"/><line x1="288.18" y1="144.57" x2="297.11" y2="144.57"/><line x1="297.11" y1="132.66" x2="288.18" y2="132.66"/><line x1="288.18" y1="132.66" x2="288.18" y2="144.57"/><line x1="285.2" y1="129.68" x2="285.2" y2="147.55"/><line x1="297.11" y1="135.64" x2="291.15" y2="135.64"/><line x1="291.15" y1="141.59" x2="297.11" y2="141.59"/><line x1="291.15" y1="135.64" x2="291.15" y2="141.59"/><line x1="204.79" y1="143.08" x2="197.34" y2="143.08"/><line x1="197.34" y1="143.08" x2="197.34" y2="150.53"/><line x1="198.83" y1="144.57" x2="198.83" y2="150.53"/><line x1="204.79" y1="144.57" x2="198.83" y2="144.57"/><line x1="204.79" y1="141.59" x2="195.85" y2="141.59"/><line x1="195.85" y1="141.59" x2="195.85" y2="150.53"/><line x1="216.7" y1="108.83" x2="216.7" y2="102.88"/><line x1="210.74" y1="108.83" x2="216.7" y2="108.83"/><line x1="210.74" y1="111.81" x2="219.68" y2="111.81"/><line x1="219.68" y1="111.81" x2="219.68" y2="102.88"/><line x1="210.74" y1="110.32" x2="218.19" y2="110.32"/><line x1="218.19" y1="110.32" x2="218.19" y2="102.88"/><line x1="297.11" y1="46.29" x2="297.11" y2="55.23"/><line x1="297.11" y1="55.23" x2="306.04" y2="55.23"/><line x1="300.09" y1="46.29" x2="300.09" y2="52.25"/><line x1="300.09" y1="52.25" x2="306.04" y2="52.25"/><line x1="298.6" y1="46.29" x2="298.6" y2="53.74"/><line x1="298.6" y1="53.74" x2="306.04" y2="53.74"/><line x1="332.85" y1="73.09" x2="323.91" y2="73.09"/><line x1="323.91" y1="73.09" x2="323.91" y2="85.01"/><line x1="323.91" y1="85.01" x2="332.85" y2="85.01"/><line x1="168.31" y1="40.43" x2="174.26" y2="40.43"/></g><g stroke="#d3b15b" stroke-width="2.4" stroke-linecap="round"><line x1="285.2" y1="116.28" x2="285.2" y2="129.68"/><line x1="242.01" y1="204.13" x2="240.53" y2="204.13"/><line x1="136.29" y1="195.2" x2="136.29" y2="192.22"/><line x1="136.29" y1="165.42" x2="110.98" y2="165.42"/><line x1="154.16" y1="99.9" x2="154.16" y2="93.94"/><line x1="264.35" y1="76.07" x2="265.84" y2="76.07"/><line x1="175.01" y1="153.5" x2="175.01" y2="150.53"/><line x1="145.23" y1="40.34" x2="148.2" y2="40.34"/><line x1="151.18" y1="126.7" x2="154.16" y2="126.7"/><line x1="151.18" y1="150.53" x2="151.18" y2="144.57"/><line x1="207.77" y1="108.83" x2="207.77" y2="111.81"/><line x1="175.01" y1="123.72" x2="169.05" y2="123.72"/><line x1="148.2" y1="123.72" x2="148.2" y2="132.66"/><line x1="148.2" y1="153.5" x2="154.16" y2="153.5"/><line x1="183.94" y1="123.72" x2="183.94" y2="126.7"/><line x1="148.2" y1="76.07" x2="145.23" y2="76.07"/><line x1="103.53" y1="113.3" x2="103.53" y2="111.81"/><line x1="172.03" y1="150.53" x2="169.05" y2="150.53"/><line x1="210.74" y1="110.32" x2="210.74" y2="108.83"/><line x1="169.05" y1="126.7" x2="172.03" y2="126.7"/><line x1="145.23" y1="76.07" x2="136.29" y2="76.07"/><line x1="175.01" y1="150.53" x2="172.03" y2="150.53"/><line x1="103.53" y1="122.23" x2="103.53" y2="120.74"/><line x1="204.79" y1="143.08" x2="204.79" y2="144.57"/><line x1="118.42" y1="82.03" x2="151.18" y2="82.03"/><line x1="172.03" y1="126.7" x2="175.01" y2="126.7"/><line x1="183.94" y1="150.53" x2="183.94" y2="153.5"/><line x1="183.94" y1="153.5" x2="207.77" y2="153.5"/><line x1="207.77" y1="153.5" x2="207.77" y2="144.57"/><line x1="136.29" y1="40.34" x2="145.23" y2="40.34"/><line x1="207.77" y1="25.45" x2="210.74" y2="25.45"/><line x1="227.12" y1="152.01" x2="230.1" y2="152.01"/><line x1="230.1" y1="152.01" x2="230.1" y2="149.04"/><line x1="230.1" y1="149.04" x2="227.12" y2="149.04"/><line x1="227.12" y1="149.04" x2="227.12" y2="152.01"/><line x1="154.16" y1="153.5" x2="154.16" y2="150.53"/><line x1="169.05" y1="150.53" x2="169.05" y2="153.5"/><line x1="169.05" y1="153.5" x2="175.01" y2="153.5"/><line x1="154.16" y1="150.53" x2="151.18" y2="150.53"/><line x1="151.18" y1="144.57" x2="148.2" y2="144.57"/><line x1="148.2" y1="132.66" x2="151.18" y2="132.66"/><line x1="151.18" y1="132.66" x2="151.18" y2="126.7"/><line x1="148.2" y1="144.57" x2="148.2" y2="153.5"/><line x1="169.05" y1="123.72" x2="169.05" y2="126.7"/><line x1="154.16" y1="126.7" x2="154.16" y2="123.72"/><line x1="154.16" y1="123.72" x2="148.2" y2="123.72"/><line x1="218.19" y1="102.88" x2="219.68" y2="102.88"/><line x1="214.47" y1="135.64" x2="216.7" y2="135.64"/><line x1="231.59" y1="135.64" x2="231.59" y2="129.68"/><line x1="231.59" y1="99.9" x2="207.77" y2="99.9"/><line x1="207.77" y1="99.9" x2="207.77" y2="102.88"/><line x1="204.79" y1="132.66" x2="204.79" y2="141.59"/><line x1="183.94" y1="126.7" x2="210.74" y2="126.7"/><line x1="228.61" y1="132.66" x2="204.79" y2="132.66"/><line x1="216.7" y1="102.88" x2="218.19" y2="102.88"/><line x1="231.59" y1="129.68" x2="228.61" y2="129.68"/><line x1="228.61" y1="105.85" x2="231.59" y2="105.85"/><line x1="231.59" y1="105.85" x2="231.59" y2="99.9"/><line x1="210.74" y1="126.7" x2="210.74" y2="111.81"/><line x1="228.61" y1="129.68" x2="228.61" y2="132.66"/><line x1="228.61" y1="102.88" x2="228.61" y2="105.85"/><line x1="207.77" y1="135.64" x2="213.72" y2="135.64"/><line x1="207.77" y1="141.59" x2="207.77" y2="135.64"/><line x1="207.77" y1="142.34" x2="207.77" y2="141.59"/><line x1="213.72" y1="135.64" x2="214.47" y2="135.64"/><line x1="186.92" y1="123.72" x2="183.94" y2="123.72"/><line x1="198.83" y1="123.72" x2="195.85" y2="123.72"/><line x1="207.77" y1="111.81" x2="207.77" y2="114.79"/><line x1="207.77" y1="105.85" x2="207.77" y2="108.83"/><line x1="195.85" y1="123.72" x2="192.88" y2="123.72"/><line x1="207.77" y1="102.88" x2="207.77" y2="105.85"/><line x1="192.88" y1="123.72" x2="189.9" y2="123.72"/><line x1="189.9" y1="123.72" x2="186.92" y2="123.72"/><line x1="110.98" y1="165.42" x2="109.49" y2="165.42"/><line x1="109.49" y1="162.44" x2="106.51" y2="159.46"/><line x1="106.51" y1="159.46" x2="103.53" y2="159.46"/><line x1="103.53" y1="159.46" x2="103.53" y2="157.97"/><line x1="109.49" y1="165.42" x2="109.49" y2="162.44"/><line x1="103.53" y1="157.97" x2="103.53" y2="153.5"/><line x1="109.49" y1="138.61" x2="109.49" y2="135.64"/><line x1="130.34" y1="135.64" x2="130.34" y2="129.68"/><line x1="130.34" y1="107.34" x2="130.34" y2="105.85"/><line x1="124.38" y1="132.66" x2="124.38" y2="135.64"/><line x1="112.47" y1="135.64" x2="112.47" y2="132.66"/><line x1="124.38" y1="135.64" x2="130.34" y2="135.64"/><line x1="112.47" y1="132.66" x2="109.49" y2="132.66"/><line x1="109.49" y1="132.66" x2="109.49" y2="123.72"/><line x1="115.45" y1="82.03" x2="116.93" y2="82.03"/><line x1="151.18" y1="96.92" x2="127.36" y2="96.92"/><line x1="127.36" y1="96.92" x2="127.36" y2="108.83"/><line x1="127.36" y1="132.66" x2="124.38" y2="132.66"/><line x1="151.18" y1="82.03" x2="154.16" y2="82.03"/><line x1="154.16" y1="93.94" x2="151.18" y2="93.94"/><line x1="154.16" y1="82.03" x2="154.16" y2="76.07"/><line x1="151.18" y1="93.94" x2="151.18" y2="96.92"/><line x1="127.36" y1="108.83" x2="130.34" y2="108.83"/><line x1="130.34" y1="129.68" x2="127.36" y2="129.68"/><line x1="127.36" y1="129.68" x2="127.36" y2="132.66"/><line x1="136.29" y1="99.9" x2="137.78" y2="99.9"/><line x1="130.34" y1="105.85" x2="130.34" y2="99.9"/><line x1="137.78" y1="99.9" x2="154.16" y2="99.9"/><line x1="130.34" y1="99.9" x2="136.29" y2="99.9"/><line x1="252.44" y1="28.42" x2="255.42" y2="28.42"/><line x1="242.76" y1="28.42" x2="243.5" y2="28.42"/><line x1="240.53" y1="28.42" x2="242.01" y2="28.42"/><line x1="116.93" y1="82.03" x2="118.42" y2="82.03"/><line x1="109.49" y1="89.47" x2="109.49" y2="87.99"/><line x1="250.95" y1="28.42" x2="252.44" y2="28.42"/><line x1="250.2" y1="28.42" x2="250.95" y2="28.42"/><line x1="264.35" y1="40.34" x2="264.35" y2="46.29"/><line x1="279.24" y1="111.81" x2="282.22" y2="114.79"/><line x1="273.28" y1="82.03" x2="273.28" y2="83.52"/><line x1="273.28" y1="108.83" x2="277.75" y2="108.83"/><line x1="216.7" y1="135.64" x2="231.59" y2="135.64"/><line x1="207.77" y1="144.57" x2="207.77" y2="142.34"/><line x1="273.28" y1="83.52" x2="273.28" y2="90.96"/><line x1="265.84" y1="76.07" x2="267.33" y2="76.07"/><line x1="273.28" y1="76.07" x2="273.28" y2="82.03"/><line x1="267.33" y1="76.07" x2="273.28" y2="76.07"/><line x1="228.61" y1="40.34" x2="237.55" y2="40.34"/><line x1="195.85" y1="25.45" x2="195.85" y2="22.47"/><line x1="109.49" y1="87.99" x2="109.49" y2="82.03"/><line x1="109.49" y1="82.03" x2="115.45" y2="82.03"/><line x1="279.24" y1="189.24" x2="279.24" y2="210.09"/><line x1="279.24" y1="177.33" x2="285.2" y2="177.33"/><line x1="99.81" y1="147.55" x2="101.3" y2="147.55"/><line x1="279.24" y1="168.39" x2="279.24" y2="177.33"/><line x1="89.39" y1="154.99" x2="87.9" y2="153.5"/><line x1="240.53" y1="204.13" x2="240.53" y2="207.11"/><line x1="270.31" y1="168.39" x2="279.24" y2="168.39"/><line x1="228.61" y1="222" x2="228.61" y2="207.11"/><line x1="103.53" y1="153.5" x2="102.04" y2="153.5"/><line x1="285.2" y1="189.24" x2="279.24" y2="189.24"/><line x1="252.44" y1="168.39" x2="258.39" y2="168.39"/><line x1="285.2" y1="177.33" x2="285.2" y2="178.82"/><line x1="99.81" y1="153.5" x2="98.32" y2="154.99"/><line x1="252.44" y1="207.11" x2="252.44" y2="192.22"/><line x1="252.44" y1="174.35" x2="252.44" y2="168.39"/><line x1="252.44" y1="192.22" x2="249.46" y2="192.22"/><line x1="249.46" y1="192.22" x2="249.46" y2="196.69"/><line x1="258.39" y1="168.39" x2="258.39" y2="165.42"/><line x1="270.31" y1="165.42" x2="270.31" y2="168.39"/><line x1="258.39" y1="165.42" x2="249.46" y2="165.42"/><line x1="249.46" y1="174.35" x2="252.44" y2="174.35"/><line x1="207.77" y1="207.11" x2="207.77" y2="204.88"/><line x1="240.53" y1="207.11" x2="252.44" y2="207.11"/><line x1="237.55" y1="28.42" x2="240.53" y2="28.42"/><line x1="255.42" y1="28.42" x2="255.42" y2="40.34"/><line x1="237.55" y1="40.34" x2="237.55" y2="28.42"/><line x1="255.42" y1="40.34" x2="264.35" y2="40.34"/><line x1="243.5" y1="28.42" x2="249.46" y2="28.42"/><line x1="249.46" y1="28.42" x2="250.2" y2="28.42"/><line x1="267.33" y1="64.16" x2="264.35" y2="64.16"/><line x1="264.35" y1="46.29" x2="267.33" y2="46.29"/><line x1="264.35" y1="64.16" x2="264.35" y2="76.07"/><line x1="276.26" y1="102.88" x2="273.28" y2="102.88"/><line x1="273.28" y1="90.96" x2="276.26" y2="90.96"/><line x1="273.28" y1="102.88" x2="273.28" y2="108.83"/><line x1="267.33" y1="46.29" x2="297.11" y2="46.29"/><line x1="306.04" y1="85.01" x2="306.04" y2="87.99"/><line x1="276.26" y1="64.16" x2="267.33" y2="64.16"/><line x1="103.53" y1="114.79" x2="103.53" y2="113.3"/><line x1="276.26" y1="90.96" x2="276.26" y2="85.01"/><line x1="306.04" y1="46.29" x2="306.04" y2="52.25"/><line x1="306.04" y1="102.88" x2="276.26" y2="102.88"/><line x1="276.26" y1="85.01" x2="276.26" y2="82.03"/><line x1="306.04" y1="76.07" x2="306.04" y2="79.05"/><line x1="276.26" y1="76.07" x2="276.26" y2="64.16"/><line x1="306.04" y1="79.05" x2="306.04" y2="82.03"/><line x1="276.26" y1="82.03" x2="276.26" y2="79.05"/><line x1="276.26" y1="79.05" x2="276.26" y2="76.07"/><line x1="306.04" y1="82.03" x2="306.04" y2="85.01"/><line x1="183.94" y1="204.88" x2="177.99" y2="204.88"/><line x1="177.99" y1="204.88" x2="177.99" y2="207.11"/><line x1="317.96" y1="87.99" x2="317.96" y2="70.12"/><line x1="138.53" y1="55.23" x2="136.29" y2="55.23"/><line x1="317.96" y1="70.12" x2="306.04" y2="70.12"/><line x1="136.29" y1="55.23" x2="136.29" y2="40.34"/><line x1="306.04" y1="99.9" x2="306.04" y2="102.88"/><line x1="306.04" y1="70.12" x2="306.04" y2="76.07"/><line x1="201.81" y1="204.88" x2="201.81" y2="207.11"/><line x1="172.03" y1="198.18" x2="172.03" y2="195.2"/><line x1="172.03" y1="195.2" x2="166.07" y2="195.2"/><line x1="332.85" y1="99.9" x2="306.04" y2="99.9"/><line x1="172.03" y1="207.11" x2="172.03" y2="198.18"/><line x1="138.53" y1="61.18" x2="138.53" y2="55.23"/><line x1="277.75" y1="108.83" x2="279.24" y2="108.83"/><line x1="242.01" y1="28.42" x2="242.76" y2="28.42"/><line x1="282.22" y1="114.79" x2="285.2" y2="114.79"/><line x1="306.04" y1="58.2" x2="332.85" y2="58.2"/><line x1="213.72" y1="198.18" x2="213.72" y2="207.11"/><line x1="285.2" y1="114.79" x2="285.2" y2="116.28"/><line x1="213.72" y1="207.11" x2="207.77" y2="207.11"/><line x1="201.81" y1="207.11" x2="183.94" y2="207.11"/><line x1="207.77" y1="204.88" x2="201.81" y2="204.88"/><line x1="177.99" y1="207.11" x2="172.03" y2="207.11"/><line x1="306.04" y1="87.99" x2="317.96" y2="87.99"/><line x1="183.94" y1="207.11" x2="183.94" y2="204.88"/><line x1="332.85" y1="58.2" x2="332.85" y2="73.09"/><line x1="279.24" y1="108.83" x2="279.24" y2="111.81"/><line x1="154.16" y1="192.22" x2="154.16" y2="195.2"/><line x1="136.29" y1="198.18" x2="136.29" y2="195.2"/><line x1="166.07" y1="195.2" x2="166.07" y2="192.22"/><line x1="166.07" y1="192.22" x2="154.16" y2="192.22"/><line x1="136.29" y1="171.37" x2="136.29" y2="165.42"/><line x1="124.38" y1="171.37" x2="133.31" y2="171.37"/><line x1="133.31" y1="171.37" x2="136.29" y2="171.37"/><line x1="133.31" y1="189.24" x2="124.38" y2="189.24"/><line x1="124.38" y1="189.24" x2="124.38" y2="183.28"/><line x1="136.29" y1="192.22" x2="136.29" y2="189.24"/><line x1="126.61" y1="183.28" x2="126.61" y2="177.33"/><line x1="126.61" y1="177.33" x2="124.38" y2="177.33"/><line x1="136.29" y1="189.24" x2="133.31" y2="189.24"/><line x1="124.38" y1="183.28" x2="126.61" y2="183.28"/><line x1="124.38" y1="177.33" x2="124.38" y2="171.37"/><line x1="154.16" y1="195.2" x2="154.16" y2="198.18"/><line x1="139.27" y1="210.09" x2="136.29" y2="198.18"/><line x1="151.18" y1="210.09" x2="149.69" y2="210.09"/><line x1="154.16" y1="198.18" x2="151.18" y2="210.09"/><line x1="142.25" y1="210.09" x2="140.76" y2="210.09"/><line x1="109.49" y1="90.96" x2="109.49" y2="89.47"/><line x1="219.68" y1="195.2" x2="213.72" y2="195.2"/><line x1="285.2" y1="159.46" x2="282.22" y2="159.46"/><line x1="243.5" y1="204.13" x2="242.01" y2="204.13"/><line x1="249.46" y1="165.42" x2="249.46" y2="174.35"/><line x1="279.24" y1="165.42" x2="277.75" y2="165.42"/><line x1="98.32" y1="146.06" x2="99.81" y2="147.55"/><line x1="87.9" y1="149.04" x2="87.9" y2="147.55"/><line x1="89.39" y1="146.06" x2="98.32" y2="146.06"/><line x1="102.04" y1="153.5" x2="101.3" y2="153.5"/><line x1="87.9" y1="152.01" x2="87.15" y2="152.01"/><line x1="87.9" y1="147.55" x2="89.39" y2="146.06"/><line x1="87.15" y1="149.04" x2="87.9" y2="149.04"/><line x1="103.53" y1="147.55" x2="103.53" y2="143.08"/><line x1="87.15" y1="152.01" x2="87.15" y2="149.04"/><line x1="213.72" y1="195.2" x2="213.72" y2="198.18"/><line x1="154.16" y1="76.07" x2="148.2" y2="76.07"/><line x1="148.2" y1="40.34" x2="175.01" y2="40.34"/><line x1="136.29" y1="76.07" x2="136.29" y2="61.18"/><line x1="225.64" y1="40.34" x2="228.61" y2="40.34"/><line x1="177.99" y1="25.45" x2="186.92" y2="25.45"/><line x1="177.99" y1="40.34" x2="177.99" y2="37.36"/><line x1="225.64" y1="25.45" x2="225.64" y2="37.36"/><line x1="207.77" y1="19.49" x2="207.77" y2="22.47"/><line x1="195.85" y1="22.47" x2="195.85" y2="19.49"/><line x1="207.77" y1="22.47" x2="207.77" y2="25.45"/><line x1="192.88" y1="25.45" x2="195.85" y2="25.45"/><line x1="186.92" y1="25.45" x2="186.92" y2="27.68"/><line x1="186.92" y1="27.68" x2="192.88" y2="27.68"/><line x1="192.88" y1="27.68" x2="192.88" y2="25.45"/><line x1="216.7" y1="25.45" x2="225.64" y2="25.45"/><line x1="216.7" y1="27.68" x2="216.7" y2="25.45"/><line x1="210.74" y1="27.68" x2="216.7" y2="27.68"/><line x1="210.74" y1="25.45" x2="210.74" y2="27.68"/><line x1="177.99" y1="37.36" x2="177.99" y2="25.45"/><line x1="225.64" y1="37.36" x2="225.64" y2="40.34"/><line x1="136.29" y1="61.18" x2="138.53" y2="61.18"/><line x1="201.81" y1="18" x2="207.77" y2="19.49"/><line x1="195.85" y1="19.49" x2="201.81" y2="18"/><line x1="175.01" y1="40.34" x2="177.99" y2="40.34"/><line x1="332.85" y1="76.07" x2="332.85" y2="82.03"/><line x1="332.85" y1="82.03" x2="332.85" y2="83.52"/><line x1="332.85" y1="83.52" x2="332.85" y2="85.01"/><line x1="332.85" y1="74.58" x2="332.85" y2="76.07"/><line x1="109.49" y1="135.64" x2="110.98" y2="135.64"/><line x1="110.98" y1="135.64" x2="112.47" y2="135.64"/><line x1="103.53" y1="141.59" x2="106.51" y2="141.59"/><line x1="103.53" y1="143.08" x2="103.53" y2="141.59"/><line x1="106.51" y1="141.59" x2="109.49" y2="138.61"/><line x1="201.81" y1="123.72" x2="198.83" y2="123.72"/><line x1="207.77" y1="114.79" x2="207.77" y2="117.77"/><line x1="207.77" y1="123.72" x2="201.81" y2="123.72"/><line x1="207.77" y1="117.77" x2="207.77" y2="123.72"/><line x1="87.9" y1="153.5" x2="87.9" y2="152.01"/><line x1="102.04" y1="147.55" x2="103.53" y2="147.55"/><line x1="101.3" y1="153.5" x2="99.81" y2="153.5"/><line x1="101.3" y1="147.55" x2="102.04" y2="147.55"/><line x1="98.32" y1="154.99" x2="89.39" y2="154.99"/><line x1="228.61" y1="204.13" x2="219.68" y2="204.13"/><line x1="228.61" y1="207.11" x2="228.61" y2="204.13"/><line x1="249.46" y1="204.13" x2="243.5" y2="204.13"/><line x1="249.46" y1="198.18" x2="249.46" y2="204.13"/><line x1="219.68" y1="204.13" x2="219.68" y2="198.18"/><line x1="249.46" y1="196.69" x2="249.46" y2="198.18"/><line x1="219.68" y1="198.18" x2="219.68" y2="195.2"/><line x1="279.24" y1="210.09" x2="276.26" y2="210.09"/><line x1="276.26" y1="210.09" x2="276.26" y2="211.58"/><line x1="268.82" y1="219.02" x2="267.33" y2="219.02"/><line x1="267.33" y1="219.02" x2="267.33" y2="222"/><line x1="267.33" y1="222" x2="228.61" y2="222"/><line x1="276.26" y1="211.58" x2="276.26" y2="213.07"/><line x1="276.26" y1="219.02" x2="270.31" y2="219.02"/><line x1="276.26" y1="213.07" x2="276.26" y2="219.02"/><line x1="270.31" y1="219.02" x2="268.82" y2="219.02"/><line x1="282.22" y1="159.46" x2="279.24" y2="162.44"/><line x1="279.24" y1="162.44" x2="279.24" y2="165.42"/><line x1="285.2" y1="157.97" x2="285.2" y2="159.46"/><line x1="277.75" y1="165.42" x2="270.31" y2="165.42"/><line x1="285.2" y1="180.31" x2="285.2" y2="186.26"/><line x1="285.2" y1="186.26" x2="285.2" y2="187.75"/><line x1="285.2" y1="178.82" x2="285.2" y2="180.31"/><line x1="285.2" y1="187.75" x2="285.2" y2="189.24"/><line x1="148.2" y1="210.09" x2="142.25" y2="210.09"/><line x1="149.69" y1="210.09" x2="148.2" y2="210.09"/><line x1="140.76" y1="210.09" x2="139.27" y2="210.09"/><line x1="130.34" y1="108.83" x2="130.34" y2="107.34"/><line x1="109.49" y1="111.81" x2="109.49" y2="90.96"/><line x1="109.49" y1="123.72" x2="103.53" y2="123.72"/><line x1="103.53" y1="123.72" x2="103.53" y2="122.23"/><line x1="103.53" y1="111.81" x2="109.49" y2="111.81"/><line x1="103.53" y1="120.74" x2="103.53" y2="114.79"/><line x1="297.11" y1="144.57" x2="297.11" y2="147.55"/><line x1="297.11" y1="134.89" x2="297.11" y2="135.64"/><line x1="297.11" y1="132.66" x2="297.11" y2="134.15"/><line x1="297.11" y1="143.08" x2="297.11" y2="144.57"/><line x1="297.11" y1="142.34" x2="297.11" y2="143.08"/><line x1="297.11" y1="129.68" x2="297.11" y2="132.66"/><line x1="297.11" y1="147.55" x2="285.2" y2="147.55"/><line x1="285.2" y1="129.68" x2="297.11" y2="129.68"/><line x1="297.11" y1="135.64" x2="297.11" y2="141.59"/><line x1="297.11" y1="141.59" x2="297.11" y2="142.34"/><line x1="297.11" y1="134.15" x2="297.11" y2="134.89"/><line x1="285.2" y1="147.55" x2="285.2" y2="157.97"/><line x1="197.34" y1="150.53" x2="195.85" y2="150.53"/><line x1="204.79" y1="150.53" x2="198.83" y2="150.53"/><line x1="204.79" y1="144.57" x2="204.79" y2="150.53"/><line x1="198.83" y1="150.53" x2="197.34" y2="150.53"/><line x1="204.79" y1="141.59" x2="204.79" y2="143.08"/><line x1="195.85" y1="150.53" x2="183.94" y2="150.53"/><line x1="210.74" y1="102.88" x2="216.7" y2="102.88"/><line x1="210.74" y1="108.83" x2="210.74" y2="102.88"/><line x1="210.74" y1="111.81" x2="210.74" y2="110.32"/><line x1="219.68" y1="102.88" x2="228.61" y2="102.88"/><line x1="175.01" y1="126.7" x2="175.01" y2="123.72"/><line x1="297.11" y1="46.29" x2="298.6" y2="46.29"/><line x1="306.04" y1="55.23" x2="306.04" y2="58.2"/><line x1="306.04" y1="52.25" x2="306.04" y2="53.74"/><line x1="300.09" y1="46.29" x2="306.04" y2="46.29"/><line x1="298.6" y1="46.29" x2="300.09" y2="46.29"/><line x1="306.04" y1="53.74" x2="306.04" y2="55.23"/><line x1="332.85" y1="85.01" x2="332.85" y2="99.9"/><line x1="332.85" y1="73.09" x2="332.85" y2="74.58"/></g><g opacity="0.95"><circle cx="201.81" cy="147.55" r="2.2" fill="#d3b15b"/><circle cx="199.2" cy="193.34" r="2.2" fill="#d3b15b"/><circle cx="210.74" cy="138.61" r="2.2" fill="#d3b15b"/><circle cx="329.87" cy="79.05" r="2.2" fill="#d3b15b"/><circle cx="111.72" cy="84.26" r="3.2" fill="#b7493c"/><circle cx="291.15" cy="80.54" r="2.2" fill="#d3b15b"/><circle cx="204.79" cy="120.74" r="2.2" fill="#d3b15b"/><circle cx="192.88" cy="192.22" r="2.2" fill="#d3b15b"/><circle cx="294.88" cy="138.61" r="3.2" fill="#b7493c"/><circle cx="270.31" cy="79.05" r="2.2" fill="#d3b15b"/><circle cx="148.2" cy="95.43" r="2.2" fill="#d3b15b"/><circle cx="132.57" cy="102.13" r="3.2" fill="#b7493c"/><circle cx="118.42" cy="147.55" r="3.2" fill="#b7493c"/><circle cx="186.55" cy="193.34" r="2.2" fill="#d3b15b"/><circle cx="202.55" cy="148.29" r="3.2" fill="#b7493c"/><circle cx="271.05" cy="78.31" r="3.2" fill="#b7493c"/><circle cx="282.96" cy="183.28" r="2.2" fill="#d3b15b"/><circle cx="145.23" cy="207.85" r="3.2" fill="#b7493c"/><circle cx="247.23" cy="201.9" r="3.2" fill="#b7493c"/><circle cx="274.03" cy="216.79" r="3.2" fill="#b7493c"/><circle cx="304.55" cy="47.78" r="3.2" fill="#b7493c"/><circle cx="194.36" cy="49.27" r="3.2" fill="#b7493c"/><circle cx="105.77" cy="117.77" r="2.2" fill="#d3b15b"/><circle cx="282.96" cy="118.51" r="2.2" fill="#d3b15b"/><circle cx="93.85" cy="150.53" r="2.2" fill="#d3b15b"/><circle cx="150.07" cy="55.6" r="2.2" fill="#d3b15b"/><circle cx="151.18" cy="49.27" r="2.2" fill="#d3b15b"/><circle cx="150.07" cy="42.94" r="2.2" fill="#d3b15b"/><circle cx="124.38" cy="153.5" r="3.2" fill="#b7493c"/><circle cx="124.38" cy="147.55" r="3.2" fill="#b7493c"/><circle cx="118.42" cy="153.5" r="3.2" fill="#b7493c"/><circle cx="105.02" cy="120.74" r="2.2" fill="#d3b15b"/><circle cx="105.02" cy="114.79" r="2.2" fill="#d3b15b"/><circle cx="283.71" cy="186.26" r="2.2" fill="#d3b15b"/><circle cx="283.71" cy="180.31" r="2.2" fill="#d3b15b"/><circle cx="294.88" cy="131.91" r="2.2" fill="#d3b15b"/><circle cx="294.88" cy="145.31" r="2.2" fill="#d3b15b"/><circle cx="221.91" cy="201.9" r="2.2" fill="#d3b15b"/><circle cx="230.85" cy="219.77" r="2.2" fill="#d3b15b"/><circle cx="105.77" cy="155.74" r="2.2" fill="#d3b15b"/><circle cx="105.77" cy="145.31" r="2.2" fill="#d3b15b"/><circle cx="149.69" cy="208.6" r="2.2" fill="#d3b15b"/><circle cx="140.76" cy="208.6" r="2.2" fill="#d3b15b"/><circle cx="213.72" cy="105.85" r="2.2" fill="#d3b15b"/><circle cx="153.42" cy="128.93" r="2.2" fill="#d3b15b"/><circle cx="153.42" cy="148.29" r="2.2" fill="#d3b15b"/><circle cx="216.7" cy="137.87" r="2.2" fill="#d3b15b"/><circle cx="262.12" cy="42.57" r="2.2" fill="#d3b15b"/><circle cx="207.02" cy="52.25" r="2.2" fill="#d3b15b"/><circle cx="330.61" cy="60.44" r="2.2" fill="#d3b15b"/><circle cx="330.61" cy="97.66" r="2.2" fill="#d3b15b"/><circle cx="149.69" cy="74.58" r="2.2" fill="#d3b15b"/><circle cx="149.69" cy="71.61" r="2.2" fill="#d3b15b"/><circle cx="168.31" cy="192.96" r="2.2" fill="#d3b15b"/></g></svg>