<svg xmlns="http://www.w3.org/2000/svg" viewBox="0 0 420 240" role="img"><rect width="100%" height="100%" fill="#070706"/><g stroke="#5e5a4f" stroke-width="1.6" stroke-linecap="round"><line x1="168.54" y1="64.44" x2="168.54" y2="66.1"/><line x1="168.54" y1="74.39" x2="170.2" y2="74.39"/><line x1="170.2" y1="64.44" x2="168.54" y2="64.44"/><line x1="151.95" y1="74.39" x2="151.95" y2="72.73"/><line x1="151.95" y1="64.44" x2="150.29" y2="64.44"/><line x1="150.29" y1="74.39" x2="151.95" y2="74.39"/><line x1="151.95" y1="72.73" x2="168.54" y2="72.73"/><line x1="168.54" y1="66.1" x2="168.54" y2="72.73"/><line x1="168.54" y1="66.1" x2="151.95" y2="66.1"/><line x1="151.95" y1="72.73" x2="151.95" y2="66.1"/><line x1="168.54" y1="72.73" x2="168.54" y2="74.39"/><line x1="151.95" y1="66.1" x2="151.95" y2="64.44"/><line x1="211.66" y1="77.71" x2="213.32" y2="77.71"/><line x1="221.61" y1="77.71" x2="221.61" y2="76.05"/><line x1="211.66" y1="76.05" x2="211.66" y2="77.71"/><line x1="221.61" y1="94.29" x2="219.95" y2="94.29"/><line x1="211.66" y1="94.29" x2="211.66" y2="95.95"/><line x1="221.61" y1="95.95" x2="221.61" y2="94.29"/><line x1="213.32" y1="77.71" x2="213.32" y2="94.29"/><line x1="219.95" y1="94.29" x2="213.32" y2="94.29"/><line x1="219.95" y1="94.29" x2="219.95" y2="77.71"/><line x1="213.32" y1="77.71" x2="219.95" y2="77.71"/><line x1="219.95" y1="77.71" x2="221.61" y2="77.71"/><line x1="213.32" y1="94.29" x2="211.66" y2="94.29"/><line x1="191.76" y1="147.37" x2="191.76" y2="145.71"/><line x1="191.76" y1="137.41" x2="190.1" y2="137.41"/><line x1="190.1" y1="147.37" x2="191.76" y2="147.37"/><line x1="191.76" y1="145.71" x2="208.34" y2="145.71"/><line x1="208.34" y1="139.07" x2="191.76" y2="139.07"/><line x1="191.76" y1="145.71" x2="191.76" y2="139.07"/><line x1="191.76" y1="139.07" x2="191.76" y2="137.41"/><line x1="208.34" y1="137.41" x2="208.34" y2="139.07"/><line x1="208.34" y1="139.07" x2="208.34" y2="145.71"/><line x1="208.34" y1="145.71" x2="208.34" y2="147.37"/><line x1="208.34" y1="147.37" x2="210" y2="147.37"/><line x1="210" y1="137.41" x2="208.34" y2="137.41"/><line x1="140.34" y1="134.1" x2="138.68" y2="134.1"/><line x1="140.34" y1="117.51" x2="146.98" y2="117.51"/><line x1="140.34" y1="117.51" x2="140.34" y2="134.1"/><line x1="138.68" y1="115.85" x2="138.68" y2="117.51"/><line x1="138.68" y1="117.51" x2="140.34" y2="117.51"/><line x1="146.98" y1="117.51" x2="148.63" y2="117.51"/><line x1="148.63" y1="117.51" x2="148.63" y2="115.85"/><line x1="138.68" y1="134.1" x2="138.68" y2="135.76"/><line x1="148.63" y1="135.76" x2="148.63" y2="134.1"/><line x1="148.63" y1="134.1" x2="146.98" y2="134.1"/><line x1="146.98" y1="134.1" x2="140.34" y2="134.1"/><line x1="146.98" y1="134.1" x2="146.98" y2="117.51"/><line x1="133.71" y1="36.24" x2="146.98" y2="36.24"/><line x1="113.8" y1="54.49" x2="128.73" y2="39.56"/><line x1="170.2" y1="76.05" x2="150.29" y2="95.95"/><line x1="150.29" y1="115.85" x2="170.2" y2="135.76"/><line x1="190.1" y1="135.76" x2="210" y2="115.85"/><line x1="210" y1="95.95" x2="190.1" y2="76.05"/><line x1="231.56" y1="39.56" x2="246.49" y2="54.49"/><line x1="243.17" y1="36.24" x2="249.8" y2="42.88"/><line x1="302.88" y1="112.54" x2="302.88" y2="132.44"/><line x1="251.46" y1="81.02" x2="253.12" y2="81.02"/><line x1="253.12" y1="81.02" x2="259.76" y2="81.02"/><line x1="253.12" y1="97.61" x2="251.46" y2="97.61"/><line x1="251.46" y1="97.61" x2="251.46" y2="99.27"/><line x1="261.41" y1="99.27" x2="261.41" y2="97.61"/><line x1="261.41" y1="97.61" x2="259.76" y2="97.61"/><line x1="259.76" y1="97.61" x2="259.76" y2="81.02"/><line x1="259.76" y1="81.02" x2="261.41" y2="81.02"/><line x1="261.41" y1="81.02" x2="261.41" y2="79.37"/><line x1="251.46" y1="79.37" x2="251.46" y2="81.02"/><line x1="253.12" y1="81.02" x2="253.12" y2="97.61"/><line x1="259.76" y1="97.61" x2="253.12" y2="97.61"/><line x1="259.76" y1="130.78" x2="253.12" y2="130.78"/><line x1="261.41" y1="130.78" x2="259.76" y2="130.78"/><line x1="259.76" y1="130.78" x2="259.76" y2="114.2"/><line x1="251.46" y1="112.54" x2="251.46" y2="114.2"/><line x1="251.46" y1="114.2" x2="253.12" y2="114.2"/><line x1="259.76" y1="114.2" x2="261.41" y2="114.2"/><line x1="261.41" y1="114.2" x2="261.41" y2="112.54"/><line x1="251.46" y1="130.78" x2="251.46" y2="132.44"/><line x1="261.41" y1="132.44" x2="261.41" y2="130.78"/><line x1="253.12" y1="114.2" x2="253.12" y2="130.78"/><line x1="253.12" y1="130.78" x2="251.46" y2="130.78"/><line x1="253.12" y1="114.2" x2="259.76" y2="114.2"/><line x1="282.98" y1="112.54" x2="282.98" y2="132.44"/><line x1="296.24" y1="112.54" x2="296.24" y2="132.44"/><line x1="289.61" y1="112.54" x2="289.61" y2="132.44"/><line x1="302.88" y1="79.37" x2="302.88" y2="99.27"/><line x1="304.54" y1="110.88" x2="304.54" y2="109.22"/><line x1="304.54" y1="100.93" x2="302.88" y2="100.93"/><line x1="302.88" y1="110.88" x2="304.54" y2="110.88"/><line x1="304.54" y1="109.22" x2="321.12" y2="109.22"/><line x1="321.12" y1="102.59" x2="304.54" y2="102.59"/><line x1="304.54" y1="109.22" x2="304.54" y2="102.59"/><line x1="304.54" y1="102.59" x2="304.54" y2="100.93"/><line x1="321.12" y1="100.93" x2="321.12" y2="102.59"/><line x1="321.12" y1="102.59" x2="321.12" y2="109.22"/><line x1="321.12" y1="109.22" x2="321.12" y2="110.88"/><line x1="321.12" y1="110.88" x2="322.78" y2="110.88"/><line x1="322.78" y1="100.93" x2="321.12" y2="100.93"/><line x1="311.17" y1="82.68" x2="319.46" y2="90.98"/><line x1="319.46" y1="120.83" x2="311.17" y2="129.12"/><line x1="284.63" y1="82.68" x2="297.9" y2="82.68"/><line x1="292.93" y1="95.95" x2="297.9" y2="82.68"/><line x1="281.32" y1="82.68" x2="276.34" y2="95.95"/><line x1="246.49" y1="157.32" x2="231.56" y2="172.24"/><line x1="249.8" y1="168.93" x2="243.17" y2="175.56"/><line x1="128.73" y1="172.24" x2="113.8" y2="157.32"/><line x1="214.98" y1="180.54" x2="214.98" y2="182.2"/><line x1="214.98" y1="190.49" x2="216.63" y2="190.49"/><line x1="214.98" y1="182.2" x2="214.98" y2="188.83"/><line x1="145.32" y1="188.83" x2="145.32" y2="182.2"/><line x1="214.98" y1="182.2" x2="186.78" y2="182.2"/><line x1="216.63" y1="180.54" x2="214.98" y2="180.54"/><line x1="145.32" y1="180.54" x2="143.66" y2="180.54"/><line x1="145.32" y1="182.2" x2="145.32" y2="180.54"/><line x1="214.98" y1="188.83" x2="214.98" y2="190.49"/><line x1="145.32" y1="188.83" x2="173.51" y2="188.83"/><line x1="143.66" y1="190.49" x2="145.32" y2="190.49"/><line x1="145.32" y1="190.49" x2="145.32" y2="188.83"/><line x1="173.51" y1="182.2" x2="145.32" y2="182.2"/><line x1="186.78" y1="188.83" x2="214.98" y2="188.83"/><line x1="176.83" y1="182.2" x2="173.51" y2="182.2"/><line x1="183.46" y1="188.83" x2="186.78" y2="188.83"/><line x1="173.51" y1="182.2" x2="173.51" y2="188.83"/><line x1="173.51" y1="188.83" x2="176.83" y2="188.83"/><line x1="186.78" y1="188.83" x2="186.78" y2="182.2"/><line x1="186.78" y1="182.2" x2="183.46" y2="182.2"/><line x1="216.63" y1="202.1" x2="203.37" y2="215.37"/><line x1="196.73" y1="215.37" x2="190.1" y2="215.37"/><line x1="170.2" y1="215.37" x2="163.56" y2="215.37"/><line x1="185.12" y1="212.05" x2="183.46" y2="208.73"/><line x1="183.46" y1="208.73" x2="176.83" y2="208.73"/><line x1="176.83" y1="208.73" x2="175.17" y2="212.05"/><line x1="156.93" y1="215.37" x2="143.66" y2="202.1"/><line x1="166.88" y1="94.29" x2="168.54" y2="95.95"/><line x1="146.98" y1="36.24" x2="146.98" y2="29.61"/><line x1="146.98" y1="36.24" x2="160.24" y2="36.24"/><line x1="160.24" y1="29.61" x2="160.24" y2="36.24"/><line x1="200.05" y1="29.61" x2="213.32" y2="29.61"/><line x1="165.22" y1="95.95" x2="166.88" y2="94.29"/><line x1="160.24" y1="36.24" x2="173.51" y2="36.24"/><line x1="173.51" y1="29.61" x2="186.78" y2="29.61"/><line x1="186.78" y1="29.61" x2="186.78" y2="36.24"/><line x1="173.51" y1="36.24" x2="186.78" y2="36.24"/><line x1="173.51" y1="36.24" x2="173.51" y2="29.61"/><line x1="163.56" y1="94.29" x2="165.22" y2="95.95"/><line x1="186.78" y1="36.24" x2="200.05" y2="36.24"/><line x1="200.05" y1="36.24" x2="200.05" y2="29.61"/><line x1="200.05" y1="36.24" x2="213.32" y2="36.24"/><line x1="213.32" y1="29.61" x2="213.32" y2="36.24"/><line x1="146.98" y1="29.61" x2="160.24" y2="29.61"/><line x1="165.22" y1="92.63" x2="163.56" y2="94.29"/><line x1="213.32" y1="36.24" x2="226.59" y2="36.24"/><line x1="176.83" y1="76.05" x2="176.83" y2="99.27"/><line x1="183.46" y1="102.59" x2="183.46" y2="99.27"/><line x1="176.83" y1="102.59" x2="173.51" y2="102.59"/><line x1="150.29" y1="109.22" x2="173.51" y2="109.22"/><line x1="176.83" y1="109.22" x2="176.83" y2="112.54"/><line x1="183.46" y1="135.76" x2="183.46" y2="112.54"/><line x1="183.46" y1="109.22" x2="186.78" y2="109.22"/><line x1="210" y1="102.59" x2="186.78" y2="102.59"/><line x1="173.51" y1="99.27" x2="173.51" y2="102.59"/><line x1="173.51" y1="102.59" x2="173.51" y2="109.22"/><line x1="173.51" y1="109.22" x2="173.51" y2="112.54"/><line x1="173.51" y1="112.54" x2="176.83" y2="112.54"/><line x1="176.83" y1="112.54" x2="183.46" y2="112.54"/><line x1="183.46" y1="112.54" x2="186.78" y2="112.54"/><line x1="186.78" y1="112.54" x2="186.78" y2="109.22"/><line x1="186.78" y1="109.22" x2="186.78" y2="102.59"/><line x1="186.78" y1="102.59" x2="186.78" y2="99.27"/><line x1="186.78" y1="99.27" x2="183.46" y2="99.27"/><line x1="183.46" y1="99.27" x2="176.83" y2="99.27"/><line x1="176.83" y1="99.27" x2="173.51" y2="99.27"/><line x1="176.83" y1="99.27" x2="176.83" y2="102.59"/><line x1="183.46" y1="99.27" x2="183.46" y2="76.05"/><line x1="173.51" y1="102.59" x2="150.29" y2="102.59"/><line x1="173.51" y1="109.22" x2="176.83" y2="109.22"/><line x1="176.83" y1="112.54" x2="176.83" y2="135.76"/><line x1="183.46" y1="112.54" x2="183.46" y2="109.22"/><line x1="186.78" y1="109.22" x2="210" y2="109.22"/><line x1="186.78" y1="102.59" x2="183.46" y2="102.59"/><line x1="110.49" y1="152.34" x2="110.49" y2="139.07"/><line x1="163.56" y1="90.98" x2="165.22" y2="92.63"/><line x1="110.49" y1="139.07" x2="110.49" y2="135.76"/><line x1="110.49" y1="139.07" x2="103.85" y2="139.07"/><line x1="103.85" y1="129.12" x2="103.85" y2="125.8"/><line x1="103.85" y1="86" x2="103.85" y2="82.68"/><line x1="165.22" y1="89.32" x2="163.56" y2="90.98"/><line x1="110.49" y1="125.8" x2="110.49" y2="112.54"/><line x1="110.49" y1="112.54" x2="103.85" y2="112.54"/><line x1="110.49" y1="112.54" x2="110.49" y2="109.22"/><line x1="103.85" y1="99.27" x2="110.49" y2="99.27"/><line x1="103.85" y1="112.54" x2="103.85" y2="109.22"/><line x1="166.88" y1="90.98" x2="165.22" y2="89.32"/><line x1="110.49" y1="99.27" x2="110.49" y2="86"/><line x1="110.49" y1="86" x2="103.85" y2="86"/><line x1="110.49" y1="86" x2="110.49" y2="82.68"/><line x1="103.85" y1="72.73" x2="110.49" y2="72.73"/><line x1="103.85" y1="135.76" x2="110.49" y2="135.76"/><line x1="168.54" y1="89.32" x2="166.88" y2="90.98"/><line x1="110.49" y1="72.73" x2="110.49" y2="59.46"/><line x1="103.85" y1="125.8" x2="110.49" y2="125.8"/><line x1="110.49" y1="102.59" x2="110.49" y2="99.27"/><line x1="103.85" y1="76.05" x2="103.85" y2="72.73"/><line x1="102.2" y1="82.68" x2="103.85" y2="82.68"/><line x1="103.85" y1="82.68" x2="110.49" y2="82.68"/><line x1="110.49" y1="82.68" x2="137.02" y2="82.68"/><line x1="137.02" y1="76.05" x2="110.49" y2="76.05"/><line x1="110.49" y1="76.05" x2="103.85" y2="76.05"/><line x1="103.85" y1="76.05" x2="102.2" y2="76.05"/><line x1="110.49" y1="76.05" x2="110.49" y2="72.73"/><line x1="103.85" y1="82.68" x2="103.85" y2="76.05"/><line x1="110.49" y1="82.68" x2="110.49" y2="76.05"/><line x1="102.2" y1="109.22" x2="103.85" y2="109.22"/><line x1="103.85" y1="109.22" x2="110.49" y2="109.22"/><line x1="110.49" y1="109.22" x2="137.02" y2="109.22"/><line x1="137.02" y1="102.59" x2="110.49" y2="102.59"/><line x1="110.49" y1="102.59" x2="103.85" y2="102.59"/><line x1="103.85" y1="102.59" x2="102.2" y2="102.59"/><line x1="110.49" y1="109.22" x2="110.49" y2="102.59"/><line x1="103.85" y1="109.22" x2="103.85" y2="102.59"/><line x1="103.85" y1="102.59" x2="103.85" y2="99.27"/><line x1="102.2" y1="135.76" x2="103.85" y2="135.76"/><line x1="110.49" y1="135.76" x2="110.49" y2="129.12"/><line x1="110.49" y1="135.76" x2="123.76" y2="135.76"/><line x1="123.76" y1="135.76" x2="127.07" y2="135.76"/><line x1="123.76" y1="129.12" x2="110.49" y2="129.12"/><line x1="103.85" y1="135.76" x2="103.85" y2="129.12"/><line x1="103.85" y1="129.12" x2="102.2" y2="129.12"/><line x1="103.85" y1="139.07" x2="103.85" y2="135.76"/><line x1="110.49" y1="129.12" x2="110.49" y2="125.8"/><line x1="110.49" y1="129.12" x2="103.85" y2="129.12"/><line x1="127.07" y1="135.76" x2="127.07" y2="129.12"/><line x1="127.07" y1="129.12" x2="123.76" y2="129.12"/><line x1="123.76" y1="135.76" x2="123.76" y2="129.12"/><line x1="110.49" y1="42.88" x2="117.12" y2="36.24"/><line x1="117.12" y1="175.56" x2="110.49" y2="168.93"/><line x1="162.52" y1="90.98" x2="164.18" y2="92.63"/><line x1="168.54" y1="88.7" x2="166.88" y2="90.35"/><line x1="164.18" y1="92.63" x2="162.52" y2="94.29"/><line x1="169.57" y1="92.63" x2="171.23" y2="90.98"/><line x1="162.52" y1="94.29" x2="165.22" y2="96.99"/><line x1="166.88" y1="95.33" x2="168.54" y2="96.99"/><line x1="168.54" y1="96.99" x2="171.23" y2="94.29"/><line x1="171.23" y1="94.29" x2="169.57" y2="92.63"/><line x1="165.22" y1="96.99" x2="166.88" y2="95.33"/><line x1="171.23" y1="90.98" x2="168.54" y2="88.28"/><line x1="168.54" y1="88.28" x2="166.88" y2="89.94"/><line x1="168.54" y1="95.95" x2="170.2" y2="94.29"/><line x1="170.2" y1="94.29" x2="168.54" y2="92.63"/><line x1="166.88" y1="90.35" x2="165.22" y2="88.7"/><line x1="168.54" y1="92.63" x2="170.2" y2="90.98"/><line x1="165.22" y1="88.7" x2="162.94" y2="90.98"/><line x1="162.94" y1="90.98" x2="164.6" y2="92.63"/><line x1="170.2" y1="90.98" x2="168.54" y2="89.32"/><line x1="169.16" y1="92.63" x2="170.82" y2="90.98"/><line x1="164.6" y1="92.63" x2="162.94" y2="94.29"/><line x1="162.94" y1="94.29" x2="165.22" y2="96.57"/><line x1="166.88" y1="94.91" x2="168.54" y2="96.57"/><line x1="165.22" y1="96.57" x2="166.88" y2="94.91"/><line x1="168.54" y1="96.57" x2="170.82" y2="94.29"/><line x1="170.82" y1="90.98" x2="168.54" y2="88.7"/><line x1="170.82" y1="94.29" x2="169.16" y2="92.63"/><line x1="166.88" y1="89.94" x2="165.22" y2="88.28"/><line x1="165.22" y1="88.28" x2="162.52" y2="90.98"/><line x1="118.78" y1="36.24" x2="125.41" y2="36.24"/><line x1="118.78" y1="34.59" x2="125.41" y2="34.59"/><line x1="125.41" y1="32.1" x2="118.78" y2="32.1"/><line x1="125.41" y1="33.76" x2="118.78" y2="33.76"/><line x1="120.44" y1="18.83" x2="123.76" y2="18.83"/><line x1="210" y1="62.68" x2="183.46" y2="62.68"/><line x1="183.46" y1="135.76" x2="176.83" y2="135.76"/><line x1="176.83" y1="76.05" x2="183.46" y2="76.05"/><line x1="160.24" y1="149.02" x2="166.88" y2="149.02"/><line x1="200.05" y1="62.78" x2="193.41" y2="62.78"/></g><g stroke="#d3b15b" stroke-width="2.4" stroke-linecap="round"><line x1="243.17" y1="175.56" x2="233.22" y2="175.56"/><line x1="249.8" y1="42.88" x2="249.8" y2="52.83"/><line x1="110.49" y1="52.83" x2="110.49" y2="42.88"/><line x1="117.12" y1="175.56" x2="110.49" y2="175.56"/><line x1="190.1" y1="76.05" x2="211.66" y2="76.05"/><line x1="137.02" y1="135.76" x2="137.02" y2="149.02"/><line x1="137.02" y1="149.02" x2="160.24" y2="149.02"/><line x1="190.1" y1="149.02" x2="190.1" y2="147.37"/><line x1="210" y1="115.85" x2="210" y2="137.41"/><line x1="210" y1="149.02" x2="223.27" y2="149.02"/><line x1="223.27" y1="149.02" x2="223.27" y2="95.95"/><line x1="223.27" y1="95.95" x2="221.61" y2="95.95"/><line x1="170.2" y1="135.76" x2="148.63" y2="135.76"/><line x1="223.27" y1="76.05" x2="223.27" y2="62.78"/><line x1="223.27" y1="62.78" x2="200.05" y2="62.78"/><line x1="170.2" y1="62.78" x2="170.2" y2="64.44"/><line x1="150.29" y1="95.95" x2="150.29" y2="74.39"/><line x1="150.29" y1="62.78" x2="137.02" y2="62.78"/><line x1="137.02" y1="62.78" x2="137.02" y2="76.05"/><line x1="137.02" y1="115.85" x2="138.68" y2="115.85"/><line x1="170.2" y1="64.44" x2="170.2" y2="74.39"/><line x1="170.2" y1="74.39" x2="170.2" y2="76.05"/><line x1="150.29" y1="74.39" x2="150.29" y2="64.44"/><line x1="150.29" y1="64.44" x2="150.29" y2="62.78"/><line x1="211.66" y1="76.05" x2="221.61" y2="76.05"/><line x1="221.61" y1="76.05" x2="223.27" y2="76.05"/><line x1="221.61" y1="95.95" x2="211.66" y2="95.95"/><line x1="211.66" y1="95.95" x2="210" y2="95.95"/><line x1="190.1" y1="147.37" x2="190.1" y2="137.41"/><line x1="190.1" y1="137.41" x2="190.1" y2="135.76"/><line x1="210" y1="147.37" x2="210" y2="149.02"/><line x1="210" y1="137.41" x2="210" y2="147.37"/><line x1="138.68" y1="115.85" x2="148.63" y2="115.85"/><line x1="138.68" y1="135.76" x2="137.02" y2="135.76"/><line x1="148.63" y1="115.85" x2="150.29" y2="115.85"/><line x1="148.63" y1="135.76" x2="138.68" y2="135.76"/><line x1="132.05" y1="39.56" x2="133.71" y2="36.24"/><line x1="128.73" y1="39.56" x2="132.05" y2="39.56"/><line x1="113.8" y1="54.49" x2="110.49" y2="52.83"/><line x1="110.49" y1="59.46" x2="113.8" y2="57.8"/><line x1="113.8" y1="57.8" x2="113.8" y2="54.49"/><line x1="127.07" y1="36.24" x2="128.73" y2="39.56"/><line x1="110.49" y1="42.88" x2="110.49" y2="36.24"/><line x1="117.12" y1="36.24" x2="118.78" y2="36.24"/><line x1="150.29" y1="115.85" x2="150.29" y2="109.22"/><line x1="190.1" y1="135.76" x2="183.46" y2="135.76"/><line x1="210" y1="95.95" x2="210" y2="102.59"/><line x1="170.2" y1="76.05" x2="176.83" y2="76.05"/><line x1="226.59" y1="36.24" x2="228.24" y2="39.56"/><line x1="228.24" y1="39.56" x2="231.56" y2="39.56"/><line x1="231.56" y1="39.56" x2="233.22" y2="36.24"/><line x1="233.22" y1="36.24" x2="243.17" y2="36.24"/><line x1="249.8" y1="52.83" x2="246.49" y2="54.49"/><line x1="246.49" y1="54.49" x2="246.49" y2="57.8"/><line x1="246.49" y1="57.8" x2="249.8" y2="59.46"/><line x1="249.8" y1="59.46" x2="249.8" y2="79.37"/><line x1="249.8" y1="99.27" x2="249.8" y2="112.54"/><line x1="249.8" y1="132.44" x2="249.8" y2="152.34"/><line x1="319.46" y1="132.44" x2="312.83" y2="132.44"/><line x1="249.8" y1="79.37" x2="251.46" y2="79.37"/><line x1="302.88" y1="99.27" x2="294.59" y2="99.27"/><line x1="322.78" y1="82.68" x2="322.78" y2="89.32"/><line x1="249.8" y1="112.54" x2="251.46" y2="112.54"/><line x1="249.8" y1="152.34" x2="246.49" y2="154"/><line x1="246.49" y1="154" x2="246.49" y2="157.32"/><line x1="246.49" y1="157.32" x2="249.8" y2="158.98"/><line x1="249.8" y1="158.98" x2="249.8" y2="168.93"/><line x1="226.59" y1="175.56" x2="216.63" y2="175.56"/><line x1="228.24" y1="172.24" x2="226.59" y2="175.56"/><line x1="231.56" y1="172.24" x2="228.24" y2="172.24"/><line x1="233.22" y1="175.56" x2="231.56" y2="172.24"/><line x1="261.41" y1="99.27" x2="251.46" y2="99.27"/><line x1="251.46" y1="79.37" x2="261.41" y2="79.37"/><line x1="261.41" y1="79.37" x2="279.66" y2="79.37"/><line x1="251.46" y1="99.27" x2="249.8" y2="99.27"/><line x1="251.46" y1="112.54" x2="261.41" y2="112.54"/><line x1="251.46" y1="132.44" x2="249.8" y2="132.44"/><line x1="261.41" y1="112.54" x2="282.98" y2="112.54"/><line x1="261.41" y1="132.44" x2="251.46" y2="132.44"/><line x1="289.61" y1="132.44" x2="282.98" y2="132.44"/><line x1="296.24" y1="132.44" x2="289.61" y2="132.44"/><line x1="282.98" y1="112.54" x2="289.61" y2="112.54"/><line x1="282.98" y1="132.44" x2="261.41" y2="132.44"/><line x1="302.88" y1="132.44" x2="296.24" y2="132.44"/><line x1="289.61" y1="112.54" x2="296.24" y2="112.54"/><line x1="302.88" y1="79.37" x2="306.2" y2="79.37"/><line x1="296.24" y1="112.54" x2="302.88" y2="112.54"/><line x1="302.88" y1="112.54" x2="302.88" y2="110.88"/><line x1="302.88" y1="110.88" x2="302.88" y2="100.93"/><line x1="302.88" y1="100.93" x2="302.88" y2="99.27"/><line x1="322.78" y1="110.88" x2="322.78" y2="115.85"/><line x1="322.78" y1="100.93" x2="322.78" y2="110.88"/><line x1="307.85" y1="129.12" x2="306.2" y2="132.44"/><line x1="311.17" y1="129.12" x2="307.85" y2="129.12"/><line x1="312.83" y1="132.44" x2="311.17" y2="129.12"/><line x1="306.2" y1="132.44" x2="302.88" y2="132.44"/><line x1="322.78" y1="115.85" x2="319.46" y2="117.51"/><line x1="319.46" y1="117.51" x2="319.46" y2="120.83"/><line x1="319.46" y1="120.83" x2="322.78" y2="122.49"/><line x1="322.78" y1="122.49" x2="322.78" y2="129.12"/><line x1="322.78" y1="129.12" x2="319.46" y2="132.44"/><line x1="306.2" y1="79.37" x2="307.85" y2="82.68"/><line x1="307.85" y1="82.68" x2="311.17" y2="82.68"/><line x1="311.17" y1="82.68" x2="312.83" y2="79.37"/><line x1="312.83" y1="79.37" x2="319.46" y2="79.37"/><line x1="319.46" y1="79.37" x2="322.78" y2="82.68"/><line x1="322.78" y1="89.32" x2="319.46" y2="90.98"/><line x1="319.46" y1="90.98" x2="319.46" y2="94.29"/><line x1="319.46" y1="94.29" x2="322.78" y2="95.95"/><line x1="322.78" y1="95.95" x2="322.78" y2="100.93"/><line x1="279.66" y1="79.37" x2="281.32" y2="82.68"/><line x1="289.61" y1="95.95" x2="287.95" y2="99.27"/><line x1="296.24" y1="79.37" x2="297.9" y2="82.68"/><line x1="294.59" y1="99.27" x2="292.93" y2="95.95"/><line x1="278" y1="99.27" x2="276.34" y2="95.95"/><line x1="287.95" y1="99.27" x2="278" y2="99.27"/><line x1="276.34" y1="95.95" x2="273.02" y2="95.95"/><line x1="273.02" y1="95.95" x2="271.37" y2="99.27"/><line x1="271.37" y1="99.27" x2="261.41" y2="99.27"/><line x1="292.93" y1="95.95" x2="289.61" y2="95.95"/><line x1="281.32" y1="82.68" x2="284.63" y2="82.68"/><line x1="286.29" y1="79.37" x2="296.24" y2="79.37"/><line x1="297.9" y1="82.68" x2="301.22" y2="82.68"/><line x1="301.22" y1="82.68" x2="302.88" y2="79.37"/><line x1="284.63" y1="82.68" x2="286.29" y2="79.37"/><line x1="216.63" y1="175.56" x2="216.63" y2="180.54"/><line x1="97.22" y1="74.39" x2="97.22" y2="62.78"/><line x1="113.8" y1="154" x2="110.49" y2="152.34"/><line x1="133.71" y1="175.56" x2="132.05" y2="172.24"/><line x1="132.05" y1="172.24" x2="128.73" y2="172.24"/><line x1="128.73" y1="172.24" x2="127.07" y2="175.56"/><line x1="127.07" y1="175.56" x2="117.12" y2="175.56"/><line x1="113.8" y1="157.32" x2="113.8" y2="154"/><line x1="110.49" y1="158.98" x2="113.8" y2="157.32"/><line x1="110.49" y1="168.93" x2="110.49" y2="158.98"/><line x1="143.66" y1="175.56" x2="133.71" y2="175.56"/><line x1="203.37" y1="215.37" x2="196.73" y2="215.37"/><line x1="143.66" y1="180.54" x2="143.66" y2="175.56"/><line x1="216.63" y1="190.49" x2="216.63" y2="202.1"/><line x1="143.66" y1="190.49" x2="143.66" y2="180.54"/><line x1="216.63" y1="180.54" x2="216.63" y2="190.49"/><line x1="153.61" y1="218.68" x2="140.34" y2="205.41"/><line x1="176.83" y1="188.83" x2="183.46" y2="188.83"/><line x1="183.46" y1="182.2" x2="176.83" y2="182.2"/><line x1="176.83" y1="182.2" x2="176.83" y2="188.83"/><line x1="183.46" y1="188.83" x2="183.46" y2="182.2"/><line x1="143.66" y1="202.1" x2="143.66" y2="190.49"/><line x1="196.73" y1="222" x2="190.1" y2="222"/><line x1="196.73" y1="215.37" x2="196.73" y2="222"/><line x1="190.1" y1="222" x2="190.1" y2="215.37"/><line x1="190.1" y1="215.37" x2="188.44" y2="212.05"/><line x1="163.56" y1="222" x2="163.56" y2="215.37"/><line x1="170.2" y1="215.37" x2="170.2" y2="222"/><line x1="170.2" y1="222" x2="163.56" y2="222"/><line x1="163.56" y1="215.37" x2="156.93" y2="215.37"/><line x1="171.85" y1="212.05" x2="170.2" y2="215.37"/><line x1="175.17" y1="212.05" x2="171.85" y2="212.05"/><line x1="185.12" y1="212.05" x2="183.46" y2="215.37"/><line x1="188.44" y1="212.05" x2="185.12" y2="212.05"/><line x1="176.83" y1="215.37" x2="175.17" y2="212.05"/><line x1="183.46" y1="215.37" x2="176.83" y2="215.37"/><line x1="216.63" y1="202.1" x2="219.95" y2="205.41"/><line x1="219.95" y1="205.41" x2="206.68" y2="218.68"/><line x1="206.68" y1="218.68" x2="203.37" y2="215.37"/><line x1="140.34" y1="205.41" x2="143.66" y2="202.1"/><line x1="156.93" y1="215.37" x2="153.61" y2="218.68"/><line x1="133.71" y1="36.24" x2="133.71" y2="29.61"/><line x1="226.59" y1="29.61" x2="226.59" y2="36.24"/><line x1="133.71" y1="29.61" x2="137.02" y2="22.98"/><line x1="137.02" y1="22.98" x2="148.63" y2="22.98"/><line x1="223.27" y1="22.98" x2="226.59" y2="29.61"/><line x1="148.63" y1="22.98" x2="150.29" y2="27.95"/><line x1="150.29" y1="27.95" x2="156.93" y2="27.95"/><line x1="156.93" y1="27.95" x2="158.59" y2="22.98"/><line x1="158.59" y1="22.98" x2="175.17" y2="22.98"/><line x1="175.17" y1="22.98" x2="176.83" y2="27.95"/><line x1="176.83" y1="27.95" x2="183.46" y2="27.95"/><line x1="183.46" y1="27.95" x2="185.12" y2="22.98"/><line x1="185.12" y1="22.98" x2="201.71" y2="22.98"/><line x1="201.71" y1="22.98" x2="203.37" y2="27.95"/><line x1="203.37" y1="27.95" x2="210" y2="27.95"/><line x1="210" y1="27.95" x2="211.66" y2="22.98"/><line x1="211.66" y1="22.98" x2="223.27" y2="22.98"/><line x1="150.29" y1="102.59" x2="150.29" y2="95.95"/><line x1="176.83" y1="135.76" x2="170.2" y2="135.76"/><line x1="210" y1="109.22" x2="210" y2="115.85"/><line x1="183.46" y1="76.05" x2="190.1" y2="76.05"/><line x1="183.46" y1="102.59" x2="176.83" y2="102.59"/><line x1="176.83" y1="76.05" x2="176.83" y2="72.73"/><line x1="150.29" y1="109.22" x2="150.29" y2="102.59"/><line x1="176.83" y1="102.59" x2="176.83" y2="109.22"/><line x1="183.46" y1="139.07" x2="176.83" y2="139.07"/><line x1="176.83" y1="109.22" x2="183.46" y2="109.22"/><line x1="183.46" y1="109.22" x2="183.46" y2="102.59"/><line x1="210" y1="102.59" x2="210" y2="109.22"/><line x1="110.49" y1="152.34" x2="103.85" y2="152.34"/><line x1="103.85" y1="59.46" x2="110.49" y2="59.46"/><line x1="103.85" y1="152.34" x2="97.22" y2="149.02"/><line x1="97.22" y1="149.02" x2="97.22" y2="137.41"/><line x1="97.22" y1="62.78" x2="103.85" y2="59.46"/><line x1="97.22" y1="137.41" x2="102.2" y2="135.76"/><line x1="102.2" y1="129.12" x2="97.22" y2="127.46"/><line x1="97.22" y1="127.46" x2="97.22" y2="110.88"/><line x1="97.22" y1="110.88" x2="102.2" y2="109.22"/><line x1="102.2" y1="102.59" x2="97.22" y2="100.93"/><line x1="97.22" y1="100.93" x2="97.22" y2="84.34"/><line x1="97.22" y1="84.34" x2="102.2" y2="82.68"/><line x1="102.2" y1="76.05" x2="97.22" y2="74.39"/><line x1="137.02" y1="76.05" x2="137.02" y2="82.68"/><line x1="102.2" y1="82.68" x2="102.2" y2="76.05"/><line x1="137.02" y1="82.68" x2="137.02" y2="102.59"/><line x1="137.02" y1="102.59" x2="137.02" y2="109.22"/><line x1="102.2" y1="109.22" x2="102.2" y2="102.59"/><line x1="137.02" y1="109.22" x2="137.02" y2="115.85"/><line x1="102.2" y1="135.76" x2="102.2" y2="129.12"/><line x1="243.17" y1="36.24" x2="249.8" y2="36.24"/><line x1="249.8" y1="36.24" x2="249.8" y2="42.88"/><line x1="110.49" y1="36.24" x2="117.12" y2="36.24"/><line x1="110.49" y1="175.56" x2="110.49" y2="168.93"/><line x1="249.8" y1="168.93" x2="249.8" y2="175.56"/><line x1="249.8" y1="175.56" x2="243.17" y2="175.56"/><line x1="118.78" y1="18.83" x2="120.44" y2="18.83"/><line x1="125.41" y1="36.24" x2="127.07" y2="36.24"/><line x1="125.41" y1="34.59" x2="125.41" y2="36.24"/><line x1="118.78" y1="33.76" x2="118.78" y2="32.1"/><line x1="125.41" y1="33.76" x2="125.41" y2="34.59"/><line x1="117.12" y1="30.44" x2="117.12" y2="20.49"/><line x1="117.12" y1="20.49" x2="118.78" y2="18.83"/><line x1="118.78" y1="36.24" x2="118.78" y2="34.59"/><line x1="118.78" y1="32.1" x2="117.12" y2="30.44"/><line x1="125.41" y1="32.1" x2="125.41" y2="33.76"/><line x1="123.76" y1="18.83" x2="125.41" y2="18.83"/><line x1="127.07" y1="30.44" x2="125.41" y2="32.1"/><line x1="127.07" y1="20.49" x2="127.07" y2="30.44"/><line x1="125.41" y1="18.83" x2="127.07" y2="20.49"/><line x1="118.78" y1="34.59" x2="118.78" y2="33.76"/><line x1="120.44" y1="18.83" x2="120.44" y2="18"/><line x1="123.76" y1="18" x2="123.76" y2="18.83"/><line x1="120.44" y1="18" x2="123.76" y2="18"/><line x1="176.83" y1="139.07" x2="176.83" y2="135.76"/><line x1="183.46" y1="135.76" x2="183.46" y2="139.07"/><line x1="176.83" y1="72.73" x2="183.46" y2="72.73"/><line x1="183.46" y1="72.73" x2="183.46" y2="76.05"/><line x1="160.24" y1="145.71" x2="166.88" y2="145.71"/><line x1="166.88" y1="145.71" x2="166.88" y2="149.02"/><line x1="160.24" y1="149.02" x2="160.24" y2="145.71"/><line x1="166.88" y1="149.02" x2="190.1" y2="149.02"/><line x1="200.05" y1="66.1" x2="193.41" y2="66.1"/><line x1="200.05" y1="62.78" x2="200.05" y2="66.1"/><line x1="193.41" y1="66.1" x2="193.41" y2="62.78"/><line x1="193.41" y1="62.78" x2="170.2" y2="62.78"/></g><g opacity="0.95"><circle cx="105.51" cy="79.37" r="3.2" fill="#b7493c"/><circle cx="291.27" cy="81.02" r="2.2" fill="#d3b15b"/><circle cx="105.51" cy="105.9" r="3.2" fill="#b7493c"/><circle cx="153.61" cy="31.27" r="3.2" fill="#b7493c"/><circle cx="175.17" cy="185.51" r="2.2" fill="#d3b15b"/><circle cx="206.68" cy="31.27" r="3.2" fill="#b7493c"/><circle cx="193.41" cy="220.34" r="3.2" fill="#b7493c"/><circle cx="166.88" cy="220.34" r="3.2" fill="#b7493c"/><circle cx="319.46" cy="129.12" r="3.2" fill="#b7493c"/><circle cx="319.46" cy="82.68" r="3.2" fill="#b7493c"/><circle cx="180.15" cy="32.93" r="2.2" fill="#d3b15b"/><circle cx="247.32" cy="173.07" r="2.2" fill="#d3b15b"/><circle cx="112.98" cy="173.07" r="2.2" fill="#d3b15b"/><circle cx="247.32" cy="38.73" r="2.2" fill="#d3b15b"/><circle cx="112.98" cy="38.73" r="2.2" fill="#d3b15b"/><circle cx="107.17" cy="132.44" r="2.2" fill="#d3b15b"/><circle cx="180.15" cy="212.05" r="2.2" fill="#d3b15b"/><circle cx="175.17" cy="104.24" r="2.2" fill="#d3b15b"/><circle cx="175.17" cy="107.56" r="2.2" fill="#d3b15b"/><circle cx="178.49" cy="110.88" r="2.2" fill="#d3b15b"/><circle cx="181.8" cy="110.88" r="2.2" fill="#d3b15b"/><circle cx="185.12" cy="107.56" r="2.2" fill="#d3b15b"/><circle cx="185.12" cy="104.24" r="2.2" fill="#d3b15b"/><circle cx="181.8" cy="100.93" r="2.2" fill="#d3b15b"/><circle cx="178.49" cy="100.93" r="2.2" fill="#d3b15b"/><circle cx="126.24" cy="173.9" r="2.2" fill="#d3b15b"/><circle cx="180.15" cy="77.71" r="3.2" fill="#b7493c"/><circle cx="180.15" cy="134.1" r="3.2" fill="#b7493c"/><circle cx="185.12" cy="185.51" r="2.2" fill="#d3b15b"/><circle cx="120.44" cy="165.61" r="3.2" fill="#b7493c"/><circle cx="127.07" cy="165.61" r="3.2" fill="#b7493c"/><circle cx="120.44" cy="158.98" r="3.2" fill="#b7493c"/><circle cx="127.07" cy="158.98" r="3.2" fill="#b7493c"/><circle cx="122.1" cy="25.46" r="2.2" fill="#d3b15b"/><circle cx="301.22" cy="87.66" r="2.2" fill="#d3b15b"/><circle cx="301.22" cy="94.29" r="2.2" fill="#d3b15b"/><circle cx="163.56" cy="147.37" r="2.2" fill="#d3b15b"/><circle cx="196.73" cy="64.44" r="2.2" fill="#d3b15b"/><circle cx="112.15" cy="52" r="2.2" fill="#d3b15b"/><circle cx="234.05" cy="37.9" r="2.2" fill="#d3b15b"/><circle cx="248.15" cy="159.8" r="2.2" fill="#d3b15b"/></g></svg>