<svg xmlns="http://www.w3.org/2000/svg" viewBox="0 0 420 240" role="img"><rect width="100%" height="100%" fill="#070706"/><g stroke="#5e5a4f" stroke-width="1.6" stroke-linecap="round"><line x1="269.27" y1="164.11" x2="252.73" y2="164.11"/><line x1="189.32" y1="84.16" x2="203.11" y2="84.16"/><line x1="189.32" y1="97.95" x2="189.32" y2="84.16"/><line x1="269.27" y1="147.57" x2="269.27" y2="164.11"/><line x1="147.97" y1="27.65" x2="165.89" y2="46.95"/><line x1="269.27" y1="92.43" x2="269.27" y2="133.78"/><line x1="288.57" y1="81.41" x2="327.16" y2="81.41"/><line x1="200.35" y1="199.95" x2="186.57" y2="199.95"/><line x1="288.57" y1="75.89" x2="327.16" y2="75.89"/><line x1="288.57" y1="70.38" x2="327.16" y2="70.38"/><line x1="288.57" y1="64.86" x2="327.16" y2="64.86"/><line x1="288.57" y1="59.35" x2="327.16" y2="59.35"/><line x1="288.57" y1="53.84" x2="327.16" y2="53.84"/><line x1="288.57" y1="48.32" x2="327.16" y2="48.32"/><line x1="229.3" y1="84.16" x2="251.35" y2="84.16"/><line x1="214.14" y1="199.95" x2="211.38" y2="195.81"/><line x1="248.59" y1="164.11" x2="232.05" y2="164.11"/><line x1="232.05" y1="23.51" x2="248.59" y2="23.51"/><line x1="186.57" y1="171" x2="227.92" y2="171"/><line x1="178.3" y1="197.19" x2="178.3" y2="175.14"/><line x1="182.43" y1="197.19" x2="182.43" y2="175.14"/><line x1="174.16" y1="197.19" x2="174.16" y2="175.14"/><line x1="200.35" y1="199.95" x2="203.11" y2="204.08"/><line x1="136.95" y1="166.86" x2="161.76" y2="166.86"/><line x1="186.57" y1="175.14" x2="186.57" y2="197.19"/><line x1="136.95" y1="161.35" x2="161.76" y2="161.35"/><line x1="136.95" y1="155.84" x2="161.76" y2="155.84"/><line x1="136.95" y1="150.32" x2="161.76" y2="150.32"/><line x1="189.32" y1="128.27" x2="189.32" y2="106.22"/><line x1="302.35" y1="180.65" x2="305.11" y2="183.41"/><line x1="142.46" y1="106.22" x2="186.57" y2="106.22"/><line x1="280.3" y1="133.78" x2="280.3" y2="92.43"/><line x1="327.16" y1="84.16" x2="327.16" y2="128.27"/><line x1="203.11" y1="195.81" x2="200.35" y2="199.95"/><line x1="203.11" y1="204.08" x2="211.38" y2="204.08"/><line x1="211.38" y1="204.08" x2="214.14" y2="199.95"/><line x1="211.38" y1="195.81" x2="203.11" y2="195.81"/><line x1="151.25" y1="61.59" x2="132.81" y2="42.81"/><line x1="136.95" y1="144.81" x2="136.95" y2="117.24"/><line x1="252.73" y1="164.11" x2="258.24" y2="158.59"/><line x1="227.92" y1="164.11" x2="186.57" y2="164.11"/><line x1="277.54" y1="199.95" x2="277.54" y2="222"/><line x1="229.3" y1="45.57" x2="251.35" y2="45.57"/><line x1="203.11" y1="222" x2="203.11" y2="204.08"/><line x1="310.62" y1="222" x2="288.57" y2="199.95"/><line x1="227.92" y1="199.95" x2="214.14" y2="199.95"/><line x1="327.16" y1="133.78" x2="305.11" y2="133.78"/><line x1="305.11" y1="183.41" x2="327.16" y2="205.46"/><line x1="165.89" y1="197.19" x2="139.7" y2="197.19"/><line x1="139.7" y1="201.32" x2="165.89" y2="201.32"/><line x1="249.97" y1="199.95" x2="249.97" y2="222"/><line x1="255.49" y1="199.95" x2="255.49" y2="222"/><line x1="261" y1="199.95" x2="261" y2="222"/><line x1="266.51" y1="222" x2="266.51" y2="199.95"/><line x1="272.03" y1="199.95" x2="272.03" y2="222"/><line x1="232.05" y1="199.95" x2="248.59" y2="199.95"/><line x1="244.46" y1="177.89" x2="236.19" y2="177.89"/><line x1="288.57" y1="199.95" x2="285.81" y2="197.19"/><line x1="194.84" y1="89.68" x2="194.84" y2="158.59"/><line x1="194.84" y1="158.59" x2="258.24" y2="158.59"/><line x1="258.24" y1="158.59" x2="263.76" y2="158.59"/><line x1="263.76" y1="158.59" x2="263.76" y2="153.08"/><line x1="263.76" y1="153.08" x2="263.76" y2="89.68"/><line x1="263.76" y1="89.68" x2="194.84" y2="89.68"/><line x1="258.24" y1="158.59" x2="263.76" y2="153.08"/><line x1="263.76" y1="153.08" x2="269.27" y2="147.57"/><line x1="189.32" y1="106.22" x2="189.32" y2="103.46"/><line x1="170.03" y1="197.19" x2="170.03" y2="175.14"/><line x1="296.84" y1="133.78" x2="285.81" y2="133.78"/><line x1="205.86" y1="52.46" x2="216.89" y2="52.46"/><line x1="216.89" y1="45.57" x2="205.86" y2="45.57"/><line x1="216.89" y1="48.32" x2="205.86" y2="48.32"/><line x1="205.86" y1="49.7" x2="216.89" y2="49.7"/></g><g stroke="#d3b15b" stroke-width="2.4" stroke-linecap="round"><line x1="232.74" y1="195.81" x2="236.19" y2="177.89"/><line x1="265.14" y1="84.16" x2="265.14" y2="88.3"/><line x1="189.32" y1="97.95" x2="186.22" y2="95.19"/><line x1="203.11" y1="222" x2="139.7" y2="222"/><line x1="252.73" y1="164.11" x2="248.59" y2="164.11"/><line x1="327.16" y1="222" x2="310.62" y2="222"/><line x1="327.16" y1="205.46" x2="327.16" y2="222"/><line x1="269.27" y1="147.57" x2="272.2" y2="150.5"/><line x1="203.11" y1="84.16" x2="207.24" y2="84.16"/><line x1="265.14" y1="88.3" x2="269.27" y2="88.3"/><line x1="132.81" y1="38.68" x2="143.84" y2="27.65"/><line x1="269.27" y1="92.43" x2="280.3" y2="92.43"/><line x1="280.3" y1="92.43" x2="288.57" y2="81.41"/><line x1="327.16" y1="81.41" x2="327.16" y2="84.16"/><line x1="269.27" y1="133.78" x2="269.27" y2="143.43"/><line x1="305.11" y1="133.78" x2="296.84" y2="133.78"/><line x1="288.57" y1="81.41" x2="288.57" y2="75.89"/><line x1="327.16" y1="75.89" x2="327.16" y2="81.41"/><line x1="288.57" y1="75.89" x2="288.57" y2="70.38"/><line x1="327.16" y1="70.38" x2="327.16" y2="75.89"/><line x1="288.57" y1="70.38" x2="288.57" y2="64.86"/><line x1="327.16" y1="64.86" x2="327.16" y2="70.38"/><line x1="288.57" y1="64.86" x2="288.57" y2="59.35"/><line x1="327.16" y1="59.35" x2="327.16" y2="64.86"/><line x1="288.57" y1="59.35" x2="288.57" y2="53.84"/><line x1="327.16" y1="53.84" x2="327.16" y2="59.35"/><line x1="288.57" y1="53.84" x2="288.57" y2="48.32"/><line x1="327.16" y1="48.32" x2="327.16" y2="53.84"/><line x1="288.57" y1="48.32" x2="285.81" y2="45.57"/><line x1="285.81" y1="45.57" x2="255.49" y2="45.57"/><line x1="251.35" y1="84.16" x2="265.14" y2="84.16"/><line x1="229.3" y1="84.16" x2="229.3" y2="49.7"/><line x1="324.41" y1="23.51" x2="327.16" y2="26.61"/><line x1="251.35" y1="45.57" x2="251.35" y2="49.7"/><line x1="168.65" y1="45.57" x2="165.89" y2="46.95"/><line x1="229.3" y1="45.57" x2="225.16" y2="45.57"/><line x1="327.16" y1="26.61" x2="327.16" y2="44.19"/><line x1="147.97" y1="27.65" x2="147.97" y2="23.51"/><line x1="232.05" y1="164.11" x2="227.92" y2="164.11"/><line x1="248.59" y1="164.11" x2="248.59" y2="168.24"/><line x1="232.05" y1="19.38" x2="237.57" y2="18"/><line x1="234.81" y1="175.14" x2="232.05" y2="168.24"/><line x1="227.92" y1="164.11" x2="227.92" y2="168.24"/><line x1="227.92" y1="186.16" x2="227.92" y2="195.81"/><line x1="285.81" y1="197.19" x2="255.66" y2="167.04"/><line x1="186.57" y1="199.95" x2="186.57" y2="197.19"/><line x1="248.59" y1="19.38" x2="248.59" y2="23.51"/><line x1="327.16" y1="84.16" x2="329.92" y2="84.16"/><line x1="128.68" y1="42.81" x2="132.81" y2="42.81"/><line x1="143.84" y1="27.65" x2="147.97" y2="27.65"/><line x1="280.3" y1="133.78" x2="269.27" y2="133.78"/><line x1="327.16" y1="44.19" x2="327.16" y2="48.32"/><line x1="186.57" y1="175.14" x2="186.57" y2="171"/><line x1="178.3" y1="175.14" x2="182.43" y2="175.14"/><line x1="182.43" y1="197.19" x2="178.3" y2="197.19"/><line x1="174.16" y1="175.14" x2="178.3" y2="175.14"/><line x1="178.3" y1="197.19" x2="174.16" y2="197.19"/><line x1="165.89" y1="175.14" x2="170.03" y2="175.14"/><line x1="170.03" y1="197.19" x2="165.89" y2="197.19"/><line x1="174.16" y1="197.19" x2="170.03" y2="197.19"/><line x1="139.7" y1="197.19" x2="132.81" y2="190.3"/><line x1="161.76" y1="166.86" x2="165.89" y2="175.14"/><line x1="132.81" y1="172.38" x2="136.95" y2="166.86"/><line x1="132.81" y1="190.3" x2="132.81" y2="172.38"/><line x1="136.95" y1="166.86" x2="136.95" y2="161.35"/><line x1="161.76" y1="161.35" x2="161.76" y2="166.86"/><line x1="136.95" y1="161.35" x2="136.95" y2="155.84"/><line x1="161.76" y1="155.84" x2="161.76" y2="161.35"/><line x1="136.95" y1="155.84" x2="136.95" y2="150.32"/><line x1="161.76" y1="150.32" x2="161.76" y2="155.84"/><line x1="161.76" y1="133.78" x2="161.76" y2="150.32"/><line x1="172.78" y1="128.27" x2="161.76" y2="133.78"/><line x1="189.32" y1="128.27" x2="172.78" y2="128.27"/><line x1="189.32" y1="103.46" x2="189.32" y2="102.08"/><line x1="136.95" y1="113.11" x2="142.46" y2="106.22"/><line x1="136.95" y1="150.32" x2="136.95" y2="148.95"/><line x1="139.7" y1="201.32" x2="139.7" y2="197.19"/><line x1="186.57" y1="171" x2="186.57" y2="164.11"/><line x1="227.92" y1="171" x2="227.92" y2="186.16"/><line x1="147.97" y1="23.51" x2="227.92" y2="23.51"/><line x1="245.84" y1="175.14" x2="244.46" y2="177.89"/><line x1="189.32" y1="159.97" x2="189.32" y2="128.27"/><line x1="132.81" y1="117.24" x2="136.95" y2="117.24"/><line x1="329.92" y1="128.27" x2="327.16" y2="128.27"/><line x1="182.43" y1="201.32" x2="186.57" y2="201.32"/><line x1="327.16" y1="128.27" x2="327.16" y2="133.78"/><line x1="329.92" y1="84.16" x2="329.92" y2="128.27"/><line x1="296.84" y1="144.81" x2="285.81" y2="144.81"/><line x1="132.81" y1="144.81" x2="93.18" y2="144.81"/><line x1="227.92" y1="168.24" x2="227.92" y2="171"/><line x1="136.95" y1="148.95" x2="136.95" y2="144.81"/><line x1="302.35" y1="180.65" x2="305.11" y2="180.65"/><line x1="236.19" y1="177.89" x2="234.81" y2="175.14"/><line x1="248.59" y1="199.95" x2="249.97" y2="199.95"/><line x1="151.25" y1="61.59" x2="114.89" y2="97.95"/><line x1="114.89" y1="97.95" x2="114.89" y2="114.49"/><line x1="136.95" y1="117.24" x2="136.95" y2="113.11"/><line x1="114.89" y1="114.49" x2="117.65" y2="117.24"/><line x1="117.65" y1="117.24" x2="132.81" y2="117.24"/><line x1="165.89" y1="46.95" x2="200.18" y2="81.23"/><line x1="132.81" y1="42.81" x2="132.81" y2="38.68"/><line x1="90.08" y1="86.92" x2="92.84" y2="83.82"/><line x1="90.08" y1="142.05" x2="90.08" y2="86.92"/><line x1="93.18" y1="144.81" x2="90.08" y2="142.05"/><line x1="136.95" y1="144.81" x2="132.81" y2="144.81"/><line x1="92.84" y1="83.82" x2="128.68" y2="42.81"/><line x1="243.08" y1="18" x2="248.59" y2="19.38"/><line x1="237.57" y1="18" x2="243.08" y2="18"/><line x1="248.59" y1="23.51" x2="252.73" y2="23.51"/><line x1="186.57" y1="164.11" x2="189.32" y2="159.97"/><line x1="182.43" y1="175.14" x2="186.57" y2="175.14"/><line x1="277.54" y1="222" x2="272.03" y2="222"/><line x1="277.54" y1="199.95" x2="285.81" y2="199.95"/><line x1="272.03" y1="199.95" x2="277.54" y2="199.95"/><line x1="232.05" y1="23.51" x2="232.05" y2="19.38"/><line x1="252.73" y1="23.51" x2="324.41" y2="23.51"/><line x1="310.62" y1="222" x2="277.54" y2="222"/><line x1="227.92" y1="199.95" x2="232.05" y2="199.95"/><line x1="327.16" y1="133.78" x2="327.16" y2="205.46"/><line x1="305.11" y1="180.65" x2="305.11" y2="133.78"/><line x1="186.57" y1="201.32" x2="186.57" y2="199.95"/><line x1="165.89" y1="201.32" x2="170.03" y2="201.32"/><line x1="165.89" y1="197.19" x2="165.89" y2="201.32"/><line x1="139.7" y1="222" x2="139.7" y2="201.32"/><line x1="249.97" y1="222" x2="203.11" y2="222"/><line x1="249.97" y1="199.95" x2="252.73" y2="199.95"/><line x1="255.49" y1="222" x2="249.97" y2="222"/><line x1="255.49" y1="199.95" x2="261" y2="199.95"/><line x1="261" y1="222" x2="255.49" y2="222"/><line x1="261" y1="199.95" x2="266.51" y2="199.95"/><line x1="266.51" y1="199.95" x2="272.03" y2="199.95"/><line x1="266.51" y1="222" x2="261" y2="222"/><line x1="272.03" y1="222" x2="266.51" y2="222"/><line x1="232.05" y1="199.95" x2="232.74" y2="195.81"/><line x1="244.46" y1="177.89" x2="247.91" y2="195.81"/><line x1="285.81" y1="199.95" x2="285.81" y2="197.19"/><line x1="247.91" y1="195.81" x2="248.59" y2="199.95"/><line x1="175.54" y1="201.32" x2="182.43" y2="201.32"/><line x1="285.81" y1="133.78" x2="280.3" y2="133.78"/><line x1="227.92" y1="23.51" x2="232.05" y2="23.51"/><line x1="232.05" y1="168.24" x2="232.05" y2="164.11"/><line x1="248.59" y1="168.24" x2="245.84" y2="175.14"/><line x1="225.16" y1="45.57" x2="216.89" y2="45.57"/><line x1="229.3" y1="49.7" x2="229.3" y2="45.57"/><line x1="251.35" y1="49.7" x2="251.35" y2="84.16"/><line x1="255.49" y1="45.57" x2="251.35" y2="45.57"/><line x1="269.27" y1="88.3" x2="269.27" y2="92.43"/><line x1="227.92" y1="195.81" x2="227.92" y2="199.95"/><line x1="252.73" y1="199.95" x2="255.49" y2="199.95"/><line x1="186.57" y1="106.22" x2="189.32" y2="103.46"/><line x1="142.46" y1="106.22" x2="142.46" y2="84.16"/><line x1="142.46" y1="84.16" x2="147.97" y2="78.65"/><line x1="147.97" y1="78.65" x2="153.49" y2="78.65"/><line x1="153.49" y1="78.65" x2="186.57" y2="106.22"/><line x1="186.57" y1="197.19" x2="182.43" y2="197.19"/><line x1="272.2" y1="150.5" x2="302.35" y2="180.65"/><line x1="255.66" y1="167.04" x2="252.73" y2="164.11"/><line x1="269.27" y1="143.43" x2="269.27" y2="147.57"/><line x1="189.32" y1="102.08" x2="189.32" y2="97.95"/><line x1="186.22" y1="95.19" x2="151.25" y2="61.59"/><line x1="207.24" y1="84.16" x2="229.3" y2="84.16"/><line x1="200.18" y1="81.23" x2="203.11" y2="84.16"/><line x1="170.03" y1="175.14" x2="174.16" y2="175.14"/><line x1="170.03" y1="201.32" x2="175.54" y2="201.32"/><line x1="285.81" y1="144.81" x2="285.81" y2="133.78"/><line x1="296.84" y1="133.78" x2="296.84" y2="144.81"/><line x1="205.86" y1="52.46" x2="205.86" y2="49.7"/><line x1="205.86" y1="74.51" x2="203.11" y2="71.76"/><line x1="205.86" y1="49.7" x2="205.86" y2="48.32"/><line x1="203.11" y1="55.22" x2="205.86" y2="52.46"/><line x1="216.89" y1="48.32" x2="216.89" y2="49.7"/><line x1="216.89" y1="74.51" x2="205.86" y2="74.51"/><line x1="203.11" y1="71.76" x2="203.11" y2="55.22"/><line x1="216.89" y1="52.46" x2="219.65" y2="55.22"/><line x1="219.65" y1="55.22" x2="219.65" y2="71.76"/><line x1="219.65" y1="71.76" x2="216.89" y2="74.51"/><line x1="216.89" y1="45.57" x2="216.89" y2="48.32"/><line x1="216.89" y1="49.7" x2="216.89" y2="52.46"/><line x1="205.86" y1="48.32" x2="205.86" y2="45.57"/><line x1="205.86" y1="45.57" x2="168.65" y2="45.57"/></g><g opacity="0.95"><circle cx="109.38" cy="106.22" r="2.2" fill="#d3b15b"/><circle cx="320.27" cy="215.11" r="2.2" fill="#d3b15b"/><circle cx="321.65" cy="216.49" r="3.2" fill="#b7493c"/><circle cx="141.08" cy="35.92" r="2.2" fill="#d3b15b"/><circle cx="135.57" cy="182.03" r="2.2" fill="#d3b15b"/><circle cx="135.57" cy="182.03" r="3.2" fill="#b7493c"/><circle cx="240.32" cy="171" r="3.2" fill="#b7493c"/><circle cx="240.32" cy="63.49" r="3.2" fill="#b7493c"/><circle cx="205.86" cy="150.32" r="3.2" fill="#b7493c"/><circle cx="321.65" cy="29.03" r="3.2" fill="#b7493c"/><circle cx="240.32" cy="63.49" r="2.2" fill="#d3b15b"/><circle cx="205.86" cy="122.76" r="3.2" fill="#b7493c"/><circle cx="240.32" cy="171" r="2.2" fill="#d3b15b"/><circle cx="205.86" cy="139.3" r="3.2" fill="#b7493c"/><circle cx="207.24" cy="199.95" r="3.2" fill="#b7493c"/><circle cx="205.86" cy="131.03" r="3.2" fill="#b7493c"/><circle cx="150.73" cy="84.16" r="3.2" fill="#b7493c"/><circle cx="149.35" cy="82.78" r="2.2" fill="#d3b15b"/><circle cx="211.38" cy="63.49" r="2.2" fill="#d3b15b"/></g></svg>