<svg xmlns="http://www.w3.org/2000/svg" viewBox="0 0 420 240" role="img"><rect width="100%" height="100%" fill="#070706"/><g stroke="#5e5a4f" stroke-width="1.6" stroke-linecap="round"><line x1="151.84" y1="87" x2="151.84" y2="84.59"/><line x1="152.45" y1="87" x2="152.45" y2="84.59"/><line x1="151.84" y1="87" x2="152.45" y2="87"/><line x1="152.45" y1="84.59" x2="151.84" y2="84.59"/><line x1="153.05" y1="88.21" x2="153.05" y2="83.39"/><line x1="259.12" y1="59.28" x2="259.12" y2="56.87"/><line x1="181.98" y1="134.01" x2="181.98" y2="131.6"/><line x1="201.26" y1="131.6" x2="201.26" y2="143.65"/><line x1="241.04" y1="77.36" x2="241.04" y2="74.95"/><line x1="184.39" y1="90.62" x2="184.39" y2="85.8"/><line x1="186.8" y1="162.94" x2="184.39" y2="155.1"/><line x1="181.98" y1="153.3" x2="186.8" y2="162.94"/><line x1="181.98" y1="153.3" x2="181.98" y2="143.65"/><line x1="241.04" y1="84.59" x2="241.04" y2="83.39"/><line x1="241.04" y1="83.39" x2="241.04" y2="78.57"/><line x1="241.04" y1="78.57" x2="241.04" y2="77.36"/><line x1="226.57" y1="72.54" x2="224.77" y2="72.54"/><line x1="224.16" y1="74.95" x2="224.16" y2="87"/><line x1="184.39" y1="155.1" x2="181.98" y2="143.65"/><line x1="270.87" y1="166.56" x2="269.96" y2="177.4"/><line x1="269.06" y1="166.56" x2="270.87" y2="166.56"/><line x1="266.35" y1="166.56" x2="269.06" y2="166.56"/><line x1="181.98" y1="78.57" x2="172.33" y2="78.57"/><line x1="261.53" y1="109.91" x2="261.53" y2="100.26"/><line x1="181.98" y1="93.03" x2="181.98" y2="83.39"/><line x1="172.33" y1="93.03" x2="181.98" y2="93.03"/><line x1="155.46" y1="93.03" x2="155.46" y2="78.57"/><line x1="157.87" y1="93.03" x2="157.87" y2="78.57"/><line x1="160.28" y1="93.03" x2="160.28" y2="78.57"/><line x1="259.12" y1="56.87" x2="251.88" y2="56.87"/><line x1="261.53" y1="207.54" x2="261.53" y2="212.36"/><line x1="257.91" y1="109.91" x2="261.53" y2="109.91"/><line x1="257.91" y1="100.26" x2="254.3" y2="100.26"/><line x1="238.63" y1="89.42" x2="240.43" y2="89.42"/><line x1="226.57" y1="89.42" x2="238.63" y2="89.42"/><line x1="224.16" y1="87" x2="224.16" y2="88.81"/><line x1="183.18" y1="90.62" x2="184.39" y2="90.62"/><line x1="208.49" y1="27.94" x2="208.49" y2="37.59"/><line x1="260.32" y1="174.99" x2="245.86" y2="175.97"/><line x1="245.86" y1="175.97" x2="242.24" y2="176.2"/><line x1="261.53" y1="201.51" x2="239.83" y2="201.51"/><line x1="238.63" y1="72.54" x2="226.57" y2="72.54"/><line x1="273.58" y1="90.62" x2="275.99" y2="90.62"/><line x1="259.12" y1="83.39" x2="266.35" y2="83.39"/><line x1="204.88" y1="27.94" x2="206.08" y2="27.94"/><line x1="261.53" y1="214.77" x2="239.83" y2="214.77"/><line x1="260.32" y1="200.3" x2="242.24" y2="200.3"/><line x1="259.12" y1="66.51" x2="259.12" y2="64.1"/><line x1="241.04" y1="87.16" x2="241.04" y2="84.59"/><line x1="191.62" y1="27.94" x2="192.82" y2="27.94"/><line x1="181.98" y1="143.65" x2="172.33" y2="133.41"/><line x1="241.04" y1="74.95" x2="241.04" y2="73.14"/><line x1="162.69" y1="93.03" x2="162.69" y2="78.57"/><line x1="267.55" y1="149.68" x2="269.96" y2="156.91"/><line x1="269.96" y1="156.91" x2="269.06" y2="166.56"/><line x1="267.55" y1="149.68" x2="266.35" y2="156.91"/><line x1="266.35" y1="156.91" x2="269.06" y2="166.56"/><line x1="242.24" y1="177.4" x2="260.32" y2="176.2"/><line x1="253.09" y1="173.79" x2="245.86" y2="175.97"/><line x1="260.32" y1="174.99" x2="253.09" y2="173.79"/><line x1="271.17" y1="162.94" x2="270.87" y2="166.56"/><line x1="266.35" y1="146.06" x2="267.55" y2="149.68"/><line x1="269.06" y1="166.56" x2="268.76" y2="170.17"/><line x1="268.76" y1="170.17" x2="260.32" y2="174.99"/><line x1="266.35" y1="166.56" x2="263.94" y2="167.76"/><line x1="228.98" y1="173.79" x2="224.16" y2="168.97"/><line x1="242.24" y1="176.2" x2="228.98" y2="173.79"/><line x1="227.78" y1="148.25" x2="237.42" y2="142.68"/><line x1="222.43" y1="159.32" x2="225.37" y2="149.68"/><line x1="227.78" y1="148.25" x2="228.98" y2="144.86"/><line x1="225.37" y1="149.68" x2="227.78" y2="148.25"/><line x1="225.37" y1="149.68" x2="225.37" y2="146.06"/><line x1="222.43" y1="159.32" x2="224.16" y2="168.97"/><line x1="274.79" y1="149.68" x2="271.17" y2="162.94"/><line x1="251.88" y1="56.87" x2="251.88" y2="64.1"/><line x1="183.18" y1="85.8" x2="183.18" y2="90.62"/><line x1="254.3" y1="141.24" x2="239.83" y2="141.24"/><line x1="239.83" y1="138.83" x2="254.3" y2="138.83"/><line x1="239.83" y1="136.42" x2="254.3" y2="136.42"/><line x1="239.83" y1="134.01" x2="254.3" y2="134.01"/><line x1="239.83" y1="131.6" x2="254.3" y2="131.6"/><line x1="239.83" y1="129.19" x2="254.3" y2="129.19"/><line x1="239.83" y1="126.78" x2="254.3" y2="126.78"/><line x1="254.3" y1="124.37" x2="239.83" y2="124.37"/><line x1="208.49" y1="37.59" x2="210.9" y2="37.59"/><line x1="184.39" y1="25.53" x2="177.16" y2="25.53"/><line x1="259.12" y1="78.57" x2="256.71" y2="78.57"/><line x1="201.26" y1="25.53" x2="198.85" y2="25.53"/><line x1="268.76" y1="68.92" x2="268.76" y2="71.34"/><line x1="184.39" y1="32.77" x2="184.39" y2="37.59"/><line x1="186.8" y1="25.53" x2="186.8" y2="18.3"/><line x1="186.8" y1="37.59" x2="186.8" y2="32.77"/><line x1="189.21" y1="25.53" x2="189.21" y2="18.3"/><line x1="191.62" y1="25.53" x2="191.62" y2="18.3"/><line x1="194.03" y1="25.53" x2="194.03" y2="18.3"/><line x1="196.44" y1="25.53" x2="196.44" y2="18.3"/><line x1="198.85" y1="25.53" x2="198.85" y2="18.3"/><line x1="201.26" y1="25.53" x2="201.26" y2="18.3"/><line x1="203.67" y1="25.53" x2="203.67" y2="18.3"/><line x1="206.08" y1="25.53" x2="206.08" y2="18.3"/><line x1="208.49" y1="25.53" x2="208.49" y2="18.3"/><line x1="210.9" y1="25.53" x2="210.9" y2="18.3"/><line x1="213.31" y1="25.53" x2="213.31" y2="18.3"/><line x1="215.73" y1="25.53" x2="215.73" y2="18.3"/><line x1="215.73" y1="25.53" x2="222.96" y2="25.53"/><line x1="215.73" y1="27.94" x2="222.96" y2="27.94"/><line x1="215.73" y1="30.35" x2="222.96" y2="30.35"/><line x1="251.88" y1="64.1" x2="259.12" y2="64.1"/><line x1="263.94" y1="167.76" x2="263.94" y2="169.57"/><line x1="266.35" y1="83.39" x2="266.35" y2="90.62"/><line x1="243.45" y1="78.57" x2="243.45" y2="70.13"/><line x1="196.44" y1="129.19" x2="201.26" y2="129.19"/><line x1="261.53" y1="100.26" x2="257.91" y2="100.26"/><line x1="143.41" y1="162.94" x2="144.61" y2="153.3"/><line x1="201.26" y1="124.37" x2="196.44" y2="124.37"/><line x1="266.35" y1="78.57" x2="259.12" y2="78.57"/><line x1="196.44" y1="124.37" x2="196.44" y2="129.19"/><line x1="254.3" y1="100.26" x2="254.3" y2="109.91"/><line x1="266.35" y1="78.57" x2="266.35" y2="83.39"/><line x1="245.86" y1="83.39" x2="256.4" y2="83.39"/><line x1="275.99" y1="59.28" x2="271.17" y2="59.28"/><line x1="268.76" y1="170.17" x2="266.35" y2="166.56"/><line x1="184.39" y1="155.1" x2="181.98" y2="153.3"/><line x1="275.99" y1="54.46" x2="271.17" y2="54.46"/><line x1="271.17" y1="54.46" x2="271.17" y2="55.67"/><line x1="186.8" y1="124.37" x2="181.98" y2="124.37"/><line x1="270.87" y1="59.28" x2="268.76" y2="59.28"/><line x1="275.99" y1="71.34" x2="269.06" y2="71.34"/><line x1="196.44" y1="124.37" x2="186.8" y2="124.37"/><line x1="259.12" y1="64.1" x2="259.12" y2="59.28"/><line x1="251.88" y1="56.87" x2="203.67" y2="56.87"/><line x1="203.67" y1="56.87" x2="203.67" y2="78.57"/><line x1="203.67" y1="78.57" x2="181.98" y2="78.57"/><line x1="172.33" y1="78.57" x2="172.33" y2="85.8"/><line x1="181.98" y1="93.03" x2="203.67" y2="93.03"/><line x1="203.67" y1="93.03" x2="203.67" y2="109.91"/><line x1="203.67" y1="109.91" x2="254.3" y2="109.91"/><line x1="254.3" y1="109.91" x2="257.91" y2="109.91"/><line x1="254.3" y1="100.26" x2="213.31" y2="100.26"/><line x1="213.31" y1="100.26" x2="213.31" y2="66.51"/><line x1="213.31" y1="66.51" x2="259.12" y2="66.51"/><line x1="222.96" y1="71.34" x2="222.96" y2="90.62"/><line x1="242.24" y1="71.34" x2="222.96" y2="71.34"/><line x1="242.24" y1="90.62" x2="242.24" y2="80.98"/><line x1="222.96" y1="90.62" x2="242.24" y2="90.62"/><line x1="263.94" y1="169.57" x2="268.76" y2="170.17"/><line x1="241.04" y1="88.81" x2="241.04" y2="87.16"/><line x1="240.43" y1="72.54" x2="238.63" y2="72.54"/><line x1="224.16" y1="73.14" x2="224.16" y2="74.95"/><line x1="215.73" y1="32.77" x2="222.96" y2="32.77"/><line x1="215.73" y1="35.18" x2="222.96" y2="35.18"/><line x1="222.96" y1="38.79" x2="215.73" y2="38.79"/><line x1="215.73" y1="40" x2="222.96" y2="40"/><line x1="215.73" y1="42.41" x2="222.96" y2="42.41"/><line x1="224.77" y1="89.42" x2="226.57" y2="89.42"/><line x1="187.4" y1="127.38" x2="195.84" y2="127.38"/><line x1="266.35" y1="90.62" x2="273.58" y2="90.62"/><line x1="187.4" y1="126.18" x2="187.4" y2="127.38"/><line x1="195.84" y1="126.18" x2="187.4" y2="126.18"/><line x1="268.76" y1="71.34" x2="266.35" y2="71.34"/><line x1="195.84" y1="127.38" x2="195.84" y2="126.18"/><line x1="181.98" y1="129.19" x2="186.8" y2="129.19"/><line x1="181.98" y1="143.65" x2="181.98" y2="134.01"/><line x1="172.33" y1="162.94" x2="172.33" y2="143.65"/><line x1="266.35" y1="71.34" x2="266.35" y2="78.57"/><line x1="268.76" y1="59.28" x2="268.76" y2="68.92"/><line x1="210.9" y1="40" x2="186.8" y2="40"/><line x1="186.8" y1="42.41" x2="210.9" y2="42.41"/><line x1="198.85" y1="18.3" x2="201.26" y2="18.3"/><line x1="242.24" y1="42.41" x2="261.53" y2="42.41"/><line x1="184.39" y1="85.8" x2="183.18" y2="85.8"/><line x1="256.4" y1="83.09" x2="256.4" y2="83.39"/><line x1="256.4" y1="83.39" x2="256.71" y2="83.39"/><line x1="256.71" y1="83.39" x2="256.71" y2="83.09"/><line x1="256.71" y1="83.09" x2="256.4" y2="83.09"/><line x1="256.4" y1="78.87" x2="256.71" y2="78.87"/><line x1="256.71" y1="78.87" x2="256.71" y2="78.57"/><line x1="256.71" y1="78.57" x2="256.4" y2="78.57"/><line x1="256.4" y1="78.57" x2="256.4" y2="78.87"/><line x1="256.71" y1="83.39" x2="259.12" y2="83.39"/><line x1="256.4" y1="78.57" x2="245.86" y2="78.57"/><line x1="268.76" y1="71.64" x2="269.06" y2="71.64"/><line x1="268.76" y1="71.34" x2="268.76" y2="71.64"/><line x1="269.06" y1="71.34" x2="268.76" y2="71.34"/><line x1="269.06" y1="71.64" x2="269.06" y2="71.34"/><line x1="270.87" y1="59.28" x2="270.87" y2="59.58"/><line x1="271.17" y1="59.28" x2="270.87" y2="59.28"/><line x1="271.17" y1="59.58" x2="271.17" y2="59.28"/><line x1="270.87" y1="59.58" x2="271.17" y2="59.58"/><line x1="168.72" y1="46.63" x2="168.12" y2="46.02"/><line x1="168.72" y1="52.65" x2="168.72" y2="46.63"/><line x1="163.29" y1="47.23" x2="163.29" y2="52.05"/><line x1="164.5" y1="52.05" x2="164.5" y2="47.23"/><line x1="164.5" y1="47.23" x2="164.5" y2="46.02"/><line x1="167.51" y1="47.23" x2="167.51" y2="52.05"/><line x1="167.51" y1="52.05" x2="164.5" y2="52.05"/><line x1="164.5" y1="52.05" x2="163.29" y2="52.05"/><line x1="163.29" y1="52.05" x2="162.69" y2="52.05"/><line x1="162.69" y1="47.23" x2="163.29" y2="47.23"/><line x1="163.29" y1="47.23" x2="164.5" y2="47.23"/><line x1="167.51" y1="47.23" x2="164.5" y2="47.23"/><line x1="163.29" y1="46.02" x2="163.29" y2="47.23"/><line x1="163.29" y1="53.26" x2="163.29" y2="62.9"/><line x1="164.5" y1="53.26" x2="164.5" y2="52.05"/><line x1="163.29" y1="46.02" x2="162.69" y2="46.02"/><line x1="164.5" y1="46.02" x2="163.29" y2="46.02"/><line x1="168.12" y1="46.02" x2="164.5" y2="46.02"/><line x1="168.12" y1="53.26" x2="168.72" y2="52.65"/><line x1="164.5" y1="53.26" x2="168.12" y2="53.26"/><line x1="163.29" y1="53.26" x2="164.5" y2="53.26"/><line x1="162.69" y1="53.26" x2="163.29" y2="53.26"/><line x1="163.29" y1="52.05" x2="163.29" y2="53.26"/><line x1="162.69" y1="47.23" x2="162.69" y2="46.02"/><line x1="171.13" y1="62.9" x2="176.55" y2="62.9"/><line x1="164.5" y1="46.02" x2="164.5" y2="44.82"/><line x1="221.75" y1="91.83" x2="243.45" y2="91.83"/><line x1="221.75" y1="70.13" x2="221.75" y2="91.83"/><line x1="243.45" y1="70.13" x2="221.75" y2="70.13"/><line x1="243.45" y1="91.83" x2="243.45" y2="83.39"/><line x1="170.83" y1="47.83" x2="171.13" y2="47.83"/><line x1="171.13" y1="48.43" x2="170.83" y2="47.83"/><line x1="170.83" y1="49.34" x2="171.13" y2="48.43"/><line x1="172.03" y1="49.34" x2="170.83" y2="49.34"/><line x1="172.64" y1="49.04" x2="172.03" y2="49.34"/><line x1="172.33" y1="48.43" x2="172.64" y2="49.04"/><line x1="172.33" y1="47.83" x2="172.33" y2="48.43"/><line x1="172.03" y1="47.53" x2="172.33" y2="47.83"/><line x1="171.13" y1="47.83" x2="172.03" y2="47.53"/><line x1="170.53" y1="49.64" x2="172.94" y2="49.64"/><line x1="170.53" y1="47.23" x2="170.53" y2="49.64"/><line x1="172.94" y1="47.23" x2="170.53" y2="47.23"/><line x1="172.94" y1="49.64" x2="172.94" y2="47.23"/><line x1="166.91" y1="61.69" x2="170.53" y2="59.58"/><line x1="165.4" y1="59.88" x2="166.91" y2="61.69"/><line x1="165.4" y1="58.38" x2="165.4" y2="59.88"/><line x1="167.51" y1="55.36" x2="165.4" y2="58.38"/><line x1="168.72" y1="53.86" x2="167.51" y2="55.36"/><line x1="169.62" y1="55.36" x2="168.72" y2="53.86"/><line x1="171.13" y1="54.16" x2="169.62" y2="55.36"/><line x1="173.24" y1="55.97" x2="171.13" y2="54.16"/><line x1="166.91" y1="61.69" x2="164.5" y2="61.69"/><line x1="173.24" y1="57.78" x2="173.24" y2="55.97"/><line x1="172.33" y1="59.88" x2="173.24" y2="57.78"/><line x1="170.53" y1="59.58" x2="172.33" y2="59.88"/><line x1="175.35" y1="61.69" x2="166.91" y2="61.69"/><line x1="164.5" y1="61.69" x2="164.5" y2="53.26"/><line x1="164.5" y1="44.82" x2="175.35" y2="44.82"/><line x1="175.35" y1="44.82" x2="175.35" y2="61.69"/><line x1="163.29" y1="62.9" x2="168.72" y2="62.9"/><line x1="176.55" y1="62.9" x2="176.55" y2="43.61"/><line x1="176.55" y1="43.61" x2="163.29" y2="43.61"/><line x1="163.29" y1="43.61" x2="163.29" y2="46.02"/><line x1="242.24" y1="80.98" x2="242.24" y2="71.34"/><line x1="181.98" y1="153.3" x2="172.33" y2="162.94"/><line x1="186.8" y1="129.19" x2="186.8" y2="124.37"/><line x1="210.9" y1="133.41" x2="201.26" y2="143.65"/><line x1="181.98" y1="83.39" x2="181.98" y2="78.57"/><line x1="172.33" y1="85.8" x2="172.33" y2="93.03"/><line x1="163.9" y1="152.09" x2="165.1" y2="151.26"/><line x1="167.51" y1="149.68" x2="167.51" y2="146.06"/><line x1="167.51" y1="146.06" x2="165.1" y2="144.86"/><line x1="165.1" y1="144.86" x2="162.69" y2="143.65"/><line x1="162.69" y1="143.65" x2="157.87" y2="146.06"/><line x1="157.87" y1="146.06" x2="153.05" y2="147.27"/><line x1="153.05" y1="147.27" x2="155.46" y2="152.09"/><line x1="155.46" y1="152.09" x2="157.87" y2="153.3"/><line x1="160.28" y1="154.5" x2="161.49" y2="155.71"/><line x1="161.49" y1="155.71" x2="162.69" y2="150.89"/><line x1="162.69" y1="150.89" x2="163.9" y2="152.09"/><line x1="162.69" y1="159.32" x2="166.31" y2="155.71"/><line x1="166.31" y1="155.71" x2="165.1" y2="151.26"/><line x1="157.87" y1="153.3" x2="160.28" y2="154.5"/><line x1="165.1" y1="151.26" x2="165.1" y2="149.68"/><line x1="165.1" y1="149.68" x2="161.49" y2="148.48"/><line x1="161.49" y1="148.48" x2="157.87" y2="153.3"/><line x1="157.87" y1="153.3" x2="157.87" y2="154.5"/><line x1="157.87" y1="154.5" x2="157.27" y2="154.8"/><line x1="155.46" y1="155.71" x2="157.87" y2="158.12"/><line x1="157.87" y1="158.12" x2="160.28" y2="160.53"/><line x1="160.28" y1="160.53" x2="162.01" y2="159.7"/><line x1="165.1" y1="151.26" x2="167.51" y2="149.68"/><line x1="155.46" y1="158.12" x2="153.05" y2="160.53"/><line x1="153.05" y1="160.53" x2="154.25" y2="161.73"/><line x1="154.25" y1="161.73" x2="155.46" y2="162.94"/><line x1="159.08" y1="162.94" x2="162.69" y2="161.73"/><line x1="162.69" y1="161.73" x2="162.01" y2="159.7"/><line x1="162.01" y1="159.7" x2="161.49" y2="158.12"/><line x1="161.49" y1="158.12" x2="161.49" y2="156.91"/><line x1="161.49" y1="156.91" x2="157.27" y2="154.8"/><line x1="157.27" y1="154.8" x2="156.66" y2="154.5"/><line x1="156.66" y1="154.5" x2="155.46" y2="153.3"/><line x1="155.46" y1="153.3" x2="153.05" y2="154.5"/><line x1="153.05" y1="154.5" x2="155.46" y2="158.12"/><line x1="162.01" y1="159.7" x2="162.69" y2="159.32"/><line x1="157.27" y1="154.8" x2="155.46" y2="155.71"/><line x1="149.43" y1="156.91" x2="153.05" y2="154.5"/><line x1="153.05" y1="154.5" x2="150.64" y2="149.68"/><line x1="150.64" y1="149.68" x2="151.84" y2="147.27"/><line x1="151.84" y1="147.27" x2="150.64" y2="146.06"/><line x1="150.64" y1="146.06" x2="148.23" y2="146.06"/><line x1="148.23" y1="146.06" x2="145.82" y2="150.89"/><line x1="145.82" y1="150.89" x2="145.82" y2="158.12"/><line x1="145.82" y1="158.12" x2="147.02" y2="160.53"/><line x1="147.02" y1="160.53" x2="150.64" y2="160.53"/><line x1="150.64" y1="160.53" x2="150.64" y2="158.12"/><line x1="150.64" y1="158.12" x2="149.43" y2="156.91"/><line x1="148.23" y1="153.3" x2="149.43" y2="152.09"/><line x1="149.43" y1="152.09" x2="149.43" y2="150.89"/><line x1="149.43" y1="150.89" x2="150.64" y2="149.68"/><line x1="150.64" y1="149.68" x2="149.43" y2="148.48"/><line x1="149.43" y1="148.48" x2="149.43" y2="147.27"/><line x1="149.43" y1="147.27" x2="148.23" y2="149.68"/><line x1="148.23" y1="149.68" x2="147.02" y2="150.89"/><line x1="147.02" y1="150.89" x2="147.02" y2="152.09"/><line x1="147.02" y1="152.09" x2="148.23" y2="153.3"/><line x1="144.61" y1="153.3" x2="143.41" y2="143.65"/><line x1="168.72" y1="62.9" x2="169.92" y2="62.9"/><line x1="169.92" y1="62.9" x2="171.13" y2="62.9"/><line x1="162.69" y1="53.26" x2="162.69" y2="52.05"/><line x1="162.69" y1="52.05" x2="162.69" y2="47.23"/><line x1="201.26" y1="143.65" x2="184.39" y2="155.1"/><line x1="206.08" y1="160.53" x2="205.48" y2="157.52"/><line x1="201.26" y1="161.73" x2="200.66" y2="161.13"/><line x1="224.16" y1="168.97" x2="222.35" y2="167.16"/><line x1="221.3" y1="162.94" x2="222.05" y2="160.53"/><line x1="214.52" y1="164.14" x2="214.52" y2="161.13"/><line x1="214.52" y1="161.13" x2="216.93" y2="159.93"/><line x1="205.48" y1="157.52" x2="206.08" y2="155.71"/><line x1="202.17" y1="156.31" x2="203.37" y2="156.91"/><line x1="202.17" y1="155.1" x2="202.17" y2="156.31"/><line x1="203.37" y1="156.91" x2="204.27" y2="156.01"/><line x1="203.07" y1="155.1" x2="202.17" y2="155.1"/><line x1="203.67" y1="155.41" x2="203.07" y2="155.1"/><line x1="203.97" y1="155.1" x2="203.67" y2="155.41"/><line x1="204.27" y1="156.01" x2="203.97" y2="155.1"/><line x1="203.37" y1="159.02" x2="202.77" y2="159.62"/><line x1="203.37" y1="158.42" x2="203.37" y2="159.02"/><line x1="204.27" y1="157.82" x2="203.37" y2="158.42"/><line x1="204.58" y1="159.02" x2="204.27" y2="157.82"/><line x1="205.48" y1="159.93" x2="204.58" y2="159.02"/><line x1="204.58" y1="160.53" x2="205.48" y2="159.93"/><line x1="202.77" y1="159.62" x2="204.58" y2="160.53"/><line x1="201.86" y1="160.53" x2="202.17" y2="161.13"/><line x1="202.47" y1="160.23" x2="201.86" y2="160.53"/><line x1="203.07" y1="160.23" x2="202.47" y2="160.23"/><line x1="203.37" y1="161.13" x2="203.07" y2="160.23"/><line x1="203.07" y1="161.43" x2="203.37" y2="161.13"/><line x1="202.17" y1="161.13" x2="203.07" y2="161.43"/><line x1="199.15" y1="157.82" x2="200.06" y2="156.91"/><line x1="199.45" y1="155.71" x2="198.25" y2="155.41"/><line x1="197.04" y1="156.31" x2="196.74" y2="157.52"/><line x1="196.74" y1="157.52" x2="197.34" y2="159.02"/><line x1="197.34" y1="159.02" x2="197.95" y2="160.23"/><line x1="197.95" y1="160.23" x2="199.45" y2="160.23"/><line x1="199.45" y1="160.23" x2="200.06" y2="159.32"/><line x1="200.06" y1="159.32" x2="199.15" y2="157.82"/><line x1="198.25" y1="155.41" x2="197.04" y2="156.31"/><line x1="200.06" y1="156.91" x2="199.45" y2="155.71"/><line x1="200.36" y1="153" x2="198.55" y2="152.09"/><line x1="200.96" y1="153.9" x2="200.36" y2="153"/><line x1="200.36" y1="154.5" x2="200.96" y2="153.9"/><line x1="198.85" y1="154.2" x2="200.36" y2="154.5"/><line x1="197.65" y1="154.8" x2="198.85" y2="154.2"/><line x1="196.74" y1="154.2" x2="197.65" y2="154.8"/><line x1="198.55" y1="152.09" x2="196.44" y2="152.69"/><line x1="196.44" y1="152.69" x2="196.74" y2="154.2"/><line x1="200.66" y1="161.13" x2="200.96" y2="157.21"/><line x1="200.96" y1="157.21" x2="200.36" y2="155.71"/><line x1="200.36" y1="155.71" x2="200.96" y2="154.5"/><line x1="200.96" y1="154.5" x2="201.26" y2="153.3"/><line x1="202.47" y1="158.12" x2="201.86" y2="156.91"/><line x1="201.71" y1="159.62" x2="202.47" y2="158.12"/><line x1="201.86" y1="156.91" x2="201.86" y2="154.5"/><line x1="201.26" y1="153.3" x2="201.26" y2="161.73"/><line x1="201.26" y1="161.73" x2="201.56" y2="161.43"/><line x1="201.56" y1="161.43" x2="201.71" y2="159.62"/><line x1="201.86" y1="161.88" x2="201.26" y2="161.73"/><line x1="201.26" y1="161.73" x2="201.26" y2="162.34"/><line x1="201.26" y1="152.39" x2="201.26" y2="153.3"/><line x1="201.26" y1="153.3" x2="202.17" y2="153.6"/><line x1="202.17" y1="153.6" x2="203.07" y2="153.9"/><line x1="202.17" y1="153" x2="202.17" y2="153.6"/><line x1="201.86" y1="154.5" x2="201.26" y2="153.3"/><line x1="201.86" y1="156.91" x2="201.26" y2="153.3"/><line x1="222.35" y1="165.35" x2="221.3" y2="162.94"/><line x1="220.55" y1="165.35" x2="221.3" y2="162.94"/><line x1="222.35" y1="167.16" x2="220.55" y2="165.35"/><line x1="222.35" y1="167.16" x2="222.35" y2="165.35"/><line x1="276.07" y1="49.64" x2="276.07" y2="52.05"/><line x1="275.99" y1="49.64" x2="275.99" y2="52.05"/><line x1="275.99" y1="49.64" x2="276.07" y2="49.64"/><line x1="276.07" y1="52.05" x2="275.99" y2="52.05"/><line x1="184.39" y1="84.59" x2="184.39" y2="80.98"/><line x1="184.39" y1="80.98" x2="183.18" y2="80.98"/><line x1="183.18" y1="80.98" x2="183.18" y2="84.59"/><line x1="183.18" y1="84.59" x2="184.39" y2="84.59"/><line x1="271.17" y1="117.14" x2="275.99" y2="117.14"/><line x1="275.99" y1="112.32" x2="271.17" y2="112.32"/><line x1="271.17" y1="112.32" x2="271.17" y2="117.14"/><line x1="245.26" y1="83.39" x2="243.45" y2="83.39"/><line x1="245.86" y1="83.39" x2="248.27" y2="80.98"/><line x1="245.86" y1="83.39" x2="245.26" y2="83.39"/><line x1="245.26" y1="78.57" x2="245.86" y2="78.57"/><line x1="248.27" y1="80.98" x2="245.86" y2="78.57"/><line x1="245.86" y1="78.57" x2="245.86" y2="83.39"/><line x1="245.26" y1="83.39" x2="245.26" y2="78.57"/><line x1="243.45" y1="78.57" x2="245.26" y2="78.57"/><line x1="243.45" y1="83.39" x2="243.45" y2="78.57"/><line x1="271.17" y1="58.08" x2="271.17" y2="59.28"/><line x1="271.17" y1="55.67" x2="271.17" y2="58.08"/></g><g stroke="#d3b15b" stroke-width="2.4" stroke-linecap="round"><line x1="180.17" y1="133.41" x2="181.98" y2="131.6"/><line x1="203.07" y1="133.41" x2="210.9" y2="133.41"/><line x1="151.84" y1="87" x2="151.24" y2="87"/><line x1="151.24" y1="84.59" x2="151.84" y2="84.59"/><line x1="151.84" y1="84.59" x2="151.84" y2="83.39"/><line x1="151.24" y1="87" x2="151.24" y2="84.59"/><line x1="153.05" y1="83.39" x2="153.05" y2="78.57"/><line x1="153.05" y1="88.21" x2="151.84" y2="88.21"/><line x1="151.84" y1="83.39" x2="153.05" y2="83.39"/><line x1="151.84" y1="88.21" x2="151.84" y2="87"/><line x1="201.26" y1="129.19" x2="201.26" y2="131.6"/><line x1="201.26" y1="143.65" x2="201.26" y2="152.39"/><line x1="206.08" y1="27.34" x2="206.08" y2="27.94"/><line x1="172.33" y1="133.41" x2="180.17" y2="133.41"/><line x1="201.26" y1="131.6" x2="203.07" y2="133.41"/><line x1="215.73" y1="36.38" x2="215.73" y2="35.18"/><line x1="262.73" y1="207.54" x2="262.73" y2="212.36"/><line x1="207.89" y1="163.54" x2="206.08" y2="160.53"/><line x1="186.8" y1="162.94" x2="172.33" y2="162.94"/><line x1="222.96" y1="36.38" x2="222.96" y2="38.79"/><line x1="155.46" y1="93.03" x2="153.05" y2="93.03"/><line x1="153.05" y1="78.57" x2="155.46" y2="78.57"/><line x1="157.87" y1="93.03" x2="155.46" y2="93.03"/><line x1="155.46" y1="78.57" x2="157.87" y2="78.57"/><line x1="160.28" y1="93.03" x2="157.87" y2="93.03"/><line x1="157.87" y1="78.57" x2="160.28" y2="78.57"/><line x1="239.83" y1="124.97" x2="239.83" y2="124.37"/><line x1="276.07" y1="49.64" x2="276.59" y2="49.64"/><line x1="162.09" y1="93.03" x2="160.28" y2="93.03"/><line x1="181.98" y1="124.97" x2="181.98" y2="124.37"/><line x1="261.53" y1="212.36" x2="261.53" y2="214.77"/><line x1="262.73" y1="212.36" x2="261.53" y2="212.36"/><line x1="261.53" y1="207.54" x2="262.73" y2="207.54"/><line x1="242.24" y1="42.41" x2="242.24" y2="41.2"/><line x1="254.3" y1="124.97" x2="254.3" y2="126.78"/><line x1="276.59" y1="52.05" x2="276.07" y2="52.05"/><line x1="242.24" y1="41.2" x2="261.53" y2="41.2"/><line x1="181.98" y1="131.6" x2="181.98" y2="129.19"/><line x1="275.99" y1="47.23" x2="275.99" y2="49.64"/><line x1="201.26" y1="124.97" x2="201.26" y2="129.19"/><line x1="260.32" y1="174.99" x2="260.32" y2="176.2"/><line x1="261.53" y1="41.2" x2="261.53" y2="42.41"/><line x1="261.53" y1="222" x2="239.83" y2="222"/><line x1="186.8" y1="41.2" x2="186.8" y2="40"/><line x1="239.83" y1="140.64" x2="239.83" y2="138.83"/><line x1="160.28" y1="78.57" x2="162.09" y2="78.57"/><line x1="261.53" y1="214.77" x2="261.53" y2="222"/><line x1="239.83" y1="214.77" x2="239.83" y2="201.51"/><line x1="239.83" y1="201.51" x2="242.24" y2="200.3"/><line x1="260.32" y1="200.3" x2="261.53" y2="201.51"/><line x1="261.53" y1="201.51" x2="261.53" y2="207.54"/><line x1="192.82" y1="27.34" x2="192.82" y2="27.94"/><line x1="201.26" y1="25.53" x2="201.26" y2="25.83"/><line x1="201.26" y1="18" x2="201.26" y2="18.3"/><line x1="191.62" y1="27.94" x2="191.62" y2="27.34"/><line x1="153.05" y1="93.03" x2="153.05" y2="88.21"/><line x1="162.69" y1="78.57" x2="162.69" y2="53.26"/><line x1="210.9" y1="41.2" x2="210.9" y2="42.41"/><line x1="162.69" y1="93.03" x2="162.09" y2="93.03"/><line x1="260.32" y1="176.2" x2="260.32" y2="196.69"/><line x1="162.09" y1="78.57" x2="162.69" y2="78.57"/><line x1="242.24" y1="200.3" x2="242.24" y2="177.4"/><line x1="242.24" y1="177.4" x2="242.24" y2="176.2"/><line x1="273.58" y1="166.56" x2="269.96" y2="177.4"/><line x1="242.24" y1="176.2" x2="241.04" y2="178.61"/><line x1="235.01" y1="142.45" x2="237.42" y2="142.68"/><line x1="222.43" y1="159.32" x2="221.75" y2="150.89"/><line x1="228.98" y1="144.86" x2="235.01" y2="142.45"/><line x1="221.75" y1="150.89" x2="225.37" y2="146.06"/><line x1="209.1" y1="164.75" x2="207.89" y2="163.54"/><line x1="261.53" y1="42.41" x2="275.99" y2="42.41"/><line x1="191.62" y1="27.34" x2="192.82" y2="27.34"/><line x1="260.32" y1="196.69" x2="260.32" y2="200.3"/><line x1="241.04" y1="178.61" x2="226.57" y2="176.2"/><line x1="226.57" y1="176.2" x2="224.16" y2="168.97"/><line x1="237.42" y1="142.68" x2="239.83" y2="141.24"/><line x1="254.3" y1="141.24" x2="266.35" y2="146.06"/><line x1="266.35" y1="146.06" x2="274.79" y2="149.68"/><line x1="239.83" y1="141.24" x2="239.83" y2="140.64"/><line x1="254.3" y1="138.83" x2="254.3" y2="140.64"/><line x1="239.83" y1="138.83" x2="239.83" y2="136.42"/><line x1="254.3" y1="136.42" x2="254.3" y2="138.83"/><line x1="239.83" y1="136.42" x2="239.83" y2="134.01"/><line x1="254.3" y1="134.01" x2="254.3" y2="136.42"/><line x1="239.83" y1="134.01" x2="239.83" y2="131.6"/><line x1="254.3" y1="131.6" x2="254.3" y2="134.01"/><line x1="239.83" y1="131.6" x2="239.83" y2="129.19"/><line x1="254.3" y1="129.19" x2="254.3" y2="131.6"/><line x1="239.83" y1="129.19" x2="239.83" y2="126.78"/><line x1="254.3" y1="126.78" x2="254.3" y2="129.19"/><line x1="239.83" y1="124.37" x2="201.26" y2="124.37"/><line x1="274.79" y1="149.68" x2="273.58" y2="166.56"/><line x1="239.83" y1="126.78" x2="239.83" y2="124.97"/><line x1="254.3" y1="124.37" x2="254.3" y2="124.97"/><line x1="212.11" y1="37.59" x2="210.9" y2="37.59"/><line x1="204.88" y1="27.34" x2="206.08" y2="27.34"/><line x1="208.49" y1="27.94" x2="210.9" y2="27.94"/><line x1="212.11" y1="27.94" x2="212.11" y2="37.59"/><line x1="177.16" y1="25.53" x2="177.16" y2="18.3"/><line x1="201.26" y1="162.94" x2="186.8" y2="162.94"/><line x1="254.3" y1="140.64" x2="254.3" y2="141.24"/><line x1="239.83" y1="222" x2="239.83" y2="214.77"/><line x1="210.9" y1="27.94" x2="212.11" y2="27.94"/><line x1="198.85" y1="25.83" x2="198.85" y2="25.53"/><line x1="184.39" y1="25.53" x2="184.39" y2="32.77"/><line x1="177.16" y1="18.3" x2="186.8" y2="18.3"/><line x1="177.16" y1="41.2" x2="177.16" y2="25.53"/><line x1="186.8" y1="25.53" x2="184.39" y2="25.53"/><line x1="186.8" y1="32.77" x2="186.8" y2="27.94"/><line x1="186.8" y1="18.3" x2="189.21" y2="18.3"/><line x1="184.39" y1="32.77" x2="186.8" y2="32.77"/><line x1="184.39" y1="37.59" x2="184.39" y2="41.2"/><line x1="189.21" y1="25.53" x2="186.8" y2="25.53"/><line x1="189.21" y1="18.3" x2="191.62" y2="18.3"/><line x1="191.62" y1="25.53" x2="189.21" y2="25.53"/><line x1="191.62" y1="18.3" x2="194.03" y2="18.3"/><line x1="194.03" y1="25.53" x2="191.62" y2="25.53"/><line x1="194.03" y1="18.3" x2="196.44" y2="18.3"/><line x1="196.44" y1="25.53" x2="194.03" y2="25.53"/><line x1="196.44" y1="18.3" x2="198.85" y2="18.3"/><line x1="198.85" y1="25.53" x2="196.44" y2="25.53"/><line x1="198.85" y1="18" x2="201.26" y2="18"/><line x1="201.26" y1="25.83" x2="198.85" y2="25.83"/><line x1="201.26" y1="18.3" x2="203.67" y2="18.3"/><line x1="203.67" y1="25.53" x2="201.26" y2="25.53"/><line x1="203.67" y1="18.3" x2="206.08" y2="18.3"/><line x1="206.08" y1="25.53" x2="203.67" y2="25.53"/><line x1="206.08" y1="18.3" x2="208.49" y2="18.3"/><line x1="208.49" y1="25.53" x2="206.08" y2="25.53"/><line x1="208.49" y1="18.3" x2="210.9" y2="18.3"/><line x1="210.9" y1="25.53" x2="208.49" y2="25.53"/><line x1="210.9" y1="18.3" x2="213.31" y2="18.3"/><line x1="213.31" y1="25.53" x2="210.9" y2="25.53"/><line x1="213.31" y1="18.3" x2="215.73" y2="18.3"/><line x1="215.73" y1="25.53" x2="213.31" y2="25.53"/><line x1="186.8" y1="37.59" x2="184.39" y2="37.59"/><line x1="222.96" y1="18.3" x2="222.96" y2="25.53"/><line x1="215.73" y1="27.94" x2="215.73" y2="25.53"/><line x1="222.96" y1="25.53" x2="222.96" y2="27.94"/><line x1="215.73" y1="30.35" x2="215.73" y2="27.94"/><line x1="276.07" y1="49.49" x2="276.07" y2="49.64"/><line x1="276.59" y1="49.64" x2="276.59" y2="52.05"/><line x1="275.99" y1="52.05" x2="275.99" y2="54.46"/><line x1="269.96" y1="177.4" x2="260.32" y2="174.99"/><line x1="210.9" y1="133.41" x2="207.29" y2="140.04"/><line x1="204.88" y1="27.94" x2="204.88" y2="27.34"/><line x1="172.33" y1="143.65" x2="181.98" y2="143.65"/><line x1="181.98" y1="124.37" x2="162.69" y2="124.37"/><line x1="275.99" y1="54.46" x2="275.99" y2="59.28"/><line x1="275.99" y1="59.28" x2="275.99" y2="71.34"/><line x1="181.98" y1="129.19" x2="181.98" y2="124.97"/><line x1="275.99" y1="42.41" x2="275.99" y2="47.23"/><line x1="162.69" y1="42.41" x2="186.8" y2="42.41"/><line x1="162.69" y1="124.37" x2="162.69" y2="93.03"/><line x1="275.99" y1="124.37" x2="254.3" y2="124.37"/><line x1="223.56" y1="88.81" x2="223.56" y2="90.02"/><line x1="175.95" y1="138.83" x2="172.33" y2="133.41"/><line x1="224.16" y1="88.81" x2="223.56" y2="88.81"/><line x1="240.43" y1="89.42" x2="240.43" y2="90.02"/><line x1="223.56" y1="90.02" x2="224.77" y2="90.02"/><line x1="241.64" y1="90.02" x2="241.64" y2="88.81"/><line x1="241.64" y1="88.81" x2="241.04" y2="88.81"/><line x1="201.26" y1="124.37" x2="201.26" y2="124.97"/><line x1="224.77" y1="90.02" x2="224.77" y2="89.42"/><line x1="240.43" y1="90.02" x2="241.64" y2="90.02"/><line x1="241.64" y1="73.14" x2="241.64" y2="71.94"/><line x1="241.04" y1="73.14" x2="241.64" y2="73.14"/><line x1="240.43" y1="71.94" x2="240.43" y2="72.54"/><line x1="241.64" y1="71.94" x2="240.43" y2="71.94"/><line x1="223.56" y1="71.94" x2="223.56" y2="73.14"/><line x1="224.77" y1="71.94" x2="223.56" y2="71.94"/><line x1="224.77" y1="72.54" x2="224.77" y2="71.94"/><line x1="223.56" y1="73.14" x2="224.16" y2="73.14"/><line x1="240.43" y1="73.14" x2="241.04" y2="73.14"/><line x1="240.43" y1="72.54" x2="240.43" y2="73.14"/><line x1="224.77" y1="73.14" x2="224.77" y2="72.54"/><line x1="224.16" y1="73.14" x2="224.77" y2="73.14"/><line x1="224.77" y1="88.81" x2="224.16" y2="88.81"/><line x1="222.96" y1="27.94" x2="222.96" y2="30.35"/><line x1="215.73" y1="32.77" x2="215.73" y2="30.35"/><line x1="222.96" y1="30.35" x2="222.96" y2="32.77"/><line x1="215.73" y1="35.18" x2="215.73" y2="32.77"/><line x1="222.96" y1="32.77" x2="222.96" y2="35.18"/><line x1="215.73" y1="38.79" x2="215.73" y2="36.38"/><line x1="222.96" y1="35.18" x2="222.96" y2="36.38"/><line x1="222.96" y1="38.79" x2="222.96" y2="40"/><line x1="215.73" y1="18.3" x2="222.96" y2="18.3"/><line x1="222.96" y1="42.41" x2="242.24" y2="42.41"/><line x1="215.73" y1="42.41" x2="215.73" y2="40"/><line x1="222.96" y1="40" x2="222.96" y2="42.41"/><line x1="215.73" y1="40" x2="215.73" y2="38.79"/><line x1="224.77" y1="89.42" x2="224.77" y2="88.81"/><line x1="240.43" y1="88.81" x2="240.43" y2="89.42"/><line x1="241.04" y1="88.81" x2="240.43" y2="88.81"/><line x1="275.99" y1="71.34" x2="275.99" y2="90.62"/><line x1="275.99" y1="90.62" x2="275.99" y2="105.08"/><line x1="186.8" y1="40" x2="186.8" y2="37.59"/><line x1="210.9" y1="37.59" x2="210.9" y2="40"/><line x1="210.9" y1="42.41" x2="215.73" y2="42.41"/><line x1="186.8" y1="27.94" x2="191.62" y2="27.94"/><line x1="210.9" y1="40" x2="210.9" y2="41.2"/><line x1="186.8" y1="42.41" x2="186.8" y2="41.2"/><line x1="198.85" y1="18.3" x2="198.85" y2="18"/><line x1="192.82" y1="27.94" x2="204.88" y2="27.94"/><line x1="207.29" y1="140.04" x2="201.26" y2="143.65"/><line x1="206.08" y1="27.94" x2="208.49" y2="27.94"/><line x1="275.99" y1="105.08" x2="275.99" y2="112.32"/><line x1="150.64" y1="46.02" x2="162.69" y2="46.02"/><line x1="150.64" y1="53.26" x2="150.64" y2="46.02"/><line x1="162.69" y1="46.02" x2="162.69" y2="42.41"/><line x1="181.98" y1="143.65" x2="175.95" y2="138.83"/><line x1="172.33" y1="162.94" x2="159.08" y2="162.94"/><line x1="143.41" y1="143.65" x2="162.69" y2="143.65"/><line x1="162.69" y1="143.65" x2="172.33" y2="143.65"/><line x1="159.08" y1="162.94" x2="155.46" y2="162.94"/><line x1="155.46" y1="162.94" x2="143.41" y2="162.94"/><line x1="143.41" y1="162.94" x2="143.41" y2="143.65"/><line x1="162.69" y1="53.26" x2="150.64" y2="53.26"/><line x1="203.67" y1="162.34" x2="201.86" y2="161.88"/><line x1="204.88" y1="154.5" x2="206.08" y2="155.71"/><line x1="203.07" y1="153.9" x2="204.88" y2="154.5"/><line x1="206.08" y1="155.71" x2="209.7" y2="155.71"/><line x1="209.7" y1="155.71" x2="211.51" y2="155.1"/><line x1="211.51" y1="155.1" x2="212.71" y2="155.1"/><line x1="201.26" y1="162.34" x2="201.26" y2="162.94"/><line x1="212.71" y1="155.1" x2="216.33" y2="156.31"/><line x1="216.33" y1="166.56" x2="214.52" y2="164.14"/><line x1="222.05" y1="160.53" x2="222.43" y2="159.32"/><line x1="218.74" y1="167.76" x2="216.33" y2="166.56"/><line x1="224.16" y1="168.97" x2="218.74" y2="167.76"/><line x1="216.93" y1="159.93" x2="222.05" y2="160.53"/><line x1="214.52" y1="164.14" x2="212.11" y2="164.75"/><line x1="212.11" y1="164.75" x2="209.1" y2="164.75"/><line x1="206.08" y1="160.53" x2="203.67" y2="162.34"/><line x1="216.33" y1="156.31" x2="216.93" y2="159.93"/><line x1="201.86" y1="161.88" x2="201.56" y2="162.34"/><line x1="201.56" y1="162.34" x2="201.26" y2="162.34"/><line x1="201.26" y1="152.39" x2="202.17" y2="153"/><line x1="202.17" y1="153" x2="202.77" y2="153.3"/><line x1="202.77" y1="153.3" x2="203.07" y2="153.9"/><line x1="276.07" y1="52.05" x2="276.07" y2="52.2"/><line x1="275.99" y1="49.64" x2="276.07" y2="49.49"/><line x1="276.07" y1="52.2" x2="275.99" y2="52.05"/><line x1="275.99" y1="112.32" x2="275.99" y2="117.14"/><line x1="275.99" y1="117.14" x2="275.99" y2="124.37"/><line x1="184.39" y1="41.2" x2="177.16" y2="41.2"/><line x1="225.37" y1="146.06" x2="228.98" y2="144.86"/></g><g opacity="0.95"><circle cx="177.16" cy="85.8" r="3.2" fill="#b7493c"/><circle cx="249.47" cy="158.12" r="2.2" fill="#d3b15b"/><circle cx="251.88" cy="44.82" r="3.2" fill="#b7493c"/><circle cx="260.32" cy="77.36" r="2.2" fill="#d3b15b"/><circle cx="263.94" cy="77.36" r="2.2" fill="#d3b15b"/><circle cx="179.57" cy="144.86" r="2.2" fill="#d3b15b"/><circle cx="175.95" cy="144.86" r="2.2" fill="#d3b15b"/><circle cx="256.71" cy="144.86" r="2.2" fill="#d3b15b"/><circle cx="241.04" cy="91.83" r="2.2" fill="#d3b15b"/><circle cx="202.47" cy="58.08" r="2.2" fill="#d3b15b"/><circle cx="271.17" cy="154.5" r="2.2" fill="#d3b15b"/><circle cx="271.17" cy="150.89" r="3.2" fill="#b7493c"/><circle cx="228.38" cy="158.12" r="2.2" fill="#d3b15b"/><circle cx="230.19" cy="165.35" r="2.2" fill="#d3b15b"/><circle cx="251.88" cy="211.15" r="3.2" fill="#b7493c"/><circle cx="257.91" cy="105.08" r="2.2" fill="#d3b15b"/><circle cx="257.91" cy="205.13" r="2.2" fill="#d3b15b"/><circle cx="257.91" cy="208.74" r="2.2" fill="#d3b15b"/><circle cx="257.91" cy="212.36" r="2.2" fill="#d3b15b"/><circle cx="244.65" cy="212.36" r="2.2" fill="#d3b15b"/><circle cx="244.65" cy="208.74" r="2.2" fill="#d3b15b"/><circle cx="244.65" cy="205.13" r="2.2" fill="#d3b15b"/><circle cx="251.88" cy="209.95" r="2.2" fill="#d3b15b"/><circle cx="247.06" cy="218.38" r="2.2" fill="#d3b15b"/><circle cx="255.5" cy="218.38" r="2.2" fill="#d3b15b"/><circle cx="172.33" cy="56.87" r="2.2" fill="#d3b15b"/><circle cx="207.29" cy="41.2" r="2.2" fill="#d3b15b"/><circle cx="190.41" cy="41.2" r="2.2" fill="#d3b15b"/><circle cx="219.34" cy="21.92" r="2.2" fill="#d3b15b"/><circle cx="262.73" cy="85.8" r="2.2" fill="#d3b15b"/><circle cx="181.98" cy="76.16" r="2.2" fill="#d3b15b"/><circle cx="198.85" cy="76.16" r="2.2" fill="#d3b15b"/><circle cx="271.17" cy="80.98" r="2.2" fill="#d3b15b"/><circle cx="248.27" cy="80.98" r="2.2" fill="#d3b15b"/><circle cx="255.5" cy="60.49" r="2.2" fill="#d3b15b"/><circle cx="209.7" cy="35.18" r="2.2" fill="#d3b15b"/><circle cx="209.7" cy="30.35" r="2.2" fill="#d3b15b"/><circle cx="198.85" cy="31.56" r="2.2" fill="#d3b15b"/><circle cx="172.33" cy="52.05" r="2.2" fill="#d3b15b"/><circle cx="168.72" cy="58.08" r="2.2" fill="#d3b15b"/><circle cx="166.31" cy="49.64" r="3.2" fill="#b7493c"/><circle cx="200.06" cy="95.44" r="2.2" fill="#d3b15b"/><circle cx="191.62" cy="95.44" r="2.2" fill="#d3b15b"/><circle cx="181.98" cy="95.44" r="2.2" fill="#d3b15b"/><circle cx="227.78" cy="76.16" r="2.2" fill="#d3b15b"/><circle cx="235.01" cy="105.08" r="2.2" fill="#d3b15b"/><circle cx="221.75" cy="105.08" r="2.2" fill="#d3b15b"/><circle cx="222.96" cy="61.69" r="2.2" fill="#d3b15b"/><circle cx="237.42" cy="61.69" r="2.2" fill="#d3b15b"/><circle cx="197.65" cy="85.8" r="2.2" fill="#d3b15b"/><circle cx="189.21" cy="85.8" r="2.2" fill="#d3b15b"/><circle cx="245.86" cy="61.69" r="2.2" fill="#d3b15b"/><circle cx="247.06" cy="105.08" r="2.2" fill="#d3b15b"/><circle cx="178.36" cy="85.8" r="2.2" fill="#d3b15b"/><circle cx="218.14" cy="88.21" r="2.2" fill="#d3b15b"/><circle cx="218.14" cy="78.57" r="2.2" fill="#d3b15b"/><circle cx="208.49" cy="84.59" r="2.2" fill="#d3b15b"/><circle cx="215.73" cy="97.85" r="3.2" fill="#b7493c"/><circle cx="198.85" cy="30.35" r="3.2" fill="#b7493c"/><circle cx="167.51" cy="120.75" r="3.2" fill="#b7493c"/><circle cx="248.27" cy="105.08" r="3.2" fill="#b7493c"/><circle cx="247.06" cy="61.69" r="3.2" fill="#b7493c"/><circle cx="271.17" cy="47.23" r="3.2" fill="#b7493c"/><circle cx="237.42" cy="76.16" r="3.2" fill="#b7493c"/><circle cx="227.78" cy="85.8" r="2.2" fill="#d3b15b"/><circle cx="227.78" cy="80.98" r="2.2" fill="#d3b15b"/><circle cx="156.66" cy="85.8" r="2.2" fill="#d3b15b"/><circle cx="188.61" cy="161.13" r="2.2" fill="#d3b15b"/><circle cx="219.34" cy="164.14" r="2.2" fill="#d3b15b"/><circle cx="247.06" cy="44.82" r="3.2" fill="#b7493c"/><circle cx="259.12" cy="146.06" r="2.2" fill="#d3b15b"/><circle cx="274.79" cy="123.16" r="2.2" fill="#d3b15b"/><circle cx="190.41" cy="76.16" r="2.2" fill="#d3b15b"/><circle cx="260.32" cy="62.9" r="2.2" fill="#d3b15b"/><circle cx="256.71" cy="44.82" r="3.2" fill="#b7493c"/><circle cx="199.45" cy="131" r="2.2" fill="#d3b15b"/><circle cx="183.78" cy="131" r="2.2" fill="#d3b15b"/></g></svg>