<svg xmlns="http://www.w3.org/2000/svg" viewBox="0 0 420 240" role="img"><rect width="100%" height="100%" fill="#070706"/><g stroke="#5e5a4f" stroke-width="1.6" stroke-linecap="round"><line x1="212.32" y1="129.27" x2="212.32" y2="118.68"/><line x1="248.08" y1="116.03" x2="248.08" y2="118.68"/><line x1="252.06" y1="118.68" x2="283.85" y2="118.68"/><line x1="244.11" y1="129.27" x2="212.32" y2="129.27"/><line x1="249.41" y1="150.47" x2="249.41" y2="166.36"/><line x1="249.41" y1="166.36" x2="252.06" y2="171.66"/><line x1="201.72" y1="150.47" x2="199.07" y2="145.17"/><line x1="201.72" y1="166.36" x2="201.72" y2="150.47"/><line x1="207.02" y1="133.25" x2="244.11" y2="133.25"/><line x1="217.62" y1="182.26" x2="212.32" y2="184.91"/><line x1="233.51" y1="182.26" x2="217.62" y2="182.26"/><line x1="244.11" y1="114.7" x2="207.02" y2="114.7"/><line x1="207.02" y1="131.92" x2="207.02" y2="116.03"/><line x1="191.12" y1="116.03" x2="191.12" y2="131.92"/><line x1="244.11" y1="116.03" x2="244.11" y2="118.68"/><line x1="252.06" y1="129.27" x2="252.06" y2="131.92"/><line x1="174.56" y1="160.4" x2="171.92" y2="160.4"/><line x1="290.47" y1="99.47" x2="289.15" y2="100.13"/><line x1="245.44" y1="116.03" x2="245.44" y2="118.68"/><line x1="248.08" y1="129.27" x2="248.08" y2="131.92"/><line x1="260.01" y1="116.03" x2="275.9" y2="116.03"/><line x1="275.9" y1="113.38" x2="260.01" y2="113.38"/><line x1="275.9" y1="131.92" x2="260.01" y2="131.92"/><line x1="260.01" y1="134.57" x2="275.9" y2="134.57"/><line x1="212.32" y1="86.88" x2="212.32" y2="76.29"/><line x1="287.82" y1="121.32" x2="287.82" y2="126.62"/><line x1="289.81" y1="90.53" x2="289.81" y2="93.84"/><line x1="289.81" y1="93.84" x2="290.47" y2="93.84"/><line x1="290.47" y1="90.53" x2="289.81" y2="90.53"/><line x1="198.41" y1="69.66" x2="195.76" y2="69.66"/><line x1="148.73" y1="60.39" x2="185.82" y2="60.39"/><line x1="290.14" y1="91.52" x2="290.14" y2="92.84"/><line x1="290.14" y1="92.84" x2="290.47" y2="92.84"/><line x1="199.73" y1="68.34" x2="198.41" y2="69.66"/><line x1="214.97" y1="92.18" x2="236.16" y2="92.18"/><line x1="236.16" y1="89.53" x2="214.97" y2="89.53"/><line x1="260.01" y1="65.69" x2="260.01" y2="70.99"/><line x1="260.01" y1="70.99" x2="265.31" y2="70.99"/><line x1="265.31" y1="70.99" x2="265.31" y2="65.69"/><line x1="265.31" y1="65.69" x2="260.01" y2="65.69"/><line x1="175.23" y1="192.86" x2="173.9" y2="192.86"/><line x1="191.12" y1="145.17" x2="191.12" y2="171.66"/><line x1="199.07" y1="171.66" x2="201.72" y2="166.36"/><line x1="199.07" y1="171.66" x2="196.42" y2="166.36"/><line x1="196.42" y1="166.36" x2="196.42" y2="150.47"/><line x1="196.42" y1="150.47" x2="199.07" y2="145.17"/><line x1="175.23" y1="92.18" x2="196.42" y2="70.99"/><line x1="196.42" y1="70.99" x2="199.07" y2="70.99"/><line x1="207.02" y1="76.29" x2="207.02" y2="86.88"/><line x1="173.9" y1="192.86" x2="173.9" y2="208.75"/><line x1="173.9" y1="91.52" x2="173.9" y2="145.17"/><line x1="207.02" y1="68.34" x2="203.05" y2="68.34"/><line x1="207.02" y1="69.66" x2="203.71" y2="69.66"/><line x1="289.15" y1="94.83" x2="289.15" y2="100.13"/><line x1="201.72" y1="63.7" x2="201.06" y2="62.38"/><line x1="289.48" y1="89.86" x2="289.48" y2="94.5"/><line x1="195.76" y1="69.66" x2="173.9" y2="91.52"/><line x1="175.23" y1="145.17" x2="175.23" y2="92.18"/><line x1="290.47" y1="89.86" x2="289.48" y2="89.86"/><line x1="289.15" y1="89.53" x2="290.47" y2="89.53"/><line x1="177.88" y1="159.74" x2="177.88" y2="151.79"/><line x1="252.06" y1="145.17" x2="249.41" y2="150.47"/><line x1="252.06" y1="145.17" x2="254.71" y2="150.47"/><line x1="254.71" y1="150.47" x2="254.71" y2="166.36"/><line x1="254.71" y1="166.36" x2="252.06" y2="171.66"/><line x1="238.81" y1="184.91" x2="233.51" y2="182.26"/><line x1="238.81" y1="184.91" x2="233.51" y2="187.56"/><line x1="233.51" y1="187.56" x2="217.62" y2="187.56"/><line x1="217.62" y1="187.56" x2="212.32" y2="184.91"/><line x1="201.72" y1="208.75" x2="201.72" y2="192.86"/><line x1="196.42" y1="192.86" x2="196.42" y2="208.75"/><line x1="249.41" y1="192.86" x2="249.41" y2="208.75"/><line x1="275.9" y1="182.26" x2="260.01" y2="182.26"/><line x1="254.71" y1="208.75" x2="254.71" y2="192.86"/><line x1="120.92" y1="172.99" x2="120.92" y2="146.49"/><line x1="287.82" y1="81.58" x2="289.15" y2="84.23"/><line x1="252.06" y1="120" x2="248.08" y2="120"/><line x1="222.92" y1="214.05" x2="222.92" y2="219.35"/><line x1="222.92" y1="219.35" x2="228.21" y2="219.35"/><line x1="228.21" y1="219.35" x2="228.21" y2="214.05"/><line x1="228.21" y1="214.05" x2="222.92" y2="214.05"/><line x1="245.44" y1="120" x2="244.11" y2="120"/><line x1="245.44" y1="120" x2="245.44" y2="127.95"/><line x1="244.11" y1="118.68" x2="245.44" y2="118.68"/><line x1="244.11" y1="118.68" x2="244.11" y2="120"/><line x1="248.08" y1="120" x2="248.08" y2="127.95"/><line x1="248.08" y1="127.95" x2="252.06" y2="127.95"/><line x1="245.44" y1="129.27" x2="244.11" y2="129.27"/><line x1="245.44" y1="129.27" x2="245.44" y2="131.92"/><line x1="252.06" y1="116.03" x2="252.06" y2="118.68"/><line x1="283.85" y1="129.27" x2="252.06" y2="129.27"/><line x1="283.85" y1="118.68" x2="283.85" y2="129.27"/><line x1="212.32" y1="118.68" x2="244.11" y2="118.68"/><line x1="244.11" y1="127.95" x2="245.44" y2="127.95"/><line x1="244.11" y1="127.95" x2="244.11" y2="129.27"/><line x1="248.08" y1="120" x2="245.44" y2="120"/><line x1="244.11" y1="129.27" x2="244.11" y2="131.92"/><line x1="225.56" y1="155.77" x2="224.24" y2="157.09"/><line x1="226.89" y1="155.77" x2="225.56" y2="155.77"/><line x1="228.21" y1="157.09" x2="226.89" y2="155.77"/><line x1="226.89" y1="158.42" x2="228.21" y2="157.09"/><line x1="257.36" y1="208.09" x2="257.36" y2="193.52"/><line x1="260.67" y1="211.4" x2="257.36" y2="208.09"/><line x1="278.55" y1="193.52" x2="278.55" y2="200.81"/><line x1="275.24" y1="190.21" x2="278.55" y2="193.52"/><line x1="260.67" y1="190.21" x2="275.24" y2="190.21"/><line x1="257.36" y1="193.52" x2="260.67" y2="190.21"/><line x1="214.97" y1="92.18" x2="220.27" y2="94.83"/><line x1="289.81" y1="126.62" x2="289.81" y2="121.32"/><line x1="260.01" y1="187.56" x2="275.9" y2="187.56"/><line x1="220.27" y1="94.83" x2="230.86" y2="94.83"/><line x1="180.53" y1="161.06" x2="180.53" y2="150.47"/><line x1="230.86" y1="94.83" x2="236.16" y2="92.18"/><line x1="207.02" y1="44.49" x2="207.02" y2="65.69"/><line x1="290.47" y1="91.52" x2="290.14" y2="91.52"/><line x1="274.58" y1="202.13" x2="269.28" y2="207.43"/><line x1="286.5" y1="147.82" x2="286.5" y2="151.79"/><line x1="176.55" y1="159.74" x2="169.93" y2="159.74"/><line x1="233.51" y1="214.05" x2="228.21" y2="212.73"/><line x1="228.21" y1="212.73" x2="222.92" y2="212.73"/><line x1="222.92" y1="212.73" x2="217.62" y2="214.05"/><line x1="254.71" y1="70.99" x2="260.01" y2="72.31"/><line x1="260.01" y1="72.31" x2="265.31" y2="72.31"/><line x1="265.31" y1="72.31" x2="270.6" y2="70.99"/><line x1="209.67" y1="76.29" x2="209.67" y2="86.88"/><line x1="193.77" y1="116.03" x2="193.77" y2="131.92"/><line x1="199.07" y1="192.86" x2="199.07" y2="208.75"/><line x1="254.71" y1="171.66" x2="256.69" y2="167.36"/><line x1="256.69" y1="167.36" x2="256.69" y2="149.47"/><line x1="256.69" y1="149.47" x2="254.71" y2="145.17"/><line x1="212.32" y1="185.9" x2="217.29" y2="188.22"/><line x1="217.29" y1="188.22" x2="233.84" y2="188.22"/><line x1="233.84" y1="188.22" x2="238.81" y2="185.9"/><line x1="212.32" y1="187.56" x2="216.62" y2="189.55"/><line x1="216.62" y1="189.55" x2="234.51" y2="189.55"/><line x1="234.51" y1="189.55" x2="238.81" y2="187.56"/><line x1="250.73" y1="192.86" x2="250.73" y2="208.75"/><line x1="250.07" y1="208.75" x2="250.07" y2="192.86"/><line x1="245.44" y1="118.68" x2="245.44" y2="120"/><line x1="200.4" y1="192.86" x2="200.4" y2="208.75"/><line x1="234.18" y1="188.88" x2="238.81" y2="186.56"/><line x1="216.95" y1="188.88" x2="234.18" y2="188.88"/><line x1="245.44" y1="118.68" x2="248.08" y2="118.68"/><line x1="252.06" y1="118.68" x2="252.06" y2="120"/><line x1="180.53" y1="41.84" x2="196.42" y2="41.84"/><line x1="148.73" y1="39.19" x2="164.63" y2="39.19"/><line x1="199.73" y1="63.04" x2="200.4" y2="64.36"/><line x1="260.01" y1="182.92" x2="275.9" y2="182.92"/><line x1="253.05" y1="171.66" x2="255.37" y2="166.69"/><line x1="255.37" y1="166.69" x2="255.37" y2="150.14"/><line x1="256.03" y1="149.81" x2="253.71" y2="145.17"/><line x1="256.03" y1="167.03" x2="256.03" y2="149.81"/><line x1="255.37" y1="150.14" x2="253.05" y2="145.17"/><line x1="214.97" y1="91.52" x2="236.16" y2="91.52"/><line x1="210.99" y1="76.29" x2="210.99" y2="86.88"/><line x1="236.16" y1="90.86" x2="214.97" y2="90.86"/><line x1="290.47" y1="94.83" x2="289.15" y2="94.83"/><line x1="201.72" y1="67.68" x2="201.72" y2="63.7"/><line x1="201.06" y1="69" x2="201.72" y2="67.68"/><line x1="199.07" y1="70.99" x2="199.73" y2="70.32"/><line x1="286.5" y1="121.32" x2="286.5" y2="126.62"/><line x1="252.06" y1="127.95" x2="282.53" y2="127.95"/><line x1="252.06" y1="120" x2="252.06" y2="127.95"/><line x1="248.08" y1="129.27" x2="245.44" y2="129.27"/><line x1="248.08" y1="127.95" x2="248.08" y2="129.27"/><line x1="245.44" y1="127.95" x2="248.08" y2="127.95"/><line x1="214.97" y1="161.06" x2="216.29" y2="161.06"/><line x1="214.97" y1="158.42" x2="213.64" y2="159.74"/><line x1="220.27" y1="166.36" x2="221.59" y2="166.36"/><line x1="245.44" y1="127.95" x2="245.44" y2="129.27"/><line x1="213.64" y1="159.74" x2="214.97" y2="161.06"/><line x1="252.06" y1="129.27" x2="248.08" y2="129.27"/><line x1="252.06" y1="127.95" x2="252.06" y2="129.27"/><line x1="224.24" y1="159.74" x2="225.56" y2="161.06"/><line x1="225.56" y1="161.06" x2="226.89" y2="161.06"/><line x1="224.24" y1="157.09" x2="222.92" y2="157.09"/><line x1="248.08" y1="118.68" x2="252.06" y2="118.68"/><line x1="244.11" y1="120" x2="244.11" y2="127.95"/><line x1="282.53" y1="127.95" x2="282.53" y2="120"/><line x1="218.94" y1="162.39" x2="220.27" y2="163.71"/><line x1="216.29" y1="161.06" x2="217.62" y2="162.39"/><line x1="220.27" y1="163.71" x2="218.94" y2="165.04"/><line x1="217.62" y1="162.39" x2="218.94" y2="162.39"/><line x1="282.53" y1="120" x2="252.06" y2="120"/><line x1="221.59" y1="158.42" x2="222.92" y2="159.74"/><line x1="226.89" y1="161.06" x2="228.21" y2="159.74"/><line x1="228.21" y1="159.74" x2="226.89" y2="158.42"/><line x1="218.94" y1="165.04" x2="220.27" y2="166.36"/><line x1="222.92" y1="157.09" x2="221.59" y2="158.42"/><line x1="222.92" y1="159.74" x2="224.24" y2="159.74"/><line x1="148.73" y1="41.84" x2="164.63" y2="41.84"/><line x1="169.93" y1="151.79" x2="176.55" y2="151.79"/><line x1="185.82" y1="60.39" x2="201.72" y2="60.39"/><line x1="261.33" y1="191.53" x2="258.68" y2="194.18"/><line x1="258.68" y1="207.43" x2="261.33" y2="210.08"/><line x1="277.23" y1="200.81" x2="277.23" y2="194.18"/><line x1="274.58" y1="191.53" x2="261.33" y2="191.53"/><line x1="277.23" y1="194.18" x2="274.58" y2="191.53"/><line x1="258.68" y1="194.18" x2="258.68" y2="207.43"/><line x1="204.37" y1="131.92" x2="204.37" y2="116.03"/><line x1="267.95" y1="211.4" x2="260.67" y2="211.4"/><line x1="261.33" y1="210.08" x2="267.95" y2="210.08"/><line x1="213.64" y1="120" x2="213.64" y2="127.95"/><line x1="213.64" y1="127.95" x2="244.11" y2="127.95"/><line x1="248.08" y1="118.68" x2="248.08" y2="120"/><line x1="244.11" y1="120" x2="213.64" y2="120"/><line x1="289.15" y1="100.13" x2="287.82" y2="102.78"/><line x1="200.4" y1="69.66" x2="201.06" y2="69"/><line x1="199.73" y1="70.32" x2="200.4" y2="69.66"/><line x1="203.05" y1="70.99" x2="199.07" y2="70.99"/><line x1="203.71" y1="69.66" x2="203.05" y2="70.99"/><line x1="202.38" y1="69.66" x2="200.4" y2="69.66"/><line x1="203.05" y1="68.34" x2="202.38" y2="69.66"/><line x1="214.97" y1="57.74" x2="214.97" y2="52.44"/><line x1="214.97" y1="52.44" x2="212.32" y2="52.44"/><line x1="200.4" y1="67.01" x2="199.73" y2="68.34"/><line x1="200.4" y1="64.36" x2="200.4" y2="67.01"/><line x1="171.92" y1="151.13" x2="174.56" y2="151.13"/><line x1="221.59" y1="150.47" x2="220.27" y2="150.47"/><line x1="220.27" y1="150.47" x2="218.94" y2="151.79"/><line x1="218.94" y1="151.79" x2="217.62" y2="151.79"/><line x1="217.62" y1="151.79" x2="216.29" y2="153.12"/><line x1="216.29" y1="158.42" x2="214.97" y2="158.42"/><line x1="222.92" y1="151.79" x2="221.59" y2="150.47"/><line x1="216.29" y1="153.12" x2="217.62" y2="154.44"/><line x1="217.62" y1="154.44" x2="216.29" y2="155.77"/><line x1="216.29" y1="155.77" x2="217.62" y2="157.09"/><line x1="217.62" y1="157.09" x2="216.29" y2="158.42"/><line x1="225.56" y1="150.47" x2="224.24" y2="151.79"/><line x1="224.24" y1="151.79" x2="222.92" y2="151.79"/><line x1="229.54" y1="151.79" x2="228.21" y2="151.79"/><line x1="226.89" y1="150.47" x2="225.56" y2="150.47"/><line x1="228.21" y1="151.79" x2="226.89" y2="150.47"/><line x1="230.86" y1="153.12" x2="229.54" y2="151.79"/><line x1="229.54" y1="154.44" x2="230.86" y2="153.12"/><line x1="230.86" y1="155.77" x2="229.54" y2="154.44"/><line x1="233.51" y1="157.09" x2="232.19" y2="155.77"/><line x1="232.19" y1="155.77" x2="230.86" y2="155.77"/><line x1="232.19" y1="161.06" x2="233.51" y2="159.74"/><line x1="234.84" y1="157.09" x2="233.51" y2="157.09"/><line x1="236.16" y1="158.42" x2="234.84" y2="157.09"/><line x1="234.84" y1="159.74" x2="236.16" y2="158.42"/><line x1="233.51" y1="159.74" x2="234.84" y2="159.74"/><line x1="234.84" y1="162.39" x2="233.51" y2="162.39"/><line x1="233.51" y1="162.39" x2="232.19" y2="161.06"/><line x1="226.89" y1="163.71" x2="228.21" y2="162.39"/><line x1="233.51" y1="165.04" x2="234.84" y2="165.04"/><line x1="236.16" y1="163.71" x2="234.84" y2="162.39"/><line x1="234.84" y1="165.04" x2="236.16" y2="163.71"/><line x1="232.19" y1="163.71" x2="233.51" y2="165.04"/><line x1="230.86" y1="163.71" x2="232.19" y2="163.71"/><line x1="229.54" y1="162.39" x2="230.86" y2="163.71"/><line x1="228.21" y1="162.39" x2="229.54" y2="162.39"/><line x1="224.24" y1="165.04" x2="225.56" y2="163.71"/><line x1="225.56" y1="163.71" x2="226.89" y2="163.71"/><line x1="221.59" y1="166.36" x2="222.92" y2="165.04"/><line x1="222.92" y1="165.04" x2="224.24" y2="165.04"/><line x1="289.48" y1="94.5" x2="290.47" y2="94.5"/><line x1="289.15" y1="84.23" x2="290.47" y2="84.9"/><line x1="289.15" y1="84.23" x2="289.15" y2="89.53"/><line x1="212.32" y1="186.56" x2="216.95" y2="188.88"/><line x1="253.71" y1="171.66" x2="256.03" y2="167.03"/><line x1="173.9" y1="166.36" x2="173.9" y2="192.86"/><line x1="275.9" y1="183.58" x2="260.01" y2="183.58"/><line x1="288.49" y1="126.62" x2="288.49" y2="121.32"/><line x1="191.12" y1="135.9" x2="191.12" y2="141.19"/><line x1="201.06" y1="62.38" x2="199.73" y2="63.04"/><line x1="212.32" y1="52.44" x2="212.32" y2="57.74"/><line x1="201.72" y1="60.39" x2="207.02" y2="65.69"/><line x1="138.14" y1="70.99" x2="148.73" y2="60.39"/><line x1="212.32" y1="57.74" x2="214.97" y2="57.74"/><line x1="228.21" y1="220.68" x2="222.92" y2="220.68"/><line x1="260.01" y1="64.36" x2="265.31" y2="64.36"/><line x1="138.14" y1="182.26" x2="138.14" y2="70.99"/><line x1="289.15" y1="89.53" x2="289.15" y2="94.83"/><line x1="132.84" y1="187.56" x2="132.84" y2="65.69"/><line x1="134.16" y1="208.75" x2="134.16" y2="196.83"/><line x1="122.24" y1="141.19" x2="122.24" y2="178.29"/><line x1="138.14" y1="208.75" x2="138.14" y2="198.16"/><line x1="138.14" y1="198.16" x2="132.84" y2="187.56"/><line x1="196.42" y1="192.86" x2="175.23" y2="192.86"/><line x1="175.23" y1="208.75" x2="175.23" y2="192.86"/><line x1="175.23" y1="192.86" x2="175.23" y2="166.36"/><line x1="173.9" y1="192.86" x2="148.73" y2="192.86"/><line x1="148.73" y1="192.86" x2="138.14" y2="182.26"/><line x1="132.84" y1="65.69" x2="138.14" y2="55.09"/><line x1="138.14" y1="55.09" x2="138.14" y2="44.49"/><line x1="134.16" y1="56.42" x2="134.16" y2="44.49"/><line x1="122.24" y1="56.42" x2="134.16" y2="56.42"/><line x1="134.16" y1="196.83" x2="122.24" y2="196.83"/><line x1="122.24" y1="112.05" x2="122.24" y2="74.96"/><line x1="120.92" y1="106.75" x2="120.92" y2="80.26"/><line x1="180.53" y1="44.49" x2="196.42" y2="44.49"/><line x1="180.53" y1="39.19" x2="196.42" y2="39.19"/><line x1="148.73" y1="44.49" x2="164.63" y2="44.49"/><line x1="286.5" y1="151.79" x2="277.23" y2="155.1"/><line x1="286.5" y1="151.79" x2="286.5" y2="153.12"/><line x1="286.5" y1="153.12" x2="286.5" y2="163.71"/><line x1="286.5" y1="165.04" x2="286.5" y2="169.01"/><line x1="278.55" y1="155.77" x2="286.5" y2="153.12"/><line x1="277.23" y1="155.1" x2="277.23" y2="161.73"/><line x1="277.23" y1="161.73" x2="286.5" y2="165.04"/><line x1="286.5" y1="163.71" x2="286.5" y2="165.04"/><line x1="286.5" y1="163.71" x2="278.55" y2="161.06"/><line x1="278.55" y1="161.06" x2="278.55" y2="155.77"/><line x1="281.2" y1="161.06" x2="283.85" y2="161.06"/><line x1="283.85" y1="161.06" x2="283.85" y2="155.77"/><line x1="283.85" y1="155.77" x2="281.2" y2="155.77"/><line x1="281.2" y1="155.77" x2="281.2" y2="161.06"/></g><g stroke="#d3b15b" stroke-width="2.4" stroke-linecap="round"><line x1="249.41" y1="139.87" x2="252.06" y2="145.17"/><line x1="249.41" y1="176.96" x2="244.11" y2="182.26"/><line x1="244.11" y1="182.26" x2="238.81" y2="184.91"/><line x1="207.02" y1="182.26" x2="201.72" y2="176.96"/><line x1="201.72" y1="139.87" x2="207.02" y2="134.57"/><line x1="201.72" y1="176.96" x2="199.07" y2="171.66"/><line x1="244.11" y1="134.57" x2="249.41" y2="139.87"/><line x1="207.02" y1="134.57" x2="207.02" y2="133.25"/><line x1="244.11" y1="133.25" x2="244.11" y2="134.57"/><line x1="244.11" y1="114.7" x2="244.11" y2="116.03"/><line x1="207.02" y1="133.25" x2="207.02" y2="131.92"/><line x1="207.02" y1="114.7" x2="207.02" y2="97.48"/><line x1="244.11" y1="97.48" x2="244.11" y2="114.7"/><line x1="196.42" y1="23.3" x2="196.42" y2="39.19"/><line x1="164.63" y1="44.49" x2="180.53" y2="44.49"/><line x1="207.02" y1="97.48" x2="211.99" y2="92.51"/><line x1="212.32" y1="92.18" x2="213.64" y2="92.18"/><line x1="238.81" y1="92.18" x2="239.14" y2="92.51"/><line x1="207.02" y1="131.92" x2="204.37" y2="131.92"/><line x1="191.12" y1="116.03" x2="193.77" y2="116.03"/><line x1="207.02" y1="116.03" x2="207.02" y2="114.7"/><line x1="174.56" y1="151.13" x2="176.55" y2="151.13"/><line x1="171.92" y1="160.4" x2="169.93" y2="160.4"/><line x1="171.92" y1="151.13" x2="171.92" y2="150.8"/><line x1="244.11" y1="131.92" x2="244.11" y2="133.25"/><line x1="174.56" y1="160.73" x2="171.92" y2="160.73"/><line x1="244.11" y1="116.03" x2="245.44" y2="116.03"/><line x1="245.44" y1="116.03" x2="248.08" y2="116.03"/><line x1="171.92" y1="160.73" x2="171.92" y2="160.4"/><line x1="252.06" y1="116.03" x2="260.01" y2="116.03"/><line x1="286.5" y1="131.92" x2="275.9" y2="131.92"/><line x1="174.56" y1="160.4" x2="174.56" y2="160.73"/><line x1="290.47" y1="99.47" x2="290.47" y2="100.79"/><line x1="175.23" y1="208.75" x2="173.9" y2="208.75"/><line x1="132.84" y1="55.09" x2="132.84" y2="44.49"/><line x1="290.47" y1="94.5" x2="290.47" y2="94.83"/><line x1="286.5" y1="116.03" x2="286.5" y2="121.32"/><line x1="252.06" y1="131.92" x2="248.08" y2="131.92"/><line x1="245.44" y1="131.92" x2="244.11" y2="131.92"/><line x1="248.08" y1="131.92" x2="245.44" y2="131.92"/><line x1="248.08" y1="116.03" x2="252.06" y2="116.03"/><line x1="260.01" y1="116.03" x2="260.01" y2="113.38"/><line x1="275.9" y1="113.38" x2="275.9" y2="116.03"/><line x1="275.9" y1="116.03" x2="286.5" y2="116.03"/><line x1="275.9" y1="131.92" x2="275.9" y2="134.57"/><line x1="260.01" y1="134.57" x2="260.01" y2="131.92"/><line x1="260.01" y1="131.92" x2="252.06" y2="131.92"/><line x1="260.01" y1="113.38" x2="252.06" y2="113.38"/><line x1="252.06" y1="113.38" x2="246.76" y2="108.08"/><line x1="246.76" y1="96.16" x2="240.14" y2="89.53"/><line x1="212.32" y1="76.29" x2="230.86" y2="76.29"/><line x1="270.6" y1="70.99" x2="275.9" y2="70.99"/><line x1="286.5" y1="78.94" x2="287.82" y2="81.58"/><line x1="222.92" y1="60.39" x2="217.62" y2="65.69"/><line x1="120.92" y1="141.19" x2="122.24" y2="141.19"/><line x1="290.47" y1="90.53" x2="290.47" y2="91.52"/><line x1="119.59" y1="146.49" x2="120.92" y2="146.49"/><line x1="122.24" y1="141.19" x2="122.24" y2="112.05"/><line x1="196.42" y1="44.49" x2="207.02" y2="44.49"/><line x1="120.92" y1="178.29" x2="120.92" y2="172.99"/><line x1="286.5" y1="105.43" x2="281.2" y2="110.73"/><line x1="254.71" y1="70.99" x2="258.02" y2="64.36"/><line x1="258.02" y1="64.36" x2="260.01" y2="64.36"/><line x1="267.29" y1="64.36" x2="270.6" y2="70.99"/><line x1="119.59" y1="172.99" x2="119.59" y2="167.69"/><line x1="120.92" y1="172.99" x2="119.59" y2="172.99"/><line x1="122.24" y1="178.29" x2="120.92" y2="178.29"/><line x1="119.59" y1="90.86" x2="119.59" y2="80.26"/><line x1="290.47" y1="93.84" x2="290.47" y2="94.5"/><line x1="220.27" y1="52.44" x2="220.27" y2="57.74"/><line x1="220.27" y1="57.74" x2="221.59" y2="57.74"/><line x1="221.59" y1="57.74" x2="221.59" y2="52.44"/><line x1="214.97" y1="92.18" x2="214.97" y2="91.52"/><line x1="214.97" y1="89.53" x2="212.32" y2="86.88"/><line x1="214.97" y1="91.52" x2="214.97" y2="90.86"/><line x1="236.16" y1="92.18" x2="237.49" y2="92.18"/><line x1="240.14" y1="89.53" x2="236.16" y2="89.53"/><line x1="212.32" y1="86.88" x2="210.99" y2="86.88"/><line x1="204.37" y1="86.88" x2="191.12" y2="100.13"/><line x1="199.07" y1="145.17" x2="201.72" y2="139.87"/><line x1="191.12" y1="131.92" x2="191.12" y2="135.9"/><line x1="196.42" y1="208.75" x2="175.23" y2="208.75"/><line x1="191.12" y1="145.17" x2="199.07" y2="145.17"/><line x1="199.07" y1="171.66" x2="191.12" y2="171.66"/><line x1="191.12" y1="171.66" x2="191.12" y2="176.96"/><line x1="191.12" y1="100.13" x2="191.12" y2="116.03"/><line x1="207.02" y1="76.29" x2="209.67" y2="76.29"/><line x1="207.02" y1="86.88" x2="204.37" y2="86.88"/><line x1="207.02" y1="69.66" x2="207.02" y2="76.29"/><line x1="217.62" y1="65.69" x2="207.02" y2="65.69"/><line x1="290.47" y1="91.52" x2="290.47" y2="92.84"/><line x1="290.47" y1="84.9" x2="290.47" y2="89.53"/><line x1="217.62" y1="44.49" x2="222.92" y2="49.79"/><line x1="241.46" y1="70.99" x2="254.71" y2="70.99"/><line x1="300.41" y1="121.32" x2="300.41" y2="126.62"/><line x1="290.47" y1="83.57" x2="290.47" y2="84.9"/><line x1="291.14" y1="127.95" x2="289.81" y2="126.62"/><line x1="180.53" y1="146.49" x2="179.2" y2="145.17"/><line x1="275.9" y1="70.99" x2="281.2" y2="73.64"/><line x1="230.86" y1="76.29" x2="241.46" y2="70.99"/><line x1="179.2" y1="145.17" x2="175.23" y2="145.17"/><line x1="290.47" y1="92.84" x2="290.47" y2="93.84"/><line x1="290.47" y1="94.83" x2="290.47" y2="99.47"/><line x1="164.63" y1="165.04" x2="165.95" y2="166.36"/><line x1="289.81" y1="126.62" x2="288.49" y2="126.62"/><line x1="138.14" y1="44.49" x2="148.73" y2="44.49"/><line x1="252.06" y1="171.66" x2="249.41" y2="176.96"/><line x1="252.06" y1="145.17" x2="253.05" y2="145.17"/><line x1="254.71" y1="145.17" x2="254.71" y2="139.87"/><line x1="169.93" y1="151.13" x2="171.92" y2="151.13"/><line x1="275.9" y1="134.57" x2="281.2" y2="134.57"/><line x1="286.5" y1="139.87" x2="286.5" y2="147.82"/><line x1="286.5" y1="176.96" x2="281.2" y2="182.26"/><line x1="254.71" y1="176.96" x2="254.71" y2="171.66"/><line x1="254.71" y1="171.66" x2="253.71" y2="171.66"/><line x1="212.32" y1="184.91" x2="207.02" y2="182.26"/><line x1="238.81" y1="184.91" x2="238.81" y2="185.9"/><line x1="238.81" y1="185.9" x2="238.81" y2="186.56"/><line x1="244.11" y1="187.56" x2="249.41" y2="192.86"/><line x1="244.11" y1="214.05" x2="233.51" y2="214.05"/><line x1="212.32" y1="185.9" x2="212.32" y2="184.91"/><line x1="201.72" y1="192.86" x2="207.02" y2="187.56"/><line x1="191.12" y1="176.96" x2="196.42" y2="182.26"/><line x1="196.42" y1="182.26" x2="196.42" y2="192.86"/><line x1="199.07" y1="208.75" x2="196.42" y2="208.75"/><line x1="201.72" y1="208.75" x2="200.4" y2="208.75"/><line x1="260.01" y1="182.26" x2="254.71" y2="176.96"/><line x1="249.41" y1="192.86" x2="250.07" y2="192.86"/><line x1="275.9" y1="182.26" x2="275.9" y2="182.92"/><line x1="281.2" y1="192.86" x2="281.2" y2="200.81"/><line x1="249.41" y1="208.75" x2="244.11" y2="214.05"/><line x1="207.02" y1="214.05" x2="201.72" y2="208.75"/><line x1="275.9" y1="200.81" x2="274.58" y2="202.13"/><line x1="254.71" y1="192.86" x2="260.01" y2="187.56"/><line x1="267.95" y1="210.08" x2="267.95" y2="211.4"/><line x1="254.71" y1="208.75" x2="250.73" y2="208.75"/><line x1="260.01" y1="214.05" x2="254.71" y2="208.75"/><line x1="275.9" y1="187.56" x2="281.2" y2="192.86"/><line x1="267.95" y1="211.4" x2="267.95" y2="214.05"/><line x1="180.53" y1="165.04" x2="180.53" y2="161.06"/><line x1="281.2" y1="73.64" x2="286.5" y2="78.94"/><line x1="209.67" y1="45.82" x2="209.67" y2="47.14"/><line x1="281.2" y1="182.26" x2="275.9" y2="182.26"/><line x1="254.71" y1="139.87" x2="260.01" y2="134.57"/><line x1="281.2" y1="134.57" x2="286.5" y2="139.87"/><line x1="246.76" y1="108.08" x2="246.76" y2="96.16"/><line x1="233.51" y1="214.05" x2="230.2" y2="220.68"/><line x1="217.62" y1="214.05" x2="207.02" y2="214.05"/><line x1="220.93" y1="220.68" x2="217.62" y2="214.05"/><line x1="230.2" y1="220.68" x2="228.21" y2="220.68"/><line x1="281.2" y1="200.81" x2="278.55" y2="200.81"/><line x1="278.55" y1="200.81" x2="277.23" y2="200.81"/><line x1="176.55" y1="151.79" x2="177.88" y2="151.79"/><line x1="169.93" y1="151.79" x2="169.93" y2="151.13"/><line x1="289.81" y1="121.32" x2="291.14" y2="120"/><line x1="275.24" y1="202.79" x2="269.94" y2="208.09"/><line x1="169.93" y1="159.74" x2="169.93" y2="158.42"/><line x1="277.23" y1="200.81" x2="275.9" y2="200.81"/><line x1="267.95" y1="214.05" x2="260.01" y2="214.05"/><line x1="177.88" y1="159.74" x2="176.55" y2="159.74"/><line x1="164.63" y1="146.49" x2="164.63" y2="165.04"/><line x1="207.02" y1="187.56" x2="212.32" y2="187.56"/><line x1="209.67" y1="76.29" x2="210.99" y2="76.29"/><line x1="209.67" y1="86.88" x2="207.02" y2="86.88"/><line x1="193.77" y1="116.03" x2="204.37" y2="116.03"/><line x1="193.77" y1="131.92" x2="191.12" y2="131.92"/><line x1="199.07" y1="192.86" x2="200.4" y2="192.86"/><line x1="196.42" y1="192.86" x2="199.07" y2="192.86"/><line x1="212.32" y1="186.56" x2="212.32" y2="185.9"/><line x1="250.73" y1="208.75" x2="250.07" y2="208.75"/><line x1="267.95" y1="208.75" x2="267.95" y2="210.08"/><line x1="250.07" y1="208.75" x2="249.41" y2="208.75"/><line x1="250.07" y1="192.86" x2="250.73" y2="192.86"/><line x1="200.4" y1="192.86" x2="201.72" y2="192.86"/><line x1="238.81" y1="187.56" x2="244.11" y2="187.56"/><line x1="212.32" y1="187.56" x2="212.32" y2="186.56"/><line x1="200.4" y1="208.75" x2="199.07" y2="208.75"/><line x1="138.14" y1="18" x2="207.02" y2="18"/><line x1="138.14" y1="23.3" x2="138.14" y2="18"/><line x1="148.73" y1="23.3" x2="138.14" y2="23.3"/><line x1="148.73" y1="39.19" x2="148.73" y2="23.3"/><line x1="196.42" y1="39.19" x2="196.42" y2="41.84"/><line x1="148.73" y1="41.84" x2="148.73" y2="39.19"/><line x1="260.01" y1="183.58" x2="260.01" y2="182.92"/><line x1="275.9" y1="183.58" x2="275.9" y2="187.56"/><line x1="260.01" y1="182.92" x2="260.01" y2="182.26"/><line x1="275.9" y1="182.92" x2="275.9" y2="183.58"/><line x1="253.05" y1="171.66" x2="252.06" y2="171.66"/><line x1="253.05" y1="145.17" x2="253.71" y2="145.17"/><line x1="253.71" y1="171.66" x2="253.05" y2="171.66"/><line x1="236.16" y1="91.52" x2="236.16" y2="92.18"/><line x1="236.16" y1="89.53" x2="236.16" y2="90.86"/><line x1="210.99" y1="86.88" x2="209.67" y2="86.88"/><line x1="210.99" y1="76.29" x2="212.32" y2="76.29"/><line x1="236.16" y1="90.86" x2="236.16" y2="91.52"/><line x1="214.97" y1="90.86" x2="214.97" y2="89.53"/><line x1="287.82" y1="102.78" x2="286.5" y2="105.43"/><line x1="119.59" y1="96.16" x2="119.59" y2="90.86"/><line x1="299.08" y1="120" x2="300.41" y2="121.32"/><line x1="119.59" y1="167.69" x2="119.59" y2="151.79"/><line x1="173.9" y1="145.17" x2="165.95" y2="145.17"/><line x1="207.02" y1="65.69" x2="207.02" y2="68.34"/><line x1="287.82" y1="81.58" x2="289.15" y2="80.92"/><line x1="211.99" y1="92.51" x2="212.32" y2="92.18"/><line x1="177.88" y1="151.79" x2="180.53" y2="150.47"/><line x1="180.53" y1="150.47" x2="180.53" y2="146.49"/><line x1="180.53" y1="161.06" x2="177.88" y2="159.74"/><line x1="237.49" y1="92.18" x2="238.81" y2="92.18"/><line x1="213.64" y1="92.18" x2="214.97" y2="92.18"/><line x1="164.63" y1="39.19" x2="164.63" y2="41.84"/><line x1="180.53" y1="23.3" x2="164.63" y2="23.3"/><line x1="196.42" y1="41.84" x2="196.42" y2="44.49"/><line x1="274.58" y1="202.13" x2="275.24" y2="202.79"/><line x1="180.53" y1="41.84" x2="180.53" y2="39.19"/><line x1="269.28" y1="207.43" x2="267.95" y2="208.75"/><line x1="180.53" y1="39.19" x2="180.53" y2="23.3"/><line x1="269.94" y1="208.09" x2="269.28" y2="207.43"/><line x1="164.63" y1="41.84" x2="164.63" y2="44.49"/><line x1="164.63" y1="23.3" x2="164.63" y2="39.19"/><line x1="290.47" y1="100.79" x2="289.15" y2="103.44"/><line x1="289.15" y1="103.44" x2="287.82" y2="102.78"/><line x1="175.23" y1="166.36" x2="179.2" y2="166.36"/><line x1="207.02" y1="68.34" x2="207.02" y2="69.66"/><line x1="286.5" y1="147.82" x2="287.82" y2="147.82"/><line x1="286.5" y1="169.01" x2="286.5" y2="176.96"/><line x1="204.37" y1="116.03" x2="207.02" y2="116.03"/><line x1="204.37" y1="131.92" x2="193.77" y2="131.92"/><line x1="214.97" y1="45.82" x2="209.67" y2="45.82"/><line x1="176.55" y1="159.74" x2="176.55" y2="160.4"/><line x1="169.93" y1="153.12" x2="169.93" y2="151.79"/><line x1="176.55" y1="160.4" x2="174.56" y2="160.4"/><line x1="174.56" y1="150.8" x2="174.56" y2="151.13"/><line x1="169.93" y1="158.42" x2="169.93" y2="153.12"/><line x1="169.93" y1="160.4" x2="169.93" y2="159.74"/><line x1="171.92" y1="150.8" x2="174.56" y2="150.8"/><line x1="119.59" y1="151.79" x2="119.59" y2="146.49"/><line x1="222.92" y1="49.79" x2="222.92" y2="60.39"/><line x1="281.2" y1="110.73" x2="275.9" y2="113.38"/><line x1="290.47" y1="89.86" x2="290.47" y2="90.53"/><line x1="290.47" y1="89.53" x2="290.47" y2="89.86"/><line x1="173.9" y1="208.75" x2="138.14" y2="208.75"/><line x1="238.81" y1="186.56" x2="238.81" y2="187.56"/><line x1="253.71" y1="145.17" x2="254.71" y2="145.17"/><line x1="250.73" y1="192.86" x2="254.71" y2="192.86"/><line x1="260.01" y1="187.56" x2="260.01" y2="183.58"/><line x1="221.59" y1="52.44" x2="220.27" y2="52.44"/><line x1="175.23" y1="145.17" x2="173.9" y2="145.17"/><line x1="176.55" y1="151.13" x2="176.55" y2="151.79"/><line x1="209.67" y1="63.04" x2="209.67" y2="64.36"/><line x1="209.67" y1="64.36" x2="214.97" y2="64.36"/><line x1="214.97" y1="64.36" x2="214.97" y2="63.04"/><line x1="214.97" y1="63.04" x2="209.67" y2="63.04"/><line x1="286.5" y1="126.62" x2="286.5" y2="131.92"/><line x1="291.14" y1="120" x2="299.08" y2="120"/><line x1="287.82" y1="126.62" x2="286.5" y2="126.62"/><line x1="287.82" y1="121.32" x2="288.49" y2="121.32"/><line x1="286.5" y1="121.32" x2="287.82" y2="121.32"/><line x1="299.08" y1="127.95" x2="291.14" y2="127.95"/><line x1="288.49" y1="126.62" x2="287.82" y2="126.62"/><line x1="300.41" y1="126.62" x2="299.08" y2="127.95"/><line x1="288.49" y1="121.32" x2="289.81" y2="121.32"/><line x1="192.45" y1="135.9" x2="192.45" y2="141.19"/><line x1="191.12" y1="141.19" x2="191.12" y2="145.17"/><line x1="192.45" y1="141.19" x2="191.12" y2="141.19"/><line x1="191.12" y1="135.9" x2="192.45" y2="135.9"/><line x1="287.82" y1="147.82" x2="287.82" y2="169.01"/><line x1="239.14" y1="92.51" x2="244.11" y2="97.48"/><line x1="173.9" y1="166.36" x2="175.23" y2="166.36"/><line x1="209.67" y1="47.14" x2="214.97" y2="47.14"/><line x1="165.95" y1="145.17" x2="164.63" y2="146.49"/><line x1="207.02" y1="44.49" x2="217.62" y2="44.49"/><line x1="179.2" y1="166.36" x2="180.53" y2="165.04"/><line x1="214.97" y1="47.14" x2="214.97" y2="45.82"/><line x1="228.21" y1="222" x2="222.92" y2="222"/><line x1="228.21" y1="220.68" x2="228.21" y2="222"/><line x1="222.92" y1="220.68" x2="220.93" y2="220.68"/><line x1="222.92" y1="222" x2="222.92" y2="220.68"/><line x1="260.01" y1="63.04" x2="265.31" y2="63.04"/><line x1="265.31" y1="64.36" x2="267.29" y2="64.36"/><line x1="265.31" y1="63.04" x2="265.31" y2="64.36"/><line x1="260.01" y1="64.36" x2="260.01" y2="63.04"/><line x1="287.82" y1="169.01" x2="286.5" y2="169.01"/><line x1="289.15" y1="80.92" x2="290.47" y2="83.57"/><line x1="165.95" y1="166.36" x2="173.9" y2="166.36"/><line x1="138.14" y1="208.75" x2="134.16" y2="208.75"/><line x1="132.84" y1="44.49" x2="134.16" y2="44.49"/><line x1="122.24" y1="55.09" x2="132.84" y2="55.09"/><line x1="122.24" y1="56.42" x2="122.24" y2="55.09"/><line x1="134.16" y1="208.75" x2="132.84" y2="208.75"/><line x1="132.84" y1="208.75" x2="132.84" y2="198.16"/><line x1="132.84" y1="198.16" x2="122.24" y2="198.16"/><line x1="122.24" y1="198.16" x2="122.24" y2="196.83"/><line x1="134.16" y1="44.49" x2="138.14" y2="44.49"/><line x1="122.24" y1="196.83" x2="122.24" y2="178.29"/><line x1="120.92" y1="80.26" x2="120.92" y2="74.96"/><line x1="122.24" y1="112.05" x2="120.92" y2="112.05"/><line x1="122.24" y1="74.96" x2="122.24" y2="56.42"/><line x1="120.92" y1="112.05" x2="120.92" y2="106.75"/><line x1="119.59" y1="106.75" x2="119.59" y2="96.16"/><line x1="120.92" y1="106.75" x2="119.59" y2="106.75"/><line x1="120.92" y1="74.96" x2="122.24" y2="74.96"/><line x1="119.59" y1="80.26" x2="120.92" y2="80.26"/><line x1="120.92" y1="146.49" x2="120.92" y2="141.19"/><line x1="207.02" y1="23.3" x2="196.42" y2="23.3"/><line x1="207.02" y1="18" x2="207.02" y2="23.3"/><line x1="180.53" y1="44.49" x2="180.53" y2="41.84"/><line x1="148.73" y1="44.49" x2="148.73" y2="41.84"/></g><g opacity="0.95"><circle cx="218.94" cy="48.47" r="2.2" fill="#d3b15b"/><circle cx="279.55" cy="199.15" r="2.2" fill="#d3b15b"/><circle cx="224.9" cy="158.42" r="2.2" fill="#d3b15b"/><circle cx="216.29" cy="45.82" r="2.2" fill="#d3b15b"/><circle cx="221.59" cy="51.12" r="2.2" fill="#d3b15b"/><circle cx="221.59" cy="59.06" r="2.2" fill="#d3b15b"/><circle cx="216.29" cy="64.36" r="2.2" fill="#d3b15b"/><circle cx="218.94" cy="61.71" r="2.2" fill="#d3b15b"/><circle cx="213.64" cy="55.09" r="2.2" fill="#d3b15b"/><circle cx="222.25" cy="123.97" r="3.2" fill="#b7493c"/><circle cx="220.93" cy="121.32" r="3.2" fill="#b7493c"/><circle cx="221.59" cy="126.62" r="3.2" fill="#b7493c"/><circle cx="220.27" cy="118.01" r="3.2" fill="#b7493c"/><circle cx="172.58" cy="155.77" r="2.2" fill="#d3b15b"/><circle cx="267.95" cy="200.81" r="2.2" fill="#d3b15b"/><circle cx="282.53" cy="158.42" r="2.2" fill="#d3b15b"/><circle cx="284.51" cy="165.7" r="2.2" fill="#d3b15b"/><circle cx="284.51" cy="149.81" r="2.2" fill="#d3b15b"/><circle cx="177.21" cy="206.77" r="3.2" fill="#b7493c"/><circle cx="242.12" cy="212.06" r="3.2" fill="#b7493c"/><circle cx="269.94" cy="202.79" r="3.2" fill="#b7493c"/><circle cx="280.54" cy="158.42" r="3.2" fill="#b7493c"/><circle cx="281.86" cy="78.27" r="3.2" fill="#b7493c"/><circle cx="281.86" cy="106.09" r="3.2" fill="#b7493c"/><circle cx="197.75" cy="72.97" r="3.2" fill="#b7493c"/><circle cx="225.56" cy="78.94" r="2.2" fill="#d3b15b"/><circle cx="230.2" cy="78.27" r="2.2" fill="#d3b15b"/><circle cx="234.84" cy="76.29" r="2.2" fill="#d3b15b"/><circle cx="239.47" cy="73.64" r="2.2" fill="#d3b15b"/><circle cx="244.11" cy="72.97" r="2.2" fill="#d3b15b"/><circle cx="289.15" cy="82.91" r="2.2" fill="#d3b15b"/><circle cx="289.81" cy="84.9" r="2.2" fill="#d3b15b"/><circle cx="289.81" cy="87.55" r="2.2" fill="#d3b15b"/><circle cx="289.81" cy="90.19" r="2.2" fill="#d3b15b"/><circle cx="289.15" cy="101.45" r="2.2" fill="#d3b15b"/><circle cx="289.81" cy="99.47" r="2.2" fill="#d3b15b"/><circle cx="289.81" cy="96.82" r="2.2" fill="#d3b15b"/><circle cx="289.81" cy="94.17" r="2.2" fill="#d3b15b"/><circle cx="266.3" cy="212.4" r="2.2" fill="#d3b15b"/><circle cx="199.07" cy="158.42" r="2.2" fill="#d3b15b"/><circle cx="225.56" cy="184.91" r="2.2" fill="#d3b15b"/><circle cx="228.21" cy="123.97" r="2.2" fill="#d3b15b"/><circle cx="216.29" cy="123.97" r="2.2" fill="#d3b15b"/><circle cx="238.81" cy="123.97" r="2.2" fill="#d3b15b"/><circle cx="284.51" cy="118.01" r="2.2" fill="#d3b15b"/><circle cx="176.55" cy="155.77" r="2.2" fill="#d3b15b"/><circle cx="196.42" cy="92.18" r="2.2" fill="#d3b15b"/><circle cx="176.55" cy="93.51" r="2.2" fill="#d3b15b"/><circle cx="176.55" cy="96.16" r="2.2" fill="#d3b15b"/><circle cx="176.55" cy="98.81" r="2.2" fill="#d3b15b"/><circle cx="195.1" cy="183.58" r="2.2" fill="#d3b15b"/><circle cx="195.1" cy="186.23" r="2.2" fill="#d3b15b"/><circle cx="195.1" cy="188.88" r="2.2" fill="#d3b15b"/><circle cx="195.1" cy="191.53" r="2.2" fill="#d3b15b"/><circle cx="177.21" cy="123.97" r="3.2" fill="#b7493c"/><circle cx="196.42" cy="75.62" r="2.2" fill="#d3b15b"/></g></svg>