<svg xmlns="http://www.w3.org/2000/svg" viewBox="0 0 420 240" role="img"><rect width="100%" height="100%" fill="#070706"/><g stroke="#5e5a4f" stroke-width="1.6" stroke-linecap="round"><line x1="266.74" y1="146.34" x2="245.13" y2="146.34"/><line x1="153.26" y1="59.88" x2="164.07" y2="59.88"/><line x1="191.09" y1="38.26" x2="191.09" y2="49.07"/><line x1="153.26" y1="54.48" x2="164.07" y2="54.48"/><line x1="153.26" y1="49.07" x2="164.07" y2="49.07"/><line x1="164.07" y1="38.26" x2="164.07" y2="49.07"/><line x1="169.47" y1="38.26" x2="169.47" y2="49.07"/><line x1="174.87" y1="38.26" x2="174.87" y2="49.07"/><line x1="180.28" y1="38.26" x2="180.28" y2="49.07"/><line x1="185.68" y1="38.26" x2="185.68" y2="49.07"/><line x1="234.32" y1="57.18" x2="196.49" y2="57.18"/><line x1="196.49" y1="59.88" x2="215.4" y2="59.8"/><line x1="158.66" y1="70.69" x2="158.66" y2="81.5"/><line x1="158.66" y1="81.5" x2="169.47" y2="81.5"/><line x1="169.47" y1="81.5" x2="169.47" y2="70.69"/><line x1="169.47" y1="70.69" x2="158.66" y2="70.69"/><line x1="158.66" y1="135.54" x2="169.47" y2="135.54"/><line x1="169.47" y1="135.54" x2="169.47" y2="124.73"/><line x1="169.47" y1="124.73" x2="158.66" y2="124.73"/><line x1="158.66" y1="124.73" x2="158.66" y2="135.54"/><line x1="261.34" y1="135.54" x2="261.34" y2="124.73"/><line x1="261.34" y1="124.73" x2="250.53" y2="124.73"/><line x1="250.53" y1="124.73" x2="250.53" y2="135.54"/><line x1="250.53" y1="135.54" x2="261.34" y2="135.54"/><line x1="261.34" y1="70.69" x2="250.53" y2="70.69"/><line x1="250.53" y1="70.69" x2="250.53" y2="81.5"/><line x1="250.53" y1="81.5" x2="261.34" y2="81.5"/><line x1="261.34" y1="81.5" x2="261.34" y2="70.69"/><line x1="201.89" y1="76.09" x2="201.89" y2="81.5"/><line x1="201.89" y1="81.5" x2="207.3" y2="81.5"/><line x1="218.11" y1="81.5" x2="218.11" y2="76.09"/><line x1="218.11" y1="76.09" x2="201.89" y2="76.09"/><line x1="218.11" y1="124.73" x2="212.7" y2="124.73"/><line x1="201.89" y1="124.73" x2="201.89" y2="130.13"/><line x1="201.89" y1="130.13" x2="218.11" y2="130.13"/><line x1="218.11" y1="130.13" x2="218.11" y2="124.73"/><line x1="207.3" y1="124.73" x2="201.89" y2="124.73"/><line x1="207.3" y1="119.32" x2="207.3" y2="124.73"/><line x1="212.7" y1="124.73" x2="212.7" y2="119.32"/><line x1="212.7" y1="119.32" x2="207.3" y2="119.32"/><line x1="207.3" y1="81.5" x2="207.3" y2="86.9"/><line x1="207.3" y1="86.9" x2="212.7" y2="86.9"/><line x1="212.7" y1="81.5" x2="218.11" y2="81.5"/><line x1="212.7" y1="86.9" x2="212.7" y2="81.5"/><line x1="245.13" y1="135.54" x2="245.13" y2="124.73"/><line x1="245.13" y1="124.73" x2="223.51" y2="124.73"/><line x1="223.51" y1="124.73" x2="223.51" y2="135.54"/><line x1="223.51" y1="135.54" x2="245.13" y2="135.54"/><line x1="223.51" y1="108.52" x2="245.13" y2="108.52"/><line x1="245.13" y1="108.52" x2="245.13" y2="97.71"/><line x1="245.13" y1="97.71" x2="223.51" y2="97.71"/><line x1="223.51" y1="97.71" x2="223.51" y2="108.52"/><line x1="245.13" y1="81.5" x2="245.13" y2="70.69"/><line x1="245.13" y1="70.69" x2="223.51" y2="70.69"/><line x1="223.51" y1="70.69" x2="223.51" y2="81.5"/><line x1="223.51" y1="81.5" x2="245.13" y2="81.5"/><line x1="266.74" y1="146.34" x2="266.74" y2="167.96"/><line x1="266.74" y1="178.77" x2="272.15" y2="184.17"/><line x1="272.15" y1="184.17" x2="272.15" y2="205.79"/><line x1="272.15" y1="205.79" x2="266.74" y2="211.19"/><line x1="147.85" y1="162.56" x2="153.26" y2="157.15"/><line x1="147.85" y1="205.79" x2="147.85" y2="162.56"/><line x1="153.26" y1="211.19" x2="147.85" y2="205.79"/><line x1="266.74" y1="211.19" x2="247.83" y2="211.19"/><line x1="239.72" y1="146.34" x2="223.51" y2="146.34"/><line x1="239.72" y1="167.96" x2="245.13" y2="167.96"/><line x1="266.74" y1="167.96" x2="266.74" y2="178.77"/><line x1="245.13" y1="167.96" x2="266.74" y2="167.96"/><line x1="245.13" y1="167.96" x2="245.13" y2="146.34"/><line x1="153.26" y1="157.15" x2="155.96" y2="157.15"/><line x1="234.32" y1="157.15" x2="239.72" y2="162.56"/><line x1="239.72" y1="162.56" x2="239.72" y2="167.96"/><line x1="158.66" y1="157.15" x2="180.28" y2="157.15"/><line x1="158.66" y1="157.15" x2="158.66" y2="154.45"/><line x1="158.66" y1="151.75" x2="180.28" y2="151.75"/><line x1="180.28" y1="151.75" x2="180.28" y2="154.45"/><line x1="180.28" y1="157.15" x2="182.98" y2="157.15"/><line x1="158.66" y1="159.85" x2="158.66" y2="157.15"/><line x1="158.66" y1="170.66" x2="180.28" y2="170.66"/><line x1="180.28" y1="167.96" x2="180.28" y2="170.66"/><line x1="158.66" y1="170.66" x2="158.66" y2="167.96"/><line x1="158.66" y1="167.96" x2="180.28" y2="167.96"/><line x1="180.28" y1="165.26" x2="180.28" y2="167.96"/><line x1="158.66" y1="167.96" x2="158.66" y2="165.26"/><line x1="158.66" y1="165.26" x2="180.28" y2="165.26"/><line x1="180.28" y1="162.56" x2="180.28" y2="165.26"/><line x1="158.66" y1="165.26" x2="158.66" y2="162.56"/><line x1="158.66" y1="162.56" x2="180.28" y2="162.56"/><line x1="180.28" y1="159.85" x2="180.28" y2="162.56"/><line x1="158.66" y1="162.56" x2="158.66" y2="159.85"/><line x1="158.66" y1="159.85" x2="180.28" y2="159.85"/><line x1="180.28" y1="157.15" x2="180.28" y2="159.85"/><line x1="158.66" y1="154.45" x2="158.66" y2="151.75"/><line x1="158.66" y1="154.45" x2="180.28" y2="154.45"/><line x1="180.28" y1="154.45" x2="180.28" y2="157.15"/><line x1="180.28" y1="170.66" x2="182.98" y2="170.66"/><line x1="182.98" y1="170.66" x2="182.98" y2="157.15"/><line x1="182.98" y1="157.15" x2="234.32" y2="157.15"/><line x1="155.96" y1="157.15" x2="158.66" y2="157.15"/><line x1="155.96" y1="157.15" x2="155.96" y2="170.66"/><line x1="155.96" y1="170.66" x2="158.66" y2="170.66"/><line x1="169.47" y1="92.3" x2="169.47" y2="103.11"/><line x1="169.47" y1="113.92" x2="180.28" y2="113.92"/><line x1="185.68" y1="113.92" x2="185.68" y2="108.52"/><line x1="185.68" y1="108.52" x2="191.09" y2="108.52"/><line x1="191.09" y1="108.52" x2="191.09" y2="103.11"/><line x1="191.09" y1="103.11" x2="180.28" y2="103.11"/><line x1="180.28" y1="103.11" x2="180.28" y2="97.71"/><line x1="180.28" y1="97.71" x2="185.68" y2="97.71"/><line x1="185.68" y1="97.71" x2="185.68" y2="92.3"/><line x1="185.68" y1="92.3" x2="180.28" y2="92.3"/><line x1="180.28" y1="97.71" x2="180.28" y2="92.3"/><line x1="180.28" y1="92.3" x2="174.87" y2="92.3"/><line x1="180.28" y1="97.71" x2="174.87" y2="97.71"/><line x1="174.87" y1="97.71" x2="174.87" y2="92.3"/><line x1="174.87" y1="92.3" x2="169.47" y2="92.3"/><line x1="180.28" y1="113.92" x2="185.68" y2="113.92"/><line x1="180.28" y1="113.92" x2="180.28" y2="108.52"/><line x1="180.28" y1="108.52" x2="185.68" y2="108.52"/><line x1="180.28" y1="103.11" x2="180.28" y2="108.52"/><line x1="169.47" y1="103.11" x2="169.47" y2="108.52"/><line x1="169.47" y1="103.11" x2="174.87" y2="103.11"/><line x1="174.87" y1="103.11" x2="174.87" y2="108.52"/><line x1="174.87" y1="108.52" x2="169.47" y2="108.52"/><line x1="169.47" y1="108.52" x2="169.47" y2="113.92"/><line x1="158.66" y1="205.79" x2="169.47" y2="205.79"/><line x1="169.47" y1="205.79" x2="169.47" y2="194.98"/><line x1="169.47" y1="194.98" x2="164.07" y2="194.98"/><line x1="158.66" y1="194.98" x2="158.66" y2="200.38"/><line x1="164.07" y1="194.98" x2="158.66" y2="194.98"/><line x1="164.07" y1="194.98" x2="164.07" y2="200.38"/><line x1="164.07" y1="200.38" x2="158.66" y2="200.38"/><line x1="158.66" y1="200.38" x2="158.66" y2="205.79"/><line x1="191.09" y1="200.38" x2="191.09" y2="205.79"/><line x1="191.09" y1="205.79" x2="201.89" y2="205.79"/><line x1="201.89" y1="205.79" x2="201.89" y2="200.38"/><line x1="201.89" y1="200.38" x2="191.09" y2="200.38"/><line x1="212.7" y1="184.17" x2="218.11" y2="184.17"/><line x1="218.11" y1="184.17" x2="218.11" y2="173.36"/><line x1="218.11" y1="173.36" x2="212.7" y2="173.36"/><line x1="212.7" y1="173.36" x2="212.7" y2="184.17"/><line x1="164.07" y1="178.77" x2="164.07" y2="189.58"/><line x1="164.07" y1="189.58" x2="185.68" y2="189.58"/><line x1="185.68" y1="189.58" x2="185.68" y2="184.17"/><line x1="185.68" y1="178.77" x2="164.07" y2="178.77"/><line x1="255.93" y1="178.77" x2="234.32" y2="178.77"/><line x1="234.32" y1="178.77" x2="234.32" y2="189.58"/><line x1="234.32" y1="189.58" x2="255.93" y2="189.58"/><line x1="255.93" y1="189.58" x2="255.93" y2="178.77"/><line x1="185.68" y1="189.58" x2="191.09" y2="189.58"/><line x1="191.09" y1="189.58" x2="191.09" y2="184.17"/><line x1="191.09" y1="184.17" x2="185.68" y2="184.17"/><line x1="185.68" y1="184.17" x2="185.68" y2="178.77"/><line x1="272.15" y1="70.69" x2="272.15" y2="81.5"/><line x1="272.15" y1="124.73" x2="272.15" y2="135.54"/><line x1="272.15" y1="97.71" x2="272.15" y2="108.52"/><line x1="147.85" y1="135.54" x2="147.85" y2="124.73"/><line x1="147.85" y1="108.52" x2="147.85" y2="97.71"/><line x1="147.85" y1="81.5" x2="147.85" y2="70.69"/><line x1="272.15" y1="84.2" x2="272.15" y2="95.01"/><line x1="272.15" y1="111.22" x2="272.15" y2="122.03"/><line x1="147.85" y1="122.03" x2="147.85" y2="111.22"/><line x1="147.85" y1="95.01" x2="147.85" y2="84.2"/><line x1="223.51" y1="146.34" x2="201.89" y2="146.34"/><line x1="223.51" y1="146.34" x2="223.51" y2="145.67"/><line x1="223.51" y1="145.67" x2="201.89" y2="145.67"/><line x1="201.89" y1="145.67" x2="201.89" y2="146.34"/><line x1="201.89" y1="146.34" x2="153.26" y2="146.34"/><line x1="212.7" y1="32.86" x2="218.11" y2="32.86"/><line x1="212.7" y1="31.51" x2="218.11" y2="31.51"/><line x1="218.11" y1="30.16" x2="212.7" y2="30.16"/><line x1="199.19" y1="54.48" x2="199.19" y2="49.07"/><line x1="199.19" y1="49.07" x2="193.79" y2="49.07"/><line x1="193.79" y1="49.07" x2="193.79" y2="40.97"/><line x1="193.79" y1="40.97" x2="199.19" y2="40.97"/><line x1="199.19" y1="40.97" x2="199.19" y2="35.56"/><line x1="201.89" y1="51.77" x2="228.91" y2="51.77"/><line x1="231.62" y1="35.56" x2="231.62" y2="40.97"/><line x1="231.62" y1="40.97" x2="237.02" y2="40.97"/><line x1="237.02" y1="40.97" x2="237.02" y2="49.07"/><line x1="199.19" y1="35.56" x2="231.62" y2="35.56"/><line x1="231.62" y1="49.07" x2="231.62" y2="54.48"/><line x1="231.62" y1="54.48" x2="199.19" y2="54.48"/><line x1="201.89" y1="43.67" x2="196.49" y2="43.67"/><line x1="201.89" y1="38.26" x2="201.89" y2="43.67"/><line x1="228.91" y1="38.26" x2="201.89" y2="38.26"/><line x1="228.91" y1="43.67" x2="228.91" y2="38.26"/><line x1="234.32" y1="43.67" x2="228.91" y2="43.67"/><line x1="234.32" y1="46.37" x2="234.32" y2="43.67"/><line x1="228.91" y1="46.37" x2="234.32" y2="46.37"/><line x1="228.91" y1="51.77" x2="228.91" y2="46.37"/><line x1="237.02" y1="49.07" x2="231.62" y2="49.07"/><line x1="201.89" y1="46.37" x2="201.89" y2="51.77"/><line x1="196.49" y1="46.37" x2="201.89" y2="46.37"/><line x1="196.49" y1="43.67" x2="196.49" y2="46.37"/><line x1="207.3" y1="43.67" x2="223.51" y2="43.67"/><line x1="223.51" y1="43.67" x2="223.51" y2="46.37"/><line x1="223.51" y1="46.37" x2="207.3" y2="46.37"/><line x1="207.3" y1="46.37" x2="207.3" y2="43.67"/><line x1="158.66" y1="43.67" x2="153.26" y2="38.26"/><line x1="158.66" y1="43.67" x2="164.07" y2="38.26"/><line x1="158.66" y1="43.67" x2="164.07" y2="49.07"/><line x1="158.66" y1="43.67" x2="153.26" y2="49.07"/><line x1="269.44" y1="143.64" x2="150.56" y2="143.64"/><line x1="234.32" y1="157.15" x2="239.72" y2="157.15"/><line x1="196.49" y1="59.88" x2="234.32" y2="59.88"/><line x1="215.4" y1="59.8" x2="234.32" y2="59.88"/><line x1="153.26" y1="57.18" x2="164.07" y2="57.18"/><line x1="172.17" y1="211.19" x2="153.26" y2="211.19"/><line x1="174.87" y1="216.6" x2="172.17" y2="211.19"/><line x1="182.98" y1="211.19" x2="172.17" y2="211.19"/><line x1="180.28" y1="216.6" x2="174.87" y2="216.6"/><line x1="182.98" y1="211.19" x2="180.28" y2="216.6"/><line x1="245.13" y1="216.6" x2="239.72" y2="216.6"/><line x1="247.83" y1="211.19" x2="237.02" y2="211.19"/><line x1="247.83" y1="211.19" x2="245.13" y2="216.6"/><line x1="237.02" y1="211.19" x2="182.98" y2="211.19"/><line x1="239.72" y1="216.6" x2="237.02" y2="211.19"/><line x1="247.83" y1="59.88" x2="258.64" y2="59.88"/><line x1="147.94" y1="119.32" x2="147.94" y2="113.92"/><line x1="147.94" y1="92.3" x2="147.94" y2="86.9"/><line x1="272.06" y1="86.9" x2="272.06" y2="92.3"/><line x1="272.06" y1="113.92" x2="272.06" y2="119.32"/></g><g stroke="#d3b15b" stroke-width="2.4" stroke-linecap="round"><line x1="147.85" y1="65.28" x2="153.26" y2="59.88"/><line x1="272.15" y1="65.28" x2="272.15" y2="70.69"/><line x1="147.85" y1="140.94" x2="147.85" y2="135.54"/><line x1="164.07" y1="59.88" x2="196.49" y2="59.88"/><line x1="153.26" y1="59.88" x2="153.26" y2="57.18"/><line x1="153.26" y1="38.26" x2="164.07" y2="38.26"/><line x1="191.09" y1="49.07" x2="185.68" y2="49.07"/><line x1="164.07" y1="49.07" x2="164.07" y2="54.48"/><line x1="153.26" y1="54.48" x2="153.26" y2="49.07"/><line x1="164.07" y1="54.48" x2="164.07" y2="57.18"/><line x1="153.26" y1="49.07" x2="153.26" y2="38.26"/><line x1="164.07" y1="38.26" x2="169.47" y2="38.26"/><line x1="169.47" y1="38.26" x2="174.87" y2="38.26"/><line x1="169.47" y1="49.07" x2="164.07" y2="49.07"/><line x1="174.87" y1="38.26" x2="180.28" y2="38.26"/><line x1="174.87" y1="49.07" x2="169.47" y2="49.07"/><line x1="180.28" y1="38.26" x2="185.68" y2="38.26"/><line x1="180.28" y1="49.07" x2="174.87" y2="49.07"/><line x1="185.68" y1="38.26" x2="191.09" y2="38.26"/><line x1="185.68" y1="49.07" x2="180.28" y2="49.07"/><line x1="191.09" y1="38.26" x2="196.49" y2="32.86"/><line x1="196.49" y1="32.86" x2="201.89" y2="32.86"/><line x1="239.72" y1="32.86" x2="239.72" y2="38.26"/><line x1="239.72" y1="49.07" x2="234.32" y2="54.48"/><line x1="196.49" y1="57.18" x2="196.49" y2="54.48"/><line x1="234.32" y1="57.18" x2="234.32" y2="59.88"/><line x1="234.32" y1="59.88" x2="247.83" y2="59.88"/><line x1="196.49" y1="59.88" x2="196.49" y2="57.18"/><line x1="266.74" y1="59.88" x2="272.15" y2="65.28"/><line x1="272.15" y1="140.94" x2="269.44" y2="143.64"/><line x1="153.26" y1="146.34" x2="150.56" y2="143.64"/><line x1="164.07" y1="57.18" x2="164.07" y2="59.88"/><line x1="153.26" y1="57.18" x2="153.26" y2="54.48"/><line x1="201.89" y1="32.86" x2="207.3" y2="32.86"/><line x1="239.72" y1="38.26" x2="239.72" y2="43.67"/><line x1="239.72" y1="43.67" x2="239.72" y2="49.07"/><line x1="234.32" y1="32.86" x2="239.72" y2="32.86"/><line x1="153.26" y1="157.15" x2="153.26" y2="146.34"/><line x1="239.72" y1="146.34" x2="239.72" y2="157.15"/><line x1="245.13" y1="146.34" x2="239.72" y2="146.34"/><line x1="239.72" y1="162.56" x2="245.13" y2="146.34"/><line x1="266.74" y1="146.34" x2="269.44" y2="157.15"/><line x1="269.44" y1="157.15" x2="266.74" y2="167.96"/><line x1="266.74" y1="167.96" x2="277.55" y2="173.36"/><line x1="277.55" y1="173.36" x2="277.55" y2="222"/><line x1="277.55" y1="222" x2="142.45" y2="222"/><line x1="142.45" y1="222" x2="142.45" y2="157.15"/><line x1="142.45" y1="157.15" x2="153.26" y2="157.15"/><line x1="196.49" y1="54.48" x2="191.09" y2="49.07"/><line x1="228.91" y1="32.86" x2="234.32" y2="32.86"/><line x1="272.15" y1="70.69" x2="277.55" y2="73.39"/><line x1="277.55" y1="73.39" x2="277.55" y2="78.79"/><line x1="277.55" y1="78.79" x2="272.15" y2="81.5"/><line x1="272.15" y1="81.5" x2="272.15" y2="84.2"/><line x1="272.15" y1="124.73" x2="277.55" y2="127.43"/><line x1="277.55" y1="127.43" x2="277.55" y2="132.83"/><line x1="277.55" y1="132.83" x2="272.15" y2="135.54"/><line x1="272.15" y1="135.54" x2="272.15" y2="140.94"/><line x1="272.15" y1="97.71" x2="277.55" y2="100.41"/><line x1="277.55" y1="100.41" x2="277.55" y2="105.81"/><line x1="277.55" y1="105.81" x2="272.15" y2="108.52"/><line x1="272.15" y1="108.52" x2="272.15" y2="111.22"/><line x1="147.85" y1="135.54" x2="142.45" y2="132.83"/><line x1="142.45" y1="132.83" x2="142.45" y2="127.43"/><line x1="142.45" y1="127.43" x2="147.85" y2="124.73"/><line x1="147.85" y1="124.73" x2="147.85" y2="122.03"/><line x1="147.85" y1="108.52" x2="142.45" y2="105.81"/><line x1="142.45" y1="105.81" x2="142.45" y2="100.41"/><line x1="142.45" y1="100.41" x2="147.85" y2="97.71"/><line x1="147.85" y1="97.71" x2="147.85" y2="95.01"/><line x1="147.85" y1="81.5" x2="142.45" y2="78.79"/><line x1="142.45" y1="78.79" x2="142.45" y2="73.39"/><line x1="142.45" y1="73.39" x2="147.85" y2="70.69"/><line x1="147.85" y1="70.69" x2="147.85" y2="65.28"/><line x1="272.15" y1="84.2" x2="274.85" y2="84.2"/><line x1="274.85" y1="84.2" x2="274.85" y2="95.01"/><line x1="274.85" y1="95.01" x2="272.15" y2="95.01"/><line x1="272.15" y1="95.01" x2="272.15" y2="97.71"/><line x1="272.15" y1="111.22" x2="274.85" y2="111.22"/><line x1="274.85" y1="111.22" x2="274.85" y2="122.03"/><line x1="274.85" y1="122.03" x2="272.15" y2="122.03"/><line x1="272.15" y1="122.03" x2="272.15" y2="124.73"/><line x1="147.85" y1="122.03" x2="145.15" y2="122.03"/><line x1="145.15" y1="122.03" x2="145.15" y2="111.22"/><line x1="145.15" y1="111.22" x2="147.85" y2="111.22"/><line x1="147.85" y1="111.22" x2="147.85" y2="108.52"/><line x1="147.85" y1="95.01" x2="145.15" y2="95.01"/><line x1="145.15" y1="95.01" x2="145.15" y2="84.2"/><line x1="145.15" y1="84.2" x2="147.85" y2="84.2"/><line x1="147.85" y1="84.2" x2="147.85" y2="81.5"/><line x1="218.11" y1="31.51" x2="218.11" y2="32.86"/><line x1="212.7" y1="32.86" x2="212.7" y2="31.51"/><line x1="212.7" y1="31.51" x2="212.7" y2="30.16"/><line x1="212.7" y1="28.81" x2="211.77" y2="27.88"/><line x1="210" y1="26.11" x2="210" y2="20.7"/><line x1="210" y1="20.7" x2="210.84" y2="19.86"/><line x1="212.7" y1="18" x2="218.11" y2="18"/><line x1="218.11" y1="18" x2="219.96" y2="19.86"/><line x1="220.81" y1="20.7" x2="220.81" y2="26.11"/><line x1="220.81" y1="26.11" x2="219.03" y2="27.88"/><line x1="218.11" y1="28.81" x2="218.11" y2="30.16"/><line x1="212.7" y1="30.16" x2="212.7" y2="28.81"/><line x1="218.11" y1="30.16" x2="218.11" y2="31.51"/><line x1="218.11" y1="32.86" x2="223.51" y2="32.86"/><line x1="234.32" y1="54.48" x2="234.32" y2="57.18"/><line x1="207.3" y1="32.86" x2="212.7" y2="32.86"/><line x1="223.51" y1="32.86" x2="228.91" y2="32.86"/><line x1="210.84" y1="19.86" x2="212.7" y2="18"/><line x1="219.96" y1="19.86" x2="220.81" y2="20.7"/><line x1="211.77" y1="27.88" x2="210" y2="26.11"/><line x1="219.03" y1="27.88" x2="218.11" y2="28.81"/><line x1="150.56" y1="143.64" x2="147.85" y2="140.94"/><line x1="269.44" y1="143.64" x2="266.74" y2="146.34"/><line x1="239.72" y1="157.15" x2="239.72" y2="162.56"/><line x1="250.53" y1="54.48" x2="255.93" y2="54.48"/><line x1="258.64" y1="59.88" x2="266.74" y2="59.88"/><line x1="255.93" y1="54.48" x2="258.64" y2="59.88"/><line x1="247.83" y1="59.88" x2="250.53" y2="54.48"/></g><g opacity="0.95"><circle cx="228.91" cy="76.09" r="2.2" fill="#d3b15b"/><circle cx="239.72" cy="76.09" r="2.2" fill="#d3b15b"/><circle cx="188.38" cy="186.87" r="2.2" fill="#d3b15b"/><circle cx="161.36" cy="197.68" r="2.2" fill="#d3b15b"/><circle cx="155.96" cy="40.97" r="2.2" fill="#d3b15b"/><circle cx="182.98" cy="100.41" r="2.2" fill="#d3b15b"/><circle cx="215.49" cy="181.81" r="2.2" fill="#d3b15b"/><circle cx="235.67" cy="149.05" r="2.2" fill="#d3b15b"/><circle cx="253.23" cy="55.83" r="3.2" fill="#b7493c"/><circle cx="177.58" cy="215.25" r="3.2" fill="#b7493c"/><circle cx="242.42" cy="215.25" r="3.2" fill="#b7493c"/><circle cx="274.85" cy="103.11" r="2.2" fill="#d3b15b"/><circle cx="145.15" cy="130.13" r="2.2" fill="#d3b15b"/><circle cx="145.15" cy="76.09" r="2.2" fill="#d3b15b"/><circle cx="145.15" cy="103.11" r="2.2" fill="#d3b15b"/><circle cx="215.4" cy="40.97" r="3.2" fill="#b7493c"/><circle cx="216.75" cy="159.85" r="3.2" fill="#b7493c"/><circle cx="274.85" cy="76.09" r="2.2" fill="#d3b15b"/><circle cx="215.4" cy="45.02" r="2.2" fill="#d3b15b"/><circle cx="214.05" cy="159.85" r="3.2" fill="#b7493c"/><circle cx="208.65" cy="159.85" r="3.2" fill="#b7493c"/><circle cx="274.85" cy="130.13" r="2.2" fill="#d3b15b"/><circle cx="211.35" cy="159.85" r="3.2" fill="#b7493c"/><circle cx="253.23" cy="57.18" r="2.2" fill="#d3b15b"/><circle cx="177.58" cy="213.89" r="2.2" fill="#d3b15b"/><circle cx="242.42" cy="213.89" r="2.2" fill="#d3b15b"/><circle cx="255.93" cy="157.15" r="2.2" fill="#d3b15b"/><circle cx="237.02" cy="35.56" r="2.2" fill="#d3b15b"/><circle cx="247.83" cy="103.11" r="2.2" fill="#d3b15b"/><circle cx="196.15" cy="208.49" r="2.2" fill="#d3b15b"/><circle cx="177.24" cy="116.62" r="2.2" fill="#d3b15b"/><circle cx="143.8" cy="76.09" r="3.2" fill="#b7493c"/><circle cx="143.8" cy="103.11" r="3.2" fill="#b7493c"/><circle cx="143.8" cy="130.13" r="3.2" fill="#b7493c"/><circle cx="276.2" cy="130.13" r="3.2" fill="#b7493c"/><circle cx="276.2" cy="103.11" r="3.2" fill="#b7493c"/><circle cx="276.2" cy="76.09" r="3.2" fill="#b7493c"/></g></svg>