<svg xmlns="http://www.w3.org/2000/svg" viewBox="0 0 420 240" role="img"><rect width="100%" height="100%" fill="#070706"/><g stroke="#5e5a4f" stroke-width="1.6" stroke-linecap="round"><line x1="162.38" y1="59.67" x2="257.62" y2="59.67"/><line x1="162.38" y1="57.5" x2="160.22" y2="57.5"/><line x1="259.78" y1="94.3" x2="257.62" y2="94.3"/><line x1="162.38" y1="57.5" x2="257.62" y2="57.5"/><line x1="257.62" y1="57.5" x2="257.62" y2="59.67"/><line x1="229.48" y1="99.71" x2="229.48" y2="148.41"/><line x1="190.52" y1="100.79" x2="184.03" y2="94.3"/><line x1="190.52" y1="150.57" x2="190.52" y2="148.41"/><line x1="162.38" y1="55.34" x2="257.62" y2="55.34"/><line x1="160.22" y1="57.5" x2="160.22" y2="33.69"/><line x1="259.78" y1="57.5" x2="259.78" y2="59.67"/><line x1="257.62" y1="53.17" x2="257.62" y2="55.34"/><line x1="235.97" y1="96.46" x2="231.64" y2="100.79"/><line x1="329.05" y1="33.69" x2="329.05" y2="219.84"/><line x1="162.38" y1="53.17" x2="257.62" y2="53.17"/><line x1="220.82" y1="189.53" x2="220.82" y2="154.9"/><line x1="234.89" y1="94.3" x2="229.48" y2="99.71"/><line x1="162.38" y1="55.34" x2="162.38" y2="53.17"/><line x1="190.52" y1="189.53" x2="134.24" y2="189.53"/><line x1="264.11" y1="59.67" x2="264.11" y2="57.5"/><line x1="162.38" y1="53.17" x2="162.38" y2="33.69"/><line x1="188.36" y1="150.57" x2="188.36" y2="148.41"/><line x1="188.36" y1="101.87" x2="182.94" y2="96.46"/><line x1="186.19" y1="150.57" x2="186.19" y2="148.41"/><line x1="186.19" y1="102.95" x2="181.86" y2="98.63"/><line x1="184.03" y1="150.57" x2="184.03" y2="148.41"/><line x1="184.03" y1="104.04" x2="180.78" y2="100.79"/><line x1="259.78" y1="96.46" x2="257.62" y2="96.46"/><line x1="231.64" y1="100.79" x2="231.64" y2="148.41"/><line x1="259.78" y1="98.63" x2="257.62" y2="98.63"/><line x1="233.81" y1="101.87" x2="233.81" y2="148.41"/><line x1="259.78" y1="100.79" x2="257.62" y2="100.79"/><line x1="235.97" y1="102.95" x2="235.97" y2="148.41"/><line x1="155.89" y1="33.69" x2="160.22" y2="33.69"/><line x1="162.38" y1="63.99" x2="162.38" y2="59.67"/><line x1="329.05" y1="33.69" x2="266.28" y2="31.53"/><line x1="257.62" y1="33.69" x2="259.78" y2="33.69"/><line x1="153.72" y1="31.53" x2="90.95" y2="33.69"/><line x1="147.23" y1="87.8" x2="151.56" y2="87.8"/><line x1="257.62" y1="68.32" x2="257.62" y2="85.64"/><line x1="180.78" y1="194.94" x2="135.33" y2="194.94"/><line x1="216.49" y1="150.57" x2="203.51" y2="150.57"/><line x1="203.51" y1="154.9" x2="216.49" y2="154.9"/><line x1="257.62" y1="59.67" x2="257.62" y2="63.99"/><line x1="329.05" y1="219.84" x2="90.95" y2="219.84"/><line x1="197.01" y1="31.53" x2="222.99" y2="31.53"/><line x1="259.78" y1="33.69" x2="259.78" y2="57.5"/><line x1="160.22" y1="33.69" x2="162.38" y2="33.69"/><line x1="298.74" y1="68.32" x2="298.74" y2="118.11"/><line x1="155.89" y1="57.5" x2="155.89" y2="59.67"/><line x1="155.89" y1="31.53" x2="155.89" y2="33.69"/><line x1="162.38" y1="59.67" x2="162.38" y2="57.5"/><line x1="259.78" y1="57.5" x2="257.62" y2="57.5"/><line x1="121.26" y1="185.2" x2="121.26" y2="180.88"/><line x1="142.9" y1="92.13" x2="151.56" y2="92.13"/><line x1="142.9" y1="63.99" x2="142.9" y2="68.32"/><line x1="138.57" y1="63.99" x2="138.57" y2="68.32"/><line x1="257.62" y1="148.41" x2="235.97" y2="148.41"/><line x1="257.62" y1="100.79" x2="257.62" y2="148.41"/><line x1="138.57" y1="96.46" x2="151.56" y2="96.46"/><line x1="225.15" y1="189.53" x2="225.15" y2="154.9"/><line x1="153.72" y1="31.53" x2="155.89" y2="33.69"/><line x1="155.89" y1="33.69" x2="155.89" y2="57.5"/><line x1="257.62" y1="31.53" x2="257.62" y2="33.69"/><line x1="237.06" y1="98.63" x2="233.81" y2="101.87"/><line x1="231.64" y1="31.53" x2="257.62" y2="31.53"/><line x1="147.23" y1="63.99" x2="147.23" y2="68.32"/><line x1="160.22" y1="33.69" x2="160.22" y2="31.53"/><line x1="272.77" y1="68.32" x2="272.77" y2="63.99"/><line x1="151.56" y1="83.47" x2="155.89" y2="83.47"/><line x1="259.78" y1="33.69" x2="264.11" y2="33.69"/><line x1="277.1" y1="68.32" x2="277.1" y2="63.99"/><line x1="162.38" y1="33.69" x2="162.38" y2="31.53"/><line x1="257.62" y1="55.34" x2="257.62" y2="57.5"/><line x1="229.48" y1="189.53" x2="229.48" y2="159.23"/><line x1="259.78" y1="31.53" x2="259.78" y2="33.69"/><line x1="134.24" y1="198.19" x2="181.86" y2="198.19"/><line x1="233.81" y1="148.41" x2="231.64" y2="148.41"/><line x1="261.41" y1="79.15" x2="261.41" y2="81.31"/><line x1="218.66" y1="148.41" x2="201.34" y2="148.41"/><line x1="180.78" y1="100.79" x2="162.38" y2="100.79"/><line x1="162.38" y1="57.5" x2="162.38" y2="55.34"/><line x1="181.86" y1="98.63" x2="162.38" y2="98.63"/><line x1="182.94" y1="96.46" x2="162.38" y2="96.46"/><line x1="257.62" y1="33.69" x2="257.62" y2="53.17"/><line x1="184.03" y1="94.3" x2="162.38" y2="94.3"/><line x1="160.22" y1="57.5" x2="155.89" y2="57.5"/><line x1="160.22" y1="59.67" x2="160.22" y2="57.5"/><line x1="216.49" y1="189.53" x2="216.49" y2="154.9"/><line x1="264.11" y1="33.69" x2="266.28" y2="31.53"/><line x1="160.22" y1="83.47" x2="160.22" y2="70.49"/><line x1="135.33" y1="197.11" x2="180.78" y2="197.11"/><line x1="162.38" y1="85.64" x2="162.38" y2="68.32"/><line x1="181.86" y1="193.86" x2="134.24" y2="193.86"/><line x1="235.97" y1="148.41" x2="233.81" y2="148.41"/><line x1="238.14" y1="100.79" x2="235.97" y2="102.95"/><line x1="90.95" y1="219.84" x2="90.95" y2="33.69"/><line x1="162.38" y1="33.69" x2="257.62" y2="33.69"/><line x1="259.78" y1="70.49" x2="259.78" y2="83.47"/><line x1="203.51" y1="154.9" x2="203.51" y2="189.53"/><line x1="272.77" y1="87.8" x2="272.77" y2="68.32"/><line x1="231.64" y1="148.41" x2="231.64" y2="150.57"/><line x1="229.48" y1="148.41" x2="229.48" y2="150.57"/><line x1="229.48" y1="148.41" x2="222.99" y2="148.41"/><line x1="264.11" y1="83.47" x2="268.44" y2="83.47"/><line x1="257.62" y1="100.79" x2="238.14" y2="100.79"/><line x1="235.97" y1="148.41" x2="235.97" y2="150.57"/><line x1="233.81" y1="148.41" x2="233.81" y2="150.57"/><line x1="264.11" y1="83.47" x2="264.11" y2="70.49"/><line x1="309.56" y1="57.5" x2="264.11" y2="57.5"/><line x1="309.56" y1="200.36" x2="309.56" y2="57.5"/><line x1="110.44" y1="200.36" x2="309.56" y2="200.36"/><line x1="231.64" y1="148.41" x2="229.48" y2="148.41"/><line x1="281.43" y1="68.32" x2="298.74" y2="68.32"/><line x1="155.89" y1="70.49" x2="155.89" y2="83.47"/><line x1="257.62" y1="98.63" x2="237.06" y2="98.63"/><line x1="257.62" y1="96.46" x2="235.97" y2="96.46"/><line x1="257.62" y1="94.3" x2="234.89" y2="94.3"/><line x1="264.11" y1="96.46" x2="268.44" y2="96.46"/><line x1="110.44" y1="57.5" x2="110.44" y2="200.36"/><line x1="155.89" y1="57.5" x2="110.44" y2="57.5"/><line x1="264.11" y1="57.5" x2="264.11" y2="33.69"/><line x1="264.11" y1="57.5" x2="259.78" y2="57.5"/><line x1="162.38" y1="31.53" x2="188.36" y2="31.53"/><line x1="264.11" y1="33.69" x2="264.11" y2="31.53"/><line x1="298.74" y1="135.42" x2="298.74" y2="185.2"/><line x1="121.26" y1="118.11" x2="121.26" y2="68.32"/><line x1="197.01" y1="148.41" x2="190.52" y2="148.41"/><line x1="190.52" y1="148.41" x2="188.36" y2="148.41"/><line x1="188.36" y1="148.41" x2="186.19" y2="148.41"/><line x1="186.19" y1="148.41" x2="184.03" y2="148.41"/><line x1="184.03" y1="148.41" x2="162.38" y2="148.41"/><line x1="162.38" y1="148.41" x2="162.38" y2="100.79"/><line x1="162.38" y1="100.79" x2="162.38" y2="98.63"/><line x1="162.38" y1="98.63" x2="162.38" y2="96.46"/><line x1="162.38" y1="96.46" x2="162.38" y2="94.3"/><line x1="162.38" y1="94.3" x2="162.38" y2="89.97"/><line x1="162.38" y1="100.79" x2="160.22" y2="100.79"/><line x1="162.38" y1="98.63" x2="160.22" y2="98.63"/><line x1="162.38" y1="96.46" x2="160.22" y2="96.46"/><line x1="162.38" y1="94.3" x2="160.22" y2="94.3"/><line x1="184.03" y1="148.41" x2="184.03" y2="104.04"/><line x1="190.52" y1="148.41" x2="190.52" y2="100.79"/><line x1="188.36" y1="148.41" x2="188.36" y2="101.87"/><line x1="186.19" y1="148.41" x2="186.19" y2="102.95"/><line x1="257.62" y1="89.97" x2="257.62" y2="94.3"/><line x1="257.62" y1="94.3" x2="257.62" y2="96.46"/><line x1="257.62" y1="96.46" x2="257.62" y2="98.63"/><line x1="257.62" y1="98.63" x2="257.62" y2="100.79"/><line x1="199.18" y1="154.9" x2="199.18" y2="189.53"/><line x1="194.85" y1="154.9" x2="194.85" y2="189.53"/><line x1="190.52" y1="154.9" x2="190.52" y2="159.23"/><line x1="229.48" y1="189.53" x2="294.41" y2="189.53"/><line x1="284.67" y1="194.94" x2="239.22" y2="194.94"/><line x1="238.14" y1="198.19" x2="285.76" y2="198.19"/><line x1="239.22" y1="197.11" x2="284.67" y2="197.11"/><line x1="285.76" y1="193.86" x2="238.14" y2="193.86"/><line x1="268.44" y1="83.47" x2="268.44" y2="68.32"/><line x1="264.11" y1="87.8" x2="268.44" y2="87.8"/><line x1="264.11" y1="92.13" x2="268.44" y2="92.13"/><line x1="277.1" y1="92.13" x2="277.1" y2="68.32"/><line x1="281.43" y1="96.46" x2="281.43" y2="68.32"/><line x1="281.43" y1="68.32" x2="281.43" y2="63.99"/><line x1="151.56" y1="68.32" x2="151.56" y2="83.47"/><line x1="121.26" y1="68.32" x2="138.57" y2="68.32"/><line x1="138.57" y1="68.32" x2="142.9" y2="68.32"/><line x1="142.9" y1="68.32" x2="147.23" y2="68.32"/><line x1="147.23" y1="68.32" x2="151.56" y2="68.32"/><line x1="138.57" y1="68.32" x2="138.57" y2="96.46"/><line x1="142.9" y1="68.32" x2="142.9" y2="92.13"/><line x1="147.23" y1="68.32" x2="147.23" y2="87.8"/><line x1="268.44" y1="68.32" x2="272.77" y2="68.32"/><line x1="272.77" y1="68.32" x2="277.1" y2="68.32"/><line x1="277.1" y1="68.32" x2="281.43" y2="68.32"/><line x1="116.93" y1="180.88" x2="116.93" y2="176.55"/><line x1="112.6" y1="139.75" x2="112.6" y2="180.88"/><line x1="115.85" y1="179.79" x2="115.85" y2="140.83"/><line x1="113.68" y1="140.83" x2="113.68" y2="179.79"/><line x1="116.93" y1="113.78" x2="116.93" y2="72.65"/><line x1="112.6" y1="72.65" x2="112.6" y2="113.78"/><line x1="115.85" y1="112.69" x2="115.85" y2="73.73"/><line x1="113.68" y1="73.73" x2="113.68" y2="112.69"/><line x1="307.4" y1="139.75" x2="307.4" y2="180.88"/><line x1="303.07" y1="139.75" x2="303.07" y2="180.88"/><line x1="306.32" y1="179.79" x2="306.32" y2="140.83"/><line x1="304.15" y1="140.83" x2="304.15" y2="179.79"/><line x1="307.4" y1="72.65" x2="307.4" y2="113.78"/><line x1="303.07" y1="72.65" x2="303.07" y2="113.78"/><line x1="306.32" y1="112.69" x2="306.32" y2="73.73"/><line x1="304.15" y1="73.73" x2="304.15" y2="112.69"/><line x1="226.77" y1="184.12" x2="226.77" y2="186.29"/><line x1="226.77" y1="187.37" x2="226.77" y2="188.45"/><line x1="226.77" y1="177.63" x2="226.77" y2="179.79"/><line x1="226.77" y1="180.88" x2="226.77" y2="183.04"/><line x1="226.77" y1="174.38" x2="226.77" y2="176.55"/><line x1="201.34" y1="66.16" x2="201.34" y2="79.15"/><line x1="201.34" y1="109.45" x2="218.66" y2="109.45"/><line x1="218.66" y1="109.45" x2="218.66" y2="87.8"/><line x1="218.66" y1="66.16" x2="201.34" y2="66.16"/><line x1="203.51" y1="102.95" x2="203.51" y2="107.28"/><line x1="216.49" y1="89.97" x2="216.49" y2="87.8"/><line x1="203.51" y1="76.98" x2="203.51" y2="79.15"/><line x1="201.34" y1="79.15" x2="203.51" y2="79.15"/><line x1="203.51" y1="79.15" x2="216.49" y2="79.15"/><line x1="216.49" y1="79.15" x2="218.66" y2="79.15"/><line x1="218.66" y1="87.8" x2="218.66" y2="79.15"/><line x1="218.66" y1="87.8" x2="216.49" y2="87.8"/><line x1="216.49" y1="87.8" x2="214.33" y2="87.8"/><line x1="203.51" y1="87.8" x2="201.34" y2="87.8"/><line x1="201.34" y1="79.15" x2="201.34" y2="87.8"/><line x1="201.34" y1="87.8" x2="201.34" y2="109.45"/><line x1="203.51" y1="87.8" x2="203.51" y2="89.97"/><line x1="218.66" y1="79.15" x2="218.66" y2="66.16"/><line x1="203.51" y1="79.15" x2="203.51" y2="87.8"/><line x1="216.49" y1="87.8" x2="216.49" y2="79.15"/><line x1="216.49" y1="79.15" x2="216.49" y2="76.98"/><line x1="199.18" y1="63.99" x2="199.18" y2="111.61"/><line x1="199.18" y1="111.61" x2="220.82" y2="111.61"/><line x1="220.82" y1="111.61" x2="220.82" y2="63.99"/><line x1="220.82" y1="63.99" x2="199.18" y2="63.99"/><line x1="216.49" y1="107.28" x2="216.49" y2="102.95"/><line x1="203.51" y1="107.28" x2="216.49" y2="107.28"/><line x1="207.84" y1="102.95" x2="212.16" y2="102.95"/><line x1="205.67" y1="87.8" x2="203.51" y2="87.8"/><line x1="205.67" y1="89.97" x2="205.67" y2="87.8"/><line x1="214.33" y1="87.8" x2="205.67" y2="87.8"/><line x1="214.33" y1="87.8" x2="214.33" y2="89.97"/><line x1="212.16" y1="89.97" x2="207.84" y2="89.97"/><line x1="212.16" y1="100.79" x2="207.84" y2="100.79"/><line x1="212.16" y1="98.63" x2="207.84" y2="98.63"/><line x1="212.16" y1="96.46" x2="207.84" y2="96.46"/><line x1="212.16" y1="94.3" x2="207.84" y2="94.3"/><line x1="212.16" y1="92.13" x2="207.84" y2="92.13"/><line x1="244.63" y1="135.42" x2="248.96" y2="135.42"/><line x1="244.63" y1="113.78" x2="244.63" y2="135.42"/><line x1="248.96" y1="113.78" x2="244.63" y2="113.78"/><line x1="248.96" y1="135.42" x2="248.96" y2="113.78"/><line x1="171.04" y1="113.78" x2="171.04" y2="135.42"/><line x1="171.04" y1="109.45" x2="171.04" y2="113.78"/><line x1="175.37" y1="135.42" x2="175.37" y2="113.78"/><line x1="171.04" y1="135.42" x2="175.37" y2="135.42"/><line x1="129.92" y1="193.86" x2="129.92" y2="189.53"/><line x1="129.92" y1="189.53" x2="129.92" y2="180.88"/><line x1="129.92" y1="180.88" x2="121.26" y2="180.88"/><line x1="121.26" y1="180.88" x2="116.93" y2="180.88"/><line x1="121.26" y1="180.88" x2="121.26" y2="176.55"/><line x1="129.92" y1="189.53" x2="125.59" y2="189.53"/><line x1="134.24" y1="193.86" x2="134.24" y2="189.53"/><line x1="134.24" y1="189.53" x2="134.24" y2="176.55"/><line x1="134.24" y1="176.55" x2="121.26" y2="176.55"/><line x1="121.26" y1="176.55" x2="116.93" y2="176.55"/><line x1="116.93" y1="176.55" x2="116.93" y2="139.75"/><line x1="121.26" y1="176.55" x2="121.26" y2="135.42"/><line x1="134.24" y1="189.53" x2="129.92" y2="189.53"/><line x1="125.59" y1="189.53" x2="125.59" y2="185.2"/><line x1="125.59" y1="185.2" x2="121.26" y2="185.2"/><line x1="151.56" y1="83.47" x2="151.56" y2="87.8"/><line x1="151.56" y1="87.8" x2="151.56" y2="92.13"/><line x1="151.56" y1="92.13" x2="151.56" y2="96.46"/><line x1="151.56" y1="96.46" x2="151.56" y2="150.57"/><line x1="151.56" y1="159.23" x2="160.22" y2="159.23"/><line x1="151.56" y1="96.46" x2="155.89" y2="96.46"/><line x1="151.56" y1="87.8" x2="155.89" y2="87.8"/><line x1="151.56" y1="92.13" x2="155.89" y2="92.13"/><line x1="190.52" y1="159.23" x2="190.52" y2="189.53"/><line x1="229.48" y1="159.23" x2="259.78" y2="159.23"/><line x1="268.44" y1="150.57" x2="268.44" y2="96.46"/><line x1="268.44" y1="96.46" x2="268.44" y2="92.13"/><line x1="268.44" y1="92.13" x2="268.44" y2="87.8"/><line x1="268.44" y1="87.8" x2="268.44" y2="83.47"/><line x1="229.48" y1="159.23" x2="229.48" y2="154.9"/><line x1="268.44" y1="96.46" x2="281.43" y2="96.46"/><line x1="268.44" y1="87.8" x2="272.77" y2="87.8"/><line x1="268.44" y1="92.13" x2="277.1" y2="92.13"/><line x1="175.37" y1="109.45" x2="171.04" y2="109.45"/><line x1="175.37" y1="113.78" x2="175.37" y2="109.45"/><line x1="175.37" y1="113.78" x2="171.04" y2="113.78"/><line x1="244.63" y1="109.45" x2="244.63" y2="113.78"/><line x1="248.96" y1="109.45" x2="244.63" y2="109.45"/><line x1="248.96" y1="113.78" x2="248.96" y2="109.45"/><line x1="205.67" y1="44.51" x2="205.67" y2="48.84"/><line x1="205.67" y1="48.84" x2="214.33" y2="48.84"/><line x1="214.33" y1="48.84" x2="214.33" y2="44.51"/><line x1="214.33" y1="44.51" x2="205.67" y2="44.51"/><line x1="155.89" y1="148.41" x2="151.56" y2="150.57"/><line x1="151.56" y1="150.57" x2="149.4" y2="154.9"/><line x1="149.4" y1="154.9" x2="149.4" y2="161.4"/><line x1="149.4" y1="161.4" x2="155.89" y2="161.4"/><line x1="155.89" y1="161.4" x2="160.22" y2="159.23"/><line x1="160.22" y1="159.23" x2="162.38" y2="154.9"/><line x1="151.56" y1="150.57" x2="151.56" y2="159.23"/><line x1="160.22" y1="159.23" x2="190.52" y2="159.23"/><line x1="259.78" y1="159.23" x2="268.44" y2="159.23"/><line x1="268.44" y1="150.57" x2="264.11" y2="148.41"/><line x1="270.6" y1="154.9" x2="268.44" y2="150.57"/><line x1="270.6" y1="161.4" x2="270.6" y2="154.9"/><line x1="264.11" y1="161.4" x2="270.6" y2="161.4"/><line x1="259.78" y1="159.23" x2="264.11" y2="161.4"/><line x1="257.62" y1="154.9" x2="259.78" y2="159.23"/><line x1="268.44" y1="159.23" x2="268.44" y2="150.57"/><line x1="261.41" y1="72.65" x2="261.41" y2="74.82"/><line x1="261.41" y1="75.9" x2="261.41" y2="78.06"/><line x1="226.77" y1="155.98" x2="226.77" y2="157.07"/><line x1="226.77" y1="158.15" x2="226.77" y2="160.31"/><line x1="226.77" y1="161.4" x2="226.77" y2="163.56"/><line x1="226.77" y1="164.64" x2="226.77" y2="166.81"/><line x1="226.77" y1="167.89" x2="226.77" y2="170.05"/><line x1="226.77" y1="171.14" x2="226.77" y2="173.3"/><line x1="207.84" y1="28.28" x2="212.16" y2="28.28"/><line x1="212.16" y1="26.66" x2="207.84" y2="26.66"/><line x1="207.84" y1="29.36" x2="212.16" y2="29.36"/><line x1="212.16" y1="27.74" x2="207.84" y2="27.74"/><line x1="242.47" y1="30.45" x2="246.8" y2="30.45"/><line x1="173.2" y1="30.45" x2="177.53" y2="30.45"/></g><g stroke="#d3b15b" stroke-width="2.4" stroke-linecap="round"><line x1="160.22" y1="94.3" x2="160.22" y2="89.97"/><line x1="116.93" y1="135.42" x2="121.26" y2="135.42"/><line x1="229.48" y1="150.57" x2="222.99" y2="150.57"/><line x1="264.11" y1="96.46" x2="264.11" y2="92.13"/><line x1="272.77" y1="63.99" x2="277.1" y2="63.99"/><line x1="116.93" y1="118.11" x2="116.93" y2="113.78"/><line x1="121.26" y1="118.11" x2="116.93" y2="118.11"/><line x1="121.26" y1="135.42" x2="121.26" y2="118.11"/><line x1="262.49" y1="78.06" x2="261.41" y2="78.06"/><line x1="190.52" y1="193.86" x2="181.86" y2="193.86"/><line x1="180.78" y1="197.11" x2="181.86" y2="197.11"/><line x1="259.78" y1="94.3" x2="259.78" y2="96.46"/><line x1="259.78" y1="150.57" x2="235.97" y2="150.57"/><line x1="190.52" y1="150.57" x2="188.36" y2="150.57"/><line x1="160.22" y1="150.57" x2="160.22" y2="100.79"/><line x1="188.36" y1="150.57" x2="186.19" y2="150.57"/><line x1="160.22" y1="96.46" x2="160.22" y2="94.3"/><line x1="186.19" y1="150.57" x2="184.03" y2="150.57"/><line x1="160.22" y1="98.63" x2="160.22" y2="96.46"/><line x1="184.03" y1="150.57" x2="160.22" y2="150.57"/><line x1="160.22" y1="100.79" x2="160.22" y2="98.63"/><line x1="231.64" y1="150.57" x2="229.48" y2="150.57"/><line x1="259.78" y1="96.46" x2="259.78" y2="98.63"/><line x1="259.78" y1="98.63" x2="259.78" y2="100.79"/><line x1="233.81" y1="150.57" x2="231.64" y2="150.57"/><line x1="259.78" y1="100.79" x2="259.78" y2="150.57"/><line x1="235.97" y1="150.57" x2="233.81" y2="150.57"/><line x1="155.89" y1="154.9" x2="162.38" y2="154.9"/><line x1="121.26" y1="63.99" x2="138.57" y2="63.99"/><line x1="151.56" y1="63.99" x2="151.56" y2="68.32"/><line x1="303.07" y1="185.2" x2="298.74" y2="185.2"/><line x1="298.74" y1="63.99" x2="298.74" y2="68.32"/><line x1="222.99" y1="31.53" x2="231.64" y2="31.53"/><line x1="262.49" y1="75.9" x2="262.49" y2="74.82"/><line x1="303.07" y1="68.32" x2="303.07" y2="72.65"/><line x1="264.11" y1="148.41" x2="264.11" y2="96.46"/><line x1="116.93" y1="68.32" x2="121.26" y2="68.32"/><line x1="116.93" y1="185.2" x2="116.93" y2="180.88"/><line x1="190.52" y1="189.53" x2="190.52" y2="193.86"/><line x1="229.48" y1="189.53" x2="225.15" y2="189.53"/><line x1="197.01" y1="150.57" x2="190.52" y2="150.57"/><line x1="231.64" y1="31.53" x2="231.64" y2="29.36"/><line x1="197.01" y1="148.41" x2="197.01" y2="150.57"/><line x1="201.34" y1="148.41" x2="197.01" y2="148.41"/><line x1="222.99" y1="150.57" x2="222.99" y2="148.41"/><line x1="222.99" y1="148.41" x2="218.66" y2="148.41"/><line x1="218.66" y1="148.41" x2="218.66" y2="150.57"/><line x1="218.66" y1="150.57" x2="216.49" y2="150.57"/><line x1="201.34" y1="150.57" x2="201.34" y2="148.41"/><line x1="216.49" y1="150.57" x2="216.49" y2="154.9"/><line x1="203.51" y1="154.9" x2="203.51" y2="150.57"/><line x1="203.51" y1="150.57" x2="201.34" y2="150.57"/><line x1="220.82" y1="154.9" x2="225.15" y2="154.9"/><line x1="262.49" y1="81.31" x2="261.41" y2="81.31"/><line x1="160.22" y1="59.67" x2="155.89" y2="59.67"/><line x1="257.62" y1="29.36" x2="257.62" y2="31.53"/><line x1="88.79" y1="31.53" x2="153.72" y2="31.53"/><line x1="155.89" y1="59.67" x2="112.6" y2="59.67"/><line x1="264.11" y1="59.67" x2="259.78" y2="59.67"/><line x1="331.21" y1="31.53" x2="331.21" y2="222"/><line x1="225.15" y1="189.53" x2="220.82" y2="189.53"/><line x1="266.28" y1="31.53" x2="331.21" y2="31.53"/><line x1="121.26" y1="68.32" x2="121.26" y2="63.99"/><line x1="298.74" y1="185.2" x2="298.74" y2="189.53"/><line x1="216.49" y1="154.9" x2="220.82" y2="154.9"/><line x1="125.59" y1="193.86" x2="125.59" y2="189.53"/><line x1="147.23" y1="63.99" x2="151.56" y2="63.99"/><line x1="199.18" y1="154.9" x2="203.51" y2="154.9"/><line x1="155.89" y1="92.13" x2="155.89" y2="96.46"/><line x1="142.9" y1="63.99" x2="147.23" y2="63.99"/><line x1="155.89" y1="96.46" x2="155.89" y2="148.41"/><line x1="138.57" y1="63.99" x2="142.9" y2="63.99"/><line x1="160.22" y1="31.53" x2="162.38" y2="31.53"/><line x1="261.41" y1="82.39" x2="262.49" y2="82.39"/><line x1="88.79" y1="222" x2="88.79" y2="31.53"/><line x1="331.21" y1="222" x2="88.79" y2="222"/><line x1="231.64" y1="29.36" x2="257.62" y2="29.36"/><line x1="261.41" y1="72.65" x2="262.49" y2="72.65"/><line x1="262.49" y1="82.39" x2="262.49" y2="81.31"/><line x1="188.36" y1="31.53" x2="197.01" y2="31.53"/><line x1="264.11" y1="31.53" x2="266.28" y2="31.53"/><line x1="262.49" y1="72.65" x2="262.49" y2="71.57"/><line x1="197.01" y1="29.36" x2="207.84" y2="29.36"/><line x1="203.51" y1="189.53" x2="199.18" y2="189.53"/><line x1="298.74" y1="189.53" x2="294.41" y2="189.53"/><line x1="262.49" y1="71.57" x2="261.41" y2="71.57"/><line x1="134.24" y1="198.19" x2="134.24" y2="197.11"/><line x1="121.26" y1="185.2" x2="116.93" y2="185.2"/><line x1="262.49" y1="79.15" x2="262.49" y2="78.06"/><line x1="261.41" y1="75.9" x2="262.49" y2="75.9"/><line x1="307.4" y1="59.67" x2="305.24" y2="59.67"/><line x1="112.6" y1="198.19" x2="134.24" y2="198.19"/><line x1="229.48" y1="154.9" x2="257.62" y2="154.9"/><line x1="220.82" y1="189.53" x2="216.49" y2="189.53"/><line x1="262.49" y1="74.82" x2="261.41" y2="74.82"/><line x1="162.38" y1="31.53" x2="162.38" y2="29.36"/><line x1="197.01" y1="31.53" x2="197.01" y2="29.36"/><line x1="181.86" y1="193.86" x2="181.86" y2="194.94"/><line x1="261.41" y1="78.06" x2="261.41" y2="79.15"/><line x1="134.24" y1="197.11" x2="135.33" y2="197.11"/><line x1="162.38" y1="85.64" x2="160.22" y2="85.64"/><line x1="155.89" y1="70.49" x2="160.22" y2="70.49"/><line x1="181.86" y1="197.11" x2="181.86" y2="198.19"/><line x1="285.76" y1="198.19" x2="307.4" y2="198.19"/><line x1="261.41" y1="71.57" x2="261.41" y2="72.65"/><line x1="160.22" y1="89.97" x2="162.38" y2="89.97"/><line x1="160.22" y1="63.99" x2="160.22" y2="59.67"/><line x1="162.38" y1="63.99" x2="160.22" y2="63.99"/><line x1="162.38" y1="68.32" x2="162.38" y2="63.99"/><line x1="134.24" y1="194.94" x2="134.24" y2="193.86"/><line x1="162.38" y1="89.97" x2="162.38" y2="85.64"/><line x1="160.22" y1="83.47" x2="155.89" y2="83.47"/><line x1="160.22" y1="70.49" x2="160.22" y2="68.32"/><line x1="298.74" y1="68.32" x2="303.07" y2="68.32"/><line x1="160.22" y1="68.32" x2="162.38" y2="68.32"/><line x1="222.99" y1="29.36" x2="222.99" y2="31.53"/><line x1="180.78" y1="194.94" x2="180.78" y2="197.11"/><line x1="135.33" y1="197.11" x2="135.33" y2="194.94"/><line x1="160.22" y1="85.64" x2="160.22" y2="83.47"/><line x1="307.4" y1="198.19" x2="307.4" y2="180.88"/><line x1="216.49" y1="189.53" x2="203.51" y2="189.53"/><line x1="162.38" y1="29.36" x2="188.36" y2="29.36"/><line x1="155.89" y1="31.53" x2="160.22" y2="31.53"/><line x1="259.78" y1="89.97" x2="259.78" y2="94.3"/><line x1="259.78" y1="68.32" x2="259.78" y2="70.49"/><line x1="135.33" y1="194.94" x2="134.24" y2="194.94"/><line x1="257.62" y1="63.99" x2="257.62" y2="68.32"/><line x1="259.78" y1="85.64" x2="257.62" y2="85.64"/><line x1="257.62" y1="85.64" x2="257.62" y2="89.97"/><line x1="257.62" y1="89.97" x2="259.78" y2="89.97"/><line x1="257.62" y1="68.32" x2="259.78" y2="68.32"/><line x1="225.15" y1="154.9" x2="229.48" y2="154.9"/><line x1="257.62" y1="31.53" x2="259.78" y2="31.53"/><line x1="125.59" y1="189.53" x2="121.26" y2="189.53"/><line x1="134.24" y1="193.86" x2="129.92" y2="193.86"/><line x1="181.86" y1="194.94" x2="180.78" y2="194.94"/><line x1="259.78" y1="70.49" x2="264.11" y2="70.49"/><line x1="264.11" y1="83.47" x2="259.78" y2="83.47"/><line x1="259.78" y1="83.47" x2="259.78" y2="85.64"/><line x1="264.11" y1="70.49" x2="264.11" y2="68.32"/><line x1="281.43" y1="63.99" x2="298.74" y2="63.99"/><line x1="264.11" y1="87.8" x2="264.11" y2="83.47"/><line x1="264.11" y1="92.13" x2="264.11" y2="87.8"/><line x1="155.89" y1="83.47" x2="155.89" y2="85.64"/><line x1="277.1" y1="63.99" x2="281.43" y2="63.99"/><line x1="305.24" y1="59.67" x2="264.11" y2="59.67"/><line x1="259.78" y1="59.67" x2="259.78" y2="63.99"/><line x1="259.78" y1="63.99" x2="257.62" y2="63.99"/><line x1="155.89" y1="85.64" x2="155.89" y2="87.8"/><line x1="155.89" y1="87.8" x2="155.89" y2="92.13"/><line x1="181.86" y1="198.19" x2="238.14" y2="198.19"/><line x1="261.41" y1="79.15" x2="262.49" y2="79.15"/><line x1="121.26" y1="189.53" x2="121.26" y2="185.2"/><line x1="188.36" y1="29.36" x2="188.36" y2="31.53"/><line x1="259.78" y1="31.53" x2="264.11" y2="31.53"/><line x1="153.72" y1="31.53" x2="155.89" y2="31.53"/><line x1="303.07" y1="135.42" x2="303.07" y2="139.75"/><line x1="298.74" y1="135.42" x2="303.07" y2="135.42"/><line x1="298.74" y1="118.11" x2="298.74" y2="135.42"/><line x1="112.6" y1="59.67" x2="112.6" y2="72.65"/><line x1="261.41" y1="81.31" x2="261.41" y2="82.39"/><line x1="303.07" y1="118.11" x2="298.74" y2="118.11"/><line x1="199.18" y1="189.53" x2="194.85" y2="189.53"/><line x1="194.85" y1="189.53" x2="190.52" y2="189.53"/><line x1="194.85" y1="154.9" x2="199.18" y2="154.9"/><line x1="190.52" y1="154.9" x2="194.85" y2="154.9"/><line x1="238.14" y1="193.86" x2="229.48" y2="193.86"/><line x1="238.14" y1="197.11" x2="239.22" y2="197.11"/><line x1="229.48" y1="193.86" x2="229.48" y2="189.53"/><line x1="294.41" y1="189.53" x2="294.41" y2="193.86"/><line x1="285.76" y1="197.11" x2="285.76" y2="198.19"/><line x1="238.14" y1="194.94" x2="238.14" y2="193.86"/><line x1="284.67" y1="197.11" x2="285.76" y2="197.11"/><line x1="238.14" y1="198.19" x2="238.14" y2="197.11"/><line x1="285.76" y1="193.86" x2="285.76" y2="194.94"/><line x1="239.22" y1="197.11" x2="239.22" y2="194.94"/><line x1="284.67" y1="194.94" x2="284.67" y2="197.11"/><line x1="285.76" y1="194.94" x2="284.67" y2="194.94"/><line x1="294.41" y1="193.86" x2="285.76" y2="193.86"/><line x1="239.22" y1="194.94" x2="238.14" y2="194.94"/><line x1="268.44" y1="63.99" x2="272.77" y2="63.99"/><line x1="264.11" y1="68.32" x2="268.44" y2="68.32"/><line x1="268.44" y1="68.32" x2="268.44" y2="63.99"/><line x1="151.56" y1="68.32" x2="155.89" y2="68.32"/><line x1="155.89" y1="68.32" x2="155.89" y2="70.49"/><line x1="112.6" y1="139.75" x2="113.68" y2="139.75"/><line x1="116.93" y1="180.88" x2="115.85" y2="180.88"/><line x1="116.93" y1="139.75" x2="116.93" y2="135.42"/><line x1="112.6" y1="180.88" x2="112.6" y2="198.19"/><line x1="113.68" y1="139.75" x2="113.68" y2="140.83"/><line x1="115.85" y1="140.83" x2="115.85" y2="139.75"/><line x1="115.85" y1="180.88" x2="115.85" y2="179.79"/><line x1="113.68" y1="179.79" x2="113.68" y2="180.88"/><line x1="115.85" y1="139.75" x2="116.93" y2="139.75"/><line x1="113.68" y1="180.88" x2="112.6" y2="180.88"/><line x1="113.68" y1="140.83" x2="115.85" y2="140.83"/><line x1="115.85" y1="179.79" x2="113.68" y2="179.79"/><line x1="112.6" y1="72.65" x2="113.68" y2="72.65"/><line x1="116.93" y1="113.78" x2="115.85" y2="113.78"/><line x1="113.68" y1="72.65" x2="113.68" y2="73.73"/><line x1="115.85" y1="73.73" x2="115.85" y2="72.65"/><line x1="115.85" y1="113.78" x2="115.85" y2="112.69"/><line x1="113.68" y1="112.69" x2="113.68" y2="113.78"/><line x1="115.85" y1="72.65" x2="116.93" y2="72.65"/><line x1="113.68" y1="113.78" x2="112.6" y2="113.78"/><line x1="113.68" y1="73.73" x2="115.85" y2="73.73"/><line x1="115.85" y1="112.69" x2="113.68" y2="112.69"/><line x1="116.93" y1="72.65" x2="116.93" y2="68.32"/><line x1="112.6" y1="113.78" x2="112.6" y2="139.75"/><line x1="303.07" y1="139.75" x2="304.15" y2="139.75"/><line x1="307.4" y1="180.88" x2="306.32" y2="180.88"/><line x1="304.15" y1="139.75" x2="304.15" y2="140.83"/><line x1="306.32" y1="140.83" x2="306.32" y2="139.75"/><line x1="306.32" y1="180.88" x2="306.32" y2="179.79"/><line x1="304.15" y1="179.79" x2="304.15" y2="180.88"/><line x1="306.32" y1="139.75" x2="307.4" y2="139.75"/><line x1="304.15" y1="180.88" x2="303.07" y2="180.88"/><line x1="304.15" y1="140.83" x2="306.32" y2="140.83"/><line x1="306.32" y1="179.79" x2="304.15" y2="179.79"/><line x1="303.07" y1="72.65" x2="304.15" y2="72.65"/><line x1="307.4" y1="113.78" x2="306.32" y2="113.78"/><line x1="304.15" y1="72.65" x2="304.15" y2="73.73"/><line x1="306.32" y1="73.73" x2="306.32" y2="72.65"/><line x1="306.32" y1="113.78" x2="306.32" y2="112.69"/><line x1="304.15" y1="112.69" x2="304.15" y2="113.78"/><line x1="306.32" y1="72.65" x2="307.4" y2="72.65"/><line x1="304.15" y1="113.78" x2="303.07" y2="113.78"/><line x1="304.15" y1="73.73" x2="306.32" y2="73.73"/><line x1="306.32" y1="112.69" x2="304.15" y2="112.69"/><line x1="303.07" y1="180.88" x2="303.07" y2="185.2"/><line x1="307.4" y1="139.75" x2="307.4" y2="113.78"/><line x1="303.07" y1="113.78" x2="303.07" y2="118.11"/><line x1="307.4" y1="72.65" x2="307.4" y2="59.67"/><line x1="227.86" y1="163.56" x2="226.77" y2="163.56"/><line x1="227.86" y1="161.4" x2="227.86" y2="160.31"/><line x1="227.86" y1="166.81" x2="226.77" y2="166.81"/><line x1="226.77" y1="167.89" x2="227.86" y2="167.89"/><line x1="226.77" y1="158.15" x2="227.86" y2="158.15"/><line x1="227.86" y1="167.89" x2="227.86" y2="166.81"/><line x1="227.86" y1="158.15" x2="227.86" y2="157.07"/><line x1="227.86" y1="157.07" x2="226.77" y2="157.07"/><line x1="227.86" y1="164.64" x2="227.86" y2="163.56"/><line x1="226.77" y1="161.4" x2="227.86" y2="161.4"/><line x1="226.77" y1="186.29" x2="226.77" y2="187.37"/><line x1="227.86" y1="160.31" x2="226.77" y2="160.31"/><line x1="226.77" y1="164.64" x2="227.86" y2="164.64"/><line x1="226.77" y1="183.04" x2="226.77" y2="184.12"/><line x1="227.86" y1="176.55" x2="226.77" y2="176.55"/><line x1="227.86" y1="174.38" x2="227.86" y2="173.3"/><line x1="227.86" y1="179.79" x2="226.77" y2="179.79"/><line x1="226.77" y1="180.88" x2="227.86" y2="180.88"/><line x1="226.77" y1="171.14" x2="227.86" y2="171.14"/><line x1="227.86" y1="180.88" x2="227.86" y2="179.79"/><line x1="227.86" y1="171.14" x2="227.86" y2="170.05"/><line x1="227.86" y1="170.05" x2="226.77" y2="170.05"/><line x1="227.86" y1="177.63" x2="227.86" y2="176.55"/><line x1="226.77" y1="174.38" x2="227.86" y2="174.38"/><line x1="226.77" y1="179.79" x2="226.77" y2="180.88"/><line x1="227.86" y1="173.3" x2="226.77" y2="173.3"/><line x1="226.77" y1="177.63" x2="227.86" y2="177.63"/><line x1="226.77" y1="176.55" x2="226.77" y2="177.63"/><line x1="227.86" y1="183.04" x2="226.77" y2="183.04"/><line x1="227.86" y1="186.29" x2="226.77" y2="186.29"/><line x1="226.77" y1="187.37" x2="227.86" y2="187.37"/><line x1="227.86" y1="187.37" x2="227.86" y2="186.29"/><line x1="227.86" y1="184.12" x2="227.86" y2="183.04"/><line x1="226.77" y1="184.12" x2="227.86" y2="184.12"/><line x1="226.77" y1="173.3" x2="226.77" y2="174.38"/><line x1="203.51" y1="68.32" x2="203.51" y2="76.98"/><line x1="216.49" y1="102.95" x2="216.49" y2="89.97"/><line x1="216.49" y1="68.32" x2="203.51" y2="68.32"/><line x1="203.51" y1="76.98" x2="216.49" y2="76.98"/><line x1="216.49" y1="89.97" x2="214.33" y2="89.97"/><line x1="203.51" y1="89.97" x2="203.51" y2="102.95"/><line x1="216.49" y1="76.98" x2="216.49" y2="68.32"/><line x1="203.51" y1="102.95" x2="207.84" y2="102.95"/><line x1="204.59" y1="104.58" x2="204.59" y2="105.66"/><line x1="204.59" y1="105.66" x2="205.67" y2="105.66"/><line x1="205.67" y1="105.66" x2="205.67" y2="104.58"/><line x1="205.67" y1="104.58" x2="204.59" y2="104.58"/><line x1="214.33" y1="104.58" x2="214.33" y2="105.66"/><line x1="214.33" y1="105.66" x2="215.41" y2="105.66"/><line x1="215.41" y1="105.66" x2="215.41" y2="104.58"/><line x1="215.41" y1="104.58" x2="214.33" y2="104.58"/><line x1="207.84" y1="102.95" x2="207.84" y2="100.79"/><line x1="212.16" y1="89.97" x2="212.16" y2="92.13"/><line x1="205.67" y1="89.97" x2="203.51" y2="89.97"/><line x1="212.16" y1="102.95" x2="216.49" y2="102.95"/><line x1="214.33" y1="89.97" x2="212.16" y2="89.97"/><line x1="207.84" y1="89.97" x2="205.67" y2="89.97"/><line x1="207.84" y1="100.79" x2="207.84" y2="98.63"/><line x1="212.16" y1="100.79" x2="212.16" y2="102.95"/><line x1="212.16" y1="98.63" x2="212.16" y2="100.79"/><line x1="207.84" y1="98.63" x2="207.84" y2="96.46"/><line x1="212.16" y1="96.46" x2="212.16" y2="98.63"/><line x1="207.84" y1="96.46" x2="207.84" y2="94.3"/><line x1="212.16" y1="94.3" x2="212.16" y2="96.46"/><line x1="207.84" y1="94.3" x2="207.84" y2="92.13"/><line x1="212.16" y1="92.13" x2="212.16" y2="94.3"/><line x1="207.84" y1="92.13" x2="207.84" y2="89.97"/><line x1="129.92" y1="193.86" x2="125.59" y2="193.86"/><line x1="155.89" y1="148.41" x2="155.89" y2="154.9"/><line x1="162.38" y1="154.9" x2="190.52" y2="154.9"/><line x1="257.62" y1="154.9" x2="264.11" y2="154.9"/><line x1="264.11" y1="154.9" x2="264.11" y2="148.41"/><line x1="261.41" y1="74.82" x2="261.41" y2="75.9"/><line x1="226.77" y1="157.07" x2="226.77" y2="158.15"/><line x1="226.77" y1="160.31" x2="226.77" y2="161.4"/><line x1="226.77" y1="163.56" x2="226.77" y2="164.64"/><line x1="226.77" y1="166.81" x2="226.77" y2="167.89"/><line x1="226.77" y1="170.05" x2="226.77" y2="171.14"/><line x1="207.84" y1="18" x2="212.16" y2="18"/><line x1="207.84" y1="26.66" x2="206.75" y2="25.58"/><line x1="207.84" y1="27.74" x2="207.84" y2="26.66"/><line x1="213.25" y1="25.58" x2="212.16" y2="26.66"/><line x1="212.16" y1="18" x2="213.25" y2="19.08"/><line x1="213.25" y1="19.08" x2="213.25" y2="25.58"/><line x1="207.84" y1="29.36" x2="207.84" y2="28.28"/><line x1="212.16" y1="27.74" x2="212.16" y2="28.28"/><line x1="212.16" y1="28.28" x2="212.16" y2="29.36"/><line x1="206.75" y1="25.58" x2="206.75" y2="19.08"/><line x1="207.84" y1="28.28" x2="207.84" y2="27.74"/><line x1="206.75" y1="19.08" x2="207.84" y2="18"/><line x1="212.16" y1="26.66" x2="212.16" y2="27.74"/><line x1="212.16" y1="29.36" x2="222.99" y2="29.36"/></g><g opacity="0.95"><circle cx="123.42" cy="187.37" r="2.2" fill="#d3b15b"/><circle cx="126.67" cy="190.62" r="2.2" fill="#d3b15b"/><circle cx="173.2" cy="111.61" r="2.2" fill="#d3b15b"/><circle cx="246.8" cy="111.61" r="2.2" fill="#d3b15b"/><circle cx="210" cy="46.68" r="2.2" fill="#d3b15b"/><circle cx="210" cy="105.12" r="2.2" fill="#d3b15b"/><circle cx="210" cy="187.37" r="2.2" fill="#d3b15b"/><circle cx="119.09" cy="70.49" r="2.2" fill="#d3b15b"/><circle cx="175.37" cy="33.15" r="2.2" fill="#d3b15b"/><circle cx="244.63" cy="33.15" r="2.2" fill="#d3b15b"/><circle cx="154.27" cy="156.53" r="2.2" fill="#d3b15b"/><circle cx="223.53" cy="172.22" r="3.2" fill="#b7493c"/><circle cx="188.9" cy="192.24" r="3.2" fill="#b7493c"/><circle cx="122.88" cy="187.91" r="3.2" fill="#b7493c"/><circle cx="118.55" cy="137.05" r="3.2" fill="#b7493c"/><circle cx="122.88" cy="65.62" r="3.2" fill="#b7493c"/><circle cx="164.01" cy="33.15" r="3.2" fill="#b7493c"/><circle cx="255.99" cy="33.15" r="3.2" fill="#b7493c"/><circle cx="259.78" cy="76.98" r="3.2" fill="#b7493c"/><circle cx="258.16" cy="148.95" r="3.2" fill="#b7493c"/><circle cx="161.84" cy="148.95" r="3.2" fill="#b7493c"/><circle cx="207.84" cy="38.02" r="3.2" fill="#b7493c"/><circle cx="212.16" cy="38.02" r="3.2" fill="#b7493c"/><circle cx="203.51" cy="38.02" r="3.2" fill="#b7493c"/><circle cx="216.49" cy="38.02" r="3.2" fill="#b7493c"/><circle cx="172.12" cy="136.5" r="2.2" fill="#d3b15b"/><circle cx="174.83" cy="136.5" r="2.2" fill="#d3b15b"/><circle cx="169.96" cy="131.63" r="2.2" fill="#d3b15b"/><circle cx="169.96" cy="134.34" r="2.2" fill="#d3b15b"/><circle cx="245.17" cy="136.5" r="2.2" fill="#d3b15b"/><circle cx="247.88" cy="136.5" r="2.2" fill="#d3b15b"/><circle cx="250.04" cy="134.34" r="2.2" fill="#d3b15b"/><circle cx="250.04" cy="131.63" r="2.2" fill="#d3b15b"/><circle cx="250.58" cy="115.4" r="2.2" fill="#d3b15b"/><circle cx="246.8" cy="107.82" r="2.2" fill="#d3b15b"/><circle cx="243.01" cy="115.4" r="2.2" fill="#d3b15b"/><circle cx="173.2" cy="107.82" r="2.2" fill="#d3b15b"/><circle cx="213.25" cy="80.77" r="2.2" fill="#d3b15b"/><circle cx="206.75" cy="80.77" r="2.2" fill="#d3b15b"/><circle cx="206.75" cy="64.54" r="2.2" fill="#d3b15b"/><circle cx="213.25" cy="64.54" r="2.2" fill="#d3b15b"/><circle cx="150.48" cy="65.08" r="2.2" fill="#d3b15b"/><circle cx="150.48" cy="67.24" r="2.2" fill="#d3b15b"/><circle cx="214.33" cy="187.91" r="2.2" fill="#d3b15b"/><circle cx="205.67" cy="187.91" r="2.2" fill="#d3b15b"/><circle cx="118.01" cy="183.58" r="2.2" fill="#d3b15b"/><circle cx="120.18" cy="184.12" r="2.2" fill="#d3b15b"/><circle cx="126.94" cy="192.78" r="2.2" fill="#d3b15b"/></g></svg>