<svg xmlns="http://www.w3.org/2000/svg" viewBox="0 0 420 240" role="img"><rect width="100%" height="100%" fill="#070706"/><g stroke="#5e5a4f" stroke-width="1.6" stroke-linecap="round"><line x1="196.25" y1="97.83" x2="189.16" y2="97.83"/><line x1="160.77" y1="104.92" x2="141.26" y2="104.92"/><line x1="160.77" y1="85.41" x2="160.77" y2="96.05"/><line x1="167.87" y1="96.05" x2="167.87" y2="85.41"/><line x1="203.35" y1="39.29" x2="203.35" y2="28.64"/><line x1="203.35" y1="67.67" x2="203.35" y2="57.03"/><line x1="183.83" y1="69.44" x2="194.48" y2="69.44"/><line x1="139.49" y1="101.37" x2="139.49" y2="87.18"/><line x1="135.94" y1="87.18" x2="135.94" y2="101.37"/><line x1="228.18" y1="72.99" x2="228.18" y2="58.8"/><line x1="224.63" y1="58.8" x2="224.63" y2="72.99"/><line x1="139.49" y1="119.11" x2="139.49" y2="112.02"/><line x1="199.8" y1="101.37" x2="199.8" y2="87.18"/><line x1="189.16" y1="97.83" x2="185.61" y2="97.83"/><line x1="189.16" y1="90.73" x2="189.16" y2="97.83"/><line x1="196.25" y1="90.73" x2="189.16" y2="90.73"/><line x1="196.25" y1="90.73" x2="196.25" y2="97.83"/><line x1="185.61" y1="87.18" x2="185.61" y2="97.83"/><line x1="196.25" y1="87.18" x2="185.61" y2="87.18"/><line x1="196.25" y1="87.18" x2="196.25" y2="90.73"/><line x1="185.61" y1="101.37" x2="199.8" y2="101.37"/><line x1="141.26" y1="83.63" x2="159" y2="83.63"/><line x1="160.77" y1="97.83" x2="160.77" y2="104.92"/><line x1="205.12" y1="55.25" x2="222.86" y2="55.25"/><line x1="222.86" y1="76.54" x2="205.12" y2="76.54"/><line x1="135.94" y1="122.66" x2="228.18" y2="122.66"/><line x1="228.18" y1="122.66" x2="228.18" y2="83.63"/><line x1="135.94" y1="112.02" x2="135.94" y2="122.66"/><line x1="224.63" y1="83.63" x2="224.63" y2="112.02"/><line x1="217.54" y1="119.11" x2="139.49" y2="119.11"/><line x1="217.54" y1="80.09" x2="217.54" y2="112.02"/><line x1="166.1" y1="101.37" x2="183.83" y2="101.37"/><line x1="288.5" y1="151.04" x2="274.3" y2="151.04"/><line x1="182.06" y1="158.14" x2="182.06" y2="172.33"/><line x1="182.06" y1="179.43" x2="182.06" y2="193.62"/><line x1="189.16" y1="193.62" x2="189.16" y2="179.43"/><line x1="189.16" y1="172.33" x2="189.16" y2="158.14"/><line x1="189.16" y1="158.14" x2="203.35" y2="158.14"/><line x1="203.35" y1="151.04" x2="189.16" y2="151.04"/><line x1="210.44" y1="158.14" x2="224.63" y2="158.14"/><line x1="224.63" y1="151.04" x2="210.44" y2="151.04"/><line x1="274.3" y1="158.14" x2="288.5" y2="158.14"/><line x1="267.21" y1="151.04" x2="253.02" y2="151.04"/><line x1="253.02" y1="158.14" x2="267.21" y2="158.14"/><line x1="245.92" y1="151.04" x2="231.73" y2="151.04"/><line x1="288.5" y1="186.52" x2="288.5" y2="200.71"/><line x1="299.14" y1="200.71" x2="299.14" y2="186.52"/><line x1="249.47" y1="193.62" x2="249.47" y2="207.81"/><line x1="260.11" y1="207.81" x2="260.11" y2="193.62"/><line x1="210.44" y1="186.52" x2="210.44" y2="197.17"/><line x1="206.9" y1="186.52" x2="206.9" y2="197.17"/><line x1="213.99" y1="197.17" x2="213.99" y2="186.52"/><line x1="217.54" y1="200.71" x2="217.54" y2="182.97"/><line x1="213.99" y1="200.71" x2="217.54" y2="200.71"/><line x1="284.95" y1="175.88" x2="274.3" y2="175.88"/><line x1="284.95" y1="179.43" x2="274.3" y2="179.43"/><line x1="274.3" y1="182.97" x2="284.95" y2="182.97"/><line x1="270.76" y1="182.97" x2="270.76" y2="186.52"/><line x1="270.76" y1="186.52" x2="288.5" y2="186.52"/><line x1="295.59" y1="126.21" x2="295.59" y2="147.5"/><line x1="299.14" y1="129.76" x2="299.14" y2="143.95"/><line x1="309.78" y1="168.78" x2="323.97" y2="168.78"/><line x1="182.06" y1="204.26" x2="182.06" y2="214.9"/><line x1="213.99" y1="214.9" x2="213.99" y2="204.26"/><line x1="185.61" y1="214.9" x2="185.61" y2="204.26"/><line x1="150.13" y1="207.81" x2="135.94" y2="207.81"/><line x1="157.23" y1="222" x2="157.23" y2="214.9"/><line x1="143.03" y1="214.9" x2="135.94" y2="214.9"/><line x1="135.94" y1="214.9" x2="135.94" y2="222"/><line x1="143.03" y1="222" x2="143.03" y2="214.9"/><line x1="114.65" y1="175.88" x2="128.84" y2="175.88"/><line x1="128.84" y1="172.33" x2="114.65" y2="172.33"/><line x1="132.39" y1="186.52" x2="132.39" y2="200.71"/><line x1="135.94" y1="200.71" x2="135.94" y2="186.52"/><line x1="104.01" y1="197.17" x2="104.01" y2="182.97"/><line x1="106.67" y1="181.2" x2="106.67" y2="177.65"/><line x1="106.67" y1="177.65" x2="105.78" y2="177.65"/><line x1="105.78" y1="177.65" x2="105.78" y2="181.2"/><line x1="105.78" y1="181.2" x2="106.67" y2="181.2"/><line x1="130.62" y1="201.6" x2="127.07" y2="201.6"/><line x1="127.07" y1="201.6" x2="127.07" y2="202.49"/><line x1="127.07" y1="202.49" x2="130.62" y2="202.49"/><line x1="130.62" y1="202.49" x2="130.62" y2="201.6"/><line x1="104.01" y1="202.49" x2="104.01" y2="198.94"/><line x1="235.28" y1="168.78" x2="235.28" y2="175.88"/><line x1="242.37" y1="168.78" x2="235.28" y2="168.78"/><line x1="242.37" y1="175.88" x2="242.37" y2="168.78"/><line x1="302.69" y1="143.95" x2="302.69" y2="129.76"/><line x1="249.47" y1="147.5" x2="245.92" y2="147.5"/><line x1="245.92" y1="147.5" x2="245.92" y2="151.04"/><line x1="249.47" y1="151.04" x2="249.47" y2="147.5"/><line x1="245.92" y1="58.8" x2="245.92" y2="76.54"/><line x1="245.92" y1="76.54" x2="228.18" y2="76.54"/><line x1="249.47" y1="80.09" x2="249.47" y2="58.8"/><line x1="228.18" y1="80.09" x2="249.47" y2="80.09"/><line x1="253.02" y1="55.25" x2="267.21" y2="55.25"/><line x1="253.02" y1="58.8" x2="267.21" y2="58.8"/><line x1="267.21" y1="48.16" x2="253.02" y2="48.16"/><line x1="205.12" y1="19.77" x2="272.53" y2="19.77"/><line x1="221.09" y1="30.42" x2="242.37" y2="30.42"/><line x1="242.37" y1="37.51" x2="221.09" y2="37.51"/><line x1="295.59" y1="83.63" x2="295.59" y2="112.02"/><line x1="101.35" y1="182.97" x2="101.35" y2="197.17"/><line x1="99.57" y1="197.17" x2="99.57" y2="182.97"/><line x1="102.23" y1="197.17" x2="102.23" y2="182.97"/></g><g stroke="#d3b15b" stroke-width="2.4" stroke-linecap="round"><line x1="167.87" y1="69.44" x2="183.83" y2="69.44"/><line x1="196.25" y1="69.44" x2="196.25" y2="87.18"/><line x1="167.87" y1="97.83" x2="167.87" y2="96.05"/><line x1="139.49" y1="83.63" x2="141.26" y2="83.63"/><line x1="160.77" y1="83.63" x2="160.77" y2="85.41"/><line x1="139.49" y1="104.92" x2="139.49" y2="101.37"/><line x1="203.35" y1="55.25" x2="205.12" y2="55.25"/><line x1="224.63" y1="55.25" x2="224.63" y2="58.8"/><line x1="224.63" y1="76.54" x2="222.86" y2="76.54"/><line x1="203.35" y1="76.54" x2="203.35" y2="67.67"/><line x1="167.87" y1="85.41" x2="167.87" y2="69.44"/><line x1="160.77" y1="85.41" x2="167.87" y2="85.41"/><line x1="167.87" y1="96.05" x2="160.77" y2="96.05"/><line x1="160.77" y1="96.05" x2="160.77" y2="97.83"/><line x1="203.35" y1="57.03" x2="203.35" y2="55.25"/><line x1="183.83" y1="69.44" x2="183.83" y2="57.03"/><line x1="203.35" y1="67.67" x2="194.48" y2="67.67"/><line x1="194.48" y1="69.44" x2="196.25" y2="69.44"/><line x1="194.48" y1="67.67" x2="194.48" y2="69.44"/><line x1="139.49" y1="87.18" x2="139.49" y2="83.63"/><line x1="135.94" y1="87.18" x2="139.49" y2="87.18"/><line x1="139.49" y1="101.37" x2="135.94" y2="101.37"/><line x1="224.63" y1="72.99" x2="224.63" y2="76.54"/><line x1="228.18" y1="72.99" x2="224.63" y2="72.99"/><line x1="224.63" y1="58.8" x2="228.18" y2="58.8"/><line x1="199.8" y1="80.09" x2="217.54" y2="80.09"/><line x1="224.63" y1="80.09" x2="224.63" y2="83.63"/><line x1="217.54" y1="119.11" x2="224.63" y2="119.11"/><line x1="139.49" y1="108.47" x2="164.32" y2="108.47"/><line x1="164.32" y1="108.47" x2="164.32" y2="101.37"/><line x1="164.32" y1="101.37" x2="166.1" y2="101.37"/><line x1="185.61" y1="97.83" x2="167.87" y2="97.83"/><line x1="199.8" y1="87.18" x2="199.8" y2="80.09"/><line x1="196.25" y1="87.18" x2="199.8" y2="87.18"/><line x1="185.61" y1="101.37" x2="185.61" y2="97.83"/><line x1="141.26" y1="81.86" x2="159" y2="81.86"/><line x1="159" y1="83.63" x2="160.77" y2="83.63"/><line x1="159" y1="81.86" x2="159" y2="83.63"/><line x1="141.26" y1="83.63" x2="141.26" y2="81.86"/><line x1="162.55" y1="97.83" x2="162.55" y2="106.7"/><line x1="162.55" y1="106.7" x2="141.26" y2="106.7"/><line x1="141.26" y1="104.92" x2="139.49" y2="104.92"/><line x1="141.26" y1="106.7" x2="141.26" y2="104.92"/><line x1="160.77" y1="97.83" x2="162.55" y2="97.83"/><line x1="205.12" y1="53.48" x2="222.86" y2="53.48"/><line x1="222.86" y1="55.25" x2="224.63" y2="55.25"/><line x1="222.86" y1="53.48" x2="222.86" y2="55.25"/><line x1="205.12" y1="55.25" x2="205.12" y2="53.48"/><line x1="222.86" y1="78.31" x2="205.12" y2="78.31"/><line x1="222.86" y1="76.54" x2="222.86" y2="78.31"/><line x1="205.12" y1="76.54" x2="203.35" y2="76.54"/><line x1="205.12" y1="78.31" x2="205.12" y2="76.54"/><line x1="135.94" y1="83.63" x2="135.94" y2="87.18"/><line x1="114.65" y1="222" x2="114.65" y2="214.9"/><line x1="135.94" y1="101.37" x2="135.94" y2="112.02"/><line x1="107.56" y1="90.73" x2="114.65" y2="83.63"/><line x1="228.18" y1="58.8" x2="228.18" y2="55.25"/><line x1="228.18" y1="55.25" x2="245.92" y2="55.25"/><line x1="295.59" y1="62.35" x2="295.59" y2="83.63"/><line x1="295.59" y1="175.88" x2="284.95" y2="175.88"/><line x1="139.49" y1="112.02" x2="139.49" y2="108.47"/><line x1="135.94" y1="112.02" x2="139.49" y2="112.02"/><line x1="224.63" y1="83.63" x2="228.18" y2="83.63"/><line x1="228.18" y1="83.63" x2="228.18" y2="80.09"/><line x1="217.54" y1="112.02" x2="217.54" y2="119.11"/><line x1="224.63" y1="112.02" x2="217.54" y2="112.02"/><line x1="224.63" y1="119.11" x2="224.63" y2="112.02"/><line x1="217.54" y1="80.09" x2="224.63" y2="80.09"/><line x1="166.1" y1="99.6" x2="183.83" y2="99.6"/><line x1="183.83" y1="101.37" x2="185.61" y2="101.37"/><line x1="183.83" y1="99.6" x2="183.83" y2="101.37"/><line x1="166.1" y1="101.37" x2="166.1" y2="99.6"/><line x1="295.59" y1="151.04" x2="288.5" y2="151.04"/><line x1="182.06" y1="151.04" x2="182.06" y2="158.14"/><line x1="178.51" y1="222" x2="157.23" y2="222"/><line x1="189.16" y1="151.04" x2="182.06" y2="151.04"/><line x1="189.16" y1="158.14" x2="189.16" y2="151.04"/><line x1="182.06" y1="158.14" x2="189.16" y2="158.14"/><line x1="182.06" y1="193.62" x2="182.06" y2="204.26"/><line x1="189.16" y1="193.62" x2="182.06" y2="193.62"/><line x1="189.16" y1="200.71" x2="189.16" y2="193.62"/><line x1="288.5" y1="151.04" x2="288.5" y2="158.14"/><line x1="295.59" y1="158.14" x2="295.59" y2="175.88"/><line x1="288.5" y1="158.14" x2="295.59" y2="158.14"/><line x1="206.9" y1="200.71" x2="189.16" y2="200.71"/><line x1="182.06" y1="172.33" x2="182.06" y2="179.43"/><line x1="206.9" y1="175.88" x2="206.9" y2="186.52"/><line x1="189.16" y1="172.33" x2="182.06" y2="172.33"/><line x1="189.16" y1="179.43" x2="189.16" y2="172.33"/><line x1="182.06" y1="179.43" x2="189.16" y2="179.43"/><line x1="203.35" y1="151.04" x2="203.35" y2="158.14"/><line x1="203.35" y1="158.14" x2="210.44" y2="158.14"/><line x1="210.44" y1="151.04" x2="203.35" y2="151.04"/><line x1="210.44" y1="158.14" x2="210.44" y2="151.04"/><line x1="224.63" y1="151.04" x2="224.63" y2="158.14"/><line x1="231.73" y1="151.04" x2="224.63" y2="151.04"/><line x1="231.73" y1="158.14" x2="231.73" y2="151.04"/><line x1="224.63" y1="158.14" x2="231.73" y2="158.14"/><line x1="274.3" y1="158.14" x2="274.3" y2="151.04"/><line x1="274.3" y1="151.04" x2="267.21" y2="151.04"/><line x1="267.21" y1="158.14" x2="274.3" y2="158.14"/><line x1="267.21" y1="151.04" x2="267.21" y2="158.14"/><line x1="253.02" y1="158.14" x2="253.02" y2="151.04"/><line x1="253.02" y1="151.04" x2="249.47" y2="151.04"/><line x1="245.92" y1="158.14" x2="253.02" y2="158.14"/><line x1="245.92" y1="151.04" x2="245.92" y2="158.14"/><line x1="213.99" y1="218.45" x2="213.99" y2="214.9"/><line x1="249.47" y1="218.45" x2="213.99" y2="218.45"/><line x1="249.47" y1="182.97" x2="249.47" y2="193.62"/><line x1="213.99" y1="182.97" x2="217.54" y2="182.97"/><line x1="228.18" y1="197.17" x2="228.18" y2="204.26"/><line x1="228.18" y1="204.26" x2="235.28" y2="204.26"/><line x1="235.28" y1="204.26" x2="235.28" y2="197.17"/><line x1="235.28" y1="197.17" x2="228.18" y2="197.17"/><line x1="260.11" y1="182.97" x2="270.76" y2="182.97"/><line x1="288.5" y1="182.97" x2="288.5" y2="186.52"/><line x1="288.5" y1="211.36" x2="260.11" y2="211.36"/><line x1="260.11" y1="211.36" x2="260.11" y2="207.81"/><line x1="299.14" y1="204.26" x2="299.14" y2="200.71"/><line x1="334.62" y1="204.26" x2="299.14" y2="204.26"/><line x1="334.62" y1="168.78" x2="334.62" y2="204.26"/><line x1="299.14" y1="168.78" x2="309.78" y2="168.78"/><line x1="313.33" y1="182.97" x2="313.33" y2="190.07"/><line x1="313.33" y1="190.07" x2="320.43" y2="190.07"/><line x1="320.43" y1="190.07" x2="320.43" y2="182.97"/><line x1="320.43" y1="182.97" x2="313.33" y2="182.97"/><line x1="299.14" y1="186.52" x2="299.14" y2="168.78"/><line x1="288.5" y1="186.52" x2="299.14" y2="186.52"/><line x1="299.14" y1="200.71" x2="288.5" y2="200.71"/><line x1="288.5" y1="200.71" x2="288.5" y2="211.36"/><line x1="260.11" y1="193.62" x2="260.11" y2="182.97"/><line x1="249.47" y1="193.62" x2="260.11" y2="193.62"/><line x1="260.11" y1="207.81" x2="249.47" y2="207.81"/><line x1="249.47" y1="207.81" x2="249.47" y2="218.45"/><line x1="206.9" y1="197.17" x2="206.9" y2="200.71"/><line x1="210.44" y1="197.17" x2="206.9" y2="197.17"/><line x1="206.9" y1="186.52" x2="210.44" y2="186.52"/><line x1="213.99" y1="186.52" x2="213.99" y2="182.97"/><line x1="210.44" y1="186.52" x2="213.99" y2="186.52"/><line x1="213.99" y1="197.17" x2="210.44" y2="197.17"/><line x1="217.54" y1="182.97" x2="249.47" y2="182.97"/><line x1="213.99" y1="200.71" x2="213.99" y2="197.17"/><line x1="284.95" y1="175.88" x2="284.95" y2="179.43"/><line x1="274.3" y1="175.88" x2="242.37" y2="175.88"/><line x1="274.3" y1="179.43" x2="274.3" y2="175.88"/><line x1="284.95" y1="179.43" x2="284.95" y2="182.97"/><line x1="274.3" y1="182.97" x2="274.3" y2="179.43"/><line x1="284.95" y1="182.97" x2="288.5" y2="182.97"/><line x1="270.76" y1="182.97" x2="274.3" y2="182.97"/><line x1="299.14" y1="126.21" x2="299.14" y2="129.76"/><line x1="295.59" y1="147.5" x2="295.59" y2="151.04"/><line x1="299.14" y1="147.5" x2="295.59" y2="147.5"/><line x1="295.59" y1="126.21" x2="299.14" y2="126.21"/><line x1="299.14" y1="129.76" x2="302.69" y2="129.76"/><line x1="323.97" y1="168.78" x2="334.62" y2="168.78"/><line x1="323.97" y1="129.76" x2="323.97" y2="168.78"/><line x1="309.78" y1="143.95" x2="302.69" y2="143.95"/><line x1="309.78" y1="168.78" x2="309.78" y2="143.95"/><line x1="299.14" y1="143.95" x2="299.14" y2="147.5"/><line x1="213.99" y1="204.26" x2="213.99" y2="200.71"/><line x1="182.06" y1="204.26" x2="185.61" y2="204.26"/><line x1="185.61" y1="204.26" x2="213.99" y2="204.26"/><line x1="182.06" y1="214.9" x2="182.06" y2="218.45"/><line x1="213.99" y1="214.9" x2="185.61" y2="214.9"/><line x1="185.61" y1="214.9" x2="182.06" y2="214.9"/><line x1="114.65" y1="83.63" x2="135.94" y2="83.63"/><line x1="107.56" y1="214.9" x2="107.56" y2="207.81"/><line x1="288.5" y1="55.25" x2="295.59" y2="62.35"/><line x1="135.94" y1="207.81" x2="135.94" y2="200.71"/><line x1="85.38" y1="182.97" x2="99.57" y2="182.97"/><line x1="135.94" y1="172.33" x2="128.84" y2="172.33"/><line x1="111.1" y1="175.88" x2="114.65" y2="175.88"/><line x1="107.56" y1="207.81" x2="135.94" y2="207.81"/><line x1="157.23" y1="207.81" x2="150.13" y2="207.81"/><line x1="150.13" y1="214.9" x2="157.23" y2="214.9"/><line x1="157.23" y1="214.9" x2="157.23" y2="207.81"/><line x1="157.23" y1="222" x2="143.03" y2="222"/><line x1="150.13" y1="207.81" x2="150.13" y2="214.9"/><line x1="114.65" y1="214.9" x2="107.56" y2="214.9"/><line x1="135.94" y1="222" x2="114.65" y2="222"/><line x1="143.03" y1="222" x2="135.94" y2="222"/><line x1="128.84" y1="172.33" x2="128.84" y2="175.88"/><line x1="114.65" y1="172.33" x2="107.56" y2="172.33"/><line x1="114.65" y1="175.88" x2="114.65" y2="172.33"/><line x1="135.94" y1="200.71" x2="132.39" y2="200.71"/><line x1="135.94" y1="186.52" x2="135.94" y2="172.33"/><line x1="132.39" y1="186.52" x2="135.94" y2="186.52"/><line x1="104.01" y1="175.88" x2="111.1" y2="175.88"/><line x1="132.39" y1="204.26" x2="104.01" y2="204.26"/><line x1="128.84" y1="175.88" x2="132.39" y2="175.88"/><line x1="132.39" y1="175.88" x2="132.39" y2="186.52"/><line x1="104.01" y1="204.26" x2="104.01" y2="202.49"/><line x1="132.39" y1="200.71" x2="132.39" y2="204.26"/><line x1="104.01" y1="182.97" x2="104.01" y2="175.88"/><line x1="102.23" y1="182.97" x2="104.01" y2="182.97"/><line x1="85.38" y1="197.17" x2="85.38" y2="193.62"/><line x1="104.01" y1="197.17" x2="102.23" y2="197.17"/><line x1="103.12" y1="202.49" x2="103.12" y2="198.94"/><line x1="104.01" y1="202.49" x2="103.12" y2="202.49"/><line x1="104.01" y1="198.94" x2="104.01" y2="197.17"/><line x1="103.12" y1="198.94" x2="104.01" y2="198.94"/><line x1="182.06" y1="218.45" x2="178.51" y2="222"/><line x1="235.28" y1="175.88" x2="206.9" y2="175.88"/><line x1="242.37" y1="175.88" x2="235.28" y2="175.88"/><line x1="302.69" y1="143.95" x2="299.14" y2="143.95"/><line x1="302.69" y1="129.76" x2="323.97" y2="129.76"/><line x1="249.47" y1="151.04" x2="245.92" y2="151.04"/><line x1="245.92" y1="58.8" x2="249.47" y2="58.8"/><line x1="274.3" y1="55.25" x2="288.5" y2="55.25"/><line x1="274.3" y1="58.8" x2="274.3" y2="55.25"/><line x1="245.92" y1="55.25" x2="245.92" y2="58.8"/><line x1="228.18" y1="76.54" x2="228.18" y2="72.99"/><line x1="228.18" y1="80.09" x2="228.18" y2="76.54"/><line x1="249.47" y1="58.8" x2="253.02" y2="58.8"/><line x1="267.21" y1="58.8" x2="274.3" y2="58.8"/><line x1="267.21" y1="55.25" x2="267.21" y2="58.8"/><line x1="253.02" y1="58.8" x2="253.02" y2="55.25"/><line x1="203.35" y1="19.77" x2="205.12" y2="19.77"/><line x1="274.3" y1="19.77" x2="274.3" y2="48.16"/><line x1="274.3" y1="48.16" x2="267.21" y2="48.16"/><line x1="203.35" y1="48.16" x2="203.35" y2="39.29"/><line x1="253.02" y1="48.16" x2="203.35" y2="48.16"/><line x1="253.02" y1="55.25" x2="253.02" y2="48.16"/><line x1="267.21" y1="48.16" x2="267.21" y2="55.25"/><line x1="203.35" y1="28.64" x2="203.35" y2="19.77"/><line x1="183.83" y1="28.64" x2="203.35" y2="28.64"/><line x1="183.83" y1="57.03" x2="183.83" y2="28.64"/><line x1="194.48" y1="57.03" x2="203.35" y2="57.03"/><line x1="203.35" y1="39.29" x2="194.48" y2="39.29"/><line x1="194.48" y1="39.29" x2="194.48" y2="57.03"/><line x1="213.99" y1="30.42" x2="213.99" y2="37.51"/><line x1="213.99" y1="37.51" x2="221.09" y2="37.51"/><line x1="221.09" y1="37.51" x2="221.09" y2="30.42"/><line x1="221.09" y1="30.42" x2="213.99" y2="30.42"/><line x1="242.37" y1="30.42" x2="242.37" y2="37.51"/><line x1="242.37" y1="37.51" x2="249.47" y2="37.51"/><line x1="249.47" y1="37.51" x2="249.47" y2="30.42"/><line x1="249.47" y1="30.42" x2="242.37" y2="30.42"/><line x1="272.53" y1="19.77" x2="274.3" y2="19.77"/><line x1="272.53" y1="18" x2="272.53" y2="19.77"/><line x1="205.12" y1="18" x2="272.53" y2="18"/><line x1="205.12" y1="19.77" x2="205.12" y2="18"/><line x1="297.37" y1="83.63" x2="297.37" y2="112.02"/><line x1="295.59" y1="112.02" x2="295.59" y2="126.21"/><line x1="297.37" y1="112.02" x2="295.59" y2="112.02"/><line x1="295.59" y1="83.63" x2="297.37" y2="83.63"/><line x1="101.35" y1="197.17" x2="99.57" y2="197.17"/><line x1="99.57" y1="197.17" x2="85.38" y2="197.17"/><line x1="99.57" y1="182.97" x2="101.35" y2="182.97"/><line x1="102.23" y1="197.17" x2="101.35" y2="197.17"/><line x1="107.56" y1="172.33" x2="107.56" y2="90.73"/><line x1="85.38" y1="186.52" x2="85.38" y2="182.97"/><line x1="85.38" y1="193.62" x2="85.38" y2="186.52"/><line x1="101.35" y1="182.97" x2="102.23" y2="182.97"/></g><g opacity="0.95"><circle cx="242.37" cy="58.8" r="2.2" fill="#d3b15b"/><circle cx="166.98" cy="104.03" r="3.2" fill="#b7493c"/><circle cx="158.11" cy="102.26" r="3.2" fill="#b7493c"/><circle cx="170.53" cy="72.1" r="3.2" fill="#b7493c"/><circle cx="206.01" cy="73.88" r="3.2" fill="#b7493c"/><circle cx="238.83" cy="172.33" r="2.2" fill="#d3b15b"/><circle cx="191.82" cy="160.8" r="3.2" fill="#b7493c"/><circle cx="292.93" cy="167.01" r="3.2" fill="#b7493c"/><circle cx="246.81" cy="215.79" r="3.2" fill="#b7493c"/><circle cx="331.96" cy="201.6" r="3.2" fill="#b7493c"/><circle cx="274.3" cy="208.7" r="3.2" fill="#b7493c"/><circle cx="146.58" cy="85.41" r="2.2" fill="#d3b15b"/><circle cx="153.68" cy="85.41" r="2.2" fill="#d3b15b"/><circle cx="210.44" cy="57.03" r="2.2" fill="#d3b15b"/><circle cx="217.54" cy="57.03" r="2.2" fill="#d3b15b"/><circle cx="221.97" cy="82.75" r="2.2" fill="#d3b15b"/><circle cx="216.65" cy="82.75" r="2.2" fill="#d3b15b"/><circle cx="191.82" cy="198.05" r="2.2" fill="#d3b15b"/><circle cx="198.03" cy="198.05" r="2.2" fill="#d3b15b"/><circle cx="246.81" cy="185.63" r="2.2" fill="#d3b15b"/><circle cx="239.71" cy="185.63" r="2.2" fill="#d3b15b"/><circle cx="301.8" cy="171.44" r="2.2" fill="#d3b15b"/><circle cx="301.8" cy="177.65" r="2.2" fill="#d3b15b"/><circle cx="213.99" cy="115.57" r="2.2" fill="#d3b15b"/><circle cx="176.74" cy="95.17" r="2.2" fill="#d3b15b"/><circle cx="193.59" cy="78.31" r="2.2" fill="#d3b15b"/><circle cx="260.11" cy="157.25" r="2.2" fill="#d3b15b"/><circle cx="281.4" cy="157.25" r="2.2" fill="#d3b15b"/><circle cx="217.54" cy="157.25" r="2.2" fill="#d3b15b"/><circle cx="196.25" cy="157.25" r="2.2" fill="#d3b15b"/><circle cx="188.27" cy="165.23" r="2.2" fill="#d3b15b"/><circle cx="188.27" cy="186.52" r="2.2" fill="#d3b15b"/><circle cx="262.77" cy="185.63" r="2.2" fill="#d3b15b"/><circle cx="262.77" cy="188.3" r="2.2" fill="#d3b15b"/><circle cx="262.77" cy="190.96" r="2.2" fill="#d3b15b"/><circle cx="331.96" cy="171.44" r="2.2" fill="#d3b15b"/><circle cx="216.65" cy="215.79" r="2.2" fill="#d3b15b"/><circle cx="183.83" cy="209.58" r="2.2" fill="#d3b15b"/><circle cx="300.91" cy="136.85" r="2.2" fill="#d3b15b"/><circle cx="260.11" cy="57.03" r="2.2" fill="#d3b15b"/><circle cx="137.71" cy="94.28" r="2.2" fill="#d3b15b"/><circle cx="226.41" cy="120.89" r="2.2" fill="#d3b15b"/><circle cx="247.7" cy="149.27" r="2.2" fill="#d3b15b"/><circle cx="118.2" cy="190.07" r="2.2" fill="#d3b15b"/><circle cx="254.79" cy="200.71" r="2.2" fill="#d3b15b"/><circle cx="293.82" cy="193.62" r="2.2" fill="#d3b15b"/><circle cx="321.31" cy="132.42" r="2.2" fill="#d3b15b"/><circle cx="137.71" cy="113.79" r="2.2" fill="#d3b15b"/><circle cx="271.64" cy="22.43" r="3.2" fill="#b7493c"/><circle cx="192.7" cy="94.28" r="2.2" fill="#d3b15b"/><circle cx="231.73" cy="33.97" r="2.2" fill="#d3b15b"/><circle cx="186.5" cy="31.3" r="2.2" fill="#d3b15b"/><circle cx="245.92" cy="22.43" r="2.2" fill="#d3b15b"/><circle cx="217.54" cy="22.43" r="2.2" fill="#d3b15b"/><circle cx="263.66" cy="108.47" r="3.2" fill="#b7493c"/><circle cx="263.66" cy="115.57" r="3.2" fill="#b7493c"/><circle cx="153.68" cy="147.5" r="3.2" fill="#b7493c"/><circle cx="153.68" cy="154.59" r="3.2" fill="#b7493c"/></g></svg>