<svg xmlns="http://www.w3.org/2000/svg" viewBox="0 0 420 240" role="img"><rect width="100%" height="100%" fill="#070706"/><g stroke="#5e5a4f" stroke-width="1.6" stroke-linecap="round"><line x1="243.03" y1="110.73" x2="243.03" y2="184.91"/><line x1="187.4" y1="110.73" x2="215.22" y2="110.73"/><line x1="215.22" y1="106.09" x2="187.4" y2="106.09"/><line x1="215.22" y1="73.64" x2="243.03" y2="73.64"/><line x1="215.22" y1="78.27" x2="243.03" y2="78.27"/><line x1="266.22" y1="133.91" x2="266.22" y2="115.36"/><line x1="261.58" y1="115.36" x2="261.58" y2="133.91"/><line x1="266.22" y1="161.73" x2="266.22" y2="180.27"/><line x1="261.58" y1="161.73" x2="261.58" y2="180.27"/><line x1="196.67" y1="147.82" x2="168.85" y2="147.82"/><line x1="205.94" y1="184.91" x2="205.94" y2="157.09"/><line x1="275.49" y1="82.91" x2="275.49" y2="101.45"/><line x1="270.85" y1="82.91" x2="270.85" y2="101.45"/><line x1="280.13" y1="82.91" x2="280.13" y2="101.45"/><line x1="284.76" y1="82.91" x2="284.76" y2="101.45"/><line x1="303.31" y1="101.45" x2="284.76" y2="101.45"/><line x1="289.4" y1="87.55" x2="298.67" y2="87.55"/><line x1="298.67" y1="87.55" x2="298.67" y2="96.82"/><line x1="298.67" y1="96.82" x2="289.4" y2="96.82"/><line x1="289.4" y1="96.82" x2="289.4" y2="87.55"/><line x1="284.76" y1="106.09" x2="303.31" y2="106.09"/><line x1="303.31" y1="110.73" x2="284.76" y2="110.73"/><line x1="303.31" y1="115.36" x2="284.76" y2="115.36"/><line x1="270.85" y1="120" x2="280.13" y2="120"/><line x1="298.67" y1="120" x2="298.67" y2="129.27"/><line x1="298.67" y1="129.27" x2="289.4" y2="129.27"/><line x1="270.85" y1="129.27" x2="270.85" y2="120"/><line x1="280.13" y1="120" x2="289.4" y2="120"/><line x1="289.4" y1="120" x2="298.67" y2="120"/><line x1="280.13" y1="129.27" x2="280.13" y2="120"/><line x1="289.4" y1="129.27" x2="280.13" y2="129.27"/><line x1="289.4" y1="120" x2="289.4" y2="129.27"/><line x1="280.13" y1="129.27" x2="270.85" y2="129.27"/><line x1="238.4" y1="184.91" x2="210.58" y2="184.91"/><line x1="210.58" y1="189.55" x2="238.4" y2="189.55"/><line x1="229.13" y1="212.73" x2="219.85" y2="212.73"/><line x1="173.49" y1="203.45" x2="173.49" y2="212.73"/><line x1="164.22" y1="212.73" x2="164.22" y2="203.45"/><line x1="173.49" y1="212.73" x2="164.22" y2="212.73"/><line x1="164.22" y1="203.45" x2="173.49" y2="203.45"/><line x1="154.94" y1="203.45" x2="159.58" y2="203.45"/><line x1="154.94" y1="212.73" x2="154.94" y2="203.45"/><line x1="159.58" y1="212.73" x2="154.94" y2="212.73"/><line x1="150.31" y1="210.41" x2="147.99" y2="212.73"/><line x1="147.99" y1="212.73" x2="124.81" y2="212.73"/><line x1="124.81" y1="212.73" x2="122.49" y2="210.41"/><line x1="122.49" y1="210.41" x2="122.49" y2="147.82"/><line x1="122.49" y1="147.82" x2="113.22" y2="138.55"/><line x1="113.22" y1="138.55" x2="103.94" y2="138.55"/><line x1="62.22" y1="136.23" x2="62.22" y2="113.05"/><line x1="64.53" y1="138.55" x2="62.22" y2="136.23"/><line x1="62.22" y1="113.05" x2="64.53" y2="110.73"/><line x1="64.53" y1="110.73" x2="103.94" y2="110.73"/><line x1="113.22" y1="110.73" x2="122.49" y2="101.45"/><line x1="122.49" y1="101.45" x2="122.49" y2="29.59"/><line x1="122.49" y1="29.59" x2="124.81" y2="27.27"/><line x1="124.81" y1="27.27" x2="147.99" y2="27.27"/><line x1="147.99" y1="27.27" x2="150.31" y2="29.59"/><line x1="150.31" y1="29.59" x2="150.31" y2="203.45"/><line x1="261.58" y1="18" x2="261.58" y2="27.27"/><line x1="280.13" y1="59.73" x2="280.13" y2="31.91"/><line x1="277.81" y1="62.05" x2="277.81" y2="29.59"/><line x1="261.58" y1="27.27" x2="256.94" y2="31.91"/><line x1="261.58" y1="64.36" x2="261.58" y2="73.64"/><line x1="256.94" y1="59.73" x2="261.58" y2="64.36"/><line x1="256.94" y1="31.91" x2="256.94" y2="59.73"/><line x1="173.49" y1="27.27" x2="173.49" y2="64.36"/><line x1="178.13" y1="27.27" x2="178.13" y2="64.36"/><line x1="168.85" y1="27.27" x2="168.85" y2="64.36"/><line x1="164.22" y1="27.27" x2="164.22" y2="64.36"/><line x1="159.58" y1="27.27" x2="159.58" y2="64.36"/><line x1="122.49" y1="115.36" x2="122.49" y2="120"/><line x1="122.49" y1="133.91" x2="141.03" y2="133.91"/><line x1="141.03" y1="133.91" x2="141.03" y2="115.36"/><line x1="141.03" y1="115.36" x2="122.49" y2="115.36"/><line x1="150.31" y1="203.45" x2="150.31" y2="210.41"/><line x1="150.31" y1="203.45" x2="154.94" y2="203.45"/><line x1="154.94" y1="212.73" x2="147.99" y2="212.73"/><line x1="171.17" y1="177.95" x2="171.17" y2="182.59"/><line x1="171.17" y1="182.59" x2="175.81" y2="182.59"/><line x1="175.81" y1="182.59" x2="175.81" y2="177.95"/><line x1="175.81" y1="177.95" x2="171.17" y2="177.95"/><line x1="173.49" y1="171" x2="173.49" y2="175.64"/><line x1="173.49" y1="175.64" x2="178.13" y2="175.64"/><line x1="178.13" y1="175.64" x2="178.13" y2="171"/><line x1="178.13" y1="171" x2="173.49" y2="171"/><line x1="178.13" y1="179.11" x2="178.13" y2="183.75"/><line x1="178.13" y1="183.75" x2="182.76" y2="183.75"/><line x1="182.76" y1="183.75" x2="182.76" y2="179.11"/><line x1="182.76" y1="179.11" x2="178.13" y2="179.11"/><line x1="189.72" y1="159.41" x2="189.72" y2="164.05"/><line x1="189.72" y1="164.05" x2="194.35" y2="164.05"/><line x1="194.35" y1="164.05" x2="194.35" y2="159.41"/><line x1="194.35" y1="159.41" x2="189.72" y2="159.41"/><line x1="236.08" y1="52.77" x2="236.8" y2="51.18"/><line x1="236.08" y1="48.14" x2="234.49" y2="47.27"/><line x1="231.44" y1="48.14" x2="230.57" y2="49.59"/><line x1="231.44" y1="52.77" x2="232.89" y2="53.5"/><line x1="229.13" y1="45.82" x2="227.39" y2="48.72"/><line x1="229.13" y1="55.09" x2="232.02" y2="56.68"/><line x1="238.4" y1="55.09" x2="239.99" y2="52.05"/><line x1="238.4" y1="45.82" x2="235.36" y2="44.22"/><line x1="207.1" y1="38.86" x2="206.23" y2="40.46"/><line x1="207.1" y1="43.5" x2="208.99" y2="43.64"/><line x1="211.74" y1="41.18" x2="210.58" y2="39.73"/><line x1="205.94" y1="37.13" x2="204.35" y2="39.73"/><line x1="205.94" y1="45.24" x2="209.13" y2="45.53"/><line x1="214.06" y1="41.18" x2="212.17" y2="38.43"/><line x1="206.23" y1="42.05" x2="207.1" y2="43.5"/><line x1="206.23" y1="40.46" x2="206.23" y2="42.05"/><line x1="210.58" y1="42.78" x2="211.74" y2="41.18"/><line x1="208.99" y1="43.64" x2="210.58" y2="42.78"/><line x1="208.99" y1="38.86" x2="207.1" y2="38.86"/><line x1="210.58" y1="39.73" x2="208.99" y2="38.86"/><line x1="204.35" y1="42.78" x2="205.94" y2="45.24"/><line x1="204.35" y1="39.73" x2="204.35" y2="42.78"/><line x1="212.17" y1="44.08" x2="214.06" y2="41.18"/><line x1="209.13" y1="45.53" x2="212.17" y2="44.08"/><line x1="209.13" y1="36.98" x2="205.94" y2="37.13"/><line x1="212.17" y1="38.43" x2="209.13" y2="36.98"/><line x1="236.8" y1="49.59" x2="236.08" y2="48.14"/><line x1="236.8" y1="51.18" x2="236.8" y2="49.59"/><line x1="232.89" y1="47.27" x2="231.44" y2="48.14"/><line x1="234.49" y1="47.27" x2="232.89" y2="47.27"/><line x1="230.57" y1="51.18" x2="231.44" y2="52.77"/><line x1="230.57" y1="49.59" x2="230.57" y2="51.18"/><line x1="234.49" y1="53.5" x2="236.08" y2="52.77"/><line x1="232.89" y1="53.5" x2="234.49" y2="53.5"/><line x1="227.39" y1="52.05" x2="229.13" y2="55.09"/><line x1="227.39" y1="48.72" x2="227.39" y2="52.05"/><line x1="235.36" y1="56.68" x2="238.4" y2="55.09"/><line x1="232.02" y1="56.68" x2="235.36" y2="56.68"/><line x1="239.99" y1="48.72" x2="238.4" y2="45.82"/><line x1="239.99" y1="52.05" x2="239.99" y2="48.72"/><line x1="232.02" y1="44.22" x2="229.13" y2="45.82"/><line x1="235.36" y1="44.22" x2="232.02" y2="44.22"/><line x1="201.31" y1="27.27" x2="210.58" y2="27.27"/><line x1="210.58" y1="27.27" x2="215.22" y2="22.64"/><line x1="215.22" y1="22.64" x2="215.22" y2="18"/><line x1="196.67" y1="22.64" x2="201.31" y2="27.27"/><line x1="196.67" y1="18" x2="196.67" y2="22.64"/><line x1="205.94" y1="20.32" x2="203.63" y2="22.64"/><line x1="203.63" y1="22.64" x2="205.94" y2="24.95"/><line x1="205.94" y1="24.95" x2="208.26" y2="22.64"/><line x1="208.26" y1="22.64" x2="205.94" y2="20.32"/><line x1="178.13" y1="92.18" x2="178.13" y2="82.91"/><line x1="122.49" y1="120" x2="122.49" y2="129.27"/><line x1="127.13" y1="122.32" x2="122.49" y2="120"/><line x1="122.49" y1="129.27" x2="122.49" y2="133.91"/><line x1="122.49" y1="129.27" x2="127.13" y2="126.95"/><line x1="103.94" y1="110.73" x2="113.22" y2="110.73"/><line x1="122.49" y1="120" x2="103.94" y2="110.73"/><line x1="103.94" y1="138.55" x2="64.53" y2="138.55"/><line x1="103.94" y1="138.55" x2="122.49" y2="129.27"/><line x1="103.94" y1="110.73" x2="85.4" y2="101.45"/><line x1="85.4" y1="147.82" x2="103.94" y2="138.55"/><line x1="64.53" y1="138.55" x2="76.13" y2="136.23"/><line x1="66.85" y1="117.68" x2="66.85" y2="131.59"/><line x1="66.85" y1="131.59" x2="69.17" y2="133.91"/><line x1="73.81" y1="117.68" x2="71.49" y2="115.36"/><line x1="76.13" y1="113.05" x2="64.53" y2="110.73"/><line x1="64.53" y1="110.73" x2="52.94" y2="108.41"/><line x1="52.94" y1="140.86" x2="64.53" y2="138.55"/><line x1="69.17" y1="115.36" x2="66.85" y2="117.68"/><line x1="69.17" y1="133.91" x2="71.49" y2="133.91"/><line x1="71.49" y1="115.36" x2="69.17" y2="115.36"/><line x1="73.81" y1="131.59" x2="73.81" y2="117.68"/><line x1="71.49" y1="133.91" x2="73.81" y2="131.59"/><line x1="137.56" y1="37.7" x2="135.24" y2="37.7"/><line x1="135.24" y1="37.7" x2="132.92" y2="40.02"/><line x1="132.92" y1="40.02" x2="132.92" y2="42.34"/><line x1="132.92" y1="42.34" x2="135.24" y2="44.66"/><line x1="135.24" y1="44.66" x2="137.56" y2="44.66"/><line x1="137.56" y1="44.66" x2="139.88" y2="42.34"/><line x1="139.88" y1="42.34" x2="139.88" y2="40.02"/><line x1="139.88" y1="40.02" x2="137.56" y2="37.7"/><line x1="137.56" y1="195.34" x2="135.24" y2="195.34"/><line x1="135.24" y1="195.34" x2="132.92" y2="197.66"/><line x1="132.92" y1="197.66" x2="132.92" y2="199.98"/><line x1="132.92" y1="199.98" x2="135.24" y2="202.3"/><line x1="135.24" y1="202.3" x2="137.56" y2="202.3"/><line x1="137.56" y1="202.3" x2="139.88" y2="199.98"/><line x1="139.88" y1="199.98" x2="139.88" y2="197.66"/><line x1="139.88" y1="197.66" x2="137.56" y2="195.34"/><line x1="346.19" y1="120" x2="346.19" y2="110.73"/><line x1="340.4" y1="110.73" x2="340.4" y2="120"/><line x1="345.03" y1="110.73" x2="345.03" y2="120"/><line x1="350.83" y1="120" x2="350.83" y2="110.73"/><line x1="346.19" y1="143.18" x2="346.19" y2="133.91"/><line x1="340.4" y1="133.91" x2="340.4" y2="143.18"/><line x1="345.03" y1="133.91" x2="345.03" y2="143.18"/><line x1="350.83" y1="143.18" x2="350.83" y2="133.91"/><line x1="353.15" y1="129.27" x2="353.15" y2="124.64"/></g><g stroke="#d3b15b" stroke-width="2.4" stroke-linecap="round"><line x1="168.85" y1="110.73" x2="187.4" y2="110.73"/><line x1="243.03" y1="184.91" x2="238.4" y2="184.91"/><line x1="168.85" y1="184.91" x2="168.85" y2="147.82"/><line x1="270.85" y1="106.09" x2="215.22" y2="106.09"/><line x1="270.85" y1="78.27" x2="270.85" y2="82.91"/><line x1="178.13" y1="78.27" x2="215.22" y2="78.27"/><line x1="178.13" y1="106.09" x2="178.13" y2="92.18"/><line x1="187.4" y1="106.09" x2="178.13" y2="106.09"/><line x1="187.4" y1="110.73" x2="187.4" y2="106.09"/><line x1="215.22" y1="110.73" x2="243.03" y2="110.73"/><line x1="215.22" y1="106.09" x2="215.22" y2="110.73"/><line x1="243.03" y1="78.27" x2="270.85" y2="78.27"/><line x1="243.03" y1="73.64" x2="243.03" y2="78.27"/><line x1="215.22" y1="78.27" x2="215.22" y2="73.64"/><line x1="243.03" y1="110.73" x2="261.58" y2="110.73"/><line x1="261.58" y1="184.91" x2="243.03" y2="184.91"/><line x1="261.58" y1="110.73" x2="261.58" y2="115.36"/><line x1="261.58" y1="133.91" x2="261.58" y2="161.73"/><line x1="266.22" y1="133.91" x2="261.58" y2="133.91"/><line x1="261.58" y1="115.36" x2="266.22" y2="115.36"/><line x1="261.58" y1="180.27" x2="261.58" y2="184.91"/><line x1="266.22" y1="180.27" x2="261.58" y2="180.27"/><line x1="261.58" y1="161.73" x2="266.22" y2="161.73"/><line x1="196.67" y1="147.82" x2="196.67" y2="157.09"/><line x1="196.67" y1="157.09" x2="205.94" y2="157.09"/><line x1="205.94" y1="157.09" x2="205.94" y2="147.82"/><line x1="205.94" y1="147.82" x2="196.67" y2="147.82"/><line x1="205.94" y1="184.91" x2="168.85" y2="184.91"/><line x1="168.85" y1="147.82" x2="168.85" y2="110.73"/><line x1="270.85" y1="101.45" x2="270.85" y2="106.09"/><line x1="275.49" y1="101.45" x2="270.85" y2="101.45"/><line x1="270.85" y1="82.91" x2="275.49" y2="82.91"/><line x1="280.13" y1="101.45" x2="275.49" y2="101.45"/><line x1="275.49" y1="82.91" x2="280.13" y2="82.91"/><line x1="284.76" y1="101.45" x2="280.13" y2="101.45"/><line x1="280.13" y1="82.91" x2="284.76" y2="82.91"/><line x1="303.31" y1="82.91" x2="303.31" y2="101.45"/><line x1="284.76" y1="82.91" x2="303.31" y2="82.91"/><line x1="284.76" y1="106.09" x2="284.76" y2="101.45"/><line x1="303.31" y1="101.45" x2="303.31" y2="106.09"/><line x1="303.31" y1="106.09" x2="303.31" y2="110.73"/><line x1="284.76" y1="110.73" x2="284.76" y2="106.09"/><line x1="303.31" y1="110.73" x2="303.31" y2="115.36"/><line x1="284.76" y1="115.36" x2="284.76" y2="110.73"/><line x1="266.22" y1="115.36" x2="284.76" y2="115.36"/><line x1="303.31" y1="115.36" x2="303.31" y2="133.91"/><line x1="303.31" y1="133.91" x2="266.22" y2="133.91"/><line x1="266.22" y1="161.73" x2="270.85" y2="157.09"/><line x1="270.85" y1="157.09" x2="289.4" y2="157.09"/><line x1="289.4" y1="157.09" x2="294.03" y2="161.73"/><line x1="294.03" y1="161.73" x2="294.03" y2="166.36"/><line x1="294.03" y1="208.09" x2="280.13" y2="222"/><line x1="280.13" y1="222" x2="238.4" y2="222"/><line x1="168.85" y1="222" x2="164.22" y2="217.36"/><line x1="164.22" y1="217.36" x2="164.22" y2="212.73"/><line x1="164.22" y1="198.82" x2="168.85" y2="194.18"/><line x1="168.85" y1="194.18" x2="196.67" y2="194.18"/><line x1="261.58" y1="194.18" x2="266.22" y2="189.55"/><line x1="266.22" y1="189.55" x2="266.22" y2="180.27"/><line x1="252.31" y1="194.18" x2="261.58" y2="194.18"/><line x1="247.67" y1="189.55" x2="252.31" y2="194.18"/><line x1="196.67" y1="194.18" x2="201.31" y2="189.55"/><line x1="201.31" y1="189.55" x2="210.58" y2="189.55"/><line x1="210.58" y1="184.91" x2="205.94" y2="184.91"/><line x1="210.58" y1="189.55" x2="210.58" y2="184.91"/><line x1="238.4" y1="189.55" x2="247.67" y2="189.55"/><line x1="238.4" y1="184.91" x2="238.4" y2="189.55"/><line x1="210.58" y1="212.73" x2="210.58" y2="222"/><line x1="210.58" y1="222" x2="168.85" y2="222"/><line x1="238.4" y1="222" x2="238.4" y2="212.73"/><line x1="238.4" y1="212.73" x2="229.13" y2="212.73"/><line x1="219.85" y1="212.73" x2="210.58" y2="212.73"/><line x1="219.85" y1="222" x2="219.85" y2="212.73"/><line x1="229.13" y1="222" x2="219.85" y2="222"/><line x1="229.13" y1="212.73" x2="229.13" y2="222"/><line x1="164.22" y1="203.45" x2="164.22" y2="198.82"/><line x1="164.22" y1="212.73" x2="159.58" y2="212.73"/><line x1="159.58" y1="212.73" x2="159.58" y2="217.36"/><line x1="159.58" y1="217.36" x2="154.94" y2="222"/><line x1="154.94" y1="222" x2="117.85" y2="222"/><line x1="117.85" y1="222" x2="113.22" y2="217.36"/><line x1="113.22" y1="217.36" x2="113.22" y2="152.45"/><line x1="113.22" y1="152.45" x2="108.58" y2="147.82"/><line x1="108.58" y1="147.82" x2="85.4" y2="147.82"/><line x1="57.58" y1="147.82" x2="52.94" y2="143.18"/><line x1="52.94" y1="143.18" x2="52.94" y2="140.86"/><line x1="52.94" y1="106.09" x2="57.58" y2="101.45"/><line x1="57.58" y1="101.45" x2="85.4" y2="101.45"/><line x1="108.58" y1="101.45" x2="113.22" y2="96.82"/><line x1="113.22" y1="96.82" x2="113.22" y2="22.64"/><line x1="113.22" y1="22.64" x2="117.85" y2="18"/><line x1="117.85" y1="18" x2="154.94" y2="18"/><line x1="154.94" y1="18" x2="159.58" y2="22.64"/><line x1="159.58" y1="203.45" x2="164.22" y2="203.45"/><line x1="159.58" y1="22.64" x2="159.58" y2="27.27"/><line x1="215.22" y1="73.64" x2="182.76" y2="73.64"/><line x1="182.76" y1="73.64" x2="178.13" y2="69"/><line x1="178.13" y1="69" x2="178.13" y2="64.36"/><line x1="178.13" y1="22.64" x2="182.76" y2="18"/><line x1="182.76" y1="18" x2="196.67" y2="18"/><line x1="261.58" y1="73.64" x2="243.03" y2="73.64"/><line x1="298.67" y1="198.82" x2="294.03" y2="203.45"/><line x1="294.03" y1="166.36" x2="298.67" y2="171"/><line x1="298.67" y1="171" x2="307.94" y2="171"/><line x1="307.94" y1="171" x2="312.58" y2="166.36"/><line x1="312.58" y1="166.36" x2="312.58" y2="64.36"/><line x1="312.58" y1="64.36" x2="307.94" y2="59.73"/><line x1="307.94" y1="59.73" x2="280.13" y2="59.73"/><line x1="280.13" y1="31.91" x2="326.49" y2="31.91"/><line x1="326.49" y1="31.91" x2="340.4" y2="45.82"/><line x1="340.4" y1="45.82" x2="340.4" y2="110.73"/><line x1="340.4" y1="184.91" x2="326.49" y2="198.82"/><line x1="326.49" y1="198.82" x2="298.67" y2="198.82"/><line x1="294.03" y1="203.45" x2="294.03" y2="208.09"/><line x1="277.81" y1="29.59" x2="280.13" y2="31.91"/><line x1="280.13" y1="59.73" x2="277.81" y2="62.05"/><line x1="273.17" y1="18" x2="277.81" y2="22.64"/><line x1="277.81" y1="22.64" x2="277.81" y2="29.59"/><line x1="266.22" y1="20.32" x2="268.53" y2="18"/><line x1="277.81" y1="62.05" x2="277.81" y2="69"/><line x1="277.81" y1="69" x2="273.17" y2="73.64"/><line x1="273.17" y1="73.64" x2="268.53" y2="73.64"/><line x1="268.53" y1="73.64" x2="266.22" y2="71.32"/><line x1="266.22" y1="71.32" x2="263.9" y2="71.32"/><line x1="263.9" y1="71.32" x2="261.58" y2="73.64"/><line x1="268.53" y1="18" x2="273.17" y2="18"/><line x1="261.58" y1="18" x2="263.9" y2="20.32"/><line x1="263.9" y1="20.32" x2="266.22" y2="20.32"/><line x1="178.13" y1="27.27" x2="178.13" y2="22.64"/><line x1="173.49" y1="27.27" x2="178.13" y2="27.27"/><line x1="178.13" y1="64.36" x2="173.49" y2="64.36"/><line x1="168.85" y1="27.27" x2="173.49" y2="27.27"/><line x1="173.49" y1="64.36" x2="168.85" y2="64.36"/><line x1="159.58" y1="64.36" x2="159.58" y2="203.45"/><line x1="168.85" y1="64.36" x2="164.22" y2="64.36"/><line x1="159.58" y1="27.27" x2="164.22" y2="27.27"/><line x1="164.22" y1="27.27" x2="168.85" y2="27.27"/><line x1="164.22" y1="64.36" x2="159.58" y2="64.36"/><line x1="127.13" y1="120" x2="127.13" y2="122.32"/><line x1="127.13" y1="129.27" x2="136.4" y2="129.27"/><line x1="136.4" y1="129.27" x2="136.4" y2="120"/><line x1="136.4" y1="120" x2="127.13" y2="120"/><line x1="215.22" y1="18" x2="261.58" y2="18"/><line x1="196.67" y1="18" x2="215.22" y2="18"/><line x1="178.13" y1="82.91" x2="178.13" y2="78.27"/><line x1="168.85" y1="82.91" x2="170.01" y2="82.91"/><line x1="168.85" y1="92.18" x2="168.85" y2="91.02"/><line x1="178.13" y1="92.18" x2="176.97" y2="92.18"/><line x1="170.01" y1="82.91" x2="174.65" y2="82.91"/><line x1="174.65" y1="82.91" x2="175.81" y2="82.91"/><line x1="175.81" y1="82.91" x2="176.97" y2="82.91"/><line x1="176.97" y1="82.91" x2="178.13" y2="82.91"/><line x1="168.85" y1="84.07" x2="168.85" y2="82.91"/><line x1="168.85" y1="91.02" x2="168.85" y2="89.86"/><line x1="168.85" y1="89.86" x2="168.85" y2="85.23"/><line x1="168.85" y1="85.23" x2="168.85" y2="84.07"/><line x1="170.01" y1="92.18" x2="168.85" y2="92.18"/><line x1="174.65" y1="92.18" x2="170.01" y2="92.18"/><line x1="175.81" y1="92.18" x2="174.65" y2="92.18"/><line x1="176.97" y1="92.18" x2="175.81" y2="92.18"/><line x1="127.13" y1="122.32" x2="127.13" y2="126.95"/><line x1="127.13" y1="126.95" x2="127.13" y2="129.27"/><line x1="85.4" y1="101.45" x2="108.58" y2="101.45"/><line x1="85.4" y1="147.82" x2="57.58" y2="147.82"/><line x1="76.13" y1="136.23" x2="80.76" y2="136.23"/><line x1="80.76" y1="136.23" x2="80.76" y2="113.05"/><line x1="80.76" y1="113.05" x2="76.13" y2="113.05"/><line x1="76.13" y1="113.05" x2="76.13" y2="136.23"/><line x1="52.94" y1="108.41" x2="52.94" y2="106.09"/><line x1="52.94" y1="140.86" x2="52.94" y2="108.41"/><line x1="345.03" y1="120" x2="340.4" y2="120"/><line x1="340.4" y1="110.73" x2="345.03" y2="110.73"/><line x1="340.4" y1="120" x2="340.4" y2="133.91"/><line x1="345.03" y1="110.73" x2="346.19" y2="110.73"/><line x1="346.19" y1="120" x2="345.03" y2="120"/><line x1="346.19" y1="110.73" x2="350.83" y2="110.73"/><line x1="350.83" y1="120" x2="346.19" y2="120"/><line x1="350.83" y1="110.73" x2="353.15" y2="108.41"/><line x1="353.15" y1="108.41" x2="362.42" y2="108.41"/><line x1="362.42" y1="108.41" x2="364.74" y2="110.73"/><line x1="364.74" y1="110.73" x2="364.74" y2="120"/><line x1="353.15" y1="131.59" x2="353.15" y2="129.27"/><line x1="364.74" y1="120" x2="367.06" y2="122.32"/><line x1="353.15" y1="122.32" x2="350.83" y2="120"/><line x1="345.03" y1="143.18" x2="340.4" y2="143.18"/><line x1="340.4" y1="133.91" x2="345.03" y2="133.91"/><line x1="345.03" y1="133.91" x2="346.19" y2="133.91"/><line x1="346.19" y1="143.18" x2="345.03" y2="143.18"/><line x1="346.19" y1="133.91" x2="350.83" y2="133.91"/><line x1="350.83" y1="143.18" x2="346.19" y2="143.18"/><line x1="350.83" y1="133.91" x2="353.15" y2="131.59"/><line x1="367.06" y1="131.59" x2="364.74" y2="133.91"/><line x1="367.06" y1="122.32" x2="367.06" y2="131.59"/><line x1="364.74" y1="133.91" x2="364.74" y2="143.18"/><line x1="364.74" y1="143.18" x2="362.42" y2="145.5"/><line x1="362.42" y1="145.5" x2="353.15" y2="145.5"/><line x1="353.15" y1="145.5" x2="350.83" y2="143.18"/><line x1="340.4" y1="143.18" x2="340.4" y2="184.91"/><line x1="351.99" y1="124.64" x2="353.15" y2="124.64"/><line x1="353.15" y1="129.27" x2="351.99" y2="129.27"/><line x1="351.99" y1="129.27" x2="351.99" y2="124.64"/><line x1="353.15" y1="124.64" x2="353.15" y2="122.32"/></g><g opacity="0.95"><circle cx="210.58" cy="180.27" r="3.2" fill="#b7493c"/><circle cx="173.49" cy="180.27" r="2.2" fill="#d3b15b"/><circle cx="192.03" cy="161.73" r="2.2" fill="#d3b15b"/><circle cx="205.94" cy="22.64" r="2.2" fill="#d3b15b"/><circle cx="210.58" cy="171" r="3.2" fill="#b7493c"/><circle cx="210.58" cy="161.73" r="3.2" fill="#b7493c"/><circle cx="210.58" cy="152.45" r="3.2" fill="#b7493c"/><circle cx="70.33" cy="124.64" r="2.2" fill="#d3b15b"/><circle cx="154.94" cy="124.64" r="2.2" fill="#d3b15b"/><circle cx="127.13" cy="117.68" r="2.2" fill="#d3b15b"/><circle cx="134.08" cy="117.68" r="2.2" fill="#d3b15b"/><circle cx="138.72" cy="121.16" r="2.2" fill="#d3b15b"/><circle cx="138.72" cy="128.11" r="2.2" fill="#d3b15b"/><circle cx="134.08" cy="131.59" r="2.2" fill="#d3b15b"/><circle cx="127.13" cy="131.59" r="2.2" fill="#d3b15b"/><circle cx="85.4" cy="124.64" r="2.2" fill="#d3b15b"/><circle cx="80.76" cy="106.09" r="2.2" fill="#d3b15b"/><circle cx="71.49" cy="106.09" r="2.2" fill="#d3b15b"/><circle cx="62.22" cy="106.09" r="2.2" fill="#d3b15b"/><circle cx="80.76" cy="143.18" r="2.2" fill="#d3b15b"/><circle cx="71.49" cy="143.18" r="2.2" fill="#d3b15b"/><circle cx="62.22" cy="143.18" r="2.2" fill="#d3b15b"/><circle cx="57.58" cy="133.91" r="2.2" fill="#d3b15b"/><circle cx="57.58" cy="115.36" r="2.2" fill="#d3b15b"/><circle cx="57.58" cy="124.64" r="2.2" fill="#d3b15b"/><circle cx="207.1" cy="218.52" r="3.2" fill="#b7493c"/><circle cx="329.97" cy="188.39" r="3.2" fill="#b7493c"/><circle cx="329.97" cy="42.34" r="3.2" fill="#b7493c"/><circle cx="253.47" cy="45.82" r="3.2" fill="#b7493c"/><circle cx="136.4" cy="40.02" r="3.2" fill="#b7493c"/><circle cx="136.4" cy="199.98" r="3.2" fill="#b7493c"/><circle cx="172.33" cy="114.2" r="3.2" fill="#b7493c"/><circle cx="239.56" cy="181.43" r="3.2" fill="#b7493c"/><circle cx="292.88" cy="91.02" r="2.2" fill="#d3b15b"/><circle cx="292.88" cy="94.5" r="2.2" fill="#d3b15b"/><circle cx="296.35" cy="92.18" r="2.2" fill="#d3b15b"/><circle cx="284.76" cy="124.64" r="2.2" fill="#d3b15b"/><circle cx="246.51" cy="113.05" r="2.2" fill="#d3b15b"/><circle cx="258.1" cy="113.05" r="2.2" fill="#d3b15b"/><circle cx="252.31" cy="113.05" r="2.2" fill="#d3b15b"/><circle cx="246.51" cy="182.59" r="2.2" fill="#d3b15b"/><circle cx="252.31" cy="182.59" r="2.2" fill="#d3b15b"/><circle cx="258.1" cy="182.59" r="2.2" fill="#d3b15b"/><circle cx="276.65" cy="160.57" r="2.2" fill="#d3b15b"/><circle cx="283.6" cy="160.57" r="2.2" fill="#d3b15b"/><circle cx="270.85" cy="45.82" r="2.2" fill="#d3b15b"/><circle cx="270.85" cy="70.16" r="2.2" fill="#d3b15b"/><circle cx="270.85" cy="21.48" r="2.2" fill="#d3b15b"/><circle cx="229.13" cy="92.18" r="2.2" fill="#d3b15b"/></g></svg>