<svg xmlns="http://www.w3.org/2000/svg" viewBox="0 0 420 240" role="img"><rect width="100%" height="100%" fill="#070706"/><g stroke="#5e5a4f" stroke-width="1.6" stroke-linecap="round"><line x1="225.85" y1="139.3" x2="231.36" y2="139.3"/><line x1="225.85" y1="133.78" x2="225.85" y2="139.3"/><line x1="223.09" y1="133.78" x2="217.58" y2="133.78"/><line x1="223.09" y1="139.3" x2="223.09" y2="133.78"/><line x1="239.98" y1="103.8" x2="240.67" y2="103.8"/><line x1="265.14" y1="146.19" x2="274.78" y2="146.19"/><line x1="263.07" y1="148.26" x2="265.14" y2="146.19"/><line x1="217.58" y1="139.3" x2="223.09" y2="139.3"/><line x1="217.58" y1="133.78" x2="217.58" y2="139.3"/><line x1="214.82" y1="133.78" x2="209.31" y2="133.78"/><line x1="214.82" y1="139.3" x2="214.82" y2="133.78"/><line x1="209.31" y1="139.3" x2="214.82" y2="139.3"/><line x1="209.31" y1="133.78" x2="209.31" y2="139.3"/><line x1="178.99" y1="142.05" x2="176.23" y2="142.05"/><line x1="206.55" y1="131.03" x2="234.12" y2="131.03"/><line x1="234.12" y1="131.03" x2="234.12" y2="142.05"/><line x1="234.12" y1="142.05" x2="206.55" y2="142.05"/><line x1="206.55" y1="142.05" x2="206.55" y2="131.03"/><line x1="247.91" y1="123.45" x2="247.91" y2="120"/><line x1="247.56" y1="103.8" x2="247.91" y2="103.46"/><line x1="243.77" y1="123.45" x2="247.91" y2="123.45"/><line x1="241.01" y1="103.46" x2="241.01" y2="100.7"/><line x1="274.09" y1="147.57" x2="268.58" y2="147.57"/><line x1="274.09" y1="153.08" x2="274.09" y2="147.57"/><line x1="268.58" y1="153.08" x2="274.09" y2="153.08"/><line x1="243.77" y1="120" x2="243.77" y2="123.45"/><line x1="198.28" y1="120" x2="203.8" y2="120"/><line x1="261.69" y1="147.57" x2="261.69" y2="153.08"/><line x1="268.58" y1="147.57" x2="268.58" y2="153.08"/><line x1="269.96" y1="148.95" x2="272.72" y2="148.95"/><line x1="227.23" y1="120" x2="232.74" y2="120"/><line x1="272.72" y1="148.95" x2="272.72" y2="151.7"/><line x1="246.53" y1="100.7" x2="247.22" y2="100.7"/><line x1="272.72" y1="151.7" x2="269.96" y2="151.7"/><line x1="269.96" y1="151.7" x2="269.96" y2="148.95"/><line x1="263.07" y1="152.39" x2="263.07" y2="148.26"/><line x1="197.59" y1="58.66" x2="197.25" y2="59.35"/><line x1="245.15" y1="139.3" x2="247.91" y2="139.3"/><line x1="192.08" y1="150.67" x2="192.08" y2="145.16"/><line x1="258.93" y1="129.65" x2="251.35" y2="135.33"/><line x1="251.35" y1="137.75" x2="251.7" y2="136.54"/><line x1="251.7" y1="136.54" x2="251.35" y2="135.33"/><line x1="265.14" y1="154.46" x2="263.07" y2="152.39"/><line x1="250.66" y1="137.23" x2="251.35" y2="137.75"/><line x1="274.78" y1="154.46" x2="265.14" y2="154.46"/><line x1="276.85" y1="152.39" x2="274.78" y2="154.46"/><line x1="276.85" y1="148.26" x2="276.85" y2="152.39"/><line x1="245.15" y1="133.78" x2="245.15" y2="139.3"/><line x1="236.88" y1="128.27" x2="203.8" y2="128.27"/><line x1="258.93" y1="123.45" x2="258.93" y2="128.96"/><line x1="251.35" y1="137.75" x2="251.35" y2="135.33"/><line x1="251.35" y1="135.33" x2="250.66" y2="135.85"/><line x1="251.35" y1="135.33" x2="251.35" y2="133.78"/><line x1="236.88" y1="144.81" x2="236.88" y2="128.27"/><line x1="251.35" y1="137.75" x2="258.93" y2="143.43"/><line x1="274.78" y1="146.19" x2="276.85" y2="148.26"/><line x1="247.91" y1="133.78" x2="245.15" y2="133.78"/><line x1="170.72" y1="131.03" x2="173.47" y2="131.03"/><line x1="203.8" y1="144.81" x2="236.88" y2="144.81"/><line x1="251.35" y1="133.78" x2="250.66" y2="133.09"/><line x1="203.8" y1="128.27" x2="203.8" y2="144.81"/><line x1="231.36" y1="133.78" x2="225.85" y2="133.78"/><line x1="251.35" y1="139.3" x2="251.35" y2="137.75"/><line x1="250.66" y1="139.99" x2="251.35" y2="139.3"/><line x1="170.72" y1="131.03" x2="170.72" y2="142.05"/><line x1="246.87" y1="103.8" x2="247.56" y2="103.8"/><line x1="246.53" y1="103.46" x2="246.87" y2="103.8"/><line x1="240.67" y1="103.8" x2="241.01" y2="103.46"/><line x1="239.64" y1="103.46" x2="239.98" y2="103.8"/><line x1="239.64" y1="100.01" x2="239.64" y2="103.46"/><line x1="246.53" y1="100.7" x2="246.53" y2="103.46"/><line x1="245.84" y1="104.15" x2="246.53" y2="103.46"/><line x1="241.7" y1="104.15" x2="245.84" y2="104.15"/><line x1="241.01" y1="103.46" x2="241.7" y2="104.15"/><line x1="241.01" y1="100.7" x2="246.53" y2="100.7"/><line x1="148.66" y1="128.96" x2="148.66" y2="104.84"/><line x1="169.34" y1="142.05" x2="169.34" y2="142.74"/><line x1="200.18" y1="59.35" x2="199.66" y2="57.97"/><line x1="178.99" y1="142.74" x2="178.99" y2="142.05"/><line x1="197.59" y1="60.04" x2="198.28" y2="60.39"/><line x1="196.39" y1="59.35" x2="196.91" y2="60.73"/><line x1="173.47" y1="142.05" x2="170.72" y2="142.05"/><line x1="176.23" y1="142.05" x2="173.47" y2="142.05"/><line x1="173.47" y1="131.03" x2="173.47" y2="142.05"/><line x1="173.47" y1="131.03" x2="176.23" y2="131.03"/><line x1="176.23" y1="131.03" x2="176.23" y2="142.05"/><line x1="176.23" y1="131.03" x2="178.99" y2="131.03"/><line x1="178.99" y1="131.03" x2="178.99" y2="142.05"/><line x1="196.91" y1="57.97" x2="196.39" y2="59.35"/><line x1="198.28" y1="58.32" x2="197.59" y2="58.66"/><line x1="169.34" y1="131.03" x2="170.72" y2="131.03"/><line x1="147.97" y1="76.58" x2="143.15" y2="76.58"/><line x1="143.15" y1="64.18" x2="147.97" y2="64.18"/><line x1="148.66" y1="75.89" x2="143.15" y2="75.89"/><line x1="147.97" y1="64.18" x2="147.97" y2="59.35"/><line x1="178.99" y1="130.34" x2="169.34" y2="130.34"/><line x1="198.28" y1="61.25" x2="199.66" y2="60.73"/><line x1="178.99" y1="131.03" x2="178.99" y2="130.34"/><line x1="176.23" y1="75.89" x2="170.72" y2="75.89"/><line x1="143.15" y1="75.89" x2="143.15" y2="70.38"/><line x1="170.72" y1="75.89" x2="170.72" y2="81.41"/><line x1="148.66" y1="64.86" x2="148.66" y2="59.35"/><line x1="147.97" y1="81.41" x2="147.97" y2="76.58"/><line x1="165.2" y1="83.47" x2="154.18" y2="83.47"/><line x1="246.53" y1="115.86" x2="241.01" y2="115.86"/><line x1="148.66" y1="59.35" x2="170.72" y2="59.35"/><line x1="148.66" y1="81.41" x2="148.66" y2="75.89"/><line x1="143.15" y1="64.86" x2="148.66" y2="64.86"/><line x1="220.34" y1="107.59" x2="205.18" y2="107.59"/><line x1="214.82" y1="158.59" x2="225.85" y2="158.59"/><line x1="231.36" y1="139.3" x2="231.36" y2="133.78"/><line x1="214.82" y1="155.84" x2="225.85" y2="155.84"/><line x1="225.85" y1="154.46" x2="214.82" y2="154.46"/><line x1="258.93" y1="153.08" x2="253.42" y2="153.08"/><line x1="225.85" y1="153.08" x2="214.82" y2="153.08"/><line x1="209.31" y1="153.08" x2="198.28" y2="153.08"/><line x1="253.42" y1="153.08" x2="231.36" y2="153.08"/><line x1="253.42" y1="153.08" x2="253.42" y2="154.46"/><line x1="247.91" y1="120" x2="253.42" y2="120"/><line x1="253.42" y1="118.62" x2="247.91" y2="118.62"/><line x1="236.19" y1="115.86" x2="236.19" y2="111.04"/><line x1="247.91" y1="119.31" x2="253.42" y2="119.31"/><line x1="253.42" y1="115.86" x2="247.91" y2="115.86"/><line x1="253.42" y1="103.46" x2="253.42" y2="114.49"/><line x1="239.64" y1="99.32" x2="239.64" y2="100.01"/><line x1="239.64" y1="100.01" x2="240.32" y2="100.7"/><line x1="199.32" y1="59.35" x2="198.97" y2="58.66"/><line x1="196.91" y1="60.73" x2="198.28" y2="61.25"/><line x1="198.97" y1="58.66" x2="198.28" y2="58.32"/><line x1="247.91" y1="100.01" x2="247.91" y2="99.32"/><line x1="247.22" y1="100.7" x2="247.91" y2="100.01"/><line x1="238.95" y1="102.08" x2="238.95" y2="100.01"/><line x1="238.95" y1="100.01" x2="236.88" y2="100.01"/><line x1="236.88" y1="100.01" x2="236.88" y2="102.08"/><line x1="236.88" y1="102.08" x2="238.95" y2="102.08"/><line x1="261" y1="113.8" x2="256.18" y2="113.8"/><line x1="231.36" y1="111.73" x2="235.5" y2="111.73"/><line x1="256.18" y1="109.66" x2="261" y2="109.66"/><line x1="235.5" y1="111.73" x2="235.5" y2="115.86"/><line x1="236.19" y1="111.04" x2="231.36" y2="111.04"/><line x1="256.18" y1="113.8" x2="256.18" y2="109.66"/><line x1="247.91" y1="103.46" x2="247.91" y2="100.01"/><line x1="240.32" y1="100.7" x2="241.01" y2="100.7"/><line x1="231.36" y1="106.91" x2="231.36" y2="101.39"/><line x1="228.61" y1="106.91" x2="228.61" y2="101.39"/><line x1="227.92" y1="101.39" x2="227.92" y2="106.91"/><line x1="261" y1="109.66" x2="261" y2="113.8"/><line x1="218.96" y1="116.55" x2="212.07" y2="116.55"/><line x1="169.34" y1="142.74" x2="178.99" y2="142.74"/><line x1="203.8" y1="97.95" x2="203.8" y2="107.59"/><line x1="198.97" y1="60.04" x2="199.32" y2="59.35"/><line x1="225.85" y1="101.39" x2="225.85" y2="106.91"/><line x1="208.62" y1="86.92" x2="203.8" y2="96.57"/><line x1="148.66" y1="97.95" x2="203.8" y2="97.95"/><line x1="181.74" y1="86.92" x2="203.8" y2="86.92"/><line x1="205.18" y1="107.59" x2="205.18" y2="97.95"/><line x1="210.69" y1="85.2" x2="220.34" y2="82.78"/><line x1="220.34" y1="81.41" x2="209.31" y2="84.16"/><line x1="219.65" y1="71.76" x2="220.34" y2="72.45"/><line x1="205.18" y1="97.95" x2="220.34" y2="97.95"/><line x1="221.72" y1="82.78" x2="231.36" y2="82.78"/><line x1="178.99" y1="150.32" x2="181.74" y2="153.08"/><line x1="170.72" y1="81.41" x2="165.2" y2="81.41"/><line x1="143.15" y1="70.38" x2="143.15" y2="64.86"/><line x1="142.46" y1="64.86" x2="142.46" y2="70.38"/><line x1="181.74" y1="131.03" x2="181.74" y2="142.05"/><line x1="167.96" y1="60.73" x2="166.58" y2="62.11"/><line x1="182.43" y1="142.05" x2="182.43" y2="131.03"/><line x1="181.74" y1="120" x2="178.99" y2="122.76"/><line x1="170.72" y1="142.05" x2="169.34" y2="142.05"/><line x1="169.34" y1="62.11" x2="167.96" y2="60.73"/><line x1="167.96" y1="63.49" x2="169.34" y2="62.11"/><line x1="176.23" y1="76.58" x2="171.41" y2="76.58"/><line x1="185.88" y1="120" x2="181.74" y2="120"/><line x1="166.58" y1="62.11" x2="167.96" y2="63.49"/><line x1="171.41" y1="76.58" x2="171.41" y2="81.41"/><line x1="170.72" y1="64.86" x2="176.23" y2="64.86"/><line x1="170.72" y1="59.35" x2="170.72" y2="64.86"/><line x1="169.34" y1="130.34" x2="169.34" y2="131.03"/><line x1="178.99" y1="142.74" x2="178.99" y2="150.32"/><line x1="171.41" y1="59.35" x2="171.41" y2="64.18"/><line x1="176.23" y1="64.86" x2="176.23" y2="75.89"/><line x1="171.41" y1="64.18" x2="176.23" y2="64.18"/><line x1="178.99" y1="122.76" x2="178.99" y2="130.34"/><line x1="148.66" y1="97.95" x2="148.66" y2="96.57"/><line x1="203.8" y1="96.57" x2="148.66" y2="96.57"/><line x1="148.66" y1="96.57" x2="148.66" y2="93.81"/><line x1="221.72" y1="108.97" x2="225.85" y2="108.97"/><line x1="269.96" y1="74.51" x2="232.74" y2="74.51"/><line x1="203.8" y1="84.16" x2="181.74" y2="84.16"/><line x1="269.96" y1="74.51" x2="269.96" y2="75.89"/><line x1="232.74" y1="75.89" x2="269.96" y2="75.89"/><line x1="269.96" y1="70.38" x2="269.96" y2="74.51"/><line x1="256.18" y1="177.89" x2="256.18" y2="186.16"/><line x1="237.57" y1="35.92" x2="254.11" y2="44.19"/><line x1="232.74" y1="74.51" x2="232.74" y2="72.45"/><line x1="275.47" y1="111.73" x2="271.34" y2="111.73"/><line x1="243.77" y1="82.78" x2="253.42" y2="82.78"/><line x1="232.74" y1="81.41" x2="232.74" y2="75.89"/><line x1="254.8" y1="108.97" x2="254.8" y2="114.49"/><line x1="255.49" y1="114.49" x2="255.49" y2="108.97"/><line x1="231.36" y1="72.45" x2="232.74" y2="72.45"/><line x1="231.02" y1="72.1" x2="221.72" y2="81.41"/><line x1="231.36" y1="81.41" x2="221.72" y2="81.41"/><line x1="230.68" y1="71.76" x2="231.02" y2="72.1"/><line x1="221.72" y1="72.45" x2="222.41" y2="71.76"/><line x1="220.34" y1="72.45" x2="221.72" y2="72.45"/><line x1="269.96" y1="75.89" x2="269.96" y2="80.03"/><line x1="219.65" y1="70.38" x2="219.65" y2="71.76"/><line x1="132.12" y1="20.76" x2="214.82" y2="20.76"/><line x1="236.88" y1="20.76" x2="287.88" y2="20.76"/><line x1="233.43" y1="70.38" x2="232.74" y2="69.69"/><line x1="232.74" y1="75.89" x2="232.74" y2="74.51"/><line x1="253.42" y1="81.41" x2="243.77" y2="81.41"/><line x1="154.18" y1="84.16" x2="165.2" y2="84.16"/><line x1="220.34" y1="97.95" x2="220.34" y2="107.59"/><line x1="221.72" y1="107.59" x2="221.72" y2="97.95"/><line x1="225.85" y1="107.59" x2="221.72" y2="107.59"/><line x1="232.74" y1="95.19" x2="232.74" y2="82.78"/><line x1="232.74" y1="82.78" x2="242.39" y2="82.78"/><line x1="243.77" y1="96.57" x2="243.77" y2="82.78"/><line x1="270.65" y1="84.85" x2="258.24" y2="97.26"/><line x1="269.96" y1="84.16" x2="270.65" y2="84.85"/><line x1="272.72" y1="86.92" x2="258.93" y2="100.7"/><line x1="270.65" y1="84.85" x2="272.72" y2="86.92"/><line x1="272.72" y1="86.92" x2="286.5" y2="100.7"/><line x1="268.58" y1="110.35" x2="258.93" y2="100.7"/><line x1="286.5" y1="102.08" x2="278.23" y2="110.35"/><line x1="254.8" y1="93.81" x2="253.42" y2="95.19"/><line x1="254.8" y1="95.19" x2="254.8" y2="93.81"/><line x1="254.8" y1="93.81" x2="254.8" y2="82.78"/><line x1="269.96" y1="122.76" x2="276.85" y2="115.86"/><line x1="276.85" y1="133.78" x2="269.96" y2="140.68"/><line x1="197.59" y1="44.19" x2="214.14" y2="35.92"/><line x1="198.28" y1="53.49" x2="202.42" y2="55.22"/><line x1="192.43" y1="59.35" x2="194.15" y2="55.22"/><line x1="198.28" y1="65.21" x2="194.15" y2="63.49"/><line x1="256.18" y1="216.49" x2="250.66" y2="216.49"/><line x1="204.14" y1="59.35" x2="202.42" y2="63.49"/><line x1="192.77" y1="53.84" x2="190.44" y2="59.35"/><line x1="192.77" y1="64.86" x2="198.28" y2="67.19"/><line x1="203.8" y1="53.84" x2="198.28" y2="51.6"/><line x1="256.18" y1="219.24" x2="256.18" y2="216.49"/><line x1="242.39" y1="82.78" x2="242.39" y2="96.57"/><line x1="231.36" y1="82.78" x2="231.36" y2="95.19"/><line x1="271.34" y1="113.11" x2="275.47" y2="113.11"/><line x1="265.82" y1="82.78" x2="254.8" y2="93.81"/><line x1="250.66" y1="219.24" x2="256.18" y2="219.24"/><line x1="203.8" y1="64.86" x2="206.04" y2="59.35"/><line x1="258.93" y1="188.92" x2="258.93" y2="175.14"/><line x1="202.42" y1="55.22" x2="204.14" y2="59.35"/><line x1="194.15" y1="55.22" x2="198.28" y2="53.49"/><line x1="202.42" y1="63.49" x2="198.28" y2="65.21"/><line x1="220.34" y1="48.32" x2="220.34" y2="69.69"/><line x1="250.66" y1="216.49" x2="250.66" y2="219.24"/><line x1="283.74" y1="197.19" x2="280.99" y2="197.19"/><line x1="283.74" y1="202.7" x2="283.74" y2="197.19"/><line x1="280.99" y1="202.7" x2="283.74" y2="202.7"/><line x1="280.99" y1="197.19" x2="280.99" y2="202.7"/><line x1="194.15" y1="63.49" x2="192.43" y2="59.35"/><line x1="203.8" y1="161.35" x2="201.04" y2="161.35"/><line x1="203.8" y1="166.86" x2="203.8" y2="161.35"/><line x1="201.04" y1="166.86" x2="203.8" y2="166.86"/><line x1="201.04" y1="161.35" x2="201.04" y2="166.86"/><line x1="242.39" y1="175.14" x2="242.39" y2="180.65"/><line x1="247.91" y1="180.65" x2="247.91" y2="175.14"/><line x1="242.39" y1="180.65" x2="247.91" y2="180.65"/><line x1="221.72" y1="69.69" x2="220.34" y2="69.69"/><line x1="230.68" y1="70.38" x2="230.68" y2="71.76"/><line x1="222.41" y1="70.38" x2="221.72" y2="69.69"/><line x1="231.36" y1="69.69" x2="230.68" y2="70.38"/><line x1="287.88" y1="20.76" x2="287.88" y2="81.41"/><line x1="231.36" y1="72.45" x2="231.36" y2="81.41"/><line x1="188.64" y1="53.15" x2="197.59" y2="44.19"/><line x1="220.34" y1="48.32" x2="220.34" y2="42.81"/><line x1="198.28" y1="51.6" x2="192.77" y2="53.84"/><line x1="231.02" y1="72.1" x2="231.36" y2="72.45"/><line x1="180.36" y1="84.16" x2="180.36" y2="69.69"/><line x1="214.82" y1="42.81" x2="214.82" y2="48.32"/><line x1="232.74" y1="69.69" x2="231.36" y2="69.69"/><line x1="230.68" y1="70.38" x2="222.41" y2="70.38"/><line x1="232.74" y1="72.45" x2="233.43" y2="71.76"/><line x1="180.36" y1="69.69" x2="188.64" y2="53.15"/><line x1="221.72" y1="69.69" x2="221.72" y2="44.19"/><line x1="214.82" y1="48.32" x2="220.34" y2="48.32"/><line x1="271.34" y1="69.69" x2="271.34" y2="81.41"/><line x1="254.11" y1="44.19" x2="263.07" y2="53.15"/><line x1="271.34" y1="144.81" x2="275.47" y2="144.81"/><line x1="261.69" y1="53.84" x2="269.96" y2="70.38"/><line x1="253.42" y1="45.57" x2="261.69" y2="53.84"/><line x1="268.58" y1="84.16" x2="256.86" y2="95.88"/><line x1="236.88" y1="37.3" x2="238.26" y2="37.99"/><line x1="269.96" y1="131.03" x2="269.96" y2="125.51"/><line x1="263.07" y1="53.15" x2="271.34" y2="69.69"/><line x1="198.28" y1="45.57" x2="214.82" y2="37.3"/><line x1="190.01" y1="53.84" x2="198.28" y2="45.57"/><line x1="272.03" y1="83.47" x2="270.65" y2="84.85"/><line x1="181.74" y1="70.38" x2="190.01" y2="53.84"/><line x1="181.74" y1="84.16" x2="181.74" y2="70.38"/><line x1="214.14" y1="35.92" x2="214.82" y2="35.92"/><line x1="236.88" y1="35.92" x2="237.57" y2="35.92"/><line x1="276.85" y1="125.51" x2="276.85" y2="131.03"/><line x1="264.45" y1="81.41" x2="254.8" y2="81.41"/><line x1="254.8" y1="82.78" x2="264.45" y2="82.78"/><line x1="253.42" y1="82.78" x2="253.42" y2="95.19"/><line x1="154.18" y1="81.41" x2="148.66" y2="81.41"/><line x1="154.18" y1="89.68" x2="165.2" y2="89.68"/><line x1="154.18" y1="86.23" x2="165.2" y2="86.23"/><line x1="274.09" y1="85.54" x2="272.72" y2="86.92"/><line x1="192.77" y1="136.54" x2="192.77" y2="120"/><line x1="260.31" y1="147.57" x2="260.31" y2="153.08"/><line x1="191.39" y1="120" x2="191.39" y2="135.16"/><line x1="259.62" y1="123.45" x2="259.62" y2="128.96"/><line x1="242.39" y1="81.41" x2="232.74" y2="81.41"/><line x1="212.07" y1="120" x2="218.96" y2="120"/><line x1="205.18" y1="108.97" x2="220.34" y2="108.97"/><line x1="220.34" y1="108.97" x2="220.34" y2="115.86"/><line x1="199.66" y1="60.73" x2="200.18" y2="59.35"/><line x1="198.97" y1="108.97" x2="192.08" y2="108.97"/><line x1="275.47" y1="143.43" x2="271.34" y2="143.43"/><line x1="233.43" y1="71.76" x2="233.43" y2="70.38"/><line x1="190.44" y1="59.35" x2="192.77" y2="64.86"/><line x1="238.26" y1="37.99" x2="253.42" y2="45.57"/><line x1="198.28" y1="67.19" x2="203.8" y2="64.86"/><line x1="222.41" y1="71.76" x2="222.41" y2="70.38"/><line x1="221.72" y1="72.45" x2="221.72" y2="81.41"/><line x1="221.72" y1="44.19" x2="238.26" y2="44.19"/><line x1="206.04" y1="59.35" x2="203.8" y2="53.84"/><line x1="220.34" y1="42.81" x2="231.36" y2="42.81"/><line x1="238.26" y1="44.19" x2="238.26" y2="37.99"/><line x1="222.41" y1="71.76" x2="230.68" y2="71.76"/><line x1="220.34" y1="69.69" x2="219.65" y2="70.38"/><line x1="205.18" y1="96.57" x2="210" y2="86.92"/><line x1="132.12" y1="53.84" x2="132.12" y2="20.76"/><line x1="199.66" y1="103.46" x2="199.66" y2="108.97"/><line x1="198.28" y1="102.08" x2="199.66" y2="103.46"/><line x1="192.77" y1="102.08" x2="198.28" y2="102.08"/><line x1="191.39" y1="103.46" x2="192.77" y2="102.08"/><line x1="191.39" y1="108.97" x2="191.39" y2="103.46"/><line x1="190.01" y1="102.77" x2="190.01" y2="108.97"/><line x1="198.97" y1="100.7" x2="192.08" y2="100.7"/><line x1="192.08" y1="100.7" x2="190.01" y2="102.77"/><line x1="201.04" y1="108.97" x2="201.04" y2="102.77"/><line x1="201.04" y1="102.77" x2="198.97" y2="100.7"/><line x1="167.96" y1="114.49" x2="167.96" y2="117.24"/><line x1="167.96" y1="117.24" x2="170.72" y2="117.24"/><line x1="170.72" y1="117.24" x2="170.72" y2="114.49"/><line x1="170.72" y1="114.49" x2="167.96" y2="114.49"/><line x1="167.27" y1="113.8" x2="167.27" y2="117.93"/><line x1="167.27" y1="117.93" x2="171.41" y2="117.93"/><line x1="171.41" y1="117.93" x2="171.41" y2="113.8"/><line x1="171.41" y1="113.8" x2="167.27" y2="113.8"/><line x1="185.88" y1="115.86" x2="174.85" y2="115.86"/><line x1="174.85" y1="115.86" x2="174.85" y2="108.97"/><line x1="174.85" y1="108.97" x2="163.82" y2="108.97"/><line x1="198.28" y1="60.39" x2="198.97" y2="60.04"/><line x1="198.28" y1="57.46" x2="196.91" y2="57.97"/><line x1="163.82" y1="108.97" x2="163.82" y2="115.86"/><line x1="163.82" y1="115.86" x2="156.93" y2="115.86"/><line x1="156.93" y1="115.86" x2="155.55" y2="114.49"/><line x1="155.55" y1="114.49" x2="155.55" y2="104.84"/><line x1="155.55" y1="104.84" x2="154.18" y2="103.46"/><line x1="148.66" y1="103.46" x2="148.66" y2="97.95"/><line x1="154.18" y1="103.46" x2="148.66" y2="103.46"/><line x1="148.66" y1="104.84" x2="148.66" y2="103.46"/><line x1="148.66" y1="104.84" x2="153.49" y2="104.84"/><line x1="153.49" y1="104.84" x2="154.18" y2="105.53"/><line x1="154.18" y1="105.53" x2="154.18" y2="115.18"/><line x1="154.18" y1="115.18" x2="156.24" y2="117.24"/><line x1="156.24" y1="117.24" x2="165.2" y2="117.24"/><line x1="165.2" y1="117.24" x2="165.2" y2="110.35"/><line x1="165.2" y1="110.35" x2="173.47" y2="110.35"/><line x1="199.66" y1="57.97" x2="198.28" y2="57.46"/><line x1="197.25" y1="59.35" x2="197.59" y2="60.04"/><line x1="173.47" y1="110.35" x2="173.47" y2="117.24"/><line x1="173.47" y1="117.24" x2="185.88" y2="117.24"/><line x1="227.23" y1="96.57" x2="221.72" y2="96.57"/><line x1="220.34" y1="96.57" x2="205.18" y2="96.57"/><line x1="220.34" y1="82.78" x2="220.34" y2="96.57"/><line x1="221.72" y1="115.18" x2="221.72" y2="108.97"/><line x1="221.72" y1="96.57" x2="221.72" y2="82.78"/><line x1="221.72" y1="97.95" x2="225.85" y2="97.95"/></g><g stroke="#d3b15b" stroke-width="2.4" stroke-linecap="round"><line x1="275.47" y1="155.84" x2="264.45" y2="155.84"/><line x1="258.93" y1="146.88" x2="258.93" y2="147.57"/><line x1="278.23" y1="153.08" x2="275.47" y2="155.84"/><line x1="278.23" y1="147.57" x2="278.23" y2="153.08"/><line x1="275.47" y1="144.81" x2="278.23" y2="147.57"/><line x1="245.15" y1="120" x2="247.91" y2="120"/><line x1="264.45" y1="155.84" x2="261.69" y2="153.08"/><line x1="264.45" y1="144.81" x2="271.34" y2="144.81"/><line x1="261.69" y1="147.57" x2="264.45" y2="144.81"/><line x1="198.28" y1="120" x2="198.28" y2="117.24"/><line x1="203.8" y1="117.24" x2="203.8" y2="120"/><line x1="203.8" y1="120" x2="209.31" y2="120"/><line x1="198.28" y1="117.24" x2="203.8" y2="117.24"/><line x1="260.31" y1="147.57" x2="261.69" y2="147.57"/><line x1="261.69" y1="153.08" x2="260.31" y2="153.08"/><line x1="238.26" y1="120" x2="243.77" y2="120"/><line x1="227.23" y1="120" x2="227.23" y2="117.24"/><line x1="232.74" y1="117.24" x2="232.74" y2="120"/><line x1="232.74" y1="120" x2="238.26" y2="120"/><line x1="227.23" y1="117.24" x2="232.74" y2="117.24"/><line x1="247.91" y1="139.3" x2="247.91" y2="140.68"/><line x1="243.77" y1="120" x2="245.15" y2="120"/><line x1="249.97" y1="137.23" x2="250.66" y2="137.23"/><line x1="218.96" y1="117.24" x2="218.96" y2="119.31"/><line x1="192.08" y1="145.16" x2="192.08" y2="142.74"/><line x1="187.26" y1="150.67" x2="186.57" y2="149.98"/><line x1="258.93" y1="144.12" x2="258.93" y2="146.88"/><line x1="253.42" y1="155.84" x2="253.42" y2="154.46"/><line x1="258.93" y1="153.08" x2="258.93" y2="155.84"/><line x1="258.93" y1="155.84" x2="253.42" y2="155.84"/><line x1="250.66" y1="135.85" x2="249.97" y2="135.85"/><line x1="249.97" y1="135.85" x2="249.97" y2="133.78"/><line x1="247.91" y1="133.78" x2="247.91" y2="139.3"/><line x1="186.57" y1="149.98" x2="186.57" y2="145.84"/><line x1="250.66" y1="137.23" x2="250.66" y2="135.85"/><line x1="186.57" y1="145.84" x2="187.26" y2="145.16"/><line x1="192.08" y1="150.67" x2="187.26" y2="150.67"/><line x1="187.26" y1="145.16" x2="192.08" y2="145.16"/><line x1="249.97" y1="133.78" x2="250.66" y2="133.09"/><line x1="249.97" y1="139.3" x2="249.97" y2="137.23"/><line x1="250.66" y1="139.99" x2="249.97" y2="139.3"/><line x1="250.66" y1="141.36" x2="250.66" y2="139.99"/><line x1="249.97" y1="142.05" x2="250.66" y2="141.36"/><line x1="183.81" y1="153.08" x2="181.74" y2="153.08"/><line x1="143.15" y1="64.86" x2="143.15" y2="64.18"/><line x1="143.15" y1="76.58" x2="143.15" y2="75.89"/><line x1="249.28" y1="142.05" x2="249.97" y2="142.05"/><line x1="247.91" y1="140.68" x2="249.28" y2="142.05"/><line x1="247.91" y1="132.41" x2="247.91" y2="133.78"/><line x1="143.15" y1="64.18" x2="143.15" y2="59.35"/><line x1="147.97" y1="59.35" x2="148.66" y2="59.35"/><line x1="249.28" y1="131.03" x2="247.91" y2="132.41"/><line x1="249.97" y1="131.03" x2="249.28" y2="131.03"/><line x1="250.66" y1="131.72" x2="249.97" y2="131.03"/><line x1="171.41" y1="81.41" x2="170.72" y2="81.41"/><line x1="147.97" y1="81.41" x2="143.15" y2="81.41"/><line x1="250.66" y1="133.09" x2="250.66" y2="131.72"/><line x1="241.01" y1="116.55" x2="241.01" y2="116.21"/><line x1="246.53" y1="116.55" x2="241.01" y2="116.55"/><line x1="148.66" y1="81.41" x2="147.97" y2="81.41"/><line x1="241.01" y1="115.86" x2="236.19" y2="115.86"/><line x1="246.53" y1="115.86" x2="246.53" y2="116.21"/><line x1="225.85" y1="155.84" x2="225.85" y2="158.59"/><line x1="214.82" y1="158.59" x2="214.82" y2="155.84"/><line x1="225.85" y1="154.46" x2="225.85" y2="155.84"/><line x1="214.82" y1="153.08" x2="209.31" y2="153.08"/><line x1="225.85" y1="153.08" x2="225.85" y2="154.46"/><line x1="214.82" y1="154.46" x2="214.82" y2="153.08"/><line x1="214.82" y1="155.84" x2="214.82" y2="154.46"/><line x1="170.72" y1="153.08" x2="159.69" y2="147.57"/><line x1="186.57" y1="120" x2="187.26" y2="120"/><line x1="258.93" y1="120" x2="258.93" y2="122.76"/><line x1="209.31" y1="153.08" x2="209.31" y2="154.46"/><line x1="185.88" y1="110.35" x2="185.88" y2="115.86"/><line x1="198.28" y1="153.08" x2="192.77" y2="153.08"/><line x1="192.77" y1="153.08" x2="192.08" y2="153.08"/><line x1="253.42" y1="154.46" x2="242.39" y2="154.46"/><line x1="231.36" y1="154.46" x2="231.36" y2="153.08"/><line x1="231.36" y1="153.08" x2="225.85" y2="153.08"/><line x1="242.39" y1="154.46" x2="231.36" y2="154.46"/><line x1="210" y1="120" x2="212.07" y2="120"/><line x1="221.03" y1="120" x2="221.72" y2="120"/><line x1="221.72" y1="120" x2="227.23" y2="120"/><line x1="209.31" y1="120" x2="210" y2="120"/><line x1="192.77" y1="120" x2="198.28" y2="120"/><line x1="191.39" y1="120" x2="192.77" y2="120"/><line x1="246.53" y1="116.21" x2="246.53" y2="116.55"/><line x1="258.93" y1="123.45" x2="259.62" y2="123.45"/><line x1="260.31" y1="153.08" x2="258.93" y2="153.08"/><line x1="253.42" y1="119.31" x2="253.42" y2="120"/><line x1="253.42" y1="115.86" x2="253.42" y2="118.62"/><line x1="231.36" y1="99.32" x2="239.64" y2="99.32"/><line x1="253.42" y1="120" x2="258.93" y2="120"/><line x1="253.42" y1="99.32" x2="253.42" y2="103.46"/><line x1="253.42" y1="118.62" x2="253.42" y2="119.31"/><line x1="247.91" y1="118.62" x2="247.91" y2="115.86"/><line x1="247.91" y1="120" x2="247.91" y2="119.31"/><line x1="247.91" y1="115.86" x2="246.53" y2="115.86"/><line x1="247.91" y1="119.31" x2="247.91" y2="118.62"/><line x1="253.42" y1="114.49" x2="253.42" y2="115.86"/><line x1="254.8" y1="103.46" x2="254.8" y2="108.97"/><line x1="254.8" y1="114.49" x2="253.42" y2="114.49"/><line x1="253.42" y1="103.46" x2="254.8" y2="103.46"/><line x1="239.64" y1="99.32" x2="247.91" y2="99.32"/><line x1="247.91" y1="99.32" x2="253.42" y2="99.32"/><line x1="148.66" y1="128.96" x2="146.59" y2="128.96"/><line x1="146.59" y1="93.81" x2="148.66" y2="93.81"/><line x1="146.59" y1="128.96" x2="146.59" y2="93.81"/><line x1="231.36" y1="101.39" x2="231.36" y2="99.32"/><line x1="218.96" y1="119.31" x2="218.96" y2="120"/><line x1="235.5" y1="115.86" x2="231.36" y2="115.86"/><line x1="231.36" y1="111.73" x2="231.36" y2="111.04"/><line x1="231.36" y1="111.04" x2="231.36" y2="106.91"/><line x1="231.36" y1="115.86" x2="231.36" y2="111.73"/><line x1="236.19" y1="115.86" x2="235.5" y2="115.86"/><line x1="223.09" y1="114.49" x2="221.72" y2="115.18"/><line x1="228.61" y1="101.39" x2="231.36" y2="101.39"/><line x1="231.36" y1="106.91" x2="228.61" y2="106.91"/><line x1="227.92" y1="101.39" x2="228.61" y2="101.39"/><line x1="228.61" y1="106.91" x2="227.92" y2="106.91"/><line x1="227.92" y1="106.91" x2="225.85" y2="106.91"/><line x1="225.85" y1="97.95" x2="225.85" y2="101.39"/><line x1="225.85" y1="106.91" x2="225.85" y2="107.59"/><line x1="212.07" y1="117.24" x2="212.07" y2="116.55"/><line x1="272.72" y1="194.43" x2="283.74" y2="194.43"/><line x1="206.55" y1="114.49" x2="205.18" y2="108.97"/><line x1="203.8" y1="107.59" x2="203.8" y2="108.97"/><line x1="181.74" y1="153.08" x2="170.72" y2="153.08"/><line x1="205.18" y1="108.97" x2="205.18" y2="107.59"/><line x1="205.18" y1="107.59" x2="203.8" y2="107.59"/><line x1="181.74" y1="142.05" x2="181.74" y2="142.74"/><line x1="203.8" y1="97.95" x2="205.18" y2="97.95"/><line x1="212.07" y1="119.31" x2="212.07" y2="117.24"/><line x1="220.34" y1="82.78" x2="221.72" y2="82.78"/><line x1="221.72" y1="82.78" x2="221.72" y2="81.41"/><line x1="210.69" y1="86.92" x2="210.69" y2="85.2"/><line x1="168.65" y1="86.92" x2="175.54" y2="86.92"/><line x1="210.69" y1="85.2" x2="210.69" y2="84.16"/><line x1="278.23" y1="128.27" x2="276.85" y2="131.03"/><line x1="205.18" y1="97.95" x2="205.18" y2="96.57"/><line x1="220.34" y1="81.41" x2="220.34" y2="82.78"/><line x1="228.61" y1="95.19" x2="227.23" y2="96.57"/><line x1="242.39" y1="96.57" x2="241.01" y2="97.95"/><line x1="243.77" y1="82.78" x2="243.77" y2="81.41"/><line x1="182.43" y1="142.74" x2="182.43" y2="142.05"/><line x1="203.8" y1="108.97" x2="201.73" y2="108.97"/><line x1="159.69" y1="147.57" x2="154.18" y2="142.05"/><line x1="154.18" y1="142.05" x2="148.66" y2="131.03"/><line x1="148.66" y1="131.03" x2="148.66" y2="128.96"/><line x1="185.88" y1="153.08" x2="183.81" y2="153.08"/><line x1="182.43" y1="130.34" x2="186.57" y2="120"/><line x1="181.74" y1="130.34" x2="181.74" y2="131.03"/><line x1="182.43" y1="131.03" x2="182.43" y2="130.34"/><line x1="182.43" y1="142.05" x2="181.74" y2="142.05"/><line x1="187.26" y1="108.97" x2="185.88" y2="110.35"/><line x1="181.74" y1="131.03" x2="182.43" y2="131.03"/><line x1="181.74" y1="142.74" x2="185.88" y2="153.08"/><line x1="191.39" y1="135.16" x2="188.64" y2="135.16"/><line x1="185.88" y1="120" x2="181.74" y2="130.34"/><line x1="176.23" y1="75.89" x2="176.23" y2="76.58"/><line x1="143.15" y1="70.38" x2="142.46" y2="70.38"/><line x1="136.95" y1="64.86" x2="142.46" y2="64.86"/><line x1="136.95" y1="70.38" x2="136.95" y2="64.86"/><line x1="142.46" y1="70.38" x2="136.95" y2="70.38"/><line x1="143.15" y1="75.89" x2="141.77" y2="73.14"/><line x1="203.8" y1="96.57" x2="203.8" y2="97.95"/><line x1="141.77" y1="73.14" x2="143.15" y2="70.38"/><line x1="151.42" y1="82.78" x2="148.66" y2="81.41"/><line x1="154.18" y1="81.41" x2="151.42" y2="82.78"/><line x1="176.23" y1="64.18" x2="176.23" y2="64.86"/><line x1="170.72" y1="81.41" x2="167.96" y2="82.78"/><line x1="167.96" y1="82.78" x2="165.2" y2="81.41"/><line x1="171.41" y1="59.35" x2="176.23" y2="59.35"/><line x1="176.23" y1="76.58" x2="176.23" y2="81.41"/><line x1="170.72" y1="59.35" x2="171.41" y2="59.35"/><line x1="176.23" y1="64.86" x2="177.61" y2="70.38"/><line x1="177.61" y1="70.38" x2="176.23" y2="75.89"/><line x1="159.69" y1="57.97" x2="170.72" y2="59.35"/><line x1="148.66" y1="59.35" x2="159.69" y2="57.97"/><line x1="142.46" y1="64.86" x2="143.15" y2="64.86"/><line x1="187.26" y1="120" x2="191.39" y2="120"/><line x1="241.01" y1="116.21" x2="241.01" y2="115.86"/><line x1="290.64" y1="18" x2="287.88" y2="81.41"/><line x1="148.66" y1="93.81" x2="150.04" y2="92.43"/><line x1="205.18" y1="96.57" x2="203.8" y2="96.57"/><line x1="225.85" y1="101.39" x2="227.92" y2="101.39"/><line x1="210" y1="86.92" x2="210.69" y2="86.92"/><line x1="203.8" y1="84.16" x2="203.8" y2="86.92"/><line x1="177.61" y1="86.92" x2="181.74" y2="86.92"/><line x1="261.69" y1="205.46" x2="258.93" y2="208.22"/><line x1="177.61" y1="87.61" x2="177.61" y2="86.92"/><line x1="176.23" y1="87.61" x2="177.61" y2="87.61"/><line x1="176.23" y1="86.92" x2="176.23" y2="87.61"/><line x1="209.31" y1="154.46" x2="198.28" y2="154.46"/><line x1="175.54" y1="86.92" x2="176.23" y2="86.92"/><line x1="208.62" y1="86.92" x2="210" y2="86.92"/><line x1="256.18" y1="186.16" x2="253.42" y2="186.16"/><line x1="181.74" y1="86.92" x2="181.74" y2="84.16"/><line x1="203.8" y1="86.92" x2="208.62" y2="86.92"/><line x1="236.88" y1="35.92" x2="236.88" y2="20.76"/><line x1="283.74" y1="194.43" x2="286.5" y2="197.19"/><line x1="231.36" y1="82.78" x2="232.74" y2="82.78"/><line x1="231.36" y1="81.41" x2="231.36" y2="82.78"/><line x1="231.36" y1="95.19" x2="228.61" y2="95.19"/><line x1="232.74" y1="95.19" x2="231.36" y2="95.19"/><line x1="232.74" y1="81.41" x2="231.36" y2="81.41"/><line x1="286.5" y1="102.08" x2="287.88" y2="103.46"/><line x1="253.42" y1="81.41" x2="253.42" y2="82.78"/><line x1="245.15" y1="97.95" x2="243.77" y2="96.57"/><line x1="242.39" y1="81.41" x2="242.39" y2="82.78"/><line x1="286.5" y1="100.7" x2="286.5" y2="102.08"/><line x1="267.2" y1="81.41" x2="264.45" y2="81.41"/><line x1="255.49" y1="114.49" x2="254.8" y2="114.49"/><line x1="254.8" y1="108.97" x2="255.49" y2="108.97"/><line x1="261.69" y1="108.97" x2="261.69" y2="114.49"/><line x1="261.69" y1="114.49" x2="255.49" y2="114.49"/><line x1="255.49" y1="108.97" x2="261.69" y2="108.97"/><line x1="269.96" y1="191.68" x2="272.72" y2="194.43"/><line x1="180.36" y1="84.16" x2="178.99" y2="82.78"/><line x1="247.91" y1="175.14" x2="250.66" y2="177.89"/><line x1="221.72" y1="81.41" x2="220.34" y2="81.41"/><line x1="210.69" y1="84.16" x2="209.31" y2="84.16"/><line x1="276.85" y1="133.78" x2="276.85" y2="142.05"/><line x1="250.66" y1="177.89" x2="256.18" y2="177.89"/><line x1="269.96" y1="125.51" x2="269.96" y2="122.76"/><line x1="178.99" y1="82.78" x2="178.99" y2="55.22"/><line x1="214.82" y1="20.76" x2="214.82" y2="35.92"/><line x1="279.61" y1="111.73" x2="278.23" y2="110.35"/><line x1="232.74" y1="82.78" x2="232.74" y2="81.41"/><line x1="243.77" y1="81.41" x2="242.39" y2="81.41"/><line x1="269.96" y1="80.03" x2="268.58" y2="80.03"/><line x1="269.96" y1="110.35" x2="268.58" y2="110.35"/><line x1="154.18" y1="89.68" x2="154.18" y2="86.23"/><line x1="150.04" y1="92.43" x2="154.18" y2="92.43"/><line x1="167.96" y1="86.92" x2="168.65" y2="86.92"/><line x1="165.2" y1="89.68" x2="167.96" y2="89.68"/><line x1="165.2" y1="86.23" x2="165.2" y2="89.68"/><line x1="154.18" y1="92.43" x2="154.18" y2="89.68"/><line x1="165.2" y1="84.16" x2="165.2" y2="86.23"/><line x1="167.96" y1="89.68" x2="167.96" y2="86.92"/><line x1="225.85" y1="107.59" x2="225.85" y2="108.97"/><line x1="235.5" y1="97.95" x2="232.74" y2="95.19"/><line x1="253.42" y1="95.19" x2="250.66" y2="97.95"/><line x1="243.77" y1="96.57" x2="242.39" y2="96.57"/><line x1="242.39" y1="82.78" x2="243.77" y2="82.78"/><line x1="254.8" y1="95.19" x2="253.42" y2="95.19"/><line x1="269.96" y1="122.76" x2="269.96" y2="114.49"/><line x1="269.96" y1="140.68" x2="269.96" y2="131.03"/><line x1="287.88" y1="99.32" x2="286.5" y2="100.7"/><line x1="269.96" y1="142.05" x2="269.96" y2="140.68"/><line x1="267.2" y1="111.73" x2="257.55" y2="102.08"/><line x1="241.01" y1="97.95" x2="235.5" y2="97.95"/><line x1="268.58" y1="80.03" x2="267.2" y2="81.41"/><line x1="258.93" y1="188.92" x2="256.18" y2="186.16"/><line x1="256.18" y1="177.89" x2="258.93" y2="175.14"/><line x1="258.93" y1="175.14" x2="258.93" y2="172.38"/><line x1="220.34" y1="42.81" x2="220.34" y2="41.43"/><line x1="287.88" y1="81.41" x2="271.34" y2="81.41"/><line x1="256.18" y1="222" x2="250.66" y2="222"/><line x1="231.36" y1="41.43" x2="231.36" y2="42.81"/><line x1="214.82" y1="35.92" x2="214.82" y2="37.3"/><line x1="236.88" y1="42.81" x2="236.88" y2="37.3"/><line x1="214.82" y1="42.81" x2="220.34" y2="42.81"/><line x1="236.88" y1="37.3" x2="236.88" y2="35.92"/><line x1="271.34" y1="81.41" x2="269.96" y2="80.03"/><line x1="250.66" y1="97.95" x2="245.15" y2="97.95"/><line x1="276.85" y1="125.51" x2="278.23" y2="128.27"/><line x1="269.96" y1="131.03" x2="268.58" y2="128.27"/><line x1="276.85" y1="131.03" x2="276.85" y2="133.78"/><line x1="276.85" y1="115.86" x2="276.85" y2="125.51"/><line x1="214.82" y1="37.3" x2="214.82" y2="42.81"/><line x1="256.86" y1="95.88" x2="256.18" y2="95.19"/><line x1="276.85" y1="142.05" x2="275.47" y2="143.43"/><line x1="269.96" y1="114.49" x2="271.34" y2="113.11"/><line x1="276.85" y1="114.49" x2="276.85" y2="115.86"/><line x1="275.47" y1="113.11" x2="276.85" y2="114.49"/><line x1="271.34" y1="113.11" x2="271.34" y2="111.73"/><line x1="275.47" y1="111.73" x2="275.47" y2="113.11"/><line x1="271.34" y1="143.43" x2="269.96" y2="142.05"/><line x1="181.74" y1="84.16" x2="180.36" y2="84.16"/><line x1="268.58" y1="128.27" x2="269.96" y2="125.51"/><line x1="254.8" y1="82.78" x2="254.8" y2="81.41"/><line x1="264.45" y1="81.41" x2="264.45" y2="82.78"/><line x1="254.8" y1="81.41" x2="253.42" y2="81.41"/><line x1="253.42" y1="82.78" x2="254.8" y2="82.78"/><line x1="154.18" y1="86.23" x2="154.18" y2="84.16"/><line x1="165.2" y1="83.47" x2="165.2" y2="84.16"/><line x1="221.72" y1="115.18" x2="220.34" y2="115.86"/><line x1="154.18" y1="83.47" x2="154.18" y2="81.41"/><line x1="176.23" y1="59.35" x2="176.23" y2="64.18"/><line x1="154.18" y1="84.16" x2="154.18" y2="83.47"/><line x1="176.23" y1="81.41" x2="171.41" y2="81.41"/><line x1="143.15" y1="59.35" x2="147.97" y2="59.35"/><line x1="165.2" y1="81.41" x2="165.2" y2="83.47"/><line x1="143.15" y1="81.41" x2="143.15" y2="76.58"/><line x1="264.45" y1="82.78" x2="265.82" y2="82.78"/><line x1="256.18" y1="95.19" x2="254.8" y2="95.19"/><line x1="265.82" y1="82.78" x2="267.2" y2="82.78"/><line x1="258.93" y1="97.95" x2="258.24" y2="97.26"/><line x1="267.89" y1="83.47" x2="268.58" y2="84.16"/><line x1="267.2" y1="82.78" x2="267.89" y2="83.47"/><line x1="258.93" y1="100.7" x2="258.93" y2="97.95"/><line x1="268.58" y1="84.16" x2="269.96" y2="84.16"/><line x1="269.96" y1="84.16" x2="271.34" y2="82.78"/><line x1="271.34" y1="82.78" x2="272.03" y2="83.47"/><line x1="268.58" y1="110.35" x2="267.2" y2="111.73"/><line x1="272.03" y1="83.47" x2="274.09" y2="85.54"/><line x1="257.55" y1="102.08" x2="258.93" y2="100.7"/><line x1="192.08" y1="153.08" x2="192.08" y2="150.67"/><line x1="287.88" y1="103.46" x2="279.61" y2="111.73"/><line x1="258.24" y1="97.26" x2="256.86" y2="95.88"/><line x1="274.09" y1="85.54" x2="287.88" y2="99.32"/><line x1="187.26" y1="142.74" x2="182.43" y2="142.74"/><line x1="271.34" y1="144.81" x2="271.34" y2="143.43"/><line x1="258.93" y1="143.43" x2="258.93" y2="144.12"/><line x1="258.93" y1="147.57" x2="260.31" y2="147.57"/><line x1="259.62" y1="143.43" x2="258.93" y2="143.43"/><line x1="258.93" y1="122.76" x2="258.93" y2="123.45"/><line x1="261" y1="123.45" x2="261" y2="128.96"/><line x1="259.62" y1="128.96" x2="258.93" y2="128.96"/><line x1="258.93" y1="128.96" x2="258.93" y2="129.65"/><line x1="259.62" y1="129.65" x2="259.62" y2="143.43"/><line x1="258.93" y1="129.65" x2="259.62" y2="129.65"/><line x1="192.08" y1="142.74" x2="192.77" y2="142.74"/><line x1="192.77" y1="142.74" x2="192.77" y2="142.05"/><line x1="192.77" y1="142.05" x2="192.77" y2="136.54"/><line x1="187.26" y1="142.05" x2="187.26" y2="142.74"/><line x1="275.47" y1="143.43" x2="275.47" y2="144.81"/><line x1="198.28" y1="154.46" x2="198.28" y2="153.08"/><line x1="188.64" y1="135.16" x2="187.26" y2="136.54"/><line x1="192.77" y1="136.54" x2="191.39" y2="135.16"/><line x1="187.26" y1="136.54" x2="187.26" y2="142.05"/><line x1="261" y1="128.96" x2="259.62" y2="128.96"/><line x1="259.62" y1="123.45" x2="261" y2="123.45"/><line x1="218.96" y1="120" x2="221.03" y2="120"/><line x1="212.07" y1="120" x2="212.07" y2="119.31"/><line x1="218.96" y1="116.55" x2="218.96" y2="117.24"/><line x1="220.34" y1="115.86" x2="218.96" y2="116.55"/><line x1="212.07" y1="116.55" x2="206.55" y2="114.49"/><line x1="225.85" y1="108.97" x2="223.09" y2="114.49"/><line x1="198.28" y1="113.8" x2="197.59" y2="114.49"/><line x1="198.28" y1="109.66" x2="198.28" y2="113.8"/><line x1="198.97" y1="108.97" x2="198.28" y2="109.66"/><line x1="278.23" y1="110.35" x2="276.85" y2="110.35"/><line x1="271.34" y1="111.73" x2="269.96" y2="110.35"/><line x1="276.85" y1="110.35" x2="275.47" y2="111.73"/><line x1="220.34" y1="41.43" x2="231.36" y2="41.43"/><line x1="231.36" y1="42.81" x2="236.88" y2="42.81"/><line x1="286.5" y1="197.19" x2="286.5" y2="202.7"/><line x1="209.31" y1="84.16" x2="203.8" y2="84.16"/><line x1="178.99" y1="55.22" x2="177.61" y2="53.84"/><line x1="177.61" y1="53.84" x2="132.12" y2="53.84"/><line x1="132.12" y1="53.84" x2="129.36" y2="18"/><line x1="129.36" y1="18" x2="214.82" y2="20.76"/><line x1="236.88" y1="20.76" x2="290.64" y2="18"/><line x1="199.66" y1="108.97" x2="198.97" y2="108.97"/><line x1="191.39" y1="108.97" x2="190.01" y2="108.97"/><line x1="190.01" y1="108.97" x2="187.26" y2="108.97"/><line x1="201.04" y1="108.97" x2="199.66" y2="108.97"/><line x1="192.08" y1="108.97" x2="191.39" y2="108.97"/><line x1="192.77" y1="109.66" x2="192.08" y2="108.97"/><line x1="192.77" y1="113.8" x2="192.77" y2="109.66"/><line x1="193.46" y1="114.49" x2="192.77" y2="113.8"/><line x1="258.93" y1="208.22" x2="258.93" y2="219.24"/><line x1="185.88" y1="115.86" x2="185.88" y2="117.24"/><line x1="258.93" y1="219.24" x2="256.18" y2="222"/><line x1="247.91" y1="219.24" x2="247.91" y2="208.22"/><line x1="250.66" y1="222" x2="247.91" y2="219.24"/><line x1="245.15" y1="205.46" x2="223.09" y2="205.46"/><line x1="185.88" y1="117.24" x2="185.88" y2="117.93"/><line x1="185.88" y1="117.93" x2="185.88" y2="120"/><line x1="201.73" y1="108.97" x2="201.04" y2="108.97"/><line x1="247.91" y1="208.22" x2="245.15" y2="205.46"/><line x1="197.59" y1="114.49" x2="193.46" y2="114.49"/><line x1="227.23" y1="96.57" x2="225.85" y2="97.95"/><line x1="201.04" y1="158.59" x2="214.82" y2="158.59"/><line x1="198.28" y1="161.35" x2="201.04" y2="158.59"/><line x1="198.28" y1="166.86" x2="198.28" y2="161.35"/><line x1="201.04" y1="169.62" x2="198.28" y2="166.86"/><line x1="217.58" y1="169.62" x2="201.04" y2="169.62"/><line x1="220.34" y1="172.38" x2="217.58" y2="169.62"/><line x1="220.34" y1="202.7" x2="220.34" y2="172.38"/><line x1="223.09" y1="205.46" x2="220.34" y2="202.7"/><line x1="283.74" y1="205.46" x2="261.69" y2="205.46"/><line x1="286.5" y1="202.7" x2="283.74" y2="205.46"/><line x1="250.66" y1="188.92" x2="250.66" y2="191.68"/><line x1="267.2" y1="158.59" x2="269.96" y2="161.35"/><line x1="225.85" y1="158.59" x2="267.2" y2="158.59"/><line x1="234.12" y1="169.62" x2="231.36" y2="172.38"/><line x1="269.96" y1="161.35" x2="269.96" y2="191.68"/><line x1="231.36" y1="191.68" x2="234.12" y2="194.43"/><line x1="234.12" y1="194.43" x2="236.88" y2="194.43"/><line x1="256.18" y1="194.43" x2="258.93" y2="191.68"/><line x1="258.93" y1="191.68" x2="258.93" y2="188.92"/><line x1="258.93" y1="172.38" x2="256.18" y2="169.62"/><line x1="256.18" y1="169.62" x2="234.12" y2="169.62"/><line x1="250.66" y1="191.68" x2="253.42" y2="194.43"/><line x1="236.88" y1="194.43" x2="239.64" y2="191.68"/><line x1="239.64" y1="191.68" x2="239.64" y2="177.89"/><line x1="239.64" y1="177.89" x2="242.39" y2="175.14"/><line x1="242.39" y1="175.14" x2="247.91" y2="175.14"/><line x1="253.42" y1="186.16" x2="250.66" y2="188.92"/><line x1="231.36" y1="172.38" x2="231.36" y2="191.68"/><line x1="253.42" y1="194.43" x2="256.18" y2="194.43"/></g><g opacity="0.95"><circle cx="257.55" cy="186.16" r="2.2" fill="#d3b15b"/><circle cx="225.85" cy="164.11" r="2.2" fill="#d3b15b"/><circle cx="253.42" cy="199.95" r="2.2" fill="#d3b15b"/><circle cx="224.47" cy="204.08" r="2.2" fill="#d3b15b"/><circle cx="221.72" cy="201.32" r="2.2" fill="#d3b15b"/><circle cx="223.09" cy="202.7" r="2.2" fill="#d3b15b"/><circle cx="268.58" cy="162.73" r="2.2" fill="#d3b15b"/><circle cx="265.82" cy="159.97" r="2.2" fill="#d3b15b"/><circle cx="267.2" cy="161.35" r="2.2" fill="#d3b15b"/><circle cx="254.11" cy="182.03" r="2.2" fill="#d3b15b"/><circle cx="257.55" cy="177.89" r="2.2" fill="#d3b15b"/><circle cx="210.34" cy="134.82" r="2.2" fill="#d3b15b"/><circle cx="183.81" cy="72.45" r="3.2" fill="#b7493c"/><circle cx="252.04" cy="100.7" r="2.2" fill="#d3b15b"/><circle cx="185.19" cy="140.68" r="2.2" fill="#d3b15b"/><circle cx="167.96" cy="78.65" r="2.2" fill="#d3b15b"/><circle cx="212.07" cy="42.81" r="2.2" fill="#d3b15b"/><circle cx="258.93" cy="111.73" r="2.2" fill="#d3b15b"/><circle cx="253.42" cy="217.86" r="3.2" fill="#b7493c"/><circle cx="198.28" cy="59.35" r="2.2" fill="#d3b15b"/><circle cx="257.55" cy="136.54" r="2.2" fill="#d3b15b"/><circle cx="174.16" cy="73.82" r="2.2" fill="#d3b15b"/><circle cx="174.16" cy="66.93" r="2.2" fill="#d3b15b"/><circle cx="144.53" cy="66.93" r="2.2" fill="#d3b15b"/><circle cx="144.87" cy="69.34" r="2.2" fill="#d3b15b"/><circle cx="267.2" cy="78.65" r="2.2" fill="#d3b15b"/><circle cx="235.5" cy="78.65" r="2.2" fill="#d3b15b"/><circle cx="273.41" cy="88.3" r="2.2" fill="#d3b15b"/><circle cx="207.24" cy="102.77" r="2.2" fill="#d3b15b"/><circle cx="176.92" cy="144.81" r="2.2" fill="#d3b15b"/><circle cx="271.34" cy="150.32" r="2.2" fill="#d3b15b"/><circle cx="257.55" cy="180.65" r="2.2" fill="#d3b15b"/><circle cx="257.55" cy="183.41" r="2.2" fill="#d3b15b"/><circle cx="139.7" cy="67.62" r="2.2" fill="#d3b15b"/><circle cx="215.17" cy="83.47" r="2.2" fill="#d3b15b"/><circle cx="250.66" cy="72.45" r="3.2" fill="#b7493c"/><circle cx="284.43" cy="101.39" r="3.2" fill="#b7493c"/><circle cx="211.38" cy="88.99" r="3.2" fill="#b7493c"/><circle cx="182.43" cy="123.45" r="2.2" fill="#d3b15b"/><circle cx="151.42" cy="107.59" r="2.2" fill="#d3b15b"/><circle cx="272.03" cy="133.78" r="2.2" fill="#d3b15b"/><circle cx="187.26" cy="81.41" r="2.2" fill="#d3b15b"/><circle cx="192.77" cy="81.41" r="2.2" fill="#d3b15b"/><circle cx="198.28" cy="81.41" r="2.2" fill="#d3b15b"/><circle cx="246.53" cy="136.54" r="2.2" fill="#d3b15b"/><circle cx="243.77" cy="102.08" r="3.2" fill="#b7493c"/><circle cx="195.53" cy="111.73" r="2.2" fill="#d3b15b"/><circle cx="167.96" cy="62.11" r="3.2" fill="#b7493c"/><circle cx="204.49" cy="88.99" r="2.2" fill="#d3b15b"/><circle cx="201.04" cy="88.99" r="2.2" fill="#d3b15b"/><circle cx="197.59" cy="88.99" r="2.2" fill="#d3b15b"/><circle cx="194.15" cy="88.99" r="2.2" fill="#d3b15b"/><circle cx="190.7" cy="88.99" r="2.2" fill="#d3b15b"/><circle cx="187.26" cy="88.99" r="2.2" fill="#d3b15b"/><circle cx="183.81" cy="88.99" r="2.2" fill="#d3b15b"/><circle cx="180.36" cy="88.99" r="2.2" fill="#d3b15b"/><circle cx="162.45" cy="139.3" r="3.2" fill="#b7493c"/><circle cx="182.43" cy="149.64" r="2.2" fill="#d3b15b"/><circle cx="257.55" cy="154.46" r="3.2" fill="#b7493c"/><circle cx="204.49" cy="102.77" r="2.2" fill="#d3b15b"/><circle cx="274.78" cy="128.27" r="2.2" fill="#d3b15b"/><circle cx="271.34" cy="128.27" r="2.2" fill="#d3b15b"/><circle cx="275.47" cy="122.76" r="2.2" fill="#d3b15b"/><circle cx="272.03" cy="122.76" r="2.2" fill="#d3b15b"/><circle cx="274.78" cy="117.24" r="2.2" fill="#d3b15b"/><circle cx="271.34" cy="117.24" r="2.2" fill="#d3b15b"/><circle cx="274.78" cy="139.3" r="2.2" fill="#d3b15b"/><circle cx="271.34" cy="139.3" r="2.2" fill="#d3b15b"/><circle cx="275.47" cy="133.78" r="2.2" fill="#d3b15b"/><circle cx="243.77" cy="102.77" r="2.2" fill="#d3b15b"/><circle cx="223.78" cy="46.26" r="3.2" fill="#b7493c"/><circle cx="227.23" cy="46.26" r="3.2" fill="#b7493c"/><circle cx="230.68" cy="46.26" r="3.2" fill="#b7493c"/><circle cx="234.12" cy="46.26" r="3.2" fill="#b7493c"/><circle cx="213.79" cy="134.82" r="2.2" fill="#d3b15b"/><circle cx="213.79" cy="138.26" r="2.2" fill="#d3b15b"/><circle cx="210.34" cy="138.26" r="2.2" fill="#d3b15b"/><circle cx="218.61" cy="134.82" r="2.2" fill="#d3b15b"/><circle cx="222.06" cy="134.82" r="2.2" fill="#d3b15b"/><circle cx="222.06" cy="138.26" r="2.2" fill="#d3b15b"/></g></svg>