<svg xmlns="http://www.w3.org/2000/svg" viewBox="0 0 420 240" role="img"><rect width="100%" height="100%" fill="#070706"/><g stroke="#5e5a4f" stroke-width="1.6" stroke-linecap="round"><line x1="263.33" y1="125.83" x2="262.75" y2="128.16"/><line x1="126.65" y1="64.63" x2="126.65" y2="55.3"/><line x1="125.49" y1="55.3" x2="126.65" y2="55.3"/><line x1="205.34" y1="190.53" x2="210" y2="185.86"/><line x1="233.31" y1="213.84" x2="205.34" y2="213.84"/><line x1="243.81" y1="159.63" x2="243.81" y2="170.13"/><line x1="197.47" y1="135.15" x2="199.22" y2="135.15"/><line x1="259.54" y1="87.94" x2="259.54" y2="95.52"/><line x1="257.79" y1="168.96" x2="257.79" y2="181.2"/><line x1="126.65" y1="87.94" x2="125.49" y2="87.94"/><line x1="196.59" y1="136.03" x2="197.47" y2="135.15"/><line x1="245.55" y1="169.54" x2="245.55" y2="160.22"/><line x1="149.38" y1="139.23" x2="154.05" y2="139.23"/><line x1="247.3" y1="157.89" x2="247.3" y2="171.87"/><line x1="125.49" y1="87.94" x2="121.41" y2="87.94"/><line x1="126.65" y1="55.3" x2="130.73" y2="55.3"/><line x1="183.19" y1="76.29" x2="183.19" y2="75.12"/><line x1="233.31" y1="153.22" x2="233.31" y2="171.87"/><line x1="263.62" y1="155.55" x2="263.62" y2="141.57"/><line x1="125.49" y1="64.63" x2="121.41" y2="64.63"/><line x1="233.31" y1="171.87" x2="235.65" y2="174.21"/><line x1="185.52" y1="75.12" x2="183.19" y2="75.12"/><line x1="291.6" y1="141.57" x2="272.95" y2="141.57"/><line x1="259.54" y1="106.59" x2="235.06" y2="106.59"/><line x1="126.65" y1="64.63" x2="125.49" y2="64.63"/><line x1="185.52" y1="76.29" x2="185.52" y2="75.12"/><line x1="289.27" y1="171.87" x2="279.94" y2="171.87"/><line x1="246.14" y1="170.13" x2="246.14" y2="159.63"/><line x1="183.19" y1="75.12" x2="182.02" y2="75.12"/><line x1="133.06" y1="48.89" x2="169.78" y2="45.98"/><line x1="185.52" y1="76.29" x2="187.85" y2="76.29"/><line x1="169.78" y1="44.81" x2="169.78" y2="45.98"/><line x1="125.49" y1="55.3" x2="125.49" y2="64.63"/><line x1="144.72" y1="139.23" x2="149.38" y2="139.23"/><line x1="190.18" y1="76.29" x2="191.35" y2="76.29"/><line x1="235.65" y1="174.21" x2="237.98" y2="176.54"/><line x1="267.7" y1="157.89" x2="265.95" y2="157.89"/><line x1="279.36" y1="63.46" x2="275.86" y2="63.46"/><line x1="125.49" y1="78.62" x2="126.65" y2="78.62"/><line x1="190.18" y1="75.12" x2="190.18" y2="76.29"/><line x1="216.99" y1="192.86" x2="216.99" y2="188.19"/><line x1="237.98" y1="176.54" x2="242.64" y2="176.54"/><line x1="309.09" y1="164.88" x2="309.67" y2="164.88"/><line x1="190.18" y1="75.12" x2="187.85" y2="75.12"/><line x1="290.43" y1="70.97" x2="290.43" y2="53.63"/><line x1="289.27" y1="52.97" x2="289.27" y2="71.62"/><line x1="279.36" y1="62.3" x2="278.78" y2="59.97"/><line x1="233.31" y1="57.63" x2="233.31" y2="62.3"/><line x1="285.77" y1="106.59" x2="285.77" y2="129.91"/><line x1="221.66" y1="57.63" x2="221.66" y2="64.63"/><line x1="135.39" y1="129.91" x2="135.39" y2="134.57"/><line x1="194.85" y1="134.57" x2="183.19" y2="134.57"/><line x1="309.67" y1="162.55" x2="309.09" y2="162.55"/><line x1="237.98" y1="55.3" x2="237.98" y2="62.3"/><line x1="263.62" y1="181.2" x2="261.29" y2="181.2"/><line x1="291.6" y1="101.93" x2="291.6" y2="94.94"/><line x1="271.78" y1="163.71" x2="271.78" y2="157.89"/><line x1="289.27" y1="163.13" x2="289.27" y2="163.71"/><line x1="126.65" y1="78.62" x2="130.73" y2="78.62"/><line x1="268.29" y1="161.97" x2="268.29" y2="162.55"/><line x1="309.09" y1="162.55" x2="309.09" y2="164.88"/><line x1="187.85" y1="76.29" x2="190.18" y2="76.29"/><line x1="182.02" y1="114.75" x2="196.01" y2="114.75"/><line x1="182.02" y1="133.41" x2="182.02" y2="123.5"/><line x1="293.93" y1="163.13" x2="293.93" y2="167.79"/><line x1="289.85" y1="53.63" x2="289.85" y2="70.97"/><line x1="195.43" y1="57.05" x2="195.43" y2="33.74"/><line x1="261.29" y1="135.74" x2="251.97" y2="135.74"/><line x1="262.46" y1="133.41" x2="262.46" y2="134.57"/><line x1="191.35" y1="129.91" x2="191.35" y2="129.33"/><line x1="257.79" y1="181.2" x2="254.3" y2="181.2"/><line x1="250.51" y1="128.16" x2="249.34" y2="128.16"/><line x1="262.46" y1="134.57" x2="250.8" y2="134.57"/><line x1="138.89" y1="124.08" x2="140.06" y2="125.25"/><line x1="262.46" y1="128.74" x2="250.8" y2="128.74"/><line x1="212.33" y1="157.89" x2="210" y2="157.89"/><line x1="212.33" y1="160.22" x2="212.33" y2="157.89"/><line x1="210" y1="160.22" x2="212.33" y2="160.22"/><line x1="210" y1="157.89" x2="210" y2="160.22"/><line x1="216.99" y1="156.72" x2="214.66" y2="156.72"/><line x1="216.99" y1="159.05" x2="216.99" y2="156.72"/><line x1="214.66" y1="159.05" x2="216.99" y2="159.05"/><line x1="214.66" y1="156.72" x2="214.66" y2="159.05"/><line x1="213.5" y1="154.39" x2="211.17" y2="154.39"/><line x1="213.5" y1="156.72" x2="213.5" y2="154.39"/><line x1="211.17" y1="156.72" x2="213.5" y2="156.72"/><line x1="211.17" y1="154.39" x2="211.17" y2="156.72"/><line x1="249.34" y1="128.16" x2="249.05" y2="128.74"/><line x1="268.58" y1="141.57" x2="268.29" y2="142.15"/><line x1="269.16" y1="141.57" x2="268.58" y2="141.57"/><line x1="289.27" y1="181.2" x2="279.94" y2="181.2"/><line x1="269.16" y1="145.06" x2="269.45" y2="144.48"/><line x1="262.46" y1="133.41" x2="250.8" y2="133.41"/><line x1="205.34" y1="108.93" x2="205.34" y2="78.62"/><line x1="187.85" y1="75.12" x2="187.85" y2="76.29"/><line x1="277.61" y1="77.45" x2="279.94" y2="78.03"/><line x1="282.27" y1="75.12" x2="281.11" y2="76.29"/><line x1="232.15" y1="149.73" x2="237.98" y2="143.9"/><line x1="279.36" y1="62.3" x2="275.86" y2="62.3"/><line x1="250.8" y1="128.74" x2="250.51" y2="128.16"/><line x1="264.21" y1="128.74" x2="263.91" y2="128.16"/><line x1="191.35" y1="125.25" x2="190.77" y2="125.25"/><line x1="263.91" y1="128.16" x2="263.33" y2="125.83"/><line x1="307.92" y1="167.79" x2="307.92" y2="170.13"/><line x1="262.46" y1="131.07" x2="262.46" y2="132.24"/><line x1="186.69" y1="125.25" x2="186.69" y2="125.83"/><line x1="262.46" y1="128.74" x2="262.46" y2="129.91"/><line x1="259.54" y1="95.52" x2="235.06" y2="95.52"/><line x1="270.03" y1="157.89" x2="267.7" y2="157.89"/><line x1="250.8" y1="131.07" x2="250.8" y2="129.91"/><line x1="262.46" y1="129.91" x2="262.46" y2="131.07"/><line x1="262.46" y1="132.24" x2="262.46" y2="133.41"/><line x1="249.05" y1="128.74" x2="249.05" y2="134.57"/><line x1="256.63" y1="61.13" x2="260.13" y2="48.31"/><line x1="193.1" y1="59.38" x2="195.43" y2="57.05"/><line x1="235.06" y1="87.94" x2="251.97" y2="87.94"/><line x1="235.06" y1="99.02" x2="235.06" y2="95.52"/><line x1="286.94" y1="137.19" x2="287.23" y2="137.49"/><line x1="259.54" y1="99.02" x2="259.54" y2="106.59"/><line x1="133.06" y1="52.97" x2="133.06" y2="48.89"/><line x1="275.28" y1="135.45" x2="286.94" y2="135.45"/><line x1="272.95" y1="48.31" x2="282.27" y2="48.31"/><line x1="274.99" y1="137.49" x2="275.28" y2="137.19"/><line x1="275.28" y1="137.19" x2="286.94" y2="137.19"/><line x1="289.27" y1="167.21" x2="264.79" y2="167.21"/><line x1="235.06" y1="95.52" x2="235.06" y2="87.94"/><line x1="278.78" y1="59.97" x2="276.45" y2="59.97"/><line x1="223.99" y1="57.63" x2="223.99" y2="62.3"/><line x1="226.32" y1="103.97" x2="226.32" y2="104.55"/><line x1="223.99" y1="62.3" x2="228.65" y2="62.3"/><line x1="265.95" y1="163.71" x2="263.04" y2="163.71"/><line x1="274.11" y1="137.49" x2="274.99" y2="137.49"/><line x1="279.94" y1="41.31" x2="275.28" y2="41.31"/><line x1="279.94" y1="44.23" x2="279.94" y2="41.31"/><line x1="265.95" y1="171.87" x2="265.95" y2="176.54"/><line x1="287.23" y1="137.49" x2="288.1" y2="137.49"/><line x1="235.06" y1="106.59" x2="235.06" y2="99.02"/><line x1="275.28" y1="45.98" x2="279.94" y2="45.98"/><line x1="272.95" y1="134.57" x2="289.27" y2="134.57"/><line x1="251.97" y1="143.9" x2="251.97" y2="153.22"/><line x1="279.94" y1="74.54" x2="277.61" y2="75.12"/><line x1="228.65" y1="57.63" x2="228.65" y2="62.3"/><line x1="136.56" y1="133.41" x2="135.39" y2="134.57"/><line x1="276.45" y1="59.97" x2="275.86" y2="62.3"/><line x1="141.22" y1="117.09" x2="136.56" y2="121.75"/><line x1="233.31" y1="153.22" x2="240.31" y2="150.89"/><line x1="265.95" y1="163.71" x2="271.78" y2="163.71"/><line x1="275.28" y1="41.31" x2="275.28" y2="44.23"/><line x1="279.94" y1="74.54" x2="279.94" y2="78.03"/><line x1="169.78" y1="45.98" x2="169.78" y2="57.05"/><line x1="264.21" y1="134.57" x2="264.21" y2="128.74"/><line x1="186.69" y1="129.91" x2="187.27" y2="129.91"/><line x1="262.46" y1="138.07" x2="250.8" y2="138.07"/><line x1="251.97" y1="136.9" x2="261.29" y2="136.9"/><line x1="268.29" y1="159.05" x2="268.29" y2="159.63"/><line x1="267.7" y1="138.07" x2="267.7" y2="157.89"/><line x1="265.95" y1="160.22" x2="265.95" y2="163.71"/><line x1="250.8" y1="129.91" x2="250.8" y2="128.74"/><line x1="277.61" y1="75.12" x2="277.61" y2="77.45"/><line x1="283.44" y1="76.29" x2="282.27" y2="75.12"/><line x1="270.62" y1="161.38" x2="270.62" y2="160.22"/><line x1="266.25" y1="92.61" x2="265.66" y2="92.61"/><line x1="250.8" y1="133.41" x2="250.8" y2="132.24"/><line x1="232.15" y1="149.73" x2="233.31" y2="153.22"/><line x1="270.62" y1="160.22" x2="270.03" y2="160.22"/><line x1="271.78" y1="157.89" x2="270.03" y2="157.89"/><line x1="259.54" y1="95.52" x2="259.54" y2="99.02"/><line x1="250.8" y1="134.57" x2="250.8" y2="133.41"/><line x1="135.39" y1="125.25" x2="135.39" y2="129.91"/><line x1="261.29" y1="170.71" x2="261.29" y2="181.2"/><line x1="268.58" y1="145.06" x2="269.16" y2="145.06"/><line x1="265.95" y1="157.89" x2="265.95" y2="160.22"/><line x1="169.2" y1="85.61" x2="169.2" y2="90.27"/><line x1="218.74" y1="134.57" x2="209.42" y2="134.57"/><line x1="267.12" y1="161.38" x2="267.7" y2="161.38"/><line x1="262.75" y1="128.16" x2="262.46" y2="128.74"/><line x1="279.94" y1="171.87" x2="279.94" y2="176.54"/><line x1="285.77" y1="129.91" x2="271.78" y2="129.91"/><line x1="289.27" y1="167.79" x2="293.93" y2="167.79"/><line x1="289.27" y1="163.71" x2="289.27" y2="167.21"/><line x1="275.28" y1="176.54" x2="275.28" y2="171.87"/><line x1="275.28" y1="171.87" x2="265.95" y2="171.87"/><line x1="265.95" y1="176.54" x2="275.28" y2="176.54"/><line x1="271.78" y1="129.91" x2="271.78" y2="134.57"/><line x1="279.94" y1="176.54" x2="289.27" y2="176.54"/><line x1="307.92" y1="157.3" x2="307.92" y2="159.63"/><line x1="306.75" y1="171.29" x2="306.75" y2="170.13"/><line x1="299.76" y1="156.14" x2="304.42" y2="156.14"/><line x1="121.41" y1="55.3" x2="125.49" y2="55.3"/><line x1="200.67" y1="148.56" x2="228.65" y2="148.56"/><line x1="279.94" y1="87.94" x2="289.27" y2="87.94"/><line x1="289.27" y1="78.62" x2="284.61" y2="78.62"/><line x1="279.94" y1="78.62" x2="279.94" y2="87.94"/><line x1="251.97" y1="181.2" x2="251.97" y2="157.89"/><line x1="290.43" y1="106.59" x2="285.77" y2="106.59"/><line x1="270.03" y1="161.38" x2="270.62" y2="161.38"/><line x1="269.45" y1="159.05" x2="268.29" y2="159.05"/><line x1="268.29" y1="142.15" x2="268.29" y2="144.48"/><line x1="269.45" y1="142.15" x2="269.16" y2="141.57"/><line x1="268.29" y1="153.81" x2="268.58" y2="154.39"/><line x1="269.45" y1="153.81" x2="269.45" y2="151.47"/><line x1="269.45" y1="144.48" x2="269.45" y2="142.15"/><line x1="268.29" y1="144.48" x2="268.58" y2="145.06"/><line x1="268.29" y1="151.47" x2="268.29" y2="153.81"/><line x1="269.45" y1="151.47" x2="269.16" y2="150.89"/><line x1="263.62" y1="141.57" x2="249.63" y2="141.57"/><line x1="112.08" y1="31.99" x2="116.74" y2="27.33"/><line x1="291.6" y1="160.22" x2="291.6" y2="141.57"/><line x1="272.95" y1="160.22" x2="291.6" y2="160.22"/><line x1="262.46" y1="132.24" x2="250.8" y2="132.24"/><line x1="140.06" y1="115.92" x2="138.89" y2="117.09"/><line x1="272.95" y1="141.57" x2="272.95" y2="160.22"/><line x1="310.25" y1="167.79" x2="307.92" y2="167.79"/><line x1="261.29" y1="181.2" x2="257.79" y2="181.2"/><line x1="228.94" y1="101.93" x2="228.36" y2="101.93"/><line x1="249.63" y1="155.55" x2="263.62" y2="155.55"/><line x1="264.79" y1="167.21" x2="261.29" y2="170.71"/><line x1="306.75" y1="170.13" x2="305.59" y2="168.96"/><line x1="305.59" y1="168.96" x2="297.43" y2="168.96"/><line x1="249.63" y1="141.57" x2="249.63" y2="155.55"/><line x1="196.01" y1="143.9" x2="200.67" y2="148.56"/><line x1="296.26" y1="167.79" x2="296.26" y2="163.13"/><line x1="267.12" y1="160.22" x2="267.12" y2="161.38"/><line x1="206.5" y1="174.21" x2="211.17" y2="174.21"/><line x1="309.67" y1="164.88" x2="309.67" y2="162.55"/><line x1="135.39" y1="120.58" x2="135.39" y2="125.25"/><line x1="293.93" y1="94.94" x2="293.93" y2="101.93"/><line x1="295.68" y1="163.13" x2="295.68" y2="167.79"/><line x1="196.01" y1="139.23" x2="196.01" y2="143.9"/><line x1="250.8" y1="132.24" x2="250.8" y2="131.07"/><line x1="279.94" y1="66.96" x2="279.94" y2="73.95"/><line x1="281.11" y1="76.29" x2="282.27" y2="77.45"/><line x1="263.91" y1="128.16" x2="262.75" y2="128.16"/><line x1="191.35" y1="27.33" x2="196.01" y2="27.33"/><line x1="266.25" y1="101.93" x2="265.66" y2="101.93"/><line x1="126.65" y1="87.94" x2="126.65" y2="78.62"/><line x1="91.1" y1="115.92" x2="107.42" y2="22.66"/><line x1="125.49" y1="78.62" x2="125.49" y2="87.94"/><line x1="169.78" y1="44.81" x2="133.06" y2="47.73"/><line x1="170.95" y1="56.47" x2="170.95" y2="34.32"/><line x1="282.27" y1="77.45" x2="283.44" y2="76.29"/><line x1="172.7" y1="58.22" x2="170.95" y2="56.47"/><line x1="116.74" y1="120.58" x2="115.58" y2="119.42"/><line x1="221.66" y1="64.63" x2="228.65" y2="64.63"/><line x1="133.06" y1="48.89" x2="133.06" y2="47.73"/><line x1="112.08" y1="143.9" x2="112.08" y2="139.23"/><line x1="192.51" y1="58.22" x2="172.7" y2="58.22"/><line x1="108.58" y1="119.42" x2="99.26" y2="119.42"/><line x1="263.62" y1="104.55" x2="263.62" y2="103.97"/><line x1="194.26" y1="34.32" x2="194.26" y2="56.47"/><line x1="112.08" y1="111.26" x2="112.08" y2="36.65"/><line x1="133.06" y1="47.73" x2="133.06" y2="43.65"/><line x1="182.02" y1="121.75" x2="196.01" y2="121.75"/><line x1="182.02" y1="119.42" x2="196.01" y2="119.42"/><line x1="194.26" y1="56.47" x2="192.51" y2="58.22"/><line x1="192.51" y1="32.57" x2="194.26" y2="34.32"/><line x1="112.08" y1="115.92" x2="112.08" y2="111.26"/><line x1="230.98" y1="103.97" x2="230.98" y2="104.55"/><line x1="265.95" y1="61.13" x2="256.63" y2="61.13"/><line x1="193.1" y1="31.41" x2="172.11" y2="31.41"/><line x1="195.43" y1="33.74" x2="193.1" y2="31.41"/><line x1="228.65" y1="148.56" x2="230.98" y2="141.57"/><line x1="172.7" y1="32.57" x2="192.51" y2="32.57"/><line x1="254.3" y1="167.21" x2="254.3" y2="181.2"/><line x1="251.97" y1="48.31" x2="251.97" y2="62.3"/><line x1="149.38" y1="115.92" x2="144.72" y2="115.92"/><line x1="186.69" y1="128.16" x2="186.69" y2="129.33"/><line x1="186.1" y1="128.16" x2="186.69" y2="128.16"/><line x1="186.69" y1="126.99" x2="186.69" y2="128.16"/><line x1="186.69" y1="126.99" x2="186.1" y2="126.99"/><line x1="186.1" y1="126.99" x2="186.1" y2="128.16"/><line x1="190.77" y1="129.91" x2="191.35" y2="129.91"/><line x1="190.77" y1="129.91" x2="190.77" y2="130.49"/><line x1="191.93" y1="129.33" x2="191.35" y2="129.33"/><line x1="191.35" y1="129.33" x2="191.35" y2="128.16"/><line x1="191.93" y1="130.49" x2="191.93" y2="129.33"/><line x1="190.77" y1="130.49" x2="191.93" y2="130.49"/><line x1="188.43" y1="129.91" x2="188.43" y2="130.49"/><line x1="233.31" y1="108.34" x2="261.29" y2="108.34"/><line x1="188.43" y1="129.91" x2="189.6" y2="129.91"/><line x1="247.3" y1="50.64" x2="247.3" y2="62.3"/><line x1="189.6" y1="130.49" x2="189.6" y2="129.91"/><line x1="206.5" y1="164.88" x2="206.5" y2="174.21"/><line x1="210" y1="185.86" x2="242.64" y2="185.86"/><line x1="289.27" y1="176.54" x2="289.27" y2="171.87"/><line x1="235.06" y1="99.02" x2="259.54" y2="99.02"/><line x1="189.6" y1="129.91" x2="190.77" y2="129.91"/><line x1="121.41" y1="213.84" x2="116.74" y2="213.84"/><line x1="261.29" y1="108.34" x2="261.29" y2="86.19"/><line x1="188.43" y1="130.49" x2="189.6" y2="130.49"/><line x1="121.41" y1="27.33" x2="191.35" y2="27.33"/><line x1="186.1" y1="130.49" x2="187.27" y2="130.49"/><line x1="112.08" y1="36.65" x2="112.08" y2="31.99"/><line x1="287.23" y1="135.15" x2="288.1" y2="135.15"/><line x1="187.27" y1="129.91" x2="188.43" y2="129.91"/><line x1="275.28" y1="157.89" x2="275.28" y2="143.9"/><line x1="233.31" y1="86.19" x2="233.31" y2="108.34"/><line x1="187.27" y1="130.49" x2="187.27" y2="129.91"/><line x1="250.51" y1="128.16" x2="249.93" y2="125.83"/><line x1="186.69" y1="129.33" x2="186.1" y2="129.33"/><line x1="186.69" y1="129.33" x2="186.69" y2="129.91"/><line x1="274.99" y1="135.15" x2="275.28" y2="135.45"/><line x1="187.85" y1="75.12" x2="185.52" y2="75.12"/><line x1="170.95" y1="34.32" x2="172.7" y2="32.57"/><line x1="274.11" y1="135.15" x2="274.99" y2="135.15"/><line x1="186.1" y1="129.33" x2="186.1" y2="130.49"/><line x1="189.6" y1="125.25" x2="189.6" y2="124.66"/><line x1="268.58" y1="150.89" x2="268.29" y2="151.47"/><line x1="244.39" y1="160.22" x2="244.39" y2="169.54"/><line x1="249.93" y1="125.83" x2="249.34" y2="128.16"/><line x1="261.29" y1="86.19" x2="233.31" y2="86.19"/><line x1="189.6" y1="124.66" x2="188.43" y2="124.66"/><line x1="189.6" y1="125.25" x2="188.43" y2="125.25"/><line x1="268.58" y1="154.39" x2="269.16" y2="154.39"/><line x1="188.43" y1="124.66" x2="188.43" y2="125.25"/><line x1="188.43" y1="125.25" x2="187.27" y2="125.25"/><line x1="187.27" y1="125.25" x2="186.69" y2="125.25"/><line x1="263.04" y1="163.71" x2="257.79" y2="168.96"/><line x1="290.43" y1="93.77" x2="290.43" y2="103.1"/><line x1="242.64" y1="185.86" x2="242.64" y2="204.51"/><line x1="269.16" y1="154.39" x2="269.45" y2="153.81"/><line x1="187.27" y1="125.25" x2="187.27" y2="124.66"/><line x1="186.1" y1="125.83" x2="186.69" y2="125.83"/><line x1="237.98" y1="213.84" x2="233.31" y2="213.84"/><line x1="112.08" y1="209.18" x2="112.08" y2="204.51"/><line x1="186.69" y1="125.83" x2="186.69" y2="126.99"/><line x1="269.45" y1="159.63" x2="269.45" y2="159.05"/><line x1="186.1" y1="124.66" x2="186.1" y2="125.83"/><line x1="187.27" y1="124.66" x2="186.1" y2="124.66"/><line x1="191.35" y1="125.83" x2="191.93" y2="125.83"/><line x1="191.93" y1="124.66" x2="190.77" y2="124.66"/><line x1="230.98" y1="89.98" x2="230.98" y2="90.57"/><line x1="269.45" y1="162.55" x2="269.45" y2="161.97"/><line x1="200.67" y1="31.99" x2="200.67" y2="36.65"/><line x1="242.64" y1="204.51" x2="242.64" y2="209.18"/><line x1="275.28" y1="143.9" x2="289.27" y2="143.9"/><line x1="191.35" y1="125.83" x2="191.35" y2="125.25"/><line x1="191.93" y1="125.83" x2="191.93" y2="124.66"/><line x1="112.08" y1="204.51" x2="112.08" y2="181.2"/><line x1="114.41" y1="132.24" x2="113.25" y2="131.07"/><line x1="190.77" y1="124.66" x2="190.77" y2="125.25"/><line x1="267.7" y1="160.22" x2="267.12" y2="160.22"/><line x1="190.77" y1="125.25" x2="189.6" y2="125.25"/><line x1="191.93" y1="126.99" x2="191.35" y2="126.99"/><line x1="262.46" y1="131.07" x2="250.8" y2="131.07"/><line x1="191.35" y1="126.99" x2="191.35" y2="125.83"/><line x1="191.35" y1="128.16" x2="191.93" y2="128.16"/><line x1="116.74" y1="27.33" x2="121.41" y2="27.33"/><line x1="116.74" y1="213.84" x2="112.08" y2="209.18"/><line x1="191.35" y1="128.16" x2="191.35" y2="126.99"/><line x1="191.93" y1="128.16" x2="191.93" y2="126.99"/><line x1="251.97" y1="157.89" x2="265.95" y2="157.89"/><line x1="242.64" y1="209.18" x2="237.98" y2="213.84"/><line x1="114.41" y1="122.91" x2="109.75" y2="118.25"/><line x1="200.67" y1="36.65" x2="200.67" y2="50.64"/><line x1="242.64" y1="52.97" x2="242.64" y2="62.3"/><line x1="307.92" y1="159.63" x2="310.25" y2="159.63"/><line x1="226.32" y1="89.98" x2="226.32" y2="90.57"/><line x1="182.02" y1="76.29" x2="183.19" y2="76.29"/><line x1="297.43" y1="168.96" x2="297.43" y2="161.97"/><line x1="130.73" y1="41.31" x2="121.41" y2="41.31"/><line x1="261.29" y1="160.22" x2="254.3" y2="167.21"/><line x1="269.16" y1="150.89" x2="268.58" y2="150.89"/><line x1="182.02" y1="112.42" x2="196.01" y2="112.42"/><line x1="261.29" y1="153.22" x2="261.29" y2="143.9"/><line x1="289.27" y1="138.07" x2="272.95" y2="138.07"/><line x1="228.36" y1="92.61" x2="228.94" y2="92.61"/><line x1="211.17" y1="174.21" x2="211.17" y2="164.88"/><line x1="293.93" y1="163.13" x2="289.27" y2="163.13"/><line x1="263.62" y1="90.57" x2="263.62" y2="89.98"/><line x1="211.17" y1="164.88" x2="206.5" y2="164.88"/><line x1="268.29" y1="104.55" x2="268.29" y2="103.97"/><line x1="182.02" y1="117.09" x2="196.01" y2="117.09"/><line x1="268.29" y1="89.98" x2="268.29" y2="90.57"/><line x1="289.27" y1="143.9" x2="289.27" y2="157.89"/><line x1="144.72" y1="115.92" x2="140.06" y2="115.92"/><line x1="191.35" y1="75.12" x2="190.18" y2="75.12"/><line x1="152.88" y1="117.09" x2="141.22" y2="117.09"/><line x1="154.05" y1="115.92" x2="149.38" y2="115.92"/><line x1="141.22" y1="117.09" x2="140.06" y2="115.92"/><line x1="142.39" y1="118.25" x2="141.22" y2="117.09"/><line x1="143.55" y1="119.42" x2="142.39" y2="118.25"/><line x1="144.72" y1="120.58" x2="143.55" y2="119.42"/><line x1="143.55" y1="135.74" x2="152.88" y2="135.74"/><line x1="271.78" y1="163.71" x2="289.27" y2="163.71"/><line x1="142.39" y1="136.9" x2="152.88" y2="136.9"/><line x1="141.22" y1="138.07" x2="152.88" y2="138.07"/><line x1="246.72" y1="134.57" x2="237.39" y2="134.57"/><line x1="140.06" y1="139.23" x2="144.72" y2="139.23"/><line x1="262.46" y1="129.91" x2="250.8" y2="129.91"/><line x1="289.27" y1="167.21" x2="289.27" y2="167.79"/><line x1="138.89" y1="124.08" x2="138.89" y2="131.07"/><line x1="137.73" y1="122.91" x2="137.73" y2="132.24"/><line x1="136.56" y1="121.75" x2="136.56" y2="133.41"/><line x1="140.06" y1="139.23" x2="141.22" y2="138.07"/><line x1="137.73" y1="122.91" x2="138.89" y2="124.08"/><line x1="138.89" y1="131.07" x2="143.55" y2="135.74"/><line x1="183.19" y1="76.29" x2="185.52" y2="76.29"/><line x1="295.1" y1="93.77" x2="295.1" y2="103.1"/><line x1="286.94" y1="135.45" x2="287.23" y2="135.15"/><line x1="307.92" y1="159.63" x2="307.92" y2="167.79"/><line x1="141.22" y1="138.07" x2="142.39" y2="136.9"/><line x1="136.56" y1="121.75" x2="137.73" y2="122.91"/><line x1="137.73" y1="132.24" x2="142.39" y2="136.9"/><line x1="142.39" y1="136.9" x2="143.55" y2="135.74"/><line x1="135.39" y1="120.58" x2="136.56" y2="121.75"/><line x1="136.56" y1="133.41" x2="141.22" y2="138.07"/><line x1="143.55" y1="135.74" x2="144.72" y2="134.57"/><line x1="135.39" y1="134.57" x2="136.56" y2="135.74"/><line x1="196.01" y1="27.33" x2="200.67" y2="31.99"/><line x1="140.06" y1="129.91" x2="138.89" y2="131.07"/><line x1="152.88" y1="118.25" x2="142.39" y2="118.25"/><line x1="138.89" y1="131.07" x2="137.73" y2="132.24"/><line x1="143.55" y1="119.42" x2="138.89" y2="124.08"/><line x1="137.73" y1="132.24" x2="136.56" y2="133.41"/><line x1="251.97" y1="153.22" x2="261.29" y2="153.22"/><line x1="228.65" y1="148.56" x2="232.15" y2="149.73"/><line x1="261.29" y1="143.9" x2="251.97" y2="143.9"/><line x1="289.27" y1="157.89" x2="275.28" y2="157.89"/><line x1="196.01" y1="123.5" x2="196.01" y2="133.41"/><line x1="242.64" y1="157.89" x2="242.64" y2="171.87"/><line x1="268.29" y1="162.55" x2="269.45" y2="162.55"/><line x1="265.95" y1="160.22" x2="261.29" y2="160.22"/><line x1="270.03" y1="138.07" x2="270.03" y2="157.89"/><line x1="142.39" y1="118.25" x2="137.73" y2="122.91"/><line x1="152.88" y1="119.42" x2="143.55" y2="119.42"/><line x1="112.08" y1="139.23" x2="140.06" y2="139.23"/><line x1="113.25" y1="138.07" x2="138.89" y2="138.07"/><line x1="109.75" y1="118.25" x2="99.26" y2="118.25"/><line x1="138.89" y1="138.07" x2="140.06" y2="139.23"/><line x1="113.25" y1="117.09" x2="138.89" y2="117.09"/><line x1="138.89" y1="117.09" x2="136.56" y2="119.42"/><line x1="113.25" y1="138.07" x2="115.58" y2="135.74"/><line x1="140.06" y1="115.92" x2="112.08" y2="115.92"/><line x1="116.74" y1="120.58" x2="135.39" y2="120.58"/><line x1="136.56" y1="119.42" x2="115.58" y2="119.42"/><line x1="113.25" y1="124.08" x2="108.58" y2="119.42"/><line x1="136.56" y1="119.42" x2="135.39" y2="120.58"/><line x1="115.58" y1="135.74" x2="136.56" y2="135.74"/><line x1="136.56" y1="135.74" x2="138.89" y2="138.07"/><line x1="115.58" y1="133.41" x2="114.41" y2="132.24"/><line x1="135.39" y1="134.57" x2="116.74" y2="134.57"/><line x1="115.58" y1="119.42" x2="113.25" y2="117.09"/><line x1="112.08" y1="139.23" x2="113.25" y2="138.07"/><line x1="107.42" y1="134.57" x2="108.58" y2="135.74"/><line x1="115.58" y1="135.74" x2="116.74" y2="134.57"/><line x1="116.74" y1="129.91" x2="116.74" y2="125.25"/><line x1="112.08" y1="125.25" x2="113.25" y2="124.08"/><line x1="116.74" y1="125.25" x2="116.74" y2="120.58"/><line x1="115.58" y1="121.75" x2="110.91" y2="117.09"/><line x1="116.74" y1="134.57" x2="116.74" y2="129.91"/><line x1="113.25" y1="117.09" x2="112.08" y2="115.92"/><line x1="116.74" y1="134.57" x2="115.58" y2="133.41"/><line x1="112.08" y1="115.92" x2="98.09" y2="115.92"/><line x1="113.25" y1="131.07" x2="112.08" y2="129.91"/><line x1="110.91" y1="117.09" x2="99.26" y2="117.09"/><line x1="112.08" y1="115.92" x2="110.91" y2="117.09"/><line x1="110.91" y1="117.09" x2="109.75" y2="118.25"/><line x1="109.75" y1="118.25" x2="108.58" y2="119.42"/><line x1="108.58" y1="119.42" x2="107.42" y2="120.58"/><line x1="99.26" y1="135.74" x2="108.58" y2="135.74"/><line x1="99.26" y1="136.9" x2="109.75" y2="136.9"/><line x1="99.26" y1="138.07" x2="110.91" y2="138.07"/><line x1="98.09" y1="139.23" x2="112.08" y2="139.23"/><line x1="113.25" y1="131.07" x2="113.25" y2="124.08"/><line x1="114.41" y1="132.24" x2="114.41" y2="122.91"/><line x1="115.58" y1="121.75" x2="116.74" y2="120.58"/><line x1="110.91" y1="138.07" x2="112.08" y2="139.23"/><line x1="113.25" y1="124.08" x2="114.41" y2="122.91"/><line x1="108.58" y1="135.74" x2="113.25" y2="131.07"/><line x1="109.75" y1="136.9" x2="110.91" y2="138.07"/><line x1="114.41" y1="122.91" x2="115.58" y2="121.75"/><line x1="109.75" y1="136.9" x2="114.41" y2="132.24"/><line x1="108.58" y1="135.74" x2="109.75" y2="136.9"/><line x1="115.58" y1="133.41" x2="115.58" y2="121.75"/><line x1="110.91" y1="138.07" x2="115.58" y2="133.41"/><line x1="197.18" y1="139.23" x2="199.51" y2="139.23"/><line x1="196.01" y1="138.07" x2="197.18" y2="139.23"/><line x1="199.51" y1="139.23" x2="200.67" y2="138.07"/><line x1="199.22" y1="135.15" x2="200.09" y2="136.03"/><line x1="200.09" y1="136.03" x2="200.09" y2="137.78"/><line x1="200.09" y1="137.78" x2="199.22" y2="138.65"/><line x1="199.22" y1="138.65" x2="197.47" y2="138.65"/><line x1="197.47" y1="138.65" x2="196.59" y2="137.78"/><line x1="196.59" y1="137.78" x2="196.59" y2="136.03"/><line x1="191.35" y1="213.84" x2="191.35" y2="216.17"/><line x1="214.66" y1="218.5" x2="214.66" y2="216.17"/><line x1="163.37" y1="216.17" x2="163.37" y2="213.84"/><line x1="163.37" y1="213.84" x2="158.71" y2="213.84"/><line x1="158.71" y1="213.84" x2="155.21" y2="213.84"/><line x1="196.01" y1="213.84" x2="191.35" y2="213.84"/><line x1="191.35" y1="216.17" x2="186.69" y2="216.17"/><line x1="163.37" y1="218.5" x2="163.37" y2="216.17"/><line x1="191.35" y1="216.17" x2="191.35" y2="218.5"/><line x1="205.34" y1="216.17" x2="200.67" y2="216.17"/><line x1="210" y1="216.17" x2="205.34" y2="216.17"/><line x1="163.37" y1="216.17" x2="154.05" y2="216.17"/><line x1="154.05" y1="216.17" x2="154.05" y2="218.5"/><line x1="154.05" y1="216.17" x2="144.72" y2="216.17"/><line x1="144.72" y1="216.17" x2="140.06" y2="216.17"/><line x1="214.66" y1="216.17" x2="210" y2="216.17"/><line x1="210" y1="218.5" x2="210" y2="216.17"/><line x1="140.06" y1="216.17" x2="140.06" y2="218.5"/><line x1="144.72" y1="216.17" x2="144.72" y2="218.5"/><line x1="186.69" y1="216.17" x2="168.03" y2="216.17"/><line x1="168.03" y1="218.5" x2="168.03" y2="216.17"/><line x1="186.69" y1="216.17" x2="186.69" y2="218.5"/><line x1="168.03" y1="216.17" x2="163.37" y2="216.17"/><line x1="184.35" y1="218.5" x2="170.37" y2="218.5"/><line x1="182.02" y1="220.83" x2="172.7" y2="220.83"/><line x1="112.08" y1="181.2" x2="149.38" y2="181.2"/><line x1="149.38" y1="181.2" x2="154.05" y2="185.86"/><line x1="154.05" y1="185.86" x2="154.05" y2="213.84"/><line x1="155.21" y1="213.84" x2="154.34" y2="213.84"/><line x1="155.21" y1="213.84" x2="155.21" y2="185.28"/><line x1="155.21" y1="185.28" x2="149.97" y2="180.03"/><line x1="149.97" y1="180.03" x2="112.08" y2="180.03"/><line x1="112.08" y1="181.2" x2="112.08" y2="180.91"/><line x1="112.08" y1="180.03" x2="112.08" y2="143.9"/><line x1="154.05" y1="213.84" x2="121.41" y2="213.84"/><line x1="123.74" y1="180.33" x2="123.15" y2="180.33"/><line x1="123.15" y1="180.33" x2="123.15" y2="180.91"/><line x1="123.15" y1="180.91" x2="123.74" y2="180.91"/><line x1="123.15" y1="180.91" x2="112.08" y2="180.91"/><line x1="112.08" y1="180.91" x2="112.08" y2="180.03"/><line x1="133.06" y1="180.33" x2="133.06" y2="180.91"/><line x1="133.06" y1="180.91" x2="133.65" y2="180.91"/><line x1="149.53" y1="180.91" x2="133.65" y2="180.91"/><line x1="133.65" y1="180.33" x2="133.06" y2="180.33"/><line x1="154.34" y1="185.72" x2="149.53" y2="180.91"/><line x1="133.65" y1="180.91" x2="133.65" y2="180.33"/><line x1="154.34" y1="194.61" x2="154.34" y2="185.72"/><line x1="154.34" y1="194.61" x2="154.34" y2="195.19"/><line x1="154.92" y1="195.19" x2="154.92" y2="194.61"/><line x1="154.92" y1="194.61" x2="154.34" y2="194.61"/><line x1="154.34" y1="213.84" x2="154.34" y2="205.1"/><line x1="154.34" y1="213.84" x2="154.05" y2="213.84"/><line x1="154.34" y1="204.51" x2="154.34" y2="205.1"/><line x1="154.34" y1="205.1" x2="154.92" y2="205.1"/><line x1="154.92" y1="205.1" x2="154.92" y2="204.51"/><line x1="154.92" y1="204.51" x2="154.34" y2="204.51"/><line x1="133.06" y1="180.91" x2="123.74" y2="180.91"/><line x1="123.74" y1="180.91" x2="123.74" y2="180.33"/><line x1="154.34" y1="204.51" x2="154.34" y2="195.19"/><line x1="154.34" y1="195.19" x2="154.92" y2="195.19"/><line x1="116.74" y1="185.86" x2="116.74" y2="190.53"/><line x1="116.74" y1="190.53" x2="126.07" y2="190.53"/><line x1="126.07" y1="190.53" x2="126.07" y2="185.86"/><line x1="126.07" y1="185.86" x2="116.74" y2="185.86"/><line x1="140.06" y1="195.19" x2="140.06" y2="199.85"/><line x1="140.06" y1="199.85" x2="144.72" y2="199.85"/><line x1="144.72" y1="199.85" x2="144.72" y2="195.19"/><line x1="144.72" y1="195.19" x2="140.06" y2="195.19"/><line x1="126.07" y1="204.51" x2="126.07" y2="209.18"/><line x1="126.07" y1="209.18" x2="135.39" y2="209.18"/><line x1="135.39" y1="209.18" x2="135.39" y2="204.51"/><line x1="135.39" y1="204.51" x2="126.07" y2="204.51"/><line x1="116.74" y1="195.19" x2="116.74" y2="199.85"/><line x1="116.74" y1="199.85" x2="119.07" y2="199.85"/><line x1="119.07" y1="199.85" x2="119.07" y2="195.19"/><line x1="119.07" y1="195.19" x2="116.74" y2="195.19"/><line x1="142.39" y1="183.53" x2="142.39" y2="185.86"/><line x1="142.39" y1="185.86" x2="144.72" y2="185.86"/><line x1="144.72" y1="185.86" x2="144.72" y2="183.53"/><line x1="144.72" y1="183.53" x2="142.39" y2="183.53"/><line x1="145.89" y1="208.01" x2="145.89" y2="210.34"/><line x1="145.89" y1="210.34" x2="150.55" y2="210.34"/><line x1="150.55" y1="210.34" x2="150.55" y2="205.68"/><line x1="150.55" y1="205.68" x2="148.22" y2="205.68"/><line x1="148.22" y1="205.68" x2="148.22" y2="208.01"/><line x1="148.22" y1="208.01" x2="145.89" y2="208.01"/><line x1="102.75" y1="190.53" x2="91.1" y2="139.23"/><line x1="107.42" y1="185.86" x2="107.42" y2="181.2"/><line x1="107.42" y1="181.2" x2="102.75" y2="181.2"/><line x1="102.75" y1="181.2" x2="102.75" y2="185.86"/><line x1="102.75" y1="185.86" x2="107.42" y2="185.86"/><line x1="107.42" y1="176.54" x2="107.42" y2="171.87"/><line x1="107.42" y1="171.87" x2="102.75" y2="171.87"/><line x1="102.75" y1="171.87" x2="102.75" y2="176.54"/><line x1="102.75" y1="176.54" x2="107.42" y2="176.54"/><line x1="107.42" y1="167.21" x2="107.42" y2="162.55"/><line x1="107.42" y1="162.55" x2="102.75" y2="162.55"/><line x1="102.75" y1="162.55" x2="102.75" y2="167.21"/><line x1="102.75" y1="167.21" x2="107.42" y2="167.21"/><line x1="119.07" y1="90.27" x2="119.07" y2="99.6"/><line x1="130.73" y1="87.94" x2="126.65" y2="87.94"/><line x1="133.06" y1="99.6" x2="133.06" y2="90.27"/><line x1="121.41" y1="101.93" x2="130.73" y2="101.93"/><line x1="119.07" y1="66.96" x2="119.07" y2="76.29"/><line x1="130.73" y1="64.63" x2="126.65" y2="64.63"/><line x1="133.06" y1="76.29" x2="133.06" y2="66.96"/><line x1="121.41" y1="78.62" x2="125.49" y2="78.62"/><line x1="119.07" y1="43.65" x2="119.07" y2="52.97"/><line x1="184.94" y1="34.9" x2="184.94" y2="53.55"/><line x1="184.94" y1="53.55" x2="189.6" y2="53.55"/><line x1="189.6" y1="53.55" x2="189.6" y2="34.9"/><line x1="189.6" y1="34.9" x2="184.94" y2="34.9"/><line x1="180.27" y1="37.23" x2="175.61" y2="37.23"/><line x1="175.61" y1="37.23" x2="175.61" y2="55.89"/><line x1="175.61" y1="55.89" x2="180.27" y2="55.89"/><line x1="180.27" y1="55.89" x2="180.27" y2="37.23"/><line x1="172.11" y1="31.41" x2="169.78" y2="33.74"/><line x1="169.78" y1="33.74" x2="169.78" y2="44.81"/><line x1="169.78" y1="57.05" x2="172.11" y2="59.38"/><line x1="172.11" y1="59.38" x2="193.1" y2="59.38"/><line x1="170.37" y1="100.77" x2="169.2" y2="100.77"/><line x1="169.2" y1="98.43" x2="169.2" y2="100.77"/><line x1="170.37" y1="98.43" x2="169.2" y2="98.43"/><line x1="169.2" y1="100.77" x2="169.2" y2="101.93"/><line x1="170.37" y1="98.43" x2="170.37" y2="96.1"/><line x1="170.37" y1="93.77" x2="170.37" y2="92.61"/><line x1="169.2" y1="93.77" x2="170.37" y2="93.77"/><line x1="169.2" y1="93.77" x2="169.2" y2="96.1"/><line x1="170.37" y1="96.1" x2="170.37" y2="93.77"/><line x1="169.2" y1="96.1" x2="170.37" y2="96.1"/><line x1="169.2" y1="96.1" x2="169.2" y2="98.43"/><line x1="170.37" y1="101.93" x2="170.37" y2="100.77"/><line x1="169.2" y1="92.61" x2="169.2" y2="93.77"/><line x1="170.37" y1="100.77" x2="170.37" y2="98.43"/><line x1="179.69" y1="75.12" x2="175.03" y2="75.12"/><line x1="201.84" y1="79.78" x2="201.84" y2="89.69"/><line x1="204.17" y1="107.76" x2="204.17" y2="97.85"/><line x1="202.42" y1="79.78" x2="202.42" y2="89.11"/><line x1="204.17" y1="89.69" x2="204.17" y2="79.78"/><line x1="203.59" y1="89.11" x2="203.59" y2="79.78"/><line x1="202.42" y1="98.43" x2="202.42" y2="107.76"/><line x1="203.59" y1="107.76" x2="203.59" y2="98.43"/><line x1="201.84" y1="97.85" x2="201.84" y2="107.76"/><line x1="201.84" y1="91.44" x2="201.84" y2="96.1"/><line x1="290.14" y1="70.97" x2="290.14" y2="53.63"/><line x1="267.12" y1="61.13" x2="270.62" y2="48.31"/><line x1="251.97" y1="48.31" x2="255.46" y2="61.13"/><line x1="262.46" y1="48.31" x2="265.95" y2="61.13"/><line x1="237.98" y1="104.26" x2="247.3" y2="104.26"/><line x1="247.3" y1="104.26" x2="247.3" y2="99.6"/><line x1="247.3" y1="99.6" x2="237.98" y2="99.6"/><line x1="237.98" y1="99.6" x2="237.98" y2="104.26"/><line x1="256.63" y1="87.94" x2="256.63" y2="92.61"/><line x1="256.63" y1="92.61" x2="251.97" y2="92.61"/><line x1="251.97" y1="92.61" x2="251.97" y2="87.94"/><line x1="251.97" y1="87.94" x2="256.63" y2="87.94"/><line x1="256.63" y1="87.94" x2="259.54" y2="87.94"/><line x1="236.81" y1="84.45" x2="241.47" y2="84.45"/><line x1="241.47" y1="84.45" x2="241.47" y2="82.11"/><line x1="241.47" y1="82.11" x2="236.81" y2="82.11"/><line x1="236.81" y1="82.11" x2="236.81" y2="84.45"/><line x1="260.13" y1="84.45" x2="264.79" y2="84.45"/><line x1="264.79" y1="84.45" x2="264.79" y2="79.78"/><line x1="264.79" y1="79.78" x2="260.13" y2="79.78"/><line x1="260.13" y1="79.78" x2="260.13" y2="84.45"/><line x1="258.96" y1="110.09" x2="258.96" y2="112.42"/><line x1="258.96" y1="112.42" x2="261.29" y2="112.42"/><line x1="261.29" y1="112.42" x2="261.29" y2="110.09"/><line x1="261.29" y1="110.09" x2="258.96" y2="110.09"/><line x1="232.15" y1="112.42" x2="232.15" y2="114.75"/><line x1="232.15" y1="114.75" x2="234.48" y2="114.75"/><line x1="234.48" y1="114.75" x2="234.48" y2="112.42"/><line x1="234.48" y1="112.42" x2="232.15" y2="112.42"/><line x1="261.29" y1="78.03" x2="233.31" y2="78.03"/><line x1="233.31" y1="78.62" x2="261.29" y2="78.62"/><line x1="233.31" y1="79.2" x2="261.29" y2="79.2"/><line x1="318.41" y1="133.41" x2="313.75" y2="138.07"/><line x1="318.41" y1="61.13" x2="318.41" y2="133.41"/><line x1="295.1" y1="56.47" x2="313.75" y2="56.47"/><line x1="313.75" y1="56.47" x2="318.41" y2="61.13"/><line x1="313.75" y1="138.07" x2="295.1" y2="138.07"/><line x1="327.74" y1="56.47" x2="327.74" y2="90.27"/><line x1="318.41" y1="47.14" x2="327.74" y2="56.47"/><line x1="309.09" y1="47.14" x2="318.41" y2="47.14"/><line x1="297.43" y1="47.14" x2="306.75" y2="47.14"/><line x1="327.74" y1="104.26" x2="327.74" y2="138.07"/><line x1="327.74" y1="138.07" x2="318.41" y2="147.39"/><line x1="318.41" y1="147.39" x2="309.09" y2="147.39"/><line x1="306.75" y1="147.39" x2="297.43" y2="147.39"/><line x1="327.74" y1="92.61" x2="327.74" y2="101.93"/><line x1="286.35" y1="107.18" x2="286.35" y2="109.51"/><line x1="286.35" y1="109.51" x2="288.69" y2="109.51"/><line x1="288.69" y1="109.51" x2="288.69" y2="107.18"/><line x1="288.69" y1="107.18" x2="286.35" y2="107.18"/><line x1="289.27" y1="107.76" x2="289.27" y2="108.34"/><line x1="289.27" y1="108.34" x2="289.85" y2="108.34"/><line x1="289.85" y1="108.34" x2="289.85" y2="107.76"/><line x1="289.85" y1="107.76" x2="289.27" y2="107.76"/><line x1="144.72" y1="59.97" x2="144.72" y2="64.63"/><line x1="144.72" y1="64.63" x2="149.38" y2="64.63"/><line x1="149.38" y1="64.63" x2="149.38" y2="59.97"/><line x1="149.38" y1="59.97" x2="144.72" y2="59.97"/><line x1="151.71" y1="61.13" x2="154.05" y2="61.13"/><line x1="154.05" y1="61.13" x2="154.05" y2="58.8"/><line x1="154.05" y1="58.8" x2="151.71" y2="58.8"/><line x1="151.71" y1="58.8" x2="151.71" y2="61.13"/><line x1="145.89" y1="58.8" x2="147.05" y2="58.8"/><line x1="147.05" y1="58.8" x2="147.05" y2="57.63"/><line x1="147.05" y1="57.63" x2="145.89" y2="57.63"/><line x1="145.89" y1="57.63" x2="145.89" y2="58.8"/><line x1="149.38" y1="57.63" x2="150.55" y2="57.63"/><line x1="150.55" y1="57.63" x2="150.55" y2="56.47"/><line x1="150.55" y1="56.47" x2="149.38" y2="56.47"/><line x1="149.38" y1="56.47" x2="149.38" y2="57.63"/><line x1="182.02" y1="92.61" x2="186.69" y2="87.94"/><line x1="186.69" y1="87.94" x2="191.35" y2="92.61"/><line x1="191.35" y1="92.61" x2="186.69" y2="97.27"/><line x1="186.69" y1="97.27" x2="182.02" y2="92.61"/><line x1="221.66" y1="194.02" x2="221.66" y2="203.35"/><line x1="221.66" y1="203.35" x2="226.32" y2="203.35"/><line x1="226.32" y1="203.35" x2="226.32" y2="194.02"/><line x1="226.32" y1="194.02" x2="221.66" y2="194.02"/><line x1="229.82" y1="196.35" x2="234.48" y2="196.35"/><line x1="234.48" y1="196.35" x2="234.48" y2="191.69"/><line x1="234.48" y1="191.69" x2="229.82" y2="191.69"/><line x1="229.82" y1="191.69" x2="229.82" y2="196.35"/><line x1="230.98" y1="199.85" x2="235.65" y2="199.85"/><line x1="235.65" y1="199.85" x2="235.65" y2="197.52"/><line x1="235.65" y1="197.52" x2="230.98" y2="197.52"/><line x1="230.98" y1="197.52" x2="230.98" y2="199.85"/><line x1="225.15" y1="206.85" x2="227.49" y2="206.85"/><line x1="227.49" y1="206.85" x2="227.49" y2="204.51"/><line x1="227.49" y1="204.51" x2="225.15" y2="204.51"/><line x1="225.15" y1="204.51" x2="225.15" y2="206.85"/><line x1="227.49" y1="203.35" x2="228.65" y2="203.35"/><line x1="228.65" y1="203.35" x2="228.65" y2="202.18"/><line x1="228.65" y1="202.18" x2="227.49" y2="202.18"/><line x1="227.49" y1="202.18" x2="227.49" y2="203.35"/><line x1="236.81" y1="198.69" x2="237.98" y2="198.69"/><line x1="237.98" y1="198.69" x2="237.98" y2="197.52"/><line x1="237.98" y1="197.52" x2="236.81" y2="197.52"/><line x1="236.81" y1="197.52" x2="236.81" y2="198.69"/><line x1="232.15" y1="201.02" x2="232.15" y2="202.18"/><line x1="232.15" y1="202.18" x2="234.48" y2="202.18"/><line x1="234.48" y1="202.18" x2="234.48" y2="201.02"/><line x1="234.48" y1="201.02" x2="232.15" y2="201.02"/><line x1="231.57" y1="199.27" x2="232.73" y2="199.27"/><line x1="232.73" y1="199.27" x2="232.73" y2="198.1"/><line x1="232.73" y1="198.1" x2="231.57" y2="198.1"/><line x1="231.57" y1="198.1" x2="231.57" y2="199.27"/><line x1="221.07" y1="203.93" x2="221.07" y2="206.26"/><line x1="221.07" y1="206.26" x2="223.41" y2="206.26"/><line x1="223.41" y1="206.26" x2="223.41" y2="203.93"/><line x1="223.41" y1="203.93" x2="221.07" y2="203.93"/><line x1="221.66" y1="205.68" x2="222.82" y2="205.68"/><line x1="222.82" y1="205.68" x2="222.82" y2="204.51"/><line x1="222.82" y1="204.51" x2="221.66" y2="204.51"/><line x1="221.66" y1="204.51" x2="221.66" y2="205.68"/><line x1="107.42" y1="22.66" x2="205.34" y2="22.66"/><line x1="216.99" y1="188.19" x2="212.33" y2="188.19"/><line x1="212.33" y1="188.19" x2="212.33" y2="192.86"/><line x1="212.33" y1="192.86" x2="216.99" y2="192.86"/><line x1="196.01" y1="143.9" x2="196.01" y2="213.84"/><line x1="205.34" y1="213.84" x2="205.34" y2="190.53"/><line x1="196.01" y1="213.84" x2="196.01" y2="216.17"/><line x1="196.01" y1="216.17" x2="191.35" y2="216.17"/><line x1="205.34" y1="218.5" x2="205.34" y2="216.17"/><line x1="205.34" y1="216.17" x2="205.34" y2="213.84"/><line x1="205.34" y1="213.84" x2="196.01" y2="213.84"/></g><g stroke="#d3b15b" stroke-width="2.4" stroke-linecap="round"><line x1="295.1" y1="103.1" x2="293.93" y2="103.1"/><line x1="304.42" y1="156.14" x2="306.75" y2="156.14"/><line x1="265.95" y1="61.13" x2="265.95" y2="63.46"/><line x1="246.72" y1="134.57" x2="246.72" y2="135.15"/><line x1="205.34" y1="76.29" x2="204.17" y2="75.12"/><line x1="247.3" y1="218.5" x2="214.66" y2="218.5"/><line x1="191.35" y1="139.23" x2="193.1" y2="139.23"/><line x1="218.16" y1="141.57" x2="230.98" y2="141.57"/><line x1="205.34" y1="61.13" x2="205.34" y2="58.8"/><line x1="246.14" y1="159.63" x2="246.14" y2="159.05"/><line x1="204.17" y1="62.3" x2="205.34" y2="61.13"/><line x1="243.81" y1="159.63" x2="244.39" y2="160.22"/><line x1="193.1" y1="139.23" x2="196.01" y2="139.23"/><line x1="244.39" y1="160.22" x2="245.55" y2="160.22"/><line x1="243.81" y1="170.13" x2="243.81" y2="170.71"/><line x1="246.14" y1="170.13" x2="245.55" y2="169.54"/><line x1="196.01" y1="138.07" x2="196.01" y2="135.74"/><line x1="242.64" y1="176.54" x2="242.64" y2="181.2"/><line x1="249.05" y1="134.57" x2="246.72" y2="134.57"/><line x1="246.14" y1="159.05" x2="247.3" y2="157.89"/><line x1="245.55" y1="160.22" x2="246.14" y2="159.63"/><line x1="267.12" y1="61.13" x2="265.95" y2="61.13"/><line x1="243.81" y1="159.05" x2="243.81" y2="159.63"/><line x1="242.64" y1="157.89" x2="243.81" y2="159.05"/><line x1="182.02" y1="119.42" x2="182.02" y2="117.09"/><line x1="204.17" y1="75.12" x2="204.17" y2="62.3"/><line x1="265.95" y1="63.46" x2="256.63" y2="63.46"/><line x1="275.28" y1="64.63" x2="275.28" y2="66.96"/><line x1="263.62" y1="89.98" x2="263.91" y2="89.98"/><line x1="270.62" y1="163.13" x2="271.2" y2="163.13"/><line x1="182.02" y1="76.29" x2="182.02" y2="75.12"/><line x1="269.45" y1="159.63" x2="268.29" y2="159.63"/><line x1="191.35" y1="75.12" x2="191.35" y2="76.29"/><line x1="221.07" y1="134.57" x2="218.74" y2="134.57"/><line x1="218.74" y1="135.15" x2="209.42" y2="135.15"/><line x1="267.7" y1="161.38" x2="267.7" y2="161.97"/><line x1="223.41" y1="132.24" x2="221.07" y2="132.24"/><line x1="232.73" y1="132.24" x2="232.73" y2="129.91"/><line x1="263.04" y1="138.07" x2="267.7" y2="138.07"/><line x1="289.27" y1="87.94" x2="290.43" y2="89.11"/><line x1="242.64" y1="62.3" x2="237.98" y2="62.3"/><line x1="291.6" y1="52.97" x2="291.6" y2="71.62"/><line x1="290.14" y1="70.97" x2="289.85" y2="70.97"/><line x1="290.43" y1="53.63" x2="290.43" y2="52.97"/><line x1="237.98" y1="52.97" x2="242.64" y2="52.97"/><line x1="289.85" y1="53.63" x2="290.14" y2="53.63"/><line x1="172.7" y1="75.12" x2="169.2" y2="78.62"/><line x1="275.28" y1="66.96" x2="279.94" y2="66.96"/><line x1="250.8" y1="138.07" x2="251.97" y2="136.9"/><line x1="248.47" y1="138.07" x2="250.22" y2="138.07"/><line x1="235.06" y1="132.24" x2="232.73" y2="132.24"/><line x1="270.03" y1="138.07" x2="272.95" y2="138.07"/><line x1="291.6" y1="94.94" x2="293.93" y2="94.94"/><line x1="205.34" y1="78.62" x2="205.34" y2="76.29"/><line x1="263.91" y1="90.57" x2="263.62" y2="90.57"/><line x1="293.93" y1="103.1" x2="293.93" y2="101.93"/><line x1="293.93" y1="101.93" x2="291.6" y2="101.93"/><line x1="196.01" y1="114.75" x2="196.01" y2="117.09"/><line x1="242.64" y1="181.2" x2="242.64" y2="185.86"/><line x1="122.57" y1="42.48" x2="121.41" y2="41.31"/><line x1="234.48" y1="183.53" x2="235.65" y2="182.37"/><line x1="244.39" y1="169.54" x2="243.81" y2="170.13"/><line x1="270.62" y1="162.55" x2="270.62" y2="163.13"/><line x1="288.1" y1="135.15" x2="287.52" y2="135.74"/><line x1="180.86" y1="131.07" x2="182.02" y2="123.5"/><line x1="221.66" y1="180.03" x2="221.66" y2="182.37"/><line x1="228.07" y1="92.61" x2="228.36" y2="92.61"/><line x1="230.98" y1="103.97" x2="230.98" y2="103.68"/><line x1="279.94" y1="181.2" x2="263.62" y2="181.2"/><line x1="228.07" y1="101.93" x2="226.9" y2="102.51"/><line x1="291.6" y1="101.93" x2="291.6" y2="103.1"/><line x1="221.66" y1="57.63" x2="223.99" y2="57.63"/><line x1="251.97" y1="135.74" x2="250.8" y2="134.57"/><line x1="230.4" y1="106.01" x2="230.98" y2="104.85"/><line x1="221.66" y1="182.37" x2="222.82" y2="183.53"/><line x1="226.32" y1="104.55" x2="226.32" y2="104.85"/><line x1="226.32" y1="90.86" x2="226.9" y2="92.02"/><line x1="256.63" y1="63.46" x2="256.63" y2="61.13"/><line x1="203.01" y1="163.71" x2="201.84" y2="162.55"/><line x1="250.8" y1="134.57" x2="249.05" y2="134.57"/><line x1="240.31" y1="150.89" x2="242.64" y2="157.89"/><line x1="120.24" y1="44.81" x2="120.24" y2="51.81"/><line x1="222.82" y1="183.53" x2="234.48" y2="183.53"/><line x1="237.39" y1="135.15" x2="237.39" y2="134.57"/><line x1="263.62" y1="181.2" x2="263.62" y2="182.37"/><line x1="119.07" y1="43.65" x2="120.24" y2="44.81"/><line x1="205.34" y1="58.8" x2="206.5" y2="57.63"/><line x1="230.98" y1="104.85" x2="230.98" y2="104.55"/><line x1="284.61" y1="73.95" x2="279.94" y2="73.95"/><line x1="235.65" y1="182.37" x2="235.65" y2="180.03"/><line x1="254.3" y1="181.2" x2="251.97" y2="181.2"/><line x1="243.81" y1="170.71" x2="242.64" y2="171.87"/><line x1="226.9" y1="92.02" x2="228.07" y2="92.61"/><line x1="230.4" y1="102.51" x2="229.23" y2="101.93"/><line x1="268.29" y1="103.68" x2="267.7" y2="102.51"/><line x1="265.37" y1="87.94" x2="264.21" y2="88.53"/><line x1="226.32" y1="103.68" x2="226.32" y2="103.97"/><line x1="152.88" y1="117.09" x2="152.88" y2="118.25"/><line x1="290.43" y1="126.41" x2="290.43" y2="133.41"/><line x1="268.29" y1="62.3" x2="267.12" y2="61.13"/><line x1="290.43" y1="89.11" x2="290.43" y2="93.77"/><line x1="290.43" y1="112.42" x2="291.6" y2="113.59"/><line x1="232.73" y1="129.91" x2="223.41" y2="129.91"/><line x1="230.98" y1="89.98" x2="230.98" y2="89.69"/><line x1="230.4" y1="92.02" x2="230.98" y2="90.86"/><line x1="262.46" y1="48.31" x2="270.62" y2="48.31"/><line x1="226.32" y1="90.57" x2="226.32" y2="90.86"/><line x1="291.6" y1="125.25" x2="290.43" y2="126.41"/><line x1="289.27" y1="182.37" x2="279.94" y2="182.37"/><line x1="254.3" y1="182.37" x2="254.3" y2="181.2"/><line x1="289.27" y1="181.2" x2="289.27" y2="182.37"/><line x1="279.94" y1="182.37" x2="279.94" y2="181.2"/><line x1="289.27" y1="71.62" x2="289.27" y2="78.62"/><line x1="291.6" y1="113.59" x2="291.6" y2="125.25"/><line x1="229.23" y1="101.93" x2="228.94" y2="101.93"/><line x1="246.14" y1="170.71" x2="246.14" y2="170.13"/><line x1="131.9" y1="44.81" x2="133.06" y2="43.65"/><line x1="279.94" y1="73.95" x2="279.94" y2="74.54"/><line x1="279.94" y1="78.62" x2="284.61" y2="78.62"/><line x1="275.86" y1="63.46" x2="275.86" y2="62.3"/><line x1="271.2" y1="159.05" x2="271.2" y2="158.47"/><line x1="270.62" y1="159.05" x2="271.2" y2="159.05"/><line x1="291.6" y1="93.77" x2="291.6" y2="94.94"/><line x1="261.29" y1="136.9" x2="262.46" y2="138.07"/><line x1="292.77" y1="138.07" x2="293.93" y2="139.23"/><line x1="226.32" y1="89.69" x2="226.32" y2="89.98"/><line x1="264.21" y1="134.57" x2="262.46" y2="134.57"/><line x1="284.61" y1="78.62" x2="284.61" y2="73.95"/><line x1="233.31" y1="55.3" x2="237.98" y2="55.3"/><line x1="247.3" y1="171.87" x2="246.14" y2="170.71"/><line x1="179.69" y1="75.7" x2="175.03" y2="75.7"/><line x1="274.7" y1="136.9" x2="274.7" y2="135.74"/><line x1="274.11" y1="137.49" x2="274.7" y2="136.9"/><line x1="265.66" y1="92.31" x2="266.25" y2="92.31"/><line x1="289.27" y1="137.49" x2="289.27" y2="138.07"/><line x1="288.1" y1="137.49" x2="289.27" y2="137.49"/><line x1="272.95" y1="48.31" x2="272.95" y2="47.73"/><line x1="279.94" y1="74.54" x2="284.02" y2="74.54"/><line x1="284.02" y1="74.54" x2="284.02" y2="78.03"/><line x1="282.27" y1="48.31" x2="289.27" y2="48.31"/><line x1="255.46" y1="65.79" x2="267.12" y2="65.79"/><line x1="267.12" y1="65.79" x2="268.29" y2="64.63"/><line x1="275.86" y1="66.38" x2="275.86" y2="63.46"/><line x1="268.29" y1="89.69" x2="267.7" y2="88.53"/><line x1="263.62" y1="90.86" x2="264.21" y2="92.02"/><line x1="228.94" y1="101.93" x2="228.94" y2="102.22"/><line x1="279.36" y1="62.3" x2="279.36" y2="63.46"/><line x1="279.36" y1="66.38" x2="275.86" y2="66.38"/><line x1="266.54" y1="92.61" x2="267.7" y2="92.02"/><line x1="265.37" y1="101.93" x2="264.21" y2="102.51"/><line x1="268.29" y1="104.85" x2="268.29" y2="104.55"/><line x1="228.65" y1="62.3" x2="228.65" y2="64.63"/><line x1="226.9" y1="88.53" x2="226.32" y2="89.69"/><line x1="230.98" y1="89.69" x2="230.4" y2="88.53"/><line x1="237.98" y1="62.3" x2="233.31" y2="62.3"/><line x1="233.31" y1="62.3" x2="228.65" y2="62.3"/><line x1="226.9" y1="102.51" x2="226.32" y2="103.68"/><line x1="226.9" y1="106.01" x2="228.07" y2="106.59"/><line x1="229.23" y1="106.59" x2="230.4" y2="106.01"/><line x1="230.98" y1="103.68" x2="230.4" y2="102.51"/><line x1="287.52" y1="135.74" x2="287.52" y2="136.9"/><line x1="270.62" y1="158.47" x2="270.62" y2="159.05"/><line x1="274.7" y1="45.98" x2="275.28" y2="45.98"/><line x1="273.53" y1="45.98" x2="274.7" y2="45.98"/><line x1="279.94" y1="45.98" x2="280.53" y2="45.98"/><line x1="274.11" y1="40.15" x2="281.11" y2="40.15"/><line x1="281.11" y1="40.15" x2="281.11" y2="43.06"/><line x1="281.11" y1="43.06" x2="279.94" y2="44.23"/><line x1="272.95" y1="46.56" x2="272.95" y2="45.98"/><line x1="219.33" y1="57.63" x2="221.66" y2="57.63"/><line x1="210" y1="56.47" x2="218.16" y2="56.47"/><line x1="272.95" y1="47.73" x2="272.95" y2="46.56"/><line x1="218.16" y1="56.47" x2="219.33" y2="57.63"/><line x1="279.94" y1="44.23" x2="279.94" y2="45.98"/><line x1="274.11" y1="43.06" x2="274.11" y2="40.15"/><line x1="275.28" y1="44.23" x2="274.11" y2="43.06"/><line x1="242.64" y1="171.87" x2="242.64" y2="176.54"/><line x1="267.7" y1="138.07" x2="270.03" y2="138.07"/><line x1="275.28" y1="45.98" x2="275.28" y2="44.23"/><line x1="281.69" y1="45.98" x2="282.27" y2="45.98"/><line x1="280.53" y1="45.98" x2="281.69" y2="45.98"/><line x1="282.27" y1="47.73" x2="282.27" y2="48.31"/><line x1="282.27" y1="46.56" x2="282.27" y2="47.73"/><line x1="268.29" y1="161.97" x2="269.45" y2="161.97"/><line x1="175.03" y1="75.12" x2="172.7" y2="75.12"/><line x1="267.99" y1="90.57" x2="267.99" y2="89.98"/><line x1="204.17" y1="178.87" x2="203.01" y2="177.7"/><line x1="284.02" y1="78.03" x2="279.94" y2="78.03"/><line x1="237.39" y1="134.57" x2="235.06" y2="134.57"/><line x1="279.94" y1="78.03" x2="279.94" y2="78.62"/><line x1="226.32" y1="104.85" x2="226.9" y2="106.01"/><line x1="226.32" y1="89.98" x2="226.61" y2="89.98"/><line x1="198.34" y1="75.12" x2="191.35" y2="75.12"/><line x1="235.06" y1="134.57" x2="235.06" y2="132.24"/><line x1="279.36" y1="63.46" x2="279.36" y2="66.38"/><line x1="229.23" y1="79.2" x2="233.31" y2="79.2"/><line x1="230.4" y1="88.53" x2="229.23" y2="87.94"/><line x1="229.23" y1="87.94" x2="229.23" y2="79.2"/><line x1="265.37" y1="79.2" x2="265.37" y2="87.94"/><line x1="267.7" y1="88.53" x2="266.54" y2="87.94"/><line x1="266.54" y1="87.94" x2="266.54" y2="78.03"/><line x1="228.07" y1="78.03" x2="228.07" y2="87.94"/><line x1="228.07" y1="87.94" x2="226.9" y2="88.53"/><line x1="266.54" y1="78.03" x2="261.29" y2="78.03"/><line x1="265.37" y1="115.34" x2="229.23" y2="115.34"/><line x1="272.95" y1="45.98" x2="273.53" y2="45.98"/><line x1="229.23" y1="115.34" x2="229.23" y2="106.59"/><line x1="264.21" y1="106.01" x2="265.37" y2="106.59"/><line x1="265.37" y1="106.59" x2="265.37" y2="115.34"/><line x1="266.54" y1="106.59" x2="267.7" y2="106.01"/><line x1="266.54" y1="116.5" x2="266.54" y2="106.59"/><line x1="228.07" y1="106.59" x2="228.07" y2="116.5"/><line x1="282.27" y1="45.98" x2="282.27" y2="46.56"/><line x1="228.07" y1="116.5" x2="266.54" y2="116.5"/><line x1="247.3" y1="157.89" x2="247.3" y2="139.23"/><line x1="268.29" y1="90.57" x2="267.99" y2="90.57"/><line x1="205.34" y1="134.57" x2="205.34" y2="108.93"/><line x1="272.95" y1="135.15" x2="272.95" y2="134.57"/><line x1="214.08" y1="143.9" x2="216.41" y2="141.57"/><line x1="200.67" y1="55.3" x2="199.51" y2="56.47"/><line x1="120.24" y1="51.81" x2="119.07" y2="52.97"/><line x1="169.78" y1="85.61" x2="169.78" y2="90.27"/><line x1="200.67" y1="138.07" x2="200.67" y2="141.57"/><line x1="199.51" y1="56.47" x2="199.51" y2="73.95"/><line x1="251.97" y1="136.9" x2="251.97" y2="135.74"/><line x1="250.22" y1="138.07" x2="250.8" y2="138.07"/><line x1="261.29" y1="135.74" x2="261.29" y2="136.9"/><line x1="247.3" y1="139.23" x2="248.47" y2="138.07"/><line x1="266.54" y1="162.55" x2="266.54" y2="163.13"/><line x1="267.12" y1="163.13" x2="267.12" y2="162.55"/><line x1="293.93" y1="180.03" x2="292.77" y2="181.2"/><line x1="267.12" y1="159.05" x2="267.12" y2="158.47"/><line x1="267.99" y1="103.97" x2="268.29" y2="103.97"/><line x1="189.02" y1="135.74" x2="183.19" y2="134.57"/><line x1="270.03" y1="161.38" x2="270.03" y2="160.22"/><line x1="268.29" y1="159.63" x2="267.7" y2="159.63"/><line x1="270.03" y1="159.63" x2="269.45" y2="159.63"/><line x1="307.92" y1="157.3" x2="310.25" y2="157.3"/><line x1="223.41" y1="129.91" x2="223.41" y2="132.24"/><line x1="228.65" y1="57.63" x2="233.31" y2="57.63"/><line x1="270.03" y1="161.97" x2="270.03" y2="161.38"/><line x1="263.62" y1="182.37" x2="254.3" y2="182.37"/><line x1="262.46" y1="134.57" x2="261.29" y2="135.74"/><line x1="271.78" y1="134.57" x2="264.21" y2="134.57"/><line x1="169.78" y1="90.27" x2="169.2" y2="90.27"/><line x1="299.76" y1="154.97" x2="304.42" y2="154.97"/><line x1="245.55" y1="169.54" x2="244.39" y2="169.54"/><line x1="267.7" y1="161.97" x2="268.29" y2="161.97"/><line x1="196.01" y1="117.09" x2="196.01" y2="119.42"/><line x1="271.2" y1="163.13" x2="271.2" y2="162.55"/><line x1="169.2" y1="85.61" x2="169.78" y2="85.61"/><line x1="234.48" y1="178.87" x2="222.82" y2="178.87"/><line x1="235.65" y1="180.03" x2="234.48" y2="178.87"/><line x1="307.92" y1="170.13" x2="306.75" y2="171.29"/><line x1="310.25" y1="167.79" x2="310.25" y2="170.13"/><line x1="299.76" y1="156.14" x2="299.76" y2="154.97"/><line x1="306.75" y1="171.29" x2="297.43" y2="171.29"/><line x1="297.43" y1="171.29" x2="297.43" y2="168.96"/><line x1="122.57" y1="54.14" x2="129.57" y2="54.14"/><line x1="289.27" y1="78.62" x2="289.27" y2="87.94"/><line x1="310.25" y1="159.63" x2="310.25" y2="167.79"/><line x1="304.42" y1="154.97" x2="304.42" y2="156.14"/><line x1="290.43" y1="103.1" x2="290.43" y2="106.59"/><line x1="290.43" y1="106.59" x2="290.43" y2="112.42"/><line x1="267.12" y1="158.47" x2="266.54" y2="158.47"/><line x1="107.42" y1="218.5" x2="107.42" y2="190.53"/><line x1="228.94" y1="102.22" x2="228.36" y2="102.22"/><line x1="306.75" y1="156.14" x2="307.92" y2="157.3"/><line x1="209.42" y1="135.15" x2="209.42" y2="134.57"/><line x1="262.46" y1="138.07" x2="263.04" y2="138.07"/><line x1="208.83" y1="57.63" x2="210" y2="56.47"/><line x1="297.43" y1="159.63" x2="296.26" y2="158.47"/><line x1="230.69" y1="89.98" x2="230.98" y2="89.98"/><line x1="263.62" y1="89.69" x2="263.62" y2="89.98"/><line x1="289.27" y1="52.97" x2="289.85" y2="52.97"/><line x1="297.43" y1="156.14" x2="299.76" y2="156.14"/><line x1="196.01" y1="121.75" x2="196.01" y2="123.5"/><line x1="296.26" y1="157.3" x2="297.43" y2="156.14"/><line x1="169.2" y1="78.62" x2="169.2" y2="85.61"/><line x1="230.98" y1="90.86" x2="230.98" y2="90.57"/><line x1="228.36" y1="102.22" x2="228.36" y2="101.93"/><line x1="267.12" y1="162.55" x2="266.54" y2="162.55"/><line x1="129.57" y1="54.14" x2="130.73" y2="55.3"/><line x1="228.36" y1="101.93" x2="228.07" y2="101.93"/><line x1="230.69" y1="90.57" x2="230.69" y2="89.98"/><line x1="228.94" y1="92.31" x2="228.94" y2="92.61"/><line x1="271.2" y1="162.55" x2="270.62" y2="162.55"/><line x1="168.03" y1="115.92" x2="154.05" y2="115.92"/><line x1="228.36" y1="92.31" x2="228.94" y2="92.31"/><line x1="266.54" y1="159.05" x2="267.12" y2="159.05"/><line x1="297.43" y1="161.97" x2="297.43" y2="159.63"/><line x1="228.94" y1="92.61" x2="229.23" y2="92.61"/><line x1="296.26" y1="163.13" x2="297.43" y2="161.97"/><line x1="246.72" y1="135.15" x2="237.39" y2="135.15"/><line x1="263.62" y1="90.57" x2="263.62" y2="90.86"/><line x1="264.21" y1="88.53" x2="263.62" y2="89.69"/><line x1="154.05" y1="139.23" x2="191.35" y2="139.23"/><line x1="264.21" y1="92.02" x2="265.37" y2="92.61"/><line x1="267.7" y1="92.02" x2="268.29" y2="90.86"/><line x1="266.25" y1="92.61" x2="266.54" y2="92.61"/><line x1="268.29" y1="89.98" x2="268.29" y2="89.69"/><line x1="230.69" y1="104.55" x2="230.69" y2="103.97"/><line x1="293.93" y1="93.77" x2="295.1" y2="93.77"/><line x1="291.6" y1="103.1" x2="290.43" y2="103.1"/><line x1="226.61" y1="103.97" x2="226.61" y2="104.55"/><line x1="226.61" y1="104.55" x2="226.32" y2="104.55"/><line x1="209.42" y1="134.57" x2="207.09" y2="134.57"/><line x1="266.54" y1="101.93" x2="266.25" y2="101.93"/><line x1="263.62" y1="104.85" x2="264.21" y2="106.01"/><line x1="267.7" y1="102.51" x2="266.54" y2="101.93"/><line x1="229.23" y1="92.61" x2="230.4" y2="92.02"/><line x1="263.62" y1="104.55" x2="263.62" y2="104.85"/><line x1="267.7" y1="106.01" x2="268.29" y2="104.85"/><line x1="182.02" y1="112.42" x2="180.86" y2="111.26"/><line x1="264.21" y1="102.51" x2="263.62" y2="103.68"/><line x1="226.32" y1="103.97" x2="226.61" y2="103.97"/><line x1="228.36" y1="92.61" x2="228.36" y2="92.31"/><line x1="297.43" y1="168.96" x2="296.26" y2="167.79"/><line x1="266.25" y1="102.22" x2="265.66" y2="102.22"/><line x1="230.98" y1="90.57" x2="230.69" y2="90.57"/><line x1="247.89" y1="181.2" x2="247.3" y2="180.62"/><line x1="265.66" y1="102.22" x2="265.66" y2="101.93"/><line x1="265.66" y1="101.93" x2="265.37" y2="101.93"/><line x1="263.91" y1="104.55" x2="263.62" y2="104.55"/><line x1="310.25" y1="170.13" x2="307.92" y2="170.13"/><line x1="263.91" y1="103.97" x2="263.91" y2="104.55"/><line x1="182.02" y1="121.75" x2="182.02" y2="119.42"/><line x1="274.11" y1="135.15" x2="272.95" y2="135.15"/><line x1="133.06" y1="52.97" x2="131.9" y2="51.81"/><line x1="263.62" y1="103.97" x2="263.91" y2="103.97"/><line x1="292.77" y1="181.2" x2="289.27" y2="181.2"/><line x1="99.26" y1="119.42" x2="99.26" y2="118.25"/><line x1="263.62" y1="103.68" x2="263.62" y2="103.97"/><line x1="247.3" y1="178.87" x2="247.3" y2="171.87"/><line x1="228.65" y1="64.63" x2="254.3" y2="64.63"/><line x1="230.69" y1="103.97" x2="230.98" y2="103.97"/><line x1="251.97" y1="62.3" x2="247.3" y2="62.3"/><line x1="233.31" y1="57.63" x2="233.31" y2="55.3"/><line x1="199.51" y1="73.95" x2="198.34" y2="75.12"/><line x1="230.98" y1="104.55" x2="230.69" y2="104.55"/><line x1="247.3" y1="50.64" x2="247.3" y2="48.31"/><line x1="199.51" y1="162.55" x2="198.34" y2="163.71"/><line x1="247.3" y1="62.3" x2="242.64" y2="62.3"/><line x1="279.94" y1="66.96" x2="279.94" y2="62.3"/><line x1="194.85" y1="134.57" x2="189.02" y2="135.74"/><line x1="196.01" y1="133.41" x2="194.85" y2="134.57"/><line x1="293.93" y1="94.94" x2="293.93" y2="93.77"/><line x1="242.64" y1="52.97" x2="242.64" y2="50.64"/><line x1="201.84" y1="162.55" x2="199.51" y2="162.55"/><line x1="279.94" y1="62.3" x2="279.36" y2="62.3"/><line x1="196.01" y1="123.5" x2="197.18" y2="131.07"/><line x1="251.97" y1="181.2" x2="249.63" y2="181.2"/><line x1="256.63" y1="61.13" x2="255.46" y2="61.13"/><line x1="291.6" y1="71.62" x2="290.43" y2="71.62"/><line x1="270.62" y1="48.31" x2="272.95" y2="48.31"/><line x1="203.01" y1="177.7" x2="203.01" y2="163.71"/><line x1="223.99" y1="57.63" x2="228.65" y2="57.63"/><line x1="169.2" y1="114.75" x2="168.03" y2="115.92"/><line x1="237.98" y1="143.9" x2="240.31" y2="150.89"/><line x1="196.01" y1="119.42" x2="196.01" y2="121.75"/><line x1="289.27" y1="48.31" x2="289.27" y2="52.97"/><line x1="191.35" y1="76.29" x2="199.51" y2="76.29"/><line x1="197.18" y1="131.07" x2="196.01" y2="133.41"/><line x1="290.43" y1="93.77" x2="291.6" y2="93.77"/><line x1="169.2" y1="90.27" x2="169.2" y2="92.61"/><line x1="254.3" y1="62.3" x2="251.97" y2="62.3"/><line x1="237.98" y1="55.3" x2="237.98" y2="52.97"/><line x1="205.34" y1="22.66" x2="205.34" y2="50.64"/><line x1="200.67" y1="78.62" x2="201.84" y2="79.78"/><line x1="296.26" y1="158.47" x2="296.26" y2="157.3"/><line x1="205.34" y1="50.64" x2="200.67" y2="50.64"/><line x1="230.98" y1="141.57" x2="237.98" y2="143.9"/><line x1="266.54" y1="158.47" x2="266.54" y2="159.05"/><line x1="218.74" y1="134.57" x2="218.74" y2="135.15"/><line x1="265.66" y1="92.61" x2="265.66" y2="92.31"/><line x1="266.54" y1="163.13" x2="267.12" y2="163.13"/><line x1="242.64" y1="185.86" x2="247.3" y2="185.86"/><line x1="247.3" y1="180.62" x2="247.3" y2="178.87"/><line x1="271.2" y1="158.47" x2="270.62" y2="158.47"/><line x1="226.61" y1="89.98" x2="226.61" y2="90.57"/><line x1="267.99" y1="89.98" x2="268.29" y2="89.98"/><line x1="265.37" y1="92.61" x2="265.66" y2="92.61"/><line x1="267.7" y1="159.63" x2="267.7" y2="160.22"/><line x1="170.37" y1="110.09" x2="170.37" y2="101.93"/><line x1="200.67" y1="50.64" x2="200.67" y2="55.3"/><line x1="268.29" y1="90.86" x2="268.29" y2="90.57"/><line x1="269.45" y1="161.97" x2="270.03" y2="161.97"/><line x1="206.5" y1="57.63" x2="208.83" y2="57.63"/><line x1="221.07" y1="132.24" x2="221.07" y2="134.57"/><line x1="182.02" y1="133.41" x2="180.86" y2="131.07"/><line x1="226.61" y1="90.57" x2="226.32" y2="90.57"/><line x1="247.3" y1="185.86" x2="247.3" y2="218.5"/><line x1="200.67" y1="135.74" x2="200.67" y2="138.07"/><line x1="182.02" y1="117.09" x2="182.02" y2="114.75"/><line x1="196.01" y1="112.42" x2="196.01" y2="114.75"/><line x1="272.95" y1="137.49" x2="274.11" y2="137.49"/><line x1="287.52" y1="136.9" x2="288.1" y2="137.49"/><line x1="289.27" y1="135.15" x2="288.1" y2="135.15"/><line x1="289.27" y1="134.57" x2="289.27" y2="135.15"/><line x1="295.68" y1="163.13" x2="296.26" y2="163.13"/><line x1="200.67" y1="110.09" x2="199.51" y2="111.26"/><line x1="295.68" y1="167.79" x2="293.93" y2="167.79"/><line x1="268.29" y1="103.97" x2="268.29" y2="103.68"/><line x1="293.93" y1="167.79" x2="293.93" y2="180.03"/><line x1="275.86" y1="62.3" x2="268.29" y2="62.3"/><line x1="268.29" y1="104.55" x2="267.99" y2="104.55"/><line x1="293.93" y1="163.13" x2="295.68" y2="163.13"/><line x1="296.26" y1="167.79" x2="295.68" y2="167.79"/><line x1="263.91" y1="89.98" x2="263.91" y2="90.57"/><line x1="290.43" y1="133.41" x2="289.27" y2="134.57"/><line x1="260.13" y1="48.31" x2="262.46" y2="48.31"/><line x1="266.25" y1="101.93" x2="266.25" y2="102.22"/><line x1="182.02" y1="75.12" x2="179.69" y2="75.12"/><line x1="154.05" y1="115.92" x2="152.88" y2="117.09"/><line x1="197.18" y1="111.26" x2="196.01" y2="112.42"/><line x1="255.46" y1="61.13" x2="254.3" y2="62.3"/><line x1="152.88" y1="119.42" x2="151.71" y2="120.58"/><line x1="151.71" y1="120.58" x2="144.72" y2="120.58"/><line x1="152.88" y1="135.74" x2="152.88" y2="136.9"/><line x1="152.88" y1="136.9" x2="152.88" y2="138.07"/><line x1="267.99" y1="104.55" x2="267.99" y2="103.97"/><line x1="267.7" y1="160.22" x2="267.7" y2="161.38"/><line x1="152.88" y1="138.07" x2="154.05" y2="139.23"/><line x1="151.71" y1="134.57" x2="152.88" y2="135.74"/><line x1="144.72" y1="134.57" x2="151.71" y2="134.57"/><line x1="140.06" y1="125.25" x2="140.06" y2="129.91"/><line x1="266.25" y1="92.31" x2="266.25" y2="92.61"/><line x1="270.03" y1="160.22" x2="270.03" y2="159.63"/><line x1="205.34" y1="108.93" x2="204.17" y2="107.76"/><line x1="182.02" y1="123.5" x2="182.02" y2="121.75"/><line x1="272.95" y1="134.57" x2="271.78" y2="134.57"/><line x1="182.02" y1="114.75" x2="182.02" y2="112.42"/><line x1="140.06" y1="129.91" x2="144.72" y2="134.57"/><line x1="222.82" y1="178.87" x2="221.66" y2="180.03"/><line x1="268.29" y1="64.63" x2="275.28" y2="64.63"/><line x1="274.7" y1="135.74" x2="274.11" y2="135.15"/><line x1="272.95" y1="138.07" x2="272.95" y2="137.49"/><line x1="207.09" y1="134.57" x2="205.34" y2="134.57"/><line x1="293.93" y1="139.23" x2="293.93" y2="163.13"/><line x1="310.25" y1="157.3" x2="310.25" y2="159.63"/><line x1="130.73" y1="41.31" x2="129.57" y2="42.48"/><line x1="144.72" y1="120.58" x2="140.06" y2="125.25"/><line x1="200.67" y1="77.45" x2="200.67" y2="78.62"/><line x1="152.88" y1="118.25" x2="152.88" y2="119.42"/><line x1="183.19" y1="134.57" x2="182.02" y2="133.41"/><line x1="180.86" y1="111.26" x2="171.53" y2="111.26"/><line x1="249.63" y1="181.2" x2="247.89" y2="181.2"/><line x1="289.27" y1="138.07" x2="292.77" y2="138.07"/><line x1="196.01" y1="135.74" x2="197.18" y2="134.57"/><line x1="196.01" y1="139.23" x2="196.01" y2="138.07"/><line x1="98.09" y1="115.92" x2="91.1" y2="115.92"/><line x1="99.26" y1="118.25" x2="99.26" y2="117.09"/><line x1="99.26" y1="117.09" x2="98.09" y2="115.92"/><line x1="112.08" y1="125.25" x2="107.42" y2="120.58"/><line x1="100.42" y1="120.58" x2="99.26" y2="119.42"/><line x1="107.42" y1="120.58" x2="100.42" y2="120.58"/><line x1="99.26" y1="136.9" x2="99.26" y2="135.74"/><line x1="99.26" y1="138.07" x2="99.26" y2="136.9"/><line x1="98.09" y1="139.23" x2="99.26" y2="138.07"/><line x1="99.26" y1="135.74" x2="100.42" y2="134.57"/><line x1="100.42" y1="134.57" x2="107.42" y2="134.57"/><line x1="112.08" y1="129.91" x2="112.08" y2="125.25"/><line x1="107.42" y1="134.57" x2="112.08" y2="129.91"/><line x1="203.01" y1="143.9" x2="214.08" y2="143.9"/><line x1="200.67" y1="141.57" x2="203.01" y2="143.9"/><line x1="216.41" y1="141.57" x2="218.16" y2="141.57"/><line x1="197.18" y1="134.57" x2="199.51" y2="134.57"/><line x1="199.51" y1="134.57" x2="200.67" y2="135.74"/><line x1="140.06" y1="218.5" x2="107.42" y2="218.5"/><line x1="191.35" y1="218.5" x2="186.69" y2="218.5"/><line x1="200.67" y1="216.17" x2="196.01" y2="216.17"/><line x1="200.67" y1="218.5" x2="200.67" y2="216.17"/><line x1="210" y1="218.5" x2="205.34" y2="218.5"/><line x1="163.37" y1="218.5" x2="154.05" y2="218.5"/><line x1="154.05" y1="218.5" x2="144.72" y2="218.5"/><line x1="214.66" y1="218.5" x2="210" y2="218.5"/><line x1="144.72" y1="218.5" x2="140.06" y2="218.5"/><line x1="186.69" y1="218.5" x2="184.35" y2="218.5"/><line x1="168.03" y1="218.5" x2="163.37" y2="218.5"/><line x1="184.35" y1="220.83" x2="182.02" y2="220.83"/><line x1="184.35" y1="218.5" x2="184.35" y2="220.83"/><line x1="170.37" y1="220.83" x2="170.37" y2="218.5"/><line x1="170.37" y1="218.5" x2="168.03" y2="218.5"/><line x1="182.02" y1="222" x2="172.7" y2="222"/><line x1="182.02" y1="220.83" x2="182.02" y2="222"/><line x1="172.7" y1="222" x2="172.7" y2="220.83"/><line x1="172.7" y1="220.83" x2="170.37" y2="220.83"/><line x1="115.58" y1="33.15" x2="117.91" y2="35.49"/><line x1="158.71" y1="24.41" x2="158.71" y2="25.58"/><line x1="177.36" y1="24.41" x2="158.71" y2="24.41"/><line x1="158.71" y1="25.58" x2="177.36" y2="25.58"/><line x1="177.36" y1="25.58" x2="177.36" y2="24.41"/><line x1="117.91" y1="35.49" x2="120.24" y2="33.15"/><line x1="117.91" y1="30.82" x2="115.58" y2="33.15"/><line x1="120.24" y1="33.15" x2="117.91" y2="30.82"/><line x1="107.42" y1="190.53" x2="102.75" y2="190.53"/><line x1="98.09" y1="190.53" x2="91.1" y2="139.23"/><line x1="102.75" y1="190.53" x2="98.09" y2="190.53"/><line x1="91.1" y1="139.23" x2="98.09" y2="139.23"/><line x1="121.41" y1="101.93" x2="122.57" y2="100.77"/><line x1="130.73" y1="101.93" x2="131.9" y2="100.77"/><line x1="131.9" y1="98.43" x2="131.9" y2="91.44"/><line x1="133.06" y1="90.27" x2="131.9" y2="89.11"/><line x1="129.57" y1="89.11" x2="122.57" y2="89.11"/><line x1="121.41" y1="87.94" x2="120.24" y2="89.11"/><line x1="119.07" y1="99.6" x2="120.24" y2="100.77"/><line x1="120.24" y1="89.11" x2="119.07" y2="90.27"/><line x1="131.9" y1="89.11" x2="130.73" y2="87.94"/><line x1="131.9" y1="100.77" x2="133.06" y2="99.6"/><line x1="120.24" y1="100.77" x2="121.41" y2="101.93"/><line x1="119.07" y1="90.27" x2="120.24" y2="91.44"/><line x1="120.24" y1="91.44" x2="120.24" y2="98.43"/><line x1="120.24" y1="98.43" x2="119.07" y2="99.6"/><line x1="122.57" y1="89.11" x2="121.41" y2="87.94"/><line x1="130.73" y1="87.94" x2="129.57" y2="89.11"/><line x1="131.9" y1="91.44" x2="133.06" y2="90.27"/><line x1="133.06" y1="99.6" x2="131.9" y2="98.43"/><line x1="122.57" y1="100.77" x2="129.57" y2="100.77"/><line x1="129.57" y1="100.77" x2="130.73" y2="101.93"/><line x1="121.41" y1="78.62" x2="122.57" y2="77.45"/><line x1="130.73" y1="78.62" x2="131.9" y2="77.45"/><line x1="131.9" y1="75.12" x2="131.9" y2="68.13"/><line x1="133.06" y1="66.96" x2="131.9" y2="65.79"/><line x1="129.57" y1="65.79" x2="122.57" y2="65.79"/><line x1="121.41" y1="64.63" x2="120.24" y2="65.79"/><line x1="119.07" y1="76.29" x2="120.24" y2="77.45"/><line x1="120.24" y1="65.79" x2="119.07" y2="66.96"/><line x1="131.9" y1="65.79" x2="130.73" y2="64.63"/><line x1="131.9" y1="77.45" x2="133.06" y2="76.29"/><line x1="120.24" y1="77.45" x2="121.41" y2="78.62"/><line x1="119.07" y1="66.96" x2="120.24" y2="68.13"/><line x1="120.24" y1="68.13" x2="120.24" y2="75.12"/><line x1="120.24" y1="75.12" x2="119.07" y2="76.29"/><line x1="122.57" y1="65.79" x2="121.41" y2="64.63"/><line x1="130.73" y1="64.63" x2="129.57" y2="65.79"/><line x1="131.9" y1="68.13" x2="133.06" y2="66.96"/><line x1="133.06" y1="76.29" x2="131.9" y2="75.12"/><line x1="122.57" y1="77.45" x2="129.57" y2="77.45"/><line x1="129.57" y1="77.45" x2="130.73" y2="78.62"/><line x1="121.41" y1="55.3" x2="122.57" y2="54.14"/><line x1="130.73" y1="55.3" x2="131.9" y2="54.14"/><line x1="131.9" y1="51.81" x2="131.9" y2="44.81"/><line x1="133.06" y1="43.65" x2="131.9" y2="42.48"/><line x1="129.57" y1="42.48" x2="122.57" y2="42.48"/><line x1="121.41" y1="41.31" x2="120.24" y2="42.48"/><line x1="119.07" y1="52.97" x2="120.24" y2="54.14"/><line x1="120.24" y1="42.48" x2="119.07" y2="43.65"/><line x1="131.9" y1="42.48" x2="130.73" y2="41.31"/><line x1="131.9" y1="54.14" x2="133.06" y2="52.97"/><line x1="120.24" y1="54.14" x2="121.41" y2="55.3"/><line x1="173.28" y1="76.29" x2="182.02" y2="76.29"/><line x1="170.37" y1="79.2" x2="173.28" y2="76.29"/><line x1="170.37" y1="101.93" x2="169.2" y2="101.93"/><line x1="169.2" y1="92.61" x2="170.37" y2="92.61"/><line x1="170.37" y1="92.61" x2="170.37" y2="79.2"/><line x1="169.2" y1="101.93" x2="169.2" y2="114.75"/><line x1="171.53" y1="111.26" x2="170.37" y2="110.09"/><line x1="199.51" y1="76.29" x2="200.67" y2="77.45"/><line x1="175.03" y1="75.7" x2="175.03" y2="75.12"/><line x1="179.69" y1="75.12" x2="179.69" y2="75.7"/><line x1="199.51" y1="111.26" x2="197.18" y2="111.26"/><line x1="200.67" y1="108.93" x2="200.67" y2="110.09"/><line x1="201.84" y1="107.76" x2="200.67" y2="108.93"/><line x1="204.17" y1="107.76" x2="203.59" y2="107.76"/><line x1="204.17" y1="79.78" x2="205.34" y2="78.62"/><line x1="201.84" y1="79.78" x2="202.42" y2="79.78"/><line x1="202.42" y1="79.78" x2="203.59" y2="79.78"/><line x1="203.59" y1="79.78" x2="204.17" y2="79.78"/><line x1="203.59" y1="107.76" x2="202.42" y2="107.76"/><line x1="202.42" y1="107.76" x2="201.84" y2="107.76"/><line x1="202.42" y1="89.11" x2="201.84" y2="89.69"/><line x1="201.84" y1="89.69" x2="201.84" y2="91.44"/><line x1="201.84" y1="97.85" x2="202.42" y2="98.43"/><line x1="202.42" y1="98.43" x2="203.59" y2="98.43"/><line x1="203.59" y1="98.43" x2="204.17" y2="97.85"/><line x1="204.17" y1="97.85" x2="204.17" y2="89.69"/><line x1="204.17" y1="89.69" x2="203.59" y2="89.11"/><line x1="203.59" y1="89.11" x2="202.42" y2="89.11"/><line x1="202.42" y1="91.44" x2="202.42" y2="96.1"/><line x1="202.42" y1="96.1" x2="201.84" y2="96.1"/><line x1="201.84" y1="91.44" x2="202.42" y2="91.44"/><line x1="201.84" y1="96.1" x2="201.84" y2="97.85"/><line x1="198.34" y1="163.71" x2="198.34" y2="189.36"/><line x1="198.34" y1="189.36" x2="199.51" y2="190.53"/><line x1="203.01" y1="185.86" x2="205.34" y2="183.53"/><line x1="211.17" y1="183.53" x2="212.33" y2="182.37"/><line x1="212.33" y1="182.37" x2="212.33" y2="180.03"/><line x1="212.33" y1="180.03" x2="211.17" y2="178.87"/><line x1="211.17" y1="178.87" x2="204.17" y2="178.87"/><line x1="290.14" y1="53.63" x2="290.43" y2="53.63"/><line x1="289.85" y1="52.97" x2="289.85" y2="53.63"/><line x1="290.43" y1="52.97" x2="291.6" y2="52.97"/><line x1="290.43" y1="70.97" x2="290.14" y2="70.97"/><line x1="289.85" y1="71.62" x2="289.27" y2="71.62"/><line x1="289.85" y1="70.97" x2="289.85" y2="71.62"/><line x1="290.43" y1="71.62" x2="290.43" y2="70.97"/><line x1="242.64" y1="50.64" x2="247.3" y2="50.64"/><line x1="247.3" y1="48.31" x2="251.97" y2="48.31"/><line x1="251.97" y1="48.31" x2="260.13" y2="48.31"/><line x1="254.3" y1="64.63" x2="255.46" y2="65.79"/><line x1="233.31" y1="79.2" x2="233.31" y2="78.62"/><line x1="261.29" y1="78.03" x2="261.29" y2="78.62"/><line x1="233.31" y1="78.62" x2="233.31" y2="78.03"/><line x1="261.29" y1="79.2" x2="265.37" y2="79.2"/><line x1="233.31" y1="78.03" x2="228.07" y2="78.03"/><line x1="261.29" y1="78.62" x2="261.29" y2="79.2"/><line x1="295.1" y1="93.77" x2="295.1" y2="56.47"/><line x1="328.9" y1="55.89" x2="328.9" y2="90.27"/><line x1="295.1" y1="56.47" x2="295.1" y2="47.14"/><line x1="295.1" y1="138.07" x2="295.1" y2="103.1"/><line x1="295.1" y1="47.14" x2="297.43" y2="47.14"/><line x1="327.74" y1="90.27" x2="327.74" y2="92.61"/><line x1="309.09" y1="147.39" x2="306.75" y2="147.39"/><line x1="328.9" y1="138.65" x2="327.74" y2="139.82"/><line x1="295.1" y1="147.39" x2="295.1" y2="138.07"/><line x1="298.59" y1="55.3" x2="300.93" y2="55.3"/><line x1="300.93" y1="55.3" x2="300.93" y2="52.97"/><line x1="300.93" y1="52.97" x2="298.59" y2="52.97"/><line x1="298.59" y1="52.97" x2="298.59" y2="55.3"/><line x1="328.9" y1="90.27" x2="327.74" y2="90.27"/><line x1="309.09" y1="47.14" x2="310.25" y2="45.98"/><line x1="310.25" y1="45.98" x2="318.99" y2="45.98"/><line x1="318.99" y1="45.98" x2="320.16" y2="47.14"/><line x1="297.43" y1="45.98" x2="306.75" y2="45.98"/><line x1="306.75" y1="45.98" x2="306.75" y2="47.14"/><line x1="297.43" y1="47.14" x2="297.43" y2="45.98"/><line x1="306.75" y1="47.14" x2="309.09" y2="47.14"/><line x1="320.16" y1="47.14" x2="327.74" y2="54.72"/><line x1="327.74" y1="54.72" x2="328.9" y2="55.89"/><line x1="328.9" y1="104.26" x2="328.9" y2="138.65"/><line x1="327.74" y1="104.26" x2="328.9" y2="104.26"/><line x1="310.25" y1="148.56" x2="309.09" y2="147.39"/><line x1="318.99" y1="148.56" x2="310.25" y2="148.56"/><line x1="320.16" y1="147.39" x2="318.99" y2="148.56"/><line x1="327.74" y1="139.82" x2="320.16" y2="147.39"/><line x1="306.75" y1="148.56" x2="297.43" y2="148.56"/><line x1="306.75" y1="147.39" x2="306.75" y2="148.56"/><line x1="297.43" y1="148.56" x2="297.43" y2="147.39"/><line x1="297.43" y1="147.39" x2="295.1" y2="147.39"/><line x1="328.9" y1="92.61" x2="328.9" y2="101.93"/><line x1="328.9" y1="101.93" x2="327.74" y2="101.93"/><line x1="327.74" y1="92.61" x2="328.9" y2="92.61"/><line x1="327.74" y1="101.93" x2="327.74" y2="104.26"/><line x1="316.95" y1="57.93" x2="319.29" y2="57.93"/><line x1="319.29" y1="57.93" x2="319.29" y2="55.59"/><line x1="319.29" y1="55.59" x2="316.95" y2="55.59"/><line x1="316.95" y1="55.59" x2="316.95" y2="57.93"/><line x1="316.95" y1="138.94" x2="319.29" y2="138.94"/><line x1="319.29" y1="138.94" x2="319.29" y2="136.61"/><line x1="319.29" y1="136.61" x2="316.95" y2="136.61"/><line x1="316.95" y1="136.61" x2="316.95" y2="138.94"/><line x1="298.59" y1="141.57" x2="300.93" y2="141.57"/><line x1="300.93" y1="141.57" x2="300.93" y2="139.23"/><line x1="300.93" y1="139.23" x2="298.59" y2="139.23"/><line x1="298.59" y1="139.23" x2="298.59" y2="141.57"/><line x1="319.58" y1="76.29" x2="321.91" y2="76.29"/><line x1="321.91" y1="76.29" x2="321.91" y2="73.95"/><line x1="321.91" y1="73.95" x2="319.58" y2="73.95"/><line x1="319.58" y1="73.95" x2="319.58" y2="76.29"/><line x1="319.58" y1="120.58" x2="321.91" y2="120.58"/><line x1="321.91" y1="120.58" x2="321.91" y2="118.25"/><line x1="321.91" y1="118.25" x2="319.58" y2="118.25"/><line x1="319.58" y1="118.25" x2="319.58" y2="120.58"/><line x1="319.58" y1="98.43" x2="321.91" y2="98.43"/><line x1="321.91" y1="98.43" x2="321.91" y2="96.1"/><line x1="321.91" y1="96.1" x2="319.58" y2="96.1"/><line x1="319.58" y1="96.1" x2="319.58" y2="98.43"/><line x1="102.75" y1="18" x2="205.34" y2="22.66"/><line x1="91.1" y1="115.92" x2="102.75" y2="18"/><line x1="115.58" y1="208.01" x2="117.91" y2="210.34"/><line x1="117.91" y1="210.34" x2="120.24" y2="208.01"/><line x1="120.24" y1="208.01" x2="117.91" y2="205.68"/><line x1="117.91" y1="205.68" x2="115.58" y2="208.01"/><line x1="236.81" y1="210.34" x2="239.14" y2="208.01"/><line x1="239.14" y1="208.01" x2="236.81" y2="205.68"/><line x1="236.81" y1="205.68" x2="234.48" y2="208.01"/><line x1="234.48" y1="208.01" x2="236.81" y2="210.34"/><line x1="201.84" y1="190.53" x2="203.01" y2="189.36"/><line x1="199.51" y1="190.53" x2="201.84" y2="190.53"/><line x1="196.01" y1="218.5" x2="191.35" y2="218.5"/><line x1="205.34" y1="183.53" x2="211.17" y2="183.53"/><line x1="203.01" y1="189.36" x2="203.01" y2="185.86"/><line x1="196.01" y1="216.17" x2="196.01" y2="218.5"/><line x1="205.34" y1="218.5" x2="200.67" y2="218.5"/><line x1="201.84" y1="199.85" x2="199.51" y2="199.85"/><line x1="199.51" y1="199.85" x2="198.34" y2="201.02"/><line x1="198.34" y1="201.02" x2="198.34" y2="208.01"/><line x1="198.34" y1="208.01" x2="199.51" y2="209.18"/><line x1="199.51" y1="209.18" x2="201.84" y2="209.18"/><line x1="201.84" y1="209.18" x2="203.01" y2="208.01"/><line x1="203.01" y1="208.01" x2="203.01" y2="201.02"/><line x1="203.01" y1="201.02" x2="201.84" y2="199.85"/></g><g opacity="0.95"><circle cx="119.07" cy="164.88" r="3.2" fill="#b7493c"/><circle cx="198.34" cy="136.9" r="2.2" fill="#d3b15b"/><circle cx="208.83" cy="171.87" r="2.2" fill="#d3b15b"/><circle cx="302.09" cy="170.13" r="2.2" fill="#d3b15b"/><circle cx="119.07" cy="160.22" r="3.2" fill="#b7493c"/><circle cx="119.07" cy="155.55" r="3.2" fill="#b7493c"/><circle cx="119.07" cy="150.89" r="3.2" fill="#b7493c"/><circle cx="282.27" cy="76.29" r="2.2" fill="#d3b15b"/><circle cx="277.61" cy="64.63" r="2.2" fill="#d3b15b"/><circle cx="287.52" cy="108.34" r="2.2" fill="#d3b15b"/><circle cx="186.69" cy="92.61" r="2.2" fill="#d3b15b"/><circle cx="234.48" cy="210.34" r="2.2" fill="#d3b15b"/><circle cx="239.14" cy="205.68" r="2.2" fill="#d3b15b"/><circle cx="115.58" cy="205.68" r="2.2" fill="#d3b15b"/><circle cx="120.24" cy="210.34" r="2.2" fill="#d3b15b"/><circle cx="114.41" cy="205.68" r="3.2" fill="#b7493c"/><circle cx="120.24" cy="211.51" r="3.2" fill="#b7493c"/><circle cx="234.48" cy="211.51" r="3.2" fill="#b7493c"/><circle cx="240.31" cy="204.51" r="3.2" fill="#b7493c"/><circle cx="223.99" cy="198.69" r="2.2" fill="#d3b15b"/><circle cx="120.24" cy="30.82" r="2.2" fill="#d3b15b"/><circle cx="115.58" cy="35.49" r="2.2" fill="#d3b15b"/><circle cx="120.24" cy="29.66" r="3.2" fill="#b7493c"/><circle cx="114.41" cy="36.65" r="3.2" fill="#b7493c"/><circle cx="182.61" cy="45.39" r="2.2" fill="#d3b15b"/><circle cx="191.35" cy="44.23" r="2.2" fill="#d3b15b"/><circle cx="191.35" cy="40.73" r="2.2" fill="#d3b15b"/><circle cx="191.35" cy="37.23" r="2.2" fill="#d3b15b"/><circle cx="173.86" cy="44.81" r="2.2" fill="#d3b15b"/><circle cx="173.86" cy="48.31" r="2.2" fill="#d3b15b"/><circle cx="172.99" cy="78.91" r="2.2" fill="#d3b15b"/><circle cx="198.93" cy="78.03" r="2.2" fill="#d3b15b"/><circle cx="172.11" cy="109.51" r="2.2" fill="#d3b15b"/><circle cx="198.93" cy="109.51" r="2.2" fill="#d3b15b"/><circle cx="214.08" cy="58.22" r="2.2" fill="#d3b15b"/><circle cx="205.92" cy="68.71" r="2.2" fill="#d3b15b"/><circle cx="260.13" cy="111.26" r="2.2" fill="#d3b15b"/><circle cx="257.79" cy="112.42" r="3.2" fill="#b7493c"/><circle cx="288.1" cy="49.47" r="3.2" fill="#b7493c"/><circle cx="286.94" cy="50.64" r="2.2" fill="#d3b15b"/><circle cx="265.37" cy="140.4" r="2.2" fill="#d3b15b"/><circle cx="291.6" cy="178.87" r="2.2" fill="#d3b15b"/><circle cx="292.77" cy="178.87" r="3.2" fill="#b7493c"/><circle cx="266.54" cy="139.23" r="3.2" fill="#b7493c"/><circle cx="256.63" cy="148.56" r="2.2" fill="#d3b15b"/><circle cx="282.27" cy="150.89" r="2.2" fill="#d3b15b"/><circle cx="215.83" cy="200.43" r="2.2" fill="#d3b15b"/><circle cx="216.99" cy="196.94" r="2.2" fill="#d3b15b"/><circle cx="219.33" cy="199.85" r="2.2" fill="#d3b15b"/><circle cx="148.8" cy="208.59" r="2.2" fill="#d3b15b"/><circle cx="150.55" cy="184.7" r="2.2" fill="#d3b15b"/><circle cx="137.14" cy="206.85" r="2.2" fill="#d3b15b"/><circle cx="147.05" cy="140.98" r="2.2" fill="#d3b15b"/><circle cx="147.05" cy="114.17" r="2.2" fill="#d3b15b"/><circle cx="126.07" cy="59.97" r="2.2" fill="#d3b15b"/><circle cx="126.07" cy="83.28" r="2.2" fill="#d3b15b"/><circle cx="197.76" cy="73.37" r="2.2" fill="#d3b15b"/><circle cx="167.45" cy="114.17" r="2.2" fill="#d3b15b"/><circle cx="197.18" cy="30.82" r="2.2" fill="#d3b15b"/><circle cx="165.12" cy="216.75" r="2.2" fill="#d3b15b"/><circle cx="189.6" cy="216.75" r="2.2" fill="#d3b15b"/><circle cx="230.98" cy="86.78" r="2.2" fill="#d3b15b"/><circle cx="234.48" cy="144.48" r="2.2" fill="#d3b15b"/><circle cx="237.39" cy="147.39" r="2.2" fill="#d3b15b"/><circle cx="268.87" cy="147.98" r="2.2" fill="#d3b15b"/><circle cx="247.3" cy="97.27" r="2.2" fill="#d3b15b"/><circle cx="249.05" cy="179.45" r="2.2" fill="#d3b15b"/><circle cx="249.05" cy="175.95" r="2.2" fill="#d3b15b"/><circle cx="184.94" cy="113.59" r="2.2" fill="#d3b15b"/><circle cx="184.94" cy="115.92" r="2.2" fill="#d3b15b"/><circle cx="184.94" cy="118.25" r="2.2" fill="#d3b15b"/><circle cx="184.94" cy="120.58" r="2.2" fill="#d3b15b"/><circle cx="193.1" cy="113.59" r="2.2" fill="#d3b15b"/><circle cx="193.1" cy="115.92" r="2.2" fill="#d3b15b"/><circle cx="193.1" cy="118.25" r="2.2" fill="#d3b15b"/><circle cx="193.1" cy="120.58" r="2.2" fill="#d3b15b"/><circle cx="262.17" cy="61.71" r="2.2" fill="#d3b15b"/><circle cx="267.99" cy="132.24" r="2.2" fill="#d3b15b"/><circle cx="236.81" cy="132.82" r="2.2" fill="#d3b15b"/><circle cx="240.31" cy="132.82" r="2.2" fill="#d3b15b"/></g></svg>