<svg xmlns="http://www.w3.org/2000/svg" viewBox="0 0 420 240" role="img"><rect width="100%" height="100%" fill="#070706"/><g stroke="#5e5a4f" stroke-width="1.6" stroke-linecap="round"><line x1="238.17" y1="101.54" x2="226.51" y2="113.2"/><line x1="160.46" y1="107.37" x2="160.46" y2="120.97"/><line x1="166.29" y1="52.97" x2="177.94" y2="47.14"/><line x1="238.17" y1="82.11" x2="238.17" y2="101.54"/><line x1="164.34" y1="66.57" x2="228.46" y2="66.57"/><line x1="164.34" y1="70.46" x2="164.34" y2="66.57"/><line x1="168.23" y1="82.11" x2="164.34" y2="78.23"/><line x1="312" y1="97.66" x2="312" y2="89.89"/><line x1="156.57" y1="51.03" x2="141.03" y2="51.03"/><line x1="255.66" y1="122.91" x2="261.49" y2="111.26"/><line x1="152.69" y1="132.63" x2="141.03" y2="132.63"/><line x1="245.94" y1="120.97" x2="164.34" y2="120.97"/><line x1="245.94" y1="66.57" x2="249.83" y2="66.57"/><line x1="277.03" y1="124.86" x2="257.6" y2="124.86"/><line x1="141.03" y1="148.17" x2="156.57" y2="148.17"/><line x1="164.34" y1="84.06" x2="164.34" y2="103.49"/><line x1="232.34" y1="47.14" x2="244" y2="52.97"/><line x1="177.94" y1="47.14" x2="232.34" y2="47.14"/><line x1="141.03" y1="66.57" x2="156.57" y2="66.57"/><line x1="141.03" y1="144.29" x2="156.57" y2="144.29"/><line x1="164.34" y1="109.31" x2="168.23" y2="105.43"/><line x1="164.34" y1="120.97" x2="164.34" y2="117.09"/><line x1="226.51" y1="113.2" x2="164.34" y2="113.2"/><line x1="257.6" y1="109.31" x2="251.77" y2="120.97"/><line x1="280.91" y1="185.09" x2="278.97" y2="187.03"/><line x1="278.97" y1="187.03" x2="271.2" y2="187.03"/><line x1="230.4" y1="51.03" x2="242.06" y2="56.86"/><line x1="179.89" y1="51.03" x2="230.4" y2="51.03"/><line x1="164.34" y1="117.09" x2="164.34" y2="113.2"/><line x1="168.23" y1="132.63" x2="242.06" y2="132.63"/><line x1="244" y1="58.8" x2="244" y2="61.71"/><line x1="152.69" y1="124.86" x2="141.03" y2="124.86"/><line x1="141.03" y1="140.4" x2="156.57" y2="140.4"/><line x1="261.49" y1="111.26" x2="261.49" y2="76.29"/><line x1="156.57" y1="120.97" x2="141.03" y2="120.97"/><line x1="261.49" y1="76.29" x2="255.66" y2="64.63"/><line x1="228.46" y1="117.09" x2="164.34" y2="117.09"/><line x1="168.23" y1="105.43" x2="168.23" y2="82.11"/><line x1="244" y1="61.71" x2="246.91" y2="64.63"/><line x1="164.34" y1="187.03" x2="164.34" y2="150.11"/><line x1="152.69" y1="128.74" x2="141.03" y2="128.74"/><line x1="242.06" y1="80.17" x2="242.06" y2="103.49"/><line x1="164.34" y1="78.23" x2="164.34" y2="70.46"/><line x1="168.23" y1="56.86" x2="179.89" y2="51.03"/><line x1="164.34" y1="70.46" x2="226.51" y2="70.46"/><line x1="242.06" y1="62.69" x2="245.94" y2="66.57"/><line x1="246.91" y1="64.63" x2="249.83" y2="64.63"/><line x1="194.7" y1="19.94" x2="198.59" y2="19.94"/><line x1="242.06" y1="103.49" x2="228.46" y2="117.09"/><line x1="280.91" y1="43.26" x2="280.91" y2="58.8"/><line x1="284.8" y1="82.11" x2="284.8" y2="105.43"/><line x1="304.23" y1="97.66" x2="312" y2="97.66"/><line x1="170.17" y1="214.23" x2="170.17" y2="198.69"/><line x1="304.23" y1="89.89" x2="304.23" y2="97.66"/><line x1="148.8" y1="89.89" x2="148.8" y2="97.66"/><line x1="148.8" y1="97.66" x2="156.57" y2="97.66"/><line x1="156.57" y1="97.66" x2="156.57" y2="89.89"/><line x1="156.57" y1="89.89" x2="148.8" y2="89.89"/><line x1="242.06" y1="58.8" x2="242.06" y2="62.69"/><line x1="195.43" y1="89.89" x2="195.43" y2="97.66"/><line x1="195.43" y1="97.66" x2="203.2" y2="97.66"/><line x1="203.2" y1="97.66" x2="203.2" y2="89.89"/><line x1="203.2" y1="89.89" x2="195.43" y2="89.89"/><line x1="288.69" y1="105.43" x2="288.69" y2="101.54"/><line x1="312" y1="89.89" x2="304.23" y2="89.89"/><line x1="228.46" y1="66.57" x2="242.06" y2="80.17"/><line x1="226.51" y1="70.46" x2="238.17" y2="82.11"/><line x1="251.77" y1="66.57" x2="257.6" y2="78.23"/><line x1="257.6" y1="78.23" x2="257.6" y2="109.31"/><line x1="257.6" y1="132.63" x2="277.03" y2="132.63"/><line x1="160.46" y1="66.57" x2="160.46" y2="80.17"/><line x1="160.46" y1="80.17" x2="164.34" y2="84.06"/><line x1="164.34" y1="113.2" x2="164.34" y2="109.31"/><line x1="164.34" y1="103.49" x2="160.46" y2="107.37"/><line x1="174.3" y1="19.94" x2="182.07" y2="19.94"/><line x1="242.18" y1="19.94" x2="249.95" y2="19.94"/><line x1="211.09" y1="19.94" x2="226.64" y2="19.94"/><line x1="137.14" y1="78.23" x2="139.09" y2="74.34"/><line x1="137.14" y1="86" x2="137.14" y2="78.23"/><line x1="139.09" y1="89.89" x2="137.14" y2="86"/><line x1="141.03" y1="89.89" x2="141.03" y2="74.34"/><line x1="141.03" y1="113.2" x2="141.03" y2="97.66"/><line x1="137.14" y1="101.54" x2="139.09" y2="97.66"/><line x1="139.09" y1="113.2" x2="137.14" y2="109.31"/><line x1="137.14" y1="109.31" x2="137.14" y2="101.54"/><line x1="141.03" y1="175.37" x2="141.03" y2="159.83"/><line x1="139.09" y1="175.37" x2="137.14" y2="171.49"/><line x1="137.14" y1="171.49" x2="137.14" y2="163.71"/><line x1="137.14" y1="163.71" x2="139.09" y2="159.83"/><line x1="135.2" y1="109.31" x2="133.26" y2="113.2"/><line x1="135.2" y1="101.54" x2="135.2" y2="109.31"/><line x1="133.26" y1="97.66" x2="135.2" y2="101.54"/><line x1="135.2" y1="86" x2="133.26" y2="89.89"/><line x1="135.2" y1="78.23" x2="135.2" y2="86"/><line x1="133.26" y1="74.34" x2="135.2" y2="78.23"/><line x1="104.11" y1="66.57" x2="115.77" y2="66.57"/><line x1="115.77" y1="120.97" x2="104.11" y2="120.97"/><line x1="115.77" y1="97.66" x2="117.71" y2="99.6"/><line x1="100.23" y1="97.66" x2="115.77" y2="97.66"/><line x1="117.71" y1="72.4" x2="117.71" y2="87.94"/><line x1="115.77" y1="89.89" x2="100.23" y2="89.89"/><line x1="117.71" y1="87.94" x2="115.77" y2="89.89"/><line x1="117.71" y1="99.6" x2="117.71" y2="115.14"/><line x1="82.74" y1="78.23" x2="82.74" y2="86"/><line x1="82.74" y1="86" x2="86.63" y2="86"/><line x1="86.63" y1="86" x2="86.63" y2="78.23"/><line x1="86.63" y1="78.23" x2="82.74" y2="78.23"/><line x1="82.74" y1="101.54" x2="82.74" y2="109.31"/><line x1="82.74" y1="109.31" x2="86.63" y2="109.31"/><line x1="86.63" y1="109.31" x2="86.63" y2="101.54"/><line x1="86.63" y1="101.54" x2="82.74" y2="101.54"/><line x1="125.49" y1="74.34" x2="125.49" y2="89.89"/><line x1="125.49" y1="97.66" x2="125.49" y2="113.2"/><line x1="135.2" y1="171.49" x2="133.26" y2="175.37"/><line x1="135.2" y1="163.71" x2="135.2" y2="171.49"/><line x1="133.26" y1="159.83" x2="135.2" y2="163.71"/><line x1="104.11" y1="152.06" x2="115.77" y2="152.06"/><line x1="115.77" y1="183.14" x2="104.11" y2="183.14"/><line x1="117.71" y1="124.86" x2="131.31" y2="124.86"/><line x1="131.31" y1="124.86" x2="133.26" y2="126.8"/><line x1="131.31" y1="148.17" x2="117.71" y2="148.17"/><line x1="102.17" y1="148.17" x2="88.57" y2="148.17"/><line x1="88.57" y1="148.17" x2="86.63" y2="146.23"/><line x1="86.63" y1="146.23" x2="86.63" y2="126.8"/><line x1="86.63" y1="126.8" x2="88.57" y2="124.86"/><line x1="88.57" y1="124.86" x2="102.17" y2="124.86"/><line x1="133.26" y1="146.23" x2="131.31" y2="148.17"/><line x1="133.26" y1="126.8" x2="133.26" y2="146.23"/><line x1="104.11" y1="122.91" x2="115.77" y2="122.91"/><line x1="115.77" y1="150.11" x2="104.11" y2="150.11"/><line x1="117.71" y1="157.89" x2="117.71" y2="177.31"/><line x1="125.49" y1="159.83" x2="125.49" y2="175.37"/><line x1="86.63" y1="171.49" x2="86.63" y2="163.71"/><line x1="86.63" y1="163.71" x2="82.74" y2="163.71"/><line x1="82.74" y1="163.71" x2="82.74" y2="171.49"/><line x1="82.74" y1="171.49" x2="86.63" y2="171.49"/><line x1="94.4" y1="134.57" x2="94.4" y2="138.46"/><line x1="94.4" y1="138.46" x2="98.29" y2="138.46"/><line x1="98.29" y1="138.46" x2="98.29" y2="134.57"/><line x1="98.29" y1="134.57" x2="94.4" y2="134.57"/><line x1="95.37" y1="135.54" x2="97.31" y2="135.54"/><line x1="97.31" y1="135.54" x2="97.31" y2="137.49"/><line x1="97.31" y1="137.49" x2="95.37" y2="137.49"/><line x1="95.37" y1="137.49" x2="95.37" y2="135.54"/><line x1="185.71" y1="187.03" x2="170.17" y2="187.03"/><line x1="185.71" y1="190.91" x2="170.17" y2="190.91"/><line x1="185.71" y1="194.8" x2="170.17" y2="194.8"/><line x1="185.71" y1="198.69" x2="170.17" y2="198.69"/><line x1="302.29" y1="66.57" x2="313.94" y2="66.57"/><line x1="298.4" y1="74.34" x2="312" y2="74.34"/><line x1="312" y1="86" x2="288.69" y2="86"/><line x1="335.31" y1="87.94" x2="340.17" y2="86.97"/><line x1="313.94" y1="120.97" x2="314.91" y2="125.83"/><line x1="288.69" y1="86" x2="288.69" y2="82.11"/><line x1="288.69" y1="101.54" x2="312" y2="101.54"/><line x1="312" y1="74.34" x2="315.89" y2="78.23"/><line x1="315.89" y1="78.23" x2="315.89" y2="82.11"/><line x1="312" y1="113.2" x2="298.4" y2="113.2"/><line x1="315.89" y1="109.31" x2="312" y2="113.2"/><line x1="312" y1="101.54" x2="315.89" y2="105.43"/><line x1="315.89" y1="82.11" x2="312" y2="86"/><line x1="288.69" y1="101.54" x2="288.69" y2="86"/><line x1="315.89" y1="105.43" x2="315.89" y2="109.31"/><line x1="309.09" y1="69.49" x2="309.09" y2="71.43"/><line x1="309.09" y1="71.43" x2="307.14" y2="71.43"/><line x1="307.14" y1="71.43" x2="307.14" y2="69.49"/><line x1="307.14" y1="69.49" x2="309.09" y2="69.49"/><line x1="302.29" y1="66.57" x2="302.29" y2="62.69"/><line x1="301.31" y1="61.71" x2="314.91" y2="61.71"/><line x1="302.29" y1="62.69" x2="313.94" y2="62.69"/><line x1="300.34" y1="68.51" x2="315.89" y2="68.51"/><line x1="102.17" y1="68.51" x2="117.71" y2="68.51"/><line x1="104.11" y1="66.57" x2="104.11" y2="62.69"/><line x1="116.74" y1="61.71" x2="115.77" y2="66.57"/><line x1="104.11" y1="62.69" x2="115.77" y2="62.69"/><line x1="166.29" y1="214.23" x2="166.29" y2="198.69"/><line x1="156.57" y1="196.74" x2="164.34" y2="196.74"/><line x1="154.63" y1="214.23" x2="154.63" y2="198.69"/><line x1="152.69" y1="214.23" x2="152.69" y2="198.69"/><line x1="121.6" y1="198.69" x2="121.6" y2="214.23"/><line x1="104.11" y1="192.86" x2="115.77" y2="192.86"/><line x1="105.09" y1="194.8" x2="114.8" y2="194.8"/><line x1="114.8" y1="194.8" x2="119.66" y2="199.66"/><line x1="119.66" y1="199.66" x2="119.66" y2="213.26"/><line x1="119.66" y1="213.26" x2="114.8" y2="218.11"/><line x1="114.8" y1="218.11" x2="105.09" y2="218.11"/><line x1="105.09" y1="218.11" x2="100.23" y2="213.26"/><line x1="100.23" y1="213.26" x2="100.23" y2="199.66"/><line x1="100.23" y1="199.66" x2="105.09" y2="194.8"/><line x1="122.57" y1="198.69" x2="122.57" y2="214.23"/><line x1="115.77" y1="191.89" x2="104.11" y2="191.89"/><line x1="283.83" y1="43.26" x2="283.83" y2="58.8"/><line x1="291.6" y1="43.26" x2="291.6" y2="58.8"/><line x1="293.54" y1="45.2" x2="293.54" y2="56.86"/><line x1="297.43" y1="45.2" x2="297.43" y2="56.86"/><line x1="293.54" y1="45.2" x2="297.43" y2="45.2"/><line x1="297.43" y1="56.86" x2="293.54" y2="56.86"/><line x1="333.37" y1="86" x2="333.37" y2="101.54"/><line x1="314.91" y1="61.71" x2="313.94" y2="66.57"/><line x1="280.91" y1="177.31" x2="280.91" y2="185.09"/><line x1="271.2" y1="188.97" x2="279.94" y2="188.97"/><line x1="279.94" y1="188.97" x2="282.86" y2="186.06"/><line x1="282.86" y1="186.06" x2="282.86" y2="177.31"/><line x1="249.83" y1="188.97" x2="257.6" y2="188.97"/><line x1="282.86" y1="163.71" x2="282.86" y2="155.94"/><line x1="301.31" y1="188.97" x2="301.31" y2="208.4"/><line x1="313.94" y1="181.2" x2="325.6" y2="181.2"/><line x1="257.6" y1="187.03" x2="249.83" y2="187.03"/><line x1="280.91" y1="155.94" x2="280.91" y2="163.71"/><line x1="280.91" y1="177.31" x2="273.14" y2="177.31"/><line x1="273.14" y1="177.31" x2="271.2" y2="179.26"/><line x1="271.2" y1="179.26" x2="271.2" y2="187.03"/><line x1="312" y1="183.14" x2="327.54" y2="183.14"/><line x1="313.94" y1="177.31" x2="325.6" y2="177.31"/><line x1="313.94" y1="181.2" x2="313.94" y2="177.31"/><line x1="325.6" y1="177.31" x2="325.6" y2="181.2"/><line x1="302.29" y1="66.57" x2="301.31" y2="61.71"/><line x1="313.94" y1="62.69" x2="313.94" y2="66.57"/><line x1="315.89" y1="119.03" x2="300.34" y2="119.03"/><line x1="307.14" y1="116.11" x2="309.09" y2="116.11"/><line x1="309.09" y1="116.11" x2="309.09" y2="118.06"/><line x1="309.09" y1="118.06" x2="307.14" y2="118.06"/><line x1="307.14" y1="118.06" x2="307.14" y2="116.11"/><line x1="313.94" y1="120.97" x2="313.94" y2="124.86"/><line x1="314.91" y1="125.83" x2="301.31" y2="125.83"/><line x1="313.94" y1="124.86" x2="302.29" y2="124.86"/><line x1="301.31" y1="125.83" x2="302.29" y2="120.97"/><line x1="335.31" y1="87.94" x2="339.2" y2="87.94"/><line x1="313.94" y1="120.97" x2="302.29" y2="120.97"/><line x1="302.29" y1="124.86" x2="302.29" y2="120.97"/><line x1="298.4" y1="57.83" x2="293.54" y2="56.86"/><line x1="298.4" y1="44.23" x2="298.4" y2="57.83"/><line x1="293.54" y1="45.2" x2="298.4" y2="44.23"/><line x1="103.14" y1="61.71" x2="116.74" y2="61.71"/><line x1="104.11" y1="66.57" x2="103.14" y2="61.71"/><line x1="115.77" y1="62.69" x2="115.77" y2="66.57"/><line x1="326.57" y1="176.34" x2="325.6" y2="181.2"/><line x1="312.97" y1="176.34" x2="326.57" y2="176.34"/><line x1="313.94" y1="181.2" x2="312.97" y2="176.34"/><line x1="335.31" y1="87.94" x2="335.31" y2="99.6"/><line x1="339.2" y1="99.6" x2="335.31" y2="99.6"/><line x1="340.17" y1="86.97" x2="340.17" y2="100.57"/><line x1="339.2" y1="87.94" x2="339.2" y2="99.6"/><line x1="340.17" y1="100.57" x2="335.31" y2="99.6"/><line x1="228.46" y1="187.03" x2="220.69" y2="187.03"/><line x1="228.46" y1="189.94" x2="220.69" y2="189.94"/><line x1="220.69" y1="190.91" x2="228.46" y2="190.91"/><line x1="228.46" y1="193.83" x2="220.69" y2="193.83"/></g><g stroke="#d3b15b" stroke-width="2.4" stroke-linecap="round"><line x1="164.34" y1="51.03" x2="156.57" y2="51.03"/><line x1="166.29" y1="52.97" x2="164.34" y2="51.03"/><line x1="253.71" y1="51.03" x2="245.94" y2="51.03"/><line x1="245.94" y1="51.03" x2="244" y2="52.97"/><line x1="251.77" y1="120.97" x2="245.94" y2="120.97"/><line x1="148.8" y1="23.83" x2="160.46" y2="19.94"/><line x1="144.91" y1="27.71" x2="148.8" y2="23.83"/><line x1="141.03" y1="51.03" x2="141.03" y2="39.37"/><line x1="152.69" y1="62.69" x2="156.57" y2="66.57"/><line x1="245.94" y1="120.97" x2="242.06" y2="124.86"/><line x1="156.57" y1="120.97" x2="152.69" y2="124.86"/><line x1="168.23" y1="54.91" x2="166.29" y2="52.97"/><line x1="156.57" y1="51.03" x2="152.69" y2="54.91"/><line x1="168.23" y1="62.69" x2="168.23" y2="56.86"/><line x1="156.57" y1="66.57" x2="160.46" y2="66.57"/><line x1="198.59" y1="19.94" x2="211.09" y2="19.94"/><line x1="244" y1="58.8" x2="244.97" y2="57.83"/><line x1="152.69" y1="54.91" x2="152.69" y2="62.69"/><line x1="168.23" y1="124.86" x2="164.34" y2="120.97"/><line x1="152.69" y1="124.86" x2="152.69" y2="128.74"/><line x1="257.6" y1="54.91" x2="253.71" y2="51.03"/><line x1="257.6" y1="62.69" x2="257.6" y2="54.91"/><line x1="244" y1="52.97" x2="242.06" y2="54.91"/><line x1="261.49" y1="19.94" x2="273.14" y2="23.83"/><line x1="273.14" y1="23.83" x2="277.03" y2="27.71"/><line x1="277.03" y1="27.71" x2="280.91" y2="39.37"/><line x1="280.91" y1="120.97" x2="277.03" y2="124.86"/><line x1="257.6" y1="124.86" x2="255.66" y2="122.91"/><line x1="164.34" y1="120.97" x2="160.46" y2="120.97"/><line x1="253.71" y1="120.97" x2="251.77" y2="120.97"/><line x1="168.23" y1="56.86" x2="168.23" y2="54.91"/><line x1="242.06" y1="54.91" x2="242.06" y2="56.86"/><line x1="141.03" y1="66.57" x2="141.03" y2="51.03"/><line x1="164.34" y1="136.51" x2="168.23" y2="132.63"/><line x1="168.23" y1="132.63" x2="168.23" y2="124.86"/><line x1="242.06" y1="124.86" x2="242.06" y2="132.63"/><line x1="156.57" y1="148.17" x2="156.57" y2="150.11"/><line x1="156.57" y1="136.51" x2="156.57" y2="140.4"/><line x1="141.03" y1="185.09" x2="141.03" y2="175.37"/><line x1="142.97" y1="187.03" x2="141.03" y2="185.09"/><line x1="257.6" y1="132.63" x2="257.6" y2="124.86"/><line x1="253.71" y1="136.51" x2="257.6" y2="132.63"/><line x1="277.03" y1="124.86" x2="277.03" y2="126.31"/><line x1="277.03" y1="132.63" x2="280.43" y2="136.03"/><line x1="280.91" y1="136.51" x2="280.91" y2="138.46"/><line x1="242.06" y1="132.63" x2="245.94" y2="136.51"/><line x1="245.94" y1="136.51" x2="253.71" y2="136.51"/><line x1="250.8" y1="61.71" x2="250.8" y2="63.66"/><line x1="164.34" y1="150.11" x2="164.34" y2="136.51"/><line x1="249.83" y1="66.57" x2="251.77" y2="66.57"/><line x1="246.91" y1="57.83" x2="250.8" y2="61.71"/><line x1="211.09" y1="19.94" x2="211.09" y2="18"/><line x1="141.03" y1="144.29" x2="141.03" y2="140.4"/><line x1="156.57" y1="144.29" x2="156.57" y2="148.17"/><line x1="156.57" y1="140.4" x2="156.57" y2="144.29"/><line x1="152.69" y1="132.63" x2="156.57" y2="136.51"/><line x1="141.03" y1="132.63" x2="141.03" y2="128.74"/><line x1="141.03" y1="148.17" x2="141.03" y2="144.29"/><line x1="141.03" y1="128.74" x2="141.03" y2="124.86"/><line x1="152.69" y1="128.74" x2="152.69" y2="132.63"/><line x1="141.03" y1="124.86" x2="141.03" y2="120.97"/><line x1="141.03" y1="120.97" x2="141.03" y2="113.2"/><line x1="255.66" y1="64.63" x2="257.6" y2="62.69"/><line x1="141.03" y1="140.4" x2="141.03" y2="132.63"/><line x1="249.83" y1="64.63" x2="249.83" y2="66.57"/><line x1="242.06" y1="56.86" x2="242.06" y2="58.8"/><line x1="141.03" y1="69.49" x2="141.03" y2="66.57"/><line x1="164.34" y1="66.57" x2="168.23" y2="62.69"/><line x1="194.7" y1="19.94" x2="194.7" y2="18.97"/><line x1="194.7" y1="18.97" x2="198.59" y2="18.97"/><line x1="198.59" y1="18.97" x2="198.59" y2="19.94"/><line x1="244.97" y1="57.83" x2="246.91" y2="57.83"/><line x1="250.8" y1="63.66" x2="249.83" y2="64.63"/><line x1="296.46" y1="74.34" x2="298.4" y2="74.34"/><line x1="280.91" y1="58.8" x2="280.91" y2="74.34"/><line x1="288.69" y1="82.11" x2="296.46" y2="74.34"/><line x1="185.71" y1="198.69" x2="185.71" y2="214.23"/><line x1="185.71" y1="214.23" x2="170.17" y2="214.23"/><line x1="284.8" y1="109.31" x2="280.91" y2="113.2"/><line x1="280.91" y1="113.2" x2="280.91" y2="120.97"/><line x1="284.8" y1="78.23" x2="284.8" y2="82.11"/><line x1="280.91" y1="74.34" x2="284.8" y2="78.23"/><line x1="296.46" y1="113.2" x2="288.69" y2="105.43"/><line x1="319.77" y1="113.2" x2="317.83" y2="113.2"/><line x1="327.54" y1="105.43" x2="319.77" y2="113.2"/><line x1="242.06" y1="58.8" x2="244" y2="58.8"/><line x1="162.4" y1="152.06" x2="164.34" y2="150.11"/><line x1="288.69" y1="105.43" x2="284.8" y2="105.43"/><line x1="284.8" y1="105.43" x2="284.8" y2="109.31"/><line x1="327.54" y1="82.11" x2="327.54" y2="84.06"/><line x1="284.8" y1="82.11" x2="288.69" y2="82.11"/><line x1="319.77" y1="74.34" x2="327.54" y2="82.11"/><line x1="253.71" y1="66.57" x2="255.66" y2="64.63"/><line x1="251.77" y1="66.57" x2="253.71" y2="66.57"/><line x1="255.66" y1="122.91" x2="253.71" y2="120.97"/><line x1="160.46" y1="66.57" x2="164.34" y2="66.57"/><line x1="160.46" y1="120.97" x2="156.57" y2="120.97"/><line x1="141.03" y1="39.37" x2="144.91" y2="27.71"/><line x1="160.46" y1="19.94" x2="165.56" y2="19.94"/><line x1="280.91" y1="39.37" x2="280.91" y2="43.26"/><line x1="165.56" y1="19.94" x2="166.53" y2="19.94"/><line x1="166.53" y1="19.94" x2="174.3" y2="19.94"/><line x1="258.69" y1="19.94" x2="261.49" y2="19.94"/><line x1="257.72" y1="19.94" x2="258.69" y2="19.94"/><line x1="182.07" y1="19.94" x2="194.7" y2="19.94"/><line x1="174.3" y1="19.94" x2="174.3" y2="18"/><line x1="174.3" y1="18" x2="182.07" y2="18"/><line x1="182.07" y1="18" x2="182.07" y2="19.94"/><line x1="249.95" y1="19.94" x2="257.72" y2="19.94"/><line x1="249.95" y1="18" x2="249.95" y2="19.94"/><line x1="242.18" y1="18" x2="249.95" y2="18"/><line x1="242.18" y1="19.94" x2="242.18" y2="18"/><line x1="226.64" y1="19.94" x2="242.18" y2="19.94"/><line x1="226.64" y1="18" x2="226.64" y2="19.94"/><line x1="211.09" y1="18" x2="226.64" y2="18"/><line x1="156.57" y1="150.11" x2="158.51" y2="152.06"/><line x1="158.51" y1="152.06" x2="162.4" y2="152.06"/><line x1="179.89" y1="144.29" x2="179.89" y2="152.06"/><line x1="179.89" y1="152.06" x2="187.66" y2="152.06"/><line x1="187.66" y1="152.06" x2="187.66" y2="144.29"/><line x1="187.66" y1="144.29" x2="179.89" y2="144.29"/><line x1="207.09" y1="144.29" x2="207.09" y2="159.83"/><line x1="207.09" y1="159.83" x2="214.86" y2="159.83"/><line x1="214.86" y1="159.83" x2="214.86" y2="144.29"/><line x1="214.86" y1="144.29" x2="207.09" y2="144.29"/><line x1="234.29" y1="144.29" x2="234.29" y2="152.06"/><line x1="234.29" y1="152.06" x2="242.06" y2="152.06"/><line x1="242.06" y1="152.06" x2="242.06" y2="144.29"/><line x1="242.06" y1="144.29" x2="234.29" y2="144.29"/><line x1="179.89" y1="163.71" x2="179.89" y2="179.26"/><line x1="179.89" y1="179.26" x2="187.66" y2="179.26"/><line x1="187.66" y1="179.26" x2="187.66" y2="163.71"/><line x1="187.66" y1="163.71" x2="179.89" y2="163.71"/><line x1="234.29" y1="163.71" x2="234.29" y2="179.26"/><line x1="234.29" y1="179.26" x2="242.06" y2="179.26"/><line x1="242.06" y1="179.26" x2="242.06" y2="163.71"/><line x1="242.06" y1="163.71" x2="234.29" y2="163.71"/><line x1="207.09" y1="171.49" x2="207.09" y2="179.26"/><line x1="207.09" y1="179.26" x2="214.86" y2="179.26"/><line x1="214.86" y1="179.26" x2="214.86" y2="171.49"/><line x1="214.86" y1="171.49" x2="207.09" y2="171.49"/><line x1="164.34" y1="187.03" x2="142.97" y2="187.03"/><line x1="141.03" y1="89.89" x2="139.09" y2="89.89"/><line x1="141.03" y1="74.34" x2="141.03" y2="69.49"/><line x1="139.09" y1="74.34" x2="141.03" y2="74.34"/><line x1="141.03" y1="97.66" x2="141.03" y2="89.89"/><line x1="139.09" y1="97.66" x2="141.03" y2="97.66"/><line x1="141.03" y1="113.2" x2="139.09" y2="113.2"/><line x1="141.03" y1="175.37" x2="139.09" y2="175.37"/><line x1="141.03" y1="159.83" x2="141.03" y2="148.17"/><line x1="139.09" y1="159.83" x2="141.03" y2="159.83"/><line x1="133.26" y1="97.66" x2="139.09" y2="97.66"/><line x1="139.09" y1="113.2" x2="133.26" y2="113.2"/><line x1="133.26" y1="74.34" x2="139.09" y2="74.34"/><line x1="139.09" y1="89.89" x2="133.26" y2="89.89"/><line x1="119.66" y1="74.34" x2="125.49" y2="74.34"/><line x1="117.71" y1="72.4" x2="119.66" y2="74.34"/><line x1="117.71" y1="68.51" x2="117.71" y2="72.4"/><line x1="115.77" y1="66.57" x2="117.71" y2="68.51"/><line x1="102.17" y1="68.51" x2="104.11" y2="66.57"/><line x1="102.17" y1="72.4" x2="102.17" y2="68.51"/><line x1="100.23" y1="74.34" x2="102.17" y2="72.4"/><line x1="80.8" y1="74.34" x2="100.23" y2="74.34"/><line x1="78.86" y1="76.29" x2="80.8" y2="74.34"/><line x1="78.86" y1="87.94" x2="78.86" y2="76.29"/><line x1="80.8" y1="89.89" x2="78.86" y2="87.94"/><line x1="100.23" y1="89.89" x2="80.8" y2="89.89"/><line x1="102.17" y1="91.83" x2="100.23" y2="89.89"/><line x1="102.17" y1="95.71" x2="102.17" y2="91.83"/><line x1="100.23" y1="97.66" x2="102.17" y2="95.71"/><line x1="80.8" y1="97.66" x2="100.23" y2="97.66"/><line x1="78.86" y1="99.6" x2="80.8" y2="97.66"/><line x1="78.86" y1="111.26" x2="78.86" y2="99.6"/><line x1="80.8" y1="113.2" x2="78.86" y2="111.26"/><line x1="100.23" y1="113.2" x2="80.8" y2="113.2"/><line x1="102.17" y1="115.14" x2="100.23" y2="113.2"/><line x1="102.17" y1="119.03" x2="102.17" y2="115.14"/><line x1="104.11" y1="120.97" x2="102.17" y2="119.03"/><line x1="117.71" y1="119.03" x2="115.77" y2="120.97"/><line x1="117.71" y1="115.14" x2="117.71" y2="119.03"/><line x1="119.66" y1="113.2" x2="117.71" y2="115.14"/><line x1="133.26" y1="113.2" x2="125.49" y2="113.2"/><line x1="117.71" y1="91.83" x2="117.71" y2="95.71"/><line x1="119.66" y1="89.89" x2="117.71" y2="91.83"/><line x1="133.26" y1="89.89" x2="125.49" y2="89.89"/><line x1="119.66" y1="97.66" x2="125.49" y2="97.66"/><line x1="117.71" y1="95.71" x2="119.66" y2="97.66"/><line x1="125.49" y1="89.89" x2="119.66" y2="89.89"/><line x1="125.49" y1="74.34" x2="133.26" y2="74.34"/><line x1="125.49" y1="113.2" x2="119.66" y2="113.2"/><line x1="125.49" y1="97.66" x2="133.26" y2="97.66"/><line x1="133.26" y1="159.83" x2="139.09" y2="159.83"/><line x1="139.09" y1="175.37" x2="133.26" y2="175.37"/><line x1="119.66" y1="159.83" x2="125.49" y2="159.83"/><line x1="117.71" y1="157.89" x2="119.66" y2="159.83"/><line x1="117.71" y1="154" x2="117.71" y2="157.89"/><line x1="115.77" y1="152.06" x2="117.71" y2="154"/><line x1="102.17" y1="154" x2="104.11" y2="152.06"/><line x1="102.17" y1="157.89" x2="102.17" y2="154"/><line x1="100.23" y1="159.83" x2="102.17" y2="157.89"/><line x1="80.8" y1="159.83" x2="100.23" y2="159.83"/><line x1="78.86" y1="161.77" x2="80.8" y2="159.83"/><line x1="78.86" y1="173.43" x2="78.86" y2="161.77"/><line x1="80.8" y1="175.37" x2="78.86" y2="173.43"/><line x1="100.23" y1="175.37" x2="80.8" y2="175.37"/><line x1="102.17" y1="177.31" x2="100.23" y2="175.37"/><line x1="102.17" y1="181.2" x2="102.17" y2="177.31"/><line x1="104.11" y1="183.14" x2="102.17" y2="181.2"/><line x1="117.71" y1="181.2" x2="115.77" y2="183.14"/><line x1="117.71" y1="177.31" x2="117.71" y2="181.2"/><line x1="119.66" y1="175.37" x2="117.71" y2="177.31"/><line x1="133.26" y1="175.37" x2="125.49" y2="175.37"/><line x1="115.77" y1="120.97" x2="115.77" y2="122.91"/><line x1="115.77" y1="122.91" x2="117.71" y2="124.86"/><line x1="117.71" y1="148.17" x2="115.77" y2="150.11"/><line x1="115.77" y1="150.11" x2="115.77" y2="152.06"/><line x1="104.11" y1="122.91" x2="104.11" y2="120.97"/><line x1="104.11" y1="152.06" x2="104.11" y2="150.11"/><line x1="104.11" y1="150.11" x2="102.17" y2="148.17"/><line x1="102.17" y1="124.86" x2="104.11" y2="122.91"/><line x1="125.49" y1="159.83" x2="133.26" y2="159.83"/><line x1="125.49" y1="175.37" x2="119.66" y2="175.37"/><line x1="135.2" y1="150.11" x2="117.71" y2="148.17"/><line x1="135.2" y1="122.91" x2="135.2" y2="150.11"/><line x1="117.71" y1="124.86" x2="135.2" y2="122.91"/><line x1="102.17" y1="148.17" x2="84.69" y2="150.11"/><line x1="84.69" y1="150.11" x2="84.69" y2="122.91"/><line x1="84.69" y1="122.91" x2="102.17" y2="124.86"/><line x1="170.17" y1="187.03" x2="164.34" y2="187.03"/><line x1="170.17" y1="190.91" x2="170.17" y2="187.03"/><line x1="185.71" y1="187.03" x2="185.71" y2="190.91"/><line x1="185.71" y1="190.91" x2="185.71" y2="194.8"/><line x1="170.17" y1="194.8" x2="170.17" y2="190.91"/><line x1="185.71" y1="194.8" x2="185.71" y2="198.69"/><line x1="170.17" y1="198.69" x2="170.17" y2="194.8"/><line x1="313.94" y1="66.57" x2="315.89" y2="68.51"/><line x1="315.89" y1="68.51" x2="315.89" y2="72.4"/><line x1="317.83" y1="74.34" x2="319.77" y2="74.34"/><line x1="315.89" y1="72.4" x2="317.83" y2="74.34"/><line x1="300.34" y1="68.51" x2="302.29" y2="66.57"/><line x1="298.4" y1="74.34" x2="300.34" y2="72.4"/><line x1="300.34" y1="72.4" x2="300.34" y2="68.51"/><line x1="327.54" y1="84.06" x2="329.49" y2="86"/><line x1="329.49" y1="86" x2="333.37" y2="86"/><line x1="333.37" y1="86" x2="335.31" y2="87.94"/><line x1="335.31" y1="99.6" x2="333.37" y2="101.54"/><line x1="333.37" y1="101.54" x2="329.49" y2="101.54"/><line x1="327.54" y1="103.49" x2="327.54" y2="105.43"/><line x1="329.49" y1="101.54" x2="327.54" y2="103.49"/><line x1="298.4" y1="113.2" x2="296.46" y2="113.2"/><line x1="300.34" y1="115.14" x2="298.4" y2="113.2"/><line x1="300.34" y1="119.03" x2="300.34" y2="115.14"/><line x1="302.29" y1="120.97" x2="300.34" y2="119.03"/><line x1="315.89" y1="119.03" x2="313.94" y2="120.97"/><line x1="315.89" y1="115.14" x2="315.89" y2="119.03"/><line x1="317.83" y1="113.2" x2="315.89" y2="115.14"/><line x1="286.26" y1="93.29" x2="286.26" y2="94.26"/><line x1="286.26" y1="94.26" x2="287.23" y2="94.26"/><line x1="287.23" y1="94.26" x2="287.23" y2="93.29"/><line x1="287.23" y1="93.29" x2="286.26" y2="93.29"/><line x1="286.26" y1="90.37" x2="286.26" y2="91.34"/><line x1="286.26" y1="91.34" x2="287.23" y2="91.34"/><line x1="287.23" y1="91.34" x2="287.23" y2="90.37"/><line x1="287.23" y1="90.37" x2="286.26" y2="90.37"/><line x1="286.26" y1="87.46" x2="286.26" y2="88.43"/><line x1="286.26" y1="88.43" x2="287.23" y2="88.43"/><line x1="287.23" y1="88.43" x2="287.23" y2="87.46"/><line x1="287.23" y1="87.46" x2="286.26" y2="87.46"/><line x1="286.26" y1="84.54" x2="286.26" y2="85.51"/><line x1="286.26" y1="85.51" x2="287.23" y2="85.51"/><line x1="287.23" y1="85.51" x2="287.23" y2="84.54"/><line x1="287.23" y1="84.54" x2="286.26" y2="84.54"/><line x1="286.26" y1="102.03" x2="286.26" y2="103"/><line x1="286.26" y1="103" x2="287.23" y2="103"/><line x1="287.23" y1="103" x2="287.23" y2="102.03"/><line x1="287.23" y1="102.03" x2="286.26" y2="102.03"/><line x1="286.26" y1="99.11" x2="286.26" y2="100.09"/><line x1="286.26" y1="100.09" x2="287.23" y2="100.09"/><line x1="287.23" y1="100.09" x2="287.23" y2="99.11"/><line x1="287.23" y1="99.11" x2="286.26" y2="99.11"/><line x1="286.26" y1="96.2" x2="286.26" y2="97.17"/><line x1="286.26" y1="97.17" x2="287.23" y2="97.17"/><line x1="287.23" y1="97.17" x2="287.23" y2="96.2"/><line x1="287.23" y1="96.2" x2="286.26" y2="96.2"/><line x1="166.29" y1="198.69" x2="170.17" y2="198.69"/><line x1="170.17" y1="214.23" x2="166.29" y2="214.23"/><line x1="164.34" y1="196.74" x2="166.29" y2="198.69"/><line x1="166.29" y1="214.23" x2="164.34" y2="216.17"/><line x1="164.34" y1="216.17" x2="156.57" y2="216.17"/><line x1="156.57" y1="216.17" x2="154.63" y2="214.23"/><line x1="154.63" y1="198.69" x2="156.57" y2="196.74"/><line x1="156.57" y1="188.97" x2="164.34" y2="188.97"/><line x1="164.34" y1="188.97" x2="164.34" y2="196.74"/><line x1="156.57" y1="196.74" x2="156.57" y2="188.97"/><line x1="152.69" y1="198.69" x2="154.63" y2="198.69"/><line x1="154.63" y1="214.23" x2="152.69" y2="214.23"/><line x1="121.6" y1="198.69" x2="122.57" y2="198.69"/><line x1="152.69" y1="214.23" x2="144.91" y2="214.23"/><line x1="129.37" y1="198.69" x2="152.69" y2="198.69"/><line x1="129.37" y1="214.23" x2="122.57" y2="214.23"/><line x1="144.91" y1="222" x2="137.14" y2="222"/><line x1="137.14" y1="222" x2="137.14" y2="214.23"/><line x1="144.91" y1="214.23" x2="144.91" y2="222"/><line x1="137.14" y1="214.23" x2="129.37" y2="214.23"/><line x1="115.77" y1="192.86" x2="121.6" y2="198.69"/><line x1="121.6" y1="214.23" x2="115.77" y2="220.06"/><line x1="115.77" y1="220.06" x2="104.11" y2="220.06"/><line x1="104.11" y1="220.06" x2="98.29" y2="214.23"/><line x1="98.29" y1="214.23" x2="98.29" y2="198.69"/><line x1="98.29" y1="198.69" x2="104.11" y2="192.86"/><line x1="104.11" y1="184.11" x2="104.11" y2="183.14"/><line x1="104.11" y1="191.89" x2="104.11" y2="184.11"/><line x1="104.11" y1="192.86" x2="104.11" y2="191.89"/><line x1="115.77" y1="183.14" x2="115.77" y2="184.11"/><line x1="115.77" y1="191.89" x2="115.77" y2="192.86"/><line x1="115.77" y1="184.11" x2="115.77" y2="191.89"/><line x1="122.57" y1="198.69" x2="129.37" y2="198.69"/><line x1="122.57" y1="214.23" x2="121.6" y2="214.23"/><line x1="280.91" y1="43.26" x2="283.83" y2="43.26"/><line x1="283.83" y1="58.8" x2="280.91" y2="58.8"/><line x1="283.83" y1="43.26" x2="291.6" y2="43.26"/><line x1="291.6" y1="58.8" x2="283.83" y2="58.8"/><line x1="291.6" y1="43.26" x2="293.54" y2="45.2"/><line x1="293.54" y1="56.86" x2="291.6" y2="58.8"/><line x1="300.34" y1="60.74" x2="315.89" y2="60.74"/><line x1="315.89" y1="60.74" x2="313.94" y2="66.57"/><line x1="280.91" y1="138.46" x2="280.91" y2="155.94"/><line x1="280.43" y1="136.03" x2="280.91" y2="136.51"/><line x1="280.91" y1="177.31" x2="282.86" y2="177.31"/><line x1="271.2" y1="187.03" x2="257.6" y2="187.03"/><line x1="271.2" y1="188.97" x2="271.2" y2="187.03"/><line x1="257.6" y1="188.97" x2="259.54" y2="188.97"/><line x1="245.94" y1="208.4" x2="242.06" y2="204.51"/><line x1="242.06" y1="204.51" x2="242.06" y2="192.86"/><line x1="282.86" y1="177.31" x2="282.86" y2="166.63"/><line x1="282.86" y1="155.94" x2="282.86" y2="154"/><line x1="282.86" y1="152.06" x2="285.77" y2="149.14"/><line x1="285.77" y1="149.14" x2="297.43" y2="149.14"/><line x1="297.43" y1="149.14" x2="301.31" y2="153.03"/><line x1="301.31" y1="153.03" x2="301.31" y2="188.97"/><line x1="301.31" y1="188.97" x2="303.26" y2="190.91"/><line x1="242.06" y1="192.86" x2="245.94" y2="188.97"/><line x1="245.94" y1="188.97" x2="246.91" y2="188.97"/><line x1="303.26" y1="190.91" x2="310.06" y2="190.91"/><line x1="310.06" y1="190.91" x2="312" y2="188.97"/><line x1="312" y1="188.97" x2="312" y2="183.14"/><line x1="312" y1="183.14" x2="313.94" y2="181.2"/><line x1="325.6" y1="181.2" x2="327.54" y2="183.14"/><line x1="327.54" y1="183.14" x2="327.54" y2="206.46"/><line x1="327.54" y1="206.46" x2="325.6" y2="208.4"/><line x1="249.83" y1="187.03" x2="228.46" y2="187.03"/><line x1="249.83" y1="188.97" x2="249.83" y2="187.03"/><line x1="257.6" y1="187.03" x2="257.6" y2="188.97"/><line x1="280.91" y1="155.94" x2="282.86" y2="155.94"/><line x1="282.86" y1="163.71" x2="280.91" y2="163.71"/><line x1="280.91" y1="163.71" x2="280.91" y2="177.31"/><line x1="325.6" y1="208.4" x2="301.31" y2="208.4"/><line x1="301.31" y1="208.4" x2="245.94" y2="208.4"/><line x1="247.89" y1="188.97" x2="249.83" y2="188.97"/><line x1="246.91" y1="188.97" x2="247.89" y2="188.97"/><line x1="259.54" y1="188.97" x2="260.51" y2="188.97"/><line x1="260.51" y1="188.97" x2="271.2" y2="188.97"/><line x1="282.86" y1="165.66" x2="282.86" y2="163.71"/><line x1="282.86" y1="166.63" x2="282.86" y2="165.66"/><line x1="282.86" y1="154" x2="282.86" y2="153.03"/><line x1="282.86" y1="153.03" x2="282.86" y2="152.06"/><line x1="302.29" y1="66.57" x2="300.34" y2="60.74"/><line x1="315.89" y1="126.8" x2="300.34" y2="126.8"/><line x1="313.94" y1="120.97" x2="315.89" y2="126.8"/><line x1="341.14" y1="101.54" x2="335.31" y2="99.6"/><line x1="300.34" y1="126.8" x2="302.29" y2="120.97"/><line x1="341.14" y1="86" x2="341.14" y2="101.54"/><line x1="335.31" y1="87.94" x2="341.14" y2="86"/><line x1="277.03" y1="126.31" x2="277.03" y2="132.63"/><line x1="293.54" y1="45.2" x2="299.37" y2="43.26"/><line x1="299.37" y1="43.26" x2="299.37" y2="58.8"/><line x1="299.37" y1="58.8" x2="293.54" y2="56.86"/><line x1="104.11" y1="66.57" x2="102.17" y2="60.74"/><line x1="102.17" y1="60.74" x2="117.71" y2="60.74"/><line x1="117.71" y1="60.74" x2="115.77" y2="66.57"/><line x1="313.94" y1="181.2" x2="312" y2="175.37"/><line x1="312" y1="175.37" x2="327.54" y2="175.37"/><line x1="327.54" y1="175.37" x2="325.6" y2="181.2"/><line x1="218.74" y1="203.54" x2="218.74" y2="195.77"/><line x1="228.46" y1="187.03" x2="228.46" y2="189.94"/><line x1="220.69" y1="189.94" x2="220.69" y2="187.03"/><line x1="220.69" y1="187.03" x2="185.71" y2="187.03"/><line x1="220.69" y1="190.91" x2="220.69" y2="189.94"/><line x1="228.46" y1="189.94" x2="228.46" y2="190.91"/><line x1="220.69" y1="193.83" x2="220.69" y2="190.91"/><line x1="228.46" y1="190.91" x2="228.46" y2="193.83"/><line x1="218.74" y1="195.77" x2="220.69" y2="193.83"/><line x1="228.46" y1="193.83" x2="230.4" y2="195.77"/><line x1="230.4" y1="195.77" x2="230.4" y2="203.54"/><line x1="230.4" y1="203.54" x2="228.46" y2="205.49"/><line x1="228.46" y1="205.49" x2="220.69" y2="205.49"/><line x1="220.69" y1="205.49" x2="218.74" y2="203.54"/></g><g opacity="0.95"><circle cx="144.91" cy="183.14" r="3.2" fill="#b7493c"/><circle cx="273.14" cy="27.71" r="3.2" fill="#b7493c"/><circle cx="249.83" cy="117.09" r="3.2" fill="#b7493c"/><circle cx="183.77" cy="93.77" r="2.2" fill="#d3b15b"/><circle cx="191.54" cy="93.77" r="2.2" fill="#d3b15b"/><circle cx="172.11" cy="95.71" r="3.2" fill="#b7493c"/><circle cx="218.74" cy="21.89" r="2.2" fill="#d3b15b"/><circle cx="199.31" cy="101.54" r="2.2" fill="#d3b15b"/><circle cx="90.51" cy="161.77" r="2.2" fill="#d3b15b"/><circle cx="90.51" cy="173.43" r="2.2" fill="#d3b15b"/><circle cx="207.09" cy="93.77" r="2.2" fill="#d3b15b"/><circle cx="199.31" cy="86" r="2.2" fill="#d3b15b"/><circle cx="172.11" cy="99.6" r="3.2" fill="#b7493c"/><circle cx="199.31" cy="93.77" r="2.2" fill="#d3b15b"/><circle cx="172.11" cy="91.83" r="3.2" fill="#b7493c"/><circle cx="172.11" cy="87.94" r="3.2" fill="#b7493c"/><circle cx="83.71" cy="82.11" r="3.2" fill="#b7493c"/><circle cx="247.16" cy="61.47" r="2.2" fill="#d3b15b"/><circle cx="213.89" cy="21.89" r="2.2" fill="#d3b15b"/><circle cx="223.6" cy="21.89" r="2.2" fill="#d3b15b"/><circle cx="83.71" cy="105.43" r="3.2" fill="#b7493c"/><circle cx="84.69" cy="82.11" r="2.2" fill="#d3b15b"/><circle cx="84.69" cy="105.43" r="2.2" fill="#d3b15b"/><circle cx="132.29" cy="82.11" r="2.2" fill="#d3b15b"/><circle cx="128.4" cy="82.11" r="2.2" fill="#d3b15b"/><circle cx="120.63" cy="82.11" r="2.2" fill="#d3b15b"/><circle cx="124.51" cy="79.69" r="2.2" fill="#d3b15b"/><circle cx="124.51" cy="84.54" r="2.2" fill="#d3b15b"/><circle cx="132.29" cy="105.43" r="2.2" fill="#d3b15b"/><circle cx="128.4" cy="105.43" r="2.2" fill="#d3b15b"/><circle cx="120.63" cy="105.43" r="2.2" fill="#d3b15b"/><circle cx="124.51" cy="103" r="2.2" fill="#d3b15b"/><circle cx="124.51" cy="107.86" r="2.2" fill="#d3b15b"/><circle cx="129.37" cy="136.51" r="2.2" fill="#d3b15b"/><circle cx="83.71" cy="167.6" r="3.2" fill="#b7493c"/><circle cx="84.69" cy="167.6" r="2.2" fill="#d3b15b"/><circle cx="132.29" cy="167.6" r="2.2" fill="#d3b15b"/><circle cx="128.4" cy="167.6" r="2.2" fill="#d3b15b"/><circle cx="120.63" cy="167.6" r="2.2" fill="#d3b15b"/><circle cx="124.51" cy="165.17" r="2.2" fill="#d3b15b"/><circle cx="124.51" cy="170.03" r="2.2" fill="#d3b15b"/><circle cx="129.37" cy="132.63" r="2.2" fill="#d3b15b"/><circle cx="129.37" cy="130.2" r="2.2" fill="#d3b15b"/><circle cx="128.4" cy="128.26" r="2.2" fill="#d3b15b"/><circle cx="126.46" cy="127.29" r="2.2" fill="#d3b15b"/><circle cx="129.37" cy="140.4" r="2.2" fill="#d3b15b"/><circle cx="129.37" cy="142.83" r="2.2" fill="#d3b15b"/><circle cx="128.4" cy="144.77" r="2.2" fill="#d3b15b"/><circle cx="126.46" cy="145.74" r="2.2" fill="#d3b15b"/><circle cx="96.34" cy="136.51" r="2.2" fill="#d3b15b"/><circle cx="89.54" cy="127.77" r="2.2" fill="#d3b15b"/><circle cx="88.57" cy="144.29" r="2.2" fill="#d3b15b"/><circle cx="90.51" cy="146.23" r="2.2" fill="#d3b15b"/><circle cx="89.54" cy="76.29" r="2.2" fill="#d3b15b"/><circle cx="95.37" cy="76.29" r="2.2" fill="#d3b15b"/><circle cx="92.46" cy="99.6" r="2.2" fill="#d3b15b"/><circle cx="121.6" cy="126.8" r="2.2" fill="#d3b15b"/><circle cx="121.6" cy="146.23" r="2.2" fill="#d3b15b"/><circle cx="308.11" cy="93.77" r="2.2" fill="#d3b15b"/><circle cx="308.11" cy="82.11" r="2.2" fill="#d3b15b"/><circle cx="296.46" cy="93.77" r="2.2" fill="#d3b15b"/><circle cx="308.11" cy="105.43" r="2.2" fill="#d3b15b"/><circle cx="319.77" cy="93.77" r="2.2" fill="#d3b15b"/><circle cx="316.86" cy="86" r="2.2" fill="#d3b15b"/><circle cx="300.34" cy="86" r="2.2" fill="#d3b15b"/><circle cx="300.34" cy="101.54" r="2.2" fill="#d3b15b"/><circle cx="316.86" cy="101.54" r="2.2" fill="#d3b15b"/><circle cx="321.71" cy="107.37" r="2.2" fill="#d3b15b"/><circle cx="321.71" cy="80.17" r="2.2" fill="#d3b15b"/><circle cx="150.74" cy="93.77" r="3.2" fill="#b7493c"/><circle cx="160.46" cy="192.86" r="2.2" fill="#d3b15b"/><circle cx="141.03" cy="218.11" r="2.2" fill="#d3b15b"/><circle cx="157.54" cy="199.66" r="2.2" fill="#d3b15b"/><circle cx="163.37" cy="213.26" r="2.2" fill="#d3b15b"/><circle cx="157.54" cy="213.26" r="2.2" fill="#d3b15b"/><circle cx="163.37" cy="199.66" r="2.2" fill="#d3b15b"/><circle cx="160.46" cy="206.46" r="2.2" fill="#d3b15b"/><circle cx="108" cy="208.4" r="3.2" fill="#b7493c"/><circle cx="101.2" cy="201.6" r="2.2" fill="#d3b15b"/><circle cx="112.86" cy="217.14" r="2.2" fill="#d3b15b"/></g></svg>