<svg xmlns="http://www.w3.org/2000/svg" viewBox="0 0 420 240" role="img"><rect width="100%" height="100%" fill="#070706"/><g stroke="#5e5a4f" stroke-width="1.6" stroke-linecap="round"><line x1="197.15" y1="90.28" x2="197.15" y2="119.2"/><line x1="181.09" y1="138.47" x2="181.09" y2="125.62"/><line x1="174.66" y1="122.41" x2="161.81" y2="122.41"/><line x1="258.99" y1="156.94" x2="254.17" y2="156.94"/><line x1="221.24" y1="37.28" x2="221.24" y2="35.67"/><line x1="161.81" y1="125.62" x2="174.66" y2="125.62"/><line x1="230.88" y1="25.23" x2="242.13" y2="25.23"/><line x1="216.43" y1="77.43" x2="216.43" y2="74.22"/><line x1="145.75" y1="96.71" x2="142.54" y2="96.71"/><line x1="221.24" y1="35.67" x2="218.03" y2="35.67"/><line x1="147.35" y1="127.23" x2="147.35" y2="136.87"/><line x1="218.03" y1="35.67" x2="218.03" y2="37.28"/><line x1="253.37" y1="18" x2="253.37" y2="21.21"/><line x1="222.85" y1="122.41" x2="222.85" y2="132.05"/><line x1="184.3" y1="67.8" x2="184.3" y2="77.43"/><line x1="205.18" y1="138.47" x2="195.54" y2="138.47"/><line x1="222.85" y1="93.5" x2="222.85" y2="106.35"/><line x1="226.06" y1="103.13" x2="226.06" y2="93.5"/><line x1="226.06" y1="132.05" x2="226.06" y2="125.62"/><line x1="195.54" y1="141.69" x2="205.18" y2="141.69"/><line x1="158.6" y1="138.47" x2="148.96" y2="138.47"/><line x1="184.3" y1="138.47" x2="184.3" y2="125.62"/><line x1="187.51" y1="138.47" x2="187.51" y2="125.62"/><line x1="190.72" y1="138.47" x2="190.72" y2="125.62"/><line x1="246.14" y1="78.24" x2="246.14" y2="73.42"/><line x1="246.14" y1="73.42" x2="241.32" y2="73.42"/><line x1="254.98" y1="160.96" x2="258.19" y2="160.96"/><line x1="241.32" y1="78.24" x2="246.14" y2="78.24"/><line x1="245.34" y1="77.43" x2="245.34" y2="74.22"/><line x1="254.17" y1="156.94" x2="254.17" y2="161.76"/><line x1="241.32" y1="73.42" x2="241.32" y2="78.24"/><line x1="245.34" y1="74.22" x2="242.13" y2="74.22"/><line x1="258.99" y1="161.76" x2="258.99" y2="156.94"/><line x1="190.72" y1="141.69" x2="190.72" y2="173.81"/><line x1="216.43" y1="58.16" x2="216.43" y2="51.73"/><line x1="242.13" y1="77.43" x2="245.34" y2="77.43"/><line x1="254.98" y1="157.75" x2="254.98" y2="160.96"/><line x1="258.19" y1="157.75" x2="254.98" y2="157.75"/><line x1="148.96" y1="58.16" x2="210" y2="48.52"/><line x1="254.17" y1="161.76" x2="258.99" y2="161.76"/><line x1="258.19" y1="160.96" x2="258.19" y2="157.75"/><line x1="242.13" y1="74.22" x2="242.13" y2="77.43"/><line x1="226.06" y1="106.35" x2="226.06" y2="103.13"/><line x1="267.83" y1="103.13" x2="226.06" y2="103.13"/><line x1="147.35" y1="136.87" x2="179.48" y2="136.87"/><line x1="179.48" y1="136.87" x2="179.48" y2="127.23"/><line x1="248.55" y1="26.03" x2="248.55" y2="35.67"/><line x1="230.08" y1="107.95" x2="231.69" y2="107.95"/><line x1="141.73" y1="100.72" x2="146.55" y2="100.72"/><line x1="253.37" y1="21.21" x2="256.58" y2="21.21"/><line x1="146.55" y1="95.91" x2="141.73" y2="95.91"/><line x1="177.87" y1="173.81" x2="177.87" y2="164.17"/><line x1="250.16" y1="38.88" x2="250.16" y2="43.7"/><line x1="251.76" y1="18" x2="251.76" y2="22.82"/><line x1="251.76" y1="22.82" x2="256.58" y2="22.82"/><line x1="148.96" y1="135.26" x2="177.87" y2="135.26"/><line x1="177.87" y1="135.26" x2="177.87" y2="128.83"/><line x1="138.52" y1="115.98" x2="138.52" y2="112.77"/><line x1="138.12" y1="112.77" x2="138.12" y2="115.98"/><line x1="137.72" y1="112.77" x2="137.72" y2="115.98"/><line x1="139.32" y1="115.98" x2="139.32" y2="112.77"/><line x1="146.55" y1="100.72" x2="146.55" y2="95.91"/><line x1="142.54" y1="96.71" x2="142.54" y2="99.92"/><line x1="133.7" y1="113.57" x2="133.7" y2="115.18"/><line x1="134.1" y1="113.57" x2="133.7" y2="113.57"/><line x1="134.1" y1="115.18" x2="134.1" y2="113.57"/><line x1="133.7" y1="115.18" x2="134.1" y2="115.18"/><line x1="141.73" y1="95.91" x2="141.73" y2="100.72"/><line x1="187.51" y1="77.43" x2="187.51" y2="67.8"/><line x1="213.21" y1="77.43" x2="213.21" y2="74.22"/><line x1="197.15" y1="77.43" x2="197.15" y2="67.8"/><line x1="193.94" y1="77.43" x2="193.94" y2="67.8"/><line x1="190.72" y1="77.43" x2="190.72" y2="67.8"/><line x1="177.87" y1="128.83" x2="148.96" y2="128.83"/><line x1="179.48" y1="127.23" x2="147.35" y2="127.23"/><line x1="229.28" y1="111.17" x2="232.49" y2="111.17"/><line x1="276.26" y1="114.38" x2="276.26" y2="120.8"/><line x1="271.04" y1="114.38" x2="271.04" y2="120.8"/><line x1="267.83" y1="114.38" x2="267.83" y2="120.8"/><line x1="274.65" y1="117.59" x2="274.25" y2="120.8"/><line x1="273.05" y1="117.59" x2="272.65" y2="120.8"/><line x1="272.24" y1="117.59" x2="271.84" y2="120.8"/><line x1="218.03" y1="37.28" x2="221.24" y2="37.28"/><line x1="249.35" y1="38.88" x2="249.35" y2="43.7"/><line x1="230.88" y1="24.43" x2="242.13" y2="24.43"/><line x1="249.35" y1="26.03" x2="249.35" y2="35.67"/><line x1="248.55" y1="38.88" x2="248.55" y2="43.7"/><line x1="148.96" y1="128.83" x2="148.96" y2="135.26"/><line x1="230.88" y1="26.03" x2="242.13" y2="26.03"/><line x1="250.16" y1="26.03" x2="250.16" y2="35.67"/><line x1="193.94" y1="177.02" x2="193.94" y2="173.81"/><line x1="148.96" y1="141.69" x2="158.6" y2="141.69"/><line x1="161.81" y1="173.81" x2="161.81" y2="141.69"/><line x1="222.85" y1="189.87" x2="193.94" y2="189.87"/><line x1="165.02" y1="173.81" x2="165.02" y2="141.69"/><line x1="222.85" y1="173.81" x2="193.94" y2="173.81"/><line x1="168.24" y1="173.81" x2="168.24" y2="141.69"/><line x1="193.94" y1="177.02" x2="222.85" y2="177.02"/><line x1="177.87" y1="151.32" x2="174.66" y2="151.32"/><line x1="165.02" y1="177.02" x2="165.02" y2="173.81"/><line x1="173.06" y1="162.57" x2="173.06" y2="152.93"/><line x1="173.06" y1="152.93" x2="185.91" y2="152.93"/><line x1="185.91" y1="152.93" x2="185.91" y2="162.57"/><line x1="185.91" y1="162.57" x2="173.06" y2="162.57"/><line x1="171.45" y1="151.32" x2="171.45" y2="164.17"/><line x1="177.87" y1="151.32" x2="177.87" y2="141.69"/><line x1="187.51" y1="151.32" x2="177.87" y2="151.32"/><line x1="187.51" y1="164.17" x2="187.51" y2="151.32"/><line x1="161.81" y1="177.02" x2="161.81" y2="173.81"/><line x1="171.45" y1="151.32" x2="171.45" y2="141.69"/><line x1="174.66" y1="151.32" x2="171.45" y2="151.32"/><line x1="177.87" y1="164.17" x2="187.51" y2="164.17"/><line x1="174.66" y1="151.32" x2="174.66" y2="141.69"/><line x1="193.94" y1="173.81" x2="193.94" y2="141.69"/><line x1="171.45" y1="164.17" x2="174.66" y2="164.17"/><line x1="171.45" y1="173.81" x2="171.45" y2="164.17"/><line x1="174.66" y1="164.17" x2="177.87" y2="164.17"/><line x1="174.66" y1="173.81" x2="174.66" y2="164.17"/><line x1="165.02" y1="177.02" x2="190.72" y2="177.02"/><line x1="190.72" y1="173.81" x2="190.72" y2="177.02"/><line x1="181.09" y1="167.39" x2="181.09" y2="170.6"/><line x1="181.09" y1="170.6" x2="187.51" y2="170.6"/><line x1="187.51" y1="170.6" x2="187.51" y2="167.39"/><line x1="187.51" y1="167.39" x2="181.09" y2="167.39"/><line x1="181.09" y1="144.9" x2="181.09" y2="148.11"/><line x1="181.09" y1="148.11" x2="187.51" y2="148.11"/><line x1="187.51" y1="148.11" x2="187.51" y2="144.9"/><line x1="187.51" y1="144.9" x2="181.09" y2="144.9"/><line x1="193.94" y1="173.81" x2="190.72" y2="173.81"/><line x1="190.72" y1="173.81" x2="177.87" y2="173.81"/><line x1="177.87" y1="173.81" x2="174.66" y2="173.81"/><line x1="174.66" y1="173.81" x2="171.45" y2="173.81"/><line x1="171.45" y1="173.81" x2="168.24" y2="173.81"/><line x1="168.24" y1="173.81" x2="165.02" y2="173.81"/><line x1="165.02" y1="173.81" x2="161.81" y2="173.81"/><line x1="161.81" y1="173.81" x2="145.75" y2="173.81"/><line x1="190.72" y1="193.09" x2="222.85" y2="193.09"/><line x1="190.72" y1="177.02" x2="190.72" y2="193.09"/><line x1="165.02" y1="212.36" x2="165.02" y2="177.02"/><line x1="222.85" y1="148.11" x2="222.85" y2="154.54"/><line x1="226.06" y1="170.6" x2="226.06" y2="164.17"/><line x1="226.06" y1="164.17" x2="226.06" y2="154.54"/><line x1="226.06" y1="154.54" x2="226.06" y2="148.11"/><line x1="222.85" y1="154.54" x2="226.06" y2="154.54"/><line x1="222.85" y1="164.17" x2="222.85" y2="170.6"/><line x1="222.85" y1="154.54" x2="222.85" y2="164.17"/><line x1="226.06" y1="164.17" x2="222.85" y2="164.17"/><line x1="190.72" y1="177.02" x2="193.94" y2="177.02"/><line x1="193.94" y1="189.87" x2="193.94" y2="177.02"/><line x1="145.75" y1="177.02" x2="161.81" y2="177.02"/><line x1="161.81" y1="177.02" x2="165.02" y2="177.02"/><line x1="161.81" y1="212.36" x2="161.81" y2="177.02"/><line x1="187.51" y1="199.51" x2="174.66" y2="199.51"/><line x1="174.66" y1="199.51" x2="174.66" y2="209.15"/><line x1="174.66" y1="209.15" x2="187.51" y2="209.15"/><line x1="187.51" y1="209.15" x2="187.51" y2="199.51"/><line x1="206.79" y1="199.51" x2="193.94" y2="199.51"/><line x1="193.94" y1="199.51" x2="193.94" y2="209.15"/><line x1="193.94" y1="209.15" x2="206.79" y2="209.15"/><line x1="206.79" y1="209.15" x2="206.79" y2="199.51"/><line x1="145.75" y1="170.6" x2="145.75" y2="164.17"/><line x1="145.75" y1="151.32" x2="145.75" y2="144.9"/><line x1="144.14" y1="158.15" x2="144.14" y2="157.35"/><line x1="143.94" y1="158.15" x2="143.94" y2="157.35"/><line x1="145.75" y1="159.35" x2="145.75" y2="156.14"/><line x1="226.06" y1="196.3" x2="226.06" y2="209.15"/><line x1="222.85" y1="196.3" x2="222.85" y2="209.15"/><line x1="254.98" y1="186.66" x2="254.98" y2="189.87"/><line x1="254.98" y1="177.02" x2="254.98" y2="186.66"/><line x1="226.06" y1="180.24" x2="235.7" y2="180.24"/><line x1="238.91" y1="177.02" x2="226.06" y2="177.02"/><line x1="238.91" y1="186.66" x2="238.91" y2="177.02"/><line x1="258.19" y1="180.24" x2="267.83" y2="180.24"/><line x1="258.19" y1="189.87" x2="258.19" y2="180.24"/><line x1="271.04" y1="177.02" x2="271.04" y2="189.87"/><line x1="267.83" y1="177.02" x2="254.98" y2="177.02"/><line x1="235.7" y1="180.24" x2="235.7" y2="189.87"/><line x1="219.64" y1="212.36" x2="168.24" y2="212.36"/><line x1="218.83" y1="213.97" x2="169.04" y2="213.97"/><line x1="254.98" y1="186.66" x2="238.91" y2="186.66"/><line x1="238.91" y1="189.87" x2="238.91" y2="186.66"/><line x1="251.76" y1="189.87" x2="242.13" y2="189.87"/><line x1="264.61" y1="186.66" x2="264.61" y2="189.87"/><line x1="267.83" y1="186.66" x2="267.83" y2="189.87"/><line x1="267.83" y1="186.66" x2="264.61" y2="186.66"/><line x1="229.28" y1="186.66" x2="226.06" y2="186.66"/><line x1="229.28" y1="189.87" x2="229.28" y2="186.66"/><line x1="226.06" y1="125.62" x2="226.06" y2="122.41"/><line x1="267.83" y1="177.02" x2="267.83" y2="180.24"/><line x1="267.83" y1="180.24" x2="267.83" y2="186.66"/><line x1="267.83" y1="157.75" x2="271.04" y2="157.75"/><line x1="271.04" y1="157.75" x2="271.04" y2="177.02"/><line x1="271.04" y1="177.02" x2="267.83" y2="177.02"/><line x1="267.83" y1="157.75" x2="267.83" y2="177.02"/><line x1="271.04" y1="144.9" x2="271.04" y2="157.75"/><line x1="274.25" y1="144.9" x2="274.25" y2="189.87"/><line x1="226.06" y1="125.62" x2="242.13" y2="125.62"/><line x1="220.04" y1="176.62" x2="222.45" y2="176.62"/><line x1="222.45" y1="176.62" x2="222.45" y2="174.21"/><line x1="222.45" y1="174.21" x2="220.04" y2="174.21"/><line x1="220.04" y1="174.21" x2="220.04" y2="176.62"/><line x1="220.44" y1="174.61" x2="220.44" y2="176.22"/><line x1="220.44" y1="176.22" x2="222.05" y2="176.22"/><line x1="222.05" y1="176.22" x2="222.05" y2="174.61"/><line x1="222.05" y1="174.61" x2="220.44" y2="174.61"/><line x1="220.84" y1="175.02" x2="220.84" y2="175.82"/><line x1="220.84" y1="175.82" x2="221.65" y2="175.82"/><line x1="221.65" y1="175.82" x2="221.65" y2="175.02"/><line x1="221.65" y1="175.02" x2="220.84" y2="175.02"/><line x1="146.15" y1="176.62" x2="148.56" y2="176.62"/><line x1="148.56" y1="176.62" x2="148.56" y2="174.21"/><line x1="148.56" y1="174.21" x2="146.15" y2="174.21"/><line x1="146.15" y1="174.21" x2="146.15" y2="176.62"/><line x1="146.55" y1="174.61" x2="146.55" y2="176.22"/><line x1="146.55" y1="176.22" x2="148.16" y2="176.22"/><line x1="148.16" y1="176.22" x2="148.16" y2="174.61"/><line x1="148.16" y1="174.61" x2="146.55" y2="174.61"/><line x1="146.95" y1="175.02" x2="146.95" y2="175.82"/><line x1="146.95" y1="175.82" x2="147.76" y2="175.82"/><line x1="147.76" y1="175.82" x2="147.76" y2="175.02"/><line x1="147.76" y1="175.02" x2="146.95" y2="175.02"/><line x1="264.61" y1="218.79" x2="226.06" y2="218.79"/><line x1="264.61" y1="212.36" x2="226.06" y2="212.36"/><line x1="235.7" y1="120.8" x2="229.28" y2="120.8"/><line x1="229.28" y1="122.41" x2="235.7" y2="122.41"/><line x1="264.61" y1="106.35" x2="254.98" y2="106.35"/><line x1="254.98" y1="107.95" x2="264.61" y2="107.95"/><line x1="258.19" y1="138.47" x2="258.19" y2="141.69"/><line x1="258.19" y1="141.69" x2="264.61" y2="141.69"/><line x1="264.61" y1="141.69" x2="264.61" y2="138.47"/><line x1="264.61" y1="132.05" x2="258.19" y2="132.05"/><line x1="254.98" y1="138.47" x2="254.98" y2="144.9"/><line x1="254.98" y1="144.9" x2="267.83" y2="144.9"/><line x1="267.83" y1="144.9" x2="267.83" y2="157.75"/><line x1="250.16" y1="111.17" x2="247.75" y2="115.98"/><line x1="247.75" y1="115.98" x2="245.34" y2="111.17"/><line x1="250.16" y1="111.17" x2="247.75" y2="117.59"/><line x1="246.14" y1="117.59" x2="245.34" y2="111.17"/><line x1="254.17" y1="117.59" x2="250.96" y2="111.17"/><line x1="251.76" y1="117.59" x2="250.96" y2="111.17"/><line x1="250.16" y1="111.17" x2="249.35" y2="117.59"/><line x1="244.54" y1="111.17" x2="243.73" y2="117.59"/><line x1="247.75" y1="117.59" x2="245.34" y2="111.17"/><line x1="244.54" y1="111.17" x2="242.13" y2="115.98"/><line x1="244.54" y1="111.17" x2="242.13" y2="117.59"/><line x1="242.13" y1="117.59" x2="239.72" y2="111.17"/><line x1="253.37" y1="117.59" x2="250.96" y2="111.17"/><line x1="242.13" y1="115.98" x2="239.72" y2="111.17"/><line x1="238.91" y1="111.17" x2="238.11" y2="117.59"/><line x1="239.72" y1="111.17" x2="240.52" y2="117.59"/><line x1="238.91" y1="111.17" x2="236.5" y2="117.59"/><line x1="238.91" y1="111.17" x2="235.7" y2="117.59"/><line x1="258.19" y1="138.47" x2="264.61" y2="138.47"/><line x1="258.19" y1="136.87" x2="258.19" y2="132.05"/><line x1="264.61" y1="132.05" x2="264.61" y2="136.87"/><line x1="251.76" y1="118.39" x2="248.55" y2="118.39"/><line x1="251.76" y1="117.59" x2="249.35" y2="117.59"/><line x1="249.35" y1="117.59" x2="248.55" y2="117.59"/><line x1="248.55" y1="118.8" x2="251.76" y2="118.8"/><line x1="248.55" y1="119.2" x2="251.76" y2="119.2"/><line x1="256.58" y1="120.8" x2="256.58" y2="130.44"/><line x1="258.19" y1="130.44" x2="258.19" y2="120.8"/><line x1="253.37" y1="136.87" x2="246.94" y2="136.87"/><line x1="243.73" y1="133.65" x2="243.73" y2="122.41"/><line x1="274.25" y1="114.38" x2="274.65" y2="117.59"/><line x1="271.84" y1="114.38" x2="272.24" y2="117.59"/><line x1="272.65" y1="114.38" x2="273.05" y2="117.59"/><line x1="213.21" y1="135.26" x2="213.21" y2="128.83"/><line x1="206.79" y1="90.28" x2="206.79" y2="96.71"/><line x1="213.21" y1="96.71" x2="213.21" y2="90.28"/><line x1="206.79" y1="103.13" x2="206.79" y2="109.56"/><line x1="213.21" y1="122.41" x2="213.21" y2="115.98"/><line x1="206.79" y1="128.83" x2="206.79" y2="135.26"/><line x1="206.79" y1="115.98" x2="213.21" y2="115.98"/><line x1="213.21" y1="115.98" x2="213.21" y2="109.56"/><line x1="213.21" y1="109.56" x2="206.79" y2="109.56"/><line x1="206.79" y1="109.56" x2="206.79" y2="115.98"/><line x1="206.79" y1="115.98" x2="206.79" y2="122.41"/><line x1="213.21" y1="109.56" x2="213.21" y2="103.13"/><line x1="221.24" y1="138.47" x2="214.82" y2="138.47"/><line x1="214.82" y1="141.69" x2="221.24" y2="141.69"/><line x1="206.79" y1="144.9" x2="213.21" y2="144.9"/><line x1="213.21" y1="144.9" x2="213.21" y2="141.69"/><line x1="206.79" y1="141.69" x2="206.79" y2="144.9"/><line x1="267.83" y1="93.5" x2="267.83" y2="103.13"/><line x1="271.04" y1="103.13" x2="271.04" y2="106.35"/><line x1="267.83" y1="90.28" x2="267.83" y2="93.5"/><line x1="271.04" y1="103.13" x2="267.83" y2="103.13"/><line x1="271.04" y1="90.28" x2="271.04" y2="93.5"/><line x1="267.83" y1="93.5" x2="271.04" y2="93.5"/><line x1="267.83" y1="103.13" x2="267.83" y2="106.35"/><line x1="271.04" y1="93.5" x2="271.04" y2="103.13"/><line x1="271.04" y1="74.22" x2="271.04" y2="77.43"/><line x1="266.22" y1="83.86" x2="267.83" y2="87.07"/><line x1="264.61" y1="55.75" x2="264.61" y2="59.76"/><line x1="264.61" y1="59.76" x2="266.22" y2="62.98"/><line x1="266.22" y1="62.98" x2="266.22" y2="72.61"/><line x1="266.22" y1="72.61" x2="267.83" y2="75.83"/><line x1="267.83" y1="75.83" x2="264.61" y2="77.43"/><line x1="264.61" y1="77.43" x2="263.01" y2="79.04"/><line x1="263.01" y1="79.04" x2="263.01" y2="85.46"/><line x1="263.01" y1="85.46" x2="264.61" y2="88.68"/><line x1="264.61" y1="88.68" x2="264.61" y2="89.48"/><line x1="269.43" y1="62.17" x2="269.43" y2="70.2"/><line x1="270.24" y1="62.98" x2="270.24" y2="69.4"/><line x1="274.25" y1="90.28" x2="274.25" y2="106.35"/><line x1="267.02" y1="83.46" x2="268.63" y2="86.67"/><line x1="271.84" y1="74.22" x2="271.84" y2="77.43"/><line x1="283.89" y1="83.86" x2="283.89" y2="85.46"/><line x1="283.89" y1="85.46" x2="285.5" y2="85.46"/><line x1="285.5" y1="85.46" x2="285.5" y2="83.86"/><line x1="285.5" y1="83.86" x2="283.89" y2="83.86"/><line x1="283.49" y1="83.46" x2="283.49" y2="85.87"/><line x1="283.49" y1="85.87" x2="285.9" y2="85.87"/><line x1="285.9" y1="85.87" x2="285.9" y2="83.46"/><line x1="285.9" y1="83.46" x2="283.49" y2="83.46"/><line x1="285.5" y1="79.04" x2="281.48" y2="81.45"/><line x1="282.28" y1="74.22" x2="279.47" y2="74.62"/><line x1="279.47" y1="74.62" x2="277.46" y2="76.63"/><line x1="274.25" y1="81.45" x2="274.25" y2="83.86"/><line x1="274.25" y1="83.86" x2="275.86" y2="85.46"/><line x1="281.48" y1="81.45" x2="279.07" y2="85.46"/><line x1="222.85" y1="51.73" x2="223.65" y2="54.94"/><line x1="223.65" y1="54.94" x2="225.26" y2="54.94"/><line x1="221.24" y1="51.73" x2="222.85" y2="56.55"/><line x1="222.85" y1="56.55" x2="226.06" y2="56.55"/><line x1="226.06" y1="56.55" x2="227.67" y2="51.73"/><line x1="225.26" y1="54.94" x2="226.06" y2="51.73"/><line x1="254.98" y1="51.73" x2="255.78" y2="54.94"/><line x1="255.78" y1="54.94" x2="257.39" y2="54.94"/><line x1="253.37" y1="51.73" x2="254.98" y2="56.55"/><line x1="254.98" y1="56.55" x2="258.19" y2="56.55"/><line x1="258.19" y1="56.55" x2="259.8" y2="51.73"/><line x1="257.39" y1="54.94" x2="258.19" y2="51.73"/><line x1="245.34" y1="46.91" x2="235.7" y2="46.91"/><line x1="235.7" y1="48.52" x2="245.34" y2="48.52"/><line x1="216.43" y1="34.06" x2="218.03" y2="32.46"/><line x1="218.03" y1="32.46" x2="243.73" y2="32.46"/><line x1="243.73" y1="32.46" x2="245.34" y2="34.06"/><line x1="245.34" y1="34.06" x2="245.34" y2="38.88"/><line x1="245.34" y1="38.88" x2="243.73" y2="40.49"/><line x1="243.73" y1="40.49" x2="218.03" y2="40.49"/><line x1="218.03" y1="40.49" x2="216.43" y2="38.88"/><line x1="216.43" y1="38.88" x2="216.43" y2="34.06"/><line x1="214.82" y1="39.69" x2="217.23" y2="42.09"/><line x1="217.23" y1="42.09" x2="244.54" y2="42.09"/><line x1="244.54" y1="42.09" x2="246.94" y2="39.69"/><line x1="246.94" y1="39.69" x2="246.94" y2="33.26"/><line x1="246.94" y1="33.26" x2="244.54" y2="30.85"/><line x1="244.54" y1="30.85" x2="217.23" y2="30.85"/><line x1="217.23" y1="30.85" x2="214.82" y2="33.26"/><line x1="214.82" y1="33.26" x2="214.82" y2="39.69"/><line x1="145.75" y1="99.92" x2="145.75" y2="96.71"/><line x1="139.32" y1="106.35" x2="152.17" y2="106.35"/><line x1="152.17" y1="103.13" x2="139.32" y2="103.13"/><line x1="158.6" y1="77.43" x2="158.6" y2="64.58"/><line x1="155.39" y1="64.58" x2="155.39" y2="77.43"/><line x1="187.51" y1="109.56" x2="187.51" y2="106.35"/><line x1="168.24" y1="103.13" x2="168.24" y2="96.71"/><line x1="168.24" y1="96.71" x2="161.81" y2="96.71"/><line x1="161.81" y1="103.13" x2="168.24" y2="103.13"/><line x1="163.42" y1="95.1" x2="166.63" y2="95.1"/><line x1="166.63" y1="95.1" x2="166.63" y2="91.89"/><line x1="166.63" y1="91.89" x2="163.42" y2="91.89"/><line x1="163.42" y1="91.89" x2="163.42" y2="95.1"/><line x1="163.42" y1="106.35" x2="165.02" y2="106.35"/><line x1="165.02" y1="106.35" x2="165.02" y2="104.74"/><line x1="165.02" y1="104.74" x2="163.42" y2="104.74"/><line x1="163.42" y1="104.74" x2="163.42" y2="106.35"/><line x1="167.43" y1="95.91" x2="169.04" y2="95.91"/><line x1="169.04" y1="95.91" x2="169.04" y2="94.3"/><line x1="169.04" y1="94.3" x2="167.43" y2="94.3"/><line x1="167.43" y1="94.3" x2="167.43" y2="95.91"/><line x1="162.61" y1="91.09" x2="164.22" y2="91.09"/><line x1="164.22" y1="91.09" x2="164.22" y2="89.48"/><line x1="164.22" y1="89.48" x2="162.61" y2="89.48"/><line x1="162.61" y1="89.48" x2="162.61" y2="91.09"/><line x1="165.83" y1="91.49" x2="167.43" y2="91.49"/><line x1="167.43" y1="91.49" x2="167.43" y2="89.88"/><line x1="167.43" y1="89.88" x2="165.83" y2="89.88"/><line x1="165.83" y1="89.88" x2="165.83" y2="91.49"/><line x1="166.23" y1="91.09" x2="167.03" y2="91.09"/><line x1="167.03" y1="91.09" x2="167.03" y2="90.28"/><line x1="167.03" y1="90.28" x2="166.23" y2="90.28"/><line x1="166.23" y1="90.28" x2="166.23" y2="91.09"/><line x1="167.43" y1="92.09" x2="167.43" y2="92.89"/><line x1="167.43" y1="92.89" x2="168.24" y2="92.89"/><line x1="168.24" y1="92.89" x2="168.24" y2="92.09"/><line x1="168.24" y1="92.09" x2="167.43" y2="92.09"/><line x1="166.03" y1="104.74" x2="166.83" y2="104.74"/><line x1="166.83" y1="104.74" x2="166.83" y2="103.94"/><line x1="166.83" y1="103.94" x2="166.03" y2="103.94"/><line x1="166.03" y1="103.94" x2="166.03" y2="104.74"/><line x1="162.61" y1="101.53" x2="164.22" y2="101.53"/><line x1="164.22" y1="101.53" x2="164.22" y2="99.92"/><line x1="164.22" y1="99.92" x2="162.61" y2="99.92"/><line x1="162.61" y1="99.92" x2="162.61" y2="101.53"/><line x1="142.54" y1="99.92" x2="145.75" y2="99.92"/><line x1="213.21" y1="71.01" x2="216.43" y2="71.01"/><line x1="216.43" y1="74.22" x2="216.43" y2="71.01"/><line x1="216.43" y1="74.22" x2="213.21" y2="74.22"/><line x1="213.21" y1="74.22" x2="213.21" y2="71.01"/><line x1="216.43" y1="71.01" x2="216.43" y2="67.8"/><line x1="213.21" y1="71.01" x2="213.21" y2="67.8"/><line x1="201.17" y1="81.45" x2="207.59" y2="81.45"/><line x1="207.59" y1="81.45" x2="207.59" y2="78.24"/><line x1="207.59" y1="78.24" x2="201.17" y2="78.24"/><line x1="201.17" y1="78.24" x2="201.17" y2="81.45"/><line x1="210.8" y1="84.66" x2="212.41" y2="84.66"/><line x1="212.41" y1="84.66" x2="212.41" y2="81.45"/><line x1="212.41" y1="81.45" x2="210.8" y2="81.45"/><line x1="210.8" y1="81.45" x2="210.8" y2="84.66"/><line x1="201.97" y1="78.64" x2="201.97" y2="80.24"/><line x1="201.97" y1="80.24" x2="203.57" y2="80.24"/><line x1="203.57" y1="80.24" x2="203.57" y2="78.64"/><line x1="203.57" y1="78.64" x2="201.97" y2="78.64"/></g><g stroke="#d3b15b" stroke-width="2.4" stroke-linecap="round"><line x1="190.72" y1="125.62" x2="199.56" y2="125.62"/><line x1="200.36" y1="123.21" x2="199.56" y2="122.41"/><line x1="197.15" y1="90.28" x2="197.15" y2="87.87"/><line x1="222.85" y1="87.07" x2="222.85" y2="93.5"/><line x1="222.85" y1="138.47" x2="221.24" y2="138.47"/><line x1="197.15" y1="121.61" x2="197.15" y2="119.2"/><line x1="145.75" y1="125.62" x2="161.81" y2="125.62"/><line x1="161.81" y1="125.62" x2="161.81" y2="124.42"/><line x1="174.66" y1="122.41" x2="174.66" y2="123.61"/><line x1="161.81" y1="122.41" x2="139.32" y2="122.41"/><line x1="139.32" y1="122.41" x2="139.32" y2="115.98"/><line x1="216.43" y1="83.86" x2="216.43" y2="77.43"/><line x1="249.35" y1="43.7" x2="248.55" y2="43.7"/><line x1="216.43" y1="77.43" x2="213.21" y2="77.43"/><line x1="216.43" y1="67.8" x2="216.43" y2="58.16"/><line x1="216.43" y1="51.73" x2="221.24" y2="51.73"/><line x1="267.83" y1="55.75" x2="267.83" y2="58.16"/><line x1="258.19" y1="189.87" x2="254.98" y2="189.87"/><line x1="226.06" y1="83.86" x2="216.43" y2="83.86"/><line x1="254.98" y1="106.35" x2="226.06" y2="106.35"/><line x1="226.06" y1="93.5" x2="226.06" y2="83.86"/><line x1="222.85" y1="93.5" x2="226.06" y2="93.5"/><line x1="226.06" y1="106.35" x2="222.85" y2="106.35"/><line x1="222.85" y1="106.35" x2="222.85" y2="122.41"/><line x1="226.06" y1="141.69" x2="226.06" y2="132.05"/><line x1="267.83" y1="144.9" x2="271.04" y2="144.9"/><line x1="222.85" y1="122.41" x2="226.06" y2="122.41"/><line x1="226.06" y1="132.05" x2="222.85" y2="132.05"/><line x1="222.85" y1="132.05" x2="222.85" y2="138.47"/><line x1="174.66" y1="125.62" x2="181.09" y2="125.62"/><line x1="193.94" y1="141.69" x2="195.54" y2="141.69"/><line x1="195.54" y1="141.69" x2="195.54" y2="138.47"/><line x1="205.18" y1="141.69" x2="206.79" y2="141.69"/><line x1="205.18" y1="138.47" x2="205.18" y2="141.69"/><line x1="148.96" y1="138.47" x2="145.75" y2="138.47"/><line x1="148.96" y1="141.69" x2="148.96" y2="138.47"/><line x1="184.3" y1="107.15" x2="184.3" y2="106.35"/><line x1="158.6" y1="138.47" x2="158.6" y2="141.69"/><line x1="181.09" y1="138.47" x2="158.6" y2="138.47"/><line x1="251.76" y1="18" x2="253.37" y2="18"/><line x1="213.21" y1="51.73" x2="216.43" y2="51.73"/><line x1="181.09" y1="125.62" x2="184.3" y2="125.62"/><line x1="184.3" y1="125.62" x2="187.51" y2="125.62"/><line x1="184.3" y1="138.47" x2="181.09" y2="138.47"/><line x1="187.51" y1="125.62" x2="190.72" y2="125.62"/><line x1="187.51" y1="138.47" x2="184.3" y2="138.47"/><line x1="200.36" y1="124.82" x2="200.36" y2="123.21"/><line x1="190.72" y1="138.47" x2="187.51" y2="138.47"/><line x1="210" y1="48.52" x2="213.21" y2="51.73"/><line x1="195.54" y1="138.47" x2="190.72" y2="138.47"/><line x1="254.98" y1="46.91" x2="251.76" y2="46.91"/><line x1="216.43" y1="58.16" x2="148.96" y2="58.16"/><line x1="256.58" y1="22.82" x2="256.58" y2="45.31"/><line x1="251.76" y1="46.91" x2="250.16" y2="45.31"/><line x1="145.75" y1="138.47" x2="145.75" y2="125.62"/><line x1="227.67" y1="22.82" x2="227.67" y2="19.61"/><line x1="227.67" y1="19.61" x2="229.28" y2="18"/><line x1="148.96" y1="48.52" x2="210" y2="48.52"/><line x1="231.69" y1="107.95" x2="232.49" y2="107.95"/><line x1="230.08" y1="107.95" x2="230.08" y2="107.55"/><line x1="213.21" y1="67.8" x2="216.43" y2="67.8"/><line x1="248.55" y1="35.67" x2="248.55" y2="38.88"/><line x1="231.69" y1="107.55" x2="231.69" y2="107.95"/><line x1="190.72" y1="67.8" x2="193.94" y2="67.8"/><line x1="138.12" y1="115.98" x2="137.72" y2="115.98"/><line x1="199.56" y1="122.41" x2="197.95" y2="122.41"/><line x1="199.56" y1="125.62" x2="200.36" y2="124.82"/><line x1="139.32" y1="112.77" x2="139.32" y2="106.35"/><line x1="193.94" y1="77.43" x2="190.72" y2="77.43"/><line x1="136.91" y1="111.97" x2="137.72" y2="112.77"/><line x1="138.52" y1="115.98" x2="138.12" y2="115.98"/><line x1="190.72" y1="77.43" x2="187.51" y2="77.43"/><line x1="193.94" y1="67.8" x2="197.15" y2="67.8"/><line x1="133.7" y1="111.97" x2="136.91" y2="111.97"/><line x1="137.72" y1="115.98" x2="136.91" y2="116.79"/><line x1="197.15" y1="77.43" x2="193.94" y2="77.43"/><line x1="197.15" y1="67.8" x2="213.21" y2="67.8"/><line x1="136.91" y1="116.79" x2="133.7" y2="116.79"/><line x1="138.52" y1="112.77" x2="139.32" y2="112.77"/><line x1="213.21" y1="77.43" x2="213.21" y2="84.66"/><line x1="187.51" y1="67.8" x2="190.72" y2="67.8"/><line x1="187.51" y1="77.43" x2="184.3" y2="77.43"/><line x1="137.72" y1="112.77" x2="138.12" y2="112.77"/><line x1="132.9" y1="112.77" x2="133.7" y2="111.97"/><line x1="132.9" y1="115.98" x2="132.9" y2="112.77"/><line x1="133.7" y1="116.79" x2="132.9" y2="115.98"/><line x1="184.3" y1="108.76" x2="184.3" y2="107.15"/><line x1="139.32" y1="115.98" x2="138.52" y2="115.98"/><line x1="138.12" y1="112.77" x2="138.52" y2="112.77"/><line x1="256.58" y1="21.21" x2="256.58" y2="22.82"/><line x1="256.58" y1="45.31" x2="254.98" y2="46.91"/><line x1="242.13" y1="24.43" x2="242.13" y2="25.23"/><line x1="249.35" y1="26.03" x2="250.16" y2="26.03"/><line x1="230.08" y1="107.55" x2="231.69" y2="107.55"/><line x1="230.88" y1="26.03" x2="230.88" y2="25.23"/><line x1="229.28" y1="111.17" x2="229.28" y2="107.95"/><line x1="232.49" y1="107.95" x2="232.49" y2="111.17"/><line x1="229.28" y1="107.95" x2="230.08" y2="107.95"/><line x1="250.16" y1="24.43" x2="242.13" y2="24.43"/><line x1="276.66" y1="114.38" x2="276.66" y2="120.8"/><line x1="250.16" y1="26.03" x2="250.16" y2="24.43"/><line x1="276.66" y1="120.8" x2="276.26" y2="120.8"/><line x1="271.04" y1="114.38" x2="271.84" y2="114.38"/><line x1="271.04" y1="120.8" x2="267.83" y2="120.8"/><line x1="267.83" y1="120.8" x2="264.61" y2="120.8"/><line x1="267.83" y1="114.38" x2="271.04" y2="114.38"/><line x1="230.88" y1="24.43" x2="229.28" y2="24.43"/><line x1="249.35" y1="38.88" x2="250.16" y2="38.88"/><line x1="249.35" y1="35.67" x2="248.55" y2="35.67"/><line x1="229.28" y1="18" x2="251.76" y2="18"/><line x1="248.55" y1="38.88" x2="249.35" y2="38.88"/><line x1="250.16" y1="35.67" x2="249.35" y2="35.67"/><line x1="242.13" y1="26.03" x2="248.55" y2="26.03"/><line x1="250.16" y1="45.31" x2="250.16" y2="43.7"/><line x1="242.13" y1="25.23" x2="242.13" y2="26.03"/><line x1="229.28" y1="24.43" x2="227.67" y2="22.82"/><line x1="230.88" y1="25.23" x2="230.88" y2="24.43"/><line x1="139.32" y1="64.58" x2="155.39" y2="64.58"/><line x1="184.3" y1="67.8" x2="187.51" y2="67.8"/><line x1="248.55" y1="26.03" x2="249.35" y2="26.03"/><line x1="250.16" y1="43.7" x2="249.35" y2="43.7"/><line x1="250.16" y1="38.88" x2="250.16" y2="35.67"/><line x1="256.58" y1="18" x2="256.58" y2="21.21"/><line x1="253.37" y1="18" x2="256.58" y2="18"/><line x1="190.72" y1="141.69" x2="193.94" y2="141.69"/><line x1="145.75" y1="173.81" x2="145.75" y2="170.6"/><line x1="145.75" y1="141.69" x2="148.96" y2="141.69"/><line x1="158.6" y1="141.69" x2="161.81" y2="141.69"/><line x1="161.81" y1="141.69" x2="165.02" y2="141.69"/><line x1="165.02" y1="141.69" x2="168.24" y2="141.69"/><line x1="168.24" y1="141.69" x2="171.45" y2="141.69"/><line x1="171.45" y1="141.69" x2="174.66" y2="141.69"/><line x1="174.66" y1="141.69" x2="177.87" y2="141.69"/><line x1="177.87" y1="141.69" x2="190.72" y2="141.69"/><line x1="226.06" y1="177.02" x2="226.06" y2="173.81"/><line x1="145.75" y1="177.02" x2="145.75" y2="173.81"/><line x1="222.85" y1="212.36" x2="219.64" y2="212.36"/><line x1="222.85" y1="196.3" x2="226.06" y2="196.3"/><line x1="222.85" y1="209.15" x2="222.85" y2="212.36"/><line x1="222.85" y1="141.69" x2="222.85" y2="148.11"/><line x1="226.06" y1="148.11" x2="226.06" y2="141.69"/><line x1="226.06" y1="173.81" x2="226.06" y2="170.6"/><line x1="222.85" y1="170.6" x2="222.85" y2="173.81"/><line x1="222.85" y1="173.81" x2="222.85" y2="177.02"/><line x1="222.85" y1="148.11" x2="226.06" y2="148.11"/><line x1="226.06" y1="170.6" x2="222.85" y2="170.6"/><line x1="222.85" y1="177.02" x2="222.85" y2="189.87"/><line x1="165.02" y1="212.36" x2="161.81" y2="212.36"/><line x1="161.81" y1="212.36" x2="145.75" y2="212.36"/><line x1="222.85" y1="189.87" x2="222.85" y2="193.09"/><line x1="222.85" y1="193.09" x2="222.85" y2="196.3"/><line x1="145.75" y1="212.36" x2="145.75" y2="177.02"/><line x1="184.3" y1="202.72" x2="177.87" y2="202.72"/><line x1="177.87" y1="202.72" x2="177.87" y2="205.94"/><line x1="177.87" y1="205.94" x2="184.3" y2="205.94"/><line x1="184.3" y1="205.94" x2="184.3" y2="202.72"/><line x1="203.57" y1="202.72" x2="197.15" y2="202.72"/><line x1="197.15" y1="202.72" x2="197.15" y2="205.94"/><line x1="197.15" y1="205.94" x2="203.57" y2="205.94"/><line x1="203.57" y1="205.94" x2="203.57" y2="202.72"/><line x1="144.14" y1="170.6" x2="144.14" y2="164.17"/><line x1="144.14" y1="164.17" x2="145.75" y2="164.17"/><line x1="145.75" y1="170.6" x2="144.14" y2="170.6"/><line x1="145.75" y1="164.17" x2="145.75" y2="159.35"/><line x1="144.14" y1="151.32" x2="144.14" y2="144.9"/><line x1="144.14" y1="144.9" x2="145.75" y2="144.9"/><line x1="145.75" y1="151.32" x2="144.14" y2="151.32"/><line x1="145.75" y1="144.9" x2="145.75" y2="141.69"/><line x1="145.75" y1="159.35" x2="144.14" y2="159.35"/><line x1="144.14" y1="157.35" x2="144.14" y2="156.14"/><line x1="144.14" y1="159.35" x2="144.14" y2="158.15"/><line x1="145.75" y1="156.14" x2="145.75" y2="151.32"/><line x1="143.94" y1="157.35" x2="144.14" y2="157.35"/><line x1="144.14" y1="158.15" x2="143.94" y2="158.15"/><line x1="144.14" y1="156.14" x2="145.75" y2="156.14"/><line x1="143.94" y1="158.15" x2="143.14" y2="158.15"/><line x1="143.14" y1="158.15" x2="143.14" y2="157.35"/><line x1="143.14" y1="157.35" x2="143.94" y2="157.35"/><line x1="226.06" y1="209.15" x2="222.85" y2="209.15"/><line x1="148.96" y1="58.16" x2="148.96" y2="48.52"/><line x1="226.06" y1="186.66" x2="226.06" y2="180.24"/><line x1="226.06" y1="180.24" x2="226.06" y2="177.02"/><line x1="238.91" y1="189.87" x2="235.7" y2="189.87"/><line x1="235.7" y1="189.87" x2="229.28" y2="189.87"/><line x1="264.61" y1="189.87" x2="258.19" y2="189.87"/><line x1="271.04" y1="189.87" x2="267.83" y2="189.87"/><line x1="219.64" y1="213.97" x2="218.83" y2="213.97"/><line x1="219.64" y1="212.36" x2="219.64" y2="213.97"/><line x1="168.24" y1="213.97" x2="168.24" y2="212.36"/><line x1="168.24" y1="212.36" x2="165.02" y2="212.36"/><line x1="218.83" y1="214.77" x2="169.04" y2="214.77"/><line x1="169.04" y1="213.97" x2="168.24" y2="213.97"/><line x1="218.83" y1="213.97" x2="218.83" y2="214.77"/><line x1="169.04" y1="214.77" x2="169.04" y2="213.97"/><line x1="254.98" y1="189.87" x2="251.76" y2="189.87"/><line x1="251.76" y1="190.68" x2="242.13" y2="190.68"/><line x1="251.76" y1="189.87" x2="251.76" y2="190.68"/><line x1="242.13" y1="190.68" x2="242.13" y2="189.87"/><line x1="242.13" y1="189.87" x2="238.91" y2="189.87"/><line x1="267.83" y1="189.87" x2="264.61" y2="189.87"/><line x1="226.06" y1="189.87" x2="226.06" y2="186.66"/><line x1="229.28" y1="189.87" x2="226.06" y2="189.87"/><line x1="267.83" y1="106.35" x2="264.61" y2="106.35"/><line x1="254.98" y1="138.47" x2="258.19" y2="138.47"/><line x1="271.04" y1="144.9" x2="274.25" y2="144.9"/><line x1="274.25" y1="189.87" x2="271.04" y2="189.87"/><line x1="274.25" y1="144.9" x2="277.46" y2="167.39"/><line x1="277.46" y1="167.39" x2="274.25" y2="189.87"/><line x1="242.13" y1="125.62" x2="242.13" y2="138.47"/><line x1="226.06" y1="122.41" x2="229.28" y2="122.41"/><line x1="226.06" y1="196.3" x2="226.06" y2="194.69"/><line x1="226.06" y1="194.69" x2="264.61" y2="194.69"/><line x1="264.61" y1="194.69" x2="264.61" y2="212.36"/><line x1="226.06" y1="218.79" x2="226.06" y2="212.36"/><line x1="226.06" y1="212.36" x2="226.06" y2="209.15"/><line x1="264.61" y1="212.36" x2="264.61" y2="218.79"/><line x1="227.67" y1="213.57" x2="227.67" y2="214.37"/><line x1="227.67" y1="214.37" x2="234.09" y2="214.37"/><line x1="234.09" y1="214.37" x2="234.09" y2="213.57"/><line x1="234.09" y1="213.57" x2="227.67" y2="213.57"/><line x1="237.31" y1="213.57" x2="237.31" y2="214.37"/><line x1="237.31" y1="214.37" x2="243.73" y2="214.37"/><line x1="243.73" y1="214.37" x2="243.73" y2="213.57"/><line x1="243.73" y1="213.57" x2="237.31" y2="213.57"/><line x1="246.94" y1="213.57" x2="246.94" y2="214.37"/><line x1="246.94" y1="214.37" x2="253.37" y2="214.37"/><line x1="253.37" y1="214.37" x2="253.37" y2="213.57"/><line x1="253.37" y1="213.57" x2="246.94" y2="213.57"/><line x1="256.58" y1="213.57" x2="256.58" y2="214.37"/><line x1="256.58" y1="214.37" x2="263.01" y2="214.37"/><line x1="263.01" y1="214.37" x2="263.01" y2="213.57"/><line x1="263.01" y1="213.57" x2="256.58" y2="213.57"/><line x1="245.34" y1="222" x2="226.06" y2="218.79"/><line x1="264.61" y1="218.79" x2="245.34" y2="222"/><line x1="235.7" y1="120.8" x2="235.7" y2="122.41"/><line x1="229.28" y1="122.41" x2="229.28" y2="120.8"/><line x1="235.7" y1="122.41" x2="242.13" y2="122.41"/><line x1="264.61" y1="106.35" x2="264.61" y2="107.95"/><line x1="271.04" y1="106.35" x2="267.83" y2="106.35"/><line x1="254.98" y1="107.95" x2="254.98" y2="106.35"/><line x1="229.28" y1="120.8" x2="229.28" y2="111.17"/><line x1="232.49" y1="111.17" x2="238.11" y2="111.17"/><line x1="254.98" y1="111.17" x2="254.98" y2="107.95"/><line x1="264.61" y1="107.95" x2="264.61" y2="114.38"/><line x1="264.61" y1="136.87" x2="264.61" y2="138.47"/><line x1="238.91" y1="117.59" x2="238.11" y2="117.59"/><line x1="242.13" y1="122.41" x2="242.13" y2="125.62"/><line x1="242.13" y1="138.47" x2="254.98" y2="138.47"/><line x1="258.19" y1="117.59" x2="254.17" y2="117.59"/><line x1="258.19" y1="132.05" x2="258.19" y2="130.44"/><line x1="264.61" y1="138.47" x2="267.83" y2="138.47"/><line x1="267.83" y1="138.47" x2="267.83" y2="144.9"/><line x1="251.76" y1="111.17" x2="254.98" y2="111.17"/><line x1="250.96" y1="111.17" x2="251.76" y2="111.17"/><line x1="250.16" y1="110.76" x2="250.96" y2="110.76"/><line x1="254.17" y1="117.59" x2="253.37" y2="117.59"/><line x1="250.16" y1="111.17" x2="250.16" y2="110.76"/><line x1="249.35" y1="111.17" x2="250.16" y2="111.17"/><line x1="246.14" y1="117.59" x2="243.73" y2="117.59"/><line x1="242.13" y1="117.59" x2="240.52" y2="117.59"/><line x1="243.73" y1="117.59" x2="242.13" y2="117.59"/><line x1="243.73" y1="111.17" x2="244.54" y2="111.17"/><line x1="248.55" y1="117.59" x2="247.75" y2="117.59"/><line x1="253.37" y1="117.59" x2="251.76" y2="117.59"/><line x1="250.96" y1="110.76" x2="250.96" y2="111.17"/><line x1="248.55" y1="118.39" x2="248.55" y2="117.59"/><line x1="245.34" y1="110.76" x2="245.34" y2="111.17"/><line x1="244.54" y1="110.76" x2="245.34" y2="110.76"/><line x1="244.54" y1="111.17" x2="244.54" y2="110.76"/><line x1="247.75" y1="117.59" x2="246.14" y2="117.59"/><line x1="245.34" y1="111.17" x2="246.14" y2="111.17"/><line x1="246.14" y1="111.17" x2="249.35" y2="111.17"/><line x1="240.52" y1="111.17" x2="243.73" y2="111.17"/><line x1="239.72" y1="111.17" x2="240.52" y2="111.17"/><line x1="238.11" y1="111.17" x2="238.91" y2="111.17"/><line x1="240.52" y1="117.59" x2="238.91" y2="117.59"/><line x1="236.5" y1="117.59" x2="235.7" y2="117.59"/><line x1="239.72" y1="110.76" x2="239.72" y2="111.17"/><line x1="238.91" y1="110.76" x2="239.72" y2="110.76"/><line x1="238.91" y1="111.17" x2="238.91" y2="110.76"/><line x1="238.11" y1="117.59" x2="236.5" y2="117.59"/><line x1="235.7" y1="117.59" x2="235.7" y2="120.8"/><line x1="258.19" y1="138.47" x2="258.19" y2="136.87"/><line x1="258.19" y1="136.87" x2="257.39" y2="134.46"/><line x1="257.39" y1="134.46" x2="258.19" y2="132.05"/><line x1="265.42" y1="134.46" x2="264.61" y2="136.87"/><line x1="264.61" y1="132.05" x2="265.42" y2="134.46"/><line x1="251.76" y1="117.59" x2="251.76" y2="118.39"/><line x1="248.55" y1="118.8" x2="248.55" y2="118.39"/><line x1="251.76" y1="118.39" x2="251.76" y2="118.8"/><line x1="248.55" y1="119.2" x2="248.55" y2="118.8"/><line x1="251.76" y1="118.8" x2="251.76" y2="119.2"/><line x1="243.73" y1="119.2" x2="248.55" y2="119.2"/><line x1="243.73" y1="136.87" x2="243.73" y2="133.65"/><line x1="256.58" y1="136.87" x2="253.37" y2="136.87"/><line x1="256.58" y1="119.2" x2="256.58" y2="120.8"/><line x1="251.76" y1="119.2" x2="256.58" y2="119.2"/><line x1="258.19" y1="130.44" x2="257.79" y2="130.44"/><line x1="256.58" y1="120.8" x2="256.98" y2="120.8"/><line x1="258.19" y1="120.8" x2="258.19" y2="117.59"/><line x1="256.58" y1="130.44" x2="256.58" y2="136.87"/><line x1="256.98" y1="120.8" x2="257.79" y2="120.8"/><line x1="257.79" y1="120.8" x2="258.19" y2="120.8"/><line x1="256.98" y1="130.44" x2="256.58" y2="130.44"/><line x1="257.79" y1="130.44" x2="256.98" y2="130.44"/><line x1="246.94" y1="133.65" x2="253.37" y2="133.65"/><line x1="253.37" y1="133.65" x2="253.37" y2="130.44"/><line x1="253.37" y1="130.44" x2="246.94" y2="130.44"/><line x1="246.94" y1="130.44" x2="246.94" y2="133.65"/><line x1="246.94" y1="127.23" x2="250.16" y2="127.23"/><line x1="250.16" y1="127.23" x2="250.16" y2="124.02"/><line x1="250.16" y1="124.02" x2="246.94" y2="124.02"/><line x1="246.94" y1="124.02" x2="246.94" y2="127.23"/><line x1="253.37" y1="136.87" x2="253.37" y2="137.67"/><line x1="246.94" y1="137.67" x2="246.94" y2="136.87"/><line x1="253.37" y1="137.67" x2="246.94" y2="137.67"/><line x1="246.94" y1="136.87" x2="243.73" y2="136.87"/><line x1="243.73" y1="133.65" x2="242.93" y2="133.65"/><line x1="242.93" y1="122.41" x2="243.73" y2="122.41"/><line x1="242.93" y1="133.65" x2="242.93" y2="122.41"/><line x1="243.73" y1="122.41" x2="243.73" y2="119.2"/><line x1="264.61" y1="114.38" x2="267.83" y2="114.38"/><line x1="264.61" y1="120.8" x2="264.61" y2="132.05"/><line x1="276.26" y1="114.38" x2="276.66" y2="114.38"/><line x1="276.26" y1="120.8" x2="275.86" y2="120.8"/><line x1="272.65" y1="114.38" x2="274.25" y2="114.38"/><line x1="275.06" y1="120.8" x2="274.25" y2="120.8"/><line x1="275.06" y1="121.2" x2="275.06" y2="120.8"/><line x1="275.86" y1="121.2" x2="275.06" y2="121.2"/><line x1="275.86" y1="120.8" x2="275.86" y2="121.2"/><line x1="271.84" y1="120.8" x2="271.04" y2="120.8"/><line x1="275.06" y1="114.38" x2="275.06" y2="113.98"/><line x1="275.06" y1="113.98" x2="275.86" y2="113.98"/><line x1="275.86" y1="113.98" x2="275.86" y2="114.38"/><line x1="275.86" y1="114.38" x2="276.26" y2="114.38"/><line x1="274.25" y1="114.38" x2="275.06" y2="114.38"/><line x1="271.84" y1="114.38" x2="272.65" y2="114.38"/><line x1="274.25" y1="120.8" x2="272.65" y2="120.8"/><line x1="272.65" y1="120.8" x2="271.84" y2="120.8"/><line x1="213.21" y1="90.28" x2="213.21" y2="87.07"/><line x1="206.79" y1="138.47" x2="205.18" y2="138.47"/><line x1="206.79" y1="87.07" x2="206.79" y2="90.28"/><line x1="213.21" y1="87.07" x2="222.85" y2="87.07"/><line x1="206.79" y1="90.28" x2="213.21" y2="90.28"/><line x1="206.79" y1="135.26" x2="206.79" y2="138.47"/><line x1="213.21" y1="138.47" x2="213.21" y2="135.26"/><line x1="213.21" y1="135.26" x2="206.79" y2="135.26"/><line x1="213.21" y1="96.71" x2="206.79" y2="96.71"/><line x1="206.79" y1="96.71" x2="206.79" y2="103.13"/><line x1="206.79" y1="103.13" x2="213.21" y2="103.13"/><line x1="213.21" y1="103.13" x2="213.21" y2="96.71"/><line x1="206.79" y1="128.83" x2="213.21" y2="128.83"/><line x1="213.21" y1="128.83" x2="213.21" y2="122.41"/><line x1="213.21" y1="122.41" x2="206.79" y2="122.41"/><line x1="206.79" y1="122.41" x2="206.79" y2="128.83"/><line x1="221.24" y1="138.47" x2="221.24" y2="141.69"/><line x1="214.82" y1="141.69" x2="214.82" y2="138.47"/><line x1="214.82" y1="138.47" x2="213.21" y2="138.47"/><line x1="221.24" y1="141.69" x2="222.85" y2="141.69"/><line x1="206.79" y1="141.69" x2="213.21" y2="141.69"/><line x1="213.21" y1="141.69" x2="214.82" y2="141.69"/><line x1="264.61" y1="90.28" x2="267.83" y2="90.28"/><line x1="263.81" y1="90.28" x2="264.61" y2="90.28"/><line x1="267.83" y1="89.48" x2="264.61" y2="89.48"/><line x1="264.61" y1="89.48" x2="263.81" y2="89.48"/><line x1="263.81" y1="89.48" x2="263.81" y2="90.28"/><line x1="267.83" y1="90.28" x2="271.04" y2="90.28"/><line x1="263.81" y1="55.75" x2="264.61" y2="55.75"/><line x1="264.61" y1="55.75" x2="267.83" y2="55.75"/><line x1="263.81" y1="51.73" x2="263.81" y2="54.94"/><line x1="263.81" y1="54.94" x2="263.81" y2="55.75"/><line x1="267.83" y1="58.16" x2="269.43" y2="61.37"/><line x1="269.43" y1="61.37" x2="269.43" y2="62.17"/><line x1="269.43" y1="71.01" x2="271.04" y2="74.22"/><line x1="267.83" y1="87.07" x2="267.83" y2="89.48"/><line x1="266.22" y1="80.65" x2="266.22" y2="83.86"/><line x1="269.43" y1="79.04" x2="266.22" y2="80.65"/><line x1="271.04" y1="77.43" x2="269.43" y2="79.04"/><line x1="270.24" y1="62.17" x2="270.24" y2="62.98"/><line x1="270.24" y1="70.2" x2="269.43" y2="70.2"/><line x1="269.43" y1="62.17" x2="270.24" y2="62.17"/><line x1="269.43" y1="70.2" x2="269.43" y2="71.01"/><line x1="271.04" y1="62.98" x2="271.04" y2="69.4"/><line x1="271.04" y1="69.4" x2="270.24" y2="69.4"/><line x1="270.24" y1="62.98" x2="271.04" y2="62.98"/><line x1="270.24" y1="69.4" x2="270.24" y2="70.2"/><line x1="271.04" y1="90.28" x2="274.25" y2="90.28"/><line x1="274.25" y1="106.35" x2="271.04" y2="106.35"/><line x1="274.25" y1="90.28" x2="277.46" y2="98.31"/><line x1="277.46" y1="98.31" x2="274.25" y2="106.35"/><line x1="271.04" y1="74.22" x2="271.84" y2="74.22"/><line x1="271.84" y1="77.43" x2="271.04" y2="77.43"/><line x1="266.22" y1="83.86" x2="267.02" y2="83.46"/><line x1="271.04" y1="86.27" x2="268.63" y2="86.67"/><line x1="268.63" y1="86.67" x2="267.83" y2="87.07"/><line x1="267.02" y1="83.46" x2="269.43" y2="83.06"/><line x1="271.84" y1="83.06" x2="274.25" y2="81.45"/><line x1="274.25" y1="81.45" x2="275.86" y2="79.04"/><line x1="275.86" y1="79.04" x2="276.66" y2="78.24"/><line x1="276.66" y1="78.24" x2="277.46" y2="76.63"/><line x1="277.46" y1="76.63" x2="276.66" y2="75.83"/><line x1="276.66" y1="75.83" x2="275.86" y2="75.83"/><line x1="275.86" y1="75.83" x2="275.06" y2="76.63"/><line x1="275.06" y1="76.63" x2="273.45" y2="77.43"/><line x1="273.45" y1="77.43" x2="271.84" y2="77.43"/><line x1="271.84" y1="74.22" x2="275.06" y2="72.61"/><line x1="275.06" y1="72.61" x2="279.07" y2="72.61"/><line x1="279.07" y1="72.61" x2="282.28" y2="74.22"/><line x1="282.28" y1="74.22" x2="283.89" y2="77.43"/><line x1="283.89" y1="77.43" x2="285.5" y2="79.04"/><line x1="285.5" y1="79.04" x2="287.1" y2="82.25"/><line x1="287.1" y1="82.25" x2="287.1" y2="85.46"/><line x1="287.1" y1="85.46" x2="285.5" y2="87.07"/><line x1="285.5" y1="87.07" x2="282.28" y2="87.07"/><line x1="282.28" y1="87.07" x2="279.07" y2="85.46"/><line x1="279.07" y1="85.46" x2="275.86" y2="85.46"/><line x1="275.86" y1="85.46" x2="274.25" y2="86.27"/><line x1="274.25" y1="86.27" x2="271.04" y2="86.27"/><line x1="269.43" y1="83.06" x2="271.84" y2="83.06"/><line x1="229.28" y1="51.73" x2="232.49" y2="48.52"/><line x1="251.76" y1="51.73" x2="253.37" y2="51.73"/><line x1="232.49" y1="48.52" x2="235.7" y2="48.52"/><line x1="248.55" y1="48.52" x2="251.76" y2="51.73"/><line x1="221.24" y1="51.73" x2="222.85" y2="51.73"/><line x1="222.85" y1="51.73" x2="226.06" y2="51.73"/><line x1="227.67" y1="51.73" x2="229.28" y2="51.73"/><line x1="226.06" y1="51.73" x2="227.67" y2="51.73"/><line x1="253.37" y1="51.73" x2="254.98" y2="51.73"/><line x1="254.98" y1="51.73" x2="258.19" y2="51.73"/><line x1="258.19" y1="51.73" x2="259.8" y2="51.73"/><line x1="259.8" y1="51.73" x2="263.81" y2="51.73"/><line x1="245.34" y1="48.52" x2="248.55" y2="48.52"/><line x1="245.34" y1="46.91" x2="245.34" y2="48.52"/><line x1="235.7" y1="46.91" x2="229.28" y2="46.91"/><line x1="229.28" y1="46.91" x2="226.06" y2="43.7"/><line x1="226.06" y1="43.7" x2="216.43" y2="43.7"/><line x1="216.43" y1="43.7" x2="213.21" y2="41.29"/><line x1="213.21" y1="41.29" x2="213.21" y2="32.46"/><line x1="213.21" y1="32.46" x2="216.43" y2="29.24"/><line x1="216.43" y1="29.24" x2="221.24" y2="29.24"/><line x1="221.24" y1="29.24" x2="222.85" y2="27.64"/><line x1="222.85" y1="27.64" x2="227.67" y2="27.64"/><line x1="227.67" y1="27.64" x2="229.28" y2="26.03"/><line x1="229.28" y1="26.03" x2="230.88" y2="26.03"/><line x1="248.55" y1="43.7" x2="248.55" y2="45.31"/><line x1="248.55" y1="45.31" x2="246.94" y2="45.31"/><line x1="246.94" y1="45.31" x2="245.34" y2="46.91"/><line x1="235.7" y1="48.52" x2="235.7" y2="46.91"/><line x1="184.3" y1="77.43" x2="181.09" y2="80.65"/><line x1="181.09" y1="80.65" x2="181.09" y2="83.86"/><line x1="181.09" y1="83.86" x2="184.3" y2="87.07"/><line x1="184.3" y1="87.07" x2="192.33" y2="87.07"/><line x1="181.09" y1="64.58" x2="184.3" y2="67.8"/><line x1="192.33" y1="87.07" x2="193.94" y2="88.68"/><line x1="197.15" y1="87.87" x2="197.95" y2="87.07"/><line x1="193.94" y1="90.28" x2="197.15" y2="90.28"/><line x1="197.95" y1="87.07" x2="206.79" y2="87.07"/><line x1="197.15" y1="119.2" x2="193.94" y2="119.2"/><line x1="193.94" y1="119.2" x2="193.94" y2="120.8"/><line x1="192.33" y1="122.41" x2="174.66" y2="122.41"/><line x1="197.95" y1="122.41" x2="197.15" y2="121.61"/><line x1="193.94" y1="88.68" x2="193.94" y2="90.28"/><line x1="193.94" y1="120.8" x2="192.33" y2="122.41"/><line x1="161.81" y1="124.42" x2="161.81" y2="123.61"/><line x1="161.81" y1="123.61" x2="161.81" y2="122.41"/><line x1="174.66" y1="123.61" x2="174.66" y2="124.42"/><line x1="174.66" y1="124.42" x2="174.66" y2="125.62"/><line x1="155.39" y1="77.43" x2="152.17" y2="80.65"/><line x1="152.17" y1="80.65" x2="152.17" y2="103.13"/><line x1="152.17" y1="106.35" x2="155.39" y2="109.56"/><line x1="155.39" y1="109.56" x2="158.6" y2="109.56"/><line x1="158.6" y1="109.56" x2="161.81" y2="106.35"/><line x1="161.81" y1="106.35" x2="161.81" y2="103.13"/><line x1="161.81" y1="80.65" x2="158.6" y2="77.43"/><line x1="158.6" y1="64.58" x2="181.09" y2="64.58"/><line x1="152.17" y1="103.13" x2="152.17" y2="106.35"/><line x1="139.32" y1="106.35" x2="139.32" y2="103.13"/><line x1="139.32" y1="103.13" x2="139.32" y2="64.58"/><line x1="155.39" y1="64.58" x2="158.6" y2="64.58"/><line x1="158.6" y1="77.43" x2="155.39" y2="77.43"/><line x1="187.51" y1="103.13" x2="184.3" y2="99.92"/><line x1="184.3" y1="99.92" x2="181.09" y2="99.92"/><line x1="181.09" y1="99.92" x2="177.87" y2="103.13"/><line x1="177.87" y1="103.13" x2="177.87" y2="112.77"/><line x1="177.87" y1="112.77" x2="181.09" y2="115.98"/><line x1="181.09" y1="115.98" x2="184.3" y2="115.98"/><line x1="184.3" y1="115.98" x2="187.51" y2="112.77"/><line x1="187.51" y1="112.77" x2="187.51" y2="109.56"/><line x1="184.3" y1="106.35" x2="187.51" y2="106.35"/><line x1="187.51" y1="109.56" x2="184.3" y2="109.56"/><line x1="184.3" y1="109.56" x2="184.3" y2="108.76"/><line x1="187.51" y1="106.35" x2="187.51" y2="103.13"/><line x1="161.81" y1="103.13" x2="161.81" y2="96.71"/><line x1="161.81" y1="96.71" x2="161.81" y2="80.65"/><line x1="212.41" y1="85.46" x2="201.97" y2="85.46"/><line x1="213.21" y1="84.66" x2="212.41" y2="85.46"/><line x1="200.36" y1="80.65" x2="197.15" y2="77.43"/><line x1="200.36" y1="83.86" x2="200.36" y2="80.65"/><line x1="201.97" y1="85.46" x2="200.36" y2="83.86"/></g><g opacity="0.95"><circle cx="246.94" cy="104.74" r="3.2" fill="#b7493c"/><circle cx="263.01" cy="135.26" r="2.2" fill="#d3b15b"/><circle cx="221.24" cy="136.87" r="2.2" fill="#d3b15b"/><circle cx="147.35" cy="132.05" r="2.2" fill="#d3b15b"/><circle cx="140.93" cy="120.8" r="2.2" fill="#d3b15b"/><circle cx="246.94" cy="189.07" r="3.2" fill="#b7493c"/><circle cx="241.32" cy="36.47" r="2.2" fill="#d3b15b"/><circle cx="176.27" cy="172.2" r="2.2" fill="#d3b15b"/><circle cx="221.24" cy="172.2" r="2.2" fill="#d3b15b"/><circle cx="147.35" cy="172.2" r="2.2" fill="#d3b15b"/><circle cx="221.24" cy="88.68" r="2.2" fill="#d3b15b"/><circle cx="176.27" cy="168.99" r="2.2" fill="#d3b15b"/><circle cx="238.91" cy="36.47" r="2.2" fill="#d3b15b"/><circle cx="205.18" cy="87.87" r="3.2" fill="#b7493c"/><circle cx="146.55" cy="132.05" r="3.2" fill="#b7493c"/><circle cx="144.14" cy="98.31" r="2.2" fill="#d3b15b"/><circle cx="244.94" cy="116.39" r="3.2" fill="#b7493c"/><circle cx="226.87" cy="136.87" r="2.2" fill="#d3b15b"/><circle cx="218.03" cy="53.34" r="2.2" fill="#d3b15b"/><circle cx="164.22" cy="105.54" r="2.2" fill="#d3b15b"/><circle cx="232.49" cy="18.8" r="2.2" fill="#d3b15b"/><circle cx="176.27" cy="165.78" r="2.2" fill="#d3b15b"/><circle cx="176.27" cy="143.29" r="2.2" fill="#d3b15b"/><circle cx="176.27" cy="149.72" r="2.2" fill="#d3b15b"/><circle cx="168.24" cy="95.1" r="2.2" fill="#d3b15b"/><circle cx="263.01" cy="130.44" r="2.2" fill="#d3b15b"/><circle cx="244.94" cy="115.98" r="2.2" fill="#d3b15b"/><circle cx="222.05" cy="142.49" r="2.2" fill="#d3b15b"/><circle cx="243.73" cy="36.47" r="2.2" fill="#d3b15b"/><circle cx="210" cy="112.77" r="2.2" fill="#d3b15b"/><circle cx="163.42" cy="98.31" r="2.2" fill="#d3b15b"/><circle cx="205.18" cy="88.68" r="2.2" fill="#d3b15b"/><circle cx="284.69" cy="84.66" r="2.2" fill="#d3b15b"/><circle cx="176.27" cy="146.5" r="2.2" fill="#d3b15b"/><circle cx="236.5" cy="36.47" r="2.2" fill="#d3b15b"/><circle cx="205.18" cy="136.87" r="2.2" fill="#d3b15b"/><circle cx="259.8" cy="135.26" r="2.2" fill="#d3b15b"/><circle cx="255.38" cy="120.4" r="2.2" fill="#d3b15b"/><circle cx="255.38" cy="135.66" r="2.2" fill="#d3b15b"/><circle cx="248.55" cy="128.83" r="2.2" fill="#d3b15b"/><circle cx="251.76" cy="128.83" r="2.2" fill="#d3b15b"/><circle cx="244.94" cy="135.66" r="3.2" fill="#b7493c"/><circle cx="275.66" cy="115.38" r="2.2" fill="#d3b15b"/><circle cx="273.25" cy="115.38" r="2.2" fill="#d3b15b"/><circle cx="275.66" cy="119.8" r="2.2" fill="#d3b15b"/><circle cx="273.25" cy="119.8" r="2.2" fill="#d3b15b"/><circle cx="274.45" cy="117.59" r="2.2" fill="#d3b15b"/><circle cx="179.48" cy="157.75" r="2.2" fill="#d3b15b"/><circle cx="184.3" cy="154.54" r="2.2" fill="#d3b15b"/><circle cx="184.3" cy="160.96" r="2.2" fill="#d3b15b"/><circle cx="174.66" cy="160.96" r="2.2" fill="#d3b15b"/><circle cx="174.66" cy="154.54" r="2.2" fill="#d3b15b"/><circle cx="184.3" cy="168.99" r="2.2" fill="#d3b15b"/><circle cx="184.3" cy="146.5" r="2.2" fill="#d3b15b"/><circle cx="229.28" cy="21.21" r="2.2" fill="#d3b15b"/><circle cx="253.37" cy="45.31" r="2.2" fill="#d3b15b"/><circle cx="228.47" cy="21.21" r="3.2" fill="#b7493c"/><circle cx="254.98" cy="19.61" r="2.2" fill="#d3b15b"/><circle cx="219.64" cy="34.06" r="2.2" fill="#d3b15b"/><circle cx="219.64" cy="38.88" r="2.2" fill="#d3b15b"/><circle cx="224.46" cy="36.47" r="2.2" fill="#d3b15b"/><circle cx="226.87" cy="36.47" r="2.2" fill="#d3b15b"/><circle cx="229.28" cy="36.47" r="2.2" fill="#d3b15b"/><circle cx="231.69" cy="36.47" r="2.2" fill="#d3b15b"/><circle cx="234.09" cy="36.47" r="2.2" fill="#d3b15b"/><circle cx="219.64" cy="36.47" r="2.2" fill="#d3b15b"/><circle cx="255.78" cy="43.7" r="2.2" fill="#d3b15b"/><circle cx="262.2" cy="53.34" r="2.2" fill="#d3b15b"/><circle cx="248.15" cy="49.72" r="2.2" fill="#d3b15b"/><circle cx="249.76" cy="51.33" r="2.2" fill="#d3b15b"/><circle cx="232.89" cy="49.72" r="2.2" fill="#d3b15b"/><circle cx="231.28" cy="51.33" r="2.2" fill="#d3b15b"/><circle cx="266.22" cy="104.74" r="2.2" fill="#d3b15b"/><circle cx="218.03" cy="82.25" r="2.2" fill="#d3b15b"/><circle cx="266.62" cy="105.14" r="3.2" fill="#b7493c"/><circle cx="210" cy="142.89" r="3.2" fill="#b7493c"/><circle cx="210" cy="143.29" r="2.2" fill="#d3b15b"/><circle cx="147.35" cy="143.29" r="2.2" fill="#d3b15b"/><circle cx="179.48" cy="66.19" r="2.2" fill="#d3b15b"/><circle cx="191.53" cy="120" r="2.2" fill="#d3b15b"/></g></svg>