<svg xmlns="http://www.w3.org/2000/svg" viewBox="0 0 420 240" role="img"><rect width="100%" height="100%" fill="#070706"/><g stroke="#5e5a4f" stroke-width="1.6" stroke-linecap="round"><line x1="213.67" y1="106.06" x2="190.19" y2="106.06"/><line x1="210.73" y1="170.63" x2="193.12" y2="170.63"/><line x1="200.46" y1="172.1" x2="194.59" y2="172.1"/><line x1="200.46" y1="175.04" x2="200.46" y2="172.1"/><line x1="194.59" y1="175.04" x2="200.46" y2="175.04"/><line x1="194.59" y1="172.1" x2="194.59" y2="175.04"/><line x1="203.4" y1="175.04" x2="209.27" y2="175.04"/><line x1="203.4" y1="172.1" x2="203.4" y2="175.04"/><line x1="209.27" y1="172.1" x2="203.4" y2="172.1"/><line x1="209.27" y1="175.04" x2="209.27" y2="172.1"/><line x1="154.96" y1="129.54" x2="166.71" y2="129.54"/><line x1="190.19" y1="170.63" x2="190.19" y2="111.93"/><line x1="213.67" y1="111.93" x2="213.67" y2="170.63"/><line x1="216.6" y1="141.28" x2="216.6" y2="111.93"/><line x1="245.96" y1="120.73" x2="228.35" y2="120.73"/><line x1="228.35" y1="120.73" x2="228.35" y2="129.54"/><line x1="228.35" y1="129.54" x2="245.96" y2="129.54"/><line x1="248.89" y1="147.15" x2="216.6" y2="147.15"/><line x1="225.41" y1="111.93" x2="237.15" y2="111.93"/><line x1="216.6" y1="147.15" x2="216.6" y2="141.28"/><line x1="216.6" y1="150.09" x2="216.6" y2="147.15"/><line x1="228.35" y1="158.89" x2="216.6" y2="158.89"/><line x1="216.6" y1="170.63" x2="216.6" y2="158.89"/><line x1="228.35" y1="170.63" x2="228.35" y2="158.89"/><line x1="218.07" y1="169.17" x2="218.07" y2="160.36"/><line x1="226.88" y1="169.17" x2="218.07" y2="169.17"/><line x1="226.88" y1="160.36" x2="226.88" y2="169.17"/><line x1="218.07" y1="160.36" x2="226.88" y2="160.36"/><line x1="190.19" y1="106.06" x2="190.19" y2="94.32"/><line x1="178.45" y1="106.06" x2="166.71" y2="106.06"/><line x1="187.25" y1="111.93" x2="187.25" y2="170.63"/><line x1="154.96" y1="158.89" x2="154.96" y2="170.63"/><line x1="172.58" y1="158.89" x2="166.71" y2="158.89"/><line x1="184.32" y1="170.63" x2="181.38" y2="170.63"/><line x1="154.96" y1="129.54" x2="154.96" y2="111.93"/><line x1="149.09" y1="147.15" x2="154.96" y2="147.15"/><line x1="166.71" y1="129.54" x2="178.45" y2="129.54"/><line x1="137.35" y1="147.15" x2="149.09" y2="147.15"/><line x1="178.45" y1="129.54" x2="178.45" y2="111.93"/><line x1="166.71" y1="129.54" x2="166.71" y2="111.93"/><line x1="156.43" y1="113.4" x2="165.24" y2="113.4"/><line x1="165.24" y1="113.4" x2="165.24" y2="128.07"/><line x1="165.24" y1="128.07" x2="156.43" y2="128.07"/><line x1="156.43" y1="128.07" x2="156.43" y2="113.4"/><line x1="168.17" y1="113.4" x2="176.98" y2="113.4"/><line x1="176.98" y1="113.4" x2="176.98" y2="128.07"/><line x1="176.98" y1="128.07" x2="168.17" y2="128.07"/><line x1="168.17" y1="128.07" x2="168.17" y2="113.4"/><line x1="138.82" y1="148.62" x2="147.63" y2="148.62"/><line x1="147.63" y1="148.62" x2="147.63" y2="157.42"/><line x1="147.63" y1="157.42" x2="138.82" y2="157.42"/><line x1="138.82" y1="157.42" x2="138.82" y2="148.62"/><line x1="149.09" y1="147.15" x2="149.09" y2="158.89"/><line x1="166.71" y1="158.89" x2="160.83" y2="158.89"/><line x1="154.96" y1="147.15" x2="154.96" y2="129.54"/><line x1="154.96" y1="147.15" x2="154.96" y2="158.89"/><line x1="160.83" y1="158.89" x2="160.83" y2="170.63"/><line x1="172.58" y1="170.63" x2="166.71" y2="170.63"/><line x1="149.09" y1="158.89" x2="137.35" y2="158.89"/><line x1="166.71" y1="170.63" x2="160.83" y2="170.63"/><line x1="137.35" y1="170.63" x2="137.35" y2="158.89"/><line x1="172.58" y1="170.63" x2="172.58" y2="158.89"/><line x1="160.83" y1="158.89" x2="154.96" y2="158.89"/><line x1="149.09" y1="170.63" x2="137.35" y2="170.63"/><line x1="166.71" y1="158.89" x2="166.71" y2="170.63"/><line x1="154.96" y1="158.89" x2="149.09" y2="158.89"/><line x1="154.96" y1="170.63" x2="149.09" y2="170.63"/><line x1="149.09" y1="158.89" x2="149.09" y2="170.63"/><line x1="160.83" y1="170.63" x2="154.96" y2="170.63"/><line x1="152.03" y1="111.93" x2="152.03" y2="144.22"/><line x1="152.03" y1="144.22" x2="137.35" y2="144.22"/><line x1="137.35" y1="158.89" x2="137.35" y2="147.15"/><line x1="166.71" y1="111.93" x2="178.45" y2="111.93"/><line x1="143.22" y1="117.8" x2="143.22" y2="111.93"/><line x1="137.35" y1="117.8" x2="143.22" y2="117.8"/><line x1="152.03" y1="94.32" x2="152.03" y2="106.06"/><line x1="154.96" y1="106.06" x2="152.03" y2="106.06"/><line x1="154.96" y1="106.06" x2="154.96" y2="94.32"/><line x1="152.03" y1="106.06" x2="143.22" y2="106.06"/><line x1="152.03" y1="106.06" x2="152.03" y2="111.93"/><line x1="143.22" y1="111.93" x2="152.03" y2="111.93"/><line x1="152.03" y1="111.93" x2="154.96" y2="111.93"/><line x1="281.18" y1="123.67" x2="281.18" y2="117.8"/><line x1="154.96" y1="94.32" x2="166.71" y2="94.32"/><line x1="213.67" y1="94.32" x2="213.67" y2="106.06"/><line x1="190.19" y1="111.93" x2="213.67" y2="111.93"/><line x1="225.41" y1="94.32" x2="225.41" y2="106.06"/><line x1="219.54" y1="94.32" x2="219.54" y2="106.06"/><line x1="248.89" y1="141.28" x2="216.6" y2="141.28"/><line x1="237.15" y1="106.06" x2="225.41" y2="106.06"/><line x1="278.24" y1="88.45" x2="272.37" y2="88.45"/><line x1="219.54" y1="88.45" x2="219.54" y2="82.58"/><line x1="306.13" y1="104.59" x2="285.58" y2="104.59"/><line x1="166.71" y1="88.45" x2="166.71" y2="53.22"/><line x1="169.64" y1="88.45" x2="169.64" y2="53.22"/><line x1="172.58" y1="53.22" x2="254.76" y2="53.22"/><line x1="260.63" y1="158.89" x2="260.63" y2="147.15"/><line x1="272.37" y1="147.15" x2="272.37" y2="158.89"/><line x1="272.37" y1="158.89" x2="260.63" y2="158.89"/><line x1="254.76" y1="85.51" x2="260.63" y2="82.58"/><line x1="262.1" y1="56.16" x2="275.31" y2="69.37"/><line x1="254.76" y1="88.45" x2="254.76" y2="85.51"/><line x1="248.89" y1="88.45" x2="248.89" y2="81.11"/><line x1="248.89" y1="81.11" x2="256.23" y2="76.71"/><line x1="256.23" y1="76.71" x2="278.24" y2="76.71"/><line x1="278.24" y1="76.71" x2="278.24" y2="82.58"/><line x1="260.63" y1="82.58" x2="278.24" y2="82.58"/><line x1="260.63" y1="117.8" x2="272.37" y2="117.8"/><line x1="260.63" y1="147.15" x2="272.37" y2="147.15"/><line x1="272.37" y1="141.28" x2="260.63" y2="141.28"/><line x1="272.37" y1="111.93" x2="260.63" y2="111.93"/><line x1="219.54" y1="82.58" x2="184.32" y2="82.58"/><line x1="184.32" y1="82.58" x2="184.32" y2="88.45"/><line x1="213.67" y1="88.45" x2="190.19" y2="88.45"/><line x1="225.41" y1="88.45" x2="225.41" y2="76.71"/><line x1="225.41" y1="76.71" x2="178.45" y2="76.71"/><line x1="178.45" y1="76.71" x2="178.45" y2="88.45"/><line x1="178.45" y1="47.35" x2="190.19" y2="47.35"/><line x1="237.15" y1="47.35" x2="248.89" y2="47.35"/><line x1="201.93" y1="47.35" x2="225.41" y2="47.35"/><line x1="235.68" y1="128.07" x2="245.96" y2="128.07"/><line x1="245.96" y1="122.2" x2="245.96" y2="128.07"/><line x1="245.96" y1="122.2" x2="235.68" y2="122.2"/><line x1="190.19" y1="94.32" x2="213.67" y2="94.32"/><line x1="275.31" y1="147.15" x2="275.31" y2="161.83"/><line x1="275.31" y1="161.83" x2="257.7" y2="161.83"/><line x1="257.7" y1="161.83" x2="257.7" y2="150.09"/><line x1="257.7" y1="150.09" x2="216.6" y2="150.09"/><line x1="216.6" y1="158.89" x2="216.6" y2="150.09"/><line x1="260.63" y1="135.41" x2="272.37" y2="135.41"/><line x1="260.63" y1="129.54" x2="272.37" y2="129.54"/><line x1="181.38" y1="176.5" x2="184.32" y2="176.5"/><line x1="131.48" y1="126.6" x2="131.48" y2="176.5"/><line x1="137.35" y1="144.22" x2="137.35" y2="126.6"/><line x1="137.35" y1="147.15" x2="137.35" y2="144.22"/><line x1="132.95" y1="141.28" x2="132.95" y2="147.15"/><line x1="132.95" y1="147.15" x2="135.88" y2="147.15"/><line x1="135.88" y1="147.15" x2="135.88" y2="141.28"/><line x1="135.88" y1="141.28" x2="132.95" y2="141.28"/><line x1="132.95" y1="153.02" x2="132.95" y2="158.89"/><line x1="132.95" y1="158.89" x2="135.88" y2="158.89"/><line x1="135.88" y1="158.89" x2="135.88" y2="153.02"/><line x1="135.88" y1="153.02" x2="132.95" y2="153.02"/><line x1="132.95" y1="164.76" x2="132.95" y2="170.63"/><line x1="132.95" y1="170.63" x2="135.88" y2="170.63"/><line x1="135.88" y1="170.63" x2="135.88" y2="164.76"/><line x1="135.88" y1="164.76" x2="132.95" y2="164.76"/><line x1="137.35" y1="175.04" x2="143.22" y2="175.04"/><line x1="143.22" y1="175.04" x2="143.22" y2="172.1"/><line x1="143.22" y1="172.1" x2="137.35" y2="172.1"/><line x1="137.35" y1="172.1" x2="137.35" y2="175.04"/><line x1="131.48" y1="126.6" x2="137.35" y2="126.6"/><line x1="131.48" y1="176.5" x2="181.38" y2="176.5"/><line x1="137.35" y1="126.6" x2="137.35" y2="123.67"/><line x1="181.38" y1="170.63" x2="181.38" y2="176.5"/><line x1="181.38" y1="170.63" x2="172.58" y2="170.63"/><line x1="131.48" y1="123.67" x2="131.48" y2="126.6"/><line x1="149.09" y1="172.1" x2="149.09" y2="175.04"/><line x1="149.09" y1="175.04" x2="154.96" y2="175.04"/><line x1="154.96" y1="175.04" x2="154.96" y2="172.1"/><line x1="154.96" y1="172.1" x2="149.09" y2="172.1"/><line x1="160.83" y1="172.1" x2="160.83" y2="175.04"/><line x1="160.83" y1="175.04" x2="166.71" y2="175.04"/><line x1="166.71" y1="175.04" x2="166.71" y2="172.1"/><line x1="166.71" y1="172.1" x2="160.83" y2="172.1"/><line x1="272.37" y1="53.22" x2="278.24" y2="59.09"/><line x1="267.97" y1="37.08" x2="281.18" y2="44.42"/><line x1="248.89" y1="44.42" x2="237.15" y2="44.42"/><line x1="190.19" y1="44.42" x2="178.45" y2="44.42"/><line x1="240.09" y1="20.94" x2="254.76" y2="20.94"/><line x1="172.58" y1="20.94" x2="187.25" y2="20.94"/><line x1="146.16" y1="44.42" x2="159.37" y2="37.08"/><line x1="203.4" y1="29.74" x2="223.94" y2="29.74"/><line x1="257.7" y1="26.81" x2="257.7" y2="44.42"/><line x1="257.7" y1="26.81" x2="213.67" y2="32.68"/><line x1="172.58" y1="26.81" x2="187.25" y2="26.81"/><line x1="240.09" y1="26.81" x2="254.76" y2="26.81"/><line x1="159.37" y1="37.08" x2="169.64" y2="26.81"/><line x1="243.02" y1="173.57" x2="281.18" y2="173.57"/><line x1="225.41" y1="44.42" x2="201.93" y2="44.42"/><line x1="169.64" y1="26.81" x2="169.64" y2="44.42"/><line x1="285.58" y1="95.78" x2="306.13" y2="95.78"/><line x1="284.12" y1="111.93" x2="307.6" y2="111.93"/><line x1="281.18" y1="129.54" x2="307.6" y2="129.54"/><line x1="281.18" y1="123.67" x2="275.31" y2="123.67"/><line x1="284.12" y1="114.86" x2="307.6" y2="114.86"/><line x1="278.24" y1="94.32" x2="278.24" y2="106.06"/><line x1="284.12" y1="106.06" x2="307.6" y2="106.06"/><line x1="285.58" y1="104.59" x2="285.58" y2="95.78"/><line x1="306.13" y1="95.78" x2="306.13" y2="104.59"/><line x1="257.7" y1="26.81" x2="267.97" y2="37.08"/><line x1="284.12" y1="117.8" x2="307.6" y2="117.8"/><line x1="213.67" y1="32.68" x2="169.64" y2="26.81"/><line x1="254.76" y1="106.06" x2="254.76" y2="94.32"/><line x1="284.12" y1="106.06" x2="284.12" y2="94.32"/><line x1="278.24" y1="82.58" x2="278.24" y2="88.45"/><line x1="243.02" y1="176.5" x2="243.02" y2="199.99"/><line x1="243.02" y1="176.5" x2="284.12" y2="176.5"/><line x1="278.24" y1="170.63" x2="243.02" y2="170.63"/><line x1="278.24" y1="158.89" x2="278.24" y2="170.63"/><line x1="275.31" y1="129.54" x2="281.18" y2="129.54"/><line x1="272.37" y1="88.45" x2="272.37" y2="111.93"/><line x1="281.18" y1="135.41" x2="281.18" y2="129.54"/><line x1="285.58" y1="110.46" x2="285.58" y2="107.53"/><line x1="281.18" y1="129.54" x2="281.18" y2="123.67"/><line x1="306.13" y1="107.53" x2="306.13" y2="110.46"/><line x1="279.71" y1="95.78" x2="282.65" y2="95.78"/><line x1="282.65" y1="95.78" x2="282.65" y2="104.59"/><line x1="282.65" y1="104.59" x2="279.71" y2="104.59"/><line x1="306.13" y1="110.46" x2="285.58" y2="110.46"/><line x1="279.71" y1="104.59" x2="279.71" y2="95.78"/><line x1="285.58" y1="107.53" x2="306.13" y2="107.53"/><line x1="210.73" y1="176.5" x2="193.12" y2="176.5"/><line x1="193.12" y1="199.99" x2="193.12" y2="176.5"/><line x1="210.73" y1="199.99" x2="193.12" y2="199.99"/><line x1="216.6" y1="176.5" x2="216.6" y2="199.99"/><line x1="213.67" y1="176.5" x2="213.67" y2="199.99"/><line x1="284.12" y1="176.5" x2="284.12" y2="158.89"/><line x1="243.02" y1="202.92" x2="238.62" y2="202.92"/><line x1="221.01" y1="202.92" x2="216.6" y2="202.92"/><line x1="243.02" y1="199.99" x2="238.62" y2="199.99"/><line x1="226.88" y1="205.86" x2="226.88" y2="202.92"/><line x1="226.88" y1="202.92" x2="226.88" y2="199.99"/><line x1="226.88" y1="199.99" x2="226.88" y2="176.5"/><line x1="221.01" y1="176.5" x2="221.01" y2="199.99"/><line x1="221.01" y1="199.99" x2="221.01" y2="202.92"/><line x1="221.01" y1="202.92" x2="221.01" y2="205.86"/><line x1="226.88" y1="202.92" x2="221.01" y2="202.92"/><line x1="226.88" y1="199.99" x2="221.01" y2="199.99"/><line x1="221.01" y1="199.99" x2="216.6" y2="199.99"/><line x1="238.62" y1="205.86" x2="238.62" y2="202.92"/><line x1="238.62" y1="202.92" x2="238.62" y2="199.99"/><line x1="238.62" y1="199.99" x2="238.62" y2="176.5"/><line x1="232.75" y1="176.5" x2="232.75" y2="199.99"/><line x1="232.75" y1="199.99" x2="232.75" y2="202.92"/><line x1="232.75" y1="202.92" x2="232.75" y2="205.86"/><line x1="232.75" y1="202.92" x2="226.88" y2="202.92"/><line x1="238.62" y1="199.99" x2="232.75" y2="199.99"/><line x1="238.62" y1="202.92" x2="232.75" y2="202.92"/><line x1="232.75" y1="199.99" x2="226.88" y2="199.99"/><line x1="278.24" y1="202.92" x2="272.37" y2="202.92"/><line x1="278.24" y1="208.79" x2="272.37" y2="208.79"/><line x1="254.76" y1="211.73" x2="260.63" y2="211.73"/><line x1="260.63" y1="211.73" x2="260.63" y2="208.79"/><line x1="260.63" y1="208.79" x2="260.63" y2="202.92"/><line x1="266.5" y1="199.99" x2="266.5" y2="197.05"/><line x1="260.63" y1="199.99" x2="254.76" y2="199.99"/><line x1="254.76" y1="199.99" x2="254.76" y2="202.92"/><line x1="254.76" y1="202.92" x2="254.76" y2="208.79"/><line x1="254.76" y1="208.79" x2="254.76" y2="211.73"/><line x1="254.76" y1="202.92" x2="248.89" y2="202.92"/><line x1="266.5" y1="208.79" x2="260.63" y2="208.79"/><line x1="254.76" y1="208.79" x2="248.89" y2="208.79"/><line x1="266.5" y1="199.99" x2="266.5" y2="202.92"/><line x1="266.5" y1="211.73" x2="272.37" y2="211.73"/><line x1="272.37" y1="211.73" x2="272.37" y2="208.79"/><line x1="272.37" y1="208.79" x2="272.37" y2="202.92"/><line x1="272.37" y1="202.92" x2="272.37" y2="199.99"/><line x1="272.37" y1="199.99" x2="266.5" y2="199.99"/><line x1="266.5" y1="202.92" x2="260.63" y2="202.92"/><line x1="266.5" y1="202.92" x2="266.5" y2="208.79"/><line x1="266.5" y1="208.79" x2="266.5" y2="211.73"/><line x1="266.5" y1="197.05" x2="260.63" y2="197.05"/><line x1="260.63" y1="197.05" x2="260.63" y2="199.99"/><line x1="260.63" y1="202.92" x2="260.63" y2="199.99"/><line x1="304.66" y1="177.97" x2="285.58" y2="197.05"/><line x1="307.6" y1="173.57" x2="301.73" y2="176.5"/><line x1="301.73" y1="176.5" x2="284.12" y2="194.12"/><line x1="284.12" y1="194.12" x2="281.18" y2="199.99"/><line x1="297.32" y1="189.71" x2="297.32" y2="198.52"/><line x1="297.32" y1="198.52" x2="306.13" y2="198.52"/><line x1="306.13" y1="198.52" x2="306.13" y2="189.71"/><line x1="306.13" y1="189.71" x2="297.32" y2="189.71"/><line x1="298.79" y1="191.18" x2="298.79" y2="197.05"/><line x1="298.79" y1="197.05" x2="304.66" y2="197.05"/><line x1="304.66" y1="197.05" x2="304.66" y2="191.18"/><line x1="304.66" y1="191.18" x2="298.79" y2="191.18"/><line x1="304.66" y1="153.02" x2="304.66" y2="158.89"/><line x1="304.66" y1="158.89" x2="307.6" y2="158.89"/><line x1="310.53" y1="158.89" x2="307.6" y2="158.89"/><line x1="322.27" y1="141.28" x2="322.27" y2="170.63"/><line x1="278.24" y1="214.66" x2="248.89" y2="214.66"/><line x1="310.53" y1="141.28" x2="310.53" y2="147.15"/><line x1="316.4" y1="141.28" x2="316.4" y2="147.15"/><line x1="319.34" y1="164.76" x2="319.34" y2="158.89"/><line x1="319.34" y1="158.89" x2="316.4" y2="158.89"/><line x1="316.4" y1="158.89" x2="310.53" y2="158.89"/><line x1="307.6" y1="153.02" x2="304.66" y2="153.02"/><line x1="307.6" y1="158.89" x2="307.6" y2="164.76"/><line x1="307.6" y1="164.76" x2="310.53" y2="164.76"/><line x1="310.53" y1="164.76" x2="316.4" y2="164.76"/><line x1="316.4" y1="164.76" x2="319.34" y2="164.76"/><line x1="310.53" y1="164.76" x2="310.53" y2="170.63"/><line x1="316.4" y1="153.02" x2="316.4" y2="158.89"/><line x1="316.4" y1="164.76" x2="316.4" y2="170.63"/><line x1="307.6" y1="153.02" x2="310.53" y2="153.02"/><line x1="319.34" y1="153.02" x2="319.34" y2="147.15"/><line x1="319.34" y1="147.15" x2="316.4" y2="147.15"/><line x1="316.4" y1="147.15" x2="310.53" y2="147.15"/><line x1="310.53" y1="147.15" x2="307.6" y2="147.15"/><line x1="307.6" y1="147.15" x2="307.6" y2="153.02"/><line x1="310.53" y1="153.02" x2="310.53" y2="158.89"/><line x1="310.53" y1="153.02" x2="316.4" y2="153.02"/><line x1="316.4" y1="153.02" x2="319.34" y2="153.02"/><line x1="307.6" y1="123.67" x2="281.18" y2="123.67"/><line x1="96.26" y1="220.53" x2="96.26" y2="94.32"/><line x1="196.06" y1="220.53" x2="96.26" y2="220.53"/><line x1="196.06" y1="208.79" x2="196.06" y2="220.53"/><line x1="181.38" y1="176.5" x2="181.38" y2="211.73"/><line x1="96.26" y1="94.32" x2="108" y2="94.32"/><line x1="105.06" y1="100.19" x2="105.06" y2="126.6"/><line x1="105.06" y1="126.6" x2="131.48" y2="126.6"/><line x1="108" y1="94.32" x2="105.06" y2="100.19"/><line x1="190.19" y1="211.73" x2="196.06" y2="208.79"/><line x1="181.38" y1="211.73" x2="190.19" y2="211.73"/><line x1="116.81" y1="123.67" x2="128.55" y2="123.67"/><line x1="128.55" y1="120.73" x2="116.81" y2="120.73"/><line x1="108" y1="103.12" x2="108" y2="114.86"/><line x1="110.94" y1="114.86" x2="110.94" y2="103.12"/><line x1="281.18" y1="173.57" x2="281.18" y2="158.89"/><line x1="295.86" y1="94.32" x2="301.73" y2="94.32"/><line x1="295.86" y1="92.85" x2="301.73" y2="92.85"/><line x1="301.73" y1="90.65" x2="295.86" y2="90.65"/><line x1="301.73" y1="92.12" x2="295.86" y2="92.12"/><line x1="297.32" y1="78.91" x2="300.26" y2="78.91"/><line x1="181.29" y1="112.02" x2="187.16" y2="112.02"/><line x1="216.7" y1="112.02" x2="222.57" y2="112.02"/></g><g stroke="#d3b15b" stroke-width="2.4" stroke-linecap="round"><line x1="187.25" y1="111.93" x2="190.19" y2="111.93"/><line x1="213.67" y1="170.63" x2="210.73" y2="170.63"/><line x1="213.67" y1="111.93" x2="216.6" y2="111.93"/><line x1="193.12" y1="176.5" x2="193.12" y2="170.63"/><line x1="210.73" y1="170.63" x2="210.73" y2="176.5"/><line x1="210.73" y1="202.92" x2="190.19" y2="202.92"/><line x1="193.12" y1="170.63" x2="190.19" y2="170.63"/><line x1="190.19" y1="170.63" x2="187.25" y2="170.63"/><line x1="216.6" y1="111.93" x2="225.41" y2="111.93"/><line x1="216.6" y1="170.63" x2="213.67" y2="170.63"/><line x1="243.02" y1="170.63" x2="228.35" y2="170.63"/><line x1="278.24" y1="147.15" x2="278.24" y2="158.89"/><line x1="248.89" y1="147.15" x2="260.63" y2="147.15"/><line x1="251.83" y1="106.06" x2="251.83" y2="94.32"/><line x1="225.41" y1="44.42" x2="225.41" y2="47.35"/><line x1="225.41" y1="47.35" x2="237.15" y2="47.35"/><line x1="229.81" y1="122.2" x2="229.81" y2="128.07"/><line x1="229.81" y1="128.07" x2="235.68" y2="128.07"/><line x1="245.96" y1="128.07" x2="245.96" y2="129.54"/><line x1="235.68" y1="122.2" x2="229.81" y2="122.2"/><line x1="248.89" y1="111.93" x2="248.89" y2="117.8"/><line x1="245.96" y1="120.73" x2="245.96" y2="122.2"/><line x1="237.15" y1="111.93" x2="248.89" y2="111.93"/><line x1="248.89" y1="141.28" x2="248.89" y2="147.15"/><line x1="228.35" y1="170.63" x2="216.6" y2="170.63"/><line x1="154.96" y1="94.32" x2="154.96" y2="53.22"/><line x1="213.67" y1="88.45" x2="213.67" y2="94.32"/><line x1="213.67" y1="106.06" x2="213.67" y2="111.93"/><line x1="143.22" y1="94.32" x2="152.03" y2="94.32"/><line x1="190.19" y1="106.06" x2="178.45" y2="106.06"/><line x1="190.19" y1="94.32" x2="190.19" y2="88.45"/><line x1="178.45" y1="111.93" x2="187.25" y2="111.93"/><line x1="187.25" y1="170.63" x2="184.32" y2="170.63"/><line x1="154.96" y1="111.93" x2="166.71" y2="111.93"/><line x1="166.71" y1="111.93" x2="166.71" y2="106.06"/><line x1="137.35" y1="123.67" x2="137.35" y2="117.8"/><line x1="143.22" y1="111.93" x2="143.22" y2="106.06"/><line x1="166.71" y1="94.32" x2="190.19" y2="94.32"/><line x1="166.71" y1="106.06" x2="154.96" y2="106.06"/><line x1="178.45" y1="106.06" x2="178.45" y2="111.93"/><line x1="137.35" y1="111.93" x2="143.22" y2="111.93"/><line x1="137.35" y1="117.8" x2="137.35" y2="111.93"/><line x1="143.22" y1="106.06" x2="143.22" y2="94.32"/><line x1="154.96" y1="106.06" x2="154.96" y2="111.93"/><line x1="152.03" y1="94.32" x2="154.96" y2="94.32"/><line x1="284.12" y1="117.8" x2="284.12" y2="114.86"/><line x1="166.71" y1="88.45" x2="166.71" y2="94.32"/><line x1="213.67" y1="94.32" x2="219.54" y2="94.32"/><line x1="237.15" y1="94.32" x2="237.15" y2="106.06"/><line x1="245.96" y1="129.54" x2="248.89" y2="132.47"/><line x1="225.41" y1="106.06" x2="219.54" y2="106.06"/><line x1="225.41" y1="94.32" x2="237.15" y2="94.32"/><line x1="219.54" y1="106.06" x2="213.67" y2="106.06"/><line x1="219.54" y1="94.32" x2="225.41" y2="94.32"/><line x1="225.41" y1="111.93" x2="225.41" y2="106.06"/><line x1="237.15" y1="106.06" x2="237.15" y2="111.93"/><line x1="169.64" y1="53.22" x2="172.58" y2="53.22"/><line x1="278.24" y1="59.09" x2="278.24" y2="64.96"/><line x1="184.32" y1="88.45" x2="178.45" y2="88.45"/><line x1="169.64" y1="88.45" x2="166.71" y2="88.45"/><line x1="166.71" y1="53.22" x2="169.64" y2="53.22"/><line x1="172.58" y1="47.35" x2="178.45" y2="47.35"/><line x1="254.76" y1="47.35" x2="254.76" y2="53.22"/><line x1="172.58" y1="53.22" x2="172.58" y2="47.35"/><line x1="254.76" y1="53.22" x2="260.63" y2="53.22"/><line x1="260.63" y1="111.93" x2="254.76" y2="111.93"/><line x1="272.37" y1="147.15" x2="275.31" y2="147.15"/><line x1="254.76" y1="111.93" x2="254.76" y2="106.06"/><line x1="260.63" y1="53.22" x2="262.1" y2="56.16"/><line x1="262.1" y1="56.16" x2="265.04" y2="56.16"/><line x1="265.04" y1="56.16" x2="266.5" y2="53.22"/><line x1="275.31" y1="69.37" x2="278.24" y2="70.83"/><line x1="266.5" y1="53.22" x2="272.37" y2="53.22"/><line x1="278.24" y1="106.06" x2="278.24" y2="111.93"/><line x1="278.24" y1="70.83" x2="278.24" y2="76.71"/><line x1="272.37" y1="53.22" x2="278.24" y2="53.22"/><line x1="278.24" y1="64.96" x2="275.31" y2="66.43"/><line x1="275.31" y1="66.43" x2="275.31" y2="69.37"/><line x1="254.76" y1="88.45" x2="248.89" y2="88.45"/><line x1="248.89" y1="88.45" x2="225.41" y2="88.45"/><line x1="278.24" y1="76.71" x2="281.18" y2="76.71"/><line x1="260.63" y1="147.15" x2="260.63" y2="141.28"/><line x1="272.37" y1="141.28" x2="272.37" y2="147.15"/><line x1="260.63" y1="117.8" x2="260.63" y2="111.93"/><line x1="260.63" y1="141.28" x2="260.63" y2="135.41"/><line x1="272.37" y1="111.93" x2="272.37" y2="117.8"/><line x1="272.37" y1="117.8" x2="272.37" y2="129.54"/><line x1="190.19" y1="88.45" x2="184.32" y2="88.45"/><line x1="219.54" y1="88.45" x2="213.67" y2="88.45"/><line x1="178.45" y1="88.45" x2="169.64" y2="88.45"/><line x1="225.41" y1="88.45" x2="219.54" y2="88.45"/><line x1="178.45" y1="44.42" x2="169.64" y2="44.42"/><line x1="190.19" y1="44.42" x2="190.19" y2="47.35"/><line x1="178.45" y1="47.35" x2="178.45" y2="44.42"/><line x1="190.19" y1="47.35" x2="201.93" y2="47.35"/><line x1="248.89" y1="44.42" x2="248.89" y2="47.35"/><line x1="237.15" y1="47.35" x2="237.15" y2="44.42"/><line x1="169.64" y1="26.81" x2="172.58" y2="26.81"/><line x1="248.89" y1="47.35" x2="254.76" y2="47.35"/><line x1="201.93" y1="47.35" x2="201.93" y2="44.42"/><line x1="235.68" y1="128.07" x2="235.68" y2="122.2"/><line x1="248.89" y1="117.8" x2="245.96" y2="120.73"/><line x1="248.89" y1="132.47" x2="248.89" y2="141.28"/><line x1="275.31" y1="147.15" x2="278.24" y2="147.15"/><line x1="260.63" y1="135.41" x2="260.63" y2="129.54"/><line x1="272.37" y1="135.41" x2="272.37" y2="141.28"/><line x1="260.63" y1="129.54" x2="260.63" y2="117.8"/><line x1="272.37" y1="129.54" x2="272.37" y2="135.41"/><line x1="184.32" y1="170.63" x2="184.32" y2="176.5"/><line x1="131.48" y1="123.67" x2="137.35" y2="123.67"/><line x1="132.95" y1="129.54" x2="132.95" y2="135.41"/><line x1="132.95" y1="135.41" x2="135.88" y2="135.41"/><line x1="135.88" y1="135.41" x2="135.88" y2="129.54"/><line x1="135.88" y1="129.54" x2="132.95" y2="129.54"/><line x1="172.58" y1="172.1" x2="172.58" y2="175.04"/><line x1="172.58" y1="175.04" x2="178.45" y2="175.04"/><line x1="178.45" y1="175.04" x2="178.45" y2="172.1"/><line x1="178.45" y1="172.1" x2="172.58" y2="172.1"/><line x1="190.19" y1="111.93" x2="190.19" y2="106.06"/><line x1="278.24" y1="53.22" x2="278.24" y2="59.09"/><line x1="257.7" y1="44.42" x2="248.89" y2="44.42"/><line x1="237.15" y1="44.42" x2="225.41" y2="44.42"/><line x1="313.47" y1="120.73" x2="313.47" y2="123.67"/><line x1="201.93" y1="44.42" x2="190.19" y2="44.42"/><line x1="172.58" y1="26.81" x2="172.58" y2="20.94"/><line x1="254.76" y1="26.81" x2="257.7" y2="26.81"/><line x1="254.76" y1="20.94" x2="254.76" y2="26.81"/><line x1="240.09" y1="26.81" x2="240.09" y2="20.94"/><line x1="187.25" y1="26.81" x2="198.99" y2="26.81"/><line x1="187.25" y1="20.94" x2="187.25" y2="26.81"/><line x1="204.86" y1="26.81" x2="210.73" y2="20.94"/><line x1="228.35" y1="26.81" x2="240.09" y2="26.81"/><line x1="203.4" y1="29.74" x2="204.86" y2="26.81"/><line x1="226.88" y1="29.74" x2="228.35" y2="26.81"/><line x1="198.99" y1="26.81" x2="200.46" y2="29.74"/><line x1="200.46" y1="29.74" x2="203.4" y2="29.74"/><line x1="222.47" y1="26.81" x2="223.94" y2="29.74"/><line x1="223.94" y1="29.74" x2="226.88" y2="29.74"/><line x1="210.73" y1="20.94" x2="216.6" y2="20.94"/><line x1="254.76" y1="106.06" x2="251.83" y2="106.06"/><line x1="216.6" y1="20.94" x2="222.47" y2="26.81"/><line x1="146.16" y1="44.42" x2="169.64" y2="26.81"/><line x1="243.02" y1="173.57" x2="243.02" y2="170.63"/><line x1="275.31" y1="123.67" x2="275.31" y2="117.8"/><line x1="245.96" y1="122.2" x2="248.89" y2="123.67"/><line x1="248.89" y1="123.67" x2="248.89" y2="126.6"/><line x1="307.6" y1="114.86" x2="307.6" y2="117.8"/><line x1="307.6" y1="94.32" x2="307.6" y2="106.06"/><line x1="169.64" y1="44.42" x2="146.16" y2="44.42"/><line x1="281.18" y1="135.41" x2="275.31" y2="135.41"/><line x1="281.18" y1="117.8" x2="284.12" y2="117.8"/><line x1="284.12" y1="114.86" x2="284.12" y2="111.93"/><line x1="307.6" y1="123.67" x2="307.6" y2="129.54"/><line x1="154.96" y1="53.22" x2="166.71" y2="53.22"/><line x1="248.89" y1="126.6" x2="245.96" y2="128.07"/><line x1="254.76" y1="94.32" x2="254.76" y2="88.45"/><line x1="284.12" y1="94.32" x2="295.86" y2="94.32"/><line x1="172.58" y1="20.94" x2="179.91" y2="18"/><line x1="179.91" y1="18" x2="187.25" y2="20.94"/><line x1="240.09" y1="20.94" x2="247.42" y2="18"/><line x1="247.42" y1="18" x2="254.76" y2="20.94"/><line x1="307.6" y1="117.8" x2="307.6" y2="120.73"/><line x1="275.31" y1="117.8" x2="281.18" y2="117.8"/><line x1="257.7" y1="26.81" x2="281.18" y2="44.42"/><line x1="284.12" y1="106.06" x2="278.24" y2="106.06"/><line x1="281.18" y1="44.42" x2="257.7" y2="44.42"/><line x1="278.24" y1="94.32" x2="284.12" y2="94.32"/><line x1="251.83" y1="94.32" x2="254.76" y2="94.32"/><line x1="278.24" y1="88.45" x2="278.24" y2="94.32"/><line x1="281.18" y1="76.71" x2="281.18" y2="88.45"/><line x1="281.18" y1="88.45" x2="278.24" y2="88.45"/><line x1="243.02" y1="176.5" x2="243.02" y2="173.57"/><line x1="278.24" y1="158.89" x2="281.18" y2="158.89"/><line x1="313.47" y1="123.67" x2="307.6" y2="123.67"/><line x1="307.6" y1="129.54" x2="313.47" y2="129.54"/><line x1="307.6" y1="120.73" x2="313.47" y2="120.73"/><line x1="278.24" y1="111.93" x2="272.37" y2="111.93"/><line x1="210.73" y1="199.99" x2="210.73" y2="202.92"/><line x1="210.73" y1="176.5" x2="213.67" y2="176.5"/><line x1="190.19" y1="202.92" x2="190.19" y2="176.5"/><line x1="190.19" y1="176.5" x2="193.12" y2="176.5"/><line x1="213.67" y1="199.99" x2="210.73" y2="199.99"/><line x1="216.6" y1="199.99" x2="213.67" y2="199.99"/><line x1="213.67" y1="176.5" x2="216.6" y2="176.5"/><line x1="216.6" y1="202.92" x2="216.6" y2="199.99"/><line x1="243.02" y1="208.79" x2="238.62" y2="208.79"/><line x1="216.6" y1="176.5" x2="221.01" y2="176.5"/><line x1="216.6" y1="208.79" x2="216.6" y2="202.92"/><line x1="243.02" y1="202.92" x2="243.02" y2="208.79"/><line x1="221.01" y1="205.86" x2="221.01" y2="208.79"/><line x1="221.01" y1="208.79" x2="216.6" y2="208.79"/><line x1="226.88" y1="208.79" x2="226.88" y2="205.86"/><line x1="238.62" y1="176.5" x2="243.02" y2="176.5"/><line x1="232.75" y1="205.86" x2="232.75" y2="208.79"/><line x1="232.75" y1="208.79" x2="226.88" y2="208.79"/><line x1="238.62" y1="208.79" x2="238.62" y2="205.86"/><line x1="243.02" y1="199.99" x2="243.02" y2="202.92"/><line x1="221.01" y1="176.5" x2="226.88" y2="176.5"/><line x1="226.88" y1="205.86" x2="221.01" y2="205.86"/><line x1="226.88" y1="176.5" x2="232.75" y2="176.5"/><line x1="238.62" y1="205.86" x2="232.75" y2="205.86"/><line x1="232.75" y1="176.5" x2="238.62" y2="176.5"/><line x1="248.89" y1="199.99" x2="243.02" y2="199.99"/><line x1="278.24" y1="199.99" x2="278.24" y2="202.92"/><line x1="284.12" y1="199.99" x2="281.18" y2="199.99"/><line x1="285.58" y1="197.05" x2="284.12" y2="199.99"/><line x1="288.52" y1="197.05" x2="285.58" y2="197.05"/><line x1="289.99" y1="199.99" x2="288.52" y2="197.05"/><line x1="307.6" y1="199.99" x2="289.99" y2="199.99"/><line x1="307.6" y1="182.37" x2="307.6" y2="199.99"/><line x1="304.66" y1="180.91" x2="307.6" y2="182.37"/><line x1="304.66" y1="177.97" x2="304.66" y2="180.91"/><line x1="307.6" y1="176.5" x2="304.66" y2="177.97"/><line x1="307.6" y1="170.63" x2="307.6" y2="173.57"/><line x1="284.12" y1="158.89" x2="284.12" y2="135.41"/><line x1="284.12" y1="111.93" x2="284.12" y2="106.06"/><line x1="307.6" y1="106.06" x2="307.6" y2="111.93"/><line x1="248.89" y1="202.92" x2="248.89" y2="199.99"/><line x1="263.57" y1="217.6" x2="248.89" y2="214.66"/><line x1="248.89" y1="208.79" x2="248.89" y2="202.92"/><line x1="278.24" y1="202.92" x2="278.24" y2="208.79"/><line x1="248.89" y1="214.66" x2="248.89" y2="208.79"/><line x1="278.24" y1="208.79" x2="278.24" y2="211.73"/><line x1="281.18" y1="199.99" x2="278.24" y2="199.99"/><line x1="307.6" y1="173.57" x2="307.6" y2="176.5"/><line x1="322.27" y1="141.28" x2="325.21" y2="155.96"/><line x1="316.4" y1="141.28" x2="322.27" y2="141.28"/><line x1="278.24" y1="214.66" x2="263.57" y2="217.6"/><line x1="278.24" y1="211.73" x2="278.24" y2="214.66"/><line x1="307.6" y1="141.28" x2="310.53" y2="141.28"/><line x1="310.53" y1="170.63" x2="307.6" y2="170.63"/><line x1="325.21" y1="155.96" x2="322.27" y2="170.63"/><line x1="316.4" y1="170.63" x2="310.53" y2="170.63"/><line x1="310.53" y1="141.28" x2="316.4" y2="141.28"/><line x1="322.27" y1="170.63" x2="316.4" y2="170.63"/><line x1="307.6" y1="111.93" x2="307.6" y2="114.86"/><line x1="184.32" y1="176.5" x2="184.32" y2="208.79"/><line x1="184.32" y1="208.79" x2="196.06" y2="208.79"/><line x1="108" y1="94.32" x2="108" y2="103.12"/><line x1="108" y1="123.67" x2="116.81" y2="123.67"/><line x1="128.55" y1="120.73" x2="128.55" y2="123.67"/><line x1="116.81" y1="123.67" x2="116.81" y2="120.73"/><line x1="128.55" y1="123.67" x2="131.48" y2="123.67"/><line x1="116.81" y1="120.73" x2="110.94" y2="120.73"/><line x1="110.94" y1="114.86" x2="108" y2="114.86"/><line x1="108" y1="103.12" x2="110.94" y2="103.12"/><line x1="108" y1="114.86" x2="108" y2="123.67"/><line x1="110.94" y1="120.73" x2="110.94" y2="114.86"/><line x1="110.94" y1="103.12" x2="110.94" y2="97.25"/><line x1="110.94" y1="97.25" x2="134.42" y2="97.25"/><line x1="134.42" y1="97.25" x2="134.42" y2="120.73"/><line x1="134.42" y1="120.73" x2="128.55" y2="120.73"/><line x1="94.79" y1="222" x2="94.79" y2="92.85"/><line x1="94.79" y1="92.85" x2="108" y2="94.32"/><line x1="197.53" y1="222" x2="94.79" y2="222"/><line x1="196.06" y1="208.79" x2="197.53" y2="222"/><line x1="281.18" y1="158.89" x2="284.12" y2="158.89"/><line x1="275.31" y1="129.54" x2="275.31" y2="123.67"/><line x1="307.6" y1="132.47" x2="307.6" y2="141.28"/><line x1="313.47" y1="129.54" x2="313.47" y2="132.47"/><line x1="313.47" y1="132.47" x2="307.6" y2="132.47"/><line x1="284.12" y1="135.41" x2="281.18" y2="135.41"/><line x1="275.31" y1="135.41" x2="275.31" y2="129.54"/><line x1="301.73" y1="92.85" x2="301.73" y2="94.32"/><line x1="295.86" y1="92.12" x2="295.86" y2="90.65"/><line x1="301.73" y1="92.12" x2="301.73" y2="92.85"/><line x1="294.39" y1="89.18" x2="294.39" y2="80.37"/><line x1="294.39" y1="80.37" x2="295.86" y2="78.91"/><line x1="295.86" y1="94.32" x2="295.86" y2="92.85"/><line x1="295.86" y1="90.65" x2="294.39" y2="89.18"/><line x1="301.73" y1="90.65" x2="301.73" y2="92.12"/><line x1="300.26" y1="78.91" x2="301.73" y2="78.91"/><line x1="303.19" y1="89.18" x2="301.73" y2="90.65"/><line x1="303.19" y1="80.37" x2="303.19" y2="89.18"/><line x1="301.73" y1="78.91" x2="303.19" y2="80.37"/><line x1="295.86" y1="92.85" x2="295.86" y2="92.12"/><line x1="297.32" y1="78.91" x2="297.32" y2="78.17"/><line x1="300.26" y1="78.17" x2="300.26" y2="78.91"/><line x1="297.32" y1="78.17" x2="300.26" y2="78.17"/><line x1="295.86" y1="78.91" x2="297.32" y2="78.91"/><line x1="301.73" y1="94.32" x2="307.6" y2="94.32"/></g><g opacity="0.95"><circle cx="169.64" cy="164.76" r="2.2" fill="#d3b15b"/><circle cx="276.04" cy="55.42" r="2.2" fill="#d3b15b"/><circle cx="157.9" cy="56.16" r="2.2" fill="#d3b15b"/><circle cx="266.5" cy="155.96" r="2.2" fill="#d3b15b"/><circle cx="231.28" cy="100.19" r="2.2" fill="#d3b15b"/><circle cx="245.96" cy="114.86" r="2.2" fill="#d3b15b"/><circle cx="157.9" cy="132.47" r="2.2" fill="#d3b15b"/><circle cx="146.16" cy="97.25" r="2.2" fill="#d3b15b"/><circle cx="304.66" cy="197.05" r="2.2" fill="#d3b15b"/><circle cx="298.79" cy="198.52" r="2.2" fill="#d3b15b"/><circle cx="196.06" cy="197.05" r="2.2" fill="#d3b15b"/><circle cx="157.17" cy="131.74" r="3.2" fill="#b7493c"/><circle cx="306.13" cy="191.18" r="2.2" fill="#d3b15b"/><circle cx="277.51" cy="126.6" r="3.2" fill="#b7493c"/><circle cx="306.13" cy="185.31" r="2.2" fill="#d3b15b"/><circle cx="292.92" cy="198.52" r="2.2" fill="#d3b15b"/><circle cx="246.69" cy="114.13" r="3.2" fill="#b7493c"/><circle cx="145.42" cy="96.52" r="3.2" fill="#b7493c"/><circle cx="171.84" cy="86.98" r="2.2" fill="#d3b15b"/><circle cx="305.4" cy="197.78" r="3.2" fill="#b7493c"/><circle cx="157.17" cy="55.42" r="3.2" fill="#b7493c"/><circle cx="213.67" cy="49.55" r="3.2" fill="#b7493c"/><circle cx="218.81" cy="114.13" r="2.2" fill="#d3b15b"/><circle cx="218.81" cy="117.06" r="2.2" fill="#d3b15b"/><circle cx="171.11" cy="84.04" r="2.2" fill="#d3b15b"/><circle cx="276.04" cy="149.35" r="2.2" fill="#d3b15b"/><circle cx="276.04" cy="153.76" r="2.2" fill="#d3b15b"/><circle cx="253.29" cy="50.29" r="2.2" fill="#d3b15b"/><circle cx="174.04" cy="50.29" r="2.2" fill="#d3b15b"/><circle cx="176.24" cy="48.82" r="2.2" fill="#d3b15b"/><circle cx="251.09" cy="48.82" r="2.2" fill="#d3b15b"/><circle cx="138.82" cy="119.27" r="2.2" fill="#d3b15b"/><circle cx="195.32" cy="197.78" r="3.2" fill="#b7493c"/><circle cx="298.79" cy="84.78" r="2.2" fill="#d3b15b"/><circle cx="295.86" cy="188.24" r="3.2" fill="#b7493c"/><circle cx="289.99" cy="191.18" r="3.2" fill="#b7493c"/><circle cx="301.73" cy="182.37" r="3.2" fill="#b7493c"/><circle cx="284.12" cy="194.12" r="3.2" fill="#b7493c"/></g></svg>