<svg xmlns="http://www.w3.org/2000/svg" viewBox="0 0 420 240" role="img"><rect width="100%" height="100%" fill="#070706"/><g stroke="#5e5a4f" stroke-width="1.6" stroke-linecap="round"><line x1="209.78" y1="137.33" x2="209.78" y2="133.82"/><line x1="216.8" y1="144.35" x2="209.78" y2="137.33"/><line x1="227.33" y1="144.35" x2="222.06" y2="144.35"/><line x1="234.35" y1="137.33" x2="227.33" y2="144.35"/><line x1="234.35" y1="126.8" x2="234.35" y2="130.31"/><line x1="279.97" y1="147.86" x2="272.95" y2="147.86"/><line x1="216.8" y1="119.78" x2="223.82" y2="119.78"/><line x1="209.78" y1="126.8" x2="216.8" y2="119.78"/><line x1="209.78" y1="133.82" x2="209.78" y2="126.8"/><line x1="118.53" y1="133.82" x2="125.55" y2="133.82"/><line x1="216.8" y1="175.94" x2="216.8" y2="179.45"/><line x1="220.31" y1="144.35" x2="216.8" y2="144.35"/><line x1="227.33" y1="151.37" x2="223.82" y2="147.86"/><line x1="234.35" y1="151.37" x2="241.37" y2="144.35"/><line x1="237.86" y1="133.82" x2="241.37" y2="137.33"/><line x1="234.35" y1="132.06" x2="234.35" y2="137.33"/><line x1="244.88" y1="133.82" x2="241.37" y2="130.31"/><line x1="241.37" y1="144.35" x2="241.37" y2="137.33"/><line x1="227.33" y1="151.37" x2="234.35" y2="151.37"/><line x1="237.86" y1="154.88" x2="244.88" y2="147.86"/><line x1="230.84" y1="154.88" x2="237.86" y2="154.88"/><line x1="244.88" y1="147.86" x2="244.88" y2="140.84"/><line x1="223.82" y1="154.88" x2="227.33" y2="158.39"/><line x1="248.39" y1="151.37" x2="248.39" y2="144.35"/><line x1="248.39" y1="137.33" x2="244.88" y2="133.82"/><line x1="241.37" y1="158.39" x2="248.39" y2="151.37"/><line x1="234.35" y1="158.39" x2="241.37" y2="158.39"/><line x1="251.9" y1="154.88" x2="251.9" y2="147.86"/><line x1="244.88" y1="161.9" x2="251.9" y2="154.88"/><line x1="237.86" y1="161.9" x2="244.88" y2="161.9"/><line x1="255.41" y1="158.39" x2="248.39" y2="165.41"/><line x1="255.41" y1="151.37" x2="255.41" y2="152.25"/><line x1="248.39" y1="165.41" x2="242.25" y2="165.41"/><line x1="227.33" y1="151.37" x2="223.82" y2="154.88"/><line x1="286.99" y1="32.92" x2="286.99" y2="34.67"/><line x1="213.29" y1="151.37" x2="192.23" y2="151.37"/><line x1="188.72" y1="158.39" x2="188.72" y2="154.88"/><line x1="116.77" y1="135.57" x2="118.53" y2="133.82"/><line x1="220.31" y1="158.39" x2="216.8" y2="158.39"/><line x1="216.8" y1="154.88" x2="216.8" y2="158.39"/><line x1="216.8" y1="158.39" x2="216.8" y2="165.41"/><line x1="188.72" y1="165.41" x2="216.8" y2="165.41"/><line x1="216.8" y1="165.41" x2="216.8" y2="168.92"/><line x1="171.17" y1="130.31" x2="165.91" y2="130.31"/><line x1="216.8" y1="168.92" x2="216.8" y2="175.94"/><line x1="165.91" y1="139.08" x2="171.17" y2="139.08"/><line x1="216.8" y1="186.46" x2="220.31" y2="186.46"/><line x1="216.8" y1="179.45" x2="216.8" y2="186.46"/><line x1="180.83" y1="107.06" x2="180.39" y2="106.62"/><line x1="216.8" y1="154.88" x2="220.31" y2="154.88"/><line x1="220.31" y1="168.92" x2="220.31" y2="165.41"/><line x1="220.31" y1="158.39" x2="220.31" y2="154.88"/><line x1="220.31" y1="165.41" x2="220.31" y2="158.39"/><line x1="216.8" y1="165.41" x2="220.31" y2="165.41"/><line x1="220.31" y1="168.92" x2="216.8" y2="168.92"/><line x1="216.8" y1="175.94" x2="220.31" y2="175.94"/><line x1="220.31" y1="179.45" x2="216.8" y2="179.45"/><line x1="216.8" y1="186.46" x2="216.8" y2="189.97"/><line x1="220.31" y1="189.97" x2="220.31" y2="186.46"/><line x1="220.31" y1="186.46" x2="220.31" y2="179.45"/><line x1="220.31" y1="179.45" x2="220.31" y2="175.94"/><line x1="220.31" y1="175.94" x2="220.31" y2="168.92"/><line x1="223.82" y1="126.8" x2="220.31" y2="126.8"/><line x1="237.86" y1="168.92" x2="237.86" y2="175.94"/><line x1="220.31" y1="151.37" x2="223.82" y2="154.88"/><line x1="241.37" y1="175.94" x2="241.37" y2="168.92"/><line x1="237.86" y1="182.95" x2="237.86" y2="189.97"/><line x1="241.37" y1="189.97" x2="241.37" y2="182.95"/><line x1="264.18" y1="196.99" x2="262.43" y2="198.75"/><line x1="265.94" y1="168.92" x2="260.67" y2="168.92"/><line x1="258.92" y1="151.37" x2="265.94" y2="151.37"/><line x1="198.81" y1="221.56" x2="195.74" y2="221.56"/><line x1="188.72" y1="186.46" x2="216.8" y2="186.46"/><line x1="216.8" y1="179.45" x2="188.72" y2="179.45"/><line x1="216.8" y1="189.97" x2="188.72" y2="189.97"/><line x1="216.8" y1="168.92" x2="188.72" y2="168.92"/><line x1="258.92" y1="130.31" x2="265.94" y2="130.31"/><line x1="227.33" y1="119.78" x2="223.82" y2="119.78"/><line x1="223.82" y1="137.33" x2="227.33" y2="133.82"/><line x1="269.45" y1="126.8" x2="265.94" y2="126.8"/><line x1="248.39" y1="130.31" x2="255.41" y2="130.31"/><line x1="234.35" y1="126.8" x2="227.33" y2="119.78"/><line x1="241.37" y1="102.23" x2="241.37" y2="123.29"/><line x1="244.88" y1="98.72" x2="248.39" y2="98.72"/><line x1="188.72" y1="94.34" x2="187.85" y2="95.21"/><line x1="248.39" y1="126.8" x2="248.39" y2="130.31"/><line x1="248.39" y1="126.8" x2="244.88" y2="126.8"/><line x1="255.41" y1="126.8" x2="248.39" y2="126.8"/><line x1="255.41" y1="98.72" x2="258.92" y2="98.72"/><line x1="258.92" y1="126.8" x2="255.41" y2="126.8"/><line x1="265.94" y1="126.8" x2="258.92" y2="126.8"/><line x1="269.45" y1="32.04" x2="283.48" y2="32.04"/><line x1="265.94" y1="98.72" x2="269.45" y2="98.72"/><line x1="244.88" y1="72.4" x2="244.88" y2="95.21"/><line x1="265.94" y1="68.89" x2="248.39" y2="68.89"/><line x1="276.46" y1="130.31" x2="276.46" y2="126.8"/><line x1="241.37" y1="67.14" x2="241.37" y2="95.21"/><line x1="276.46" y1="126.8" x2="269.45" y2="126.8"/><line x1="276.46" y1="98.72" x2="279.97" y2="98.72"/><line x1="248.39" y1="68.89" x2="244.88" y2="72.4"/><line x1="244.88" y1="130.31" x2="244.88" y2="126.8"/><line x1="255.41" y1="130.31" x2="258.92" y2="130.31"/><line x1="244.88" y1="130.31" x2="248.39" y2="130.31"/><line x1="255.41" y1="130.31" x2="255.41" y2="126.8"/><line x1="258.92" y1="126.8" x2="258.92" y2="130.31"/><line x1="276.46" y1="23.26" x2="276.46" y2="26.77"/><line x1="265.94" y1="130.31" x2="265.94" y2="126.8"/><line x1="269.45" y1="126.8" x2="269.45" y2="130.31"/><line x1="279.97" y1="126.8" x2="276.46" y2="126.8"/><line x1="276.46" y1="130.31" x2="279.97" y2="130.31"/><line x1="269.45" y1="130.31" x2="276.46" y2="130.31"/><line x1="265.94" y1="130.31" x2="269.45" y2="130.31"/><line x1="188.72" y1="154.88" x2="215.05" y2="154.88"/><line x1="216.8" y1="158.39" x2="188.72" y2="158.39"/><line x1="244.88" y1="125.05" x2="244.88" y2="98.72"/><line x1="248.39" y1="98.72" x2="248.39" y2="126.8"/><line x1="255.41" y1="126.8" x2="255.41" y2="98.72"/><line x1="258.92" y1="98.72" x2="258.92" y2="126.8"/><line x1="265.94" y1="126.8" x2="265.94" y2="98.72"/><line x1="269.45" y1="98.72" x2="269.45" y2="126.8"/><line x1="279.97" y1="98.72" x2="279.97" y2="126.8"/><line x1="276.46" y1="126.8" x2="276.46" y2="98.72"/><line x1="202.76" y1="126.8" x2="216.8" y2="112.76"/><line x1="195.74" y1="119.78" x2="209.78" y2="105.74"/><line x1="185.21" y1="154.88" x2="185.21" y2="158.39"/><line x1="188.72" y1="168.92" x2="188.72" y2="165.41"/><line x1="185.21" y1="165.41" x2="185.21" y2="168.92"/><line x1="188.72" y1="179.45" x2="188.72" y2="175.94"/><line x1="188.72" y1="189.97" x2="188.72" y2="186.46"/><line x1="185.21" y1="175.94" x2="185.21" y2="179.45"/><line x1="185.21" y1="186.46" x2="185.21" y2="189.97"/><line x1="260.67" y1="177.69" x2="265.94" y2="177.69"/><line x1="188.72" y1="175.94" x2="216.8" y2="175.94"/><line x1="283.48" y1="32.04" x2="283.48" y2="46.08"/><line x1="132.57" y1="156.63" x2="125.55" y2="156.63"/><line x1="139.59" y1="137.33" x2="146.61" y2="133.82"/><line x1="195.74" y1="105.74" x2="209.78" y2="105.74"/><line x1="195.74" y1="119.78" x2="195.74" y2="105.74"/><line x1="195.74" y1="98.72" x2="188.72" y2="105.74"/><line x1="188.72" y1="119.78" x2="188.72" y2="105.74"/><line x1="195.74" y1="105.74" x2="195.74" y2="98.72"/><line x1="195.74" y1="98.72" x2="209.78" y2="98.72"/><line x1="181.7" y1="105.74" x2="188.72" y2="105.74"/><line x1="181.7" y1="105.74" x2="181.7" y2="119.78"/><line x1="195.74" y1="98.72" x2="195.74" y2="91.7"/><line x1="185.21" y1="123.29" x2="185.21" y2="126.8"/><line x1="141.34" y1="154.88" x2="144.85" y2="151.37"/><line x1="132.57" y1="137.33" x2="139.59" y2="137.33"/><line x1="164.15" y1="137.33" x2="165.91" y2="139.08"/><line x1="243.12" y1="195.24" x2="241.37" y2="193.48"/><line x1="260.67" y1="193.48" x2="257.16" y2="195.24"/><line x1="185.21" y1="140.84" x2="185.21" y2="144.35"/><line x1="185.21" y1="126.8" x2="188.72" y2="126.8"/><line x1="188.72" y1="126.8" x2="188.72" y2="140.84"/><line x1="188.72" y1="140.84" x2="185.21" y2="140.84"/><line x1="185.21" y1="126.8" x2="185.21" y2="140.84"/><line x1="141.34" y1="160.14" x2="141.34" y2="154.88"/><line x1="125.55" y1="157.95" x2="132.57" y2="157.95"/><line x1="267.69" y1="186.46" x2="265.94" y2="186.46"/><line x1="251.9" y1="200.5" x2="248.39" y2="198.75"/><line x1="274.71" y1="189.97" x2="267.69" y2="186.46"/><line x1="132.57" y1="162.34" x2="125.55" y2="162.34"/><line x1="167.66" y1="102.23" x2="167.66" y2="77.66"/><line x1="284.36" y1="109.25" x2="284.36" y2="116.27"/><line x1="220.31" y1="60.12" x2="223.82" y2="56.61"/><line x1="125.55" y1="189.97" x2="125.55" y2="182.95"/><line x1="180.39" y1="106.62" x2="172.49" y2="106.62"/><line x1="272.52" y1="35.11" x2="272.52" y2="43.01"/><line x1="165.91" y1="130.31" x2="164.15" y2="132.06"/><line x1="228.21" y1="196.12" x2="227.33" y2="196.99"/><line x1="158.89" y1="189.97" x2="158.89" y2="182.95"/><line x1="294.01" y1="123.29" x2="294.01" y2="119.78"/><line x1="286.12" y1="109.25" x2="286.12" y2="116.27"/><line x1="132.57" y1="182.95" x2="132.57" y2="189.97"/><line x1="120.28" y1="185.59" x2="120.72" y2="185.59"/><line x1="230.84" y1="196.99" x2="229.96" y2="196.12"/><line x1="229.96" y1="196.12" x2="228.21" y2="196.12"/><line x1="132.57" y1="189.97" x2="125.55" y2="189.97"/><line x1="120.72" y1="185.59" x2="120.72" y2="183.83"/><line x1="120.72" y1="183.83" x2="120.28" y2="183.83"/><line x1="151.87" y1="182.95" x2="151.87" y2="189.97"/><line x1="188.72" y1="105.74" x2="195.74" y2="105.74"/><line x1="220.31" y1="40.81" x2="222.06" y2="37.3"/><line x1="150.12" y1="182.95" x2="150.12" y2="189.97"/><line x1="172.93" y1="137.33" x2="172.93" y2="132.06"/><line x1="139.59" y1="193.48" x2="139.59" y2="179.45"/><line x1="136.08" y1="193.48" x2="136.08" y2="179.45"/><line x1="136.08" y1="175.94" x2="136.08" y2="179.45"/><line x1="122.04" y1="179.45" x2="136.08" y2="179.45"/><line x1="136.08" y1="179.45" x2="139.59" y2="179.45"/><line x1="137.83" y1="156.63" x2="137.83" y2="153.12"/><line x1="122.04" y1="156.63" x2="122.04" y2="151.37"/><line x1="285.24" y1="109.25" x2="285.24" y2="116.27"/><line x1="136.08" y1="151.37" x2="122.04" y2="151.37"/><line x1="171.17" y1="158.39" x2="171.17" y2="160.14"/><line x1="171.17" y1="189.97" x2="172.93" y2="189.97"/><line x1="172.93" y1="189.97" x2="172.93" y2="188.22"/><line x1="172.93" y1="158.39" x2="171.17" y2="158.39"/><line x1="157.14" y1="151.37" x2="153.63" y2="147.86"/><line x1="153.63" y1="147.86" x2="122.04" y2="147.86"/><line x1="155.38" y1="154.88" x2="155.38" y2="172.43"/><line x1="172.93" y1="132.06" x2="171.17" y2="130.31"/><line x1="218.55" y1="53.1" x2="220.31" y2="49.59"/><line x1="308.05" y1="105.74" x2="308.05" y2="109.25"/><line x1="151.87" y1="151.37" x2="155.38" y2="154.88"/><line x1="121.16" y1="186.46" x2="122.04" y2="185.59"/><line x1="137.83" y1="153.12" x2="136.08" y2="151.37"/><line x1="279.97" y1="172.43" x2="276.46" y2="175.94"/><line x1="150.12" y1="109.25" x2="153.63" y2="105.74"/><line x1="150.12" y1="119.78" x2="150.12" y2="109.25"/><line x1="122.04" y1="147.86" x2="122.04" y2="146.1"/><line x1="172.93" y1="188.22" x2="181.7" y2="188.22"/><line x1="181.7" y1="188.22" x2="181.7" y2="186.46"/><line x1="285.24" y1="153.12" x2="286.99" y2="156.63"/><line x1="281.73" y1="154.88" x2="281.73" y2="158.39"/><line x1="281.73" y1="158.39" x2="283.48" y2="161.9"/><line x1="283.48" y1="161.9" x2="285.24" y2="163.65"/><line x1="285.24" y1="163.65" x2="285.24" y2="167.16"/><line x1="167.66" y1="77.66" x2="192.23" y2="77.66"/><line x1="220.31" y1="154.88" x2="223.82" y2="154.88"/><line x1="216.8" y1="130.31" x2="216.8" y2="133.82"/><line x1="283.48" y1="151.37" x2="283.05" y2="152.25"/><line x1="294.01" y1="119.78" x2="304.54" y2="119.78"/><line x1="184.34" y1="103.11" x2="193.11" y2="94.34"/><line x1="191.35" y1="92.58" x2="182.58" y2="101.35"/><line x1="183.46" y1="102.23" x2="192.23" y2="93.46"/><line x1="153.63" y1="123.29" x2="181.7" y2="123.29"/><line x1="181.7" y1="119.78" x2="153.63" y2="119.78"/><line x1="265.94" y1="147.86" x2="258.92" y2="147.86"/><line x1="199.25" y1="63.63" x2="199.25" y2="67.14"/><line x1="283.48" y1="170.67" x2="279.97" y2="172.43"/><line x1="181.7" y1="186.46" x2="172.93" y2="186.46"/><line x1="118.53" y1="186.46" x2="121.16" y2="186.46"/><line x1="172.93" y1="186.46" x2="172.93" y2="172.43"/><line x1="171.17" y1="160.14" x2="162.4" y2="160.14"/><line x1="162.4" y1="160.14" x2="162.4" y2="161.9"/><line x1="125.11" y1="190.41" x2="133.01" y2="190.41"/><line x1="162.4" y1="161.9" x2="171.17" y2="161.9"/><line x1="120.28" y1="183.83" x2="120.28" y2="185.59"/><line x1="120.28" y1="190.85" x2="120.28" y2="192.61"/><line x1="136.08" y1="140.84" x2="132.57" y2="140.84"/><line x1="120.28" y1="192.61" x2="120.72" y2="192.61"/><line x1="132.57" y1="140.84" x2="132.57" y2="144.35"/><line x1="122.04" y1="190.85" x2="121.16" y2="189.97"/><line x1="290.5" y1="105.74" x2="304.54" y2="105.74"/><line x1="171.17" y1="161.9" x2="171.17" y2="175.94"/><line x1="172.93" y1="172.43" x2="179.95" y2="172.43"/><line x1="179.95" y1="172.43" x2="179.95" y2="170.67"/><line x1="125.11" y1="182.52" x2="125.11" y2="190.41"/><line x1="120.72" y1="192.61" x2="120.72" y2="190.85"/><line x1="164.15" y1="177.69" x2="171.17" y2="177.69"/><line x1="141.34" y1="167.16" x2="141.34" y2="163.65"/><line x1="150.12" y1="172.43" x2="146.61" y2="172.43"/><line x1="120.72" y1="190.85" x2="120.28" y2="190.85"/><line x1="172.49" y1="106.62" x2="172.05" y2="107.06"/><line x1="172.05" y1="107.06" x2="172.05" y2="107.94"/><line x1="172.05" y1="107.94" x2="172.49" y2="108.37"/><line x1="180.83" y1="107.94" x2="180.83" y2="107.06"/><line x1="188.72" y1="70.65" x2="188.72" y2="60.12"/><line x1="111.51" y1="156.63" x2="111.51" y2="74.15"/><line x1="283.48" y1="105.74" x2="283.48" y2="119.78"/><line x1="195.74" y1="53.1" x2="209.78" y2="53.1"/><line x1="234.35" y1="46.08" x2="234.35" y2="42.57"/><line x1="241.37" y1="61.87" x2="241.37" y2="54.85"/><line x1="304.98" y1="123.29" x2="304.98" y2="119.34"/><line x1="115.02" y1="156.63" x2="113.26" y2="153.12"/><line x1="188.72" y1="60.12" x2="195.74" y2="53.1"/><line x1="113.26" y1="153.12" x2="113.26" y2="149.61"/><line x1="248.39" y1="82.93" x2="260.67" y2="82.93"/><line x1="115.02" y1="147.86" x2="115.02" y2="144.35"/><line x1="267.69" y1="74.15" x2="265.94" y2="74.15"/><line x1="265.94" y1="74.15" x2="265.94" y2="81.17"/><line x1="115.02" y1="144.35" x2="116.77" y2="140.84"/><line x1="116.77" y1="140.84" x2="116.77" y2="135.57"/><line x1="172.49" y1="108.37" x2="180.39" y2="108.37"/><line x1="171.17" y1="177.69" x2="171.17" y2="189.97"/><line x1="118.53" y1="189.1" x2="118.53" y2="187.34"/><line x1="133.01" y1="190.41" x2="133.01" y2="182.52"/><line x1="308.05" y1="109.25" x2="311.56" y2="109.25"/><line x1="180.39" y1="108.37" x2="180.83" y2="107.94"/><line x1="280.85" y1="185.59" x2="275.59" y2="190.85"/><line x1="285.24" y1="177.69" x2="285.24" y2="181.2"/><line x1="188.72" y1="119.78" x2="185.21" y2="119.78"/><line x1="290.5" y1="78.54" x2="290.5" y2="85.56"/><line x1="113.26" y1="149.61" x2="115.02" y2="147.86"/><line x1="253.65" y1="42.57" x2="253.65" y2="35.55"/><line x1="125.55" y1="182.95" x2="132.57" y2="182.95"/><line x1="286.99" y1="174.18" x2="285.24" y2="177.69"/><line x1="286.99" y1="116.27" x2="286.99" y2="109.25"/><line x1="220.31" y1="137.33" x2="223.82" y2="137.33"/><line x1="283.48" y1="72.4" x2="283.48" y2="91.7"/><line x1="179.95" y1="170.67" x2="172.93" y2="170.67"/><line x1="258.92" y1="175.94" x2="260.67" y2="177.69"/><line x1="288.75" y1="172.43" x2="286.99" y2="174.18"/><line x1="202.76" y1="63.63" x2="199.25" y2="63.63"/><line x1="171.17" y1="105.74" x2="181.7" y2="105.74"/><line x1="181.7" y1="102.23" x2="171.17" y2="102.23"/><line x1="279.97" y1="184.71" x2="274.71" y2="189.97"/><line x1="260.67" y1="168.92" x2="258.92" y2="170.67"/><line x1="136.08" y1="144.35" x2="136.08" y2="140.84"/><line x1="192.23" y1="81.17" x2="192.23" y2="91.7"/><line x1="188.72" y1="93.46" x2="188.72" y2="94.34"/><line x1="187.85" y1="92.58" x2="188.72" y2="93.46"/><line x1="213.29" y1="60.12" x2="220.31" y2="60.12"/><line x1="183.46" y1="92.58" x2="187.85" y2="92.58"/><line x1="129.06" y1="140.84" x2="132.57" y2="137.33"/><line x1="125.55" y1="142.59" x2="129.06" y2="140.84"/><line x1="122.04" y1="146.1" x2="125.55" y2="142.59"/><line x1="144.85" y1="126.8" x2="144.85" y2="123.29"/><line x1="111.51" y1="74.15" x2="160.65" y2="70.65"/><line x1="267.69" y1="175.94" x2="267.69" y2="170.67"/><line x1="153.63" y1="112.76" x2="157.14" y2="112.76"/><line x1="157.14" y1="112.76" x2="157.14" y2="109.25"/><line x1="304.98" y1="119.34" x2="293.57" y2="119.34"/><line x1="184.34" y1="98.72" x2="183.46" y2="98.72"/><line x1="185.21" y1="97.85" x2="184.34" y2="98.72"/><line x1="216.8" y1="54.85" x2="218.55" y2="53.1"/><line x1="213.29" y1="98.72" x2="213.29" y2="95.21"/><line x1="293.57" y1="119.34" x2="293.57" y2="123.29"/><line x1="182.58" y1="93.46" x2="183.46" y2="92.58"/><line x1="308.49" y1="105.74" x2="311.56" y2="105.74"/><line x1="182.58" y1="97.85" x2="182.58" y2="93.46"/><line x1="195.74" y1="70.65" x2="195.74" y2="63.63"/><line x1="183.46" y1="98.72" x2="182.58" y2="97.85"/><line x1="125.55" y1="133.82" x2="127.3" y2="132.06"/><line x1="187.85" y1="95.21" x2="185.21" y2="97.85"/><line x1="195.74" y1="126.8" x2="195.74" y2="140.84"/><line x1="164.15" y1="132.06" x2="164.15" y2="137.33"/><line x1="283.48" y1="151.37" x2="285.24" y2="153.12"/><line x1="150.12" y1="98.72" x2="160.65" y2="98.72"/><line x1="227.33" y1="133.82" x2="227.33" y2="130.31"/><line x1="132.57" y1="144.35" x2="136.08" y2="144.35"/><line x1="157.14" y1="109.25" x2="153.63" y2="109.25"/><line x1="227.33" y1="130.31" x2="223.82" y2="126.8"/><line x1="237.86" y1="32.04" x2="241.37" y2="32.04"/><line x1="127.3" y1="132.06" x2="130.81" y2="130.31"/><line x1="171.17" y1="139.08" x2="172.93" y2="137.33"/><line x1="130.81" y1="130.31" x2="139.59" y2="130.31"/><line x1="139.59" y1="130.31" x2="143.1" y2="128.55"/><line x1="267.69" y1="170.67" x2="265.94" y2="168.92"/><line x1="290.5" y1="168.92" x2="288.75" y2="172.43"/><line x1="290.5" y1="161.9" x2="290.5" y2="168.92"/><line x1="262.43" y1="198.75" x2="258.92" y2="200.5"/><line x1="150.12" y1="130.31" x2="150.12" y2="123.29"/><line x1="143.1" y1="128.55" x2="144.85" y2="126.8"/><line x1="227.33" y1="82.93" x2="229.08" y2="81.17"/><line x1="178.19" y1="76.79" x2="188.72" y2="76.79"/><line x1="133.01" y1="182.52" x2="125.11" y2="182.52"/><line x1="171.17" y1="81.17" x2="171.17" y2="98.72"/><line x1="171.17" y1="81.17" x2="174.68" y2="81.17"/><line x1="188.72" y1="81.17" x2="174.68" y2="81.17"/><line x1="188.72" y1="91.7" x2="188.72" y2="81.17"/><line x1="181.7" y1="91.7" x2="188.72" y2="91.7"/><line x1="181.7" y1="98.72" x2="181.7" y2="91.7"/><line x1="172.93" y1="170.67" x2="172.93" y2="158.39"/><line x1="171.17" y1="98.72" x2="181.7" y2="98.72"/><line x1="164.15" y1="175.94" x2="164.15" y2="177.69"/><line x1="171.17" y1="175.94" x2="164.15" y2="175.94"/><line x1="153.63" y1="109.25" x2="153.63" y2="112.76"/><line x1="185.21" y1="123.29" x2="188.72" y2="123.29"/><line x1="166.79" y1="98.72" x2="166.79" y2="95.21"/><line x1="255.41" y1="42.57" x2="255.41" y2="35.55"/><line x1="265.94" y1="46.08" x2="265.94" y2="32.04"/><line x1="272.95" y1="28.53" x2="276.46" y2="28.53"/><line x1="265.94" y1="177.69" x2="267.69" y2="175.94"/><line x1="166.79" y1="91.7" x2="166.79" y2="88.19"/><line x1="166.79" y1="84.68" x2="166.79" y2="76.79"/><line x1="272.95" y1="151.37" x2="279.97" y2="151.37"/><line x1="146.61" y1="133.82" x2="150.12" y2="130.31"/><line x1="166.79" y1="76.79" x2="174.68" y2="76.79"/><line x1="153.63" y1="105.74" x2="160.65" y2="105.74"/><line x1="220.31" y1="49.59" x2="220.31" y2="40.81"/><line x1="304.54" y1="119.78" x2="304.54" y2="123.29"/><line x1="311.56" y1="105.74" x2="311.56" y2="108.81"/><line x1="143.1" y1="105.74" x2="150.12" y2="98.72"/><line x1="143.1" y1="119.78" x2="143.1" y2="105.74"/><line x1="220.31" y1="126.8" x2="216.8" y2="130.31"/><line x1="216.8" y1="133.82" x2="220.31" y2="137.33"/><line x1="258.92" y1="170.67" x2="258.92" y2="175.94"/><line x1="175.56" y1="200.5" x2="168.54" y2="200.5"/><line x1="181.7" y1="193.48" x2="162.4" y2="193.48"/><line x1="144.85" y1="151.37" x2="151.87" y2="151.37"/><line x1="244.88" y1="133.82" x2="244.88" y2="130.31"/><line x1="230.84" y1="154.88" x2="227.33" y2="151.37"/><line x1="244.88" y1="133.82" x2="241.37" y2="137.33"/><line x1="241.37" y1="137.33" x2="244.88" y2="140.84"/><line x1="258.92" y1="200.5" x2="251.9" y2="200.5"/><line x1="276.46" y1="177.69" x2="279.97" y2="184.71"/><line x1="276.46" y1="175.94" x2="276.46" y2="177.69"/><line x1="286.99" y1="156.63" x2="288.75" y2="158.39"/><line x1="288.75" y1="158.39" x2="290.5" y2="161.9"/><line x1="248.39" y1="198.75" x2="246.63" y2="196.99"/><line x1="285.24" y1="167.16" x2="283.48" y2="170.67"/><line x1="265.94" y1="186.46" x2="262.43" y2="189.97"/><line x1="246.63" y1="196.99" x2="243.12" y2="195.24"/><line x1="248.39" y1="191.73" x2="244.88" y2="191.73"/><line x1="251.9" y1="193.48" x2="248.39" y2="191.73"/><line x1="253.65" y1="195.24" x2="251.9" y2="193.48"/><line x1="257.16" y1="195.24" x2="253.65" y2="195.24"/><line x1="244.88" y1="191.73" x2="242.25" y2="193.05"/><line x1="262.43" y1="189.97" x2="260.67" y2="193.48"/><line x1="271.2" y1="195.24" x2="267.69" y2="195.24"/><line x1="267.69" y1="195.24" x2="264.18" y2="196.99"/><line x1="272.95" y1="182.95" x2="272.95" y2="186.46"/><line x1="272.95" y1="186.46" x2="276.46" y2="186.46"/><line x1="276.46" y1="186.46" x2="276.46" y2="182.95"/><line x1="276.46" y1="182.95" x2="272.95" y2="182.95"/><line x1="255.41" y1="189.97" x2="255.41" y2="193.48"/><line x1="255.41" y1="193.48" x2="258.92" y2="193.48"/><line x1="258.92" y1="193.48" x2="258.92" y2="189.97"/><line x1="258.92" y1="189.97" x2="255.41" y2="189.97"/><line x1="279.97" y1="165.41" x2="279.97" y2="168.92"/><line x1="279.97" y1="168.92" x2="283.48" y2="168.92"/><line x1="283.48" y1="168.92" x2="283.48" y2="165.41"/><line x1="283.48" y1="165.41" x2="279.97" y2="165.41"/><line x1="242.25" y1="165.41" x2="242.25" y2="193.05"/><line x1="242.25" y1="165.41" x2="241.37" y2="165.41"/><line x1="242.25" y1="193.05" x2="241.37" y2="193.48"/><line x1="255.41" y1="152.25" x2="283.05" y2="152.25"/><line x1="255.41" y1="152.25" x2="255.41" y2="158.39"/><line x1="283.05" y1="152.25" x2="281.73" y2="154.88"/><line x1="158.89" y1="158.39" x2="158.89" y2="175.94"/><line x1="162.4" y1="154.88" x2="158.89" y2="158.39"/><line x1="185.21" y1="154.88" x2="162.4" y2="154.88"/><line x1="185.21" y1="151.37" x2="157.14" y2="151.37"/><line x1="122.04" y1="193.48" x2="122.04" y2="190.85"/><line x1="136.08" y1="193.48" x2="122.04" y2="193.48"/><line x1="122.04" y1="151.37" x2="122.04" y2="147.86"/><line x1="122.04" y1="185.59" x2="122.04" y2="179.45"/><line x1="121.16" y1="189.97" x2="118.53" y2="189.97"/><line x1="153.19" y1="189.97" x2="153.19" y2="182.95"/><line x1="157.57" y1="182.95" x2="157.57" y2="189.97"/><line x1="125.55" y1="163.65" x2="132.57" y2="163.65"/><line x1="125.55" y1="165.41" x2="132.57" y2="165.41"/><line x1="122.04" y1="175.94" x2="136.08" y2="175.94"/><line x1="223.82" y1="35.55" x2="223.82" y2="28.53"/><line x1="223.82" y1="28.53" x2="225.57" y2="26.77"/><line x1="220.31" y1="75.91" x2="220.31" y2="81.17"/><line x1="229.08" y1="81.17" x2="229.08" y2="75.91"/><line x1="196.62" y1="90.39" x2="197.06" y2="90.83"/><line x1="248.39" y1="95.21" x2="244.88" y2="95.21"/><line x1="258.92" y1="95.21" x2="255.41" y2="95.21"/><line x1="269.45" y1="95.21" x2="265.94" y2="95.21"/><line x1="279.97" y1="95.21" x2="276.46" y2="95.21"/><line x1="191.79" y1="101.35" x2="191.79" y2="99.6"/><line x1="246.63" y1="35.55" x2="246.63" y2="42.57"/><line x1="223.82" y1="56.61" x2="227.33" y2="49.59"/><line x1="195.74" y1="91.7" x2="209.78" y2="91.7"/><line x1="216.8" y1="95.21" x2="213.29" y2="95.21"/><line x1="241.37" y1="54.85" x2="244.88" y2="51.34"/><line x1="227.33" y1="49.59" x2="227.33" y2="42.57"/><line x1="229.08" y1="75.91" x2="227.33" y2="74.15"/><line x1="234.35" y1="95.21" x2="230.84" y2="95.21"/><line x1="216.8" y1="98.72" x2="216.8" y2="95.21"/><line x1="230.84" y1="98.72" x2="216.8" y2="98.72"/><line x1="230.84" y1="95.21" x2="230.84" y2="98.72"/><line x1="230.84" y1="95.21" x2="216.8" y2="95.21"/><line x1="244.88" y1="51.34" x2="250.14" y2="51.34"/><line x1="247.95" y1="42.57" x2="247.95" y2="35.55"/><line x1="252.34" y1="35.55" x2="252.34" y2="42.57"/><line x1="272.95" y1="35.55" x2="279.97" y2="35.55"/><line x1="196.62" y1="82.49" x2="196.62" y2="90.39"/><line x1="222.06" y1="74.15" x2="220.31" y2="75.91"/><line x1="272.95" y1="68.89" x2="279.97" y2="68.89"/><line x1="279.97" y1="42.57" x2="272.95" y2="42.57"/><line x1="279.97" y1="35.55" x2="279.97" y2="42.57"/><line x1="279.97" y1="61.87" x2="272.95" y2="61.87"/><line x1="279.97" y1="60.12" x2="272.95" y2="60.12"/><line x1="222.06" y1="82.93" x2="227.33" y2="82.93"/><line x1="269.45" y1="49.59" x2="283.48" y2="49.59"/><line x1="269.45" y1="46.08" x2="283.48" y2="46.08"/><line x1="269.45" y1="46.08" x2="265.94" y2="46.08"/><line x1="269.45" y1="46.08" x2="269.45" y2="32.04"/><line x1="269.45" y1="49.59" x2="269.45" y2="46.08"/><line x1="243.12" y1="47.83" x2="246.63" y2="47.83"/><line x1="241.37" y1="32.04" x2="246.63" y2="32.04"/><line x1="241.37" y1="32.04" x2="241.37" y2="46.08"/><line x1="250.14" y1="81.17" x2="248.39" y2="81.17"/><line x1="279.97" y1="82.93" x2="279.97" y2="81.17"/><line x1="278.22" y1="82.93" x2="279.97" y2="82.93"/><line x1="248.39" y1="81.17" x2="248.39" y2="82.93"/><line x1="237.86" y1="63.63" x2="241.37" y2="67.14"/><line x1="237.86" y1="32.04" x2="237.86" y2="63.63"/><line x1="262.43" y1="65.38" x2="244.88" y2="65.38"/><line x1="220.31" y1="81.17" x2="222.06" y2="82.93"/><line x1="244.88" y1="65.38" x2="241.37" y2="61.87"/><line x1="272.95" y1="63.19" x2="279.97" y2="63.19"/><line x1="241.37" y1="46.08" x2="243.12" y2="47.83"/><line x1="195.74" y1="63.63" x2="199.25" y2="60.12"/><line x1="199.25" y1="60.12" x2="209.78" y2="60.12"/><line x1="236.1" y1="32.04" x2="237.86" y2="32.04"/><line x1="278.22" y1="91.7" x2="278.22" y2="82.93"/><line x1="276.46" y1="91.7" x2="278.22" y2="91.7"/><line x1="213.29" y1="91.7" x2="213.29" y2="63.63"/><line x1="209.78" y1="63.63" x2="209.78" y2="91.7"/><line x1="276.46" y1="82.93" x2="276.46" y2="91.7"/><line x1="191.35" y1="101.79" x2="191.79" y2="101.35"/><line x1="262.43" y1="82.93" x2="276.46" y2="82.93"/><line x1="250.14" y1="72.4" x2="250.14" y2="81.17"/><line x1="251.9" y1="72.4" x2="250.14" y2="72.4"/><line x1="280.41" y1="43.01" x2="280.41" y2="35.11"/><line x1="251.9" y1="81.17" x2="251.9" y2="72.4"/><line x1="189.6" y1="101.79" x2="191.35" y2="101.79"/><line x1="230.84" y1="42.57" x2="230.84" y2="46.08"/><line x1="234.35" y1="42.57" x2="230.84" y2="42.57"/><line x1="265.94" y1="81.17" x2="251.9" y2="81.17"/><line x1="262.43" y1="89.95" x2="262.43" y2="82.93"/><line x1="260.67" y1="89.95" x2="262.43" y2="89.95"/><line x1="280.41" y1="35.11" x2="272.52" y2="35.11"/><line x1="267.69" y1="81.17" x2="267.69" y2="74.15"/><line x1="191.79" y1="99.6" x2="191.35" y2="99.16"/><line x1="253.65" y1="51.34" x2="257.16" y2="51.34"/><line x1="262.43" y1="56.61" x2="262.43" y2="60.12"/><line x1="279.97" y1="67.57" x2="272.95" y2="67.57"/><line x1="197.06" y1="82.05" x2="196.62" y2="82.49"/><line x1="197.94" y1="82.05" x2="197.06" y2="82.05"/><line x1="198.37" y1="82.49" x2="197.94" y2="82.05"/><line x1="197.06" y1="90.83" x2="197.94" y2="90.83"/><line x1="164.15" y1="21.51" x2="246.63" y2="21.51"/><line x1="243.12" y1="23.26" x2="246.63" y2="25.02"/><line x1="239.61" y1="23.26" x2="243.12" y2="23.26"/><line x1="234.35" y1="25.02" x2="237.86" y2="25.02"/><line x1="230.84" y1="26.77" x2="234.35" y2="25.02"/><line x1="225.57" y1="26.77" x2="230.84" y2="26.77"/><line x1="198.37" y1="90.39" x2="198.37" y2="82.49"/><line x1="279.97" y1="81.17" x2="267.69" y2="81.17"/><line x1="189.16" y1="99.6" x2="189.16" y2="101.35"/><line x1="189.16" y1="101.35" x2="189.6" y2="101.79"/><line x1="272.52" y1="43.01" x2="280.41" y2="43.01"/><line x1="197.94" y1="90.83" x2="198.37" y2="90.39"/><line x1="191.35" y1="99.16" x2="189.6" y2="99.16"/><line x1="189.6" y1="99.16" x2="189.16" y2="99.6"/><line x1="209.78" y1="95.21" x2="209.78" y2="98.72"/><line x1="237.86" y1="25.02" x2="239.61" y2="23.26"/><line x1="272.95" y1="42.57" x2="272.95" y2="35.55"/><line x1="260.67" y1="82.93" x2="260.67" y2="89.95"/><line x1="195.74" y1="81.17" x2="195.74" y2="91.7"/><line x1="230.84" y1="46.08" x2="234.35" y2="46.08"/><line x1="227.33" y1="42.57" x2="230.84" y2="39.06"/><line x1="230.84" y1="39.06" x2="232.59" y2="35.55"/><line x1="232.59" y1="35.55" x2="236.1" y2="32.04"/><line x1="213.29" y1="54.85" x2="216.8" y2="54.85"/><line x1="160.65" y1="70.65" x2="164.15" y2="21.51"/><line x1="202.76" y1="67.14" x2="202.76" y2="63.63"/><line x1="199.25" y1="67.14" x2="202.76" y2="67.14"/><line x1="222.06" y1="37.3" x2="223.82" y2="35.55"/><line x1="230.84" y1="105.74" x2="216.8" y2="105.74"/><line x1="227.33" y1="74.15" x2="222.06" y2="74.15"/><line x1="206.27" y1="194.36" x2="199.25" y2="194.36"/><line x1="209.78" y1="204.01" x2="213.29" y2="204.01"/><line x1="206.27" y1="196.12" x2="199.25" y2="196.12"/><line x1="206.27" y1="195.24" x2="199.25" y2="195.24"/><line x1="199.25" y1="218.05" x2="195.74" y2="218.05"/><line x1="209.78" y1="214.54" x2="209.78" y2="204.01"/><line x1="195.74" y1="214.54" x2="195.74" y2="200.5"/><line x1="199.25" y1="221.56" x2="199.25" y2="218.05"/><line x1="199.25" y1="196.99" x2="206.27" y2="196.99"/><line x1="209.34" y1="203.57" x2="209.34" y2="214.98"/><line x1="213.29" y1="203.57" x2="209.34" y2="203.57"/><line x1="209.78" y1="193.48" x2="195.74" y2="193.48"/><line x1="209.34" y1="214.98" x2="213.29" y2="214.98"/><line x1="213.29" y1="214.54" x2="209.78" y2="214.54"/><line x1="195.74" y1="221.56" x2="195.74" y2="218.49"/><line x1="286.12" y1="139.96" x2="286.99" y2="140.84"/><line x1="286.99" y1="137.33" x2="286.12" y2="138.21"/><line x1="286.12" y1="138.21" x2="286.12" y2="139.96"/><line x1="271.64" y1="147.86" x2="267.25" y2="147.86"/><line x1="237.86" y1="177.25" x2="237.86" y2="181.64"/></g><g stroke="#d3b15b" stroke-width="2.4" stroke-linecap="round"><line x1="222.06" y1="144.35" x2="220.31" y2="144.35"/><line x1="220.31" y1="144.35" x2="213.29" y2="151.37"/><line x1="213.29" y1="153.12" x2="215.05" y2="154.88"/><line x1="227.33" y1="158.39" x2="237.86" y2="168.92"/><line x1="248.39" y1="137.33" x2="244.88" y2="140.84"/><line x1="230.84" y1="154.88" x2="227.33" y2="158.39"/><line x1="251.9" y1="147.86" x2="255.41" y2="151.37"/><line x1="248.39" y1="144.35" x2="251.9" y2="147.86"/><line x1="241.37" y1="165.41" x2="237.86" y2="161.9"/><line x1="215.05" y1="154.88" x2="216.8" y2="154.88"/><line x1="237.86" y1="161.9" x2="234.35" y2="158.39"/><line x1="241.37" y1="123.29" x2="234.35" y2="130.31"/><line x1="258.92" y1="147.86" x2="248.39" y2="137.33"/><line x1="192.23" y1="151.37" x2="209.78" y2="133.82"/><line x1="188.72" y1="154.88" x2="192.23" y2="151.37"/><line x1="170.85" y1="132.61" x2="170.63" y2="132.39"/><line x1="223.82" y1="146.1" x2="222.06" y2="144.35"/><line x1="185.21" y1="165.41" x2="188.72" y2="165.41"/><line x1="286.99" y1="133.82" x2="286.99" y2="137.33"/><line x1="170.63" y1="132.39" x2="170.3" y2="132.06"/><line x1="185.21" y1="175.94" x2="188.72" y2="175.94"/><line x1="185.21" y1="168.92" x2="185.21" y2="175.94"/><line x1="185.21" y1="179.45" x2="185.21" y2="186.46"/><line x1="237.86" y1="189.97" x2="237.86" y2="193.48"/><line x1="237.86" y1="193.48" x2="236.98" y2="194.36"/><line x1="220.31" y1="193.48" x2="220.31" y2="189.97"/><line x1="216.8" y1="189.97" x2="213.29" y2="193.48"/><line x1="209.78" y1="53.1" x2="209.78" y2="60.12"/><line x1="188.72" y1="179.45" x2="185.21" y2="179.45"/><line x1="228.21" y1="197.87" x2="227.33" y2="196.99"/><line x1="229.96" y1="197.87" x2="228.21" y2="197.87"/><line x1="294.01" y1="181.2" x2="285.24" y2="181.2"/><line x1="220.31" y1="189.97" x2="216.8" y2="189.97"/><line x1="256.28" y1="34.67" x2="264.62" y2="32.04"/><line x1="286.12" y1="45.2" x2="284.36" y2="45.2"/><line x1="237.86" y1="168.92" x2="239.17" y2="168.92"/><line x1="241.37" y1="175.94" x2="240.05" y2="175.94"/><line x1="237.86" y1="175.94" x2="237.86" y2="177.25"/><line x1="237.86" y1="182.95" x2="239.17" y2="182.95"/><line x1="241.37" y1="189.97" x2="240.05" y2="189.97"/><line x1="241.37" y1="193.48" x2="241.37" y2="189.97"/><line x1="282.61" y1="189.97" x2="279.97" y2="192.61"/><line x1="255.41" y1="151.37" x2="258.92" y2="151.37"/><line x1="241.37" y1="182.95" x2="241.37" y2="175.94"/><line x1="241.37" y1="168.92" x2="241.37" y2="165.41"/><line x1="185.21" y1="189.97" x2="184.34" y2="190.85"/><line x1="279.97" y1="151.37" x2="283.48" y2="151.37"/><line x1="279.97" y1="147.86" x2="279.97" y2="149.17"/><line x1="269.45" y1="32.04" x2="270.32" y2="31.16"/><line x1="283.48" y1="102.23" x2="283.48" y2="105.74"/><line x1="234.35" y1="130.31" x2="234.35" y2="132.06"/><line x1="244.88" y1="126.8" x2="244.88" y2="125.05"/><line x1="237.86" y1="181.64" x2="237.86" y2="182.95"/><line x1="223.82" y1="119.78" x2="241.37" y2="102.23"/><line x1="241.37" y1="102.23" x2="244.88" y2="98.72"/><line x1="195.74" y1="193.48" x2="192.23" y2="193.48"/><line x1="243.12" y1="123.29" x2="241.37" y2="123.29"/><line x1="255.41" y1="98.72" x2="255.41" y2="95.21"/><line x1="265.94" y1="98.72" x2="265.94" y2="95.21"/><line x1="250.14" y1="51.34" x2="253.65" y2="51.34"/><line x1="286.99" y1="44.32" x2="286.12" y2="45.2"/><line x1="266.81" y1="49.59" x2="265.94" y2="48.71"/><line x1="258.92" y1="151.37" x2="258.92" y2="150.05"/><line x1="283.48" y1="151.37" x2="294.01" y2="151.37"/><line x1="198.81" y1="221.56" x2="198.81" y2="222"/><line x1="276.46" y1="98.72" x2="276.46" y2="95.21"/><line x1="241.37" y1="130.31" x2="244.88" y2="126.8"/><line x1="276.46" y1="28.53" x2="286.12" y2="28.53"/><line x1="279.97" y1="126.8" x2="279.97" y2="130.31"/><line x1="279.97" y1="26.77" x2="276.46" y2="26.77"/><line x1="209.78" y1="133.82" x2="202.76" y2="126.8"/><line x1="216.8" y1="112.76" x2="223.82" y2="119.78"/><line x1="202.76" y1="126.8" x2="195.74" y2="119.78"/><line x1="209.78" y1="105.74" x2="216.8" y2="112.76"/><line x1="185.21" y1="154.88" x2="188.72" y2="154.88"/><line x1="185.21" y1="158.39" x2="185.21" y2="165.41"/><line x1="188.72" y1="165.41" x2="188.72" y2="158.39"/><line x1="188.72" y1="175.94" x2="188.72" y2="168.92"/><line x1="188.72" y1="186.46" x2="188.72" y2="179.45"/><line x1="188.72" y1="158.39" x2="185.21" y2="158.39"/><line x1="188.72" y1="168.92" x2="185.21" y2="168.92"/><line x1="185.21" y1="186.46" x2="188.72" y2="186.46"/><line x1="158.89" y1="175.94" x2="155.38" y2="172.43"/><line x1="195.74" y1="140.84" x2="192.23" y2="144.35"/><line x1="192.23" y1="123.29" x2="195.74" y2="126.8"/><line x1="118.53" y1="187.34" x2="118.53" y2="186.46"/><line x1="256.28" y1="43.45" x2="255.41" y2="42.57"/><line x1="125.55" y1="156.63" x2="122.04" y2="156.63"/><line x1="195.74" y1="119.78" x2="188.72" y2="119.78"/><line x1="209.78" y1="98.72" x2="209.78" y2="105.74"/><line x1="188.72" y1="123.29" x2="192.23" y2="123.29"/><line x1="253.65" y1="35.55" x2="255.41" y2="35.55"/><line x1="209.78" y1="91.7" x2="209.78" y2="95.21"/><line x1="181.7" y1="105.74" x2="182.58" y2="104.86"/><line x1="181.7" y1="119.78" x2="181.7" y2="123.29"/><line x1="166.46" y1="132.39" x2="166.24" y2="132.61"/><line x1="272.95" y1="68.89" x2="272.95" y2="67.57"/><line x1="181.7" y1="123.29" x2="185.21" y2="123.29"/><line x1="284.36" y1="45.2" x2="283.48" y2="46.08"/><line x1="286.12" y1="116.27" x2="285.24" y2="116.27"/><line x1="125.55" y1="162.34" x2="125.55" y2="157.95"/><line x1="132.57" y1="162.34" x2="132.57" y2="163.65"/><line x1="125.55" y1="157.95" x2="125.55" y2="156.63"/><line x1="132.57" y1="157.95" x2="132.57" y2="162.34"/><line x1="188.72" y1="189.97" x2="185.21" y2="189.97"/><line x1="192.23" y1="193.48" x2="188.72" y2="189.97"/><line x1="181.7" y1="200.5" x2="175.56" y2="200.5"/><line x1="240.05" y1="175.94" x2="239.17" y2="175.94"/><line x1="240.05" y1="168.92" x2="241.37" y2="168.92"/><line x1="141.34" y1="160.14" x2="137.83" y2="156.63"/><line x1="287.87" y1="120.66" x2="286.99" y2="119.78"/><line x1="221.19" y1="194.36" x2="220.31" y2="193.48"/><line x1="213.29" y1="193.48" x2="209.78" y2="193.48"/><line x1="236.98" y1="194.36" x2="234.35" y2="196.99"/><line x1="213.29" y1="54.85" x2="213.29" y2="49.59"/><line x1="286.99" y1="91.7" x2="285.68" y2="91.7"/><line x1="185.21" y1="123.29" x2="185.21" y2="119.78"/><line x1="289.63" y1="122.41" x2="287.87" y2="120.66"/><line x1="283.48" y1="105.74" x2="284.36" y2="106.62"/><line x1="230.84" y1="105.74" x2="227.33" y2="109.25"/><line x1="279.97" y1="149.17" x2="279.97" y2="150.05"/><line x1="279.97" y1="150.05" x2="279.97" y2="151.37"/><line x1="230.84" y1="196.99" x2="229.96" y2="197.87"/><line x1="308.93" y1="122.41" x2="308.05" y2="123.29"/><line x1="285.24" y1="116.27" x2="284.36" y2="116.27"/><line x1="284.36" y1="106.62" x2="284.36" y2="109.25"/><line x1="284.36" y1="118.9" x2="283.48" y2="119.78"/><line x1="284.8" y1="91.7" x2="283.48" y2="91.7"/><line x1="227.33" y1="196.99" x2="223.82" y2="196.99"/><line x1="151.87" y1="182.95" x2="153.19" y2="182.95"/><line x1="290.5" y1="72.4" x2="290.5" y2="78.54"/><line x1="158.89" y1="182.95" x2="158.89" y2="175.94"/><line x1="158.89" y1="189.97" x2="157.57" y2="189.97"/><line x1="286.99" y1="109.25" x2="286.99" y2="105.74"/><line x1="285.24" y1="109.25" x2="286.12" y2="109.25"/><line x1="150.12" y1="182.95" x2="151.87" y2="182.95"/><line x1="151.87" y1="189.97" x2="150.12" y2="189.97"/><line x1="279.97" y1="98.72" x2="283.48" y2="102.23"/><line x1="261.55" y1="175.94" x2="265.06" y2="175.94"/><line x1="170.3" y1="132.06" x2="166.79" y2="132.06"/><line x1="166.79" y1="132.06" x2="166.46" y2="132.39"/><line x1="265.94" y1="48.71" x2="265.94" y2="46.08"/><line x1="150.12" y1="189.97" x2="149.24" y2="190.85"/><line x1="139.59" y1="179.45" x2="140.9" y2="179.45"/><line x1="139.59" y1="193.48" x2="136.08" y2="193.48"/><line x1="168.54" y1="201.38" x2="168.54" y2="200.5"/><line x1="159.77" y1="190.85" x2="158.89" y2="189.97"/><line x1="181.7" y1="196.99" x2="181.7" y2="200.5"/><line x1="162.4" y1="196.99" x2="162.4" y2="195.68"/><line x1="119.41" y1="180.32" x2="121.16" y2="180.32"/><line x1="139.59" y1="176.81" x2="139.59" y2="179.45"/><line x1="162.4" y1="195.68" x2="162.4" y2="194.8"/><line x1="162.4" y1="194.8" x2="162.4" y2="193.48"/><line x1="122.04" y1="179.45" x2="122.04" y2="175.94"/><line x1="171.17" y1="136.45" x2="171.17" y2="132.94"/><line x1="140.9" y1="193.48" x2="139.59" y2="193.48"/><line x1="134.32" y1="196.99" x2="119.41" y2="196.99"/><line x1="185.21" y1="151.37" x2="185.21" y2="154.88"/><line x1="124.67" y1="166.28" x2="125.55" y2="165.41"/><line x1="286.99" y1="105.74" x2="290.5" y2="105.74"/><line x1="119.41" y1="196.99" x2="118.53" y2="196.12"/><line x1="122.04" y1="156.63" x2="115.02" y2="156.63"/><line x1="286.99" y1="116.27" x2="286.12" y2="116.27"/><line x1="153.63" y1="123.29" x2="153.63" y2="119.78"/><line x1="153.63" y1="119.78" x2="150.12" y2="119.78"/><line x1="170.85" y1="136.78" x2="171.17" y2="136.45"/><line x1="166.46" y1="137" x2="166.79" y2="137.33"/><line x1="160.65" y1="105.74" x2="171.17" y2="105.74"/><line x1="146.61" y1="172.43" x2="141.34" y2="167.16"/><line x1="265.94" y1="149.17" x2="265.94" y2="150.05"/><line x1="265.94" y1="150.05" x2="265.94" y2="151.37"/><line x1="258.92" y1="149.17" x2="258.92" y2="147.86"/><line x1="270.32" y1="29.41" x2="271.2" y2="28.53"/><line x1="258.92" y1="150.05" x2="258.92" y2="149.17"/><line x1="284.36" y1="116.27" x2="284.36" y2="118.9"/><line x1="285.24" y1="181.2" x2="281.73" y2="182.95"/><line x1="165.91" y1="136.45" x2="166.24" y2="136.78"/><line x1="239.17" y1="168.92" x2="240.05" y2="168.92"/><line x1="286.99" y1="32.92" x2="287.43" y2="32.92"/><line x1="239.17" y1="189.97" x2="237.86" y2="189.97"/><line x1="162.4" y1="193.48" x2="159.77" y2="190.85"/><line x1="272.95" y1="150.05" x2="272.95" y2="149.17"/><line x1="239.17" y1="175.94" x2="237.86" y2="175.94"/><line x1="272.95" y1="149.17" x2="272.95" y2="147.86"/><line x1="184.34" y1="103.11" x2="183.46" y2="102.23"/><line x1="252.34" y1="35.55" x2="253.65" y2="35.55"/><line x1="191.35" y1="92.58" x2="192.23" y2="93.46"/><line x1="182.58" y1="101.35" x2="181.7" y2="102.23"/><line x1="166.79" y1="102.23" x2="166.79" y2="98.72"/><line x1="192.23" y1="76.79" x2="192.23" y2="77.66"/><line x1="192.23" y1="77.66" x2="192.23" y2="81.17"/><line x1="171.17" y1="105.74" x2="171.17" y2="102.23"/><line x1="192.23" y1="93.46" x2="193.11" y2="94.34"/><line x1="185.21" y1="119.78" x2="181.7" y2="119.78"/><line x1="118.53" y1="196.12" x2="118.53" y2="189.97"/><line x1="118.53" y1="186.46" x2="118.53" y2="181.2"/><line x1="293.57" y1="123.29" x2="290.5" y2="123.29"/><line x1="246.63" y1="42.57" x2="246.63" y2="47.83"/><line x1="311.56" y1="109.25" x2="311.56" y2="119.78"/><line x1="167.66" y1="102.23" x2="166.79" y2="102.23"/><line x1="118.53" y1="189.97" x2="118.53" y2="189.1"/><line x1="137.83" y1="167.16" x2="137.83" y2="163.65"/><line x1="141.34" y1="167.16" x2="137.83" y2="167.16"/><line x1="137.83" y1="163.65" x2="141.34" y2="163.65"/><line x1="146.61" y1="175.94" x2="146.61" y2="172.43"/><line x1="150.12" y1="172.43" x2="150.12" y2="175.94"/><line x1="150.12" y1="175.94" x2="146.61" y2="175.94"/><line x1="165.91" y1="75.03" x2="172.93" y2="75.03"/><line x1="173.81" y1="75.91" x2="174.68" y2="76.79"/><line x1="165.91" y1="83.81" x2="165.03" y2="82.93"/><line x1="111.51" y1="156.63" x2="108" y2="70.65"/><line x1="108" y1="70.65" x2="160.65" y2="70.65"/><line x1="285.68" y1="91.7" x2="284.8" y2="91.7"/><line x1="311.56" y1="119.78" x2="310.68" y2="120.66"/><line x1="286.99" y1="119.78" x2="286.99" y2="116.27"/><line x1="304.98" y1="123.29" x2="304.54" y2="123.29"/><line x1="195.74" y1="70.65" x2="188.72" y2="70.65"/><line x1="213.29" y1="49.59" x2="209.78" y2="49.59"/><line x1="265.06" y1="175.94" x2="265.39" y2="175.61"/><line x1="275.59" y1="190.85" x2="274.71" y2="189.97"/><line x1="118.09" y1="187.34" x2="118.53" y2="187.34"/><line x1="260.67" y1="171.55" x2="260.67" y2="175.06"/><line x1="283.48" y1="119.78" x2="283.48" y2="123.29"/><line x1="150.12" y1="123.29" x2="153.63" y2="123.29"/><line x1="279.97" y1="184.71" x2="280.85" y2="185.59"/><line x1="265.61" y1="171.22" x2="265.39" y2="171"/><line x1="118.53" y1="189.1" x2="118.09" y2="189.1"/><line x1="272.95" y1="28.53" x2="272.95" y2="23.26"/><line x1="290.5" y1="123.29" x2="289.63" y2="122.41"/><line x1="234.35" y1="196.99" x2="230.84" y2="196.99"/><line x1="265.94" y1="147.86" x2="265.94" y2="149.17"/><line x1="118.09" y1="189.1" x2="118.09" y2="187.34"/><line x1="272.95" y1="23.26" x2="276.46" y2="23.26"/><line x1="265.94" y1="151.37" x2="272.95" y2="151.37"/><line x1="244.88" y1="125.05" x2="243.12" y2="123.29"/><line x1="308.49" y1="105.3" x2="312" y2="105.3"/><line x1="276.46" y1="23.26" x2="279.97" y2="23.26"/><line x1="188.72" y1="119.78" x2="188.72" y2="123.29"/><line x1="265.39" y1="171" x2="265.06" y2="170.67"/><line x1="294.01" y1="151.37" x2="294.01" y2="158.39"/><line x1="166.79" y1="137.33" x2="170.3" y2="137.33"/><line x1="272.95" y1="151.37" x2="272.95" y2="150.05"/><line x1="262.43" y1="60.12" x2="262.43" y2="65.38"/><line x1="283.48" y1="123.29" x2="279.97" y2="126.8"/><line x1="223.82" y1="196.99" x2="221.19" y2="194.36"/><line x1="291.38" y1="85.56" x2="290.5" y2="85.56"/><line x1="279.97" y1="23.26" x2="279.97" y2="26.77"/><line x1="286.99" y1="72.4" x2="290.5" y2="72.4"/><line x1="291.38" y1="78.54" x2="291.38" y2="85.56"/><line x1="171.17" y1="102.23" x2="167.66" y2="102.23"/><line x1="183.46" y1="102.23" x2="182.58" y2="101.35"/><line x1="181.7" y1="102.23" x2="181.7" y2="105.74"/><line x1="199.25" y1="131.63" x2="199.25" y2="136.01"/><line x1="166.24" y1="132.61" x2="165.91" y2="132.94"/><line x1="166.24" y1="136.78" x2="166.46" y2="137"/><line x1="192.23" y1="91.7" x2="191.35" y2="92.58"/><line x1="195.74" y1="91.7" x2="192.23" y2="91.7"/><line x1="192.23" y1="81.17" x2="195.74" y2="81.17"/><line x1="193.11" y1="94.34" x2="194.86" y2="92.58"/><line x1="144.85" y1="123.29" x2="150.12" y2="123.29"/><line x1="290.5" y1="105.74" x2="290.5" y2="104.86"/><line x1="160.65" y1="70.65" x2="160.65" y2="98.72"/><line x1="304.54" y1="104.86" x2="304.54" y2="105.74"/><line x1="115.02" y1="156.63" x2="111.51" y2="156.63"/><line x1="182.58" y1="104.86" x2="184.34" y2="103.11"/><line x1="192.23" y1="144.35" x2="185.21" y2="144.35"/><line x1="310.68" y1="120.66" x2="308.93" y2="122.41"/><line x1="195.74" y1="126.8" x2="199.25" y2="130.31"/><line x1="265.06" y1="170.67" x2="261.55" y2="170.67"/><line x1="199.25" y1="130.31" x2="199.25" y2="131.63"/><line x1="199.25" y1="136.01" x2="199.25" y2="137.33"/><line x1="312" y1="105.3" x2="312" y2="108.81"/><line x1="185.21" y1="144.35" x2="185.21" y2="151.37"/><line x1="290.5" y1="104.86" x2="304.54" y2="104.86"/><line x1="248.39" y1="98.72" x2="255.41" y2="98.72"/><line x1="247.95" y1="42.57" x2="246.63" y2="42.57"/><line x1="244.88" y1="98.72" x2="244.88" y2="95.21"/><line x1="265.94" y1="46.08" x2="264.62" y2="46.08"/><line x1="171.17" y1="132.94" x2="170.85" y2="132.61"/><line x1="170.63" y1="137" x2="170.85" y2="136.78"/><line x1="261.55" y1="170.67" x2="261.22" y2="171"/><line x1="308.49" y1="105.74" x2="308.49" y2="105.3"/><line x1="150.12" y1="119.78" x2="143.1" y2="119.78"/><line x1="194.86" y1="92.58" x2="195.74" y2="91.7"/><line x1="280.85" y1="185.59" x2="282.61" y2="187.34"/><line x1="174.68" y1="76.79" x2="178.19" y2="76.79"/><line x1="172.93" y1="75.03" x2="173.81" y2="75.91"/><line x1="166.79" y1="84.68" x2="165.91" y2="83.81"/><line x1="165.03" y1="82.93" x2="165.03" y2="75.91"/><line x1="178.19" y1="75.91" x2="188.72" y2="75.91"/><line x1="308.05" y1="105.74" x2="308.49" y2="105.74"/><line x1="312" y1="108.81" x2="311.56" y2="108.81"/><line x1="304.54" y1="123.29" x2="294.01" y2="123.29"/><line x1="276.46" y1="26.77" x2="276.46" y2="28.53"/><line x1="227" y1="80.63" x2="227.33" y2="80.3"/><line x1="209.78" y1="49.59" x2="209.78" y2="53.1"/><line x1="260.67" y1="175.06" x2="261" y2="175.39"/><line x1="188.72" y1="75.91" x2="188.72" y2="76.79"/><line x1="178.19" y1="76.79" x2="178.19" y2="75.91"/><line x1="188.72" y1="76.79" x2="192.23" y2="76.79"/><line x1="165.91" y1="98.72" x2="165.91" y2="95.21"/><line x1="165.91" y1="95.21" x2="166.79" y2="95.21"/><line x1="165.03" y1="75.91" x2="165.91" y2="75.03"/><line x1="308.05" y1="123.29" x2="304.98" y2="123.29"/><line x1="226.45" y1="75.91" x2="222.94" y2="75.91"/><line x1="255.41" y1="42.57" x2="253.65" y2="42.57"/><line x1="287.43" y1="32.92" x2="287.43" y2="34.67"/><line x1="255.41" y1="95.21" x2="248.39" y2="95.21"/><line x1="265.94" y1="95.21" x2="258.92" y2="95.21"/><line x1="170.3" y1="137.33" x2="170.63" y2="137"/><line x1="258.92" y1="98.72" x2="265.94" y2="98.72"/><line x1="276.46" y1="95.21" x2="269.45" y2="95.21"/><line x1="264.62" y1="32.04" x2="265.94" y2="32.04"/><line x1="269.45" y1="98.72" x2="276.46" y2="98.72"/><line x1="279.97" y1="95.21" x2="279.97" y2="98.72"/><line x1="287.43" y1="34.67" x2="286.99" y2="34.67"/><line x1="166.79" y1="98.72" x2="165.91" y2="98.72"/><line x1="284.36" y1="109.25" x2="285.24" y2="109.25"/><line x1="294.01" y1="123.29" x2="293.57" y2="123.29"/><line x1="166.79" y1="95.21" x2="166.79" y2="91.7"/><line x1="165.91" y1="91.7" x2="165.91" y2="88.19"/><line x1="165.91" y1="88.19" x2="166.79" y2="88.19"/><line x1="272.95" y1="147.86" x2="271.64" y2="147.86"/><line x1="286.99" y1="144.35" x2="284.36" y2="146.98"/><line x1="165.91" y1="132.94" x2="165.91" y2="136.45"/><line x1="286.12" y1="109.25" x2="286.99" y2="109.25"/><line x1="166.79" y1="91.7" x2="165.91" y2="91.7"/><line x1="166.79" y1="88.19" x2="166.79" y2="84.68"/><line x1="311.56" y1="108.81" x2="311.56" y2="109.25"/><line x1="139.59" y1="123.29" x2="144.85" y2="123.29"/><line x1="199.25" y1="137.33" x2="195.74" y2="140.84"/><line x1="286.99" y1="34.67" x2="286.99" y2="44.32"/><line x1="265.94" y1="175.06" x2="265.94" y2="171.55"/><line x1="160.65" y1="98.72" x2="160.65" y2="105.74"/><line x1="139.59" y1="119.78" x2="139.59" y2="123.29"/><line x1="265.94" y1="171.55" x2="265.61" y2="171.22"/><line x1="143.1" y1="119.78" x2="139.59" y2="119.78"/><line x1="304.54" y1="105.74" x2="308.05" y2="105.74"/><line x1="181.7" y1="194.8" x2="181.7" y2="195.68"/><line x1="175.56" y1="200.5" x2="175.56" y2="201.38"/><line x1="175.56" y1="201.38" x2="168.54" y2="201.38"/><line x1="181.7" y1="193.48" x2="181.7" y2="194.8"/><line x1="168.54" y1="200.5" x2="162.4" y2="200.5"/><line x1="118.53" y1="181.2" x2="119.41" y2="180.32"/><line x1="137.83" y1="156.63" x2="132.57" y2="156.63"/><line x1="155.38" y1="172.43" x2="150.12" y2="172.43"/><line x1="181.7" y1="195.68" x2="181.7" y2="196.99"/><line x1="162.4" y1="200.5" x2="162.4" y2="196.99"/><line x1="234.35" y1="132.06" x2="236.1" y2="133.82"/><line x1="236.1" y1="133.82" x2="237.86" y2="133.82"/><line x1="237.86" y1="133.82" x2="241.37" y2="130.31"/><line x1="213.29" y1="151.37" x2="213.29" y2="153.12"/><line x1="223.82" y1="147.86" x2="223.82" y2="146.1"/><line x1="220.31" y1="151.37" x2="223.82" y2="147.86"/><line x1="216.8" y1="154.88" x2="220.31" y2="151.37"/><line x1="234.35" y1="158.39" x2="230.84" y2="154.88"/><line x1="244.88" y1="140.84" x2="248.39" y2="144.35"/><line x1="265.39" y1="175.61" x2="265.61" y2="175.39"/><line x1="265.61" y1="175.39" x2="265.94" y2="175.06"/><line x1="261.22" y1="175.61" x2="261.55" y2="175.94"/><line x1="261" y1="175.39" x2="261.22" y2="175.61"/><line x1="261" y1="171.22" x2="260.67" y2="171.55"/><line x1="261.22" y1="171" x2="261" y2="171.22"/><line x1="282.61" y1="187.34" x2="282.61" y2="189.97"/><line x1="277.34" y1="192.61" x2="275.59" y2="190.85"/><line x1="279.97" y1="192.61" x2="277.34" y2="192.61"/><line x1="281.73" y1="182.95" x2="279.97" y2="184.71"/><line x1="274.71" y1="189.97" x2="272.95" y2="191.73"/><line x1="271.2" y1="195.24" x2="271.2" y2="204.01"/><line x1="241.37" y1="204.01" x2="241.37" y2="193.48"/><line x1="272.95" y1="191.73" x2="271.2" y2="195.24"/><line x1="271.2" y1="204.01" x2="248.39" y2="204.01"/><line x1="294.01" y1="158.39" x2="294.01" y2="181.2"/><line x1="248.39" y1="204.01" x2="241.37" y2="204.01"/><line x1="239.17" y1="182.95" x2="240.05" y2="182.95"/><line x1="240.05" y1="182.95" x2="241.37" y2="182.95"/><line x1="240.05" y1="189.97" x2="239.17" y2="189.97"/><line x1="122.04" y1="174.62" x2="124.67" y2="166.28"/><line x1="121.16" y1="180.32" x2="122.04" y2="179.45"/><line x1="136.08" y1="193.48" x2="135.2" y2="194.36"/><line x1="135.2" y1="194.36" x2="135.2" y2="196.12"/><line x1="135.2" y1="196.12" x2="134.32" y2="196.99"/><line x1="141.34" y1="163.65" x2="141.34" y2="160.14"/><line x1="136.08" y1="175.94" x2="138.71" y2="175.94"/><line x1="138.71" y1="175.94" x2="139.59" y2="176.81"/><line x1="184.34" y1="190.85" x2="181.7" y2="193.48"/><line x1="157.57" y1="189.97" x2="153.19" y2="189.97"/><line x1="157.57" y1="182.95" x2="158.89" y2="182.95"/><line x1="153.19" y1="189.97" x2="151.87" y2="189.97"/><line x1="153.19" y1="182.95" x2="157.57" y2="182.95"/><line x1="140.9" y1="179.45" x2="149.24" y2="182.08"/><line x1="149.24" y1="182.08" x2="150.12" y2="182.95"/><line x1="149.24" y1="190.85" x2="140.9" y2="193.48"/><line x1="133.45" y1="166.28" x2="136.08" y2="174.62"/><line x1="125.55" y1="163.65" x2="125.55" y2="162.34"/><line x1="132.57" y1="156.63" x2="132.57" y2="157.95"/><line x1="125.55" y1="165.41" x2="125.55" y2="163.65"/><line x1="132.57" y1="163.65" x2="132.57" y2="165.41"/><line x1="132.57" y1="165.41" x2="133.45" y2="166.28"/><line x1="122.04" y1="175.94" x2="122.04" y2="174.62"/><line x1="136.08" y1="174.62" x2="136.08" y2="175.94"/><line x1="222.39" y1="80.63" x2="222.61" y2="80.85"/><line x1="222.06" y1="80.3" x2="222.39" y2="80.63"/><line x1="280.85" y1="94.34" x2="279.97" y2="95.21"/><line x1="248.39" y1="95.21" x2="248.39" y2="98.72"/><line x1="258.92" y1="95.21" x2="258.92" y2="98.72"/><line x1="269.45" y1="95.21" x2="269.45" y2="98.72"/><line x1="262.43" y1="65.38" x2="265.94" y2="68.89"/><line x1="234.35" y1="102.23" x2="230.84" y2="105.74"/><line x1="216.8" y1="105.74" x2="213.29" y2="102.23"/><line x1="246.63" y1="32.04" x2="246.63" y2="35.55"/><line x1="213.29" y1="102.23" x2="213.29" y2="98.72"/><line x1="213.29" y1="91.7" x2="209.78" y2="91.7"/><line x1="222.61" y1="76.24" x2="222.39" y2="76.46"/><line x1="213.29" y1="95.21" x2="213.29" y2="91.7"/><line x1="247.95" y1="35.55" x2="252.34" y2="35.55"/><line x1="253.65" y1="42.57" x2="252.34" y2="42.57"/><line x1="246.63" y1="35.55" x2="247.95" y2="35.55"/><line x1="252.34" y1="42.57" x2="247.95" y2="42.57"/><line x1="290.5" y1="85.56" x2="290.5" y2="91.7"/><line x1="246.63" y1="47.83" x2="250.14" y2="51.34"/><line x1="209.78" y1="95.21" x2="213.29" y2="95.21"/><line x1="272.95" y1="60.12" x2="272.08" y2="59.24"/><line x1="283.48" y1="50.9" x2="280.85" y2="59.24"/><line x1="264.62" y1="46.08" x2="256.28" y2="43.45"/><line x1="272.95" y1="63.19" x2="272.95" y2="61.87"/><line x1="265.94" y1="68.89" x2="272.95" y2="68.89"/><line x1="279.97" y1="67.57" x2="279.97" y2="68.89"/><line x1="272.95" y1="61.87" x2="272.95" y2="60.12"/><line x1="279.97" y1="60.12" x2="279.97" y2="61.87"/><line x1="222.06" y1="76.79" x2="222.06" y2="80.3"/><line x1="222.39" y1="76.46" x2="222.06" y2="76.79"/><line x1="280.85" y1="59.24" x2="279.97" y2="60.12"/><line x1="269.45" y1="50.9" x2="269.45" y2="49.59"/><line x1="283.48" y1="46.08" x2="283.48" y2="49.59"/><line x1="290.5" y1="78.54" x2="291.38" y2="78.54"/><line x1="279.97" y1="68.89" x2="280.85" y2="69.77"/><line x1="290.5" y1="91.7" x2="286.99" y2="91.7"/><line x1="285.68" y1="72.4" x2="286.99" y2="72.4"/><line x1="270.32" y1="31.16" x2="270.32" y2="29.41"/><line x1="269.45" y1="49.59" x2="266.81" y2="49.59"/><line x1="284.8" y1="72.4" x2="285.68" y2="72.4"/><line x1="283.48" y1="72.4" x2="284.8" y2="72.4"/><line x1="265.94" y1="32.04" x2="269.45" y2="32.04"/><line x1="222.94" y1="81.17" x2="226.45" y2="81.17"/><line x1="283.48" y1="49.59" x2="283.48" y2="50.9"/><line x1="286.99" y1="29.41" x2="286.99" y2="32.92"/><line x1="244.88" y1="95.21" x2="241.37" y2="95.21"/><line x1="255.41" y1="35.55" x2="256.28" y2="34.67"/><line x1="286.12" y1="28.53" x2="286.99" y2="29.41"/><line x1="246.63" y1="25.02" x2="246.63" y2="32.04"/><line x1="209.78" y1="63.63" x2="213.29" y2="63.63"/><line x1="209.78" y1="60.12" x2="209.78" y2="63.63"/><line x1="226.45" y1="81.17" x2="226.78" y2="80.85"/><line x1="227.33" y1="76.79" x2="227" y2="76.46"/><line x1="195.74" y1="81.17" x2="195.74" y2="70.65"/><line x1="257.16" y1="51.34" x2="262.43" y2="56.61"/><line x1="226.78" y1="76.24" x2="226.45" y2="75.91"/><line x1="280.85" y1="69.77" x2="283.48" y2="72.4"/><line x1="271.2" y1="28.53" x2="272.95" y2="28.53"/><line x1="283.48" y1="91.7" x2="280.85" y2="94.34"/><line x1="272.95" y1="67.57" x2="272.95" y2="63.19"/><line x1="272.08" y1="59.24" x2="269.45" y2="50.9"/><line x1="279.97" y1="63.19" x2="279.97" y2="67.57"/><line x1="279.97" y1="61.87" x2="279.97" y2="63.19"/><line x1="253.65" y1="47.83" x2="257.16" y2="47.83"/><line x1="257.16" y1="47.83" x2="257.16" y2="51.34"/><line x1="253.65" y1="51.34" x2="253.65" y2="47.83"/><line x1="262.43" y1="56.61" x2="265.94" y2="56.61"/><line x1="265.94" y1="60.12" x2="262.43" y2="60.12"/><line x1="265.94" y1="56.61" x2="265.94" y2="60.12"/><line x1="160.65" y1="18" x2="246.63" y2="21.51"/><line x1="160.65" y1="70.65" x2="160.65" y2="18"/><line x1="213.29" y1="63.63" x2="213.29" y2="60.12"/><line x1="213.29" y1="98.72" x2="209.78" y2="98.72"/><line x1="227.33" y1="80.3" x2="227.33" y2="76.79"/><line x1="226.01" y1="109.25" x2="221.63" y2="109.25"/><line x1="222.94" y1="75.91" x2="222.61" y2="76.24"/><line x1="227" y1="76.46" x2="226.78" y2="76.24"/><line x1="213.29" y1="60.12" x2="213.29" y2="54.85"/><line x1="188.72" y1="70.65" x2="160.65" y2="70.65"/><line x1="246.63" y1="21.51" x2="246.63" y2="25.02"/><line x1="234.35" y1="95.21" x2="234.35" y2="102.23"/><line x1="220.31" y1="109.25" x2="216.8" y2="105.74"/><line x1="221.63" y1="109.25" x2="220.31" y2="109.25"/><line x1="227.33" y1="109.25" x2="226.01" y2="109.25"/><line x1="241.37" y1="95.21" x2="234.35" y2="95.21"/><line x1="222.61" y1="80.85" x2="222.94" y2="81.17"/><line x1="226.78" y1="80.85" x2="227" y2="80.63"/><line x1="206.27" y1="195.24" x2="206.27" y2="196.12"/><line x1="206.27" y1="194.36" x2="206.27" y2="195.24"/><line x1="195.74" y1="196.99" x2="199.25" y2="196.99"/><line x1="199.25" y1="196.12" x2="199.25" y2="195.24"/><line x1="195.74" y1="200.5" x2="195.74" y2="196.99"/><line x1="206.27" y1="196.12" x2="206.27" y2="196.99"/><line x1="208.9" y1="194.36" x2="206.27" y2="194.36"/><line x1="213.29" y1="200.5" x2="213.29" y2="203.57"/><line x1="209.78" y1="221.56" x2="199.25" y2="221.56"/><line x1="212.41" y1="199.63" x2="213.29" y2="200.5"/><line x1="194.86" y1="200.5" x2="195.74" y2="200.5"/><line x1="195.74" y1="214.54" x2="194.86" y2="214.54"/><line x1="194.86" y1="214.54" x2="194.86" y2="200.5"/><line x1="195.3" y1="218.49" x2="195.74" y2="218.49"/><line x1="195.74" y1="218.49" x2="195.74" y2="218.05"/><line x1="213.29" y1="214.98" x2="213.29" y2="218.05"/><line x1="199.25" y1="195.24" x2="199.25" y2="194.36"/><line x1="213.29" y1="203.57" x2="213.29" y2="204.01"/><line x1="199.25" y1="196.99" x2="199.25" y2="196.12"/><line x1="195.74" y1="218.05" x2="195.74" y2="214.54"/><line x1="196.62" y1="194.36" x2="195.74" y2="193.48"/><line x1="199.25" y1="194.36" x2="196.62" y2="194.36"/><line x1="209.78" y1="193.48" x2="208.9" y2="194.36"/><line x1="210.66" y1="220.68" x2="209.78" y2="221.56"/><line x1="206.27" y1="196.99" x2="209.78" y2="196.99"/><line x1="213.29" y1="214.54" x2="213.29" y2="214.98"/><line x1="213.29" y1="204.01" x2="213.29" y2="214.54"/><line x1="209.78" y1="196.99" x2="210.66" y2="197.87"/><line x1="210.66" y1="197.87" x2="212.41" y2="199.63"/><line x1="213.29" y1="218.05" x2="212.41" y2="218.93"/><line x1="212.41" y1="218.93" x2="210.66" y2="220.68"/><line x1="199.25" y1="221.56" x2="198.81" y2="221.56"/><line x1="195.3" y1="222" x2="195.3" y2="218.49"/><line x1="198.81" y1="222" x2="195.3" y2="222"/><line x1="279.97" y1="130.31" x2="283.48" y2="130.31"/><line x1="283.48" y1="130.31" x2="284.36" y2="131.19"/><line x1="283.48" y1="147.86" x2="279.97" y2="147.86"/><line x1="287.87" y1="139.96" x2="286.99" y2="140.84"/><line x1="287.87" y1="138.21" x2="287.87" y2="139.96"/><line x1="284.36" y1="146.98" x2="283.48" y2="147.86"/><line x1="284.36" y1="131.19" x2="286.99" y2="133.82"/><line x1="286.99" y1="137.33" x2="287.87" y2="138.21"/><line x1="286.99" y1="140.84" x2="286.99" y2="144.35"/><line x1="267.25" y1="149.17" x2="267.25" y2="147.86"/><line x1="268.13" y1="150.05" x2="267.25" y2="149.17"/><line x1="270.76" y1="150.05" x2="268.13" y2="150.05"/><line x1="271.64" y1="149.17" x2="270.76" y2="150.05"/><line x1="271.64" y1="147.86" x2="271.64" y2="149.17"/><line x1="267.25" y1="147.86" x2="265.94" y2="147.86"/><line x1="237.86" y1="177.25" x2="239.17" y2="177.25"/><line x1="239.17" y1="177.25" x2="240.05" y2="178.13"/><line x1="240.05" y1="178.13" x2="240.05" y2="180.76"/><line x1="240.05" y1="180.76" x2="239.17" y2="181.64"/><line x1="239.17" y1="181.64" x2="237.86" y2="181.64"/></g><g opacity="0.95"><circle cx="185.65" cy="95.65" r="2.2" fill="#d3b15b"/><circle cx="140.9" cy="192.61" r="2.2" fill="#d3b15b"/><circle cx="222.06" cy="132.06" r="2.2" fill="#d3b15b"/><circle cx="218.12" cy="132.06" r="2.2" fill="#d3b15b"/><circle cx="222.06" cy="128.12" r="2.2" fill="#d3b15b"/><circle cx="226.01" cy="132.06" r="2.2" fill="#d3b15b"/><circle cx="222.06" cy="136.01" r="2.2" fill="#d3b15b"/><circle cx="148.8" cy="189.97" r="2.2" fill="#d3b15b"/><circle cx="148.8" cy="182.95" r="2.2" fill="#d3b15b"/><circle cx="135.2" cy="174.62" r="2.2" fill="#d3b15b"/><circle cx="144.85" cy="158.39" r="2.2" fill="#d3b15b"/><circle cx="144.85" cy="154.88" r="2.2" fill="#d3b15b"/><circle cx="144.85" cy="168.92" r="2.2" fill="#d3b15b"/><circle cx="132.57" cy="166.72" r="2.2" fill="#d3b15b"/><circle cx="125.55" cy="166.72" r="2.2" fill="#d3b15b"/><circle cx="134.32" cy="142.59" r="2.2" fill="#d3b15b"/><circle cx="172.05" cy="174.18" r="2.2" fill="#d3b15b"/><circle cx="190.04" cy="100.04" r="3.2" fill="#b7493c"/><circle cx="198.37" cy="133.82" r="3.2" fill="#b7493c"/><circle cx="163.28" cy="161.02" r="2.2" fill="#d3b15b"/><circle cx="275.15" cy="185.15" r="3.2" fill="#b7493c"/><circle cx="151.87" cy="165.41" r="2.2" fill="#d3b15b"/><circle cx="202.76" cy="177.69" r="2.2" fill="#d3b15b"/><circle cx="267.69" cy="112.76" r="2.2" fill="#d3b15b"/><circle cx="257.16" cy="112.76" r="2.2" fill="#d3b15b"/><circle cx="278.22" cy="112.76" r="2.2" fill="#d3b15b"/><circle cx="202.76" cy="167.16" r="2.2" fill="#d3b15b"/><circle cx="202.76" cy="188.22" r="2.2" fill="#d3b15b"/><circle cx="257.16" cy="191.73" r="2.2" fill="#d3b15b"/><circle cx="274.71" cy="184.71" r="2.2" fill="#d3b15b"/><circle cx="281.73" cy="167.16" r="2.2" fill="#d3b15b"/><circle cx="151.87" cy="161.9" r="2.2" fill="#d3b15b"/><circle cx="172.05" cy="159.26" r="2.2" fill="#d3b15b"/><circle cx="190.48" cy="100.48" r="2.2" fill="#d3b15b"/><circle cx="155.38" cy="111.01" r="2.2" fill="#d3b15b"/><circle cx="197.5" cy="133.82" r="2.2" fill="#d3b15b"/><circle cx="166.79" cy="97.85" r="2.2" fill="#d3b15b"/><circle cx="130.81" cy="184.71" r="2.2" fill="#d3b15b"/><circle cx="211.54" cy="209.28" r="2.2" fill="#d3b15b"/><circle cx="197.06" cy="206.21" r="2.2" fill="#d3b15b"/><circle cx="197.06" cy="211.47" r="2.2" fill="#d3b15b"/><circle cx="197.06" cy="208.84" r="2.2" fill="#d3b15b"/><circle cx="282.17" cy="102.67" r="2.2" fill="#d3b15b"/><circle cx="282.17" cy="122.85" r="2.2" fill="#d3b15b"/><circle cx="140.9" cy="180.32" r="2.2" fill="#d3b15b"/><circle cx="122.92" cy="174.62" r="2.2" fill="#d3b15b"/><circle cx="259.79" cy="173.3" r="2.2" fill="#d3b15b"/><circle cx="180.83" cy="199.63" r="2.2" fill="#d3b15b"/><circle cx="151.87" cy="158.39" r="2.2" fill="#d3b15b"/><circle cx="151.87" cy="154.88" r="2.2" fill="#d3b15b"/><circle cx="179.07" cy="171.55" r="2.2" fill="#d3b15b"/><circle cx="279.32" cy="189.32" r="2.2" fill="#d3b15b"/><circle cx="263.3" cy="169.79" r="2.2" fill="#d3b15b"/><circle cx="266.81" cy="173.3" r="2.2" fill="#d3b15b"/><circle cx="263.3" cy="176.81" r="2.2" fill="#d3b15b"/><circle cx="151.87" cy="168.92" r="2.2" fill="#d3b15b"/><circle cx="119.41" cy="184.71" r="2.2" fill="#d3b15b"/><circle cx="119.41" cy="191.73" r="2.2" fill="#d3b15b"/><circle cx="292.7" cy="122.41" r="2.2" fill="#d3b15b"/><circle cx="296.21" cy="107.06" r="2.2" fill="#d3b15b"/><circle cx="305.86" cy="122.41" r="2.2" fill="#d3b15b"/><circle cx="211.54" cy="77.66" r="2.2" fill="#d3b15b"/><circle cx="167.66" cy="121.54" r="2.2" fill="#d3b15b"/><circle cx="123.35" cy="155.32" r="2.2" fill="#d3b15b"/><circle cx="165.69" cy="137.55" r="2.2" fill="#d3b15b"/><circle cx="171.39" cy="137.55" r="2.2" fill="#d3b15b"/><circle cx="245.32" cy="33.35" r="2.2" fill="#d3b15b"/><circle cx="172.05" cy="200.06" r="3.2" fill="#b7493c"/><circle cx="163.28" cy="199.63" r="2.2" fill="#d3b15b"/><circle cx="172.05" cy="196.99" r="2.2" fill="#d3b15b"/><circle cx="183.9" cy="97.41" r="2.2" fill="#d3b15b"/><circle cx="298.84" cy="107.06" r="2.2" fill="#d3b15b"/><circle cx="166.79" cy="76.79" r="2.2" fill="#d3b15b"/><circle cx="148.36" cy="170.67" r="2.2" fill="#d3b15b"/><circle cx="165.03" cy="176.81" r="2.2" fill="#d3b15b"/><circle cx="148.36" cy="167.16" r="2.2" fill="#d3b15b"/><circle cx="148.36" cy="163.65" r="2.2" fill="#d3b15b"/><circle cx="148.36" cy="160.14" r="2.2" fill="#d3b15b"/><circle cx="148.36" cy="156.63" r="2.2" fill="#d3b15b"/><circle cx="180.83" cy="187.34" r="2.2" fill="#d3b15b"/></g></svg>